  0
SECTION
  2
HEADER
  9
$ACADVER
  1
AC1009
  9
$DWGCODEPAGE
  3
ansi_1252
  9
$INSBASE
 10
0.0
 20
0.0
 30
0.0
  9
$EXTMIN
 10
-35.0
 20
-35.0
 30
0.0
  9
$EXTMAX
 10
35.0
 20
35.0
 30
0.0
  9
$LIMMIN
 10
0.0
 20
0.0
  9
$LIMMAX
 10
420.0
 20
297.0
  9
$ORTHOMODE
 70
     0
  9
$REGENMODE
 70
     1
  9
$FILLMODE
 70
     1
  9
$QTEXTMODE
 70
     0
  9
$MIRRTEXT
 70
     1
  9
$DRAGMODE
 70
     2
  9
$LTSCALE
 40
1.0
  9
$OSMODE
 70
    37
  9
$ATTMODE
 70
     1
  9
$TEXTSIZE
 40
3.5
  9
$TRACEWID
 40
1.0
  9
$TEXTSTYLE
  7
STANDARD
  9
$CLAYER
  8
0
  9
$CELTYPE
  6
BYLAYER
  9
$CECOLOR
 62
   256
  9
$DIMSCALE
 40
1.0
  9
$DIMASZ
 40
3.302
  9
$DIMEXO
 40
1.0
  9
$DIMDLI
 40
3.75
  9
$DIMRND
 40
0.0
  9
$DIMDLE
 40
0.0
  9
$DIMEXE
 40
1.0
  9
$DIMTP
 40
0.0
  9
$DIMTM
 40
0.0
  9
$DIMTXT
 40
3.5
  9
$DIMCEN
 40
2.5
  9
$DIMTSZ
 40
0.0
  9
$DIMTOL
 70
     0
  9
$DIMLIM
 70
     0
  9
$DIMTIH
 70
     1
  9
$DIMTOH
 70
     1
  9
$DIMSE1
 70
     0
  9
$DIMSE2
 70
     0
  9
$DIMTAD
 70
     1
  9
$DIMZIN
 70
     0
  9
$DIMBLK
  1

  9
$DIMASO
 70
     1
  9
$DIMSHO
 70
     1
  9
$DIMPOST
  1

  9
$DIMAPOST
  1

  9
$DIMALT
 70
     0
  9
$DIMALTD
 70
     3
  9
$DIMALTF
 40
0.0393700787
  9
$DIMLFAC
 40
1.0
  9
$DIMTOFL
 70
     1
  9
$DIMTVP
 40
0.0
  9
$DIMTIX
 70
     0
  9
$DIMSOXD
 70
     0
  9
$DIMSAH
 70
     0
  9
$DIMBLK1
  1

  9
$DIMBLK2
  1

  9
$DIMSTYLE
  2
ISO-25
  9
$DIMCLRD
 70
     0
  9
$DIMCLRE
 70
     0
  9
$DIMCLRT
 70
     0
  9
$DIMTFAC
 40
1.0
  9
$DIMGAP
 40
1.524
  9
$LUNITS
 70
     2
  9
$LUPREC
 70
     2
  9
$SKETCHINC
 40
1.0
  9
$FILLETRAD
 40
10.0
  9
$AUNITS
 70
     0
  9
$AUPREC
 70
     2
  9
$MENU
  1
.
  9
$ELEVATION
 40
0.0
  9
$PELEVATION
 40
0.0
  9
$THICKNESS
 40
0.0
  9
$LIMCHECK
 70
     0
  9
$CHAMFERA
 40
10.0
  9
$CHAMFERB
 40
10.0
  9
$SKPOLY
 70
     0
  9
$TDCREATE
 40
2456399.532575532
  9
$TDUPDATE
 40
2456399.532611701
  9
$TDINDWG
 40
0.0000000116
  9
$TDUSRTIMER
 40
0.0000000116
  9
$USRTIMER
 70
     1
  9
$ANGBASE
 50
0.0
  9
$ANGDIR
 70
     0
  9
$PDMODE
 70
     0
  9
$PDSIZE
 40
-1.0
  9
$PLINEWID
 40
0.0
  9
$COORDS
 70
     1
  9
$SPLFRAME
 70
     0
  9
$SPLINETYPE
 70
     6
  9
$SPLINESEGS
 70
     8
  9
$ATTDIA
 70
     0
  9
$ATTREQ
 70
     1
  9
$HANDLING
 70
     1
  9
$HANDSEED
  5
16C
  9
$SURFTAB1
 70
     6
  9
$SURFTAB2
 70
     6
  9
$SURFTYPE
 70
     6
  9
$SURFU
 70
     6
  9
$SURFV
 70
     6
  9
$UCSNAME
  2

  9
$UCSORG
 10
0.0
 20
0.0
 30
0.0
  9
$UCSXDIR
 10
1.0
 20
0.0
 30
0.0
  9
$UCSYDIR
 10
0.0
 20
1.0
 30
0.0
  9
$PUCSNAME
  2

  9
$PUCSORG
 10
0.0
 20
0.0
 30
0.0
  9
$PUCSXDIR
 10
1.0
 20
0.0
 30
0.0
  9
$PUCSYDIR
 10
0.0
 20
1.0
 30
0.0
  9
$USERI1
 70
     0
  9
$USERI2
 70
     0
  9
$USERI3
 70
     0
  9
$USERI4
 70
     0
  9
$USERI5
 70
     0
  9
$USERR1
 40
0.0
  9
$USERR2
 40
0.0
  9
$USERR3
 40
0.0
  9
$USERR4
 40
0.0
  9
$USERR5
 40
0.0
  9
$WORLDVIEW
 70
     1
  9
$SHADEDGE
 70
     3
  9
$SHADEDIF
 70
    70
  9
$TILEMODE
 70
     1
  9
$MAXACTVP
 70
    64
  9
$PLIMCHECK
 70
     0
  9
$PEXTMIN
 10
1.0000000000E+20
 20
1.0000000000E+20
 30
1.0000000000E+20
  9
$PEXTMAX
 10
-1.0000000000E+20
 20
-1.0000000000E+20
 30
-1.0000000000E+20
  9
$PLIMMIN
 10
0.0
 20
0.0
  9
$PLIMMAX
 10
420.0
 20
297.0
  9
$UNITMODE
 70
     0
  9
$VISRETAIN
 70
     1
  9
$PLINEGEN
 70
     0
  9
$PSLTSCALE
 70
     1
  0
ENDSEC
  0
SECTION
  2
TABLES
  0
TABLE
  2
VPORT
 70
     1
  0
VPORT
  2
*ACTIVE
 70
     0
 10
0.0
 20
0.0
 11
1.0
 21
1.0
 12
0.0
 22
0.0
 13
0.0
 23
0.0
 14
10.0
 24
10.0
 15
10.0
 25
10.0
 16
0.0
 26
0.0
 36
1.0
 17
0.0
 27
0.0
 37
0.0
 40
71.4
 41
1.0
 42
50.0
 43
0.0
 44
0.0
 50
0.0
 51
0.0
 71
     0
 72
   100
 73
     1
 74
     3
 75
     0
 76
     0
 77
     0
 78
     0
  0
ENDTAB
  0
TABLE
  2
LTYPE
 70
     6
  0
LTYPE
  2
CONTINUOUS
 70
     0
  3
Solid line
 72
    65
 73
     0
 40
0.0
  0
LTYPE
  2
HIDDEN
 70
     0
  3
Hidden __ __ __ __ __ __ __ __ __ __ __ __ __ __
 72
    65
 73
     2
 40
1.905
 49
1.27
 49
-0.635
  0
LTYPE
  2
PHANTOM
 70
     0
  3
Phantom ______  __  __  ______  __  __  ______
 72
    65
 73
     6
 40
12.7
 49
6.35
 49
-1.27
 49
1.27
 49
-1.27
 49
1.27
 49
-1.27
  0
LTYPE
  2
CENTER
 70
     0
  3
Center ____ _ ____ _ ____ _ ____ _ ____ _ ____
 72
    65
 73
     4
 40
10.16
 49
6.35
 49
-1.27
 49
1.27
 49
-1.27
  0
LTYPE
  2
CENTERX2
 70
     0
  3
Center (2x) ________  __  ________  __  _____
 72
    65
 73
     4
 40
20.32
 49
12.7
 49
-2.54
 49
2.54
 49
-2.54
  0
LTYPE
  2
DOT2
 70
     0
  3
Dot (.5x) ........................................
 72
    65
 73
     2
 40
0.635
 49
0.0
 49
-0.635
  0
ENDTAB
  0
TABLE
  2
LAYER
 70
     1
  0
LAYER
  2
0
 70
     0
 62
     7
  6
CONTINUOUS
  0
ENDTAB
  0
TABLE
  2
STYLE
 70
     1
  0
STYLE
  2
STANDARD
 70
     0
 40
0.0
 41
1.0
 50
0.0
 71
     0
 42
3.5
  3
txt
  4

  0
ENDTAB
  0
TABLE
  2
VIEW
 70
     0
  0
ENDTAB
  0
TABLE
  2
UCS
 70
     0
  0
ENDTAB
  0
TABLE
  2
APPID
 70
     1
  0
APPID
  2
ACAD
 70
     0
  0
ENDTAB
  0
TABLE
  2
DIMSTYLE
 70
     1
  0
DIMSTYLE
  2
ISO-25
 70
     0
  3

  4

  5

  6

  7

 40
1.0
 41
2.5
 42
0.625
 43
3.75
 44
1.25
 45
0.0
 46
0.0
 47
0.0
 48
0.0
140
2.5
141
2.5
142
0.0
143
0.0393700787
144
1.0
145
0.0
146
1.0
147
0.625
 71
     0
 72
     0
 73
     0
 74
     0
 75
     0
 76
     0
 77
     1
 78
     8
170
     0
171
     3
172
     1
173
     0
174
     0
175
     0
176
     0
177
     0
178
     0
  0
ENDTAB
  0
ENDSEC
  0
SECTION
  2
BLOCKS
  0
BLOCK
  8
0
  2
$MODEL_SPACE
 70
     0
 10
0.0
 20
0.0
 30
0.0
  3
$MODEL_SPACE
  1

  0
ENDBLK
  5
21
  8
0
  0
BLOCK
 67
     1
  8
0
  2
$PAPER_SPACE
 70
     0
 10
0.0
 20
0.0
 30
0.0
  3
$PAPER_SPACE
  1

  0
ENDBLK
  5
1D
 67
     1
  8
0
  0
ENDSEC
  0
SECTION
  2
ENTITIES
  0
POLYLINE
  5
44
  8
0
  6
CONTINUOUS
 62
     7
 66
     1
 10
0.0
 20
0.0
 30
0.0
  0
VERTEX
  5
94
  8
0
  6
CONTINUOUS
 62
     7
 10
-14.980070119
 20
-18.5875631379
 30
0.0
  0
VERTEX
  5
95
  8
0
  6
CONTINUOUS
 62
     7
 10
-14.6389135317
 20
-18.0493660011
 30
0.0
  0
VERTEX
  5
96
  8
0
  6
CONTINUOUS
 62
     7
 10
-14.3031129503
 20
-17.5080742797
 30
0.0
  0
VERTEX
  5
97
  8
0
  6
CONTINUOUS
 62
     7
 10
-13.9726683748
 20
-16.9636879735
 30
0.0
  0
VERTEX
  5
98
  8
0
  6
CONTINUOUS
 62
     7
 10
-13.6475798052
 20
-16.4162070826
 30
0.0
  0
VERTEX
  5
99
  8
0
  6
CONTINUOUS
 62
     7
 10
-13.3278472414
 20
-15.865631607
 30
0.0
  0
VERTEX
  5
9A
  8
0
  6
CONTINUOUS
 62
     7
 10
-13.0134706836
 20
-15.3119615467
 30
0.0
  0
VERTEX
  5
9B
  8
0
  6
CONTINUOUS
 62
     7
 10
-12.7044501316
 20
-14.7551969017
 30
0.0
  0
VERTEX
  5
9C
  8
0
  6
CONTINUOUS
 62
     7
 10
-12.4007855855
 20
-14.195337672
 30
0.0
  0
VERTEX
  5
9D
  8
0
  6
CONTINUOUS
 62
     7
 10
-12.1024770453
 20
-13.6323838576
 30
0.0
  0
VERTEX
  5
9E
  8
0
  6
CONTINUOUS
 62
     7
 10
-11.809524511
 20
-13.0663354585
 30
0.0
  0
VERTEX
  5
9F
  8
0
  6
CONTINUOUS
 62
     7
 10
-11.5219279826
 20
-12.4971924747
 30
0.0
  0
VERTEX
  5
A0
  8
0
  6
CONTINUOUS
 62
     7
 10
-11.23968746
 20
-11.9249549062
 30
0.0
  0
VERTEX
  5
A1
  8
0
  6
CONTINUOUS
 62
     7
 10
-10.9628029434
 20
-11.349622753
 30
0.0
  0
VERTEX
  5
A2
  8
0
  6
CONTINUOUS
 62
     7
 10
-10.6912744326
 20
-10.7711960151
 30
0.0
  0
VERTEX
  5
A3
  8
0
  6
CONTINUOUS
 62
     7
 10
-10.4251019277
 20
-10.1896746925
 30
0.0
  0
VERTEX
  5
A4
  8
0
  6
CONTINUOUS
 62
     7
 10
-10.1642854287
 20
-9.6050587852
 30
0.0
  0
SEQEND
  5
16B
  8
0
  6
CONTINUOUS
 62
     7
  0
ARC
  5
45
  8
0
  6
CONTINUOUS
 62
     7
 10
-17.9270754661
 20
-16.6994001459
 30
0.0
 40
3.500000000000012
 50
222.9694392317
 51
327.3520834632
  0
ARC
  5
46
  8
0
  6
CONTINUOUS
 62
     7
 10
0.0
 20
0.0
 30
0.0
 40
28.0
 50
197.0222592186
 51
222.9694392317
  0
ARC
  5
47
  8
0
  6
CONTINUOUS
 62
     7
 10
-23.4266819101
 20
-7.1722084942
 30
0.0
 40
3.5
 50
92.6789882874
 51
197.0222592186
  0
POLYLINE
  5
48
  8
0
  6
CONTINUOUS
 62
     7
 66
     1
 10
0.0
 20
0.0
 30
0.0
  0
VERTEX
  5
A5
  8
0
  6
CONTINUOUS
 62
     7
 10
-13.4003676272
 20
-4.0
 30
0.0
  0
VERTEX
  5
A6
  8
0
  6
CONTINUOUS
 62
     7
 10
-14.0372366735
 20
-3.9328322893
 30
0.0
  0
VERTEX
  5
A7
  8
0
  6
CONTINUOUS
 62
     7
 10
-14.6741057199
 20
-3.8719205542
 30
0.0
  0
VERTEX
  5
A8
  8
0
  6
CONTINUOUS
 62
     7
 10
-15.3109747663
 20
-3.8172647948
 30
0.0
  0
VERTEX
  5
A9
  8
0
  6
CONTINUOUS
 62
     7
 10
-15.9478438126
 20
-3.768865011
 30
0.0
  0
VERTEX
  5
AA
  8
0
  6
CONTINUOUS
 62
     7
 10
-16.584712859
 20
-3.7267212028
 30
0.0
  0
VERTEX
  5
AB
  8
0
  6
CONTINUOUS
 62
     7
 10
-17.2215819053
 20
-3.6908333702
 30
0.0
  0
VERTEX
  5
AC
  8
0
  6
CONTINUOUS
 62
     7
 10
-17.8584509517
 20
-3.6612015133
 30
0.0
  0
VERTEX
  5
AD
  8
0
  6
CONTINUOUS
 62
     7
 10
-18.495319998
 20
-3.637825632
 30
0.0
  0
VERTEX
  5
AE
  8
0
  6
CONTINUOUS
 62
     7
 10
-19.1321890444
 20
-3.6207057264
 30
0.0
  0
VERTEX
  5
AF
  8
0
  6
CONTINUOUS
 62
     7
 10
-19.7690580907
 20
-3.6098417963
 30
0.0
  0
VERTEX
  5
B0
  8
0
  6
CONTINUOUS
 62
     7
 10
-20.4059271371
 20
-3.6052338419
 30
0.0
  0
VERTEX
  5
B1
  8
0
  6
CONTINUOUS
 62
     7
 10
-21.0427961835
 20
-3.6068818631
 30
0.0
  0
VERTEX
  5
B2
  8
0
  6
CONTINUOUS
 62
     7
 10
-21.6796652298
 20
-3.61478586
 30
0.0
  0
VERTEX
  5
B3
  8
0
  6
CONTINUOUS
 62
     7
 10
-22.3165342762
 20
-3.6289458325
 30
0.0
  0
VERTEX
  5
B4
  8
0
  6
CONTINUOUS
 62
     7
 10
-22.9534033225
 20
-3.6493617806
 30
0.0
  0
VERTEX
  5
B5
  8
0
  6
CONTINUOUS
 62
     7
 10
-23.5902723689
 20
-3.6760337043
 30
0.0
  0
SEQEND
  5
16A
  8
0
  6
CONTINUOUS
 62
     7
  0
ARC
  5
49
  8
0
  6
CONTINUOUS
 62
     7
 10
-10.0
 20
0.0
 30
0.0
 40
5.25
 50
229.6324064558
 51
253.6028189727
  0
ARC
  5
4A
  8
0
  6
CONTINUOUS
 62
     7
 10
-12.0466333699
 20
-6.9551270189
 30
0.0
 40
2.0
 50
346.3971810273
 51
73.6028189727
  0
ARC
  5
4B
  8
0
  6
CONTINUOUS
 62
     7
 10
-5.0
 20
-8.6602540378
 30
0.0
 40
5.250000000000002
 50
166.3971810273
 51
190.3675935442
  0
POLYLINE
  5
4C
  8
0
  6
CONTINUOUS
 62
     7
 66
     1
 10
0.0
 20
0.0
 30
0.0
  0
VERTEX
  5
B6
  8
0
  6
CONTINUOUS
 62
     7
 10
8.6072668124
 20
-22.2669028425
 30
0.0
  0
VERTEX
  5
B7
  8
0
  6
CONTINUOUS
 62
     7
 10
8.3117527133
 20
-21.7023540029
 30
0.0
  0
VERTEX
  5
B8
  8
0
  6
CONTINUOUS
 62
     7
 10
8.0108806224
 20
-21.140896308
 30
0.0
  0
VERTEX
  5
B9
  8
0
  6
CONTINUOUS
 62
     7
 10
7.7046505395
 20
-20.582529758
 30
0.0
  0
VERTEX
  5
BA
  8
0
  6
CONTINUOUS
 62
     7
 10
7.3930624647
 20
-20.0272543528
 30
0.0
  0
VERTEX
  5
BB
  8
0
  6
CONTINUOUS
 62
     7
 10
7.076116398
 20
-19.4750700923
 30
0.0
  0
VERTEX
  5
BC
  8
0
  6
CONTINUOUS
 62
     7
 10
6.7538123394
 20
-18.9259769767
 30
0.0
  0
VERTEX
  5
BD
  8
0
  6
CONTINUOUS
 62
     7
 10
6.4261502889
 20
-18.3799750059
 30
0.0
  0
VERTEX
  5
BE
  8
0
  6
CONTINUOUS
 62
     7
 10
6.0931302465
 20
-17.8370641799
 30
0.0
  0
VERTEX
  5
BF
  8
0
  6
CONTINUOUS
 62
     7
 10
5.7547522122
 20
-17.2972444988
 30
0.0
  0
VERTEX
  5
C0
  8
0
  6
CONTINUOUS
 62
     7
 10
5.411016186
 20
-16.7605159624
 30
0.0
  0
VERTEX
  5
C1
  8
0
  6
CONTINUOUS
 62
     7
 10
5.0619221678
 20
-16.2268785708
 30
0.0
  0
VERTEX
  5
C2
  8
0
  6
CONTINUOUS
 62
     7
 10
4.7074701578
 20
-15.6963323241
 30
0.0
  0
VERTEX
  5
C3
  8
0
  6
CONTINUOUS
 62
     7
 10
4.3476601558
 20
-15.1688772221
 30
0.0
  0
VERTEX
  5
C4
  8
0
  6
CONTINUOUS
 62
     7
 10
3.9824921619
 20
-14.644513265
 30
0.0
  0
VERTEX
  5
C5
  8
0
  6
CONTINUOUS
 62
     7
 10
3.6119661761
 20
-14.1232404527
 30
0.0
  0
VERTEX
  5
C6
  8
0
  6
CONTINUOUS
 62
     7
 10
3.2360821985
 20
-13.6050587852
 30
0.0
  0
SEQEND
  5
169
  8
0
  6
CONTINUOUS
 62
     7
  0
ARC
  5
4D
  8
0
  6
CONTINUOUS
 62
     7
 10
5.4985670213
 20
-23.8750028421
 30
0.0
 40
3.5
 50
282.9694392317
 51
27.3520834632
  0
ARC
  5
4E
  8
0
  6
CONTINUOUS
 62
     7
 10
0.0
 20
0.0
 30
0.0
 40
28.0
 50
257.0222592186
 51
282.9694392317
  0
ARC
  5
4F
  8
0
  6
CONTINUOUS
 62
     7
 10
-5.5020261978
 20
-23.8742059076
 30
0.0
 40
3.500000000000002
 50
152.6789882874
 51
257.0222592186
  0
POLYLINE
  5
50
  8
0
  6
CONTINUOUS
 62
     7
 66
     1
 10
0.0
 20
0.0
 30
0.0
  0
VERTEX
  5
C7
  8
0
  6
CONTINUOUS
 62
     7
 10
-3.2360821985
 20
-13.6050587852
 30
0.0
  0
VERTEX
  5
C8
  8
0
  6
CONTINUOUS
 62
     7
 10
-3.6126856654
 20
-14.1230197029
 30
0.0
  0
VERTEX
  5
C9
  8
0
  6
CONTINUOUS
 62
     7
 10
-3.9838712985
 20
-14.6441086084
 30
0.0
  0
VERTEX
  5
CA
  8
0
  6
CONTINUOUS
 62
     7
 10
-4.3496390979
 20
-15.1683255017
 30
0.0
  0
VERTEX
  5
CB
  8
0
  6
CONTINUOUS
 62
     7
 10
-4.7099890634
 20
-15.6956703828
 30
0.0
  0
VERTEX
  5
CC
  8
0
  6
CONTINUOUS
 62
     7
 10
-5.064921195
 20
-16.2261432517
 30
0.0
  0
VERTEX
  5
CD
  8
0
  6
CONTINUOUS
 62
     7
 10
-5.4144354929
 20
-16.7597441085
 30
0.0
  0
VERTEX
  5
CE
  8
0
  6
CONTINUOUS
 62
     7
 10
-5.7585319569
 20
-17.2964729531
 30
0.0
  0
VERTEX
  5
CF
  8
0
  6
CONTINUOUS
 62
     7
 10
-6.0972105871
 20
-17.8363297854
 30
0.0
  0
VERTEX
  5
D0
  8
0
  6
CONTINUOUS
 62
     7
 10
-6.4304713835
 20
-18.3793146056
 30
0.0
  0
VERTEX
  5
D1
  8
0
  6
CONTINUOUS
 62
     7
 10
-6.7583143461
 20
-18.9254274136
 30
0.0
  0
VERTEX
  5
D2
  8
0
  6
CONTINUOUS
 62
     7
 10
-7.0807394749
 20
-19.4746682095
 30
0.0
  0
VERTEX
  5
D3
  8
0
  6
CONTINUOUS
 62
     7
 10
-7.3977467698
 20
-20.0270369931
 30
0.0
  0
VERTEX
  5
D4
  8
0
  6
CONTINUOUS
 62
     7
 10
-7.7093362309
 20
-20.5825337646
 30
0.0
  0
VERTEX
  5
D5
  8
0
  6
CONTINUOUS
 62
     7
 10
-8.0155078582
 20
-21.1411585238
 30
0.0
  0
VERTEX
  5
D6
  8
0
  6
CONTINUOUS
 62
     7
 10
-8.3162616517
 20
-21.7029112709
 30
0.0
  0
VERTEX
  5
D7
  8
0
  6
CONTINUOUS
 62
     7
 10
-8.6115976114
 20
-22.2677920058
 30
0.0
  0
SEQEND
  5
168
  8
0
  6
CONTINUOUS
 62
     7
  0
ARC
  5
51
  8
0
  6
CONTINUOUS
 62
     7
 10
-5.0
 20
-8.6602540378
 30
0.0
 40
5.25
 50
289.6324064558
 51
313.6028189727
  0
ARC
  5
52
  8
0
  6
CONTINUOUS
 62
     7
 10
0.0
 20
-13.9102540378
 30
0.0
 40
2.0
 50
46.3971810273
 51
133.6028189727
  0
ARC
  5
53
  8
0
  6
CONTINUOUS
 62
     7
 10
5.0
 20
-8.6602540378
 30
0.0
 40
5.25
 50
226.3971810273
 51
250.3675935442
  0
POLYLINE
  5
54
  8
0
  6
CONTINUOUS
 62
     7
 66
     1
 10
0.0
 20
0.0
 30
0.0
  0
VERTEX
  5
D8
  8
0
  6
CONTINUOUS
 62
     7
 10
23.5873369314
 20
-3.6793397046
 30
0.0
  0
VERTEX
  5
D9
  8
0
  6
CONTINUOUS
 62
     7
 10
22.9506662451
 20
-3.6529880017
 30
0.0
  0
VERTEX
  5
DA
  8
0
  6
CONTINUOUS
 62
     7
 10
22.3139935727
 20
-3.6328220284
 30
0.0
  0
VERTEX
  5
DB
  8
0
  6
CONTINUOUS
 62
     7
 10
21.6773189143
 20
-3.6188417845
 30
0.0
  0
VERTEX
  5
DC
  8
0
  6
CONTINUOUS
 62
     7
 10
21.0406422699
 20
-3.6110472702
 30
0.0
  0
VERTEX
  5
DD
  8
0
  6
CONTINUOUS
 62
     7
 10
20.4039636395
 20
-3.6094384853
 30
0.0
  0
VERTEX
  5
DE
  8
0
  6
CONTINUOUS
 62
     7
 10
19.767283023
 20
-3.61401543
 30
0.0
  0
VERTEX
  5
DF
  8
0
  6
CONTINUOUS
 62
     7
 10
19.1306004205
 20
-3.6247781042
 30
0.0
  0
VERTEX
  5
E0
  8
0
  6
CONTINUOUS
 62
     7
 10
18.493915832
 20
-3.6417265079
 30
0.0
  0
VERTEX
  5
E1
  8
0
  6
CONTINUOUS
 62
     7
 10
17.8572292575
 20
-3.6648606411
 30
0.0
  0
VERTEX
  5
E2
  8
0
  6
CONTINUOUS
 62
     7
 10
17.2205406969
 20
-3.6941805039
 30
0.0
  0
VERTEX
  5
E3
  8
0
  6
CONTINUOUS
 62
     7
 10
16.5838501504
 20
-3.7296860961
 30
0.0
  0
VERTEX
  5
E4
  8
0
  6
CONTINUOUS
 62
     7
 10
15.9471576178
 20
-3.7713774179
 30
0.0
  0
VERTEX
  5
E5
  8
0
  6
CONTINUOUS
 62
     7
 10
15.3104630992
 20
-3.8192544691
 30
0.0
  0
VERTEX
  5
E6
  8
0
  6
CONTINUOUS
 62
     7
 10
14.6737665945
 20
-3.8733172499
 30
0.0
  0
VERTEX
  5
E7
  8
0
  6
CONTINUOUS
 62
     7
 10
14.0370681039
 20
-3.9335657602
 30
0.0
  0
VERTEX
  5
E8
  8
0
  6
CONTINUOUS
 62
     7
 10
13.4003676272
 20
-4.0
 30
0.0
  0
SEQEND
  5
167
  8
0
  6
CONTINUOUS
 62
     7
  0
ARC
  5
55
  8
0
  6
CONTINUOUS
 62
     7
 10
23.4256424874
 20
-7.1756026962
 30
0.0
 40
3.500000000000008
 50
342.9694392317
 51
87.3520834632
  0
ARC
  5
56
  8
0
  6
CONTINUOUS
 62
     7
 10
0.0
 20
0.0
 30
0.0
 40
28.0
 50
317.0222592186
 51
342.9694392317
  0
ARC
  5
57
  8
0
  6
CONTINUOUS
 62
     7
 10
17.9246557123
 20
-16.7019974134
 30
0.0
 40
3.500000000000004
 50
212.6789882874
 51
317.0222592186
  0
POLYLINE
  5
58
  8
0
  6
CONTINUOUS
 62
     7
 66
     1
 10
0.0
 20
0.0
 30
0.0
  0
VERTEX
  5
E9
  8
0
  6
CONTINUOUS
 62
     7
 10
10.1642854287
 20
-9.6050587852
 30
0.0
  0
VERTEX
  5
EA
  8
0
  6
CONTINUOUS
 62
     7
 10
10.4245510081
 20
-10.1901874136
 30
0.0
  0
VERTEX
  5
EB
  8
0
  6
CONTINUOUS
 62
     7
 10
10.6902344213
 20
-10.7721880541
 30
0.0
  0
VERTEX
  5
EC
  8
0
  6
CONTINUOUS
 62
     7
 10
10.9613356684
 20
-11.3510607069
 30
0.0
  0
VERTEX
  5
ED
  8
0
  6
CONTINUOUS
 62
     7
 10
11.2378547492
 20
-11.9268053718
 30
0.0
  0
VERTEX
  5
EE
  8
0
  6
CONTINUOUS
 62
     7
 10
11.5197916639
 20
-12.4994220489
 30
0.0
  0
VERTEX
  5
EF
  8
0
  6
CONTINUOUS
 62
     7
 10
11.8071464124
 20
-13.0689107382
 30
0.0
  0
VERTEX
  5
F0
  8
0
  6
CONTINUOUS
 62
     7
 10
12.0999189947
 20
-13.6352714397
 30
0.0
  0
VERTEX
  5
F1
  8
0
  6
CONTINUOUS
 62
     7
 10
12.3981094109
 20
-14.1985041534
 30
0.0
  0
VERTEX
  5
F2
  8
0
  6
CONTINUOUS
 62
     7
 10
12.7017176608
 20
-14.7586088793
 30
0.0
  0
VERTEX
  5
F3
  8
0
  6
CONTINUOUS
 62
     7
 10
13.0107437446
 20
-15.3155856173
 30
0.0
  0
VERTEX
  5
F4
  8
0
  6
CONTINUOUS
 62
     7
 10
13.3251876622
 20
-15.8694343676
 30
0.0
  0
VERTEX
  5
F5
  8
0
  6
CONTINUOUS
 62
     7
 10
13.6450494137
 20
-16.42015513
 30
0.0
  0
VERTEX
  5
F6
  8
0
  6
CONTINUOUS
 62
     7
 10
13.9703289989
 20
-16.9677479046
 30
0.0
  0
VERTEX
  5
F7
  8
0
  6
CONTINUOUS
 62
     7
 10
14.301026418
 20
-17.5122126914
 30
0.0
  0
VERTEX
  5
F8
  8
0
  6
CONTINUOUS
 62
     7
 10
14.6371416708
 20
-18.0535494903
 30
0.0
  0
VERTEX
  5
F9
  8
0
  6
CONTINUOUS
 62
     7
 10
14.9786747575
 20
-18.5917583015
 30
0.0
  0
SEQEND
  5
166
  8
0
  6
CONTINUOUS
 62
     7
  0
ARC
  5
59
  8
0
  6
CONTINUOUS
 62
     7
 10
5.0
 20
-8.6602540378
 30
0.0
 40
5.25
 50
349.6324064558
 51
13.6028189727
  0
ARC
  5
5A
  8
0
  6
CONTINUOUS
 62
     7
 10
12.0466333699
 20
-6.9551270189
 30
0.0
 40
2.0
 50
106.3971810273
 51
193.6028189727
  0
ARC
  5
5B
  8
0
  6
CONTINUOUS
 62
     7
 10
10.0
 20
0.0
 30
0.0
 40
5.249999999999999
 50
286.3971810273
 51
310.3675935442
  0
POLYLINE
  5
5C
  8
0
  6
CONTINUOUS
 62
     7
 66
     1
 10
0.0
 20
0.0
 30
0.0
  0
VERTEX
  5
FA
  8
0
  6
CONTINUOUS
 62
     7
 10
14.980070119
 20
18.5875631379
 30
0.0
  0
VERTEX
  5
FB
  8
0
  6
CONTINUOUS
 62
     7
 10
14.6389135317
 20
18.0493660011
 30
0.0
  0
VERTEX
  5
FC
  8
0
  6
CONTINUOUS
 62
     7
 10
14.3031129503
 20
17.5080742797
 30
0.0
  0
VERTEX
  5
FD
  8
0
  6
CONTINUOUS
 62
     7
 10
13.9726683748
 20
16.9636879735
 30
0.0
  0
VERTEX
  5
FE
  8
0
  6
CONTINUOUS
 62
     7
 10
13.6475798052
 20
16.4162070826
 30
0.0
  0
VERTEX
  5
FF
  8
0
  6
CONTINUOUS
 62
     7
 10
13.3278472414
 20
15.865631607
 30
0.0
  0
VERTEX
  5
100
  8
0
  6
CONTINUOUS
 62
     7
 10
13.0134706836
 20
15.3119615467
 30
0.0
  0
VERTEX
  5
101
  8
0
  6
CONTINUOUS
 62
     7
 10
12.7044501316
 20
14.7551969017
 30
0.0
  0
VERTEX
  5
102
  8
0
  6
CONTINUOUS
 62
     7
 10
12.4007855855
 20
14.195337672
 30
0.0
  0
VERTEX
  5
103
  8
0
  6
CONTINUOUS
 62
     7
 10
12.1024770453
 20
13.6323838576
 30
0.0
  0
VERTEX
  5
104
  8
0
  6
CONTINUOUS
 62
     7
 10
11.809524511
 20
13.0663354585
 30
0.0
  0
VERTEX
  5
105
  8
0
  6
CONTINUOUS
 62
     7
 10
11.5219279826
 20
12.4971924747
 30
0.0
  0
VERTEX
  5
106
  8
0
  6
CONTINUOUS
 62
     7
 10
11.23968746
 20
11.9249549062
 30
0.0
  0
VERTEX
  5
107
  8
0
  6
CONTINUOUS
 62
     7
 10
10.9628029434
 20
11.349622753
 30
0.0
  0
VERTEX
  5
108
  8
0
  6
CONTINUOUS
 62
     7
 10
10.6912744326
 20
10.7711960151
 30
0.0
  0
VERTEX
  5
109
  8
0
  6
CONTINUOUS
 62
     7
 10
10.4251019277
 20
10.1896746925
 30
0.0
  0
VERTEX
  5
10A
  8
0
  6
CONTINUOUS
 62
     7
 10
10.1642854287
 20
9.6050587852
 30
0.0
  0
SEQEND
  5
165
  8
0
  6
CONTINUOUS
 62
     7
  0
ARC
  5
5D
  8
0
  6
CONTINUOUS
 62
     7
 10
17.9270754661
 20
16.6994001459
 30
0.0
 40
3.500000000000008
 50
42.9694392317
 51
147.3520834632
  0
ARC
  5
5E
  8
0
  6
CONTINUOUS
 62
     7
 10
0.0
 20
0.0
 30
0.0
 40
28.0
 50
17.0222592186
 51
42.9694392317
  0
ARC
  5
5F
  8
0
  6
CONTINUOUS
 62
     7
 10
23.4266819101
 20
7.1722084942
 30
0.0
 40
3.500000000000001
 50
272.6789882874
 51
17.0222592186
  0
POLYLINE
  5
60
  8
0
  6
CONTINUOUS
 62
     7
 66
     1
 10
0.0
 20
0.0
 30
0.0
  0
VERTEX
  5
10B
  8
0
  6
CONTINUOUS
 62
     7
 10
13.4003676272
 20
4.0
 30
0.0
  0
VERTEX
  5
10C
  8
0
  6
CONTINUOUS
 62
     7
 10
14.0372366735
 20
3.9328322893
 30
0.0
  0
VERTEX
  5
10D
  8
0
  6
CONTINUOUS
 62
     7
 10
14.6741057199
 20
3.8719205542
 30
0.0
  0
VERTEX
  5
10E
  8
0
  6
CONTINUOUS
 62
     7
 10
15.3109747663
 20
3.8172647948
 30
0.0
  0
VERTEX
  5
10F
  8
0
  6
CONTINUOUS
 62
     7
 10
15.9478438126
 20
3.768865011
 30
0.0
  0
VERTEX
  5
110
  8
0
  6
CONTINUOUS
 62
     7
 10
16.584712859
 20
3.7267212028
 30
0.0
  0
VERTEX
  5
111
  8
0
  6
CONTINUOUS
 62
     7
 10
17.2215819053
 20
3.6908333702
 30
0.0
  0
VERTEX
  5
112
  8
0
  6
CONTINUOUS
 62
     7
 10
17.8584509517
 20
3.6612015133
 30
0.0
  0
VERTEX
  5
113
  8
0
  6
CONTINUOUS
 62
     7
 10
18.495319998
 20
3.637825632
 30
0.0
  0
VERTEX
  5
114
  8
0
  6
CONTINUOUS
 62
     7
 10
19.1321890444
 20
3.6207057264
 30
0.0
  0
VERTEX
  5
115
  8
0
  6
CONTINUOUS
 62
     7
 10
19.7690580907
 20
3.6098417963
 30
0.0
  0
VERTEX
  5
116
  8
0
  6
CONTINUOUS
 62
     7
 10
20.4059271371
 20
3.6052338419
 30
0.0
  0
VERTEX
  5
117
  8
0
  6
CONTINUOUS
 62
     7
 10
21.0427961835
 20
3.6068818631
 30
0.0
  0
VERTEX
  5
118
  8
0
  6
CONTINUOUS
 62
     7
 10
21.6796652298
 20
3.61478586
 30
0.0
  0
VERTEX
  5
119
  8
0
  6
CONTINUOUS
 62
     7
 10
22.3165342762
 20
3.6289458325
 30
0.0
  0
VERTEX
  5
11A
  8
0
  6
CONTINUOUS
 62
     7
 10
22.9534033225
 20
3.6493617806
 30
0.0
  0
VERTEX
  5
11B
  8
0
  6
CONTINUOUS
 62
     7
 10
23.5902723689
 20
3.6760337043
 30
0.0
  0
SEQEND
  5
164
  8
0
  6
CONTINUOUS
 62
     7
  0
ARC
  5
61
  8
0
  6
CONTINUOUS
 62
     7
 10
10.0
 20
0.0
 30
0.0
 40
5.249999999999999
 50
49.6324064558
 51
73.6028189727
  0
ARC
  5
62
  8
0
  6
CONTINUOUS
 62
     7
 10
12.0466333699
 20
6.9551270189
 30
0.0
 40
1.999999999999999
 50
166.3971810273
 51
253.6028189727
  0
ARC
  5
63
  8
0
  6
CONTINUOUS
 62
     7
 10
5.0
 20
8.6602540378
 30
0.0
 40
5.25
 50
346.3971810273
 51
10.3675935442
  0
POLYLINE
  5
64
  8
0
  6
CONTINUOUS
 62
     7
 66
     1
 10
0.0
 20
0.0
 30
0.0
  0
VERTEX
  5
11C
  8
0
  6
CONTINUOUS
 62
     7
 10
-8.6072668124
 20
22.2669028425
 30
0.0
  0
VERTEX
  5
11D
  8
0
  6
CONTINUOUS
 62
     7
 10
-8.3117527133
 20
21.7023540029
 30
0.0
  0
VERTEX
  5
11E
  8
0
  6
CONTINUOUS
 62
     7
 10
-8.0108806224
 20
21.140896308
 30
0.0
  0
VERTEX
  5
11F
  8
0
  6
CONTINUOUS
 62
     7
 10
-7.7046505395
 20
20.582529758
 30
0.0
  0
VERTEX
  5
120
  8
0
  6
CONTINUOUS
 62
     7
 10
-7.3930624647
 20
20.0272543528
 30
0.0
  0
VERTEX
  5
121
  8
0
  6
CONTINUOUS
 62
     7
 10
-7.076116398
 20
19.4750700923
 30
0.0
  0
VERTEX
  5
122
  8
0
  6
CONTINUOUS
 62
     7
 10
-6.7538123394
 20
18.9259769767
 30
0.0
  0
VERTEX
  5
123
  8
0
  6
CONTINUOUS
 62
     7
 10
-6.4261502889
 20
18.3799750059
 30
0.0
  0
VERTEX
  5
124
  8
0
  6
CONTINUOUS
 62
     7
 10
-6.0931302465
 20
17.8370641799
 30
0.0
  0
VERTEX
  5
125
  8
0
  6
CONTINUOUS
 62
     7
 10
-5.7547522122
 20
17.2972444988
 30
0.0
  0
VERTEX
  5
126
  8
0
  6
CONTINUOUS
 62
     7
 10
-5.411016186
 20
16.7605159624
 30
0.0
  0
VERTEX
  5
127
  8
0
  6
CONTINUOUS
 62
     7
 10
-5.0619221678
 20
16.2268785708
 30
0.0
  0
VERTEX
  5
128
  8
0
  6
CONTINUOUS
 62
     7
 10
-4.7074701578
 20
15.6963323241
 30
0.0
  0
VERTEX
  5
129
  8
0
  6
CONTINUOUS
 62
     7
 10
-4.3476601558
 20
15.1688772221
 30
0.0
  0
VERTEX
  5
12A
  8
0
  6
CONTINUOUS
 62
     7
 10
-3.9824921619
 20
14.644513265
 30
0.0
  0
VERTEX
  5
12B
  8
0
  6
CONTINUOUS
 62
     7
 10
-3.6119661761
 20
14.1232404527
 30
0.0
  0
VERTEX
  5
12C
  8
0
  6
CONTINUOUS
 62
     7
 10
-3.2360821985
 20
13.6050587852
 30
0.0
  0
SEQEND
  5
163
  8
0
  6
CONTINUOUS
 62
     7
  0
ARC
  5
65
  8
0
  6
CONTINUOUS
 62
     7
 10
-5.4985670213
 20
23.8750028421
 30
0.0
 40
3.499999999999999
 50
102.9694392317
 51
207.3520834632
  0
ARC
  5
66
  8
0
  6
CONTINUOUS
 62
     7
 10
0.0
 20
0.0
 30
0.0
 40
28.0
 50
77.0222592186
 51
102.9694392317
  0
ARC
  5
67
  8
0
  6
CONTINUOUS
 62
     7
 10
5.5020261978
 20
23.8742059076
 30
0.0
 40
3.5
 50
332.6789882874
 51
77.0222592186
  0
POLYLINE
  5
68
  8
0
  6
CONTINUOUS
 62
     7
 66
     1
 10
0.0
 20
0.0
 30
0.0
  0
VERTEX
  5
12D
  8
0
  6
CONTINUOUS
 62
     7
 10
3.2360821985
 20
13.6050587852
 30
0.0
  0
VERTEX
  5
12E
  8
0
  6
CONTINUOUS
 62
     7
 10
3.6126856654
 20
14.1230197029
 30
0.0
  0
VERTEX
  5
12F
  8
0
  6
CONTINUOUS
 62
     7
 10
3.9838712985
 20
14.6441086084
 30
0.0
  0
VERTEX
  5
130
  8
0
  6
CONTINUOUS
 62
     7
 10
4.3496390979
 20
15.1683255017
 30
0.0
  0
VERTEX
  5
131
  8
0
  6
CONTINUOUS
 62
     7
 10
4.7099890634
 20
15.6956703828
 30
0.0
  0
VERTEX
  5
132
  8
0
  6
CONTINUOUS
 62
     7
 10
5.064921195
 20
16.2261432517
 30
0.0
  0
VERTEX
  5
133
  8
0
  6
CONTINUOUS
 62
     7
 10
5.4144354929
 20
16.7597441085
 30
0.0
  0
VERTEX
  5
134
  8
0
  6
CONTINUOUS
 62
     7
 10
5.7585319569
 20
17.2964729531
 30
0.0
  0
VERTEX
  5
135
  8
0
  6
CONTINUOUS
 62
     7
 10
6.0972105871
 20
17.8363297854
 30
0.0
  0
VERTEX
  5
136
  8
0
  6
CONTINUOUS
 62
     7
 10
6.4304713835
 20
18.3793146056
 30
0.0
  0
VERTEX
  5
137
  8
0
  6
CONTINUOUS
 62
     7
 10
6.7583143461
 20
18.9254274136
 30
0.0
  0
VERTEX
  5
138
  8
0
  6
CONTINUOUS
 62
     7
 10
7.0807394749
 20
19.4746682095
 30
0.0
  0
VERTEX
  5
139
  8
0
  6
CONTINUOUS
 62
     7
 10
7.3977467698
 20
20.0270369931
 30
0.0
  0
VERTEX
  5
13A
  8
0
  6
CONTINUOUS
 62
     7
 10
7.7093362309
 20
20.5825337646
 30
0.0
  0
VERTEX
  5
13B
  8
0
  6
CONTINUOUS
 62
     7
 10
8.0155078582
 20
21.1411585238
 30
0.0
  0
VERTEX
  5
13C
  8
0
  6
CONTINUOUS
 62
     7
 10
8.3162616517
 20
21.7029112709
 30
0.0
  0
VERTEX
  5
13D
  8
0
  6
CONTINUOUS
 62
     7
 10
8.6115976114
 20
22.2677920058
 30
0.0
  0
SEQEND
  5
162
  8
0
  6
CONTINUOUS
 62
     7
  0
ARC
  5
69
  8
0
  6
CONTINUOUS
 62
     7
 10
5.0
 20
8.6602540378
 30
0.0
 40
5.249999999999999
 50
109.6324064558
 51
133.6028189727
  0
ARC
  5
6A
  8
0
  6
CONTINUOUS
 62
     7
 10
0.0
 20
13.9102540378
 30
0.0
 40
1.999999999999998
 50
226.3971810273
 51
313.6028189727
  0
ARC
  5
6B
  8
0
  6
CONTINUOUS
 62
     7
 10
-5.0
 20
8.6602540378
 30
0.0
 40
5.250000000000002
 50
46.3971810273
 51
70.3675935442
  0
POLYLINE
  5
6C
  8
0
  6
CONTINUOUS
 62
     7
 66
     1
 10
0.0
 20
0.0
 30
0.0
  0
VERTEX
  5
13E
  8
0
  6
CONTINUOUS
 62
     7
 10
-23.5873369314
 20
3.6793397046
 30
0.0
  0
VERTEX
  5
13F
  8
0
  6
CONTINUOUS
 62
     7
 10
-22.9506662451
 20
3.6529880017
 30
0.0
  0
VERTEX
  5
140
  8
0
  6
CONTINUOUS
 62
     7
 10
-22.3139935727
 20
3.6328220284
 30
0.0
  0
VERTEX
  5
141
  8
0
  6
CONTINUOUS
 62
     7
 10
-21.6773189143
 20
3.6188417845
 30
0.0
  0
VERTEX
  5
142
  8
0
  6
CONTINUOUS
 62
     7
 10
-21.0406422699
 20
3.6110472702
 30
0.0
  0
VERTEX
  5
143
  8
0
  6
CONTINUOUS
 62
     7
 10
-20.4039636395
 20
3.6094384853
 30
0.0
  0
VERTEX
  5
144
  8
0
  6
CONTINUOUS
 62
     7
 10
-19.767283023
 20
3.61401543
 30
0.0
  0
VERTEX
  5
145
  8
0
  6
CONTINUOUS
 62
     7
 10
-19.1306004205
 20
3.6247781042
 30
0.0
  0
VERTEX
  5
146
  8
0
  6
CONTINUOUS
 62
     7
 10
-18.493915832
 20
3.6417265079
 30
0.0
  0
VERTEX
  5
147
  8
0
  6
CONTINUOUS
 62
     7
 10
-17.8572292575
 20
3.6648606411
 30
0.0
  0
VERTEX
  5
148
  8
0
  6
CONTINUOUS
 62
     7
 10
-17.2205406969
 20
3.6941805039
 30
0.0
  0
VERTEX
  5
149
  8
0
  6
CONTINUOUS
 62
     7
 10
-16.5838501504
 20
3.7296860961
 30
0.0
  0
VERTEX
  5
14A
  8
0
  6
CONTINUOUS
 62
     7
 10
-15.9471576178
 20
3.7713774179
 30
0.0
  0
VERTEX
  5
14B
  8
0
  6
CONTINUOUS
 62
     7
 10
-15.3104630992
 20
3.8192544691
 30
0.0
  0
VERTEX
  5
14C
  8
0
  6
CONTINUOUS
 62
     7
 10
-14.6737665945
 20
3.8733172499
 30
0.0
  0
VERTEX
  5
14D
  8
0
  6
CONTINUOUS
 62
     7
 10
-14.0370681039
 20
3.9335657602
 30
0.0
  0
VERTEX
  5
14E
  8
0
  6
CONTINUOUS
 62
     7
 10
-13.4003676272
 20
4.0
 30
0.0
  0
SEQEND
  5
161
  8
0
  6
CONTINUOUS
 62
     7
  0
ARC
  5
6D
  8
0
  6
CONTINUOUS
 62
     7
 10
-23.4256424874
 20
7.1756026962
 30
0.0
 40
3.500000000000001
 50
162.9694392317
 51
267.3520834632
  0
ARC
  5
6E
  8
0
  6
CONTINUOUS
 62
     7
 10
0.0
 20
0.0
 30
0.0
 40
28.0
 50
137.0222592186
 51
162.9694392317
  0
ARC
  5
6F
  8
0
  6
CONTINUOUS
 62
     7
 10
-17.9246557123
 20
16.7019974134
 30
0.0
 40
3.499999999999999
 50
32.6789882874
 51
137.0222592186
  0
POLYLINE
  5
70
  8
0
  6
CONTINUOUS
 62
     7
 66
     1
 10
0.0
 20
0.0
 30
0.0
  0
VERTEX
  5
14F
  8
0
  6
CONTINUOUS
 62
     7
 10
-10.1642854287
 20
9.6050587852
 30
0.0
  0
VERTEX
  5
150
  8
0
  6
CONTINUOUS
 62
     7
 10
-10.4245510081
 20
10.1901874136
 30
0.0
  0
VERTEX
  5
151
  8
0
  6
CONTINUOUS
 62
     7
 10
-10.6902344213
 20
10.7721880541
 30
0.0
  0
VERTEX
  5
152
  8
0
  6
CONTINUOUS
 62
     7
 10
-10.9613356684
 20
11.3510607069
 30
0.0
  0
VERTEX
  5
153
  8
0
  6
CONTINUOUS
 62
     7
 10
-11.2378547492
 20
11.9268053718
 30
0.0
  0
VERTEX
  5
154
  8
0
  6
CONTINUOUS
 62
     7
 10
-11.5197916639
 20
12.4994220489
 30
0.0
  0
VERTEX
  5
155
  8
0
  6
CONTINUOUS
 62
     7
 10
-11.8071464124
 20
13.0689107382
 30
0.0
  0
VERTEX
  5
156
  8
0
  6
CONTINUOUS
 62
     7
 10
-12.0999189947
 20
13.6352714397
 30
0.0
  0
VERTEX
  5
157
  8
0
  6
CONTINUOUS
 62
     7
 10
-12.3981094109
 20
14.1985041534
 30
0.0
  0
VERTEX
  5
158
  8
0
  6
CONTINUOUS
 62
     7
 10
-12.7017176608
 20
14.7586088793
 30
0.0
  0
VERTEX
  5
159
  8
0
  6
CONTINUOUS
 62
     7
 10
-13.0107437446
 20
15.3155856173
 30
0.0
  0
VERTEX
  5
15A
  8
0
  6
CONTINUOUS
 62
     7
 10
-13.3251876622
 20
15.8694343676
 30
0.0
  0
VERTEX
  5
15B
  8
0
  6
CONTINUOUS
 62
     7
 10
-13.6450494137
 20
16.42015513
 30
0.0
  0
VERTEX
  5
15C
  8
0
  6
CONTINUOUS
 62
     7
 10
-13.9703289989
 20
16.9677479046
 30
0.0
  0
VERTEX
  5
15D
  8
0
  6
CONTINUOUS
 62
     7
 10
-14.301026418
 20
17.5122126914
 30
0.0
  0
VERTEX
  5
15E
  8
0
  6
CONTINUOUS
 62
     7
 10
-14.6371416708
 20
18.0535494903
 30
0.0
  0
VERTEX
  5
15F
  8
0
  6
CONTINUOUS
 62
     7
 10
-14.9786747575
 20
18.5917583015
 30
0.0
  0
SEQEND
  5
160
  8
0
  6
CONTINUOUS
 62
     7
  0
ARC
  5
71
  8
0
  6
CONTINUOUS
 62
     7
 10
-5.0
 20
8.6602540378
 30
0.0
 40
5.25
 50
169.6324064558
 51
193.6028189727
  0
ARC
  5
72
  8
0
  6
CONTINUOUS
 62
     7
 10
-12.0466333699
 20
6.9551270189
 30
0.0
 40
1.999999999999999
 50
286.3971810273
 51
13.6028189727
  0
ARC
  5
73
  8
0
  6
CONTINUOUS
 62
     7
 10
-10.0
 20
0.0
 30
0.0
 40
5.250000000000001
 50
106.3971810273
 51
130.3675935442
  0
CIRCLE
  5
74
  8
0
  6
CONTINUOUS
 62
     7
 10
-5.0
 20
-8.6602540378
 30
0.0
 40
1.100000000000003
  0
CIRCLE
  5
75
  8
0
  6
CONTINUOUS
 62
     7
 10
5.0
 20
-8.6602540378
 30
0.0
 40
1.100000000000001
  0
CIRCLE
  5
76
  8
0
  6
CONTINUOUS
 62
     7
 10
10.0
 20
0.0
 30
0.0
 40
1.100000000000001
  0
CIRCLE
  5
77
  8
0
  6
CONTINUOUS
 62
     7
 10
5.0
 20
8.6602540378
 30
0.0
 40
1.100000000000002
  0
CIRCLE
  5
78
  8
0
  6
CONTINUOUS
 62
     7
 10
-5.0
 20
8.6602540378
 30
0.0
 40
1.100000000000001
  0
CIRCLE
  5
79
  8
0
  6
CONTINUOUS
 62
     7
 10
-10.0
 20
0.0
 30
0.0
 40
1.100000000000001
  0
CIRCLE
  5
7A
  8
0
  6
CONTINUOUS
 62
     7
 10
-31.3363906633
 20
5.525451152
 30
0.0
 40
2.100000000000001
  0
CIRCLE
  5
7B
  8
0
  6
CONTINUOUS
 62
     7
 10
-20.4533763966
 20
-24.3753848014
 30
0.0
 40
2.100000000000001
  0
CIRCLE
  5
7C
  8
0
  6
CONTINUOUS
 62
     7
 10
10.8830142667
 20
-29.9008359533
 30
0.0
 40
2.099999999999998
  0
CIRCLE
  5
7D
  8
0
  6
CONTINUOUS
 62
     7
 10
31.3363906633
 20
-5.525451152
 30
0.0
 40
2.099999999999997
  0
CIRCLE
  5
7E
  8
0
  6
CONTINUOUS
 62
     7
 10
20.4533763966
 20
24.3753848014
 30
0.0
 40
2.100000000000001
  0
CIRCLE
  5
7F
  8
0
  6
CONTINUOUS
 62
     7
 10
-31.3363906633
 20
-5.525451152
 30
0.0
 40
2.100000000000001
  0
CIRCLE
  5
80
  8
0
  6
CONTINUOUS
 62
     7
 10
-10.8830142667
 20
-29.9008359533
 30
0.0
 40
2.099999999999994
  0
CIRCLE
  5
81
  8
0
  6
CONTINUOUS
 62
     7
 10
20.4533763966
 20
-24.3753848014
 30
0.0
 40
2.100000000000001
  0
CIRCLE
  5
82
  8
0
  6
CONTINUOUS
 62
     7
 10
31.3363906633
 20
5.525451152
 30
0.0
 40
2.099999999999997
  0
CIRCLE
  5
83
  8
0
  6
CONTINUOUS
 62
     7
 10
10.8830142667
 20
29.9008359533
 30
0.0
 40
2.100000000000001
  0
CIRCLE
  5
84
  8
0
  6
CONTINUOUS
 62
     7
 10
-10.8830142667
 20
29.9008359533
 30
0.0
 40
2.100000000000001
  0
CIRCLE
  5
85
  8
0
  6
CONTINUOUS
 62
     7
 10
-20.4533763966
 20
24.3753848014
 30
0.0
 40
2.100000000000001
  0
CIRCLE
  5
86
  8
0
  6
CONTINUOUS
 62
     7
 10
-27.5567594735
 20
15.9099025
 30
0.0
 40
2.100000000000001
  0
CIRCLE
  5
87
  8
0
  6
CONTINUOUS
 62
     7
 10
-27.5567594735
 20
-15.9099025
 30
0.0
 40
2.100000000000001
  0
CIRCLE
  5
88
  8
0
  6
CONTINUOUS
 62
     7
 10
-15.9099025
 20
-27.5567594735
 30
0.0
 40
2.100000000000001
  0
CIRCLE
  5
89
  8
0
  6
CONTINUOUS
 62
     7
 10
0.0
 20
-31.819805
 30
0.0
 40
2.099999999999994
  0
CIRCLE
  5
8A
  8
0
  6
CONTINUOUS
 62
     7
 10
15.9099025
 20
-27.5567594735
 30
0.0
 40
2.100000000000001
  0
CIRCLE
  5
8B
  8
0
  6
CONTINUOUS
 62
     7
 10
27.5567594735
 20
-15.9099025
 30
0.0
 40
2.100000000000001
  0
CIRCLE
  5
8C
  8
0
  6
CONTINUOUS
 62
     7
 10
31.819805
 20
0.0
 30
0.0
 40
2.099999999999997
  0
CIRCLE
  5
8D
  8
0
  6
CONTINUOUS
 62
     7
 10
27.5567594735
 20
15.9099025
 30
0.0
 40
2.100000000000001
  0
CIRCLE
  5
8E
  8
0
  6
CONTINUOUS
 62
     7
 10
15.9099025
 20
27.5567594735
 30
0.0
 40
2.100000000000001
  0
CIRCLE
  5
8F
  8
0
  6
CONTINUOUS
 62
     7
 10
0.0
 20
31.819805
 30
0.0
 40
2.099999999999998
  0
CIRCLE
  5
90
  8
0
  6
CONTINUOUS
 62
     7
 10
-15.9099025
 20
27.5567594735
 30
0.0
 40
2.100000000000001
  0
CIRCLE
  5
91
  8
0
  6
CONTINUOUS
 62
     7
 10
-31.819805
 20
0.0
 30
0.0
 40
2.100000000000001
  0
CIRCLE
  5
92
  8
0
  6
CONTINUOUS
 62
     7
 10
0.0
 20
0.0
 30
0.0
 40
5.0
  0
CIRCLE
  5
93
  8
0
  6
CONTINUOUS
 62
     7
 10
0.0
 20
0.0
 30
0.0
 40
35.00000000000001
  0
ENDSEC
  0
EOF
