  0
SECTION
  2
HEADER
  9
$ACADVER
  1
AC1009
  9
$DWGCODEPAGE
  3
ansi_1252
  9
$INSBASE
 10
0.0
 20
0.0
 30
0.0
  9
$EXTMIN
 10
-34.0
 20
-34.0
 30
0.0
  9
$EXTMAX
 10
34.0
 20
34.0
 30
0.0
  9
$LIMMIN
 10
0.0
 20
0.0
  9
$LIMMAX
 10
420.0
 20
297.0
  9
$ORTHOMODE
 70
     0
  9
$REGENMODE
 70
     1
  9
$FILLMODE
 70
     1
  9
$QTEXTMODE
 70
     0
  9
$MIRRTEXT
 70
     1
  9
$DRAGMODE
 70
     2
  9
$LTSCALE
 40
1.0
  9
$OSMODE
 70
    37
  9
$ATTMODE
 70
     1
  9
$TEXTSIZE
 40
3.5
  9
$TRACEWID
 40
1.0
  9
$TEXTSTYLE
  7
STANDARD
  9
$CLAYER
  8
0
  9
$CELTYPE
  6
BYLAYER
  9
$CECOLOR
 62
   256
  9
$DIMSCALE
 40
1.0
  9
$DIMASZ
 40
3.302
  9
$DIMEXO
 40
1.0
  9
$DIMDLI
 40
3.75
  9
$DIMRND
 40
0.0
  9
$DIMDLE
 40
0.0
  9
$DIMEXE
 40
1.0
  9
$DIMTP
 40
0.0
  9
$DIMTM
 40
0.0
  9
$DIMTXT
 40
3.5
  9
$DIMCEN
 40
2.5
  9
$DIMTSZ
 40
0.0
  9
$DIMTOL
 70
     0
  9
$DIMLIM
 70
     0
  9
$DIMTIH
 70
     1
  9
$DIMTOH
 70
     1
  9
$DIMSE1
 70
     0
  9
$DIMSE2
 70
     0
  9
$DIMTAD
 70
     1
  9
$DIMZIN
 70
     0
  9
$DIMBLK
  1

  9
$DIMASO
 70
     1
  9
$DIMSHO
 70
     1
  9
$DIMPOST
  1

  9
$DIMAPOST
  1

  9
$DIMALT
 70
     0
  9
$DIMALTD
 70
     3
  9
$DIMALTF
 40
0.0393700787
  9
$DIMLFAC
 40
1.0
  9
$DIMTOFL
 70
     1
  9
$DIMTVP
 40
0.0
  9
$DIMTIX
 70
     0
  9
$DIMSOXD
 70
     0
  9
$DIMSAH
 70
     0
  9
$DIMBLK1
  1

  9
$DIMBLK2
  1

  9
$DIMSTYLE
  2
ISO-25
  9
$DIMCLRD
 70
     0
  9
$DIMCLRE
 70
     0
  9
$DIMCLRT
 70
     0
  9
$DIMTFAC
 40
1.0
  9
$DIMGAP
 40
1.524
  9
$LUNITS
 70
     2
  9
$LUPREC
 70
     2
  9
$SKETCHINC
 40
1.0
  9
$FILLETRAD
 40
10.0
  9
$AUNITS
 70
     0
  9
$AUPREC
 70
     2
  9
$MENU
  1
.
  9
$ELEVATION
 40
0.0
  9
$PELEVATION
 40
0.0
  9
$THICKNESS
 40
0.0
  9
$LIMCHECK
 70
     0
  9
$CHAMFERA
 40
10.0
  9
$CHAMFERB
 40
10.0
  9
$SKPOLY
 70
     0
  9
$TDCREATE
 40
2456399.46901309
  9
$TDUPDATE
 40
2456399.46903787
  9
$TDINDWG
 40
0.0000000116
  9
$TDUSRTIMER
 40
0.0000000116
  9
$USRTIMER
 70
     1
  9
$ANGBASE
 50
0.0
  9
$ANGDIR
 70
     0
  9
$PDMODE
 70
     0
  9
$PDSIZE
 40
-1.0
  9
$PLINEWID
 40
0.0
  9
$COORDS
 70
     1
  9
$SPLFRAME
 70
     0
  9
$SPLINETYPE
 70
     6
  9
$SPLINESEGS
 70
     8
  9
$ATTDIA
 70
     0
  9
$ATTREQ
 70
     1
  9
$HANDLING
 70
     1
  9
$HANDSEED
  5
1A9
  9
$SURFTAB1
 70
     6
  9
$SURFTAB2
 70
     6
  9
$SURFTYPE
 70
     6
  9
$SURFU
 70
     6
  9
$SURFV
 70
     6
  9
$UCSNAME
  2

  9
$UCSORG
 10
0.0
 20
0.0
 30
0.0
  9
$UCSXDIR
 10
1.0
 20
0.0
 30
0.0
  9
$UCSYDIR
 10
0.0
 20
1.0
 30
0.0
  9
$PUCSNAME
  2

  9
$PUCSORG
 10
0.0
 20
0.0
 30
0.0
  9
$PUCSXDIR
 10
1.0
 20
0.0
 30
0.0
  9
$PUCSYDIR
 10
0.0
 20
1.0
 30
0.0
  9
$USERI1
 70
     0
  9
$USERI2
 70
     0
  9
$USERI3
 70
     0
  9
$USERI4
 70
     0
  9
$USERI5
 70
     0
  9
$USERR1
 40
0.0
  9
$USERR2
 40
0.0
  9
$USERR3
 40
0.0
  9
$USERR4
 40
0.0
  9
$USERR5
 40
0.0
  9
$WORLDVIEW
 70
     1
  9
$SHADEDGE
 70
     3
  9
$SHADEDIF
 70
    70
  9
$TILEMODE
 70
     1
  9
$MAXACTVP
 70
    64
  9
$PLIMCHECK
 70
     0
  9
$PEXTMIN
 10
1.0000000000E+20
 20
1.0000000000E+20
 30
1.0000000000E+20
  9
$PEXTMAX
 10
-1.0000000000E+20
 20
-1.0000000000E+20
 30
-1.0000000000E+20
  9
$PLIMMIN
 10
0.0
 20
0.0
  9
$PLIMMAX
 10
420.0
 20
297.0
  9
$UNITMODE
 70
     0
  9
$VISRETAIN
 70
     1
  9
$PLINEGEN
 70
     0
  9
$PSLTSCALE
 70
     1
  0
ENDSEC
  0
SECTION
  2
TABLES
  0
TABLE
  2
VPORT
 70
     1
  0
VPORT
  2
*ACTIVE
 70
     0
 10
0.0
 20
0.0
 11
1.0
 21
1.0
 12
0.0
 22
0.0
 13
0.0
 23
0.0
 14
10.0
 24
10.0
 15
10.0
 25
10.0
 16
0.0
 26
0.0
 36
1.0
 17
0.0
 27
0.0
 37
0.0
 40
69.36
 41
1.0
 42
50.0
 43
0.0
 44
0.0
 50
0.0
 51
0.0
 71
     0
 72
   100
 73
     1
 74
     3
 75
     0
 76
     0
 77
     0
 78
     0
  0
ENDTAB
  0
TABLE
  2
LTYPE
 70
     6
  0
LTYPE
  2
CONTINUOUS
 70
     0
  3
Solid line
 72
    65
 73
     0
 40
0.0
  0
LTYPE
  2
HIDDEN
 70
     0
  3
Hidden __ __ __ __ __ __ __ __ __ __ __ __ __ __
 72
    65
 73
     2
 40
1.905
 49
1.27
 49
-0.635
  0
LTYPE
  2
PHANTOM
 70
     0
  3
Phantom ______  __  __  ______  __  __  ______
 72
    65
 73
     6
 40
12.7
 49
6.35
 49
-1.27
 49
1.27
 49
-1.27
 49
1.27
 49
-1.27
  0
LTYPE
  2
CENTER
 70
     0
  3
Center ____ _ ____ _ ____ _ ____ _ ____ _ ____
 72
    65
 73
     4
 40
10.16
 49
6.35
 49
-1.27
 49
1.27
 49
-1.27
  0
LTYPE
  2
CENTERX2
 70
     0
  3
Center (2x) ________  __  ________  __  _____
 72
    65
 73
     4
 40
20.32
 49
12.7
 49
-2.54
 49
2.54
 49
-2.54
  0
LTYPE
  2
DOT2
 70
     0
  3
Dot (.5x) ........................................
 72
    65
 73
     2
 40
0.635
 49
0.0
 49
-0.635
  0
ENDTAB
  0
TABLE
  2
LAYER
 70
     1
  0
LAYER
  2
0
 70
     0
 62
     7
  6
CONTINUOUS
  0
ENDTAB
  0
TABLE
  2
STYLE
 70
     1
  0
STYLE
  2
STANDARD
 70
     0
 40
0.0
 41
1.0
 50
0.0
 71
     0
 42
3.5
  3
txt
  4

  0
ENDTAB
  0
TABLE
  2
VIEW
 70
     0
  0
ENDTAB
  0
TABLE
  2
UCS
 70
     0
  0
ENDTAB
  0
TABLE
  2
APPID
 70
     1
  0
APPID
  2
ACAD
 70
     0
  0
ENDTAB
  0
TABLE
  2
DIMSTYLE
 70
     1
  0
DIMSTYLE
  2
ISO-25
 70
     0
  3

  4

  5

  6

  7

 40
1.0
 41
2.5
 42
0.625
 43
3.75
 44
1.25
 45
0.0
 46
0.0
 47
0.0
 48
0.0
140
2.5
141
2.5
142
0.0
143
0.0393700787
144
1.0
145
0.0
146
1.0
147
0.625
 71
     0
 72
     0
 73
     0
 74
     0
 75
     0
 76
     0
 77
     1
 78
     8
170
     0
171
     3
172
     1
173
     0
174
     0
175
     0
176
     0
177
     0
178
     0
  0
ENDTAB
  0
ENDSEC
  0
SECTION
  2
BLOCKS
  0
BLOCK
  8
0
  2
$MODEL_SPACE
 70
     0
 10
0.0
 20
0.0
 30
0.0
  3
$MODEL_SPACE
  1

  0
ENDBLK
  5
21
  8
0
  0
BLOCK
 67
     1
  8
0
  2
$PAPER_SPACE
 70
     0
 10
0.0
 20
0.0
 30
0.0
  3
$PAPER_SPACE
  1

  0
ENDBLK
  5
1D
 67
     1
  8
0
  0
ENDSEC
  0
SECTION
  2
ENTITIES
  0
CIRCLE
  5
44
  8
0
  6
CONTINUOUS
 62
     7
 10
-5.0
 20
-8.6602540378
 30
0.0
 40
1.100000000000003
  0
CIRCLE
  5
45
  8
0
  6
CONTINUOUS
 62
     7
 10
5.0
 20
-8.6602540378
 30
0.0
 40
1.100000000000001
  0
CIRCLE
  5
46
  8
0
  6
CONTINUOUS
 62
     7
 10
10.0
 20
0.0
 30
0.0
 40
1.100000000000001
  0
CIRCLE
  5
47
  8
0
  6
CONTINUOUS
 62
     7
 10
5.0
 20
8.6602540378
 30
0.0
 40
1.100000000000002
  0
CIRCLE
  5
48
  8
0
  6
CONTINUOUS
 62
     7
 10
-5.0
 20
8.6602540378
 30
0.0
 40
1.100000000000001
  0
CIRCLE
  5
49
  8
0
  6
CONTINUOUS
 62
     7
 10
-10.0
 20
0.0
 30
0.0
 40
1.100000000000001
  0
ARC
  5
4A
  8
0
  6
CONTINUOUS
 62
     7
 10
-6.8087661735
 20
-3.9330976095
 30
0.0
 40
1.500000000000002
 50
338.4932750714
 51
81.6068987124
  0
ARC
  5
4B
  8
0
  6
CONTINUOUS
 62
     7
 10
-9.1320902277
 20
-3.0099593243
 30
0.0
 40
3.999999999999999
 50
306.1782009063
 51
338.3914384618
  0
ARC
  5
4C
  8
0
  6
CONTINUOUS
 62
     7
 10
-5.0
 20
-8.6602540378
 30
0.0
 40
3.000000000000001
 50
126.1782009063
 51
185.1118125903
  0
ARC
  5
4D
  8
0
  6
CONTINUOUS
 62
     7
 10
-11.9721590192
 20
-9.2839515694
 30
0.0
 40
4.000000000000043
 50
332.7632845314
 51
5.1118125903
  0
POLYLINE
  5
4E
  8
0
  6
CONTINUOUS
 62
     7
 66
     1
 10
0.0
 20
0.0
 30
0.0
  0
VERTEX
  5
AD
  8
0
  6
CONTINUOUS
 62
     7
 10
-14.5803081445
 20
-21.0243311554
 30
0.0
  0
VERTEX
  5
AE
  8
0
  6
CONTINUOUS
 62
     7
 10
-14.1467833215
 20
-20.4323518523
 30
0.0
  0
VERTEX
  5
AF
  8
0
  6
CONTINUOUS
 62
     7
 10
-13.7196897895
 20
-19.8367222189
 30
0.0
  0
VERTEX
  5
B0
  8
0
  6
CONTINUOUS
 62
     7
 10
-13.2990275486
 20
-19.2374422552
 30
0.0
  0
VERTEX
  5
B1
  8
0
  6
CONTINUOUS
 62
     7
 10
-12.8847965987
 20
-18.6345119613
 30
0.0
  0
VERTEX
  5
B2
  8
0
  6
CONTINUOUS
 62
     7
 10
-12.4769969398
 20
-18.0279313371
 30
0.0
  0
VERTEX
  5
B3
  8
0
  6
CONTINUOUS
 62
     7
 10
-12.075628572
 20
-17.4177003827
 30
0.0
  0
VERTEX
  5
B4
  8
0
  6
CONTINUOUS
 62
     7
 10
-11.6806914952
 20
-16.8038190981
 30
0.0
  0
VERTEX
  5
B5
  8
0
  6
CONTINUOUS
 62
     7
 10
-11.2921857094
 20
-16.1862874832
 30
0.0
  0
VERTEX
  5
B6
  8
0
  6
CONTINUOUS
 62
     7
 10
-10.9101112147
 20
-15.565105538
 30
0.0
  0
VERTEX
  5
B7
  8
0
  6
CONTINUOUS
 62
     7
 10
-10.534468011
 20
-14.9402732626
 30
0.0
  0
VERTEX
  5
B8
  8
0
  6
CONTINUOUS
 62
     7
 10
-10.1652560983
 20
-14.3117906569
 30
0.0
  0
VERTEX
  5
B9
  8
0
  6
CONTINUOUS
 62
     7
 10
-9.8024754767
 20
-13.679657721
 30
0.0
  0
VERTEX
  5
BA
  8
0
  6
CONTINUOUS
 62
     7
 10
-9.4461261461
 20
-13.0438744548
 30
0.0
  0
VERTEX
  5
BB
  8
0
  6
CONTINUOUS
 62
     7
 10
-9.0962081065
 20
-12.4044408584
 30
0.0
  0
VERTEX
  5
BC
  8
0
  6
CONTINUOUS
 62
     7
 10
-8.7527213579
 20
-11.7613569317
 30
0.0
  0
VERTEX
  5
BD
  8
0
  6
CONTINUOUS
 62
     7
 10
-8.4156659004
 20
-11.1146226748
 30
0.0
  0
SEQEND
  5
1A8
  8
0
  6
CONTINUOUS
 62
     7
  0
ARC
  5
4F
  8
0
  6
CONTINUOUS
 62
     7
 10
-17.9563718882
 20
-18.5258929235
 30
0.0
 40
4.20000000000001
 50
225.8943661114
 51
323.496902354
  0
ARC
  5
50
  8
0
  6
CONTINUOUS
 62
     7
 10
0.0
 20
0.0
 30
0.0
 40
30.0
 50
194.1140641758
 51
225.8943661114
  0
ARC
  5
51
  8
0
  6
CONTINUOUS
 62
     7
 10
-25.02115442
 20
-6.2914093406
 30
0.0
 40
4.200000000000005
 50
96.4016693926
 51
194.1140641758
  0
POLYLINE
  5
52
  8
0
  6
CONTINUOUS
 62
     7
 66
     1
 10
0.0
 20
0.0
 30
0.0
  0
VERTEX
  5
BE
  8
0
  6
CONTINUOUS
 62
     7
 10
-13.8176368
 20
-1.7425257433
 30
0.0
  0
VERTEX
  5
BF
  8
0
  6
CONTINUOUS
 62
     7
 10
-14.5467028719
 20
-1.7111659741
 30
0.0
  0
VERTEX
  5
C0
  8
0
  6
CONTINUOUS
 62
     7
 10
-15.2758252071
 20
-1.6871131074
 30
0.0
  0
VERTEX
  5
C1
  8
0
  6
CONTINUOUS
 62
     7
 10
-16.0050038055
 20
-1.670367143
 30
0.0
  0
VERTEX
  5
C2
  8
0
  6
CONTINUOUS
 62
     7
 10
-16.7342386673
 20
-1.660928081
 30
0.0
  0
VERTEX
  5
C3
  8
0
  6
CONTINUOUS
 62
     7
 10
-17.4635297924
 20
-1.6587959213
 30
0.0
  0
VERTEX
  5
C4
  8
0
  6
CONTINUOUS
 62
     7
 10
-18.1928771807
 20
-1.6639706641
 30
0.0
  0
VERTEX
  5
C5
  8
0
  6
CONTINUOUS
 62
     7
 10
-18.9222808324
 20
-1.6764523092
 30
0.0
  0
VERTEX
  5
C6
  8
0
  6
CONTINUOUS
 62
     7
 10
-19.6517407473
 20
-1.6962408567
 30
0.0
  0
VERTEX
  5
C7
  8
0
  6
CONTINUOUS
 62
     7
 10
-20.3812569255
 20
-1.7233363067
 30
0.0
  0
VERTEX
  5
C8
  8
0
  6
CONTINUOUS
 62
     7
 10
-21.1108293671
 20
-1.7577386589
 30
0.0
  0
VERTEX
  5
C9
  8
0
  6
CONTINUOUS
 62
     7
 10
-21.8404580719
 20
-1.7994479136
 30
0.0
  0
VERTEX
  5
CA
  8
0
  6
CONTINUOUS
 62
     7
 10
-22.57014304
 20
-1.8484640707
 30
0.0
  0
VERTEX
  5
CB
  8
0
  6
CONTINUOUS
 62
     7
 10
-23.2998842714
 20
-1.9047871301
 30
0.0
  0
VERTEX
  5
CC
  8
0
  6
CONTINUOUS
 62
     7
 10
-24.029681766
 20
-1.9684170919
 30
0.0
  0
VERTEX
  5
CD
  8
0
  6
CONTINUOUS
 62
     7
 10
-24.759535524
 20
-2.0393539561
 30
0.0
  0
VERTEX
  5
CE
  8
0
  6
CONTINUOUS
 62
     7
 10
-25.4894455453
 20
-2.1175977227
 30
0.0
  0
SEQEND
  5
1A7
  8
0
  6
CONTINUOUS
 62
     7
  0
ARC
  5
53
  8
0
  6
CONTINUOUS
 62
     7
 10
-14.0095220678
 20
-5.7379205979
 30
0.0
 40
4.000000000000053
 50
55.0550682109
 51
87.2503907236
  0
ARC
  5
54
  8
0
  6
CONTINUOUS
 62
     7
 10
-10.0
 20
0.0
 30
0.0
 40
3.0
 50
235.0550682109
 51
293.7789819621
  0
ARC
  5
55
  8
0
  6
CONTINUOUS
 62
     7
 10
-7.1775325835
 20
-6.4057534828
 30
0.0
 40
4.000000000000059
 50
81.6100479018
 51
113.7789819621
  0
POLYLINE
  5
56
  8
0
  6
CONTINUOUS
 62
     7
 66
     1
 10
0.0
 20
0.0
 30
0.0
  0
VERTEX
  5
CF
  8
0
  6
CONTINUOUS
 62
     7
 10
-6.5898203026
 20
-2.4491627371
 30
0.0
  0
VERTEX
  5
D0
  8
0
  6
CONTINUOUS
 62
     7
 10
-6.5900749354
 20
-2.449125168
 30
0.0
  0
VERTEX
  5
D1
  8
0
  6
CONTINUOUS
 62
     7
 10
-6.5903295683
 20
-2.4490875997
 30
0.0
  0
VERTEX
  5
D2
  8
0
  6
CONTINUOUS
 62
     7
 10
-6.5905842011
 20
-2.4490500324
 30
0.0
  0
VERTEX
  5
D3
  8
0
  6
CONTINUOUS
 62
     7
 10
-6.590838834
 20
-2.4490124659
 30
0.0
  0
VERTEX
  5
D4
  8
0
  6
CONTINUOUS
 62
     7
 10
-6.5910934669
 20
-2.4489749004
 30
0.0
  0
VERTEX
  5
D5
  8
0
  6
CONTINUOUS
 62
     7
 10
-6.5913480998
 20
-2.4489373357
 30
0.0
  0
VERTEX
  5
D6
  8
0
  6
CONTINUOUS
 62
     7
 10
-6.5916027326
 20
-2.4488997719
 30
0.0
  0
VERTEX
  5
D7
  8
0
  6
CONTINUOUS
 62
     7
 10
-6.5918573655
 20
-2.448862209
 30
0.0
  0
VERTEX
  5
D8
  8
0
  6
CONTINUOUS
 62
     7
 10
-6.5921119984
 20
-2.4488246471
 30
0.0
  0
VERTEX
  5
D9
  8
0
  6
CONTINUOUS
 62
     7
 10
-6.5923666313
 20
-2.448787086
 30
0.0
  0
VERTEX
  5
DA
  8
0
  6
CONTINUOUS
 62
     7
 10
-6.5926212643
 20
-2.4487495258
 30
0.0
  0
VERTEX
  5
DB
  8
0
  6
CONTINUOUS
 62
     7
 10
-6.5928758972
 20
-2.4487119664
 30
0.0
  0
VERTEX
  5
DC
  8
0
  6
CONTINUOUS
 62
     7
 10
-6.5931305301
 20
-2.448674408
 30
0.0
  0
VERTEX
  5
DD
  8
0
  6
CONTINUOUS
 62
     7
 10
-6.593385163
 20
-2.4486368505
 30
0.0
  0
VERTEX
  5
DE
  8
0
  6
CONTINUOUS
 62
     7
 10
-6.593639796
 20
-2.4485992939
 30
0.0
  0
VERTEX
  5
DF
  8
0
  6
CONTINUOUS
 62
     7
 10
-6.5938944289
 20
-2.4485617381
 30
0.0
  0
SEQEND
  5
1A6
  8
0
  6
CONTINUOUS
 62
     7
  0
POLYLINE
  5
57
  8
0
  6
CONTINUOUS
 62
     7
 66
     1
 10
0.0
 20
0.0
 30
0.0
  0
VERTEX
  5
E0
  8
0
  6
CONTINUOUS
 62
     7
 10
-5.4589274138
 20
-12.8830831424
 30
0.0
  0
VERTEX
  5
E1
  8
0
  6
CONTINUOUS
 62
     7
 10
-5.8436760998
 20
-13.4977487315
 30
0.0
  0
VERTEX
  5
E2
  8
0
  6
CONTINUOUS
 62
     7
 10
-6.2224756773
 20
-14.1158738551
 30
0.0
  0
VERTEX
  5
E3
  8
0
  6
CONTINUOUS
 62
     7
 10
-6.5953261464
 20
-14.7374585134
 30
0.0
  0
VERTEX
  5
E4
  8
0
  6
CONTINUOUS
 62
     7
 10
-6.962227507
 20
-15.3625027062
 30
0.0
  0
VERTEX
  5
E5
  8
0
  6
CONTINUOUS
 62
     7
 10
-7.3231797592
 20
-15.9910064336
 30
0.0
  0
VERTEX
  5
E6
  8
0
  6
CONTINUOUS
 62
     7
 10
-7.6781829029
 20
-16.6229696955
 30
0.0
  0
VERTEX
  5
E7
  8
0
  6
CONTINUOUS
 62
     7
 10
-8.0272369382
 20
-17.2583924921
 30
0.0
  0
VERTEX
  5
E8
  8
0
  6
CONTINUOUS
 62
     7
 10
-8.370341865
 20
-17.8972748232
 30
0.0
  0
VERTEX
  5
E9
  8
0
  6
CONTINUOUS
 62
     7
 10
-8.7074976833
 20
-18.5396166889
 30
0.0
  0
VERTEX
  5
EA
  8
0
  6
CONTINUOUS
 62
     7
 10
-9.0387043932
 20
-19.1854180891
 30
0.0
  0
VERTEX
  5
EB
  8
0
  6
CONTINUOUS
 62
     7
 10
-9.3639619946
 20
-19.834679024
 30
0.0
  0
VERTEX
  5
EC
  8
0
  6
CONTINUOUS
 62
     7
 10
-9.6832704876
 20
-20.4873994934
 30
0.0
  0
VERTEX
  5
ED
  8
0
  6
CONTINUOUS
 62
     7
 10
-9.9966298721
 20
-21.1435794974
 30
0.0
  0
VERTEX
  5
EE
  8
0
  6
CONTINUOUS
 62
     7
 10
-10.3040401481
 20
-21.8032190359
 30
0.0
  0
VERTEX
  5
EF
  8
0
  6
CONTINUOUS
 62
     7
 10
-10.6055013157
 20
-22.466318109
 30
0.0
  0
VERTEX
  5
F0
  8
0
  6
CONTINUOUS
 62
     7
 10
-10.9010133748
 20
-23.1328767168
 30
0.0
  0
SEQEND
  5
1A5
  8
0
  6
CONTINUOUS
 62
     7
  0
ARC
  5
58
  8
0
  6
CONTINUOUS
 62
     7
 10
-2.0784812951
 20
-15.0214432707
 30
0.0
 40
4.00000000000001
 50
114.6680134309
 51
147.6838873285
  0
ARC
  5
59
  8
0
  6
CONTINUOUS
 62
     7
 10
-5.0
 20
-8.6602540378
 30
0.0
 40
3.0
 50
294.6680134309
 51
355.1586493428
  0
ARC
  5
5A
  8
0
  6
CONTINUOUS
 62
     7
 10
1.9750254631
 20
-9.2510330061
 30
0.0
 40
4.0
 50
142.1751947266
 51
175.1586493428
  0
ARC
  5
5B
  8
0
  6
CONTINUOUS
 62
     7
 10
0.0001736695
 20
-7.718074915
 30
0.0
 40
1.5
 50
37.839464823
 51
142.1672340902
  0
ARC
  5
5C
  8
0
  6
CONTINUOUS
 62
     7
 10
-1.9750679749
 20
-9.2505308758
 30
0.0
 40
4.000000000000001
 50
4.8372259612
 51
37.8182115891
  0
ARC
  5
5D
  8
0
  6
CONTINUOUS
 62
     7
 10
5.0
 20
-8.6602540378
 30
0.0
 40
3.000000000000001
 50
184.8372259612
 51
245.3369654497
  0
ARC
  5
5E
  8
0
  6
CONTINUOUS
 62
     7
 10
2.0790340798
 20
-15.0216971204
 30
0.0
 40
4.000000000000011
 50
32.3093716413
 51
65.3369654497
  0
POLYLINE
  5
5F
  8
0
  6
CONTINUOUS
 62
     7
 66
     1
 10
0.0
 20
0.0
 30
0.0
  0
VERTEX
  5
F1
  8
0
  6
CONTINUOUS
 62
     7
 10
10.8989497744
 20
-23.1355270929
 30
0.0
  0
VERTEX
  5
F2
  8
0
  6
CONTINUOUS
 62
     7
 10
10.6037300965
 20
-22.4687892881
 30
0.0
  0
VERTEX
  5
F3
  8
0
  6
CONTINUOUS
 62
     7
 10
10.3025462255
 20
-21.8055182542
 30
0.0
  0
VERTEX
  5
F4
  8
0
  6
CONTINUOUS
 62
     7
 10
9.9953981615
 20
-21.1457139913
 30
0.0
  0
VERTEX
  5
F5
  8
0
  6
CONTINUOUS
 62
     7
 10
9.6822859044
 20
-20.4893764993
 30
0.0
  0
VERTEX
  5
F6
  8
0
  6
CONTINUOUS
 62
     7
 10
9.3632094542
 20
-19.8365057782
 30
0.0
  0
VERTEX
  5
F7
  8
0
  6
CONTINUOUS
 62
     7
 10
9.038168811
 20
-19.187101828
 30
0.0
  0
VERTEX
  5
F8
  8
0
  6
CONTINUOUS
 62
     7
 10
8.7071639747
 20
-18.5411646488
 30
0.0
  0
VERTEX
  5
F9
  8
0
  6
CONTINUOUS
 62
     7
 10
8.3701949453
 20
-17.8986942405
 30
0.0
  0
VERTEX
  5
FA
  8
0
  6
CONTINUOUS
 62
     7
 10
8.0272617229
 20
-17.2596906031
 30
0.0
  0
VERTEX
  5
FB
  8
0
  6
CONTINUOUS
 62
     7
 10
7.6783643074
 20
-16.6241537366
 30
0.0
  0
VERTEX
  5
FC
  8
0
  6
CONTINUOUS
 62
     7
 10
7.3235026988
 20
-15.992083641
 30
0.0
  0
VERTEX
  5
FD
  8
0
  6
CONTINUOUS
 62
     7
 10
6.9626768972
 20
-15.3634803164
 30
0.0
  0
VERTEX
  5
FE
  8
0
  6
CONTINUOUS
 62
     7
 10
6.5958869025
 20
-14.7383437627
 30
0.0
  0
VERTEX
  5
FF
  8
0
  6
CONTINUOUS
 62
     7
 10
6.2231327147
 20
-14.1166739799
 30
0.0
  0
VERTEX
  5
100
  8
0
  6
CONTINUOUS
 62
     7
 10
5.8444143339
 20
-13.498470968
 30
0.0
  0
VERTEX
  5
101
  8
0
  6
CONTINUOUS
 62
     7
 10
5.45973176
 20
-12.8837347271
 30
0.0
  0
SEQEND
  5
1A4
  8
0
  6
CONTINUOUS
 62
     7
  0
ARC
  5
60
  8
0
  6
CONTINUOUS
 62
     7
 10
7.0506270655
 20
-24.8179100245
 30
0.0
 40
4.200000000000001
 50
285.8595466607
 51
23.6136519734
  0
ARC
  5
61
  8
0
  6
CONTINUOUS
 62
     7
 10
0.0
 20
0.0
 30
0.0
 40
30.0
 50
254.1338350804
 51
285.8595466607
  0
ARC
  5
62
  8
0
  6
CONTINUOUS
 62
     7
 10
-7.0534937454
 20
-24.8170954381
 30
0.0
 40
4.199999999999998
 50
156.3590130064
 51
254.1338350804
  0
POLYLINE
  5
63
  8
0
  6
CONTINUOUS
 62
     7
 66
     1
 10
0.0
 20
0.0
 30
0.0
  0
VERTEX
  5
102
  8
0
  6
CONTINUOUS
 62
     7
 10
8.4276135735
 20
-11.1691113889
 30
0.0
  0
VERTEX
  5
103
  8
0
  6
CONTINUOUS
 62
     7
 10
8.7675552455
 20
-11.8096463196
 30
0.0
  0
VERTEX
  5
104
  8
0
  6
CONTINUOUS
 62
     7
 10
9.1134675165
 20
-12.4467589386
 30
0.0
  0
VERTEX
  5
105
  8
0
  6
CONTINUOUS
 62
     7
 10
9.4653503866
 20
-13.0804492457
 30
0.0
  0
VERTEX
  5
106
  8
0
  6
CONTINUOUS
 62
     7
 10
9.8232038557
 20
-13.7107172411
 30
0.0
  0
VERTEX
  5
107
  8
0
  6
CONTINUOUS
 62
     7
 10
10.187027924
 20
-14.3375629247
 30
0.0
  0
VERTEX
  5
108
  8
0
  6
CONTINUOUS
 62
     7
 10
10.5568225912
 20
-14.9609862966
 30
0.0
  0
VERTEX
  5
109
  8
0
  6
CONTINUOUS
 62
     7
 10
10.9325878575
 20
-15.5809873567
 30
0.0
  0
VERTEX
  5
10A
  8
0
  6
CONTINUOUS
 62
     7
 10
11.3143237229
 20
-16.197566105
 30
0.0
  0
VERTEX
  5
10B
  8
0
  6
CONTINUOUS
 62
     7
 10
11.7020301873
 20
-16.8107225416
 30
0.0
  0
VERTEX
  5
10C
  8
0
  6
CONTINUOUS
 62
     7
 10
12.0957072508
 20
-17.4204566664
 30
0.0
  0
VERTEX
  5
10D
  8
0
  6
CONTINUOUS
 62
     7
 10
12.4953549134
 20
-18.0267684794
 30
0.0
  0
VERTEX
  5
10E
  8
0
  6
CONTINUOUS
 62
     7
 10
12.900973175
 20
-18.6296579806
 30
0.0
  0
VERTEX
  5
10F
  8
0
  6
CONTINUOUS
 62
     7
 10
13.3125620356
 20
-19.2291251701
 30
0.0
  0
VERTEX
  5
110
  8
0
  6
CONTINUOUS
 62
     7
 10
13.7301214953
 20
-19.8251700478
 30
0.0
  0
VERTEX
  5
111
  8
0
  6
CONTINUOUS
 62
     7
 10
14.1536515541
 20
-20.4177926138
 30
0.0
  0
VERTEX
  5
112
  8
0
  6
CONTINUOUS
 62
     7
 10
14.5831522119
 20
-21.006992868
 30
0.0
  0
SEQEND
  5
1A3
  8
0
  6
CONTINUOUS
 62
     7
  0
ARC
  5
64
  8
0
  6
CONTINUOUS
 62
     7
 10
11.9697108264
 20
-9.3107392382
 30
0.0
 40
4.000000000000012
 50
174.6680134309
 51
207.6838873285
  0
ARC
  5
65
  8
0
  6
CONTINUOUS
 62
     7
 10
5.0
 20
-8.6602540378
 30
0.0
 40
3.000000000000001
 50
354.6680134309
 51
55.1586493428
  0
ARC
  5
66
  8
0
  6
CONTINUOUS
 62
     7
 10
8.9991423261
 20
-2.9150942789
 30
0.0
 40
4.000000000000001
 50
202.1751947266
 51
235.1586493428
  0
ARC
  5
67
  8
0
  6
CONTINUOUS
 62
     7
 10
6.6841357795
 20
-3.8588870553
 30
0.0
 40
1.5
 50
97.839464823
 51
202.1672340902
  0
ARC
  5
68
  8
0
  6
CONTINUOUS
 62
     7
 10
7.0236607495
 20
-6.3357244784
 30
0.0
 40
3.999999999999999
 50
64.8372259612
 51
97.8182115891
  0
ARC
  5
69
  8
0
  6
CONTINUOUS
 62
     7
 10
10.0
 20
0.0
 30
0.0
 40
3.000000000000002
 50
244.8372259612
 51
305.3369654497
  0
ARC
  5
6A
  8
0
  6
CONTINUOUS
 62
     7
 10
14.0486883542
 20
-5.7103522318
 30
0.0
 40
4.000000000000011
 50
92.3093716413
 51
125.3369654497
  0
POLYLINE
  5
6B
  8
0
  6
CONTINUOUS
 62
     7
 66
     1
 10
0.0
 20
0.0
 30
0.0
  0
VERTEX
  5
113
  8
0
  6
CONTINUOUS
 62
     7
 10
25.4854290796
 20
-2.1289961673
 30
0.0
  0
VERTEX
  5
114
  8
0
  6
CONTINUOUS
 62
     7
 10
24.760407364
 20
-2.0512950056
 30
0.0
  0
VERTEX
  5
115
  8
0
  6
CONTINUOUS
 62
     7
 10
24.0354058636
 20
-1.9804923722
 30
0.0
  0
VERTEX
  5
116
  8
0
  6
CONTINUOUS
 62
     7
 10
23.3104245784
 20
-1.9165882669
 30
0.0
  0
VERTEX
  5
117
  8
0
  6
CONTINUOUS
 62
     7
 10
22.5854635083
 20
-1.8595826897
 30
0.0
  0
VERTEX
  5
118
  8
0
  6
CONTINUOUS
 62
     7
 10
21.8605226534
 20
-1.8094756408
 30
0.0
  0
VERTEX
  5
119
  8
0
  6
CONTINUOUS
 62
     7
 10
21.1356020136
 20
-1.76626712
 30
0.0
  0
VERTEX
  5
11A
  8
0
  6
CONTINUOUS
 62
     7
 10
20.410701589
 20
-1.7299571274
 30
0.0
  0
VERTEX
  5
11B
  8
0
  6
CONTINUOUS
 62
     7
 10
19.6858213795
 20
-1.7005456629
 30
0.0
  0
VERTEX
  5
11C
  8
0
  6
CONTINUOUS
 62
     7
 10
18.9609613852
 20
-1.6780327267
 30
0.0
  0
VERTEX
  5
11D
  8
0
  6
CONTINUOUS
 62
     7
 10
18.236121606
 20
-1.6624183186
 30
0.0
  0
VERTEX
  5
11E
  8
0
  6
CONTINUOUS
 62
     7
 10
17.511302042
 20
-1.6537024386
 30
0.0
  0
VERTEX
  5
11F
  8
0
  6
CONTINUOUS
 62
     7
 10
16.7865026932
 20
-1.6518850869
 30
0.0
  0
VERTEX
  5
120
  8
0
  6
CONTINUOUS
 62
     7
 10
16.0617235595
 20
-1.6569662633
 30
0.0
  0
VERTEX
  5
121
  8
0
  6
CONTINUOUS
 62
     7
 10
15.3369646409
 20
-1.6689459679
 30
0.0
  0
VERTEX
  5
122
  8
0
  6
CONTINUOUS
 62
     7
 10
14.6122259375
 20
-1.6878242006
 30
0.0
  0
VERTEX
  5
123
  8
0
  6
CONTINUOUS
 62
     7
 10
13.8875074493
 20
-1.7136009615
 30
0.0
  0
SEQEND
  5
1A2
  8
0
  6
CONTINUOUS
 62
     7
  0
ARC
  5
6C
  8
0
  6
CONTINUOUS
 62
     7
 10
25.0182540828
 20
-6.3029328609
 30
0.0
 40
4.200000000000005
 50
345.8595466607
 51
83.6136519734
  0
ARC
  5
6D
  8
0
  6
CONTINUOUS
 62
     7
 10
0.0
 20
0.0
 30
0.0
 40
30.0
 50
314.1338350804
 51
345.8595466607
  0
ARC
  5
6E
  8
0
  6
CONTINUOUS
 62
     7
 10
17.9654882248
 20
-18.517052488
 30
0.0
 40
4.200000000000003
 50
216.3590130064
 51
314.1338350804
  0
POLYLINE
  5
6F
  8
0
  6
CONTINUOUS
 62
     7
 66
     1
 10
0.0
 20
0.0
 30
0.0
  0
VERTEX
  5
124
  8
0
  6
CONTINUOUS
 62
     7
 10
13.8865409873
 20
1.7139717534
 30
0.0
  0
VERTEX
  5
125
  8
0
  6
CONTINUOUS
 62
     7
 10
14.6112313453
 20
1.6881024118
 30
0.0
  0
VERTEX
  5
126
  8
0
  6
CONTINUOUS
 62
     7
 10
15.3359431938
 20
1.6691149166
 30
0.0
  0
VERTEX
  5
127
  8
0
  6
CONTINUOUS
 62
     7
 10
16.060676533
 20
1.6570092677
 30
0.0
  0
VERTEX
  5
128
  8
0
  6
CONTINUOUS
 62
     7
 10
16.7854313628
 20
1.6517854651
 30
0.0
  0
VERTEX
  5
129
  8
0
  6
CONTINUOUS
 62
     7
 10
17.5102076832
 20
1.6534435088
 30
0.0
  0
VERTEX
  5
12A
  8
0
  6
CONTINUOUS
 62
     7
 10
18.2350054941
 20
1.6619833989
 30
0.0
  0
VERTEX
  5
12B
  8
0
  6
CONTINUOUS
 62
     7
 10
18.9598247957
 20
1.6774051354
 30
0.0
  0
VERTEX
  5
12C
  8
0
  6
CONTINUOUS
 62
     7
 10
19.6846655879
 20
1.6997087182
 30
0.0
  0
VERTEX
  5
12D
  8
0
  6
CONTINUOUS
 62
     7
 10
20.4095278706
 20
1.7288941473
 30
0.0
  0
VERTEX
  5
12E
  8
0
  6
CONTINUOUS
 62
     7
 10
21.134411644
 20
1.7649614228
 30
0.0
  0
VERTEX
  5
12F
  8
0
  6
CONTINUOUS
 62
     7
 10
21.859316908
 20
1.8079105446
 30
0.0
  0
VERTEX
  5
130
  8
0
  6
CONTINUOUS
 62
     7
 10
22.5842436625
 20
1.8577415127
 30
0.0
  0
VERTEX
  5
131
  8
0
  6
CONTINUOUS
 62
     7
 10
23.3091919077
 20
1.9144543272
 30
0.0
  0
VERTEX
  5
132
  8
0
  6
CONTINUOUS
 62
     7
 10
24.0341616434
 20
1.9780489881
 30
0.0
  0
VERTEX
  5
133
  8
0
  6
CONTINUOUS
 62
     7
 10
24.7591528698
 20
2.0485254953
 30
0.0
  0
VERTEX
  5
134
  8
0
  6
CONTINUOUS
 62
     7
 10
25.4841655867
 20
2.1258838488
 30
0.0
  0
SEQEND
  5
1A1
  8
0
  6
CONTINUOUS
 62
     7
  0
ARC
  5
70
  8
0
  6
CONTINUOUS
 62
     7
 10
14.0481921215
 20
5.7107040325
 30
0.0
 40
4.000000000000009
 50
234.6680134309
 51
267.6838873285
  0
ARC
  5
71
  8
0
  6
CONTINUOUS
 62
     7
 10
10.0
 20
0.0
 30
0.0
 40
3.000000000000001
 50
54.6680134309
 51
115.1586493428
  0
ARC
  5
72
  8
0
  6
CONTINUOUS
 62
     7
 10
7.024116863
 20
6.3359387272
 30
0.0
 40
3.999999999999999
 50
262.1751947266
 51
295.1586493428
  0
ARC
  5
73
  8
0
  6
CONTINUOUS
 62
     7
 10
6.68396211
 20
3.8591878597
 30
0.0
 40
1.5
 50
157.839464823
 51
262.1672340902
  0
ARC
  5
74
  8
0
  6
CONTINUOUS
 62
     7
 10
8.9987287244
 20
2.9148063975
 30
0.0
 40
4.0
 50
124.8372259612
 51
157.8182115891
  0
ARC
  5
75
  8
0
  6
CONTINUOUS
 62
     7
 10
5.0
 20
8.6602540378
 30
0.0
 40
3.000000000000001
 50
304.8372259612
 51
5.3369654497
  0
ARC
  5
76
  8
0
  6
CONTINUOUS
 62
     7
 10
11.9696542743
 20
9.3113448887
 30
0.0
 40
4.000000000000009
 50
152.3093716413
 51
185.3369654497
  0
POLYLINE
  5
77
  8
0
  6
CONTINUOUS
 62
     7
 66
     1
 10
0.0
 20
0.0
 30
0.0
  0
VERTEX
  5
135
  8
0
  6
CONTINUOUS
 62
     7
 10
14.5864793052
 20
21.0065309256
 30
0.0
  0
VERTEX
  5
136
  8
0
  6
CONTINUOUS
 62
     7
 10
14.1566772675
 20
20.4174942825
 30
0.0
  0
VERTEX
  5
137
  8
0
  6
CONTINUOUS
 62
     7
 10
13.7328596381
 20
19.8250258821
 30
0.0
  0
VERTEX
  5
138
  8
0
  6
CONTINUOUS
 62
     7
 10
13.3150264169
 20
19.2291257244
 30
0.0
  0
VERTEX
  5
139
  8
0
  6
CONTINUOUS
 62
     7
 10
12.9031776039
 20
18.6297938096
 30
0.0
  0
VERTEX
  5
13A
  8
0
  6
CONTINUOUS
 62
     7
 10
12.4973131991
 20
18.0270301374
 30
0.0
  0
VERTEX
  5
13B
  8
0
  6
CONTINUOUS
 62
     7
 10
12.0974332026
 20
17.420834708
 30
0.0
  0
VERTEX
  5
13C
  8
0
  6
CONTINUOUS
 62
     7
 10
11.7035376143
 20
16.8112075214
 30
0.0
  0
VERTEX
  5
13D
  8
0
  6
CONTINUOUS
 62
     7
 10
11.3156264342
 20
16.1981485775
 30
0.0
  0
VERTEX
  5
13E
  8
0
  6
CONTINUOUS
 62
     7
 10
10.9336996623
 20
15.5816578764
 30
0.0
  0
VERTEX
  5
13F
  8
0
  6
CONTINUOUS
 62
     7
 10
10.5577572986
 20
14.961735418
 30
0.0
  0
VERTEX
  5
140
  8
0
  6
CONTINUOUS
 62
     7
 10
10.1877993432
 20
14.3383812024
 30
0.0
  0
VERTEX
  5
141
  8
0
  6
CONTINUOUS
 62
     7
 10
9.823825796
 20
13.7115952295
 30
0.0
  0
VERTEX
  5
142
  8
0
  6
CONTINUOUS
 62
     7
 10
9.465836657
 20
13.0813774994
 30
0.0
  0
VERTEX
  5
143
  8
0
  6
CONTINUOUS
 62
     7
 10
9.1138319262
 20
12.447728012
 30
0.0
  0
VERTEX
  5
144
  8
0
  6
CONTINUOUS
 62
     7
 10
8.7678116036
 20
11.8106467674
 30
0.0
  0
VERTEX
  5
145
  8
0
  6
CONTINUOUS
 62
     7
 10
8.4277756893
 20
11.1701337656
 30
0.0
  0
SEQEND
  5
1A0
  8
0
  6
CONTINUOUS
 62
     7
  0
ARC
  5
78
  8
0
  6
CONTINUOUS
 62
     7
 10
17.9676270173
 20
18.5149771636
 30
0.0
 40
4.200000000000011
 50
45.8595466607
 51
143.6136519734
  0
ARC
  5
79
  8
0
  6
CONTINUOUS
 62
     7
 10
0.0
 20
0.0
 30
0.0
 40
30.0
 50
14.1338350804
 51
45.8595466607
  0
ARC
  5
7A
  8
0
  6
CONTINUOUS
 62
     7
 10
25.0189819702
 20
6.3000429501
 30
0.0
 40
4.200000000000002
 50
276.3590130064
 51
14.1338350804
  0
POLYLINE
  5
7B
  8
0
  6
CONTINUOUS
 62
     7
 66
     1
 10
0.0
 20
0.0
 30
0.0
  0
VERTEX
  5
146
  8
0
  6
CONTINUOUS
 62
     7
 10
5.4589274138
 20
12.8830831424
 30
0.0
  0
VERTEX
  5
147
  8
0
  6
CONTINUOUS
 62
     7
 10
5.8436760998
 20
13.4977487315
 30
0.0
  0
VERTEX
  5
148
  8
0
  6
CONTINUOUS
 62
     7
 10
6.2224756773
 20
14.1158738551
 30
0.0
  0
VERTEX
  5
149
  8
0
  6
CONTINUOUS
 62
     7
 10
6.5953261464
 20
14.7374585134
 30
0.0
  0
VERTEX
  5
14A
  8
0
  6
CONTINUOUS
 62
     7
 10
6.962227507
 20
15.3625027062
 30
0.0
  0
VERTEX
  5
14B
  8
0
  6
CONTINUOUS
 62
     7
 10
7.3231797592
 20
15.9910064336
 30
0.0
  0
VERTEX
  5
14C
  8
0
  6
CONTINUOUS
 62
     7
 10
7.6781829029
 20
16.6229696955
 30
0.0
  0
VERTEX
  5
14D
  8
0
  6
CONTINUOUS
 62
     7
 10
8.0272369382
 20
17.2583924921
 30
0.0
  0
VERTEX
  5
14E
  8
0
  6
CONTINUOUS
 62
     7
 10
8.370341865
 20
17.8972748232
 30
0.0
  0
VERTEX
  5
14F
  8
0
  6
CONTINUOUS
 62
     7
 10
8.7074976833
 20
18.5396166889
 30
0.0
  0
VERTEX
  5
150
  8
0
  6
CONTINUOUS
 62
     7
 10
9.0387043932
 20
19.1854180891
 30
0.0
  0
VERTEX
  5
151
  8
0
  6
CONTINUOUS
 62
     7
 10
9.3639619946
 20
19.834679024
 30
0.0
  0
VERTEX
  5
152
  8
0
  6
CONTINUOUS
 62
     7
 10
9.6832704876
 20
20.4873994934
 30
0.0
  0
VERTEX
  5
153
  8
0
  6
CONTINUOUS
 62
     7
 10
9.9966298721
 20
21.1435794974
 30
0.0
  0
VERTEX
  5
154
  8
0
  6
CONTINUOUS
 62
     7
 10
10.3040401481
 20
21.8032190359
 30
0.0
  0
VERTEX
  5
155
  8
0
  6
CONTINUOUS
 62
     7
 10
10.6055013157
 20
22.466318109
 30
0.0
  0
VERTEX
  5
156
  8
0
  6
CONTINUOUS
 62
     7
 10
10.9010133748
 20
23.1328767168
 30
0.0
  0
SEQEND
  5
19F
  8
0
  6
CONTINUOUS
 62
     7
  0
ARC
  5
7C
  8
0
  6
CONTINUOUS
 62
     7
 10
2.0784812951
 20
15.0214432707
 30
0.0
 40
4.000000000000009
 50
294.6680134309
 51
327.6838873285
  0
ARC
  5
7D
  8
0
  6
CONTINUOUS
 62
     7
 10
5.0
 20
8.6602540378
 30
0.0
 40
3.0
 50
114.6680134309
 51
175.1586493428
  0
ARC
  5
7E
  8
0
  6
CONTINUOUS
 62
     7
 10
-1.9750254631
 20
9.2510330061
 30
0.0
 40
4.000000000000002
 50
322.1751947266
 51
355.1586493428
  0
ARC
  5
7F
  8
0
  6
CONTINUOUS
 62
     7
 10
-0.0001736695
 20
7.718074915
 30
0.0
 40
1.500000000000002
 50
217.839464823
 51
322.1672340902
  0
ARC
  5
80
  8
0
  6
CONTINUOUS
 62
     7
 10
1.9750679749
 20
9.2505308758
 30
0.0
 40
4.000000000000001
 50
184.8372259612
 51
217.8182115891
  0
ARC
  5
81
  8
0
  6
CONTINUOUS
 62
     7
 10
-5.0
 20
8.6602540378
 30
0.0
 40
3.0
 50
4.8372259612
 51
65.3369654497
  0
ARC
  5
82
  8
0
  6
CONTINUOUS
 62
     7
 10
-2.0790340798
 20
15.0216971204
 30
0.0
 40
4.000000000000013
 50
212.3093716413
 51
245.3369654497
  0
POLYLINE
  5
83
  8
0
  6
CONTINUOUS
 62
     7
 66
     1
 10
0.0
 20
0.0
 30
0.0
  0
VERTEX
  5
157
  8
0
  6
CONTINUOUS
 62
     7
 10
-10.8989497744
 20
23.1355270929
 30
0.0
  0
VERTEX
  5
158
  8
0
  6
CONTINUOUS
 62
     7
 10
-10.6037300965
 20
22.4687892881
 30
0.0
  0
VERTEX
  5
159
  8
0
  6
CONTINUOUS
 62
     7
 10
-10.3025462255
 20
21.8055182542
 30
0.0
  0
VERTEX
  5
15A
  8
0
  6
CONTINUOUS
 62
     7
 10
-9.9953981615
 20
21.1457139913
 30
0.0
  0
VERTEX
  5
15B
  8
0
  6
CONTINUOUS
 62
     7
 10
-9.6822859044
 20
20.4893764993
 30
0.0
  0
VERTEX
  5
15C
  8
0
  6
CONTINUOUS
 62
     7
 10
-9.3632094542
 20
19.8365057782
 30
0.0
  0
VERTEX
  5
15D
  8
0
  6
CONTINUOUS
 62
     7
 10
-9.038168811
 20
19.187101828
 30
0.0
  0
VERTEX
  5
15E
  8
0
  6
CONTINUOUS
 62
     7
 10
-8.7071639747
 20
18.5411646488
 30
0.0
  0
VERTEX
  5
15F
  8
0
  6
CONTINUOUS
 62
     7
 10
-8.3701949453
 20
17.8986942405
 30
0.0
  0
VERTEX
  5
160
  8
0
  6
CONTINUOUS
 62
     7
 10
-8.0272617229
 20
17.2596906031
 30
0.0
  0
VERTEX
  5
161
  8
0
  6
CONTINUOUS
 62
     7
 10
-7.6783643074
 20
16.6241537366
 30
0.0
  0
VERTEX
  5
162
  8
0
  6
CONTINUOUS
 62
     7
 10
-7.3235026988
 20
15.992083641
 30
0.0
  0
VERTEX
  5
163
  8
0
  6
CONTINUOUS
 62
     7
 10
-6.9626768972
 20
15.3634803164
 30
0.0
  0
VERTEX
  5
164
  8
0
  6
CONTINUOUS
 62
     7
 10
-6.5958869025
 20
14.7383437627
 30
0.0
  0
VERTEX
  5
165
  8
0
  6
CONTINUOUS
 62
     7
 10
-6.2231327147
 20
14.1166739799
 30
0.0
  0
VERTEX
  5
166
  8
0
  6
CONTINUOUS
 62
     7
 10
-5.8444143339
 20
13.498470968
 30
0.0
  0
VERTEX
  5
167
  8
0
  6
CONTINUOUS
 62
     7
 10
-5.45973176
 20
12.8837347271
 30
0.0
  0
SEQEND
  5
19E
  8
0
  6
CONTINUOUS
 62
     7
  0
ARC
  5
84
  8
0
  6
CONTINUOUS
 62
     7
 10
-7.0506270655
 20
24.8179100245
 30
0.0
 40
4.200000000000001
 50
105.8595466607
 51
203.6136519734
  0
ARC
  5
85
  8
0
  6
CONTINUOUS
 62
     7
 10
0.0
 20
0.0
 30
0.0
 40
30.0
 50
74.1338350804
 51
105.8595466607
  0
ARC
  5
86
  8
0
  6
CONTINUOUS
 62
     7
 10
7.0534937454
 20
24.8170954381
 30
0.0
 40
4.200000000000005
 50
336.3590130064
 51
74.1338350804
  0
POLYLINE
  5
87
  8
0
  6
CONTINUOUS
 62
     7
 66
     1
 10
0.0
 20
0.0
 30
0.0
  0
VERTEX
  5
168
  8
0
  6
CONTINUOUS
 62
     7
 10
-8.4155901554
 20
11.1139624092
 30
0.0
  0
VERTEX
  5
169
  8
0
  6
CONTINUOUS
 62
     7
 10
-8.7525723698
 20
11.7606764652
 30
0.0
  0
VERTEX
  5
16A
  8
0
  6
CONTINUOUS
 62
     7
 10
-9.0959687929
 20
12.40375123
 30
0.0
  0
VERTEX
  5
16B
  8
0
  6
CONTINUOUS
 62
     7
 10
-9.4457794248
 20
13.0431867035
 30
0.0
  0
VERTEX
  5
16C
  8
0
  6
CONTINUOUS
 62
     7
 10
-9.8020042654
 20
13.6789828858
 30
0.0
  0
VERTEX
  5
16D
  8
0
  6
CONTINUOUS
 62
     7
 10
-10.1646433147
 20
14.3111397768
 30
0.0
  0
VERTEX
  5
16E
  8
0
  6
CONTINUOUS
 62
     7
 10
-10.5336965728
 20
14.9396573766
 30
0.0
  0
VERTEX
  5
16F
  8
0
  6
CONTINUOUS
 62
     7
 10
-10.9091640396
 20
15.5645356851
 30
0.0
  0
VERTEX
  5
170
  8
0
  6
CONTINUOUS
 62
     7
 10
-11.2910457152
 20
16.1857747024
 30
0.0
  0
VERTEX
  5
171
  8
0
  6
CONTINUOUS
 62
     7
 10
-11.6793415995
 20
16.8033744284
 30
0.0
  0
VERTEX
  5
172
  8
0
  6
CONTINUOUS
 62
     7
 10
-12.0740516925
 20
17.4173348632
 30
0.0
  0
VERTEX
  5
173
  8
0
  6
CONTINUOUS
 62
     7
 10
-12.4751759943
 20
18.0276560067
 30
0.0
  0
VERTEX
  5
174
  8
0
  6
CONTINUOUS
 62
     7
 10
-12.8827145048
 20
18.634337859
 30
0.0
  0
VERTEX
  5
175
  8
0
  6
CONTINUOUS
 62
     7
 10
-13.2966672241
 20
19.2373804201
 30
0.0
  0
VERTEX
  5
176
  8
0
  6
CONTINUOUS
 62
     7
 10
-13.7170341521
 20
19.8367836898
 30
0.0
  0
VERTEX
  5
177
  8
0
  6
CONTINUOUS
 62
     7
 10
-14.1438152888
 20
20.4325476684
 30
0.0
  0
VERTEX
  5
178
  8
0
  6
CONTINUOUS
 62
     7
 10
-14.5770106343
 20
21.0246723556
 30
0.0
  0
SEQEND
  5
19D
  8
0
  6
CONTINUOUS
 62
     7
  0
ARC
  5
88
  8
0
  6
CONTINUOUS
 62
     7
 10
-11.972198111
 20
9.2835144176
 30
0.0
 40
4.000000000000043
 50
354.8917798237
 51
27.2331211209
  0
ARC
  5
89
  8
0
  6
CONTINUOUS
 62
     7
 10
-5.0
 20
8.6602540378
 30
0.0
 40
3.0
 50
174.8917798237
 51
233.8266009751
  0
ARC
  5
8A
  8
0
  6
CONTINUOUS
 62
     7
 10
-9.1316166696
 20
3.0096130392
 30
0.0
 40
4.0
 50
21.6375632513
 51
53.8266009751
  0
ARC
  5
8B
  8
0
  6
CONTINUOUS
 62
     7
 10
-6.8089173185
 20
3.9343255658
 30
0.0
 40
1.5
 50
278.3778829851
 51
21.5193697511
  0
POLYLINE
  5
8C
  8
0
  6
CONTINUOUS
 62
     7
 66
     1
 10
0.0
 20
0.0
 30
0.0
  0
VERTEX
  5
179
  8
0
  6
CONTINUOUS
 62
     7
 10
-6.5972235616
 20
2.4493229251
 30
0.0
  0
VERTEX
  5
17A
  8
0
  6
CONTINUOUS
 62
     7
 10
-6.596794939
 20
2.4493860103
 30
0.0
  0
VERTEX
  5
17B
  8
0
  6
CONTINUOUS
 62
     7
 10
-6.5963663164
 20
2.449449098
 30
0.0
  0
VERTEX
  5
17C
  8
0
  6
CONTINUOUS
 62
     7
 10
-6.5959376939
 20
2.4495121883
 30
0.0
  0
VERTEX
  5
17D
  8
0
  6
CONTINUOUS
 62
     7
 10
-6.5955090714
 20
2.4495752811
 30
0.0
  0
VERTEX
  5
17E
  8
0
  6
CONTINUOUS
 62
     7
 10
-6.5950804489
 20
2.4496383764
 30
0.0
  0
VERTEX
  5
17F
  8
0
  6
CONTINUOUS
 62
     7
 10
-6.5946518264
 20
2.4497014742
 30
0.0
  0
VERTEX
  5
180
  8
0
  6
CONTINUOUS
 62
     7
 10
-6.5942232039
 20
2.4497645746
 30
0.0
  0
VERTEX
  5
181
  8
0
  6
CONTINUOUS
 62
     7
 10
-6.5937945814
 20
2.4498276775
 30
0.0
  0
VERTEX
  5
182
  8
0
  6
CONTINUOUS
 62
     7
 10
-6.593365959
 20
2.4498907829
 30
0.0
  0
VERTEX
  5
183
  8
0
  6
CONTINUOUS
 62
     7
 10
-6.5929373366
 20
2.4499538908
 30
0.0
  0
VERTEX
  5
184
  8
0
  6
CONTINUOUS
 62
     7
 10
-6.5925087142
 20
2.4500170013
 30
0.0
  0
VERTEX
  5
185
  8
0
  6
CONTINUOUS
 62
     7
 10
-6.5920800918
 20
2.4500801143
 30
0.0
  0
VERTEX
  5
186
  8
0
  6
CONTINUOUS
 62
     7
 10
-6.5916514695
 20
2.4501432298
 30
0.0
  0
VERTEX
  5
187
  8
0
  6
CONTINUOUS
 62
     7
 10
-6.5912228471
 20
2.4502063479
 30
0.0
  0
VERTEX
  5
188
  8
0
  6
CONTINUOUS
 62
     7
 10
-6.5907942248
 20
2.4502694685
 30
0.0
  0
VERTEX
  5
189
  8
0
  6
CONTINUOUS
 62
     7
 10
-6.5903656025
 20
2.4503325916
 30
0.0
  0
SEQEND
  5
19C
  8
0
  6
CONTINUOUS
 62
     7
  0
ARC
  5
8D
  8
0
  6
CONTINUOUS
 62
     7
 10
-7.1796621972
 20
6.4066913987
 30
0.0
 40
4.000000000000062
 50
246.2400648126
 51
278.3725847723
  0
ARC
  5
8E
  8
0
  6
CONTINUOUS
 62
     7
 10
-10.0
 20
0.0
 30
0.0
 40
3.000000000000001
 50
66.2400648126
 51
124.899747222
  0
ARC
  5
8F
  8
0
  6
CONTINUOUS
 62
     7
 10
-14.0049957856
 20
5.7410808004
 30
0.0
 40
4.000000000000057
 50
272.7409362335
 51
304.899747222
  0
POLYLINE
  5
90
  8
0
  6
CONTINUOUS
 62
     7
 66
     1
 10
0.0
 20
0.0
 30
0.0
  0
VERTEX
  5
18A
  8
0
  6
CONTINUOUS
 62
     7
 10
-25.4887261955
 20
2.1223649149
 30
0.0
  0
VERTEX
  5
18B
  8
0
  6
CONTINUOUS
 62
     7
 10
-24.7586256587
 20
2.0440172945
 30
0.0
  0
VERTEX
  5
18C
  8
0
  6
CONTINUOUS
 62
     7
 10
-24.0285801027
 20
1.9729767904
 30
0.0
  0
VERTEX
  5
18D
  8
0
  6
CONTINUOUS
 62
     7
 10
-23.2985895277
 20
1.9092434027
 30
0.0
  0
VERTEX
  5
18E
  8
0
  6
CONTINUOUS
 62
     7
 10
-22.5686539335
 20
1.8528171312
 30
0.0
  0
VERTEX
  5
18F
  8
0
  6
CONTINUOUS
 62
     7
 10
-21.8387733203
 20
1.803697976
 30
0.0
  0
VERTEX
  5
190
  8
0
  6
CONTINUOUS
 62
     7
 10
-21.108947688
 20
1.7618859372
 30
0.0
  0
VERTEX
  5
191
  8
0
  6
CONTINUOUS
 62
     7
 10
-20.3791770367
 20
1.7273810146
 30
0.0
  0
VERTEX
  5
192
  8
0
  6
CONTINUOUS
 62
     7
 10
-19.6494613662
 20
1.7001832084
 30
0.0
  0
VERTEX
  5
193
  8
0
  6
CONTINUOUS
 62
     7
 10
-18.9198006767
 20
1.6802925184
 30
0.0
  0
VERTEX
  5
194
  8
0
  6
CONTINUOUS
 62
     7
 10
-18.190194968
 20
1.6677089448
 30
0.0
  0
VERTEX
  5
195
  8
0
  6
CONTINUOUS
 62
     7
 10
-17.4606442403
 20
1.6624324874
 30
0.0
  0
VERTEX
  5
196
  8
0
  6
CONTINUOUS
 62
     7
 10
-16.7311484935
 20
1.6644631464
 30
0.0
  0
VERTEX
  5
197
  8
0
  6
CONTINUOUS
 62
     7
 10
-16.0017077276
 20
1.6738009217
 30
0.0
  0
VERTEX
  5
198
  8
0
  6
CONTINUOUS
 62
     7
 10
-15.2723219427
 20
1.6904458133
 30
0.0
  0
VERTEX
  5
199
  8
0
  6
CONTINUOUS
 62
     7
 10
-14.5429911386
 20
1.7143978212
 30
0.0
  0
VERTEX
  5
19A
  8
0
  6
CONTINUOUS
 62
     7
 10
-13.8137153155
 20
1.7456569454
 30
0.0
  0
SEQEND
  5
19B
  8
0
  6
CONTINUOUS
 62
     7
  0
ARC
  5
91
  8
0
  6
CONTINUOUS
 62
     7
 10
-25.0199684386
 20
6.2961241516
 30
0.0
 40
4.20000000000001
 50
165.8751391533
 51
263.5919249059
  0
ARC
  5
92
  8
0
  6
CONTINUOUS
 62
     7
 10
0.0
 20
0.0
 30
0.0
 40
30.0
 50
134.0992394413
 51
165.8751391533
  0
ARC
  5
93
  8
0
  6
CONTINUOUS
 62
     7
 10
-17.9543042097
 20
18.5278968139
 30
0.0
 40
4.200000000000004
 50
36.4748849733
 51
134.0992394413
  0
CIRCLE
  5
94
  8
0
  6
CONTINUOUS
 62
     7
 10
-31.5101368451
 20
4.4284609338
 30
0.0
 40
1.100000000000917
  0
CIRCLE
  5
95
  8
0
  6
CONTINUOUS
 62
     7
 10
-19.5902280909
 20
-25.0743485177
 30
0.0
 40
1.100000000002154
  0
CIRCLE
  5
96
  8
0
  6
CONTINUOUS
 62
     7
 10
11.9199087542
 20
-29.5028094515
 30
0.0
 40
1.100000000002982
  0
CIRCLE
  5
97
  8
0
  6
CONTINUOUS
 62
     7
 10
31.5101368451
 20
-4.4284609338
 30
0.0
 40
1.100000000002509
  0
CIRCLE
  5
98
  8
0
  6
CONTINUOUS
 62
     7
 10
19.5902280909
 20
25.0743485177
 30
0.0
 40
1.10000000000111
  0
CIRCLE
  5
99
  8
0
  6
CONTINUOUS
 62
     7
 10
-31.5101368451
 20
-4.4284609338
 30
0.0
 40
1.100000000000769
  0
CIRCLE
  5
9A
  8
0
  6
CONTINUOUS
 62
     7
 10
-11.9199087542
 20
-29.5028094515
 30
0.0
 40
1.100000000002005
  0
CIRCLE
  5
9B
  8
0
  6
CONTINUOUS
 62
     7
 10
19.5902280909
 20
-25.0743485177
 30
0.0
 40
1.100000000002847
  0
CIRCLE
  5
9C
  8
0
  6
CONTINUOUS
 62
     7
 10
31.5101368451
 20
4.4284609338
 30
0.0
 40
1.100000000002374
  0
CIRCLE
  5
9D
  8
0
  6
CONTINUOUS
 62
     7
 10
11.9199087542
 20
29.5028094515
 30
0.0
 40
1.100000000000986
  0
CIRCLE
  5
9E
  8
0
  6
CONTINUOUS
 62
     7
 10
-11.9199087542
 20
29.5028094515
 30
0.0
 40
1.100000000000001
  0
CIRCLE
  5
9F
  8
0
  6
CONTINUOUS
 62
     7
 10
-19.5902280909
 20
25.0743485177
 30
0.0
 40
1.100000000000001
  0
CIRCLE
  5
A0
  8
0
  6
CONTINUOUS
 62
     7
 10
-27.5567594735
 20
15.9099025
 30
0.0
 40
1.100000000000524
  0
CIRCLE
  5
A1
  8
0
  6
CONTINUOUS
 62
     7
 10
-27.5567594735
 20
-15.9099025
 30
0.0
 40
1.10000000000143
  0
CIRCLE
  5
A2
  8
0
  6
CONTINUOUS
 62
     7
 10
0.0
 20
-31.819805
 30
0.0
 40
1.100000000002645
  0
CIRCLE
  5
A3
  8
0
  6
CONTINUOUS
 62
     7
 10
27.5567594735
 20
-15.9099025
 30
0.0
 40
1.100000000002876
  0
CIRCLE
  5
A4
  8
0
  6
CONTINUOUS
 62
     7
 10
27.5567594735
 20
15.9099025
 30
0.0
 40
1.100000000001804
  0
CIRCLE
  5
A5
  8
0
  6
CONTINUOUS
 62
     7
 10
0.0
 20
31.819805
 30
0.0
 40
1.099999999999998
  0
CIRCLE
  5
A6
  8
0
  6
CONTINUOUS
 62
     7
 10
-15.9099025
 20
-27.5567594735
 30
0.0
 40
1.099999999999998
  0
CIRCLE
  5
A7
  8
0
  6
CONTINUOUS
 62
     7
 10
15.9099025
 20
-27.5567594735
 30
0.0
 40
1.099999999999998
  0
CIRCLE
  5
A8
  8
0
  6
CONTINUOUS
 62
     7
 10
31.819805
 20
0.0
 30
0.0
 40
1.099999999999999
  0
CIRCLE
  5
A9
  8
0
  6
CONTINUOUS
 62
     7
 10
15.9099025
 20
27.5567594735
 30
0.0
 40
1.099999999999998
  0
CIRCLE
  5
AA
  8
0
  6
CONTINUOUS
 62
     7
 10
-15.9099025
 20
27.5567594735
 30
0.0
 40
1.100000000000001
  0
CIRCLE
  5
AB
  8
0
  6
CONTINUOUS
 62
     7
 10
-31.819805
 20
0.0
 30
0.0
 40
1.099999999999999
  0
CIRCLE
  5
AC
  8
0
  6
CONTINUOUS
 62
     7
 10
0.0
 20
0.0
 30
0.0
 40
34.0
  0
ENDSEC
  0
EOF
