  0
SECTION
  2
HEADER
  9
$ACADVER
  1
AC1009
  9
$DWGCODEPAGE
  3
ansi_1252
  9
$INSBASE
 10
0.0
 20
0.0
 30
0.0
  9
$EXTMIN
 10
-35.0
 20
-35.0
 30
0.0
  9
$EXTMAX
 10
35.0
 20
35.0
 30
0.0
  9
$LIMMIN
 10
0.0
 20
0.0
  9
$LIMMAX
 10
420.0
 20
297.0
  9
$ORTHOMODE
 70
     0
  9
$REGENMODE
 70
     1
  9
$FILLMODE
 70
     1
  9
$QTEXTMODE
 70
     0
  9
$MIRRTEXT
 70
     1
  9
$DRAGMODE
 70
     2
  9
$LTSCALE
 40
1.0
  9
$OSMODE
 70
    37
  9
$ATTMODE
 70
     1
  9
$TEXTSIZE
 40
3.5
  9
$TRACEWID
 40
1.0
  9
$TEXTSTYLE
  7
STANDARD
  9
$CLAYER
  8
0
  9
$CELTYPE
  6
BYLAYER
  9
$CECOLOR
 62
   256
  9
$DIMSCALE
 40
1.0
  9
$DIMASZ
 40
3.302
  9
$DIMEXO
 40
1.0
  9
$DIMDLI
 40
3.75
  9
$DIMRND
 40
0.0
  9
$DIMDLE
 40
0.0
  9
$DIMEXE
 40
1.0
  9
$DIMTP
 40
0.0
  9
$DIMTM
 40
0.0
  9
$DIMTXT
 40
3.5
  9
$DIMCEN
 40
2.5
  9
$DIMTSZ
 40
0.0
  9
$DIMTOL
 70
     0
  9
$DIMLIM
 70
     0
  9
$DIMTIH
 70
     1
  9
$DIMTOH
 70
     1
  9
$DIMSE1
 70
     0
  9
$DIMSE2
 70
     0
  9
$DIMTAD
 70
     1
  9
$DIMZIN
 70
     0
  9
$DIMBLK
  1

  9
$DIMASO
 70
     1
  9
$DIMSHO
 70
     1
  9
$DIMPOST
  1

  9
$DIMAPOST
  1

  9
$DIMALT
 70
     0
  9
$DIMALTD
 70
     3
  9
$DIMALTF
 40
0.0393700787
  9
$DIMLFAC
 40
1.0
  9
$DIMTOFL
 70
     1
  9
$DIMTVP
 40
0.0
  9
$DIMTIX
 70
     0
  9
$DIMSOXD
 70
     0
  9
$DIMSAH
 70
     0
  9
$DIMBLK1
  1

  9
$DIMBLK2
  1

  9
$DIMSTYLE
  2
ISO-25
  9
$DIMCLRD
 70
     0
  9
$DIMCLRE
 70
     0
  9
$DIMCLRT
 70
     0
  9
$DIMTFAC
 40
1.0
  9
$DIMGAP
 40
1.524
  9
$LUNITS
 70
     2
  9
$LUPREC
 70
     2
  9
$SKETCHINC
 40
1.0
  9
$FILLETRAD
 40
10.0
  9
$AUNITS
 70
     0
  9
$AUPREC
 70
     2
  9
$MENU
  1
.
  9
$ELEVATION
 40
0.0
  9
$PELEVATION
 40
0.0
  9
$THICKNESS
 40
0.0
  9
$LIMCHECK
 70
     0
  9
$CHAMFERA
 40
10.0
  9
$CHAMFERB
 40
10.0
  9
$SKPOLY
 70
     0
  9
$TDCREATE
 40
2456399.472126076
  9
$TDUPDATE
 40
2456399.472150857
  9
$TDINDWG
 40
0.0000000116
  9
$TDUSRTIMER
 40
0.0000000116
  9
$USRTIMER
 70
     1
  9
$ANGBASE
 50
0.0
  9
$ANGDIR
 70
     0
  9
$PDMODE
 70
     0
  9
$PDSIZE
 40
-1.0
  9
$PLINEWID
 40
0.0
  9
$COORDS
 70
     1
  9
$SPLFRAME
 70
     0
  9
$SPLINETYPE
 70
     6
  9
$SPLINESEGS
 70
     8
  9
$ATTDIA
 70
     0
  9
$ATTREQ
 70
     1
  9
$HANDLING
 70
     1
  9
$HANDSEED
  5
119
  9
$SURFTAB1
 70
     6
  9
$SURFTAB2
 70
     6
  9
$SURFTYPE
 70
     6
  9
$SURFU
 70
     6
  9
$SURFV
 70
     6
  9
$UCSNAME
  2

  9
$UCSORG
 10
0.0
 20
0.0
 30
0.0
  9
$UCSXDIR
 10
1.0
 20
0.0
 30
0.0
  9
$UCSYDIR
 10
0.0
 20
1.0
 30
0.0
  9
$PUCSNAME
  2

  9
$PUCSORG
 10
0.0
 20
0.0
 30
0.0
  9
$PUCSXDIR
 10
1.0
 20
0.0
 30
0.0
  9
$PUCSYDIR
 10
0.0
 20
1.0
 30
0.0
  9
$USERI1
 70
     0
  9
$USERI2
 70
     0
  9
$USERI3
 70
     0
  9
$USERI4
 70
     0
  9
$USERI5
 70
     0
  9
$USERR1
 40
0.0
  9
$USERR2
 40
0.0
  9
$USERR3
 40
0.0
  9
$USERR4
 40
0.0
  9
$USERR5
 40
0.0
  9
$WORLDVIEW
 70
     1
  9
$SHADEDGE
 70
     3
  9
$SHADEDIF
 70
    70
  9
$TILEMODE
 70
     1
  9
$MAXACTVP
 70
    64
  9
$PLIMCHECK
 70
     0
  9
$PEXTMIN
 10
1.0000000000E+20
 20
1.0000000000E+20
 30
1.0000000000E+20
  9
$PEXTMAX
 10
-1.0000000000E+20
 20
-1.0000000000E+20
 30
-1.0000000000E+20
  9
$PLIMMIN
 10
0.0
 20
0.0
  9
$PLIMMAX
 10
420.0
 20
297.0
  9
$UNITMODE
 70
     0
  9
$VISRETAIN
 70
     1
  9
$PLINEGEN
 70
     0
  9
$PSLTSCALE
 70
     1
  0
ENDSEC
  0
SECTION
  2
TABLES
  0
TABLE
  2
VPORT
 70
     1
  0
VPORT
  2
*ACTIVE
 70
     0
 10
0.0
 20
0.0
 11
1.0
 21
1.0
 12
0.0
 22
0.0
 13
0.0
 23
0.0
 14
10.0
 24
10.0
 15
10.0
 25
10.0
 16
0.0
 26
0.0
 36
1.0
 17
0.0
 27
0.0
 37
0.0
 40
71.4
 41
1.0
 42
50.0
 43
0.0
 44
0.0
 50
0.0
 51
0.0
 71
     0
 72
   100
 73
     1
 74
     3
 75
     0
 76
     0
 77
     0
 78
     0
  0
ENDTAB
  0
TABLE
  2
LTYPE
 70
     6
  0
LTYPE
  2
CONTINUOUS
 70
     0
  3
Solid line
 72
    65
 73
     0
 40
0.0
  0
LTYPE
  2
HIDDEN
 70
     0
  3
Hidden __ __ __ __ __ __ __ __ __ __ __ __ __ __
 72
    65
 73
     2
 40
1.905
 49
1.27
 49
-0.635
  0
LTYPE
  2
PHANTOM
 70
     0
  3
Phantom ______  __  __  ______  __  __  ______
 72
    65
 73
     6
 40
12.7
 49
6.35
 49
-1.27
 49
1.27
 49
-1.27
 49
1.27
 49
-1.27
  0
LTYPE
  2
CENTER
 70
     0
  3
Center ____ _ ____ _ ____ _ ____ _ ____ _ ____
 72
    65
 73
     4
 40
10.16
 49
6.35
 49
-1.27
 49
1.27
 49
-1.27
  0
LTYPE
  2
CENTERX2
 70
     0
  3
Center (2x) ________  __  ________  __  _____
 72
    65
 73
     4
 40
20.32
 49
12.7
 49
-2.54
 49
2.54
 49
-2.54
  0
LTYPE
  2
DOT2
 70
     0
  3
Dot (.5x) ........................................
 72
    65
 73
     2
 40
0.635
 49
0.0
 49
-0.635
  0
ENDTAB
  0
TABLE
  2
LAYER
 70
     1
  0
LAYER
  2
0
 70
     0
 62
     7
  6
CONTINUOUS
  0
ENDTAB
  0
TABLE
  2
STYLE
 70
     1
  0
STYLE
  2
STANDARD
 70
     0
 40
0.0
 41
1.0
 50
0.0
 71
     0
 42
3.5
  3
txt
  4

  0
ENDTAB
  0
TABLE
  2
VIEW
 70
     0
  0
ENDTAB
  0
TABLE
  2
UCS
 70
     0
  0
ENDTAB
  0
TABLE
  2
APPID
 70
     1
  0
APPID
  2
ACAD
 70
     0
  0
ENDTAB
  0
TABLE
  2
DIMSTYLE
 70
     1
  0
DIMSTYLE
  2
ISO-25
 70
     0
  3

  4

  5

  6

  7

 40
1.0
 41
2.5
 42
0.625
 43
3.75
 44
1.25
 45
0.0
 46
0.0
 47
0.0
 48
0.0
140
2.5
141
2.5
142
0.0
143
0.0393700787
144
1.0
145
0.0
146
1.0
147
0.625
 71
     0
 72
     0
 73
     0
 74
     0
 75
     0
 76
     0
 77
     1
 78
     8
170
     0
171
     3
172
     1
173
     0
174
     0
175
     0
176
     0
177
     0
178
     0
  0
ENDTAB
  0
ENDSEC
  0
SECTION
  2
BLOCKS
  0
BLOCK
  8
0
  2
$MODEL_SPACE
 70
     0
 10
0.0
 20
0.0
 30
0.0
  3
$MODEL_SPACE
  1

  0
ENDBLK
  5
21
  8
0
  0
BLOCK
 67
     1
  8
0
  2
$PAPER_SPACE
 70
     0
 10
0.0
 20
0.0
 30
0.0
  3
$PAPER_SPACE
  1

  0
ENDBLK
  5
1D
 67
     1
  8
0
  0
ENDSEC
  0
SECTION
  2
ENTITIES
  0
POLYLINE
  5
44
  8
0
  6
CONTINUOUS
 62
     7
 66
     1
 10
0.0
 20
0.0
 30
0.0
  0
VERTEX
  5
89
  8
0
  6
CONTINUOUS
 62
     7
 10
-4.4611470544
 20
-22.8463667561
 30
0.0
  0
VERTEX
  5
8A
  8
0
  6
CONTINUOUS
 62
     7
 10
-4.4371341199
 20
-22.36726468
 30
0.0
  0
VERTEX
  5
8B
  8
0
  6
CONTINUOUS
 62
     7
 10
-4.4208133512
 20
-21.888162604
 30
0.0
  0
VERTEX
  5
8C
  8
0
  6
CONTINUOUS
 62
     7
 10
-4.4121847483
 20
-21.4090605279
 30
0.0
  0
VERTEX
  5
8D
  8
0
  6
CONTINUOUS
 62
     7
 10
-4.4112483113
 20
-20.9299584518
 30
0.0
  0
VERTEX
  5
8E
  8
0
  6
CONTINUOUS
 62
     7
 10
-4.41800404
 20
-20.4508563757
 30
0.0
  0
VERTEX
  5
8F
  8
0
  6
CONTINUOUS
 62
     7
 10
-4.4324519346
 20
-19.9717542996
 30
0.0
  0
VERTEX
  5
90
  8
0
  6
CONTINUOUS
 62
     7
 10
-4.454591995
 20
-19.4926522236
 30
0.0
  0
VERTEX
  5
91
  8
0
  6
CONTINUOUS
 62
     7
 10
-4.4844242212
 20
-19.0135501475
 30
0.0
  0
VERTEX
  5
92
  8
0
  6
CONTINUOUS
 62
     7
 10
-4.5219486132
 20
-18.5344480714
 30
0.0
  0
VERTEX
  5
93
  8
0
  6
CONTINUOUS
 62
     7
 10
-4.567165171
 20
-18.0553459953
 30
0.0
  0
VERTEX
  5
94
  8
0
  6
CONTINUOUS
 62
     7
 10
-4.6200738947
 20
-17.5762439192
 30
0.0
  0
VERTEX
  5
95
  8
0
  6
CONTINUOUS
 62
     7
 10
-4.6806747841
 20
-17.0971418432
 30
0.0
  0
VERTEX
  5
96
  8
0
  6
CONTINUOUS
 62
     7
 10
-4.7489678394
 20
-16.6180397671
 30
0.0
  0
VERTEX
  5
97
  8
0
  6
CONTINUOUS
 62
     7
 10
-4.8249530604
 20
-16.138937691
 30
0.0
  0
VERTEX
  5
98
  8
0
  6
CONTINUOUS
 62
     7
 10
-4.9086304473
 20
-15.6598356149
 30
0.0
  0
VERTEX
  5
99
  8
0
  6
CONTINUOUS
 62
     7
 10
-5.0
 20
-15.1807335388
 30
0.0
  0
SEQEND
  5
118
  8
0
  6
CONTINUOUS
 62
     7
  0
ARC
  5
45
  8
0
  6
CONTINUOUS
 62
     7
 10
-7.9552448547
 20
-22.6431905725
 30
0.0
 40
3.5
 50
250.6420661199
 51
356.6720897464
  0
ARC
  5
46
  8
0
  6
CONTINUOUS
 62
     7
 10
0.0
 20
0.0
 30
0.0
 40
27.5
 50
199.1267920837
 51
250.6420661199
  0
ARC
  5
47
  8
0
  6
CONTINUOUS
 62
     7
 10
-22.6750991632
 20
-7.8638335397
 30
0.0
 40
3.500000000000001
 50
94.0805110524
 51
199.1267920837
  0
POLYLINE
  5
48
  8
0
  6
CONTINUOUS
 62
     7
 66
     1
 10
0.0
 20
0.0
 30
0.0
  0
VERTEX
  5
9A
  8
0
  6
CONTINUOUS
 62
     7
 10
-15.1807335388
 20
-5.0
 30
0.0
  0
VERTEX
  5
9B
  8
0
  6
CONTINUOUS
 62
     7
 10
-15.6646972388
 20
-4.891670957
 30
0.0
  0
VERTEX
  5
9C
  8
0
  6
CONTINUOUS
 62
     7
 10
-16.1486609388
 20
-4.7925583354
 30
0.0
  0
VERTEX
  5
9D
  8
0
  6
CONTINUOUS
 62
     7
 10
-16.6326246387
 20
-4.7026621352
 30
0.0
  0
VERTEX
  5
9E
  8
0
  6
CONTINUOUS
 62
     7
 10
-17.1165883387
 20
-4.6219823564
 30
0.0
  0
VERTEX
  5
9F
  8
0
  6
CONTINUOUS
 62
     7
 10
-17.6005520387
 20
-4.5505189991
 30
0.0
  0
VERTEX
  5
A0
  8
0
  6
CONTINUOUS
 62
     7
 10
-18.0845157387
 20
-4.4882720632
 30
0.0
  0
VERTEX
  5
A1
  8
0
  6
CONTINUOUS
 62
     7
 10
-18.5684794387
 20
-4.4352415487
 30
0.0
  0
VERTEX
  5
A2
  8
0
  6
CONTINUOUS
 62
     7
 10
-19.0524431387
 20
-4.3914274557
 30
0.0
  0
VERTEX
  5
A3
  8
0
  6
CONTINUOUS
 62
     7
 10
-19.5364068387
 20
-4.3568297841
 30
0.0
  0
VERTEX
  5
A4
  8
0
  6
CONTINUOUS
 62
     7
 10
-20.0203705387
 20
-4.3314485339
 30
0.0
  0
VERTEX
  5
A5
  8
0
  6
CONTINUOUS
 62
     7
 10
-20.5043342387
 20
-4.3152837051
 30
0.0
  0
VERTEX
  5
A6
  8
0
  6
CONTINUOUS
 62
     7
 10
-20.9882979387
 20
-4.3083352978
 30
0.0
  0
VERTEX
  5
A7
  8
0
  6
CONTINUOUS
 62
     7
 10
-21.4722616386
 20
-4.3106033119
 30
0.0
  0
VERTEX
  5
A8
  8
0
  6
CONTINUOUS
 62
     7
 10
-21.9562253386
 20
-4.3220877474
 30
0.0
  0
VERTEX
  5
A9
  8
0
  6
CONTINUOUS
 62
     7
 10
-22.4401890386
 20
-4.3427886044
 30
0.0
  0
VERTEX
  5
AA
  8
0
  6
CONTINUOUS
 62
     7
 10
-22.9241527386
 20
-4.3727058828
 30
0.0
  0
SEQEND
  5
117
  8
0
  6
CONTINUOUS
 62
     7
  0
LINE
  5
49
  8
0
  6
CONTINUOUS
 62
     7
 10
-14.9999999985
 20
-5.1807335403
 30
0.0
 11
-15.1807335388
 21
-5.0
 31
0.0
  0
ARC
  5
4A
  8
0
  6
CONTINUOUS
 62
     7
 10
-10.0
 20
0.0
 30
0.0
 40
7.20000000002043
 50
226.0170368869
 51
266.364536901
  0
ARC
  5
4B
  8
0
  6
CONTINUOUS
 62
     7
 10
-10.6784681033
 20
-10.6784681033
 30
0.0
 40
3.500000000000002
 50
3.6354630991
 51
86.364536901
  0
ARC
  5
4C
  8
0
  6
CONTINUOUS
 62
     7
 10
0.0
 20
-10.0
 30
0.0
 40
7.199999999999707
 50
183.6354630991
 51
223.9829631393
  0
LINE
  5
4D
  8
0
  6
CONTINUOUS
 62
     7
 10
-5.0
 20
-15.1807335388
 30
0.0
 11
-5.180733538
 21
-15.0000000008
 31
0.0
  0
POLYLINE
  5
4E
  8
0
  6
CONTINUOUS
 62
     7
 66
     1
 10
0.0
 20
0.0
 30
0.0
  0
VERTEX
  5
AB
  8
0
  6
CONTINUOUS
 62
     7
 10
22.8463667561
 20
-4.4611470544
 30
0.0
  0
VERTEX
  5
AC
  8
0
  6
CONTINUOUS
 62
     7
 10
22.36726468
 20
-4.4371341199
 30
0.0
  0
VERTEX
  5
AD
  8
0
  6
CONTINUOUS
 62
     7
 10
21.888162604
 20
-4.4208133512
 30
0.0
  0
VERTEX
  5
AE
  8
0
  6
CONTINUOUS
 62
     7
 10
21.4090605279
 20
-4.4121847483
 30
0.0
  0
VERTEX
  5
AF
  8
0
  6
CONTINUOUS
 62
     7
 10
20.9299584518
 20
-4.4112483113
 30
0.0
  0
VERTEX
  5
B0
  8
0
  6
CONTINUOUS
 62
     7
 10
20.4508563757
 20
-4.41800404
 30
0.0
  0
VERTEX
  5
B1
  8
0
  6
CONTINUOUS
 62
     7
 10
19.9717542996
 20
-4.4324519346
 30
0.0
  0
VERTEX
  5
B2
  8
0
  6
CONTINUOUS
 62
     7
 10
19.4926522236
 20
-4.454591995
 30
0.0
  0
VERTEX
  5
B3
  8
0
  6
CONTINUOUS
 62
     7
 10
19.0135501475
 20
-4.4844242212
 30
0.0
  0
VERTEX
  5
B4
  8
0
  6
CONTINUOUS
 62
     7
 10
18.5344480714
 20
-4.5219486132
 30
0.0
  0
VERTEX
  5
B5
  8
0
  6
CONTINUOUS
 62
     7
 10
18.0553459953
 20
-4.567165171
 30
0.0
  0
VERTEX
  5
B6
  8
0
  6
CONTINUOUS
 62
     7
 10
17.5762439192
 20
-4.6200738947
 30
0.0
  0
VERTEX
  5
B7
  8
0
  6
CONTINUOUS
 62
     7
 10
17.0971418432
 20
-4.6806747841
 30
0.0
  0
VERTEX
  5
B8
  8
0
  6
CONTINUOUS
 62
     7
 10
16.6180397671
 20
-4.7489678394
 30
0.0
  0
VERTEX
  5
B9
  8
0
  6
CONTINUOUS
 62
     7
 10
16.138937691
 20
-4.8249530604
 30
0.0
  0
VERTEX
  5
BA
  8
0
  6
CONTINUOUS
 62
     7
 10
15.6598356149
 20
-4.9086304473
 30
0.0
  0
VERTEX
  5
BB
  8
0
  6
CONTINUOUS
 62
     7
 10
15.1807335388
 20
-5.0
 30
0.0
  0
SEQEND
  5
116
  8
0
  6
CONTINUOUS
 62
     7
  0
ARC
  5
4F
  8
0
  6
CONTINUOUS
 62
     7
 10
22.6431905725
 20
-7.9552448547
 30
0.0
 40
3.500000000000005
 50
340.6420661199
 51
86.6720897464
  0
ARC
  5
50
  8
0
  6
CONTINUOUS
 62
     7
 10
0.0
 20
0.0
 30
0.0
 40
27.5
 50
289.1267920837
 51
340.6420661199
  0
ARC
  5
51
  8
0
  6
CONTINUOUS
 62
     7
 10
7.8638335397
 20
-22.6750991632
 30
0.0
 40
3.500000000000003
 50
184.0805110524
 51
289.1267920837
  0
POLYLINE
  5
52
  8
0
  6
CONTINUOUS
 62
     7
 66
     1
 10
0.0
 20
0.0
 30
0.0
  0
VERTEX
  5
BC
  8
0
  6
CONTINUOUS
 62
     7
 10
5.0
 20
-15.1807335388
 30
0.0
  0
VERTEX
  5
BD
  8
0
  6
CONTINUOUS
 62
     7
 10
4.891670957
 20
-15.6646972388
 30
0.0
  0
VERTEX
  5
BE
  8
0
  6
CONTINUOUS
 62
     7
 10
4.7925583354
 20
-16.1486609388
 30
0.0
  0
VERTEX
  5
BF
  8
0
  6
CONTINUOUS
 62
     7
 10
4.7026621352
 20
-16.6326246387
 30
0.0
  0
VERTEX
  5
C0
  8
0
  6
CONTINUOUS
 62
     7
 10
4.6219823564
 20
-17.1165883387
 30
0.0
  0
VERTEX
  5
C1
  8
0
  6
CONTINUOUS
 62
     7
 10
4.5505189991
 20
-17.6005520387
 30
0.0
  0
VERTEX
  5
C2
  8
0
  6
CONTINUOUS
 62
     7
 10
4.4882720632
 20
-18.0845157387
 30
0.0
  0
VERTEX
  5
C3
  8
0
  6
CONTINUOUS
 62
     7
 10
4.4352415487
 20
-18.5684794387
 30
0.0
  0
VERTEX
  5
C4
  8
0
  6
CONTINUOUS
 62
     7
 10
4.3914274557
 20
-19.0524431387
 30
0.0
  0
VERTEX
  5
C5
  8
0
  6
CONTINUOUS
 62
     7
 10
4.3568297841
 20
-19.5364068387
 30
0.0
  0
VERTEX
  5
C6
  8
0
  6
CONTINUOUS
 62
     7
 10
4.3314485339
 20
-20.0203705387
 30
0.0
  0
VERTEX
  5
C7
  8
0
  6
CONTINUOUS
 62
     7
 10
4.3152837051
 20
-20.5043342387
 30
0.0
  0
VERTEX
  5
C8
  8
0
  6
CONTINUOUS
 62
     7
 10
4.3083352978
 20
-20.9882979387
 30
0.0
  0
VERTEX
  5
C9
  8
0
  6
CONTINUOUS
 62
     7
 10
4.3106033119
 20
-21.4722616386
 30
0.0
  0
VERTEX
  5
CA
  8
0
  6
CONTINUOUS
 62
     7
 10
4.3220877474
 20
-21.9562253386
 30
0.0
  0
VERTEX
  5
CB
  8
0
  6
CONTINUOUS
 62
     7
 10
4.3427886044
 20
-22.4401890386
 30
0.0
  0
VERTEX
  5
CC
  8
0
  6
CONTINUOUS
 62
     7
 10
4.3727058828
 20
-22.9241527386
 30
0.0
  0
SEQEND
  5
115
  8
0
  6
CONTINUOUS
 62
     7
  0
LINE
  5
53
  8
0
  6
CONTINUOUS
 62
     7
 10
5.1807335403
 20
-14.9999999985
 30
0.0
 11
5.0
 21
-15.1807335388
 31
0.0
  0
ARC
  5
54
  8
0
  6
CONTINUOUS
 62
     7
 10
0.0
 20
-10.0
 30
0.0
 40
7.199999999999707
 50
316.0170368869
 51
356.3645369009
  0
ARC
  5
55
  8
0
  6
CONTINUOUS
 62
     7
 10
10.6784681033
 20
-10.6784681033
 30
0.0
 40
3.499999999999999
 50
93.635463099
 51
176.3645369009
  0
ARC
  5
56
  8
0
  6
CONTINUOUS
 62
     7
 10
10.0
 20
0.0
 30
0.0
 40
7.199999999999998
 50
273.635463099
 51
313.9829631291
  0
LINE
  5
57
  8
0
  6
CONTINUOUS
 62
     7
 10
15.1807335388
 20
-5.0
 30
0.0
 11
14.9999999999
 21
-5.1807335389
 31
0.0
  0
POLYLINE
  5
58
  8
0
  6
CONTINUOUS
 62
     7
 66
     1
 10
0.0
 20
0.0
 30
0.0
  0
VERTEX
  5
CD
  8
0
  6
CONTINUOUS
 62
     7
 10
4.4611470544
 20
22.8463667561
 30
0.0
  0
VERTEX
  5
CE
  8
0
  6
CONTINUOUS
 62
     7
 10
4.4371341199
 20
22.36726468
 30
0.0
  0
VERTEX
  5
CF
  8
0
  6
CONTINUOUS
 62
     7
 10
4.4208133512
 20
21.888162604
 30
0.0
  0
VERTEX
  5
D0
  8
0
  6
CONTINUOUS
 62
     7
 10
4.4121847483
 20
21.4090605279
 30
0.0
  0
VERTEX
  5
D1
  8
0
  6
CONTINUOUS
 62
     7
 10
4.4112483113
 20
20.9299584518
 30
0.0
  0
VERTEX
  5
D2
  8
0
  6
CONTINUOUS
 62
     7
 10
4.41800404
 20
20.4508563757
 30
0.0
  0
VERTEX
  5
D3
  8
0
  6
CONTINUOUS
 62
     7
 10
4.4324519346
 20
19.9717542996
 30
0.0
  0
VERTEX
  5
D4
  8
0
  6
CONTINUOUS
 62
     7
 10
4.454591995
 20
19.4926522236
 30
0.0
  0
VERTEX
  5
D5
  8
0
  6
CONTINUOUS
 62
     7
 10
4.4844242212
 20
19.0135501475
 30
0.0
  0
VERTEX
  5
D6
  8
0
  6
CONTINUOUS
 62
     7
 10
4.5219486132
 20
18.5344480714
 30
0.0
  0
VERTEX
  5
D7
  8
0
  6
CONTINUOUS
 62
     7
 10
4.567165171
 20
18.0553459953
 30
0.0
  0
VERTEX
  5
D8
  8
0
  6
CONTINUOUS
 62
     7
 10
4.6200738947
 20
17.5762439192
 30
0.0
  0
VERTEX
  5
D9
  8
0
  6
CONTINUOUS
 62
     7
 10
4.6806747841
 20
17.0971418432
 30
0.0
  0
VERTEX
  5
DA
  8
0
  6
CONTINUOUS
 62
     7
 10
4.7489678394
 20
16.6180397671
 30
0.0
  0
VERTEX
  5
DB
  8
0
  6
CONTINUOUS
 62
     7
 10
4.8249530604
 20
16.138937691
 30
0.0
  0
VERTEX
  5
DC
  8
0
  6
CONTINUOUS
 62
     7
 10
4.9086304473
 20
15.6598356149
 30
0.0
  0
VERTEX
  5
DD
  8
0
  6
CONTINUOUS
 62
     7
 10
5.0
 20
15.1807335388
 30
0.0
  0
SEQEND
  5
114
  8
0
  6
CONTINUOUS
 62
     7
  0
ARC
  5
59
  8
0
  6
CONTINUOUS
 62
     7
 10
7.9552448547
 20
22.6431905725
 30
0.0
 40
3.500000000000003
 50
70.6420661199
 51
176.6720897464
  0
ARC
  5
5A
  8
0
  6
CONTINUOUS
 62
     7
 10
0.0
 20
0.0
 30
0.0
 40
27.5
 50
19.1267920837
 51
70.6420661199
  0
ARC
  5
5B
  8
0
  6
CONTINUOUS
 62
     7
 10
22.6750991632
 20
7.8638335397
 30
0.0
 40
3.499999999999999
 50
274.0805110524
 51
19.1267920837
  0
POLYLINE
  5
5C
  8
0
  6
CONTINUOUS
 62
     7
 66
     1
 10
0.0
 20
0.0
 30
0.0
  0
VERTEX
  5
DE
  8
0
  6
CONTINUOUS
 62
     7
 10
15.1807335388
 20
5.0
 30
0.0
  0
VERTEX
  5
DF
  8
0
  6
CONTINUOUS
 62
     7
 10
15.6646972388
 20
4.891670957
 30
0.0
  0
VERTEX
  5
E0
  8
0
  6
CONTINUOUS
 62
     7
 10
16.1486609388
 20
4.7925583354
 30
0.0
  0
VERTEX
  5
E1
  8
0
  6
CONTINUOUS
 62
     7
 10
16.6326246387
 20
4.7026621352
 30
0.0
  0
VERTEX
  5
E2
  8
0
  6
CONTINUOUS
 62
     7
 10
17.1165883387
 20
4.6219823564
 30
0.0
  0
VERTEX
  5
E3
  8
0
  6
CONTINUOUS
 62
     7
 10
17.6005520387
 20
4.5505189991
 30
0.0
  0
VERTEX
  5
E4
  8
0
  6
CONTINUOUS
 62
     7
 10
18.0845157387
 20
4.4882720632
 30
0.0
  0
VERTEX
  5
E5
  8
0
  6
CONTINUOUS
 62
     7
 10
18.5684794387
 20
4.4352415487
 30
0.0
  0
VERTEX
  5
E6
  8
0
  6
CONTINUOUS
 62
     7
 10
19.0524431387
 20
4.3914274557
 30
0.0
  0
VERTEX
  5
E7
  8
0
  6
CONTINUOUS
 62
     7
 10
19.5364068387
 20
4.3568297841
 30
0.0
  0
VERTEX
  5
E8
  8
0
  6
CONTINUOUS
 62
     7
 10
20.0203705387
 20
4.3314485339
 30
0.0
  0
VERTEX
  5
E9
  8
0
  6
CONTINUOUS
 62
     7
 10
20.5043342387
 20
4.3152837051
 30
0.0
  0
VERTEX
  5
EA
  8
0
  6
CONTINUOUS
 62
     7
 10
20.9882979387
 20
4.3083352978
 30
0.0
  0
VERTEX
  5
EB
  8
0
  6
CONTINUOUS
 62
     7
 10
21.4722616386
 20
4.3106033119
 30
0.0
  0
VERTEX
  5
EC
  8
0
  6
CONTINUOUS
 62
     7
 10
21.9562253386
 20
4.3220877474
 30
0.0
  0
VERTEX
  5
ED
  8
0
  6
CONTINUOUS
 62
     7
 10
22.4401890386
 20
4.3427886044
 30
0.0
  0
VERTEX
  5
EE
  8
0
  6
CONTINUOUS
 62
     7
 10
22.9241527386
 20
4.3727058828
 30
0.0
  0
SEQEND
  5
113
  8
0
  6
CONTINUOUS
 62
     7
  0
LINE
  5
5D
  8
0
  6
CONTINUOUS
 62
     7
 10
14.9999999993
 20
5.1807335395
 30
0.0
 11
15.1807335388
 21
5.0
 31
0.0
  0
ARC
  5
5E
  8
0
  6
CONTINUOUS
 62
     7
 10
10.0
 20
0.0
 30
0.0
 40
7.199999999999999
 50
46.0170368777
 51
86.3645369009
  0
ARC
  5
5F
  8
0
  6
CONTINUOUS
 62
     7
 10
10.6784681033
 20
10.6784681033
 30
0.0
 40
3.5
 50
183.635463099
 51
266.3645369009
  0
ARC
  5
60
  8
0
  6
CONTINUOUS
 62
     7
 10
0.0
 20
10.0
 30
0.0
 40
7.200000000000003
 50
3.635463099
 51
43.9829631319
  0
LINE
  5
61
  8
0
  6
CONTINUOUS
 62
     7
 10
5.0
 20
15.1807335388
 30
0.0
 11
5.1807335387
 21
15.0000000001
 31
0.0
  0
POLYLINE
  5
62
  8
0
  6
CONTINUOUS
 62
     7
 66
     1
 10
0.0
 20
0.0
 30
0.0
  0
VERTEX
  5
EF
  8
0
  6
CONTINUOUS
 62
     7
 10
-22.8463667561
 20
4.4611470544
 30
0.0
  0
VERTEX
  5
F0
  8
0
  6
CONTINUOUS
 62
     7
 10
-22.3672646801
 20
4.4371341199
 30
0.0
  0
VERTEX
  5
F1
  8
0
  6
CONTINUOUS
 62
     7
 10
-21.888162604
 20
4.4208133512
 30
0.0
  0
VERTEX
  5
F2
  8
0
  6
CONTINUOUS
 62
     7
 10
-21.4090605279
 20
4.4121847483
 30
0.0
  0
VERTEX
  5
F3
  8
0
  6
CONTINUOUS
 62
     7
 10
-20.9299584518
 20
4.4112483113
 30
0.0
  0
VERTEX
  5
F4
  8
0
  6
CONTINUOUS
 62
     7
 10
-20.4508563757
 20
4.41800404
 30
0.0
  0
VERTEX
  5
F5
  8
0
  6
CONTINUOUS
 62
     7
 10
-19.9717542996
 20
4.4324519346
 30
0.0
  0
VERTEX
  5
F6
  8
0
  6
CONTINUOUS
 62
     7
 10
-19.4926522236
 20
4.454591995
 30
0.0
  0
VERTEX
  5
F7
  8
0
  6
CONTINUOUS
 62
     7
 10
-19.0135501475
 20
4.4844242212
 30
0.0
  0
VERTEX
  5
F8
  8
0
  6
CONTINUOUS
 62
     7
 10
-18.5344480714
 20
4.5219486132
 30
0.0
  0
VERTEX
  5
F9
  8
0
  6
CONTINUOUS
 62
     7
 10
-18.0553459953
 20
4.567165171
 30
0.0
  0
VERTEX
  5
FA
  8
0
  6
CONTINUOUS
 62
     7
 10
-17.5762439192
 20
4.6200738947
 30
0.0
  0
VERTEX
  5
FB
  8
0
  6
CONTINUOUS
 62
     7
 10
-17.0971418432
 20
4.6806747841
 30
0.0
  0
VERTEX
  5
FC
  8
0
  6
CONTINUOUS
 62
     7
 10
-16.6180397671
 20
4.7489678394
 30
0.0
  0
VERTEX
  5
FD
  8
0
  6
CONTINUOUS
 62
     7
 10
-16.138937691
 20
4.8249530604
 30
0.0
  0
VERTEX
  5
FE
  8
0
  6
CONTINUOUS
 62
     7
 10
-15.6598356149
 20
4.9086304473
 30
0.0
  0
VERTEX
  5
FF
  8
0
  6
CONTINUOUS
 62
     7
 10
-15.1807335388
 20
5.0
 30
0.0
  0
SEQEND
  5
112
  8
0
  6
CONTINUOUS
 62
     7
  0
ARC
  5
63
  8
0
  6
CONTINUOUS
 62
     7
 10
-22.6431905725
 20
7.9552448547
 30
0.0
 40
3.500000000000002
 50
160.6420661199
 51
266.6720897464
  0
ARC
  5
64
  8
0
  6
CONTINUOUS
 62
     7
 10
0.0
 20
0.0
 30
0.0
 40
27.5
 50
109.1267920837
 51
160.6420661199
  0
ARC
  5
65
  8
0
  6
CONTINUOUS
 62
     7
 10
-7.8638335397
 20
22.6750991632
 30
0.0
 40
3.5
 50
4.0805110524
 51
109.1267920837
  0
POLYLINE
  5
66
  8
0
  6
CONTINUOUS
 62
     7
 66
     1
 10
0.0
 20
0.0
 30
0.0
  0
VERTEX
  5
100
  8
0
  6
CONTINUOUS
 62
     7
 10
-5.0
 20
15.1807335388
 30
0.0
  0
VERTEX
  5
101
  8
0
  6
CONTINUOUS
 62
     7
 10
-4.891670957
 20
15.6646972388
 30
0.0
  0
VERTEX
  5
102
  8
0
  6
CONTINUOUS
 62
     7
 10
-4.7925583354
 20
16.1486609388
 30
0.0
  0
VERTEX
  5
103
  8
0
  6
CONTINUOUS
 62
     7
 10
-4.7026621352
 20
16.6326246387
 30
0.0
  0
VERTEX
  5
104
  8
0
  6
CONTINUOUS
 62
     7
 10
-4.6219823564
 20
17.1165883387
 30
0.0
  0
VERTEX
  5
105
  8
0
  6
CONTINUOUS
 62
     7
 10
-4.5505189991
 20
17.6005520387
 30
0.0
  0
VERTEX
  5
106
  8
0
  6
CONTINUOUS
 62
     7
 10
-4.4882720632
 20
18.0845157387
 30
0.0
  0
VERTEX
  5
107
  8
0
  6
CONTINUOUS
 62
     7
 10
-4.4352415487
 20
18.5684794387
 30
0.0
  0
VERTEX
  5
108
  8
0
  6
CONTINUOUS
 62
     7
 10
-4.3914274557
 20
19.0524431387
 30
0.0
  0
VERTEX
  5
109
  8
0
  6
CONTINUOUS
 62
     7
 10
-4.3568297841
 20
19.5364068387
 30
0.0
  0
VERTEX
  5
10A
  8
0
  6
CONTINUOUS
 62
     7
 10
-4.3314485339
 20
20.0203705387
 30
0.0
  0
VERTEX
  5
10B
  8
0
  6
CONTINUOUS
 62
     7
 10
-4.3152837051
 20
20.5043342387
 30
0.0
  0
VERTEX
  5
10C
  8
0
  6
CONTINUOUS
 62
     7
 10
-4.3083352978
 20
20.9882979387
 30
0.0
  0
VERTEX
  5
10D
  8
0
  6
CONTINUOUS
 62
     7
 10
-4.3106033119
 20
21.4722616386
 30
0.0
  0
VERTEX
  5
10E
  8
0
  6
CONTINUOUS
 62
     7
 10
-4.3220877474
 20
21.9562253386
 30
0.0
  0
VERTEX
  5
10F
  8
0
  6
CONTINUOUS
 62
     7
 10
-4.3427886044
 20
22.4401890386
 30
0.0
  0
VERTEX
  5
110
  8
0
  6
CONTINUOUS
 62
     7
 10
-4.3727058828
 20
22.9241527386
 30
0.0
  0
SEQEND
  5
111
  8
0
  6
CONTINUOUS
 62
     7
  0
LINE
  5
67
  8
0
  6
CONTINUOUS
 62
     7
 10
-5.1807335387
 20
15.0000000001
 30
0.0
 11
-5.0
 21
15.1807335388
 31
0.0
  0
ARC
  5
68
  8
0
  6
CONTINUOUS
 62
     7
 10
0.0
 20
10.0
 30
0.0
 40
7.200000000000005
 50
136.0170368691
 51
176.3645369008
  0
ARC
  5
69
  8
0
  6
CONTINUOUS
 62
     7
 10
-10.6784681033
 20
10.6784681033
 30
0.0
 40
3.499999999999999
 50
273.6354630989
 51
356.3645369008
  0
ARC
  5
6A
  8
0
  6
CONTINUOUS
 62
     7
 10
-10.0
 20
0.0
 30
0.0
 40
7.200000000020429
 50
93.6354630989
 51
133.9829631299
  0
LINE
  5
6B
  8
0
  6
CONTINUOUS
 62
     7
 10
-15.1807335388
 20
5.0
 30
0.0
 11
-15.0
 21
5.1807335389
 31
0.0
  0
CIRCLE
  5
6C
  8
0
  6
CONTINUOUS
 62
     7
 10
0.0
 20
-10.0
 30
0.0
 40
2.100000000000001
  0
CIRCLE
  5
6D
  8
0
  6
CONTINUOUS
 62
     7
 10
10.0
 20
0.0
 30
0.0
 40
2.099999999999999
  0
CIRCLE
  5
6E
  8
0
  6
CONTINUOUS
 62
     7
 10
0.0
 20
10.0
 30
0.0
 40
2.1
  0
CIRCLE
  5
6F
  8
0
  6
CONTINUOUS
 62
     7
 10
-10.0
 20
0.0
 30
0.0
 40
2.099999999999999
  0
CIRCLE
  5
70
  8
0
  6
CONTINUOUS
 62
     7
 10
-18.2510903573
 20
-26.0652583146
 30
0.0
 40
2.0999999999996
  0
CIRCLE
  5
71
  8
0
  6
CONTINUOUS
 62
     7
 10
-26.0652583146
 20
-18.2510903573
 30
0.0
 40
2.099999999999334
  0
CIRCLE
  5
72
  8
0
  6
CONTINUOUS
 62
     7
 10
5.525451152
 20
-31.3363906633
 30
0.0
 40
2.099999999999842
  0
CIRCLE
  5
73
  8
0
  6
CONTINUOUS
 62
     7
 10
-5.525451152
 20
-31.3363906633
 30
0.0
 40
2.099999999999216
  0
CIRCLE
  5
74
  8
0
  6
CONTINUOUS
 62
     7
 10
26.0652583146
 20
-18.2510903573
 30
0.0
 40
2.100000000000719
  0
CIRCLE
  5
75
  8
0
  6
CONTINUOUS
 62
     7
 10
18.2510903573
 20
-26.0652583146
 30
0.0
 40
2.099999999999863
  0
CIRCLE
  5
76
  8
0
  6
CONTINUOUS
 62
     7
 10
31.3363906633
 20
5.525451152
 30
0.0
 40
2.100000000001697
  0
CIRCLE
  5
77
  8
0
  6
CONTINUOUS
 62
     7
 10
31.3363906633
 20
-5.525451152
 30
0.0
 40
2.100000000000877
  0
CIRCLE
  5
78
  8
0
  6
CONTINUOUS
 62
     7
 10
-22.4999998915
 20
22.4999998915
 30
0.0
 40
2.100000000000001
  0
CIRCLE
  5
79
  8
0
  6
CONTINUOUS
 62
     7
 10
-22.4999998915
 20
-22.4999998915
 30
0.0
 40
2.100000000000001
  0
CIRCLE
  5
7A
  8
0
  6
CONTINUOUS
 62
     7
 10
22.4999998915
 20
-22.4999998915
 30
0.0
 40
2.100000000000001
  0
CIRCLE
  5
7B
  8
0
  6
CONTINUOUS
 62
     7
 10
22.4999998915
 20
22.4999998915
 30
0.0
 40
2.100000000000001
  0
CIRCLE
  5
7C
  8
0
  6
CONTINUOUS
 62
     7
 10
18.2510903573
 20
26.0652583146
 30
0.0
 40
2.100000000002193
  0
CIRCLE
  5
7D
  8
0
  6
CONTINUOUS
 62
     7
 10
26.0652583146
 20
18.2510903573
 30
0.0
 40
2.10000000000165
  0
CIRCLE
  5
7E
  8
0
  6
CONTINUOUS
 62
     7
 10
-5.525451152
 20
31.3363906633
 30
0.0
 40
2.100000000001913
  0
CIRCLE
  5
7F
  8
0
  6
CONTINUOUS
 62
     7
 10
5.525451152
 20
31.3363906633
 30
0.0
 40
2.100000000001724
  0
CIRCLE
  5
80
  8
0
  6
CONTINUOUS
 62
     7
 10
0.0
 20
-31.819805
 30
0.0
 40
2.099999999999998
  0
CIRCLE
  5
81
  8
0
  6
CONTINUOUS
 62
     7
 10
-26.0652583146
 20
18.2510903573
 30
0.0
 40
2.100000000001003
  0
CIRCLE
  5
82
  8
0
  6
CONTINUOUS
 62
     7
 10
31.819805
 20
0.0
 30
0.0
 40
2.099999999999997
  0
CIRCLE
  5
83
  8
0
  6
CONTINUOUS
 62
     7
 10
-18.2510903573
 20
26.0652583146
 30
0.0
 40
2.100000000001046
  0
CIRCLE
  5
84
  8
0
  6
CONTINUOUS
 62
     7
 10
0.0
 20
31.819805
 30
0.0
 40
2.099999999999998
  0
CIRCLE
  5
85
  8
0
  6
CONTINUOUS
 62
     7
 10
-31.3363906633
 20
5.525451152
 30
0.0
 40
2.099999999999998
  0
CIRCLE
  5
86
  8
0
  6
CONTINUOUS
 62
     7
 10
-31.3363906633
 20
-5.525451152
 30
0.0
 40
2.100000000000001
  0
CIRCLE
  5
87
  8
0
  6
CONTINUOUS
 62
     7
 10
-31.819805
 20
0.0
 30
0.0
 40
2.100000000000001
  0
CIRCLE
  5
88
  8
0
  6
CONTINUOUS
 62
     7
 10
0.0
 20
0.0
 30
0.0
 40
35.00000000000001
  0
ENDSEC
  0
EOF
