  0
SECTION
  2
HEADER
  9
$ACADVER
  1
AC1009
  9
$DWGCODEPAGE
  3
ansi_1252
  9
$INSBASE
 10
0.0
 20
0.0
 30
0.0
  9
$EXTMIN
 10
-34.0
 20
-34.0
 30
0.0
  9
$EXTMAX
 10
34.0
 20
34.0
 30
0.0
  9
$LIMMIN
 10
0.0
 20
0.0
  9
$LIMMAX
 10
420.0
 20
297.0
  9
$ORTHOMODE
 70
     0
  9
$REGENMODE
 70
     1
  9
$FILLMODE
 70
     1
  9
$QTEXTMODE
 70
     0
  9
$MIRRTEXT
 70
     1
  9
$DRAGMODE
 70
     2
  9
$LTSCALE
 40
1.0
  9
$OSMODE
 70
    37
  9
$ATTMODE
 70
     1
  9
$TEXTSIZE
 40
3.5
  9
$TRACEWID
 40
1.0
  9
$TEXTSTYLE
  7
STANDARD
  9
$CLAYER
  8
0
  9
$CELTYPE
  6
BYLAYER
  9
$CECOLOR
 62
   256
  9
$DIMSCALE
 40
1.0
  9
$DIMASZ
 40
3.302
  9
$DIMEXO
 40
1.0
  9
$DIMDLI
 40
3.75
  9
$DIMRND
 40
0.0
  9
$DIMDLE
 40
0.0
  9
$DIMEXE
 40
1.0
  9
$DIMTP
 40
0.0
  9
$DIMTM
 40
0.0
  9
$DIMTXT
 40
3.5
  9
$DIMCEN
 40
2.5
  9
$DIMTSZ
 40
0.0
  9
$DIMTOL
 70
     0
  9
$DIMLIM
 70
     0
  9
$DIMTIH
 70
     1
  9
$DIMTOH
 70
     1
  9
$DIMSE1
 70
     0
  9
$DIMSE2
 70
     0
  9
$DIMTAD
 70
     1
  9
$DIMZIN
 70
     0
  9
$DIMBLK
  1

  9
$DIMASO
 70
     1
  9
$DIMSHO
 70
     1
  9
$DIMPOST
  1

  9
$DIMAPOST
  1

  9
$DIMALT
 70
     0
  9
$DIMALTD
 70
     3
  9
$DIMALTF
 40
0.0393700787
  9
$DIMLFAC
 40
1.0
  9
$DIMTOFL
 70
     1
  9
$DIMTVP
 40
0.0
  9
$DIMTIX
 70
     0
  9
$DIMSOXD
 70
     0
  9
$DIMSAH
 70
     0
  9
$DIMBLK1
  1

  9
$DIMBLK2
  1

  9
$DIMSTYLE
  2
ISO-25
  9
$DIMCLRD
 70
     0
  9
$DIMCLRE
 70
     0
  9
$DIMCLRT
 70
     0
  9
$DIMTFAC
 40
1.0
  9
$DIMGAP
 40
1.524
  9
$LUNITS
 70
     2
  9
$LUPREC
 70
     2
  9
$SKETCHINC
 40
1.0
  9
$FILLETRAD
 40
10.0
  9
$AUNITS
 70
     0
  9
$AUPREC
 70
     2
  9
$MENU
  1
.
  9
$ELEVATION
 40
0.0
  9
$PELEVATION
 40
0.0
  9
$THICKNESS
 40
0.0
  9
$LIMCHECK
 70
     0
  9
$CHAMFERA
 40
10.0
  9
$CHAMFERB
 40
10.0
  9
$SKPOLY
 70
     0
  9
$TDCREATE
 40
2456399.472534051
  9
$TDUPDATE
 40
2456399.47257022
  9
$TDINDWG
 40
0.0000000116
  9
$TDUSRTIMER
 40
0.0000000116
  9
$USRTIMER
 70
     1
  9
$ANGBASE
 50
0.0
  9
$ANGDIR
 70
     0
  9
$PDMODE
 70
     0
  9
$PDSIZE
 40
-1.0
  9
$PLINEWID
 40
0.0
  9
$COORDS
 70
     1
  9
$SPLFRAME
 70
     0
  9
$SPLINETYPE
 70
     6
  9
$SPLINESEGS
 70
     8
  9
$ATTDIA
 70
     0
  9
$ATTREQ
 70
     1
  9
$HANDLING
 70
     1
  9
$HANDSEED
  5
119
  9
$SURFTAB1
 70
     6
  9
$SURFTAB2
 70
     6
  9
$SURFTYPE
 70
     6
  9
$SURFU
 70
     6
  9
$SURFV
 70
     6
  9
$UCSNAME
  2

  9
$UCSORG
 10
0.0
 20
0.0
 30
0.0
  9
$UCSXDIR
 10
1.0
 20
0.0
 30
0.0
  9
$UCSYDIR
 10
0.0
 20
1.0
 30
0.0
  9
$PUCSNAME
  2

  9
$PUCSORG
 10
0.0
 20
0.0
 30
0.0
  9
$PUCSXDIR
 10
1.0
 20
0.0
 30
0.0
  9
$PUCSYDIR
 10
0.0
 20
1.0
 30
0.0
  9
$USERI1
 70
     0
  9
$USERI2
 70
     0
  9
$USERI3
 70
     0
  9
$USERI4
 70
     0
  9
$USERI5
 70
     0
  9
$USERR1
 40
0.0
  9
$USERR2
 40
0.0
  9
$USERR3
 40
0.0
  9
$USERR4
 40
0.0
  9
$USERR5
 40
0.0
  9
$WORLDVIEW
 70
     1
  9
$SHADEDGE
 70
     3
  9
$SHADEDIF
 70
    70
  9
$TILEMODE
 70
     1
  9
$MAXACTVP
 70
    64
  9
$PLIMCHECK
 70
     0
  9
$PEXTMIN
 10
1.0000000000E+20
 20
1.0000000000E+20
 30
1.0000000000E+20
  9
$PEXTMAX
 10
-1.0000000000E+20
 20
-1.0000000000E+20
 30
-1.0000000000E+20
  9
$PLIMMIN
 10
0.0
 20
0.0
  9
$PLIMMAX
 10
420.0
 20
297.0
  9
$UNITMODE
 70
     0
  9
$VISRETAIN
 70
     1
  9
$PLINEGEN
 70
     0
  9
$PSLTSCALE
 70
     1
  0
ENDSEC
  0
SECTION
  2
TABLES
  0
TABLE
  2
VPORT
 70
     1
  0
VPORT
  2
*ACTIVE
 70
     0
 10
0.0
 20
0.0
 11
1.0
 21
1.0
 12
0.0
 22
0.0
 13
0.0
 23
0.0
 14
10.0
 24
10.0
 15
10.0
 25
10.0
 16
0.0
 26
0.0
 36
1.0
 17
0.0
 27
0.0
 37
0.0
 40
69.36
 41
1.0
 42
50.0
 43
0.0
 44
0.0
 50
0.0
 51
0.0
 71
     0
 72
   100
 73
     1
 74
     3
 75
     0
 76
     0
 77
     0
 78
     0
  0
ENDTAB
  0
TABLE
  2
LTYPE
 70
     6
  0
LTYPE
  2
CONTINUOUS
 70
     0
  3
Solid line
 72
    65
 73
     0
 40
0.0
  0
LTYPE
  2
HIDDEN
 70
     0
  3
Hidden __ __ __ __ __ __ __ __ __ __ __ __ __ __
 72
    65
 73
     2
 40
1.905
 49
1.27
 49
-0.635
  0
LTYPE
  2
PHANTOM
 70
     0
  3
Phantom ______  __  __  ______  __  __  ______
 72
    65
 73
     6
 40
12.7
 49
6.35
 49
-1.27
 49
1.27
 49
-1.27
 49
1.27
 49
-1.27
  0
LTYPE
  2
CENTER
 70
     0
  3
Center ____ _ ____ _ ____ _ ____ _ ____ _ ____
 72
    65
 73
     4
 40
10.16
 49
6.35
 49
-1.27
 49
1.27
 49
-1.27
  0
LTYPE
  2
CENTERX2
 70
     0
  3
Center (2x) ________  __  ________  __  _____
 72
    65
 73
     4
 40
20.32
 49
12.7
 49
-2.54
 49
2.54
 49
-2.54
  0
LTYPE
  2
DOT2
 70
     0
  3
Dot (.5x) ........................................
 72
    65
 73
     2
 40
0.635
 49
0.0
 49
-0.635
  0
ENDTAB
  0
TABLE
  2
LAYER
 70
     1
  0
LAYER
  2
0
 70
     0
 62
     7
  6
CONTINUOUS
  0
ENDTAB
  0
TABLE
  2
STYLE
 70
     1
  0
STYLE
  2
STANDARD
 70
     0
 40
0.0
 41
1.0
 50
0.0
 71
     0
 42
3.5
  3
txt
  4

  0
ENDTAB
  0
TABLE
  2
VIEW
 70
     0
  0
ENDTAB
  0
TABLE
  2
UCS
 70
     0
  0
ENDTAB
  0
TABLE
  2
APPID
 70
     1
  0
APPID
  2
ACAD
 70
     0
  0
ENDTAB
  0
TABLE
  2
DIMSTYLE
 70
     1
  0
DIMSTYLE
  2
ISO-25
 70
     0
  3

  4

  5

  6

  7

 40
1.0
 41
2.5
 42
0.625
 43
3.75
 44
1.25
 45
0.0
 46
0.0
 47
0.0
 48
0.0
140
2.5
141
2.5
142
0.0
143
0.0393700787
144
1.0
145
0.0
146
1.0
147
0.625
 71
     0
 72
     0
 73
     0
 74
     0
 75
     0
 76
     0
 77
     1
 78
     8
170
     0
171
     3
172
     1
173
     0
174
     0
175
     0
176
     0
177
     0
178
     0
  0
ENDTAB
  0
ENDSEC
  0
SECTION
  2
BLOCKS
  0
BLOCK
  8
0
  2
$MODEL_SPACE
 70
     0
 10
0.0
 20
0.0
 30
0.0
  3
$MODEL_SPACE
  1

  0
ENDBLK
  5
21
  8
0
  0
BLOCK
 67
     1
  8
0
  2
$PAPER_SPACE
 70
     0
 10
0.0
 20
0.0
 30
0.0
  3
$PAPER_SPACE
  1

  0
ENDBLK
  5
1D
 67
     1
  8
0
  0
ENDSEC
  0
SECTION
  2
ENTITIES
  0
CIRCLE
  5
44
  8
0
  6
CONTINUOUS
 62
     7
 10
0.0
 20
-10.0
 30
0.0
 40
1.1
  0
CIRCLE
  5
45
  8
0
  6
CONTINUOUS
 62
     7
 10
10.0
 20
0.0
 30
0.0
 40
1.100000000000001
  0
CIRCLE
  5
46
  8
0
  6
CONTINUOUS
 62
     7
 10
0.0
 20
10.0
 30
0.0
 40
1.100000000000001
  0
CIRCLE
  5
47
  8
0
  6
CONTINUOUS
 62
     7
 10
-10.0
 20
0.0
 30
0.0
 40
1.100000000000001
  0
ARC
  5
48
  8
0
  6
CONTINUOUS
 62
     7
 10
-5.7916082065
 20
-5.9035530414
 30
0.0
 40
3.499999999999999
 50
83.9154194853
 51
125.4834542915
  0
ARC
  5
49
  8
0
  6
CONTINUOUS
 62
     7
 10
-5.8934511025
 20
-5.8911848134
 30
0.0
 40
3.500000000000021
 50
6.8656298548
 51
82.2359190262
  0
ARC
  5
4A
  8
0
  6
CONTINUOUS
 62
     7
 10
-5.9039472266
 20
-5.7921612263
 30
0.0
 40
3.5
 50
324.5219127548
 51
5.2354557893
  0
ARC
  5
4B
  8
0
  6
CONTINUOUS
 62
     7
 10
0.0
 20
-10.0
 30
0.0
 40
3.750000000000001
 50
144.5219127548
 51
222.3964240474
  0
ARC
  5
4C
  8
0
  6
CONTINUOUS
 62
     7
 10
-5.3541063229
 20
-14.8883581582
 30
0.0
 40
3.5
 50
0.8243331198
 51
42.3964240474
  0
POLYLINE
  5
4D
  8
0
  6
CONTINUOUS
 62
     7
 66
     1
 10
0.0
 20
0.0
 30
0.0
  0
VERTEX
  5
89
  8
0
  6
CONTINUOUS
 62
     7
 10
-2.1102466841
 20
-23.6887243307
 30
0.0
  0
VERTEX
  5
8A
  8
0
  6
CONTINUOUS
 62
     7
 10
-2.0718118139
 20
-23.1355543257
 30
0.0
  0
VERTEX
  5
8B
  8
0
  6
CONTINUOUS
 62
     7
 10
-2.0363701087
 20
-22.5823843207
 30
0.0
  0
VERTEX
  5
8C
  8
0
  6
CONTINUOUS
 62
     7
 10
-2.0039215684
 20
-22.0292143157
 30
0.0
  0
VERTEX
  5
8D
  8
0
  6
CONTINUOUS
 62
     7
 10
-1.9744661931
 20
-21.4760443107
 30
0.0
  0
VERTEX
  5
8E
  8
0
  6
CONTINUOUS
 62
     7
 10
-1.9480039828
 20
-20.9228743057
 30
0.0
  0
VERTEX
  5
8F
  8
0
  6
CONTINUOUS
 62
     7
 10
-1.9245349375
 20
-20.3697043007
 30
0.0
  0
VERTEX
  5
90
  8
0
  6
CONTINUOUS
 62
     7
 10
-1.9040590572
 20
-19.8165342957
 30
0.0
  0
VERTEX
  5
91
  8
0
  6
CONTINUOUS
 62
     7
 10
-1.8865763418
 20
-19.2633642907
 30
0.0
  0
VERTEX
  5
92
  8
0
  6
CONTINUOUS
 62
     7
 10
-1.8720867914
 20
-18.7101942857
 30
0.0
  0
VERTEX
  5
93
  8
0
  6
CONTINUOUS
 62
     7
 10
-1.860590406
 20
-18.1570242807
 30
0.0
  0
VERTEX
  5
94
  8
0
  6
CONTINUOUS
 62
     7
 10
-1.8520871856
 20
-17.6038542757
 30
0.0
  0
VERTEX
  5
95
  8
0
  6
CONTINUOUS
 62
     7
 10
-1.8465771302
 20
-17.0506842707
 30
0.0
  0
VERTEX
  5
96
  8
0
  6
CONTINUOUS
 62
     7
 10
-1.8440602397
 20
-16.4975142657
 30
0.0
  0
VERTEX
  5
97
  8
0
  6
CONTINUOUS
 62
     7
 10
-1.8445365142
 20
-15.9443442607
 30
0.0
  0
VERTEX
  5
98
  8
0
  6
CONTINUOUS
 62
     7
 10
-1.8480059537
 20
-15.3911742557
 30
0.0
  0
VERTEX
  5
99
  8
0
  6
CONTINUOUS
 62
     7
 10
-1.8544685582
 20
-14.8380042507
 30
0.0
  0
SEQEND
  5
118
  8
0
  6
CONTINUOUS
 62
     7
  0
ARC
  5
4E
  8
0
  6
CONTINUOUS
 62
     7
 10
-7.5959724634
 20
-23.2927285292
 30
0.0
 40
5.50000000000001
 50
251.9383774465
 51
355.87117513
  0
ARC
  5
4F
  8
0
  6
CONTINUOUS
 62
     7
 10
0.0
 20
0.0
 30
0.0
 40
30.0
 50
198.056593907
 51
251.9383774465
  0
ARC
  5
50
  8
0
  6
CONTINUOUS
 62
     7
 10
-23.2933951109
 20
-7.5939281143
 30
0.0
 40
5.500000000000004
 50
94.1237962235
 51
198.056593907
  0
POLYLINE
  5
51
  8
0
  6
CONTINUOUS
 62
     7
 66
     1
 10
0.0
 20
0.0
 30
0.0
  0
VERTEX
  5
9A
  8
0
  6
CONTINUOUS
 62
     7
 10
-14.8391779773
 20
-1.8531516594
 30
0.0
  0
VERTEX
  5
9B
  8
0
  6
CONTINUOUS
 62
     7
 10
-15.3922842331
 20
-1.8466465464
 30
0.0
  0
VERTEX
  5
9C
  8
0
  6
CONTINUOUS
 62
     7
 10
-15.9453907503
 20
-1.8431339147
 30
0.0
  0
VERTEX
  5
9D
  8
0
  6
CONTINUOUS
 62
     7
 10
-16.4984975291
 20
-1.8426137643
 30
0.0
  0
VERTEX
  5
9E
  8
0
  6
CONTINUOUS
 62
     7
 10
-17.0516045693
 20
-1.845086095
 30
0.0
  0
VERTEX
  5
9F
  8
0
  6
CONTINUOUS
 62
     7
 10
-17.6047118711
 20
-1.8505509071
 30
0.0
  0
VERTEX
  5
A0
  8
0
  6
CONTINUOUS
 62
     7
 10
-18.1578194343
 20
-1.8590082003
 30
0.0
  0
VERTEX
  5
A1
  8
0
  6
CONTINUOUS
 62
     7
 10
-18.710927259
 20
-1.8704579748
 30
0.0
  0
VERTEX
  5
A2
  8
0
  6
CONTINUOUS
 62
     7
 10
-19.2640353452
 20
-1.8849002306
 30
0.0
  0
VERTEX
  5
A3
  8
0
  6
CONTINUOUS
 62
     7
 10
-19.8171436929
 20
-1.9023349675
 30
0.0
  0
VERTEX
  5
A4
  8
0
  6
CONTINUOUS
 62
     7
 10
-20.3702523021
 20
-1.9227621857
 30
0.0
  0
VERTEX
  5
A5
  8
0
  6
CONTINUOUS
 62
     7
 10
-20.9233611727
 20
-1.9461818852
 30
0.0
  0
VERTEX
  5
A6
  8
0
  6
CONTINUOUS
 62
     7
 10
-21.4764703049
 20
-1.9725940659
 30
0.0
  0
VERTEX
  5
A7
  8
0
  6
CONTINUOUS
 62
     7
 10
-22.0295796985
 20
-2.0019987278
 30
0.0
  0
VERTEX
  5
A8
  8
0
  6
CONTINUOUS
 62
     7
 10
-22.5826893536
 20
-2.034395871
 30
0.0
  0
VERTEX
  5
A9
  8
0
  6
CONTINUOUS
 62
     7
 10
-23.1357992702
 20
-2.0697854954
 30
0.0
  0
VERTEX
  5
AA
  8
0
  6
CONTINUOUS
 62
     7
 10
-23.6889094483
 20
-2.108167601
 30
0.0
  0
SEQEND
  5
117
  8
0
  6
CONTINUOUS
 62
     7
  0
ARC
  5
52
  8
0
  6
CONTINUOUS
 62
     7
 10
-14.8898044418
 20
-5.3527854918
 30
0.0
 40
3.5
 50
47.5880969612
 51
89.1712045975
  0
ARC
  5
53
  8
0
  6
CONTINUOUS
 62
     7
 10
-10.0
 20
0.0
 30
0.0
 40
3.75
 50
227.5880969612
 51
305.4834542915
  0
POLYLINE
  5
54
  8
0
  6
CONTINUOUS
 62
     7
 66
     1
 10
0.0
 20
0.0
 30
0.0
  0
VERTEX
  5
AB
  8
0
  6
CONTINUOUS
 62
     7
 10
1.8531516594
 20
-14.8391779773
 30
0.0
  0
VERTEX
  5
AC
  8
0
  6
CONTINUOUS
 62
     7
 10
1.8466465464
 20
-15.3922842331
 30
0.0
  0
VERTEX
  5
AD
  8
0
  6
CONTINUOUS
 62
     7
 10
1.8431339147
 20
-15.9453907503
 30
0.0
  0
VERTEX
  5
AE
  8
0
  6
CONTINUOUS
 62
     7
 10
1.8426137643
 20
-16.4984975291
 30
0.0
  0
VERTEX
  5
AF
  8
0
  6
CONTINUOUS
 62
     7
 10
1.845086095
 20
-17.0516045693
 30
0.0
  0
VERTEX
  5
B0
  8
0
  6
CONTINUOUS
 62
     7
 10
1.8505509071
 20
-17.6047118711
 30
0.0
  0
VERTEX
  5
B1
  8
0
  6
CONTINUOUS
 62
     7
 10
1.8590082003
 20
-18.1578194343
 30
0.0
  0
VERTEX
  5
B2
  8
0
  6
CONTINUOUS
 62
     7
 10
1.8704579748
 20
-18.710927259
 30
0.0
  0
VERTEX
  5
B3
  8
0
  6
CONTINUOUS
 62
     7
 10
1.8849002306
 20
-19.2640353452
 30
0.0
  0
VERTEX
  5
B4
  8
0
  6
CONTINUOUS
 62
     7
 10
1.9023349675
 20
-19.8171436929
 30
0.0
  0
VERTEX
  5
B5
  8
0
  6
CONTINUOUS
 62
     7
 10
1.9227621857
 20
-20.3702523021
 30
0.0
  0
VERTEX
  5
B6
  8
0
  6
CONTINUOUS
 62
     7
 10
1.9461818852
 20
-20.9233611727
 30
0.0
  0
VERTEX
  5
B7
  8
0
  6
CONTINUOUS
 62
     7
 10
1.9725940659
 20
-21.4764703049
 30
0.0
  0
VERTEX
  5
B8
  8
0
  6
CONTINUOUS
 62
     7
 10
2.0019987278
 20
-22.0295796985
 30
0.0
  0
VERTEX
  5
B9
  8
0
  6
CONTINUOUS
 62
     7
 10
2.034395871
 20
-22.5826893536
 30
0.0
  0
VERTEX
  5
BA
  8
0
  6
CONTINUOUS
 62
     7
 10
2.0697854954
 20
-23.1357992702
 30
0.0
  0
VERTEX
  5
BB
  8
0
  6
CONTINUOUS
 62
     7
 10
2.108167601
 20
-23.6889094483
 30
0.0
  0
SEQEND
  5
116
  8
0
  6
CONTINUOUS
 62
     7
  0
ARC
  5
55
  8
0
  6
CONTINUOUS
 62
     7
 10
5.3527854918
 20
-14.8898044418
 30
0.0
 40
3.500000000000003
 50
137.5880969612
 51
179.1712045975
  0
ARC
  5
56
  8
0
  6
CONTINUOUS
 62
     7
 10
0.0
 20
-10.0
 30
0.0
 40
3.75
 50
317.5880969612
 51
35.4834542915
  0
ARC
  5
57
  8
0
  6
CONTINUOUS
 62
     7
 10
5.9035530414
 20
-5.7916082065
 30
0.0
 40
3.5
 50
173.9154194853
 51
215.4834542915
  0
ARC
  5
58
  8
0
  6
CONTINUOUS
 62
     7
 10
5.8911848134
 20
-5.8934511025
 30
0.0
 40
3.500000000000021
 50
96.8656298548
 51
172.2359190262
  0
ARC
  5
59
  8
0
  6
CONTINUOUS
 62
     7
 10
5.7921612263
 20
-5.9039472266
 30
0.0
 40
3.500000000000001
 50
54.5219127548
 51
95.2354557893
  0
ARC
  5
5A
  8
0
  6
CONTINUOUS
 62
     7
 10
10.0
 20
0.0
 30
0.0
 40
3.75
 50
234.5219127548
 51
312.3964240474
  0
ARC
  5
5B
  8
0
  6
CONTINUOUS
 62
     7
 10
14.8883581582
 20
-5.3541063229
 30
0.0
 40
3.5
 50
90.8243331198
 51
132.3964240474
  0
POLYLINE
  5
5C
  8
0
  6
CONTINUOUS
 62
     7
 66
     1
 10
0.0
 20
0.0
 30
0.0
  0
VERTEX
  5
BC
  8
0
  6
CONTINUOUS
 62
     7
 10
23.6887243307
 20
-2.1102466841
 30
0.0
  0
VERTEX
  5
BD
  8
0
  6
CONTINUOUS
 62
     7
 10
23.1355543257
 20
-2.0718118139
 30
0.0
  0
VERTEX
  5
BE
  8
0
  6
CONTINUOUS
 62
     7
 10
22.5823843207
 20
-2.0363701087
 30
0.0
  0
VERTEX
  5
BF
  8
0
  6
CONTINUOUS
 62
     7
 10
22.0292143157
 20
-2.0039215684
 30
0.0
  0
VERTEX
  5
C0
  8
0
  6
CONTINUOUS
 62
     7
 10
21.4760443107
 20
-1.9744661931
 30
0.0
  0
VERTEX
  5
C1
  8
0
  6
CONTINUOUS
 62
     7
 10
20.9228743057
 20
-1.9480039828
 30
0.0
  0
VERTEX
  5
C2
  8
0
  6
CONTINUOUS
 62
     7
 10
20.3697043007
 20
-1.9245349375
 30
0.0
  0
VERTEX
  5
C3
  8
0
  6
CONTINUOUS
 62
     7
 10
19.8165342957
 20
-1.9040590572
 30
0.0
  0
VERTEX
  5
C4
  8
0
  6
CONTINUOUS
 62
     7
 10
19.2633642907
 20
-1.8865763418
 30
0.0
  0
VERTEX
  5
C5
  8
0
  6
CONTINUOUS
 62
     7
 10
18.7101942857
 20
-1.8720867914
 30
0.0
  0
VERTEX
  5
C6
  8
0
  6
CONTINUOUS
 62
     7
 10
18.1570242807
 20
-1.860590406
 30
0.0
  0
VERTEX
  5
C7
  8
0
  6
CONTINUOUS
 62
     7
 10
17.6038542757
 20
-1.8520871856
 30
0.0
  0
VERTEX
  5
C8
  8
0
  6
CONTINUOUS
 62
     7
 10
17.0506842707
 20
-1.8465771302
 30
0.0
  0
VERTEX
  5
C9
  8
0
  6
CONTINUOUS
 62
     7
 10
16.4975142657
 20
-1.8440602397
 30
0.0
  0
VERTEX
  5
CA
  8
0
  6
CONTINUOUS
 62
     7
 10
15.9443442607
 20
-1.8445365142
 30
0.0
  0
VERTEX
  5
CB
  8
0
  6
CONTINUOUS
 62
     7
 10
15.3911742557
 20
-1.8480059537
 30
0.0
  0
VERTEX
  5
CC
  8
0
  6
CONTINUOUS
 62
     7
 10
14.8380042507
 20
-1.8544685582
 30
0.0
  0
SEQEND
  5
115
  8
0
  6
CONTINUOUS
 62
     7
  0
ARC
  5
5D
  8
0
  6
CONTINUOUS
 62
     7
 10
23.2927285292
 20
-7.5959724634
 30
0.0
 40
5.500000000000003
 50
341.9383774465
 51
85.8711751299
  0
ARC
  5
5E
  8
0
  6
CONTINUOUS
 62
     7
 10
0.0
 20
0.0
 30
0.0
 40
30.0
 50
288.0565939071
 51
341.9383774465
  0
ARC
  5
5F
  8
0
  6
CONTINUOUS
 62
     7
 10
7.5939281143
 20
-23.2933951109
 30
0.0
 40
5.499999999999999
 50
184.1237962235
 51
288.0565939071
  0
POLYLINE
  5
60
  8
0
  6
CONTINUOUS
 62
     7
 66
     1
 10
0.0
 20
0.0
 30
0.0
  0
VERTEX
  5
CD
  8
0
  6
CONTINUOUS
 62
     7
 10
14.8391779773
 20
1.8531516594
 30
0.0
  0
VERTEX
  5
CE
  8
0
  6
CONTINUOUS
 62
     7
 10
15.3922842331
 20
1.8466465464
 30
0.0
  0
VERTEX
  5
CF
  8
0
  6
CONTINUOUS
 62
     7
 10
15.9453907503
 20
1.8431339147
 30
0.0
  0
VERTEX
  5
D0
  8
0
  6
CONTINUOUS
 62
     7
 10
16.4984975291
 20
1.8426137643
 30
0.0
  0
VERTEX
  5
D1
  8
0
  6
CONTINUOUS
 62
     7
 10
17.0516045693
 20
1.845086095
 30
0.0
  0
VERTEX
  5
D2
  8
0
  6
CONTINUOUS
 62
     7
 10
17.6047118711
 20
1.8505509071
 30
0.0
  0
VERTEX
  5
D3
  8
0
  6
CONTINUOUS
 62
     7
 10
18.1578194343
 20
1.8590082003
 30
0.0
  0
VERTEX
  5
D4
  8
0
  6
CONTINUOUS
 62
     7
 10
18.710927259
 20
1.8704579748
 30
0.0
  0
VERTEX
  5
D5
  8
0
  6
CONTINUOUS
 62
     7
 10
19.2640353452
 20
1.8849002306
 30
0.0
  0
VERTEX
  5
D6
  8
0
  6
CONTINUOUS
 62
     7
 10
19.8171436929
 20
1.9023349675
 30
0.0
  0
VERTEX
  5
D7
  8
0
  6
CONTINUOUS
 62
     7
 10
20.3702523021
 20
1.9227621857
 30
0.0
  0
VERTEX
  5
D8
  8
0
  6
CONTINUOUS
 62
     7
 10
20.9233611727
 20
1.9461818852
 30
0.0
  0
VERTEX
  5
D9
  8
0
  6
CONTINUOUS
 62
     7
 10
21.4764703049
 20
1.9725940659
 30
0.0
  0
VERTEX
  5
DA
  8
0
  6
CONTINUOUS
 62
     7
 10
22.0295796985
 20
2.0019987278
 30
0.0
  0
VERTEX
  5
DB
  8
0
  6
CONTINUOUS
 62
     7
 10
22.5826893536
 20
2.034395871
 30
0.0
  0
VERTEX
  5
DC
  8
0
  6
CONTINUOUS
 62
     7
 10
23.1357992702
 20
2.0697854954
 30
0.0
  0
VERTEX
  5
DD
  8
0
  6
CONTINUOUS
 62
     7
 10
23.6889094483
 20
2.108167601
 30
0.0
  0
SEQEND
  5
114
  8
0
  6
CONTINUOUS
 62
     7
  0
ARC
  5
61
  8
0
  6
CONTINUOUS
 62
     7
 10
14.8898044418
 20
5.3527854918
 30
0.0
 40
3.499999999999999
 50
227.5880969612
 51
269.1712045975
  0
ARC
  5
62
  8
0
  6
CONTINUOUS
 62
     7
 10
10.0
 20
0.0
 30
0.0
 40
3.75
 50
47.5880969612
 51
125.4834542915
  0
ARC
  5
63
  8
0
  6
CONTINUOUS
 62
     7
 10
5.7916082065
 20
5.9035530414
 30
0.0
 40
3.5
 50
263.9154194853
 51
305.4834542915
  0
ARC
  5
64
  8
0
  6
CONTINUOUS
 62
     7
 10
5.8934511025
 20
5.8911848134
 30
0.0
 40
3.500000000000021
 50
186.8656298548
 51
262.2359190262
  0
ARC
  5
65
  8
0
  6
CONTINUOUS
 62
     7
 10
5.9039472266
 20
5.7921612263
 30
0.0
 40
3.5
 50
144.5219127548
 51
185.2354557893
  0
ARC
  5
66
  8
0
  6
CONTINUOUS
 62
     7
 10
0.0
 20
10.0
 30
0.0
 40
3.75
 50
324.5219127548
 51
42.3964240474
  0
ARC
  5
67
  8
0
  6
CONTINUOUS
 62
     7
 10
5.3541063229
 20
14.8883581582
 30
0.0
 40
3.5
 50
180.8243331198
 51
222.3964240474
  0
POLYLINE
  5
68
  8
0
  6
CONTINUOUS
 62
     7
 66
     1
 10
0.0
 20
0.0
 30
0.0
  0
VERTEX
  5
DE
  8
0
  6
CONTINUOUS
 62
     7
 10
2.1102466841
 20
23.6887243307
 30
0.0
  0
VERTEX
  5
DF
  8
0
  6
CONTINUOUS
 62
     7
 10
2.0718118139
 20
23.1355543257
 30
0.0
  0
VERTEX
  5
E0
  8
0
  6
CONTINUOUS
 62
     7
 10
2.0363701087
 20
22.5823843207
 30
0.0
  0
VERTEX
  5
E1
  8
0
  6
CONTINUOUS
 62
     7
 10
2.0039215684
 20
22.0292143157
 30
0.0
  0
VERTEX
  5
E2
  8
0
  6
CONTINUOUS
 62
     7
 10
1.9744661931
 20
21.4760443107
 30
0.0
  0
VERTEX
  5
E3
  8
0
  6
CONTINUOUS
 62
     7
 10
1.9480039828
 20
20.9228743057
 30
0.0
  0
VERTEX
  5
E4
  8
0
  6
CONTINUOUS
 62
     7
 10
1.9245349375
 20
20.3697043007
 30
0.0
  0
VERTEX
  5
E5
  8
0
  6
CONTINUOUS
 62
     7
 10
1.9040590572
 20
19.8165342957
 30
0.0
  0
VERTEX
  5
E6
  8
0
  6
CONTINUOUS
 62
     7
 10
1.8865763418
 20
19.2633642907
 30
0.0
  0
VERTEX
  5
E7
  8
0
  6
CONTINUOUS
 62
     7
 10
1.8720867914
 20
18.7101942857
 30
0.0
  0
VERTEX
  5
E8
  8
0
  6
CONTINUOUS
 62
     7
 10
1.860590406
 20
18.1570242807
 30
0.0
  0
VERTEX
  5
E9
  8
0
  6
CONTINUOUS
 62
     7
 10
1.8520871856
 20
17.6038542757
 30
0.0
  0
VERTEX
  5
EA
  8
0
  6
CONTINUOUS
 62
     7
 10
1.8465771302
 20
17.0506842707
 30
0.0
  0
VERTEX
  5
EB
  8
0
  6
CONTINUOUS
 62
     7
 10
1.8440602397
 20
16.4975142657
 30
0.0
  0
VERTEX
  5
EC
  8
0
  6
CONTINUOUS
 62
     7
 10
1.8445365142
 20
15.9443442607
 30
0.0
  0
VERTEX
  5
ED
  8
0
  6
CONTINUOUS
 62
     7
 10
1.8480059537
 20
15.3911742557
 30
0.0
  0
VERTEX
  5
EE
  8
0
  6
CONTINUOUS
 62
     7
 10
1.8544685582
 20
14.8380042507
 30
0.0
  0
SEQEND
  5
113
  8
0
  6
CONTINUOUS
 62
     7
  0
ARC
  5
69
  8
0
  6
CONTINUOUS
 62
     7
 10
7.5959724634
 20
23.2927285292
 30
0.0
 40
5.500000000000017
 50
71.9383774465
 51
175.8711751299
  0
ARC
  5
6A
  8
0
  6
CONTINUOUS
 62
     7
 10
0.0
 20
0.0
 30
0.0
 40
30.0
 50
18.056593907
 51
71.9383774465
  0
ARC
  5
6B
  8
0
  6
CONTINUOUS
 62
     7
 10
23.2933951109
 20
7.5939281143
 30
0.0
 40
5.5
 50
274.1237962235
 51
18.056593907
  0
POLYLINE
  5
6C
  8
0
  6
CONTINUOUS
 62
     7
 66
     1
 10
0.0
 20
0.0
 30
0.0
  0
VERTEX
  5
EF
  8
0
  6
CONTINUOUS
 62
     7
 10
-1.8531516594
 20
14.8391779773
 30
0.0
  0
VERTEX
  5
F0
  8
0
  6
CONTINUOUS
 62
     7
 10
-1.8466465464
 20
15.3922842331
 30
0.0
  0
VERTEX
  5
F1
  8
0
  6
CONTINUOUS
 62
     7
 10
-1.8431339147
 20
15.9453907503
 30
0.0
  0
VERTEX
  5
F2
  8
0
  6
CONTINUOUS
 62
     7
 10
-1.8426137643
 20
16.4984975291
 30
0.0
  0
VERTEX
  5
F3
  8
0
  6
CONTINUOUS
 62
     7
 10
-1.845086095
 20
17.0516045693
 30
0.0
  0
VERTEX
  5
F4
  8
0
  6
CONTINUOUS
 62
     7
 10
-1.8505509071
 20
17.6047118711
 30
0.0
  0
VERTEX
  5
F5
  8
0
  6
CONTINUOUS
 62
     7
 10
-1.8590082003
 20
18.1578194343
 30
0.0
  0
VERTEX
  5
F6
  8
0
  6
CONTINUOUS
 62
     7
 10
-1.8704579748
 20
18.710927259
 30
0.0
  0
VERTEX
  5
F7
  8
0
  6
CONTINUOUS
 62
     7
 10
-1.8849002306
 20
19.2640353452
 30
0.0
  0
VERTEX
  5
F8
  8
0
  6
CONTINUOUS
 62
     7
 10
-1.9023349675
 20
19.8171436929
 30
0.0
  0
VERTEX
  5
F9
  8
0
  6
CONTINUOUS
 62
     7
 10
-1.9227621857
 20
20.3702523021
 30
0.0
  0
VERTEX
  5
FA
  8
0
  6
CONTINUOUS
 62
     7
 10
-1.9461818852
 20
20.9233611727
 30
0.0
  0
VERTEX
  5
FB
  8
0
  6
CONTINUOUS
 62
     7
 10
-1.9725940659
 20
21.4764703049
 30
0.0
  0
VERTEX
  5
FC
  8
0
  6
CONTINUOUS
 62
     7
 10
-2.0019987278
 20
22.0295796985
 30
0.0
  0
VERTEX
  5
FD
  8
0
  6
CONTINUOUS
 62
     7
 10
-2.034395871
 20
22.5826893536
 30
0.0
  0
VERTEX
  5
FE
  8
0
  6
CONTINUOUS
 62
     7
 10
-2.0697854954
 20
23.1357992702
 30
0.0
  0
VERTEX
  5
FF
  8
0
  6
CONTINUOUS
 62
     7
 10
-2.108167601
 20
23.6889094483
 30
0.0
  0
SEQEND
  5
112
  8
0
  6
CONTINUOUS
 62
     7
  0
ARC
  5
6D
  8
0
  6
CONTINUOUS
 62
     7
 10
-5.3527854918
 20
14.8898044418
 30
0.0
 40
3.5
 50
317.5880969612
 51
359.1712045975
  0
ARC
  5
6E
  8
0
  6
CONTINUOUS
 62
     7
 10
0.0
 20
10.0
 30
0.0
 40
3.75
 50
137.5880969612
 51
215.4834542915
  0
ARC
  5
6F
  8
0
  6
CONTINUOUS
 62
     7
 10
-5.9035530414
 20
5.7916082065
 30
0.0
 40
3.5
 50
353.9154194853
 51
35.4834542915
  0
ARC
  5
70
  8
0
  6
CONTINUOUS
 62
     7
 10
-5.8911848134
 20
5.8934511025
 30
0.0
 40
3.500000000000022
 50
276.8656298548
 51
352.2359190262
  0
ARC
  5
71
  8
0
  6
CONTINUOUS
 62
     7
 10
-5.7921612263
 20
5.9039472266
 30
0.0
 40
3.500000000000001
 50
234.5219127548
 51
275.2354557893
  0
ARC
  5
72
  8
0
  6
CONTINUOUS
 62
     7
 10
-10.0
 20
0.0
 30
0.0
 40
3.75
 50
54.5219127548
 51
132.3964240474
  0
ARC
  5
73
  8
0
  6
CONTINUOUS
 62
     7
 10
-14.8883581582
 20
5.3541063229
 30
0.0
 40
3.500000000000001
 50
270.8243331198
 51
312.3964240474
  0
POLYLINE
  5
74
  8
0
  6
CONTINUOUS
 62
     7
 66
     1
 10
0.0
 20
0.0
 30
0.0
  0
VERTEX
  5
100
  8
0
  6
CONTINUOUS
 62
     7
 10
-23.6887243307
 20
2.1102466841
 30
0.0
  0
VERTEX
  5
101
  8
0
  6
CONTINUOUS
 62
     7
 10
-23.1355543257
 20
2.0718118139
 30
0.0
  0
VERTEX
  5
102
  8
0
  6
CONTINUOUS
 62
     7
 10
-22.5823843207
 20
2.0363701087
 30
0.0
  0
VERTEX
  5
103
  8
0
  6
CONTINUOUS
 62
     7
 10
-22.0292143157
 20
2.0039215684
 30
0.0
  0
VERTEX
  5
104
  8
0
  6
CONTINUOUS
 62
     7
 10
-21.4760443107
 20
1.9744661931
 30
0.0
  0
VERTEX
  5
105
  8
0
  6
CONTINUOUS
 62
     7
 10
-20.9228743057
 20
1.9480039828
 30
0.0
  0
VERTEX
  5
106
  8
0
  6
CONTINUOUS
 62
     7
 10
-20.3697043007
 20
1.9245349375
 30
0.0
  0
VERTEX
  5
107
  8
0
  6
CONTINUOUS
 62
     7
 10
-19.8165342957
 20
1.9040590572
 30
0.0
  0
VERTEX
  5
108
  8
0
  6
CONTINUOUS
 62
     7
 10
-19.2633642907
 20
1.8865763418
 30
0.0
  0
VERTEX
  5
109
  8
0
  6
CONTINUOUS
 62
     7
 10
-18.7101942857
 20
1.8720867914
 30
0.0
  0
VERTEX
  5
10A
  8
0
  6
CONTINUOUS
 62
     7
 10
-18.1570242807
 20
1.860590406
 30
0.0
  0
VERTEX
  5
10B
  8
0
  6
CONTINUOUS
 62
     7
 10
-17.6038542757
 20
1.8520871856
 30
0.0
  0
VERTEX
  5
10C
  8
0
  6
CONTINUOUS
 62
     7
 10
-17.0506842707
 20
1.8465771302
 30
0.0
  0
VERTEX
  5
10D
  8
0
  6
CONTINUOUS
 62
     7
 10
-16.4975142657
 20
1.8440602397
 30
0.0
  0
VERTEX
  5
10E
  8
0
  6
CONTINUOUS
 62
     7
 10
-15.9443442607
 20
1.8445365142
 30
0.0
  0
VERTEX
  5
10F
  8
0
  6
CONTINUOUS
 62
     7
 10
-15.3911742557
 20
1.8480059537
 30
0.0
  0
VERTEX
  5
110
  8
0
  6
CONTINUOUS
 62
     7
 10
-14.8380042507
 20
1.8544685582
 30
0.0
  0
SEQEND
  5
111
  8
0
  6
CONTINUOUS
 62
     7
  0
ARC
  5
75
  8
0
  6
CONTINUOUS
 62
     7
 10
-23.2927285292
 20
7.5959724634
 30
0.0
 40
5.50000000000001
 50
161.9383774465
 51
265.8711751299
  0
ARC
  5
76
  8
0
  6
CONTINUOUS
 62
     7
 10
0.0
 20
0.0
 30
0.0
 40
30.0
 50
108.056593907
 51
161.9383774465
  0
ARC
  5
77
  8
0
  6
CONTINUOUS
 62
     7
 10
-7.5939281143
 20
23.2933951109
 30
0.0
 40
5.500000000000001
 50
4.1237962235
 51
108.056593907
  0
CIRCLE
  5
78
  8
0
  6
CONTINUOUS
 62
     7
 10
-4.4284609338
 20
-31.5101368451
 30
0.0
 40
1.099999999999987
  0
CIRCLE
  5
79
  8
0
  6
CONTINUOUS
 62
     7
 10
4.4284609338
 20
-31.5101368451
 30
0.0
 40
1.099999999999987
  0
CIRCLE
  5
7A
  8
0
  6
CONTINUOUS
 62
     7
 10
31.5101368451
 20
-4.4284609338
 30
0.0
 40
1.099999999999992
  0
CIRCLE
  5
7B
  8
0
  6
CONTINUOUS
 62
     7
 10
31.5101368451
 20
4.4284609338
 30
0.0
 40
1.099999999999985
  0
CIRCLE
  5
7C
  8
0
  6
CONTINUOUS
 62
     7
 10
-22.4999998915
 20
22.4999998915
 30
0.0
 40
1.100000000001902
  0
CIRCLE
  5
7D
  8
0
  6
CONTINUOUS
 62
     7
 10
-22.4999998915
 20
-22.4999998915
 30
0.0
 40
1.100000000000094
  0
CIRCLE
  5
7E
  8
0
  6
CONTINUOUS
 62
     7
 10
22.4999998915
 20
-22.4999998915
 30
0.0
 40
1.100000000000254
  0
CIRCLE
  5
7F
  8
0
  6
CONTINUOUS
 62
     7
 10
22.4999998915
 20
22.4999998915
 30
0.0
 40
1.100000000001046
  0
CIRCLE
  5
80
  8
0
  6
CONTINUOUS
 62
     7
 10
4.4284609338
 20
31.5101368451
 30
0.0
 40
1.099999999999994
  0
CIRCLE
  5
81
  8
0
  6
CONTINUOUS
 62
     7
 10
-4.4284609338
 20
31.5101368451
 30
0.0
 40
1.099999999999987
  0
CIRCLE
  5
82
  8
0
  6
CONTINUOUS
 62
     7
 10
-31.5101368451
 20
4.4284609338
 30
0.0
 40
1.099999999999989
  0
CIRCLE
  5
83
  8
0
  6
CONTINUOUS
 62
     7
 10
-31.5101368451
 20
-4.4284609338
 30
0.0
 40
1.099999999999987
  0
CIRCLE
  5
84
  8
0
  6
CONTINUOUS
 62
     7
 10
0.0
 20
-31.819805
 30
0.0
 40
1.099999999999849
  0
CIRCLE
  5
85
  8
0
  6
CONTINUOUS
 62
     7
 10
31.819805
 20
0.0
 30
0.0
 40
1.100000000000657
  0
CIRCLE
  5
86
  8
0
  6
CONTINUOUS
 62
     7
 10
0.0
 20
31.819805
 30
0.0
 40
1.10000000000079
  0
CIRCLE
  5
87
  8
0
  6
CONTINUOUS
 62
     7
 10
-31.819805
 20
0.0
 30
0.0
 40
1.099999999999993
  0
CIRCLE
  5
88
  8
0
  6
CONTINUOUS
 62
     7
 10
0.0
 20
0.0
 30
0.0
 40
34.0
  0
ENDSEC
  0
EOF
