%
M48
M72
T01C0.0160
T02C0.0200
T03C0.0866
T04C0.1260
%
T01
X9516Y6705
X9821Y6883
X9888Y7227
X10113Y7544
X10308Y7861
X10492Y8179
X10686Y7858
X10871Y8175
X11246Y8155
X11062Y7838
X10877Y7521
X10683Y7203
X10492Y7540
X10689Y8519
X10873Y8836
X11067Y8515
X11251Y8832
X11443Y8495
X7711Y15324
X7342Y15343
X6972Y15372
X6603Y15402
X6454Y15754
X6823Y15725
X7193Y15695
X7043Y16050
X6674Y16079
X6304Y16108
X5873Y16136
X5533Y16026
X5213Y16206
X6233Y15431
X7413Y16020
X7782Y16001
X7932Y15646
X7562Y15666
X11848Y22072
X12208Y22058
X12045Y22395
X12410Y22387
X12246Y22724
X11886Y22728
X11722Y23064
X12082Y23050
X11919Y23387
X11558Y23391
X11188Y23407
X11352Y23080
X11511Y22737
X11684Y22399
X11755Y23714
X11586Y24094
X11325Y24329
X11329Y24682
X19798Y21831
X19988Y21502
X20360Y21482
X20559Y21817
X20187Y21837
X20377Y22161
X20567Y22475
X20756Y22789
X21128Y22769
X20938Y22455
X20748Y22141
X20186Y22490
X20376Y22804
X20566Y23118
X21334Y23086
X21407Y23429
X21716Y23602
X19997Y22166
X23458Y14876
X23828Y14870
X24198Y14864
X24568Y14857
X24734Y14517
X24364Y14523
X23994Y14530
X24170Y14192
X24540Y14185
X24910Y14179
X25335Y14178
X25671Y14281
X25972Y14095
X24938Y14851
X23800Y14198
X23430Y14205
X23255Y14543
X23624Y14536
X19369Y8276
X19015Y8276
X19183Y7947
X18803Y7953
X18970Y7624
X19138Y7294
X19306Y6964
X19474Y6625
X19687Y6947
X20041Y6947
X19873Y7287
X19519Y7287
X19351Y7617
X19705Y7617
X19537Y7947
X19633Y6262
X19890Y6023
X19879Y5669
T02
X4239Y10233
X4142Y10617
X3601Y10467
X3698Y10093
X3514Y10852
X3417Y11236
X3330Y11621
X3850Y11779
X3938Y11395
X4045Y11001
T03
X11686Y15179
X13675Y18579
X17612Y18596
X19558Y15167
X17603Y11760
X13668Y11754
T04
X7589Y5583
X9370Y4324
X11349Y3410
X15629Y2649
X19936Y3394
X21890Y4324
X23680Y5575
X26479Y8909
X27971Y12996
X28150Y15150
X27976Y17360
X26479Y21439
X23664Y24764
X21889Y26029
X19928Y26941
X15639Y27699
X11333Y26955
X9369Y26029
X7579Y24779
X4779Y21439
X3292Y17350
X3091Y15170
X3290Y12981
X4779Y8909
M30
