G75*
G70*
%OFA0B0*%
%FSLAX24Y24*%
%IPPOS*%
%LPD*%
%AMOC8*
5,1,8,0,0,1.08239X$1,22.5*
%
%ADD10C,0.0926*%
%ADD11C,0.1320*%
%ADD12R,0.2060X0.1060*%
%ADD13C,0.0420*%
%ADD14C,0.0380*%
D10*
X013668Y011754D03*
X011686Y015179D03*
X013675Y018579D03*
X017612Y018596D03*
X019558Y015167D03*
X017603Y011760D03*
D11*
X007589Y005583D03*
X009370Y004324D03*
X011349Y003410D03*
X015629Y002649D03*
X019936Y003394D03*
X021890Y004324D03*
X023680Y005575D03*
X026479Y008909D03*
X027971Y012996D03*
X028150Y015150D03*
X027976Y017360D03*
X026479Y021439D03*
X023664Y024764D03*
X021889Y026029D03*
X019928Y026941D03*
X015639Y027699D03*
X011333Y026955D03*
X009369Y026029D03*
X007579Y024779D03*
X004779Y021439D03*
X003292Y017350D03*
X003091Y015170D03*
X003290Y012981D03*
X004779Y008909D03*
D12*
G36*
X004021Y012080D02*
X004519Y010082D01*
X003491Y009826D01*
X002993Y011824D01*
X004021Y012080D01*
G37*
G36*
X004225Y014876D02*
X006272Y015091D01*
X006383Y014038D01*
X004336Y013823D01*
X004225Y014876D01*
G37*
G36*
X004345Y016536D02*
X006392Y016321D01*
X006281Y015268D01*
X004234Y015483D01*
X004345Y016536D01*
G37*
G36*
X003079Y018636D02*
X003784Y020571D01*
X004779Y020208D01*
X004074Y018273D01*
X003079Y018636D01*
G37*
G36*
X009666Y024890D02*
X010890Y023235D01*
X010038Y022604D01*
X008814Y024259D01*
X009666Y024890D01*
G37*
G36*
X011194Y025634D02*
X012032Y023753D01*
X011064Y023322D01*
X010226Y025203D01*
X011194Y025634D01*
G37*
G36*
X021041Y025209D02*
X020220Y023321D01*
X019249Y023743D01*
X020070Y025631D01*
X021041Y025209D01*
G37*
G36*
X022478Y024266D02*
X021268Y022601D01*
X020410Y023224D01*
X021620Y024889D01*
X022478Y024266D01*
G37*
G36*
X027043Y015483D02*
X024997Y015257D01*
X024881Y016309D01*
X026927Y016535D01*
X027043Y015483D01*
G37*
G36*
X026915Y013769D02*
X024869Y013995D01*
X024985Y015047D01*
X027031Y014821D01*
X026915Y013769D01*
G37*
G36*
X021596Y005468D02*
X020378Y007127D01*
X021232Y007754D01*
X022450Y006095D01*
X021596Y005468D01*
G37*
G36*
X020050Y004717D02*
X019222Y006603D01*
X020192Y007029D01*
X021020Y005143D01*
X020050Y004717D01*
G37*
G36*
X010007Y005523D02*
X010835Y007409D01*
X011805Y006983D01*
X010977Y005097D01*
X010007Y005523D01*
G37*
G36*
X008718Y006414D02*
X009936Y008073D01*
X010790Y007446D01*
X009572Y005787D01*
X008718Y006414D01*
G37*
G36*
X013342Y015003D02*
X014371Y013219D01*
X013454Y012689D01*
X012425Y014473D01*
X013342Y015003D01*
G37*
D13*
X004239Y010233D03*
X004142Y010617D03*
X003601Y010467D03*
X003698Y010093D03*
X003514Y010852D03*
X003417Y011236D03*
X003330Y011621D03*
X003850Y011779D03*
X003938Y011395D03*
X004045Y011001D03*
D14*
X006233Y015431D03*
X006454Y015754D03*
X006823Y015725D03*
X007193Y015695D03*
X007342Y015343D03*
X007711Y015324D03*
X007562Y015666D03*
X007932Y015646D03*
X007782Y016001D03*
X007413Y016020D03*
X007043Y016050D03*
X006674Y016079D03*
X006304Y016108D03*
X005873Y016136D03*
X005533Y016026D03*
X005213Y016206D03*
X006603Y015402D03*
X006972Y015372D03*
X010873Y008836D03*
X010689Y008519D03*
X011067Y008515D03*
X011251Y008832D03*
X011443Y008495D03*
X011246Y008155D03*
X011062Y007838D03*
X010877Y007521D03*
X010683Y007203D03*
X010492Y007540D03*
X010308Y007861D03*
X010492Y008179D03*
X010686Y007858D03*
X010871Y008175D03*
X010113Y007544D03*
X009888Y007227D03*
X009821Y006883D03*
X009516Y006705D03*
X018803Y007953D03*
X019183Y007947D03*
X019015Y008276D03*
X019369Y008276D03*
X019537Y007947D03*
X019705Y007617D03*
X019351Y007617D03*
X019519Y007287D03*
X019873Y007287D03*
X020041Y006947D03*
X019687Y006947D03*
X019306Y006964D03*
X019138Y007294D03*
X018970Y007624D03*
X019474Y006625D03*
X019633Y006262D03*
X019890Y006023D03*
X019879Y005669D03*
X023430Y014205D03*
X023800Y014198D03*
X024170Y014192D03*
X024540Y014185D03*
X024364Y014523D03*
X023994Y014530D03*
X023828Y014870D03*
X024198Y014864D03*
X024568Y014857D03*
X024734Y014517D03*
X024910Y014179D03*
X025335Y014178D03*
X025671Y014281D03*
X025972Y014095D03*
X024938Y014851D03*
X023624Y014536D03*
X023255Y014543D03*
X023458Y014876D03*
X020360Y021482D03*
X019988Y021502D03*
X019798Y021831D03*
X019997Y022166D03*
X020186Y022490D03*
X020376Y022804D03*
X020566Y023118D03*
X020756Y022789D03*
X020567Y022475D03*
X020377Y022161D03*
X020187Y021837D03*
X020559Y021817D03*
X020748Y022141D03*
X020938Y022455D03*
X021128Y022769D03*
X021334Y023086D03*
X021407Y023429D03*
X021716Y023602D03*
X012410Y022387D03*
X012045Y022395D03*
X011886Y022728D03*
X012246Y022724D03*
X012082Y023050D03*
X011722Y023064D03*
X011558Y023391D03*
X011919Y023387D03*
X011755Y023714D03*
X011586Y024094D03*
X011325Y024329D03*
X011329Y024682D03*
X011188Y023407D03*
X011352Y023080D03*
X011511Y022737D03*
X011684Y022399D03*
X011848Y022072D03*
X012208Y022058D03*
M02*
