%
M48
M72
T01C0.0160
T02C0.0866
T03C0.1260
%
T01
X17222Y15419
X17562Y15419
X17902Y15419
X18282Y15439
X18632Y15439
X21612Y20179
X21432Y20479
X21262Y20789
X21092Y21079
X20932Y21379
X27282Y19889
X27452Y20199
X27622Y20509
X27782Y20799
X27952Y21109
X29842Y14909
X30192Y14909
X30542Y14909
X30882Y14909
X31222Y14909
X26802Y10149
X26972Y9839
X27152Y9539
X27312Y9249
X27492Y8959
X21182Y10449
X21012Y10139
X20842Y9829
X20672Y9539
X20492Y9239
T02
X15863Y15160
X20048Y22389
X28404Y22406
X32570Y15177
X28395Y7910
X20060Y7924
T03
X24222Y15160
M30
