G75*
G70*
%OFA0B0*%
%FSLAX24Y24*%
%IPPOS*%
%LPD*%
%AMOC8*
5,1,8,0,0,1.08239X$1,22.5*
%
%ADD10R,0.2000X0.1000*%
%ADD11C,0.0060*%
%ADD12C,0.0360*%
%ADD13C,0.0320*%
D10*
G36*
X016946Y014802D02*
X015947Y016534D01*
X016814Y017034D01*
X017813Y015302D01*
X016946Y014802D01*
G37*
D11*
X007711Y005932D02*
X006286Y005932D01*
X006340Y005874D02*
X007588Y005874D01*
X007599Y005878D02*
X007534Y005851D01*
X007525Y005843D01*
X007482Y005822D01*
X007482Y005822D01*
X007392Y005710D01*
X007347Y005665D01*
X007337Y005641D01*
X007292Y005584D01*
X007266Y005468D01*
X007246Y005421D01*
X007246Y005383D01*
X007225Y005288D01*
X007246Y005193D01*
X007246Y005157D01*
X007264Y005114D01*
X007285Y005023D01*
X006456Y005749D01*
X005507Y006776D01*
X004673Y007898D01*
X004422Y008326D01*
X004619Y008231D01*
X004923Y008231D01*
X005140Y008335D01*
X005145Y008337D01*
X005146Y008338D01*
X005197Y008362D01*
X005300Y008493D01*
X005331Y008524D01*
X005338Y008540D01*
X005386Y008600D01*
X005386Y008600D01*
X005414Y008723D01*
X005416Y008727D01*
X005892Y007999D01*
X006745Y006966D01*
X007190Y006534D01*
X007226Y006500D01*
X007421Y006310D01*
X007902Y006056D01*
X007902Y006056D01*
X008435Y005947D01*
X008435Y005947D01*
X008977Y005992D01*
X008977Y005992D01*
X009485Y006186D01*
X009919Y006516D01*
X010051Y006695D01*
X010052Y006695D01*
X010081Y006734D01*
X010110Y006774D01*
X010110Y006775D01*
X010223Y006929D01*
X010224Y006930D01*
X010253Y006969D01*
X010281Y007008D01*
X010281Y007010D01*
X010393Y007165D01*
X010394Y007166D01*
X010422Y007206D01*
X010450Y007245D01*
X010451Y007246D01*
X010561Y007403D01*
X010562Y007404D01*
X010589Y007444D01*
X010617Y007483D01*
X010617Y007485D01*
X010726Y007642D01*
X010727Y007643D01*
X010754Y007683D01*
X010781Y007723D01*
X010781Y007724D01*
X010888Y007883D01*
X010889Y007884D01*
X010916Y007924D01*
X010943Y007964D01*
X010943Y007966D01*
X011048Y008125D01*
X011049Y008126D01*
X011075Y008166D01*
X011102Y008207D01*
X011102Y008208D01*
X011205Y008369D01*
X011206Y008369D01*
X011232Y008410D01*
X011258Y008451D01*
X011258Y008452D01*
X011360Y008614D01*
X011361Y008614D01*
X011386Y008656D01*
X011412Y008697D01*
X011412Y008698D01*
X011512Y008860D01*
X011513Y008861D01*
X011538Y008902D01*
X011563Y008943D01*
X011564Y008945D01*
X011662Y009108D01*
X011663Y009109D01*
X011687Y009150D01*
X012613Y009150D01*
X012638Y009194D02*
X012544Y009031D01*
X012543Y009030D01*
X012520Y008988D01*
X012496Y008946D01*
X012495Y008944D01*
X012403Y008780D01*
X012402Y008779D01*
X012379Y008737D01*
X012355Y008695D01*
X012355Y008693D01*
X012264Y008528D01*
X012263Y008527D01*
X012240Y008485D01*
X012217Y008442D01*
X012217Y008441D01*
X012128Y008275D01*
X012127Y008274D01*
X012104Y008231D01*
X012081Y008188D01*
X012081Y008187D01*
X011993Y008020D01*
X011992Y008019D01*
X011970Y007976D01*
X011948Y007933D01*
X011948Y007932D01*
X011861Y007764D01*
X011860Y007763D01*
X011839Y007720D01*
X011817Y007676D01*
X011817Y007675D01*
X011732Y007506D01*
X011731Y007505D01*
X011710Y007462D01*
X011688Y007419D01*
X011688Y007417D01*
X011605Y007247D01*
X011604Y007247D01*
X011583Y007203D01*
X011562Y007159D01*
X011562Y007158D01*
X011480Y006987D01*
X011479Y006986D01*
X011458Y006942D01*
X011438Y006899D01*
X011438Y006897D01*
X011357Y006725D01*
X011336Y006680D01*
X011316Y006637D01*
X011316Y006635D01*
X011237Y006462D01*
X011236Y006462D01*
X011217Y006417D01*
X011197Y006373D01*
X011197Y006372D01*
X011120Y006199D01*
X011119Y006198D01*
X011100Y006153D01*
X011080Y006108D01*
X009281Y006108D01*
X009433Y006166D02*
X011106Y006166D01*
X011080Y006108D02*
X011080Y006108D01*
X010990Y005903D01*
X010921Y005363D01*
X011005Y004824D01*
X011238Y004331D01*
X011599Y003923D01*
X012061Y003633D01*
X012275Y003572D01*
X012323Y003559D01*
X012966Y003376D01*
X014284Y003155D01*
X015147Y003107D01*
X015138Y003096D01*
X015057Y003015D01*
X015040Y002972D01*
X015005Y002929D01*
X015005Y002929D01*
X014984Y002839D01*
X014956Y002771D01*
X014956Y002716D01*
X014937Y002633D01*
X014937Y002633D01*
X014956Y002549D01*
X014956Y002507D01*
X014977Y002456D01*
X015005Y002336D01*
X015051Y002278D01*
X015057Y002264D01*
X015084Y002237D01*
X015194Y002099D01*
X015336Y002030D01*
X015270Y002029D01*
X013876Y002140D01*
X012502Y002399D01*
X011164Y002803D01*
X010983Y002879D01*
X011079Y002879D01*
X011296Y002983D01*
X011305Y002987D01*
X011306Y002988D01*
X011353Y003011D01*
X011448Y003130D01*
X011491Y003174D01*
X011501Y003197D01*
X011542Y003248D01*
X011542Y003248D01*
X011567Y003355D01*
X011592Y003417D01*
X012822Y003417D01*
X012966Y003376D02*
X012966Y003376D01*
X013071Y003358D02*
X011568Y003358D01*
X011554Y003300D02*
X013420Y003300D01*
X013768Y003241D02*
X011537Y003241D01*
X011495Y003183D02*
X014117Y003183D01*
X014284Y003155D02*
X014284Y003155D01*
X014833Y003124D02*
X011443Y003124D01*
X011397Y003066D02*
X015108Y003066D01*
X015054Y003007D02*
X011345Y003007D01*
X011353Y003011D02*
X011353Y003011D01*
X011224Y002949D02*
X015021Y002949D01*
X014996Y002890D02*
X011103Y002890D01*
X011095Y002832D02*
X014981Y002832D01*
X014957Y002773D02*
X011261Y002773D01*
X011455Y002715D02*
X014956Y002715D01*
X014943Y002656D02*
X011649Y002656D01*
X011843Y002598D02*
X014945Y002598D01*
X014956Y002539D02*
X012037Y002539D01*
X012231Y002481D02*
X014967Y002481D01*
X014985Y002422D02*
X012425Y002422D01*
X012690Y002364D02*
X014999Y002364D01*
X015005Y002336D02*
X015005Y002336D01*
X015029Y002305D02*
X013000Y002305D01*
X013310Y002247D02*
X015074Y002247D01*
X015123Y002188D02*
X013620Y002188D01*
X014004Y002130D02*
X015169Y002130D01*
X015194Y002099D02*
X015194Y002099D01*
X015251Y002071D02*
X014735Y002071D01*
X015937Y002046D02*
X016046Y002099D01*
X016161Y002243D01*
X016181Y002264D01*
X016186Y002275D01*
X016235Y002336D01*
X016235Y002336D01*
X016264Y002463D01*
X016282Y002507D01*
X016282Y002543D01*
X016303Y002633D01*
X016282Y002722D01*
X016282Y002771D01*
X016257Y002832D01*
X016235Y002929D01*
X016198Y002976D01*
X016181Y003015D01*
X016107Y003090D01*
X016093Y003107D01*
X016954Y003155D01*
X016954Y003155D01*
X018273Y003376D01*
X018916Y003558D01*
X018964Y003572D01*
X019178Y003633D01*
X019639Y003923D01*
X019639Y003923D01*
X020001Y004331D01*
X020233Y004823D01*
X020318Y005361D01*
X020318Y005361D01*
X020249Y005902D01*
X020159Y006107D01*
X020139Y006153D01*
X020120Y006197D01*
X020119Y006197D01*
X020043Y006371D01*
X020043Y006372D01*
X020023Y006416D01*
X020003Y006461D01*
X020002Y006461D01*
X019923Y006634D01*
X019923Y006635D01*
X019903Y006679D01*
X019883Y006724D01*
X019882Y006724D01*
X019802Y006896D01*
X019802Y006898D01*
X019781Y006941D01*
X019761Y006985D01*
X019760Y006986D01*
X019678Y007157D01*
X019678Y007158D01*
X019657Y007202D01*
X019636Y007246D01*
X019635Y007246D01*
X019552Y007416D01*
X019552Y007418D01*
X019530Y007461D01*
X019509Y007505D01*
X019508Y007505D01*
X019423Y007674D01*
X019423Y007676D01*
X019401Y007719D01*
X019379Y007762D01*
X019378Y007763D01*
X019292Y007931D01*
X019292Y007932D01*
X019270Y007975D01*
X019248Y008018D01*
X019247Y008019D01*
X019159Y008186D01*
X019159Y008188D01*
X019136Y008230D01*
X019113Y008273D01*
X019112Y008274D01*
X019023Y008440D01*
X019023Y008441D01*
X019000Y008484D01*
X018977Y008527D01*
X018976Y008527D01*
X018885Y008693D01*
X018885Y008694D01*
X018861Y008736D01*
X018838Y008779D01*
X018837Y008780D01*
X018745Y008944D01*
X018745Y008945D01*
X018720Y008987D01*
X018697Y009029D01*
X018696Y009030D01*
X018602Y009194D01*
X018602Y009195D01*
X018577Y009237D01*
X018553Y009279D01*
X018552Y009280D01*
X018457Y009442D01*
X018456Y009443D01*
X018432Y009485D01*
X018407Y009527D01*
X018406Y009527D01*
X018309Y009689D01*
X018309Y009690D01*
X018284Y009732D01*
X018259Y009773D01*
X018258Y009774D01*
X018159Y009935D01*
X018159Y009936D01*
X018133Y009977D01*
X018108Y010018D01*
X018107Y010019D01*
X018007Y010179D01*
X017981Y010221D01*
X017955Y010262D01*
X017954Y010263D01*
X017887Y010370D01*
X017645Y010626D01*
X017360Y010831D01*
X017360Y010831D01*
X017245Y010883D01*
X017245Y010883D01*
X017200Y010904D01*
X017092Y010963D01*
X016903Y011119D01*
X016763Y011320D01*
X016679Y011550D01*
X016660Y011672D01*
X016656Y011721D01*
X016646Y011847D01*
X016550Y012185D01*
X016391Y012498D01*
X016314Y012598D01*
X016289Y012630D01*
X016284Y012637D01*
X016253Y012676D01*
X016189Y012759D01*
X016189Y012759D01*
X016189Y012759D01*
X015924Y012920D01*
X015620Y012976D01*
X015316Y012920D01*
X015316Y012920D01*
X015051Y012759D01*
X014987Y012676D01*
X014987Y012676D01*
X014967Y012650D01*
X014956Y012637D01*
X014926Y012598D01*
X014926Y012598D01*
X014849Y012498D01*
X014690Y012185D01*
X014594Y011847D01*
X014580Y011672D01*
X014561Y011550D01*
X014477Y011320D01*
X014337Y011119D01*
X014148Y010963D01*
X014040Y010904D01*
X013995Y010883D01*
X013881Y010831D01*
X013881Y010831D01*
X013595Y010626D01*
X013354Y010370D01*
X013286Y010263D01*
X013286Y010262D01*
X013259Y010220D01*
X013233Y010179D01*
X013133Y010019D01*
X013132Y010019D01*
X013107Y009977D01*
X013081Y009936D01*
X013081Y009935D01*
X012983Y009774D01*
X012982Y009774D01*
X012957Y009732D01*
X012931Y009691D01*
X012931Y009689D01*
X012834Y009528D01*
X012833Y009527D01*
X012809Y009485D01*
X012784Y009444D01*
X012784Y009442D01*
X011858Y009442D01*
X011859Y009443D01*
X011953Y009608D01*
X011954Y009609D01*
X011978Y009651D01*
X012002Y009693D01*
X012002Y009694D01*
X012095Y009860D01*
X012096Y009861D01*
X012119Y009904D01*
X012143Y009946D01*
X012143Y009947D01*
X012235Y010114D01*
X012236Y010115D01*
X012258Y010158D01*
X012282Y010200D01*
X012282Y010201D01*
X012372Y010369D01*
X012373Y010370D01*
X012395Y010413D01*
X012418Y010456D01*
X012418Y010457D01*
X012506Y010625D01*
X012506Y010626D01*
X012528Y010669D01*
X012551Y010713D01*
X012551Y010713D01*
X012647Y010900D01*
X012647Y010900D01*
X012747Y011409D01*
X012747Y011409D01*
X012728Y011618D01*
X012728Y011618D01*
X012724Y011664D01*
X012724Y011667D01*
X012724Y011667D01*
X012721Y011787D01*
X012761Y012023D01*
X012859Y012240D01*
X013010Y012426D01*
X014812Y012426D01*
X014783Y012367D02*
X013904Y012367D01*
X013803Y012416D02*
X013500Y012416D01*
X013226Y012284D01*
X013036Y012047D01*
X013036Y012047D01*
X013000Y011888D01*
X012995Y011876D01*
X012995Y011866D01*
X012969Y011750D01*
X012995Y011635D01*
X012995Y011612D01*
X013007Y011583D01*
X013036Y011454D01*
X013086Y011392D01*
X013096Y011368D01*
X013140Y011324D01*
X013226Y011217D01*
X013268Y011196D01*
X013283Y011182D01*
X013397Y011134D01*
X013500Y011085D01*
X013516Y011085D01*
X013526Y011081D01*
X013790Y011081D01*
X013800Y011085D01*
X013803Y011085D01*
X013825Y011095D01*
X014034Y011182D01*
X014061Y011209D01*
X014077Y011217D01*
X014111Y011259D01*
X014220Y011368D01*
X014244Y011426D01*
X014267Y011454D01*
X014267Y011454D01*
X014280Y011512D01*
X014321Y011612D01*
X014321Y011693D01*
X014334Y011750D01*
X014321Y011808D01*
X014321Y011876D01*
X014287Y011959D01*
X014267Y012047D01*
X014233Y012089D01*
X014220Y012119D01*
X014163Y012176D01*
X014077Y012284D01*
X014035Y012305D01*
X014034Y012306D01*
X014023Y012310D01*
X013803Y012416D01*
X014026Y012309D02*
X014753Y012309D01*
X014724Y012250D02*
X014104Y012250D01*
X014077Y012284D02*
X014077Y012284D01*
X014151Y012192D02*
X014694Y012192D01*
X014690Y012185D02*
X014690Y012185D01*
X014676Y012133D02*
X014206Y012133D01*
X014244Y012075D02*
X014659Y012075D01*
X014643Y012016D02*
X014274Y012016D01*
X014267Y012047D02*
X014267Y012047D01*
X014287Y011958D02*
X014626Y011958D01*
X014609Y011899D02*
X014311Y011899D01*
X014321Y011841D02*
X014594Y011841D01*
X014594Y011847D02*
X014594Y011847D01*
X014589Y011782D02*
X014327Y011782D01*
X014328Y011724D02*
X014584Y011724D01*
X014580Y011672D02*
X014580Y011672D01*
X014579Y011665D02*
X014321Y011665D01*
X014319Y011607D02*
X014570Y011607D01*
X014560Y011548D02*
X014295Y011548D01*
X014275Y011490D02*
X014539Y011490D01*
X014518Y011431D02*
X014248Y011431D01*
X014222Y011373D02*
X014497Y011373D01*
X014474Y011314D02*
X014166Y011314D01*
X014108Y011256D02*
X014432Y011256D01*
X014391Y011197D02*
X014049Y011197D01*
X014077Y011217D02*
X014077Y011217D01*
X014077Y011217D01*
X013931Y011139D02*
X014350Y011139D01*
X014290Y011080D02*
X012683Y011080D01*
X012671Y011022D02*
X014220Y011022D01*
X014149Y010963D02*
X012660Y010963D01*
X012648Y010905D02*
X014042Y010905D01*
X013915Y010846D02*
X012620Y010846D01*
X012589Y010788D02*
X013821Y010788D01*
X013739Y010729D02*
X012559Y010729D01*
X012529Y010671D02*
X013658Y010671D01*
X013595Y010626D02*
X013595Y010626D01*
X013582Y010612D02*
X012499Y010612D01*
X012468Y010554D02*
X013527Y010554D01*
X013472Y010495D02*
X012438Y010495D01*
X012408Y010437D02*
X013417Y010437D01*
X013362Y010378D02*
X012377Y010378D01*
X012345Y010320D02*
X013322Y010320D01*
X013354Y010370D02*
X013354Y010370D01*
X013285Y010261D02*
X012314Y010261D01*
X012283Y010203D02*
X013248Y010203D01*
X013233Y010179D02*
X013233Y010179D01*
X013212Y010144D02*
X012251Y010144D01*
X012219Y010086D02*
X013175Y010086D01*
X013138Y010027D02*
X012187Y010027D01*
X012155Y009969D02*
X013102Y009969D01*
X013066Y009910D02*
X012123Y009910D01*
X012090Y009852D02*
X013030Y009852D01*
X012994Y009793D02*
X012058Y009793D01*
X012025Y009735D02*
X012958Y009735D01*
X012923Y009676D02*
X011992Y009676D01*
X011959Y009618D02*
X012888Y009618D01*
X012853Y009559D02*
X011925Y009559D01*
X011892Y009501D02*
X012818Y009501D01*
X012784Y009442D02*
X012688Y009280D01*
X012687Y009279D01*
X012663Y009237D01*
X012638Y009195D01*
X012638Y009194D01*
X012646Y009208D02*
X011721Y009208D01*
X011712Y009193D02*
X011809Y009357D01*
X011810Y009358D01*
X011834Y009400D01*
X011858Y009442D01*
X011825Y009384D02*
X012749Y009384D01*
X012715Y009325D02*
X011790Y009325D01*
X011756Y009267D02*
X012680Y009267D01*
X012579Y009091D02*
X011652Y009091D01*
X011617Y009033D02*
X012546Y009033D01*
X012512Y008974D02*
X011581Y008974D01*
X011546Y008916D02*
X012479Y008916D01*
X012447Y008857D02*
X011510Y008857D01*
X011474Y008799D02*
X012414Y008799D01*
X012381Y008740D02*
X011438Y008740D01*
X011403Y008682D02*
X012349Y008682D01*
X012317Y008623D02*
X011366Y008623D01*
X011329Y008565D02*
X012284Y008565D01*
X012252Y008506D02*
X011292Y008506D01*
X011256Y008448D02*
X012220Y008448D01*
X012189Y008389D02*
X011219Y008389D01*
X011181Y008331D02*
X012158Y008331D01*
X012126Y008272D02*
X011143Y008272D01*
X011106Y008214D02*
X012095Y008214D01*
X012064Y008155D02*
X011068Y008155D01*
X011029Y008097D02*
X012034Y008097D01*
X012003Y008038D02*
X010991Y008038D01*
X010952Y007980D02*
X011972Y007980D01*
X011942Y007921D02*
X010914Y007921D01*
X010875Y007863D02*
X011912Y007863D01*
X011882Y007804D02*
X010835Y007804D01*
X010796Y007746D02*
X011852Y007746D01*
X011822Y007687D02*
X010757Y007687D01*
X010716Y007629D02*
X011793Y007629D01*
X011764Y007570D02*
X010676Y007570D01*
X010636Y007512D02*
X011735Y007512D01*
X011705Y007453D02*
X010596Y007453D01*
X010555Y007395D02*
X011677Y007395D01*
X011648Y007336D02*
X010514Y007336D01*
X010473Y007278D02*
X011620Y007278D01*
X011591Y007219D02*
X010432Y007219D01*
X010390Y007161D02*
X011562Y007161D01*
X011535Y007102D02*
X010348Y007102D01*
X010306Y007044D02*
X011507Y007044D01*
X011479Y006985D02*
X010264Y006985D01*
X010222Y006927D02*
X011451Y006927D01*
X011424Y006868D02*
X010179Y006868D01*
X010136Y006810D02*
X011397Y006810D01*
X011370Y006751D02*
X010093Y006751D01*
X010050Y006693D02*
X011342Y006693D01*
X011357Y006725D02*
X011357Y006725D01*
X011316Y006634D02*
X010007Y006634D01*
X009963Y006576D02*
X011289Y006576D01*
X011262Y006517D02*
X009920Y006517D01*
X009919Y006516D02*
X009919Y006516D01*
X009844Y006459D02*
X011235Y006459D01*
X011209Y006400D02*
X009767Y006400D01*
X009690Y006342D02*
X011183Y006342D01*
X011157Y006283D02*
X009613Y006283D01*
X009536Y006225D02*
X011132Y006225D01*
X011054Y006049D02*
X009128Y006049D01*
X008967Y005991D02*
X011029Y005991D01*
X011003Y005932D02*
X008104Y005932D01*
X008059Y005954D02*
X008191Y005891D01*
X008285Y005851D01*
X008297Y005839D01*
X008333Y005822D01*
X008333Y005822D01*
X008406Y005730D01*
X008471Y005665D01*
X008486Y005630D01*
X008522Y005584D01*
X008522Y005584D01*
X008544Y005490D01*
X008572Y005421D01*
X008572Y005365D01*
X008590Y005288D01*
X008590Y005288D01*
X008572Y005211D01*
X008572Y005157D01*
X008545Y005092D01*
X008522Y004992D01*
X008484Y004944D01*
X008471Y004914D01*
X008415Y004857D01*
X008333Y004754D01*
X008333Y004754D01*
X008333Y004754D01*
X008293Y004735D01*
X008285Y004727D01*
X008225Y004702D01*
X008059Y004623D01*
X007800Y004623D01*
X008652Y004024D01*
X008795Y003945D01*
X008793Y003949D01*
X008741Y004015D01*
X008741Y004015D01*
X008710Y004150D01*
X008697Y004182D01*
X008697Y004208D01*
X008674Y004311D01*
X008674Y004311D01*
X008697Y004414D01*
X008697Y004445D01*
X008713Y004484D01*
X008741Y004607D01*
X008741Y004607D01*
X008789Y004667D01*
X008798Y004689D01*
X008840Y004731D01*
X008931Y004845D01*
X008931Y004845D01*
X008975Y004866D01*
X008985Y004876D01*
X009059Y004906D01*
X009204Y004977D01*
X009228Y004977D01*
X009228Y004977D01*
X009492Y004977D01*
X009492Y004977D01*
X009508Y004977D01*
X009606Y004929D01*
X009736Y004876D01*
X009753Y004859D01*
X009782Y004845D01*
X009782Y004845D01*
X009842Y004770D01*
X009922Y004689D01*
X009940Y004647D01*
X009971Y004607D01*
X009990Y004526D01*
X010023Y004445D01*
X010023Y004380D01*
X010039Y004311D01*
X010039Y004311D01*
X010023Y004242D01*
X010023Y004182D01*
X009993Y004108D01*
X009971Y004015D01*
X009971Y004015D01*
X009935Y003969D01*
X009922Y003938D01*
X009863Y003878D01*
X009782Y003777D01*
X009782Y003777D01*
X009782Y003777D01*
X009742Y003758D01*
X009736Y003751D01*
X009685Y003730D01*
X009508Y003645D01*
X009336Y003645D01*
X009875Y003347D01*
X010416Y003119D01*
X010389Y003152D01*
X010367Y003174D01*
X010363Y003185D01*
X010312Y003248D01*
X010312Y003248D01*
X010282Y003379D01*
X010266Y003417D01*
X010267Y003417D02*
X009748Y003417D01*
X009643Y003475D02*
X010260Y003475D01*
X010266Y003449D02*
X010266Y003417D01*
X010266Y003449D02*
X010244Y003545D01*
X010244Y003545D01*
X010266Y003641D01*
X010266Y003681D01*
X010287Y003731D01*
X010312Y003841D01*
X010312Y003841D01*
X010355Y003894D01*
X010367Y003925D01*
X010425Y003983D01*
X010501Y004079D01*
X010501Y004079D01*
X010501Y004079D01*
X010539Y004097D01*
X010554Y004111D01*
X010669Y004159D01*
X010775Y004210D01*
X010792Y004210D01*
X010797Y004212D01*
X011061Y004212D01*
X011066Y004210D01*
X011079Y004210D01*
X011158Y004173D01*
X011305Y004111D01*
X011324Y004092D01*
X011353Y004079D01*
X011353Y004079D01*
X011411Y004005D01*
X011491Y003925D01*
X011509Y003883D01*
X011542Y003841D01*
X011542Y003841D01*
X011562Y003755D01*
X011592Y003681D01*
X011592Y003621D01*
X011610Y003545D01*
X011592Y003468D01*
X011592Y003417D01*
X011594Y003475D02*
X012616Y003475D01*
X012410Y003534D02*
X011607Y003534D01*
X011599Y003592D02*
X012204Y003592D01*
X012275Y003572D02*
X012275Y003572D01*
X012061Y003633D02*
X012061Y003633D01*
X012033Y003651D02*
X011592Y003651D01*
X011581Y003709D02*
X011940Y003709D01*
X011847Y003768D02*
X011559Y003768D01*
X011546Y003826D02*
X011753Y003826D01*
X011660Y003885D02*
X011508Y003885D01*
X011473Y003943D02*
X011582Y003943D01*
X011599Y003923D02*
X011599Y003923D01*
X011599Y003923D01*
X011530Y004002D02*
X011415Y004002D01*
X011367Y004060D02*
X011478Y004060D01*
X011426Y004119D02*
X011287Y004119D01*
X011374Y004177D02*
X011148Y004177D01*
X011271Y004294D02*
X010035Y004294D01*
X010029Y004353D02*
X011228Y004353D01*
X011238Y004331D02*
X011238Y004331D01*
X011200Y004411D02*
X010023Y004411D01*
X010013Y004470D02*
X011172Y004470D01*
X011145Y004528D02*
X009989Y004528D01*
X009976Y004587D02*
X011117Y004587D01*
X011090Y004645D02*
X009941Y004645D01*
X009908Y004704D02*
X011062Y004704D01*
X011035Y004762D02*
X009849Y004762D01*
X009801Y004821D02*
X011007Y004821D01*
X011005Y004824D02*
X011005Y004824D01*
X010997Y004879D02*
X009727Y004879D01*
X009588Y004938D02*
X010987Y004938D01*
X010978Y004996D02*
X008523Y004996D01*
X008537Y005055D02*
X010969Y005055D01*
X010960Y005113D02*
X008554Y005113D01*
X008572Y005172D02*
X010951Y005172D01*
X010941Y005230D02*
X008577Y005230D01*
X008590Y005289D02*
X010932Y005289D01*
X010923Y005347D02*
X008577Y005347D01*
X008572Y005406D02*
X010926Y005406D01*
X010921Y005363D02*
X010921Y005363D01*
X010934Y005464D02*
X008555Y005464D01*
X008536Y005523D02*
X010941Y005523D01*
X010949Y005581D02*
X008523Y005581D01*
X008482Y005640D02*
X010956Y005640D01*
X010964Y005698D02*
X008438Y005698D01*
X008385Y005757D02*
X010971Y005757D01*
X010979Y005815D02*
X008338Y005815D01*
X008231Y005874D02*
X010987Y005874D01*
X010990Y005903D02*
X010990Y005903D01*
X009485Y006186D02*
X009485Y006186D01*
X008222Y005991D02*
X006232Y005991D01*
X006178Y006049D02*
X007936Y006049D01*
X007805Y006108D02*
X006124Y006108D01*
X006070Y006166D02*
X007694Y006166D01*
X007583Y006225D02*
X006016Y006225D01*
X005962Y006283D02*
X007472Y006283D01*
X007421Y006310D02*
X007421Y006310D01*
X007389Y006342D02*
X005908Y006342D01*
X005854Y006400D02*
X007328Y006400D01*
X007268Y006459D02*
X005800Y006459D01*
X005746Y006517D02*
X007208Y006517D01*
X007190Y006534D02*
X007190Y006534D01*
X007147Y006576D02*
X005692Y006576D01*
X005638Y006634D02*
X007087Y006634D01*
X007027Y006693D02*
X005584Y006693D01*
X005530Y006751D02*
X006966Y006751D01*
X006906Y006810D02*
X005482Y006810D01*
X005439Y006868D02*
X006846Y006868D01*
X006785Y006927D02*
X005395Y006927D01*
X005352Y006985D02*
X006729Y006985D01*
X006681Y007044D02*
X005308Y007044D01*
X005265Y007102D02*
X006632Y007102D01*
X006584Y007161D02*
X005221Y007161D01*
X005178Y007219D02*
X006536Y007219D01*
X006487Y007278D02*
X005134Y007278D01*
X005091Y007336D02*
X006439Y007336D01*
X006391Y007395D02*
X005047Y007395D01*
X005004Y007453D02*
X006343Y007453D01*
X006294Y007512D02*
X004961Y007512D01*
X004917Y007570D02*
X006246Y007570D01*
X006198Y007629D02*
X004874Y007629D01*
X004830Y007687D02*
X006149Y007687D01*
X006101Y007746D02*
X004787Y007746D01*
X004743Y007804D02*
X006053Y007804D01*
X006005Y007863D02*
X004700Y007863D01*
X004660Y007921D02*
X005956Y007921D01*
X005908Y007980D02*
X004625Y007980D01*
X004591Y008038D02*
X005867Y008038D01*
X005828Y008097D02*
X004556Y008097D01*
X004522Y008155D02*
X005790Y008155D01*
X005752Y008214D02*
X004488Y008214D01*
X004453Y008272D02*
X004532Y008272D01*
X005010Y008272D02*
X005713Y008272D01*
X005675Y008331D02*
X005131Y008331D01*
X005197Y008362D02*
X005197Y008362D01*
X005197Y008362D01*
X005218Y008389D02*
X005637Y008389D01*
X005599Y008448D02*
X005265Y008448D01*
X005314Y008506D02*
X005560Y008506D01*
X005522Y008565D02*
X005358Y008565D01*
X005391Y008623D02*
X005484Y008623D01*
X005446Y008682D02*
X005405Y008682D01*
X004940Y009554D02*
X004923Y009562D01*
X004903Y009562D01*
X004901Y009562D01*
X004637Y009562D01*
X004636Y009562D01*
X004619Y009562D01*
X004513Y009511D01*
X004394Y009461D01*
X004378Y009446D01*
X004345Y009430D01*
X004278Y009345D01*
X004207Y009275D01*
X004192Y009238D01*
X004156Y009192D01*
X004134Y009099D01*
X004106Y009031D01*
X004106Y008976D01*
X004088Y008896D01*
X004090Y008889D01*
X003964Y009103D01*
X003386Y010376D01*
X002947Y011704D01*
X002660Y013031D01*
X002712Y012979D01*
X002789Y012883D01*
X002826Y012865D01*
X002834Y012857D01*
X002890Y012834D01*
X003063Y012751D01*
X003366Y012751D01*
X003640Y012883D01*
X003757Y013029D01*
X003771Y013044D01*
X003775Y013051D01*
X003830Y013120D01*
X003830Y013120D01*
X003862Y013262D01*
X003872Y013287D01*
X003872Y013308D01*
X003897Y013417D01*
X003872Y013525D01*
X003872Y013551D01*
X003859Y013584D01*
X003830Y013713D01*
X003780Y013775D01*
X003771Y013795D01*
X003735Y013832D01*
X003640Y013950D01*
X003594Y013973D01*
X003585Y013981D01*
X003516Y014010D01*
X003366Y014082D01*
X003342Y014082D01*
X003341Y014082D01*
X003077Y014082D01*
X003063Y014082D01*
X002975Y014040D01*
X002834Y013981D01*
X002815Y013963D01*
X002789Y013950D01*
X002734Y013882D01*
X002647Y013795D01*
X002628Y013749D01*
X002599Y013713D01*
X002599Y013713D01*
X002588Y013662D01*
X002502Y014461D01*
X002502Y014823D01*
X002519Y014784D01*
X002628Y014675D01*
X002667Y014626D01*
X002686Y014617D01*
X002705Y014598D01*
X002852Y014537D01*
X002941Y014494D01*
X003244Y014494D01*
X003518Y014626D01*
X003518Y014626D01*
X003518Y014626D01*
X003708Y014864D01*
X003775Y015160D01*
X003708Y015456D01*
X003518Y015694D01*
X003244Y015826D01*
X002941Y015826D01*
X002852Y015783D01*
X002705Y015722D01*
X002686Y015703D01*
X002667Y015694D01*
X002667Y015694D01*
X002667Y015694D01*
X002628Y015645D01*
X002519Y015536D01*
X002502Y015497D01*
X002502Y015859D01*
X002588Y016658D01*
X002599Y016607D01*
X002648Y016546D01*
X002657Y016524D01*
X002700Y016481D01*
X002789Y016370D01*
X002832Y016349D01*
X002844Y016337D01*
X002932Y016301D01*
X003063Y016238D01*
X003084Y016238D01*
X003087Y016236D01*
X003351Y016236D01*
X003355Y016238D01*
X003366Y016238D01*
X003436Y016271D01*
X003595Y016337D01*
X003616Y016358D01*
X003640Y016370D01*
X003690Y016432D01*
X003781Y016524D01*
X003801Y016572D01*
X003830Y016607D01*
X003846Y016680D01*
X003882Y016767D01*
X003882Y016839D01*
X003897Y016903D01*
X003882Y016968D01*
X003882Y017031D01*
X003850Y017109D01*
X003830Y017200D01*
X003794Y017244D01*
X003781Y017275D01*
X003723Y017334D01*
X003640Y017437D01*
X003600Y017457D01*
X003595Y017461D01*
X003558Y017477D01*
X003366Y017569D01*
X003063Y017569D01*
X002789Y017437D01*
X002667Y017285D01*
X002657Y017275D01*
X002656Y017272D01*
X002947Y018616D01*
X003386Y019944D01*
X003964Y021217D01*
X004090Y021431D01*
X004088Y021424D01*
X004088Y021424D01*
X004106Y021344D01*
X004106Y021297D01*
X004130Y021240D01*
X004156Y021128D01*
X004156Y021128D01*
X004199Y021073D01*
X004207Y021054D01*
X004243Y021018D01*
X004345Y020890D01*
X004345Y020890D01*
X004619Y020758D01*
X004923Y020758D01*
X004940Y020766D01*
X004556Y020007D01*
X004087Y018753D01*
X004087Y018753D01*
X003936Y018151D01*
X003924Y018103D01*
X003857Y017839D01*
X003878Y017295D01*
X004050Y016778D01*
X004361Y016331D01*
X004361Y016331D01*
X004784Y015988D01*
X005287Y015778D01*
X005508Y015753D01*
X005509Y015753D01*
X005558Y015747D01*
X005607Y015742D01*
X005798Y015722D01*
X005799Y015721D01*
X005847Y015716D01*
X005895Y015711D01*
X005896Y015712D01*
X006088Y015693D01*
X006089Y015692D01*
X006137Y015688D01*
X006185Y015683D01*
X006186Y015684D01*
X006377Y015667D01*
X006379Y015667D01*
X006427Y015663D01*
X006475Y015659D01*
X006476Y015659D01*
X006667Y015644D01*
X006668Y015644D01*
X006717Y015640D01*
X006765Y015637D01*
X006766Y015637D01*
X006957Y015624D01*
X006958Y015624D01*
X007006Y015621D01*
X007055Y015618D01*
X007056Y015618D01*
X007247Y015607D01*
X007248Y015607D01*
X007296Y015604D01*
X007345Y015602D01*
X007346Y015602D01*
X007537Y015593D01*
X007538Y015592D01*
X007586Y015591D01*
X007635Y015588D01*
X007636Y015589D01*
X007826Y015582D01*
X007828Y015581D01*
X007876Y015580D01*
X007924Y015578D01*
X007926Y015578D01*
X008116Y015573D01*
X008117Y015573D01*
X008166Y015572D01*
X008214Y015571D01*
X008215Y015571D01*
X008406Y015568D01*
X008407Y015567D01*
X008455Y015567D01*
X008504Y015566D01*
X008505Y015567D01*
X008696Y015565D01*
X008697Y015565D01*
X008745Y015565D01*
X008794Y015564D01*
X008795Y015565D01*
X008985Y015565D01*
X008986Y015565D01*
X009035Y015566D01*
X009083Y015566D01*
X009084Y015566D01*
X009275Y015569D01*
X009276Y015568D01*
X009325Y015569D01*
X009373Y015570D01*
X009374Y015570D01*
X009565Y015575D01*
X009566Y015574D01*
X009614Y015576D01*
X009663Y015577D01*
X009664Y015578D01*
X009854Y015584D01*
X009855Y015583D01*
X009904Y015585D01*
X009952Y015587D01*
X009953Y015588D01*
X010143Y015596D01*
X010144Y015595D01*
X010193Y015598D01*
X010242Y015600D01*
X010242Y015600D01*
X010451Y015610D01*
X010939Y015776D01*
X011109Y015895D01*
X011109Y015895D01*
X011150Y015924D01*
X011252Y015986D01*
X011475Y016068D01*
X011712Y016091D01*
X011946Y016053D01*
X012058Y016012D01*
X012071Y016007D01*
X012294Y015909D01*
X012804Y015840D01*
X013012Y015870D01*
X013015Y015870D01*
X013016Y015870D01*
X013016Y015870D01*
X013062Y015878D01*
X013063Y015878D01*
X013107Y015884D01*
X013107Y015884D01*
X013108Y015884D01*
X013108Y015884D01*
X013109Y015884D01*
X013109Y015885D01*
X013110Y015885D01*
X013213Y015900D01*
X013480Y016048D01*
X013480Y016048D01*
X013679Y016281D01*
X013782Y016569D01*
X013777Y016875D01*
X013739Y016971D01*
X013739Y016971D01*
X013721Y017017D01*
X013703Y017063D01*
X013703Y017064D01*
X013626Y017257D01*
X013626Y017257D01*
X013310Y017665D01*
X013310Y017665D01*
X013142Y017788D01*
X013142Y017788D01*
X013102Y017818D01*
X013010Y017894D01*
X012859Y018080D01*
X012761Y018297D01*
X012721Y018533D01*
X012724Y018652D01*
X012724Y018652D01*
X012747Y018911D01*
X012647Y019419D01*
X012551Y019606D01*
X012551Y019607D01*
X012529Y019650D01*
X012506Y019694D01*
X012506Y019694D01*
X012418Y019863D01*
X012418Y019864D01*
X012395Y019907D01*
X012373Y019950D01*
X012372Y019950D01*
X012282Y020118D01*
X012282Y020120D01*
X012259Y020162D01*
X012236Y020205D01*
X012235Y020206D01*
X012143Y020373D01*
X012143Y020374D01*
X012120Y020416D01*
X012096Y020459D01*
X012095Y020459D01*
X012002Y020625D01*
X012002Y020627D01*
X011978Y020669D01*
X011954Y020711D01*
X011953Y020712D01*
X011859Y020877D01*
X011859Y020878D01*
X011834Y020920D01*
X011810Y020962D01*
X011809Y020962D01*
X011713Y021126D01*
X011712Y021128D01*
X011688Y021169D01*
X011663Y021211D01*
X011662Y021212D01*
X011564Y021375D01*
X011564Y021376D01*
X011538Y021418D01*
X011513Y021459D01*
X011512Y021460D01*
X011413Y021622D01*
X011413Y021623D01*
X011387Y021664D01*
X011361Y021705D01*
X011360Y021706D01*
X011259Y021867D01*
X011259Y021869D01*
X011232Y021910D01*
X011207Y021950D01*
X011206Y021951D01*
X011103Y022112D01*
X011102Y022113D01*
X011076Y022153D01*
X011050Y022194D01*
X011049Y022195D01*
X010944Y022354D01*
X010943Y022356D01*
X010917Y022396D01*
X010890Y022436D01*
X010889Y022437D01*
X010782Y022595D01*
X010782Y022597D01*
X010755Y022637D01*
X010728Y022677D01*
X010727Y022678D01*
X010618Y022835D01*
X010618Y022836D01*
X010590Y022876D01*
X010563Y022916D01*
X010562Y022917D01*
X010452Y023074D01*
X010451Y023075D01*
X010423Y023114D01*
X010396Y023154D01*
X010394Y023154D01*
X010283Y023310D01*
X010282Y023312D01*
X010254Y023351D01*
X010226Y023390D01*
X010225Y023391D01*
X010111Y023545D01*
X010111Y023546D01*
X010082Y023585D01*
X010053Y023625D01*
X010053Y023625D01*
X009920Y023805D01*
X009487Y024134D01*
X009487Y024134D01*
X008979Y024329D01*
X008979Y024329D01*
X008437Y024374D01*
X007904Y024265D01*
X007904Y024265D01*
X007422Y024011D01*
X007227Y023821D01*
X007203Y023798D01*
X006746Y023355D01*
X005893Y022323D01*
X005418Y021596D01*
X005410Y021616D01*
X005386Y021720D01*
X005346Y021770D01*
X005331Y021805D01*
X005266Y021870D01*
X005197Y021958D01*
X005197Y021958D01*
X005163Y021974D01*
X005145Y021991D01*
X005010Y022047D01*
X004923Y022089D01*
X004909Y022089D01*
X004901Y022092D01*
X004637Y022092D01*
X004630Y022089D01*
X004619Y022089D01*
X004551Y022056D01*
X004428Y022006D01*
X004673Y022422D01*
X005507Y023544D01*
X006456Y024571D01*
X007285Y025297D01*
X007264Y025203D01*
X007246Y025161D01*
X007246Y025127D01*
X007225Y025032D01*
X007225Y025032D01*
X007246Y024937D01*
X007246Y024897D01*
X007266Y024850D01*
X007292Y024736D01*
X007336Y024680D01*
X007347Y024654D01*
X007397Y024604D01*
X007482Y024498D01*
X007523Y024478D01*
X007534Y024467D01*
X007617Y024433D01*
X007755Y024366D01*
X008059Y024366D01*
X008172Y024420D01*
X008285Y024467D01*
X008300Y024482D01*
X008333Y024498D01*
X008401Y024583D01*
X008471Y024654D01*
X008487Y024691D01*
X008522Y024736D01*
X008543Y024827D01*
X008572Y024897D01*
X008572Y024955D01*
X008590Y025032D01*
X008572Y025109D01*
X008572Y025161D01*
X008546Y025225D01*
X008522Y025328D01*
X008483Y025378D01*
X008471Y025405D01*
X008420Y025456D01*
X008333Y025566D01*
X008290Y025586D01*
X008285Y025591D01*
X008244Y025609D01*
X008059Y025697D01*
X007800Y025697D01*
X008652Y026296D01*
X008787Y026371D01*
X008781Y026355D01*
X008741Y026305D01*
X008718Y026203D01*
X008696Y026151D01*
X008696Y026109D01*
X008674Y026009D01*
X008696Y025909D01*
X008696Y025887D01*
X008707Y025861D01*
X008741Y025713D01*
X008741Y025713D01*
X008931Y025475D01*
X009204Y025343D01*
X009508Y025343D01*
X009782Y025475D01*
X009782Y025475D01*
X009782Y025475D01*
X009896Y025618D01*
X009921Y025644D01*
X009927Y025657D01*
X009971Y025713D01*
X009998Y025827D01*
X010022Y025887D01*
X010022Y025936D01*
X010039Y026009D01*
X010022Y026082D01*
X010022Y026151D01*
X009987Y026237D01*
X009971Y026305D01*
X009971Y026305D01*
X009945Y026339D01*
X009921Y026395D01*
X009815Y026501D01*
X009782Y026543D01*
X009782Y026543D01*
X009766Y026551D01*
X009735Y026581D01*
X009491Y026682D01*
X009350Y026682D01*
X009875Y026973D01*
X010412Y027200D01*
X010367Y027155D01*
X010355Y027126D01*
X010312Y027072D01*
X010312Y027072D01*
X010287Y026960D01*
X010266Y026911D01*
X010266Y026871D01*
X010244Y026775D01*
X010266Y026679D01*
X010266Y026647D01*
X010282Y026609D01*
X010312Y026479D01*
X010362Y026416D01*
X010367Y026404D01*
X010391Y026380D01*
X010501Y026241D01*
X010775Y026110D01*
X011079Y026110D01*
X011287Y026210D01*
X011305Y026217D01*
X011307Y026220D01*
X011353Y026241D01*
X011353Y026241D01*
X011353Y026241D01*
X011446Y026358D01*
X011491Y026404D01*
X011501Y026428D01*
X011542Y026479D01*
X011566Y026584D01*
X011592Y026647D01*
X011592Y026699D01*
X011610Y026775D01*
X011592Y026852D01*
X011592Y026911D01*
X011562Y026984D01*
X011542Y027072D01*
X011509Y027114D01*
X011491Y027155D01*
X011414Y027233D01*
X011353Y027309D01*
X011353Y027309D01*
X011323Y027323D01*
X011305Y027341D01*
X011166Y027399D01*
X011079Y027441D01*
X011065Y027441D01*
X011061Y027442D01*
X010987Y027442D01*
X011164Y027517D01*
X012502Y027921D01*
X013876Y028180D01*
X015270Y028291D01*
X015336Y028290D01*
X015277Y028261D01*
X015254Y028251D01*
X015251Y028248D01*
X015194Y028221D01*
X014390Y028221D01*
X015005Y027984D02*
X014970Y027829D01*
X014966Y027821D01*
X014966Y027815D01*
X014937Y027687D01*
X014966Y027560D01*
X014966Y027557D01*
X014968Y027554D01*
X015005Y027391D01*
X015147Y027213D01*
X014286Y027165D01*
X012967Y026944D01*
X012324Y026762D01*
X012276Y026748D01*
X012062Y026687D01*
X011601Y026397D01*
X011601Y026397D01*
X011239Y025989D01*
X011007Y025497D01*
X011007Y025497D01*
X010922Y024959D01*
X010922Y024959D01*
X010991Y024418D01*
X011081Y024213D01*
X011101Y024168D01*
X011120Y024123D01*
X011121Y024123D01*
X011197Y023949D01*
X011197Y023948D01*
X011217Y023904D01*
X011237Y023859D01*
X011238Y023859D01*
X011317Y023686D01*
X011317Y023685D01*
X011337Y023641D01*
X011357Y023596D01*
X011358Y023596D01*
X011438Y023424D01*
X010200Y023424D01*
X010157Y023482D02*
X011411Y023482D01*
X011438Y023424D02*
X011438Y023422D01*
X011459Y023379D01*
X011479Y023335D01*
X011480Y023334D01*
X011562Y023163D01*
X011562Y023162D01*
X011583Y023118D01*
X011604Y023074D01*
X011605Y023074D01*
X011688Y022904D01*
X011688Y022902D01*
X011710Y022859D01*
X011731Y022815D01*
X011732Y022815D01*
X011817Y022646D01*
X011817Y022644D01*
X011839Y022601D01*
X011861Y022558D01*
X011862Y022557D01*
X011948Y022389D01*
X011948Y022388D01*
X011970Y022345D01*
X011992Y022302D01*
X011993Y022301D01*
X012081Y022134D01*
X012081Y022132D01*
X012104Y022090D01*
X012127Y022047D01*
X012128Y022046D01*
X012217Y021880D01*
X012217Y021879D01*
X012240Y021836D01*
X012263Y021793D01*
X012264Y021793D01*
X012355Y021627D01*
X012355Y021626D01*
X012379Y021584D01*
X012402Y021541D01*
X012403Y021540D01*
X012495Y021376D01*
X012495Y021375D01*
X012520Y021333D01*
X012543Y021291D01*
X012544Y021290D01*
X012638Y021126D01*
X012638Y021125D01*
X012663Y021083D01*
X012687Y021041D01*
X012688Y021040D01*
X012783Y020878D01*
X012784Y020877D01*
X012808Y020835D01*
X012833Y020793D01*
X012834Y020793D01*
X012931Y020631D01*
X012931Y020630D01*
X012956Y020588D01*
X012981Y020547D01*
X012982Y020546D01*
X013081Y020385D01*
X013081Y020384D01*
X013107Y020343D01*
X013132Y020302D01*
X013133Y020301D01*
X013233Y020141D01*
X013259Y020100D01*
X013285Y020058D01*
X013286Y020057D01*
X013353Y019950D01*
X013595Y019694D01*
X013880Y019489D01*
X013995Y019437D01*
X013995Y019437D01*
X014040Y019416D01*
X014148Y019357D01*
X014337Y019201D01*
X014477Y019000D01*
X014561Y018770D01*
X014580Y018648D01*
X014584Y018599D01*
X014594Y018473D01*
X014690Y018135D01*
X014849Y017822D01*
X014926Y017722D01*
X014950Y017691D01*
X013275Y017691D01*
X013310Y017665D02*
X013310Y017665D01*
X013335Y017632D02*
X014996Y017632D01*
X014987Y017644D02*
X015051Y017561D01*
X015051Y017561D01*
X015051Y017561D01*
X015316Y017400D01*
X015620Y017344D01*
X015924Y017400D01*
X015924Y017400D01*
X016189Y017561D01*
X016253Y017644D01*
X016253Y017644D01*
X016272Y017668D01*
X016284Y017683D01*
X016314Y017722D01*
X016314Y017722D01*
X016391Y017822D01*
X016550Y018135D01*
X016550Y018135D01*
X016646Y018473D01*
X016646Y018473D01*
X016656Y018599D01*
X016660Y018648D01*
X016679Y018770D01*
X016763Y019000D01*
X016903Y019201D01*
X017092Y019357D01*
X017200Y019416D01*
X017245Y019437D01*
X017359Y019489D01*
X017645Y019694D01*
X017886Y019950D01*
X017886Y019950D01*
X017954Y020057D01*
X017954Y020058D01*
X017981Y020100D01*
X018007Y020141D01*
X018107Y020301D01*
X018108Y020301D01*
X018133Y020343D01*
X018159Y020384D01*
X018159Y020385D01*
X018257Y020546D01*
X018258Y020546D01*
X018283Y020588D01*
X018309Y020629D01*
X018309Y020631D01*
X018406Y020792D01*
X018407Y020793D01*
X018431Y020835D01*
X018456Y020876D01*
X018456Y020878D01*
X018552Y021040D01*
X018553Y021041D01*
X018577Y021083D01*
X018602Y021125D01*
X018602Y021126D01*
X018696Y021289D01*
X018697Y021290D01*
X018720Y021332D01*
X018744Y021374D01*
X018745Y021376D01*
X019682Y021376D01*
X019686Y021383D02*
X019588Y021221D01*
X019587Y021221D01*
X019562Y021179D01*
X019537Y021137D01*
X019537Y021136D01*
X019441Y020974D01*
X019440Y020973D01*
X019416Y020931D01*
X019391Y020890D01*
X019391Y020889D01*
X019296Y020726D01*
X019295Y020725D01*
X019271Y020683D01*
X019247Y020641D01*
X019247Y020639D01*
X019154Y020476D01*
X019153Y020475D01*
X019129Y020432D01*
X019105Y020390D01*
X019105Y020389D01*
X019013Y020224D01*
X019012Y020223D01*
X018989Y020181D01*
X018966Y020139D01*
X018966Y020137D01*
X018876Y019972D01*
X017900Y019972D01*
X017937Y020031D02*
X018908Y020031D01*
X018940Y020089D02*
X017974Y020089D01*
X018007Y020141D02*
X018007Y020141D01*
X018011Y020148D02*
X018971Y020148D01*
X019003Y020206D02*
X018048Y020206D01*
X018084Y020265D02*
X019036Y020265D01*
X019068Y020323D02*
X018121Y020323D01*
X018158Y020382D02*
X019101Y020382D01*
X019133Y020440D02*
X018193Y020440D01*
X018229Y020499D02*
X019167Y020499D01*
X019200Y020557D02*
X018265Y020557D01*
X018300Y020616D02*
X019233Y020616D01*
X019266Y020674D02*
X018335Y020674D01*
X018370Y020733D02*
X019300Y020733D01*
X019334Y020791D02*
X018405Y020791D01*
X018440Y020850D02*
X019368Y020850D01*
X019402Y020908D02*
X018475Y020908D01*
X018509Y020967D02*
X019436Y020967D01*
X019471Y021025D02*
X018543Y021025D01*
X018578Y021084D02*
X019506Y021084D01*
X019540Y021142D02*
X018611Y021142D01*
X018645Y021201D02*
X019576Y021201D01*
X019611Y021259D02*
X018678Y021259D01*
X018712Y021318D02*
X019647Y021318D01*
X019686Y021383D02*
X019686Y021384D01*
X019712Y021425D01*
X019737Y021466D01*
X019738Y021467D01*
X019837Y021628D01*
X019837Y021629D01*
X019863Y021670D01*
X019889Y021711D01*
X019890Y021712D01*
X019991Y021871D01*
X019991Y021872D01*
X020017Y021913D01*
X020043Y021954D01*
X020044Y021955D01*
X020147Y022113D01*
X020147Y022115D01*
X020174Y022155D01*
X020200Y022196D01*
X020201Y022197D01*
X020305Y022354D01*
X020305Y022356D01*
X020332Y022396D01*
X020359Y022436D01*
X020360Y022437D01*
X020466Y022594D01*
X020466Y022595D01*
X020494Y022635D01*
X020521Y022675D01*
X020522Y022676D01*
X020629Y022832D01*
X020629Y022833D01*
X020657Y022873D01*
X020684Y022913D01*
X020686Y022914D01*
X020794Y023069D01*
X020795Y023070D01*
X020823Y023109D01*
X020851Y023149D01*
X020852Y023150D01*
X020962Y023304D01*
X020963Y023305D01*
X020991Y023345D01*
X021019Y023384D01*
X021020Y023385D01*
X021132Y023538D01*
X021132Y023538D01*
X021161Y023578D01*
X021190Y023618D01*
X021191Y023618D01*
X021323Y023798D01*
X021323Y023798D01*
X021757Y024128D01*
X021757Y024128D01*
X022265Y024324D01*
X022265Y024324D01*
X022808Y024369D01*
X022808Y024369D01*
X023342Y024259D01*
X023342Y024259D01*
X023824Y024005D01*
X023824Y024005D01*
X023984Y023850D01*
X023984Y023850D01*
X024009Y023825D01*
X024019Y023815D01*
X024044Y023792D01*
X024499Y023350D01*
X025350Y022318D01*
X025821Y021597D01*
X025832Y021623D01*
X025854Y021720D01*
X025854Y021720D01*
X025892Y021767D01*
X025907Y021805D01*
X025979Y021877D01*
X026043Y021958D01*
X026043Y021958D01*
X026043Y021958D01*
X026075Y021973D01*
X026094Y021991D01*
X026238Y022051D01*
X026317Y022089D01*
X026330Y022089D01*
X026337Y022092D01*
X026601Y022092D01*
X026609Y022089D01*
X026621Y022089D01*
X026697Y022053D01*
X026824Y022000D01*
X026165Y022994D01*
X025272Y024070D01*
X024270Y025046D01*
X023956Y025293D01*
X023966Y025250D01*
X024002Y025161D01*
X024002Y025089D01*
X024015Y025032D01*
X024002Y024975D01*
X024002Y024897D01*
X023963Y024803D01*
X023948Y024736D01*
X023948Y024736D01*
X023922Y024703D01*
X023901Y024654D01*
X023808Y024561D01*
X023758Y024498D01*
X023758Y024498D01*
X023734Y024486D01*
X023715Y024467D01*
X023569Y024407D01*
X023485Y024366D01*
X023181Y024366D01*
X023014Y024446D01*
X022964Y024467D01*
X022957Y024474D01*
X022907Y024498D01*
X022907Y024498D01*
X022805Y024626D01*
X022777Y024654D01*
X022771Y024668D01*
X022718Y024736D01*
X022718Y024736D01*
X022686Y024874D01*
X022676Y024897D01*
X022676Y024916D01*
X022650Y025032D01*
X022650Y025032D01*
X022676Y025147D01*
X022676Y025161D01*
X022683Y025178D01*
X022718Y025328D01*
X022718Y025328D01*
X022775Y025401D01*
X022777Y025405D01*
X022785Y025413D01*
X022180Y025413D01*
X022301Y025471D02*
X022832Y025471D01*
X022785Y025413D02*
X022907Y025566D01*
X022907Y025566D01*
X022907Y025566D01*
X023181Y025697D01*
X023440Y025697D01*
X023170Y025909D01*
X022460Y026354D01*
X022499Y026305D01*
X022499Y026305D01*
X022524Y026196D01*
X022542Y026151D01*
X022542Y026115D01*
X022842Y026115D01*
X022935Y026056D02*
X022556Y026056D01*
X022566Y026009D02*
X022542Y026115D01*
X022533Y026173D02*
X022748Y026173D01*
X022655Y026232D02*
X022516Y026232D01*
X022502Y026290D02*
X022561Y026290D01*
X022468Y026349D02*
X022464Y026349D01*
X022566Y026009D02*
X022542Y025904D01*
X022542Y025887D01*
X022534Y025868D01*
X022499Y025713D01*
X022499Y025713D01*
X022309Y025475D01*
X022309Y025475D01*
X022309Y025475D01*
X022036Y025343D01*
X021732Y025343D01*
X021458Y025475D01*
X021458Y025475D01*
X021349Y025612D01*
X021317Y025644D01*
X021310Y025661D01*
X021269Y025713D01*
X021269Y025713D01*
X021244Y025821D01*
X021216Y025887D01*
X021216Y025942D01*
X021201Y026009D01*
X021201Y026009D01*
X021216Y026076D01*
X021216Y026151D01*
X021254Y026243D01*
X021269Y026305D01*
X021293Y026335D01*
X021317Y026395D01*
X021430Y026508D01*
X021458Y026543D01*
X021458Y026543D01*
X021472Y026550D01*
X021504Y026581D01*
X021747Y026682D01*
X021920Y026682D01*
X020837Y027209D01*
X020881Y027165D01*
X020912Y027092D01*
X020928Y027072D01*
X020928Y027072D01*
X020938Y027029D01*
X020982Y026921D01*
X020982Y026833D01*
X020996Y026775D01*
X020982Y026717D01*
X020982Y026657D01*
X020952Y026584D01*
X020928Y026479D01*
X020928Y026479D01*
X020887Y026428D01*
X020881Y026414D01*
X020854Y026386D01*
X020739Y026241D01*
X020739Y026241D01*
X020739Y026241D01*
X020465Y026110D01*
X020161Y026110D01*
X019887Y026241D01*
X019887Y026241D01*
X019698Y026479D01*
X019698Y026479D01*
X019658Y026654D01*
X019656Y026657D01*
X019656Y026661D01*
X019630Y026775D01*
X019630Y026775D01*
X019656Y026890D01*
X019656Y026921D01*
X019672Y026960D01*
X019698Y027072D01*
X019698Y027072D01*
X019741Y027126D01*
X019757Y027165D01*
X019831Y027239D01*
X019887Y027309D01*
X019887Y027309D01*
X019887Y027309D01*
X019915Y027322D01*
X019944Y027351D01*
X020187Y027452D01*
X020201Y027452D01*
X019412Y027737D01*
X018054Y028069D01*
X016668Y028254D01*
X015952Y028273D01*
X016005Y028251D01*
X016025Y028231D01*
X016046Y028221D01*
X016917Y028221D01*
X017353Y028162D02*
X016094Y028162D01*
X016087Y028169D02*
X016046Y028221D01*
X016046Y028221D01*
X016087Y028169D02*
X016191Y028065D01*
X016214Y028010D01*
X016235Y027984D01*
X016235Y027984D01*
X016247Y027930D01*
X016292Y027821D01*
X016292Y027733D01*
X016303Y027687D01*
X016292Y027642D01*
X016292Y027557D01*
X016249Y027453D01*
X016235Y027391D01*
X016235Y027391D01*
X016211Y027361D01*
X016191Y027314D01*
X016102Y027224D01*
X016093Y027213D01*
X016956Y027165D01*
X018274Y026944D01*
X018917Y026761D01*
X018965Y026748D01*
X018965Y026748D01*
X019179Y026687D01*
X019179Y026687D01*
X019641Y026397D01*
X019641Y026397D01*
X019641Y026397D01*
X020002Y025989D01*
X020002Y025989D01*
X020235Y025496D01*
X020235Y025496D01*
X020319Y024957D01*
X020319Y024957D01*
X020250Y024417D01*
X020250Y024417D01*
X020160Y024212D01*
X020160Y024212D01*
X020140Y024167D01*
X020121Y024122D01*
X020120Y024121D01*
X020043Y023948D01*
X020043Y023947D01*
X020023Y023903D01*
X020004Y023858D01*
X020003Y023858D01*
X019924Y023685D01*
X019924Y023683D01*
X019904Y023640D01*
X019883Y023595D01*
X019883Y023595D01*
X019802Y023423D01*
X019802Y023421D01*
X019782Y023378D01*
X019761Y023334D01*
X019760Y023333D01*
X019678Y023162D01*
X019678Y023161D01*
X019657Y023117D01*
X019636Y023073D01*
X020797Y023073D01*
X020756Y023014D02*
X019607Y023014D01*
X019578Y022956D02*
X020715Y022956D01*
X020674Y022897D02*
X019550Y022897D01*
X019552Y022901D02*
X019552Y022903D01*
X019635Y023073D01*
X019636Y023073D01*
X019664Y023131D02*
X020838Y023131D01*
X020880Y023190D02*
X019692Y023190D01*
X019720Y023248D02*
X020922Y023248D01*
X020964Y023307D02*
X019748Y023307D01*
X019776Y023365D02*
X021006Y023365D01*
X021049Y023424D02*
X019803Y023424D01*
X019830Y023482D02*
X021092Y023482D01*
X021134Y023541D02*
X019858Y023541D01*
X019885Y023599D02*
X021177Y023599D01*
X021220Y023658D02*
X019912Y023658D01*
X019938Y023716D02*
X021263Y023716D01*
X021307Y023775D02*
X019965Y023775D01*
X019992Y023833D02*
X021370Y023833D01*
X021447Y023892D02*
X020018Y023892D01*
X020044Y023950D02*
X021524Y023950D01*
X021600Y024009D02*
X020070Y024009D01*
X020096Y024067D02*
X021677Y024067D01*
X021754Y024126D02*
X020122Y024126D01*
X020148Y024184D02*
X021903Y024184D01*
X022055Y024243D02*
X020174Y024243D01*
X020199Y024301D02*
X022208Y024301D01*
X022704Y024360D02*
X020225Y024360D01*
X020250Y024418D02*
X023072Y024418D01*
X023136Y024301D02*
X025035Y024301D01*
X025095Y024243D02*
X023373Y024243D01*
X023484Y024184D02*
X025155Y024184D01*
X025215Y024126D02*
X023595Y024126D01*
X023705Y024067D02*
X025275Y024067D01*
X025323Y024009D02*
X023816Y024009D01*
X023880Y023950D02*
X025372Y023950D01*
X025420Y023892D02*
X023940Y023892D01*
X024000Y023833D02*
X025469Y023833D01*
X025517Y023775D02*
X024061Y023775D01*
X024121Y023716D02*
X025566Y023716D01*
X025614Y023658D02*
X024181Y023658D01*
X024242Y023599D02*
X025663Y023599D01*
X025711Y023541D02*
X024302Y023541D01*
X024362Y023482D02*
X025760Y023482D01*
X025808Y023424D02*
X024422Y023424D01*
X024483Y023365D02*
X025857Y023365D01*
X025905Y023307D02*
X024534Y023307D01*
X024582Y023248D02*
X025954Y023248D01*
X026002Y023190D02*
X024631Y023190D01*
X024679Y023131D02*
X026051Y023131D01*
X026099Y023073D02*
X024727Y023073D01*
X024775Y023014D02*
X026148Y023014D01*
X026190Y022956D02*
X024824Y022956D01*
X024872Y022897D02*
X026229Y022897D01*
X026267Y022839D02*
X024920Y022839D01*
X024968Y022780D02*
X026306Y022780D01*
X026345Y022722D02*
X025017Y022722D01*
X025065Y022663D02*
X026384Y022663D01*
X026423Y022605D02*
X025113Y022605D01*
X025161Y022546D02*
X026461Y022546D01*
X026500Y022488D02*
X025210Y022488D01*
X025258Y022429D02*
X026539Y022429D01*
X026578Y022371D02*
X025306Y022371D01*
X025353Y022312D02*
X026617Y022312D01*
X026655Y022254D02*
X025392Y022254D01*
X025430Y022195D02*
X026694Y022195D01*
X026733Y022137D02*
X025468Y022137D01*
X025506Y022078D02*
X026295Y022078D01*
X026163Y022020D02*
X025545Y022020D01*
X025583Y021961D02*
X026052Y021961D01*
X026000Y021903D02*
X025621Y021903D01*
X025659Y021844D02*
X025947Y021844D01*
X025899Y021786D02*
X025698Y021786D01*
X025736Y021727D02*
X025860Y021727D01*
X025842Y021669D02*
X025774Y021669D01*
X025812Y021610D02*
X025827Y021610D01*
X026644Y022078D02*
X026772Y022078D01*
X026776Y022020D02*
X026811Y022020D01*
X027151Y021419D02*
X027582Y020588D01*
X028091Y019286D01*
X028459Y017937D01*
X028559Y017317D01*
X028499Y017378D01*
X028451Y017437D01*
X028428Y017449D01*
X028405Y017471D01*
X028228Y017545D01*
X028177Y017569D01*
X028169Y017569D01*
X028161Y017572D01*
X027897Y017572D01*
X027889Y017569D01*
X027874Y017569D01*
X027776Y017522D01*
X027654Y017471D01*
X027638Y017456D01*
X027600Y017437D01*
X027522Y017340D01*
X027363Y017340D01*
X027362Y017296D02*
X027382Y017841D01*
X027328Y018057D01*
X027316Y018105D01*
X027152Y018753D01*
X026685Y020006D01*
X026300Y020766D01*
X026317Y020758D01*
X026621Y020758D01*
X026895Y020890D01*
X027002Y021024D01*
X027031Y021054D01*
X027038Y021070D01*
X027084Y021128D01*
X027112Y021247D01*
X027132Y021297D01*
X027132Y021339D01*
X027151Y021419D01*
X027141Y021376D02*
X027173Y021376D01*
X027203Y021318D02*
X027132Y021318D01*
X027117Y021259D02*
X027233Y021259D01*
X027264Y021201D02*
X027101Y021201D01*
X027088Y021142D02*
X027294Y021142D01*
X027325Y021084D02*
X027050Y021084D01*
X027084Y021128D02*
X027084Y021128D01*
X027003Y021025D02*
X027355Y021025D01*
X027385Y020967D02*
X026956Y020967D01*
X026910Y020908D02*
X027416Y020908D01*
X027446Y020850D02*
X026812Y020850D01*
X026895Y020890D02*
X026895Y020890D01*
X026895Y020890D01*
X026690Y020791D02*
X027477Y020791D01*
X027507Y020733D02*
X026317Y020733D01*
X026347Y020674D02*
X027537Y020674D01*
X027568Y020616D02*
X026376Y020616D01*
X026406Y020557D02*
X027594Y020557D01*
X027617Y020499D02*
X026435Y020499D01*
X026465Y020440D02*
X027640Y020440D01*
X027663Y020382D02*
X026494Y020382D01*
X026524Y020323D02*
X027686Y020323D01*
X027709Y020265D02*
X026554Y020265D01*
X026583Y020206D02*
X027731Y020206D01*
X027754Y020148D02*
X026613Y020148D01*
X026642Y020089D02*
X027777Y020089D01*
X027800Y020031D02*
X026672Y020031D01*
X026697Y019972D02*
X027823Y019972D01*
X027846Y019914D02*
X026719Y019914D01*
X026741Y019855D02*
X027869Y019855D01*
X027892Y019797D02*
X026763Y019797D01*
X026784Y019738D02*
X027914Y019738D01*
X027937Y019680D02*
X026806Y019680D01*
X026828Y019621D02*
X027960Y019621D01*
X027983Y019563D02*
X026850Y019563D01*
X026872Y019504D02*
X028006Y019504D01*
X028029Y019446D02*
X026894Y019446D01*
X026916Y019387D02*
X028052Y019387D01*
X028075Y019329D02*
X026937Y019329D01*
X026959Y019270D02*
X028096Y019270D01*
X028112Y019212D02*
X026981Y019212D01*
X027003Y019153D02*
X028128Y019153D01*
X028143Y019095D02*
X027025Y019095D01*
X027047Y019036D02*
X028159Y019036D01*
X028175Y018978D02*
X027068Y018978D01*
X027090Y018919D02*
X028191Y018919D01*
X028207Y018861D02*
X027112Y018861D01*
X027134Y018802D02*
X028223Y018802D01*
X028239Y018744D02*
X027155Y018744D01*
X027169Y018685D02*
X028255Y018685D01*
X028271Y018627D02*
X027184Y018627D01*
X027199Y018568D02*
X028287Y018568D01*
X028303Y018510D02*
X027214Y018510D01*
X027228Y018451D02*
X028319Y018451D01*
X028335Y018393D02*
X027243Y018393D01*
X027258Y018334D02*
X028351Y018334D01*
X028367Y018276D02*
X027273Y018276D01*
X027287Y018217D02*
X028383Y018217D01*
X028399Y018159D02*
X027302Y018159D01*
X027317Y018100D02*
X028415Y018100D01*
X028431Y018042D02*
X027332Y018042D01*
X027328Y018057D02*
X027328Y018057D01*
X027346Y017983D02*
X028447Y017983D01*
X028461Y017925D02*
X027361Y017925D01*
X027376Y017866D02*
X028471Y017866D01*
X028480Y017808D02*
X027381Y017808D01*
X027382Y017841D02*
X027382Y017841D01*
X027379Y017749D02*
X028489Y017749D01*
X028499Y017691D02*
X027376Y017691D01*
X027374Y017632D02*
X028508Y017632D01*
X028518Y017574D02*
X027372Y017574D01*
X027370Y017515D02*
X027760Y017515D01*
X027639Y017457D02*
X027368Y017457D01*
X027365Y017398D02*
X027569Y017398D01*
X027522Y017340D02*
X027467Y017285D01*
X027455Y017256D01*
X027410Y017200D01*
X027384Y017084D01*
X027366Y017041D01*
X027366Y017006D01*
X027343Y016903D01*
X027366Y016801D01*
X027366Y016777D01*
X027378Y016749D01*
X027410Y016607D01*
X027465Y016538D01*
X027467Y016534D01*
X027476Y016525D01*
X027600Y016370D01*
X027874Y016238D01*
X028177Y016238D01*
X028403Y016346D01*
X028405Y016347D01*
X028405Y016348D01*
X028451Y016370D01*
X028545Y016487D01*
X028591Y016534D01*
X028602Y016558D01*
X028641Y016607D01*
X028641Y016607D01*
X028660Y016692D01*
X028682Y016556D01*
X028739Y015486D01*
X028573Y015694D01*
X028299Y015826D01*
X027996Y015826D01*
X027722Y015694D01*
X027722Y015694D01*
X027722Y015694D01*
X027589Y015528D01*
X027578Y015516D01*
X027575Y015510D01*
X027532Y015456D01*
X027507Y015346D01*
X027477Y015272D01*
X027477Y015212D01*
X027465Y015160D01*
X027477Y015108D01*
X027477Y015008D01*
X027527Y014886D01*
X027532Y014864D01*
X027541Y014853D01*
X027578Y014765D01*
X027764Y014578D01*
X028008Y014477D01*
X028272Y014477D01*
X028515Y014578D01*
X028554Y014617D01*
X028573Y014626D01*
X028573Y014626D01*
X028573Y014626D01*
X028612Y014675D01*
X028702Y014765D01*
X028721Y014812D01*
X028739Y014834D01*
X028682Y013764D01*
X028663Y013647D01*
X028647Y013685D01*
X028641Y013713D01*
X028630Y013726D01*
X028601Y013795D01*
X028471Y013925D01*
X028451Y013950D01*
X028441Y013955D01*
X028415Y013981D01*
X028211Y014066D01*
X028177Y014082D01*
X028172Y014082D01*
X028171Y014082D01*
X027907Y014082D01*
X027874Y014082D01*
X027670Y013984D01*
X027664Y013981D01*
X027663Y013981D01*
X027600Y013950D01*
X027410Y013713D01*
X027343Y013417D01*
X027410Y013120D01*
X027600Y012883D01*
X027874Y012751D01*
X028177Y012751D01*
X028296Y012808D01*
X028415Y012857D01*
X028430Y012873D01*
X028451Y012883D01*
X028494Y012936D01*
X028559Y013001D01*
X028459Y012383D01*
X028091Y011034D01*
X027582Y009732D01*
X027151Y008901D01*
X027132Y008981D01*
X027132Y009031D01*
X027107Y009092D01*
X027084Y009192D01*
X027084Y009192D01*
X027046Y009241D01*
X027031Y009275D01*
X026967Y009339D01*
X026895Y009430D01*
X026895Y009430D01*
X026859Y009447D01*
X026845Y009461D01*
X026735Y009507D01*
X026621Y009562D01*
X026603Y009562D01*
X026601Y009562D01*
X026337Y009562D01*
X026336Y009562D01*
X026317Y009562D01*
X026300Y009554D01*
X026684Y010313D01*
X027152Y011565D01*
X027152Y011565D01*
X027315Y012214D01*
X027327Y012262D01*
X027382Y012478D01*
X027361Y013022D01*
X027189Y013539D01*
X026879Y013987D01*
X026455Y014330D01*
X026455Y014330D01*
X025952Y014540D01*
X025730Y014564D01*
X025730Y014565D01*
X025681Y014570D01*
X025632Y014575D01*
X025631Y014575D01*
X025443Y014596D01*
X025442Y014596D01*
X025394Y014601D01*
X025345Y014606D01*
X025344Y014606D01*
X025155Y014624D01*
X025154Y014625D01*
X025106Y014629D01*
X025058Y014634D01*
X025056Y014633D01*
X024868Y014650D01*
X024866Y014650D01*
X024818Y014654D01*
X024770Y014659D01*
X024769Y014658D01*
X024580Y014673D01*
X024579Y014674D01*
X024530Y014677D01*
X024482Y014681D01*
X024481Y014680D01*
X024292Y014693D01*
X024291Y014694D01*
X024243Y014697D01*
X024194Y014700D01*
X024193Y014700D01*
X024004Y014711D01*
X024003Y014712D01*
X023955Y014714D01*
X023906Y014717D01*
X023905Y014716D01*
X023717Y014726D01*
X023715Y014726D01*
X023667Y014728D01*
X023619Y014731D01*
X023617Y014730D01*
X023429Y014738D01*
X023428Y014739D01*
X023379Y014740D01*
X023331Y014742D01*
X023330Y014742D01*
X023141Y014747D01*
X023140Y014748D01*
X023092Y014749D01*
X023043Y014750D01*
X023042Y014750D01*
X022853Y014754D01*
X022852Y014755D01*
X022804Y014755D01*
X022755Y014756D01*
X022754Y014756D01*
X022566Y014758D01*
X022565Y014758D01*
X022516Y014759D01*
X022468Y014759D01*
X022466Y014759D01*
X022278Y014759D01*
X022277Y014760D01*
X022228Y014759D01*
X022180Y014759D01*
X022179Y014759D01*
X021990Y014758D01*
X021989Y014758D01*
X021940Y014757D01*
X021892Y014757D01*
X021891Y014756D01*
X021702Y014753D01*
X021701Y014754D01*
X021653Y014753D01*
X021604Y014752D01*
X021603Y014751D01*
X021415Y014746D01*
X021414Y014747D01*
X021365Y014745D01*
X021317Y014744D01*
X021316Y014743D01*
X021128Y014737D01*
X021127Y014737D01*
X021078Y014735D01*
X021029Y014733D01*
X021028Y014733D01*
X020902Y014728D01*
X020902Y014728D01*
X020560Y014647D01*
X020239Y014502D01*
X020136Y014429D01*
X020096Y014400D01*
X019991Y014336D01*
X019761Y014251D01*
X019517Y014229D01*
X019275Y014272D01*
X019161Y014317D01*
X019116Y014338D01*
X019002Y014392D01*
X018662Y014478D01*
X018311Y014497D01*
X018186Y014480D01*
X018143Y014474D01*
X018137Y014473D01*
X018088Y014466D01*
X017984Y014452D01*
X017984Y014452D01*
X017712Y014303D01*
X017512Y014068D01*
X017512Y014068D01*
X017408Y013776D01*
X017415Y013467D01*
X017455Y013370D01*
X017455Y013370D01*
X017466Y013341D01*
X017473Y013324D01*
X017492Y013278D01*
X017492Y013278D01*
X017540Y013161D01*
X017732Y012867D01*
X017977Y012615D01*
X018080Y012543D01*
X018121Y012515D01*
X018217Y012438D01*
X018374Y012251D01*
X018478Y012028D01*
X018519Y011787D01*
X018516Y011664D01*
X018511Y011615D01*
X018500Y011489D01*
X018534Y011139D01*
X018635Y010802D01*
X018694Y010690D01*
X018694Y010690D01*
X018717Y010646D01*
X018740Y010603D01*
X018740Y010602D01*
X018829Y010436D01*
X018829Y010435D01*
X018852Y010392D01*
X018875Y010350D01*
X018875Y010349D01*
X018965Y010183D01*
X018966Y010182D01*
X018989Y010140D01*
X019012Y010097D01*
X019013Y010096D01*
X019105Y009931D01*
X019105Y009930D01*
X019129Y009888D01*
X019152Y009846D01*
X019153Y009845D01*
X019246Y009681D01*
X019247Y009680D01*
X019271Y009638D01*
X019295Y009596D01*
X019296Y009595D01*
X019390Y009432D01*
X019391Y009431D01*
X019415Y009389D01*
X019440Y009347D01*
X019441Y009346D01*
X019537Y009184D01*
X019537Y009183D01*
X019562Y009141D01*
X019587Y009100D01*
X019588Y009099D01*
X019686Y008938D01*
X019686Y008937D01*
X019711Y008895D01*
X019736Y008854D01*
X019737Y008853D01*
X019837Y008693D01*
X019837Y008692D01*
X019863Y008651D01*
X019888Y008609D01*
X019889Y008609D01*
X019990Y008449D01*
X019990Y008448D01*
X019020Y008448D01*
X019051Y008389D02*
X020028Y008389D01*
X020017Y008407D02*
X020043Y008366D01*
X020044Y008365D01*
X020146Y008207D01*
X020146Y008206D01*
X020173Y008165D01*
X020199Y008124D01*
X020200Y008124D01*
X020304Y007966D01*
X020305Y007965D01*
X020332Y007924D01*
X020358Y007884D01*
X020359Y007883D01*
X020465Y007726D01*
X020465Y007725D01*
X020493Y007685D01*
X020520Y007645D01*
X020521Y007644D01*
X020628Y007488D01*
X020628Y007487D01*
X020656Y007447D01*
X020683Y007407D01*
X020684Y007407D01*
X020793Y007251D01*
X020794Y007250D01*
X020822Y007211D01*
X020850Y007171D01*
X020851Y007170D01*
X020961Y007016D01*
X020961Y007015D01*
X020990Y006975D01*
X021018Y006936D01*
X021019Y006935D01*
X021131Y006782D01*
X021131Y006782D01*
X021160Y006742D01*
X021189Y006702D01*
X021189Y006702D01*
X021322Y006522D01*
X021755Y006191D01*
X022264Y005996D01*
X022807Y005951D01*
X023341Y006060D01*
X023823Y006314D01*
X023983Y006469D01*
X024018Y006504D01*
X024498Y006969D01*
X025349Y008001D01*
X025823Y008726D01*
X025827Y008717D01*
X025854Y008600D01*
X025899Y008543D01*
X025907Y008524D01*
X025944Y008487D01*
X026043Y008362D01*
X026043Y008362D01*
X026092Y008339D01*
X026094Y008337D01*
X026108Y008331D01*
X026317Y008231D01*
X026621Y008231D01*
X026827Y008330D01*
X026832Y008332D01*
X026165Y007326D01*
X025272Y006250D01*
X024270Y005274D01*
X023956Y005027D01*
X023965Y005067D01*
X024002Y005157D01*
X024002Y005231D01*
X024015Y005288D01*
X024002Y005345D01*
X024002Y005421D01*
X023964Y005515D01*
X023948Y005584D01*
X023948Y005584D01*
X023921Y005618D01*
X023901Y005665D01*
X023813Y005753D01*
X023758Y005822D01*
X023732Y005835D01*
X023715Y005851D01*
X023588Y005904D01*
X023485Y005954D01*
X023181Y005954D01*
X022996Y005865D01*
X022964Y005851D01*
X022960Y005847D01*
X022907Y005822D01*
X022800Y005687D01*
X022777Y005665D01*
X022772Y005653D01*
X022718Y005584D01*
X022685Y005443D01*
X022676Y005421D01*
X022676Y005404D01*
X022650Y005288D01*
X022676Y005173D01*
X022676Y005157D01*
X022684Y005139D01*
X022718Y004992D01*
X022774Y004921D01*
X022777Y004914D01*
X022790Y004901D01*
X022907Y004754D01*
X023181Y004623D01*
X023440Y004623D01*
X023170Y004411D01*
X022460Y003966D01*
X022499Y004015D01*
X022530Y004150D01*
X022543Y004182D01*
X022543Y004208D01*
X022566Y004311D01*
X022566Y004311D01*
X022543Y004414D01*
X022543Y004445D01*
X022527Y004484D01*
X022499Y004607D01*
X022499Y004607D01*
X022451Y004667D01*
X022442Y004689D01*
X022400Y004731D01*
X022309Y004845D01*
X022265Y004866D01*
X022255Y004876D01*
X022181Y004906D01*
X022036Y004977D01*
X022012Y004977D01*
X021748Y004977D01*
X021748Y004977D01*
X021732Y004977D01*
X021634Y004929D01*
X021504Y004876D01*
X021487Y004859D01*
X021458Y004845D01*
X021458Y004845D01*
X021458Y004845D01*
X021398Y004770D01*
X021318Y004689D01*
X021300Y004647D01*
X021269Y004607D01*
X021250Y004526D01*
X021217Y004445D01*
X021217Y004380D01*
X021201Y004311D01*
X021201Y004311D01*
X021217Y004242D01*
X021217Y004182D01*
X021247Y004108D01*
X021269Y004015D01*
X021269Y004015D01*
X021305Y003969D01*
X021318Y003938D01*
X021377Y003878D01*
X021458Y003777D01*
X021498Y003758D01*
X021504Y003751D01*
X021555Y003730D01*
X021732Y003645D01*
X021936Y003645D01*
X020806Y003096D01*
X020817Y003109D01*
X020881Y003174D01*
X020896Y003208D01*
X020928Y003248D01*
X020928Y003248D01*
X020947Y003332D01*
X020982Y003417D01*
X021467Y003417D01*
X021587Y003475D02*
X020982Y003475D01*
X020982Y003487D02*
X020996Y003545D01*
X020982Y003603D01*
X020982Y003681D01*
X020942Y003778D01*
X020928Y003841D01*
X020904Y003872D01*
X020881Y003925D01*
X020780Y004026D01*
X020739Y004079D01*
X020739Y004079D01*
X020718Y004088D01*
X020695Y004111D01*
X020517Y004185D01*
X020465Y004210D01*
X020456Y004210D01*
X020451Y004212D01*
X020187Y004212D01*
X020182Y004210D01*
X020161Y004210D01*
X020029Y004147D01*
X019944Y004111D01*
X019933Y004100D01*
X019887Y004079D01*
X019887Y004079D01*
X019887Y004079D01*
X019794Y003962D01*
X019757Y003925D01*
X019749Y003905D01*
X019698Y003841D01*
X019698Y003841D01*
X019667Y003708D01*
X019656Y003681D01*
X019656Y003659D01*
X019630Y003545D01*
X019630Y003545D01*
X019656Y003430D01*
X019656Y003417D01*
X019657Y003417D02*
X018418Y003417D01*
X018273Y003376D02*
X018273Y003376D01*
X018170Y003358D02*
X019673Y003358D01*
X019663Y003402D02*
X019698Y003248D01*
X019757Y003174D01*
X019757Y003174D01*
X019758Y003173D01*
X019887Y003011D01*
X019887Y003011D01*
X020161Y002879D01*
X020233Y002879D01*
X019412Y002583D01*
X018054Y002251D01*
X016668Y002066D01*
X015937Y002046D01*
X015989Y002071D02*
X016710Y002071D01*
X016211Y002305D02*
X018275Y002305D01*
X018515Y002364D02*
X016241Y002364D01*
X016255Y002422D02*
X018754Y002422D01*
X018994Y002481D02*
X016271Y002481D01*
X016282Y002539D02*
X019233Y002539D01*
X019453Y002598D02*
X016295Y002598D01*
X016297Y002656D02*
X019615Y002656D01*
X019778Y002715D02*
X016284Y002715D01*
X016282Y002773D02*
X019940Y002773D01*
X020102Y002832D02*
X016257Y002832D01*
X016244Y002890D02*
X020137Y002890D01*
X020016Y002949D02*
X016219Y002949D01*
X016235Y002929D02*
X016235Y002929D01*
X016185Y003007D02*
X019895Y003007D01*
X019843Y003066D02*
X016131Y003066D01*
X016407Y003124D02*
X019797Y003124D01*
X019750Y003183D02*
X017122Y003183D01*
X017471Y003241D02*
X019703Y003241D01*
X019698Y003248D02*
X019698Y003248D01*
X019686Y003300D02*
X017821Y003300D01*
X018624Y003475D02*
X019646Y003475D01*
X019656Y003417D02*
X019663Y003402D01*
X019633Y003534D02*
X018830Y003534D01*
X018964Y003572D02*
X018964Y003572D01*
X019036Y003592D02*
X019641Y003592D01*
X019654Y003651D02*
X019207Y003651D01*
X019178Y003633D02*
X019178Y003633D01*
X019300Y003709D02*
X019668Y003709D01*
X019681Y003768D02*
X019393Y003768D01*
X019486Y003826D02*
X019694Y003826D01*
X019733Y003885D02*
X019579Y003885D01*
X019658Y003943D02*
X019776Y003943D01*
X019826Y004002D02*
X019709Y004002D01*
X019761Y004060D02*
X019873Y004060D01*
X019813Y004119D02*
X019962Y004119D01*
X019865Y004177D02*
X020092Y004177D01*
X019969Y004294D02*
X021205Y004294D01*
X021211Y004353D02*
X020011Y004353D01*
X020001Y004331D02*
X020001Y004331D01*
X020039Y004411D02*
X021217Y004411D01*
X021227Y004470D02*
X020067Y004470D01*
X020094Y004528D02*
X021251Y004528D01*
X021264Y004587D02*
X020122Y004587D01*
X020149Y004645D02*
X021299Y004645D01*
X021269Y004607D02*
X021269Y004607D01*
X021332Y004704D02*
X020177Y004704D01*
X020205Y004762D02*
X021391Y004762D01*
X021439Y004821D02*
X020232Y004821D01*
X020233Y004823D02*
X020233Y004823D01*
X020242Y004879D02*
X021513Y004879D01*
X021652Y004938D02*
X020251Y004938D01*
X020261Y004996D02*
X022717Y004996D01*
X022718Y004992D02*
X022718Y004992D01*
X022703Y005055D02*
X020270Y005055D01*
X020279Y005113D02*
X022690Y005113D01*
X022676Y005172D02*
X020288Y005172D01*
X020298Y005230D02*
X022663Y005230D01*
X022650Y005288D02*
X022650Y005288D01*
X022650Y005289D02*
X020307Y005289D01*
X020316Y005347D02*
X022663Y005347D01*
X022676Y005406D02*
X020313Y005406D01*
X020305Y005464D02*
X022690Y005464D01*
X022704Y005523D02*
X020298Y005523D01*
X020290Y005581D02*
X022717Y005581D01*
X022718Y005584D02*
X022718Y005584D01*
X022762Y005640D02*
X020282Y005640D01*
X020275Y005698D02*
X022808Y005698D01*
X022855Y005757D02*
X020267Y005757D01*
X020260Y005815D02*
X022902Y005815D01*
X022907Y005822D02*
X022907Y005822D01*
X022907Y005822D01*
X023015Y005874D02*
X020252Y005874D01*
X020249Y005902D02*
X020249Y005902D01*
X020236Y005932D02*
X023136Y005932D01*
X023004Y005991D02*
X025006Y005991D01*
X024946Y005932D02*
X023529Y005932D01*
X023661Y005874D02*
X024886Y005874D01*
X024826Y005815D02*
X023764Y005815D01*
X023758Y005822D02*
X023758Y005822D01*
X023810Y005757D02*
X024766Y005757D01*
X024706Y005698D02*
X023868Y005698D01*
X023912Y005640D02*
X024646Y005640D01*
X024586Y005581D02*
X023949Y005581D01*
X023962Y005523D02*
X024526Y005523D01*
X024466Y005464D02*
X023985Y005464D01*
X024002Y005406D02*
X024406Y005406D01*
X024346Y005347D02*
X024002Y005347D01*
X024015Y005289D02*
X024285Y005289D01*
X024215Y005230D02*
X024002Y005230D01*
X024002Y005172D02*
X024140Y005172D01*
X024066Y005113D02*
X023984Y005113D01*
X023991Y005055D02*
X023962Y005055D01*
X023395Y004587D02*
X022503Y004587D01*
X022517Y004528D02*
X023320Y004528D01*
X023246Y004470D02*
X022533Y004470D01*
X022544Y004411D02*
X023171Y004411D01*
X023078Y004353D02*
X022557Y004353D01*
X022563Y004294D02*
X022985Y004294D01*
X022891Y004236D02*
X022549Y004236D01*
X022541Y004177D02*
X022798Y004177D01*
X022704Y004119D02*
X022523Y004119D01*
X022509Y004060D02*
X022611Y004060D01*
X022517Y004002D02*
X022489Y004002D01*
X022468Y004645D02*
X023133Y004645D01*
X023012Y004704D02*
X022427Y004704D01*
X022375Y004762D02*
X022901Y004762D01*
X022907Y004754D02*
X022907Y004754D01*
X022854Y004821D02*
X022328Y004821D01*
X022309Y004845D02*
X022309Y004845D01*
X022246Y004879D02*
X022807Y004879D01*
X022761Y004938D02*
X022116Y004938D01*
X022012Y004977D02*
X022012Y004977D01*
X022264Y005996D02*
X022264Y005996D01*
X022322Y005991D02*
X020210Y005991D01*
X020184Y006049D02*
X022124Y006049D01*
X021972Y006108D02*
X020159Y006108D01*
X020159Y006107D02*
X020159Y006107D01*
X020133Y006166D02*
X021820Y006166D01*
X021755Y006191D02*
X021755Y006191D01*
X021711Y006225D02*
X020107Y006225D01*
X020081Y006283D02*
X021635Y006283D01*
X021558Y006342D02*
X020055Y006342D01*
X020030Y006400D02*
X021481Y006400D01*
X021405Y006459D02*
X020004Y006459D01*
X019977Y006517D02*
X021328Y006517D01*
X021322Y006522D02*
X021322Y006522D01*
X021322Y006522D01*
X021282Y006576D02*
X019950Y006576D01*
X019923Y006634D02*
X021239Y006634D01*
X021196Y006693D02*
X019897Y006693D01*
X019869Y006751D02*
X021153Y006751D01*
X021110Y006810D02*
X019842Y006810D01*
X019815Y006868D02*
X021068Y006868D01*
X021025Y006927D02*
X019788Y006927D01*
X019761Y006985D02*
X020983Y006985D01*
X020941Y007044D02*
X019732Y007044D01*
X019704Y007102D02*
X020899Y007102D01*
X020857Y007161D02*
X019677Y007161D01*
X019648Y007219D02*
X020815Y007219D01*
X020775Y007278D02*
X019620Y007278D01*
X019591Y007336D02*
X020734Y007336D01*
X020693Y007395D02*
X019562Y007395D01*
X019534Y007453D02*
X020652Y007453D01*
X020612Y007512D02*
X019505Y007512D01*
X019475Y007570D02*
X020571Y007570D01*
X020531Y007629D02*
X019446Y007629D01*
X019417Y007687D02*
X020491Y007687D01*
X020452Y007746D02*
X019388Y007746D01*
X019357Y007804D02*
X020412Y007804D01*
X020373Y007863D02*
X019327Y007863D01*
X019297Y007921D02*
X020334Y007921D01*
X020295Y007980D02*
X019267Y007980D01*
X019237Y008038D02*
X020256Y008038D01*
X020218Y008097D02*
X019206Y008097D01*
X019175Y008155D02*
X020179Y008155D01*
X020141Y008214D02*
X019145Y008214D01*
X019114Y008272D02*
X020104Y008272D01*
X020066Y008331D02*
X019082Y008331D01*
X018988Y008506D02*
X019954Y008506D01*
X019990Y008448D02*
X020017Y008407D01*
X019917Y008565D02*
X018955Y008565D01*
X018923Y008623D02*
X019880Y008623D01*
X019843Y008682D02*
X018891Y008682D01*
X018859Y008740D02*
X019807Y008740D01*
X019771Y008799D02*
X018826Y008799D01*
X018793Y008857D02*
X019734Y008857D01*
X019699Y008916D02*
X018760Y008916D01*
X018728Y008974D02*
X019663Y008974D01*
X019628Y009033D02*
X018694Y009033D01*
X018661Y009091D02*
X019592Y009091D01*
X019557Y009150D02*
X018627Y009150D01*
X018594Y009208D02*
X019522Y009208D01*
X019488Y009267D02*
X018560Y009267D01*
X018525Y009325D02*
X019453Y009325D01*
X019418Y009384D02*
X018491Y009384D01*
X018457Y009442D02*
X019384Y009442D01*
X019350Y009501D02*
X018422Y009501D01*
X018387Y009559D02*
X019316Y009559D01*
X019282Y009618D02*
X018352Y009618D01*
X018317Y009676D02*
X019248Y009676D01*
X019216Y009735D02*
X018282Y009735D01*
X018246Y009793D02*
X019182Y009793D01*
X019149Y009852D02*
X018210Y009852D01*
X018174Y009910D02*
X019116Y009910D01*
X019084Y009969D02*
X018138Y009969D01*
X018102Y010027D02*
X019051Y010027D01*
X019019Y010086D02*
X018065Y010086D01*
X018029Y010144D02*
X018986Y010144D01*
X018955Y010203D02*
X017992Y010203D01*
X018007Y010179D02*
X018007Y010179D01*
X017955Y010261D02*
X018923Y010261D01*
X018891Y010320D02*
X017918Y010320D01*
X017887Y010370D02*
X017887Y010370D01*
X017878Y010378D02*
X018859Y010378D01*
X018828Y010437D02*
X017823Y010437D01*
X017768Y010495D02*
X018797Y010495D01*
X018766Y010554D02*
X017713Y010554D01*
X017658Y010612D02*
X018735Y010612D01*
X018704Y010671D02*
X017582Y010671D01*
X017645Y010626D02*
X017645Y010626D01*
X017645Y010626D01*
X017501Y010729D02*
X018673Y010729D01*
X018643Y010788D02*
X017419Y010788D01*
X017325Y010846D02*
X018622Y010846D01*
X018635Y010802D02*
X018635Y010802D01*
X018604Y010905D02*
X017198Y010905D01*
X017091Y010963D02*
X018587Y010963D01*
X018569Y011022D02*
X017020Y011022D01*
X016950Y011080D02*
X018552Y011080D01*
X018534Y011139D02*
X017853Y011139D01*
X017873Y011149D02*
X017969Y011188D01*
X017981Y011201D01*
X018014Y011217D01*
X018082Y011301D01*
X018155Y011375D01*
X018171Y011414D01*
X018204Y011454D01*
X018204Y011454D01*
X018223Y011538D01*
X018256Y011619D01*
X018256Y011685D01*
X018271Y011750D01*
X018256Y011816D01*
X018256Y011882D01*
X018223Y011963D01*
X018204Y012047D01*
X018171Y012087D01*
X018155Y012126D01*
X018082Y012200D01*
X018014Y012284D01*
X017981Y012300D01*
X017969Y012313D01*
X017873Y012352D01*
X017740Y012416D01*
X017437Y012416D01*
X017247Y012325D01*
X017218Y012313D01*
X017214Y012309D01*
X016487Y012309D01*
X016457Y012367D02*
X017336Y012367D01*
X017214Y012309D02*
X017163Y012284D01*
X017059Y012154D01*
X017031Y012126D01*
X017025Y012111D01*
X016973Y012047D01*
X016973Y012047D01*
X016943Y011913D01*
X016930Y011882D01*
X016930Y011857D01*
X016906Y011750D01*
X016930Y011644D01*
X016930Y011619D01*
X016943Y011588D01*
X016973Y011454D01*
X017025Y011390D01*
X017031Y011375D01*
X017059Y011347D01*
X017163Y011217D01*
X017214Y011192D01*
X017218Y011188D01*
X017246Y011176D01*
X017437Y011085D01*
X017740Y011085D01*
X017873Y011149D01*
X017978Y011197D02*
X018529Y011197D01*
X018534Y011139D02*
X018534Y011139D01*
X018523Y011256D02*
X018046Y011256D01*
X018014Y011217D02*
X018014Y011217D01*
X018014Y011217D01*
X018095Y011314D02*
X018517Y011314D01*
X018511Y011373D02*
X018153Y011373D01*
X018185Y011431D02*
X018505Y011431D01*
X018500Y011489D02*
X018500Y011489D01*
X018500Y011490D02*
X018212Y011490D01*
X018227Y011548D02*
X018505Y011548D01*
X018511Y011607D02*
X018251Y011607D01*
X018256Y011665D02*
X018516Y011665D01*
X018518Y011724D02*
X018265Y011724D01*
X018271Y011750D02*
X018271Y011750D01*
X018264Y011782D02*
X018519Y011782D01*
X018510Y011841D02*
X018256Y011841D01*
X018249Y011899D02*
X018500Y011899D01*
X018490Y011958D02*
X018225Y011958D01*
X018211Y012016D02*
X018480Y012016D01*
X018456Y012075D02*
X018181Y012075D01*
X018204Y012047D02*
X018204Y012047D01*
X018148Y012133D02*
X018429Y012133D01*
X018402Y012192D02*
X018089Y012192D01*
X018041Y012250D02*
X018374Y012250D01*
X018325Y012309D02*
X017972Y012309D01*
X018014Y012284D02*
X018014Y012284D01*
X017841Y012367D02*
X018276Y012367D01*
X018227Y012426D02*
X016428Y012426D01*
X016398Y012484D02*
X018159Y012484D01*
X018080Y012543D02*
X016357Y012543D01*
X016391Y012498D02*
X016391Y012498D01*
X016314Y012598D02*
X016314Y012598D01*
X016311Y012601D02*
X017996Y012601D01*
X017977Y012615D02*
X017977Y012615D01*
X017933Y012660D02*
X016266Y012660D01*
X016253Y012676D02*
X016253Y012676D01*
X016220Y012718D02*
X017876Y012718D01*
X017819Y012777D02*
X016159Y012777D01*
X016063Y012835D02*
X017763Y012835D01*
X017732Y012867D02*
X017732Y012867D01*
X017714Y012894D02*
X015967Y012894D01*
X015924Y012920D02*
X015924Y012920D01*
X015747Y012952D02*
X017676Y012952D01*
X017638Y013011D02*
X013586Y013011D01*
X013626Y013063D02*
X013703Y013257D01*
X013703Y013257D01*
X013721Y013304D01*
X013739Y013349D01*
X013739Y013349D01*
X013777Y013446D01*
X013782Y013751D01*
X013782Y013751D01*
X013679Y014039D01*
X013679Y014039D01*
X013481Y014272D01*
X013481Y014272D01*
X013481Y014272D01*
X013213Y014420D01*
X013110Y014436D01*
X013110Y014436D01*
X013107Y014436D01*
X013103Y014438D01*
X013102Y014438D01*
X013101Y014439D01*
X013101Y014439D01*
X013101Y014439D01*
X013101Y014439D01*
X013101Y014439D01*
X013058Y014443D01*
X013016Y014450D01*
X013016Y014450D01*
X013016Y014450D01*
X013016Y014450D01*
X013016Y014450D01*
X013016Y014450D01*
X013016Y014450D01*
X013016Y014450D01*
X013016Y014450D01*
X013016Y014450D01*
X013015Y014450D01*
X013014Y014450D01*
X013013Y014450D01*
X012805Y014481D01*
X012294Y014412D01*
X012059Y014308D01*
X012059Y014308D01*
X011947Y014267D01*
X011712Y014229D01*
X011475Y014252D01*
X011251Y014335D01*
X011149Y014397D01*
X011146Y014399D01*
X010938Y014544D01*
X010450Y014711D01*
X010241Y014721D01*
X010240Y014721D01*
X010192Y014723D01*
X010142Y014726D01*
X010142Y014726D01*
X009952Y014734D01*
X009951Y014734D01*
X009902Y014736D01*
X009854Y014738D01*
X009853Y014737D01*
X009662Y014744D01*
X009661Y014744D01*
X009613Y014745D01*
X009564Y014747D01*
X009563Y014747D01*
X009373Y014751D01*
X009372Y014751D01*
X009323Y014752D01*
X009275Y014753D01*
X009274Y014753D01*
X009083Y014755D01*
X009082Y014756D01*
X009034Y014756D01*
X008985Y014756D01*
X008984Y014756D01*
X008794Y014756D01*
X008792Y014757D01*
X008744Y014757D01*
X008696Y014757D01*
X008694Y014756D01*
X008504Y014755D01*
X008503Y014755D01*
X008454Y014755D01*
X008406Y014754D01*
X008405Y014754D01*
X008214Y014750D01*
X008213Y014751D01*
X008165Y014750D01*
X008116Y014749D01*
X008115Y014748D01*
X007925Y014743D01*
X007923Y014744D01*
X007875Y014742D01*
X007827Y014740D01*
X007825Y014740D01*
X007635Y014733D01*
X007634Y014733D01*
X007585Y014731D01*
X007537Y014729D01*
X007536Y014729D01*
X007345Y014720D01*
X007344Y014720D01*
X007296Y014717D01*
X007247Y014715D01*
X007246Y014714D01*
X007055Y014704D01*
X007054Y014704D01*
X007006Y014701D01*
X006958Y014698D01*
X006956Y014697D01*
X006766Y014685D01*
X006764Y014685D01*
X006716Y014681D01*
X006668Y014678D01*
X006667Y014677D01*
X006476Y014663D01*
X006475Y014663D01*
X006426Y014659D01*
X006378Y014655D01*
X006377Y014655D01*
X006186Y014638D01*
X006185Y014638D01*
X006137Y014634D01*
X006088Y014629D01*
X006087Y014629D01*
X005896Y014610D01*
X005895Y014611D01*
X005847Y014606D01*
X005799Y014601D01*
X005797Y014600D01*
X005607Y014580D01*
X005606Y014580D01*
X005558Y014574D01*
X005509Y014569D01*
X005508Y014569D01*
X005286Y014544D01*
X004784Y014334D01*
X004784Y014334D01*
X004360Y013991D01*
X004050Y013544D01*
X004050Y013544D01*
X003878Y013027D01*
X003857Y012483D01*
X003911Y012267D01*
X003923Y012219D01*
X004087Y011570D01*
X004555Y010315D01*
X004940Y009554D01*
X004937Y009559D02*
X004928Y009559D01*
X004923Y009562D02*
X004923Y009562D01*
X004907Y009618D02*
X003730Y009618D01*
X003703Y009676D02*
X004878Y009676D01*
X004848Y009735D02*
X003677Y009735D01*
X003650Y009793D02*
X004819Y009793D01*
X004789Y009852D02*
X003624Y009852D01*
X003597Y009910D02*
X004760Y009910D01*
X004730Y009969D02*
X003571Y009969D01*
X003544Y010027D02*
X004700Y010027D01*
X004671Y010086D02*
X003518Y010086D01*
X003491Y010144D02*
X004641Y010144D01*
X004612Y010203D02*
X003465Y010203D01*
X003438Y010261D02*
X004582Y010261D01*
X004553Y010320D02*
X003411Y010320D01*
X003385Y010378D02*
X004531Y010378D01*
X004509Y010437D02*
X003366Y010437D01*
X003346Y010495D02*
X004488Y010495D01*
X004466Y010554D02*
X003327Y010554D01*
X003308Y010612D02*
X004444Y010612D01*
X004422Y010671D02*
X003288Y010671D01*
X003269Y010729D02*
X004400Y010729D01*
X004378Y010788D02*
X003250Y010788D01*
X003230Y010846D02*
X004357Y010846D01*
X004335Y010905D02*
X003211Y010905D01*
X003192Y010963D02*
X004313Y010963D01*
X004291Y011022D02*
X003172Y011022D01*
X003153Y011080D02*
X004269Y011080D01*
X004247Y011139D02*
X003134Y011139D01*
X003114Y011197D02*
X004226Y011197D01*
X004204Y011256D02*
X003095Y011256D01*
X003076Y011314D02*
X004182Y011314D01*
X004160Y011373D02*
X003056Y011373D01*
X003037Y011431D02*
X004138Y011431D01*
X004116Y011490D02*
X003017Y011490D01*
X002998Y011548D02*
X004095Y011548D01*
X004077Y011607D02*
X002979Y011607D01*
X002959Y011665D02*
X004063Y011665D01*
X004048Y011724D02*
X002942Y011724D01*
X002930Y011782D02*
X004033Y011782D01*
X004018Y011841D02*
X002917Y011841D01*
X002904Y011899D02*
X004004Y011899D01*
X003989Y011958D02*
X002892Y011958D01*
X002879Y012016D02*
X003974Y012016D01*
X003960Y012075D02*
X002866Y012075D01*
X002854Y012133D02*
X003945Y012133D01*
X003930Y012192D02*
X002841Y012192D01*
X002828Y012250D02*
X003915Y012250D01*
X003911Y012267D02*
X003911Y012267D01*
X003901Y012309D02*
X002816Y012309D01*
X002803Y012367D02*
X003886Y012367D01*
X003871Y012426D02*
X002791Y012426D01*
X002778Y012484D02*
X003857Y012484D01*
X003857Y012483D02*
X003857Y012483D01*
X003859Y012543D02*
X002765Y012543D01*
X002753Y012601D02*
X003861Y012601D01*
X003864Y012660D02*
X002740Y012660D01*
X002727Y012718D02*
X003866Y012718D01*
X003868Y012777D02*
X003420Y012777D01*
X003542Y012835D02*
X003870Y012835D01*
X003873Y012894D02*
X003649Y012894D01*
X003640Y012883D02*
X003640Y012883D01*
X003640Y012883D01*
X003696Y012952D02*
X003875Y012952D01*
X003877Y013011D02*
X003742Y013011D01*
X003789Y013069D02*
X003892Y013069D01*
X003878Y013027D02*
X003878Y013027D01*
X003911Y013128D02*
X003831Y013128D01*
X003845Y013186D02*
X003931Y013186D01*
X003950Y013245D02*
X003858Y013245D01*
X003872Y013303D02*
X003970Y013303D01*
X003989Y013362D02*
X003885Y013362D01*
X003896Y013420D02*
X004009Y013420D01*
X004028Y013479D02*
X003883Y013479D01*
X003872Y013537D02*
X004048Y013537D01*
X004086Y013596D02*
X003856Y013596D01*
X003843Y013654D02*
X004127Y013654D01*
X004167Y013713D02*
X003829Y013713D01*
X003830Y013713D02*
X003830Y013713D01*
X003783Y013771D02*
X004208Y013771D01*
X004248Y013830D02*
X003737Y013830D01*
X003689Y013888D02*
X004289Y013888D01*
X004330Y013947D02*
X003643Y013947D01*
X003640Y013950D02*
X003640Y013950D01*
X003527Y014005D02*
X004378Y014005D01*
X004360Y013991D02*
X004360Y013991D01*
X004360Y013991D01*
X004450Y014064D02*
X003404Y014064D01*
X003077Y014082D02*
X003077Y014082D01*
X003025Y014064D02*
X002545Y014064D01*
X002539Y014122D02*
X004522Y014122D01*
X004595Y014181D02*
X002532Y014181D01*
X002526Y014239D02*
X004667Y014239D01*
X004739Y014298D02*
X002520Y014298D01*
X002514Y014356D02*
X004837Y014356D01*
X004977Y014415D02*
X002507Y014415D01*
X002502Y014473D02*
X005117Y014473D01*
X005257Y014532D02*
X003322Y014532D01*
X003444Y014590D02*
X005706Y014590D01*
X005286Y014544D02*
X005286Y014544D01*
X006312Y014649D02*
X003536Y014649D01*
X003583Y014707D02*
X007123Y014707D01*
X006672Y015643D02*
X003558Y015643D01*
X003518Y015694D02*
X003518Y015694D01*
X003501Y015702D02*
X005995Y015702D01*
X005607Y015742D02*
X005607Y015742D01*
X005442Y015760D02*
X003380Y015760D01*
X003258Y015819D02*
X005188Y015819D01*
X005287Y015778D02*
X005287Y015778D01*
X005048Y015877D02*
X002504Y015877D01*
X002502Y015819D02*
X002927Y015819D01*
X002798Y015760D02*
X002502Y015760D01*
X002502Y015702D02*
X002684Y015702D01*
X002626Y015643D02*
X002502Y015643D01*
X002502Y015585D02*
X002568Y015585D01*
X002515Y015526D02*
X002502Y015526D01*
X002511Y015936D02*
X004909Y015936D01*
X004776Y015994D02*
X002517Y015994D01*
X002523Y016053D02*
X004704Y016053D01*
X004632Y016111D02*
X002529Y016111D01*
X002536Y016170D02*
X004559Y016170D01*
X004487Y016228D02*
X002542Y016228D01*
X002548Y016287D02*
X002961Y016287D01*
X002836Y016345D02*
X002554Y016345D01*
X002561Y016404D02*
X002761Y016404D01*
X002789Y016370D02*
X002789Y016370D01*
X002715Y016462D02*
X002567Y016462D01*
X002573Y016521D02*
X002660Y016521D01*
X002621Y016579D02*
X002579Y016579D01*
X002599Y016607D02*
X002599Y016607D01*
X002592Y016638D02*
X002586Y016638D01*
X002658Y017281D02*
X002664Y017281D01*
X002671Y017340D02*
X002711Y017340D01*
X002683Y017398D02*
X002758Y017398D01*
X002789Y017437D02*
X002789Y017437D01*
X002789Y017437D01*
X002830Y017457D02*
X002696Y017457D01*
X002709Y017515D02*
X002951Y017515D01*
X002721Y017574D02*
X003867Y017574D01*
X003865Y017632D02*
X002734Y017632D01*
X002747Y017691D02*
X003863Y017691D01*
X003861Y017749D02*
X002759Y017749D01*
X002772Y017808D02*
X003859Y017808D01*
X003857Y017839D02*
X003857Y017839D01*
X003864Y017866D02*
X002785Y017866D01*
X002797Y017925D02*
X003879Y017925D01*
X003894Y017983D02*
X002810Y017983D01*
X002822Y018042D02*
X003909Y018042D01*
X003923Y018100D02*
X002835Y018100D01*
X002848Y018159D02*
X003938Y018159D01*
X003936Y018151D02*
X003936Y018151D01*
X003953Y018217D02*
X002860Y018217D01*
X002873Y018276D02*
X003967Y018276D01*
X003982Y018334D02*
X002886Y018334D01*
X002898Y018393D02*
X003997Y018393D01*
X004012Y018451D02*
X002911Y018451D01*
X002924Y018510D02*
X004026Y018510D01*
X004041Y018568D02*
X002936Y018568D01*
X002950Y018627D02*
X004056Y018627D01*
X004070Y018685D02*
X002970Y018685D01*
X002989Y018744D02*
X004085Y018744D01*
X004106Y018802D02*
X003008Y018802D01*
X003028Y018861D02*
X004128Y018861D01*
X004150Y018919D02*
X003047Y018919D01*
X003066Y018978D02*
X004172Y018978D01*
X004193Y019036D02*
X003086Y019036D01*
X003105Y019095D02*
X004215Y019095D01*
X004237Y019153D02*
X003124Y019153D01*
X003144Y019212D02*
X004259Y019212D01*
X004281Y019270D02*
X003163Y019270D01*
X003182Y019329D02*
X004303Y019329D01*
X004324Y019387D02*
X003202Y019387D01*
X003221Y019446D02*
X004346Y019446D01*
X004368Y019504D02*
X003241Y019504D01*
X003260Y019563D02*
X004390Y019563D01*
X004412Y019621D02*
X003279Y019621D01*
X003299Y019680D02*
X004434Y019680D01*
X004456Y019738D02*
X003318Y019738D01*
X003337Y019797D02*
X004477Y019797D01*
X004499Y019855D02*
X003357Y019855D01*
X003376Y019914D02*
X004521Y019914D01*
X004543Y019972D02*
X003399Y019972D01*
X003425Y020031D02*
X004568Y020031D01*
X004556Y020007D02*
X004556Y020007D01*
X004598Y020089D02*
X003452Y020089D01*
X003479Y020148D02*
X004627Y020148D01*
X004657Y020206D02*
X003505Y020206D01*
X003532Y020265D02*
X004686Y020265D01*
X004716Y020323D02*
X003558Y020323D01*
X003585Y020382D02*
X004746Y020382D01*
X004775Y020440D02*
X003611Y020440D01*
X003638Y020499D02*
X004805Y020499D01*
X004834Y020557D02*
X003664Y020557D01*
X003691Y020616D02*
X004864Y020616D01*
X004894Y020674D02*
X003717Y020674D01*
X003744Y020733D02*
X004923Y020733D01*
X004550Y020791D02*
X003771Y020791D01*
X003797Y020850D02*
X004428Y020850D01*
X004330Y020908D02*
X003824Y020908D01*
X003850Y020967D02*
X004284Y020967D01*
X004236Y021025D02*
X003877Y021025D01*
X003903Y021084D02*
X004190Y021084D01*
X004152Y021142D02*
X003930Y021142D01*
X003956Y021201D02*
X004139Y021201D01*
X004122Y021259D02*
X003989Y021259D01*
X004023Y021318D02*
X004106Y021318D01*
X004099Y021376D02*
X004058Y021376D01*
X004437Y022020D02*
X004463Y022020D01*
X004471Y022078D02*
X004596Y022078D01*
X004506Y022137D02*
X005772Y022137D01*
X005810Y022195D02*
X004540Y022195D01*
X004575Y022254D02*
X005849Y022254D01*
X005887Y022312D02*
X004609Y022312D01*
X004644Y022371D02*
X005933Y022371D01*
X005982Y022429D02*
X004679Y022429D01*
X004723Y022488D02*
X006030Y022488D01*
X006078Y022546D02*
X004766Y022546D01*
X004810Y022605D02*
X006127Y022605D01*
X006175Y022663D02*
X004853Y022663D01*
X004897Y022722D02*
X006223Y022722D01*
X006271Y022780D02*
X004940Y022780D01*
X004984Y022839D02*
X006320Y022839D01*
X006368Y022897D02*
X005027Y022897D01*
X005070Y022956D02*
X006416Y022956D01*
X006465Y023014D02*
X005114Y023014D01*
X005157Y023073D02*
X006513Y023073D01*
X006561Y023131D02*
X005201Y023131D01*
X005244Y023190D02*
X006610Y023190D01*
X006658Y023248D02*
X005288Y023248D01*
X005331Y023307D02*
X006706Y023307D01*
X006746Y023355D02*
X006746Y023355D01*
X006757Y023365D02*
X005375Y023365D01*
X005418Y023424D02*
X006817Y023424D01*
X006877Y023482D02*
X005462Y023482D01*
X005505Y023541D02*
X006938Y023541D01*
X006998Y023599D02*
X005558Y023599D01*
X005613Y023658D02*
X007058Y023658D01*
X007119Y023716D02*
X005667Y023716D01*
X005721Y023775D02*
X007179Y023775D01*
X007227Y023821D02*
X007227Y023821D01*
X007240Y023833D02*
X005775Y023833D01*
X005829Y023892D02*
X007300Y023892D01*
X007360Y023950D02*
X005883Y023950D01*
X005937Y024009D02*
X007421Y024009D01*
X007422Y024011D02*
X007422Y024011D01*
X007530Y024067D02*
X005991Y024067D01*
X006045Y024126D02*
X007641Y024126D01*
X007752Y024184D02*
X006099Y024184D01*
X006153Y024243D02*
X007863Y024243D01*
X008084Y024301D02*
X006207Y024301D01*
X006261Y024360D02*
X008370Y024360D01*
X008437Y024374D02*
X008437Y024374D01*
X008333Y024498D02*
X008333Y024498D01*
X008333Y024498D01*
X008295Y024477D02*
X010984Y024477D01*
X010991Y024418D02*
X008168Y024418D01*
X008363Y024535D02*
X010976Y024535D01*
X010969Y024594D02*
X008412Y024594D01*
X008470Y024652D02*
X010961Y024652D01*
X010954Y024711D02*
X008503Y024711D01*
X008522Y024736D02*
X008522Y024736D01*
X008530Y024769D02*
X010946Y024769D01*
X010939Y024828D02*
X008544Y024828D01*
X008568Y024886D02*
X010931Y024886D01*
X010923Y024945D02*
X008572Y024945D01*
X008584Y025003D02*
X010929Y025003D01*
X010938Y025062D02*
X008583Y025062D01*
X008572Y025120D02*
X010947Y025120D01*
X010957Y025179D02*
X008565Y025179D01*
X008543Y025237D02*
X010966Y025237D01*
X010975Y025296D02*
X008530Y025296D01*
X008522Y025328D02*
X008522Y025328D01*
X008501Y025354D02*
X009181Y025354D01*
X009060Y025413D02*
X008463Y025413D01*
X008408Y025471D02*
X008939Y025471D01*
X008931Y025475D02*
X008931Y025475D01*
X008887Y025530D02*
X008361Y025530D01*
X008333Y025566D02*
X008333Y025566D01*
X008288Y025588D02*
X008840Y025588D01*
X008794Y025647D02*
X008164Y025647D01*
X008062Y025881D02*
X008699Y025881D01*
X008689Y025939D02*
X008145Y025939D01*
X008228Y025998D02*
X008676Y025998D01*
X008674Y026009D02*
X008674Y026009D01*
X008684Y026056D02*
X008311Y026056D01*
X008395Y026115D02*
X008696Y026115D01*
X008706Y026173D02*
X008478Y026173D01*
X008561Y026232D02*
X008724Y026232D01*
X008738Y026290D02*
X008645Y026290D01*
X008741Y026305D02*
X008741Y026305D01*
X008748Y026349D02*
X008776Y026349D01*
X008716Y025822D02*
X007978Y025822D01*
X007895Y025764D02*
X008729Y025764D01*
X008747Y025705D02*
X007812Y025705D01*
X007284Y025296D02*
X007285Y025296D01*
X007272Y025237D02*
X007217Y025237D01*
X007254Y025179D02*
X007150Y025179D01*
X007083Y025120D02*
X007245Y025120D01*
X007231Y025062D02*
X007016Y025062D01*
X006950Y025003D02*
X007231Y025003D01*
X007244Y024945D02*
X006883Y024945D01*
X006816Y024886D02*
X007251Y024886D01*
X007271Y024828D02*
X006749Y024828D01*
X006682Y024769D02*
X007284Y024769D01*
X007292Y024736D02*
X007292Y024736D01*
X007312Y024711D02*
X006615Y024711D01*
X006548Y024652D02*
X007349Y024652D01*
X007405Y024594D02*
X006482Y024594D01*
X006423Y024535D02*
X007452Y024535D01*
X007524Y024477D02*
X006369Y024477D01*
X006315Y024418D02*
X007647Y024418D01*
X008602Y024360D02*
X011017Y024360D01*
X010991Y024418D02*
X010991Y024418D01*
X011042Y024301D02*
X009050Y024301D01*
X009203Y024243D02*
X011068Y024243D01*
X011081Y024213D02*
X011081Y024213D01*
X011093Y024184D02*
X009355Y024184D01*
X009498Y024126D02*
X011119Y024126D01*
X011145Y024067D02*
X009574Y024067D01*
X009651Y024009D02*
X011171Y024009D01*
X011197Y023950D02*
X009728Y023950D01*
X009805Y023892D02*
X011223Y023892D01*
X011249Y023833D02*
X009882Y023833D01*
X009920Y023805D02*
X009920Y023805D01*
X009920Y023805D01*
X009942Y023775D02*
X011276Y023775D01*
X011303Y023716D02*
X009985Y023716D01*
X010028Y023658D02*
X011329Y023658D01*
X011356Y023599D02*
X010072Y023599D01*
X010115Y023541D02*
X011383Y023541D01*
X011465Y023365D02*
X010243Y023365D01*
X010285Y023307D02*
X011493Y023307D01*
X011521Y023248D02*
X010327Y023248D01*
X010369Y023190D02*
X011549Y023190D01*
X011577Y023131D02*
X010411Y023131D01*
X010452Y023073D02*
X011605Y023073D01*
X011634Y023014D02*
X010493Y023014D01*
X010534Y022956D02*
X011662Y022956D01*
X011691Y022897D02*
X010576Y022897D01*
X010616Y022839D02*
X011720Y022839D01*
X011749Y022780D02*
X010656Y022780D01*
X010696Y022722D02*
X011778Y022722D01*
X011808Y022663D02*
X010737Y022663D01*
X010776Y022605D02*
X011837Y022605D01*
X011867Y022546D02*
X010815Y022546D01*
X010854Y022488D02*
X011897Y022488D01*
X011927Y022429D02*
X010894Y022429D01*
X010933Y022371D02*
X011957Y022371D01*
X011987Y022312D02*
X010971Y022312D01*
X011010Y022254D02*
X012018Y022254D01*
X012049Y022195D02*
X011048Y022195D01*
X011087Y022137D02*
X012079Y022137D01*
X012110Y022078D02*
X011124Y022078D01*
X011162Y022020D02*
X012142Y022020D01*
X012173Y021961D02*
X011199Y021961D01*
X011237Y021903D02*
X012204Y021903D01*
X012236Y021844D02*
X011273Y021844D01*
X011310Y021786D02*
X012268Y021786D01*
X012300Y021727D02*
X011347Y021727D01*
X011384Y021669D02*
X012332Y021669D01*
X012364Y021610D02*
X011420Y021610D01*
X011456Y021552D02*
X012396Y021552D01*
X012429Y021493D02*
X011492Y021493D01*
X011528Y021435D02*
X012462Y021435D01*
X012495Y021376D02*
X011564Y021376D01*
X011598Y021318D02*
X012528Y021318D01*
X012562Y021259D02*
X011633Y021259D01*
X011669Y021201D02*
X012595Y021201D01*
X012629Y021142D02*
X011704Y021142D01*
X011738Y021084D02*
X012662Y021084D01*
X012697Y021025D02*
X011772Y021025D01*
X011806Y020967D02*
X012731Y020967D01*
X012765Y020908D02*
X011841Y020908D01*
X011874Y020850D02*
X012800Y020850D01*
X012835Y020791D02*
X011908Y020791D01*
X011941Y020733D02*
X012870Y020733D01*
X012905Y020674D02*
X011975Y020674D01*
X012008Y020616D02*
X012939Y020616D01*
X012975Y020557D02*
X012040Y020557D01*
X012073Y020499D02*
X013011Y020499D01*
X013047Y020440D02*
X012106Y020440D01*
X012139Y020382D02*
X013082Y020382D01*
X013119Y020323D02*
X012170Y020323D01*
X012202Y020265D02*
X013156Y020265D01*
X013192Y020206D02*
X012234Y020206D01*
X012266Y020148D02*
X013229Y020148D01*
X013233Y020141D02*
X013233Y020141D01*
X013265Y020089D02*
X012297Y020089D01*
X012329Y020031D02*
X013302Y020031D01*
X013339Y019972D02*
X012360Y019972D01*
X012391Y019914D02*
X013388Y019914D01*
X013353Y019950D02*
X013353Y019950D01*
X013443Y019855D02*
X012422Y019855D01*
X012452Y019797D02*
X013498Y019797D01*
X013553Y019738D02*
X012483Y019738D01*
X012513Y019680D02*
X013615Y019680D01*
X013595Y019694D02*
X013595Y019694D01*
X013595Y019694D01*
X013696Y019621D02*
X012544Y019621D01*
X012573Y019563D02*
X013778Y019563D01*
X013859Y019504D02*
X012604Y019504D01*
X012634Y019446D02*
X013975Y019446D01*
X013880Y019489D02*
X013880Y019489D01*
X014093Y019387D02*
X012654Y019387D01*
X012647Y019419D02*
X012647Y019419D01*
X012665Y019329D02*
X014182Y019329D01*
X014253Y019270D02*
X012677Y019270D01*
X012688Y019212D02*
X013451Y019212D01*
X013500Y019235D02*
X013226Y019103D01*
X013036Y018866D01*
X013036Y018866D01*
X012969Y018570D01*
X012969Y018570D01*
X013036Y018273D01*
X013226Y018036D01*
X013500Y017904D01*
X013803Y017904D01*
X013879Y017940D01*
X014041Y018007D01*
X014062Y018028D01*
X014077Y018036D01*
X014108Y018075D01*
X014227Y018194D01*
X014253Y018257D01*
X014267Y018273D01*
X014267Y018273D01*
X014274Y018307D01*
X014328Y018438D01*
X014328Y018544D01*
X014334Y018570D01*
X014328Y018595D01*
X014328Y018701D01*
X014274Y018831D01*
X014267Y018866D01*
X014253Y018882D01*
X014227Y018945D01*
X014109Y019063D01*
X014077Y019103D01*
X014062Y019111D01*
X014041Y019132D01*
X013881Y019198D01*
X013803Y019235D01*
X013500Y019235D01*
X013330Y019153D02*
X012699Y019153D01*
X012711Y019095D02*
X013219Y019095D01*
X013226Y019103D02*
X013226Y019103D01*
X013226Y019103D01*
X013172Y019036D02*
X012722Y019036D01*
X012734Y018978D02*
X013126Y018978D01*
X013079Y018919D02*
X012745Y018919D01*
X012747Y018911D02*
X012747Y018911D01*
X012742Y018861D02*
X013035Y018861D01*
X013022Y018802D02*
X012737Y018802D01*
X012732Y018744D02*
X013009Y018744D01*
X012995Y018685D02*
X012727Y018685D01*
X012723Y018627D02*
X012982Y018627D01*
X012969Y018568D02*
X012722Y018568D01*
X012725Y018510D02*
X012982Y018510D01*
X012996Y018451D02*
X012735Y018451D01*
X012745Y018393D02*
X013009Y018393D01*
X013022Y018334D02*
X012754Y018334D01*
X012770Y018276D02*
X013036Y018276D01*
X013036Y018273D02*
X013036Y018273D01*
X013081Y018217D02*
X012797Y018217D01*
X012823Y018159D02*
X013128Y018159D01*
X013174Y018100D02*
X012850Y018100D01*
X012890Y018042D02*
X013221Y018042D01*
X013334Y017983D02*
X012938Y017983D01*
X012985Y017925D02*
X013456Y017925D01*
X013195Y017749D02*
X014905Y017749D01*
X014926Y017722D02*
X014926Y017722D01*
X014950Y017691D02*
X014956Y017683D01*
X014987Y017644D01*
X014987Y017644D01*
X015041Y017574D02*
X013381Y017574D01*
X013426Y017515D02*
X015126Y017515D01*
X015222Y017457D02*
X013471Y017457D01*
X013517Y017398D02*
X015326Y017398D01*
X015316Y017400D02*
X015316Y017400D01*
X015620Y017344D02*
X015620Y017344D01*
X015914Y017398D02*
X017696Y017398D01*
X017732Y017453D02*
X017540Y017159D01*
X017492Y017042D01*
X017475Y016999D01*
X017473Y016996D01*
X017455Y016950D01*
X017415Y016853D01*
X017408Y016544D01*
X017408Y016544D01*
X017512Y016252D01*
X017712Y016017D01*
X017712Y016017D01*
X017984Y015868D01*
X018088Y015854D01*
X018131Y015848D01*
X018137Y015847D01*
X018186Y015840D01*
X018186Y015840D01*
X018311Y015823D01*
X018662Y015842D01*
X019002Y015928D01*
X019131Y015989D01*
X019161Y016003D01*
X019275Y016048D01*
X019517Y016091D01*
X019761Y016069D01*
X019991Y015984D01*
X020096Y015920D01*
X020102Y015915D01*
X020239Y015818D01*
X020559Y015673D01*
X020559Y015673D01*
X020901Y015592D01*
X020901Y015592D01*
X021028Y015587D01*
X021029Y015587D01*
X021078Y015585D01*
X021127Y015583D01*
X021127Y015584D01*
X021315Y015577D01*
X021316Y015576D01*
X021365Y015575D01*
X021413Y015573D01*
X021414Y015574D01*
X021603Y015569D01*
X021604Y015568D01*
X021652Y015567D01*
X021701Y015566D01*
X021702Y015567D01*
X021891Y015564D01*
X021892Y015563D01*
X021940Y015563D01*
X021989Y015562D01*
X021990Y015562D01*
X022178Y015561D01*
X022179Y015561D01*
X022228Y015561D01*
X022276Y015560D01*
X022277Y015561D01*
X022466Y015561D01*
X022467Y015561D01*
X022516Y015561D01*
X022564Y015561D01*
X022565Y015562D01*
X022754Y015564D01*
X022755Y015564D01*
X022803Y015565D01*
X022852Y015565D01*
X022853Y015566D01*
X023041Y015570D01*
X023043Y015569D01*
X023091Y015571D01*
X023139Y015572D01*
X023141Y015572D01*
X023329Y015578D01*
X023330Y015578D01*
X023379Y015580D01*
X023427Y015581D01*
X023428Y015582D01*
X023617Y015589D01*
X023618Y015589D01*
X023666Y015591D01*
X023715Y015593D01*
X023716Y015594D01*
X023905Y015603D01*
X023906Y015603D01*
X023954Y015606D01*
X024003Y015608D01*
X024004Y015608D01*
X024192Y015620D01*
X024194Y015619D01*
X024242Y015623D01*
X024290Y015625D01*
X024291Y015626D01*
X024480Y015639D01*
X024481Y015639D01*
X024530Y015642D01*
X024578Y015646D01*
X024579Y015646D01*
X024768Y015661D01*
X024769Y015661D01*
X024817Y015665D01*
X024866Y015669D01*
X024867Y015669D01*
X025056Y015686D01*
X025057Y015685D01*
X025105Y015690D01*
X025154Y015694D01*
X025155Y015695D01*
X025344Y015713D01*
X025345Y015713D01*
X025393Y015718D01*
X025441Y015723D01*
X025442Y015723D01*
X025631Y015743D01*
X025631Y015743D01*
X025680Y015749D01*
X025729Y015754D01*
X025730Y015754D01*
X025952Y015779D01*
X026455Y015989D01*
X026878Y016332D01*
X027189Y016779D01*
X027189Y016779D01*
X027362Y017296D01*
X027362Y017296D01*
X027357Y017281D02*
X027466Y017281D01*
X027429Y017223D02*
X027337Y017223D01*
X027318Y017164D02*
X027402Y017164D01*
X027410Y017200D02*
X027410Y017200D01*
X027389Y017106D02*
X027298Y017106D01*
X027279Y017047D02*
X027369Y017047D01*
X027362Y016989D02*
X027259Y016989D01*
X027239Y016930D02*
X027349Y016930D01*
X027343Y016903D02*
X027343Y016903D01*
X027350Y016872D02*
X027220Y016872D01*
X027200Y016813D02*
X027363Y016813D01*
X027376Y016755D02*
X027172Y016755D01*
X027132Y016696D02*
X027390Y016696D01*
X027403Y016638D02*
X027091Y016638D01*
X027050Y016579D02*
X027433Y016579D01*
X027410Y016607D02*
X027410Y016607D01*
X027479Y016521D02*
X027010Y016521D01*
X026969Y016462D02*
X027526Y016462D01*
X027573Y016404D02*
X026929Y016404D01*
X026888Y016345D02*
X027650Y016345D01*
X027600Y016370D02*
X027600Y016370D01*
X027772Y016287D02*
X026823Y016287D01*
X026878Y016332D02*
X026878Y016332D01*
X026878Y016332D01*
X026751Y016228D02*
X028699Y016228D01*
X028702Y016170D02*
X026678Y016170D01*
X026606Y016111D02*
X028705Y016111D01*
X028709Y016053D02*
X026534Y016053D01*
X026461Y015994D02*
X028712Y015994D01*
X028715Y015936D02*
X026328Y015936D01*
X026455Y015989D02*
X026455Y015989D01*
X026187Y015877D02*
X028718Y015877D01*
X028721Y015819D02*
X028313Y015819D01*
X028435Y015760D02*
X028724Y015760D01*
X028727Y015702D02*
X028556Y015702D01*
X028573Y015694D02*
X028573Y015694D01*
X028613Y015643D02*
X028730Y015643D01*
X028733Y015585D02*
X028660Y015585D01*
X028707Y015526D02*
X028737Y015526D01*
X028731Y014824D02*
X028738Y014824D01*
X028735Y014766D02*
X028702Y014766D01*
X028732Y014707D02*
X028645Y014707D01*
X028591Y014649D02*
X028729Y014649D01*
X028726Y014590D02*
X028528Y014590D01*
X028404Y014532D02*
X028723Y014532D01*
X028720Y014473D02*
X026111Y014473D01*
X026251Y014415D02*
X028716Y014415D01*
X028713Y014356D02*
X026391Y014356D01*
X026494Y014298D02*
X028710Y014298D01*
X028707Y014239D02*
X026566Y014239D01*
X026639Y014181D02*
X028704Y014181D01*
X028701Y014122D02*
X026711Y014122D01*
X026783Y014064D02*
X027836Y014064D01*
X027907Y014082D02*
X027907Y014082D01*
X027714Y014005D02*
X026856Y014005D01*
X026879Y013987D02*
X026879Y013987D01*
X026906Y013947D02*
X027597Y013947D01*
X027600Y013950D02*
X027600Y013950D01*
X027551Y013888D02*
X026947Y013888D01*
X026987Y013830D02*
X027504Y013830D01*
X027457Y013771D02*
X027028Y013771D01*
X027068Y013713D02*
X027411Y013713D01*
X027397Y013654D02*
X027109Y013654D01*
X027150Y013596D02*
X027384Y013596D01*
X027370Y013537D02*
X027190Y013537D01*
X027209Y013479D02*
X027357Y013479D01*
X027344Y013420D02*
X027229Y013420D01*
X027248Y013362D02*
X027355Y013362D01*
X027343Y013417D02*
X027343Y013417D01*
X027369Y013303D02*
X027268Y013303D01*
X027287Y013245D02*
X027382Y013245D01*
X027395Y013186D02*
X027307Y013186D01*
X027326Y013128D02*
X027409Y013128D01*
X027410Y013120D02*
X027410Y013120D01*
X027451Y013069D02*
X027346Y013069D01*
X027362Y013011D02*
X027498Y013011D01*
X027544Y012952D02*
X027364Y012952D01*
X027366Y012894D02*
X027591Y012894D01*
X027600Y012883D02*
X027600Y012883D01*
X027698Y012835D02*
X027368Y012835D01*
X027371Y012777D02*
X027820Y012777D01*
X027373Y012718D02*
X028513Y012718D01*
X028504Y012660D02*
X027375Y012660D01*
X027377Y012601D02*
X028494Y012601D01*
X028485Y012543D02*
X027379Y012543D01*
X027382Y012484D02*
X028476Y012484D01*
X028466Y012426D02*
X027369Y012426D01*
X027382Y012478D02*
X027382Y012478D01*
X027354Y012367D02*
X028455Y012367D01*
X028439Y012309D02*
X027339Y012309D01*
X027327Y012262D02*
X027327Y012262D01*
X027325Y012250D02*
X028423Y012250D01*
X028407Y012192D02*
X027310Y012192D01*
X027295Y012133D02*
X028391Y012133D01*
X028375Y012075D02*
X027280Y012075D01*
X027266Y012016D02*
X028359Y012016D01*
X028343Y011958D02*
X027251Y011958D01*
X027236Y011899D02*
X028327Y011899D01*
X028311Y011841D02*
X027221Y011841D01*
X027207Y011782D02*
X028295Y011782D01*
X028280Y011724D02*
X027192Y011724D01*
X027177Y011665D02*
X028264Y011665D01*
X028248Y011607D02*
X027162Y011607D01*
X027146Y011548D02*
X028232Y011548D01*
X028216Y011490D02*
X027124Y011490D01*
X027102Y011431D02*
X028200Y011431D01*
X028184Y011373D02*
X027080Y011373D01*
X027058Y011314D02*
X028168Y011314D01*
X028152Y011256D02*
X027036Y011256D01*
X027015Y011197D02*
X028136Y011197D01*
X028120Y011139D02*
X026993Y011139D01*
X026971Y011080D02*
X028104Y011080D01*
X028087Y011022D02*
X026949Y011022D01*
X026927Y010963D02*
X028064Y010963D01*
X028041Y010905D02*
X026905Y010905D01*
X026883Y010846D02*
X028018Y010846D01*
X027995Y010788D02*
X026862Y010788D01*
X026840Y010729D02*
X027972Y010729D01*
X027949Y010671D02*
X026818Y010671D01*
X026796Y010612D02*
X027926Y010612D01*
X027904Y010554D02*
X026774Y010554D01*
X026752Y010495D02*
X027881Y010495D01*
X027858Y010437D02*
X026730Y010437D01*
X026709Y010378D02*
X027835Y010378D01*
X027812Y010320D02*
X026687Y010320D01*
X026684Y010313D02*
X026684Y010313D01*
X026658Y010261D02*
X027789Y010261D01*
X027766Y010203D02*
X026628Y010203D01*
X026599Y010144D02*
X027743Y010144D01*
X027721Y010086D02*
X026569Y010086D01*
X026540Y010027D02*
X027698Y010027D01*
X027675Y009969D02*
X026510Y009969D01*
X026480Y009910D02*
X027652Y009910D01*
X027629Y009852D02*
X026451Y009852D01*
X026421Y009793D02*
X027606Y009793D01*
X027583Y009735D02*
X026392Y009735D01*
X026362Y009676D02*
X027553Y009676D01*
X027523Y009618D02*
X026333Y009618D01*
X026312Y009559D02*
X026303Y009559D01*
X026626Y009559D02*
X027493Y009559D01*
X027462Y009501D02*
X026750Y009501D01*
X026869Y009442D02*
X027432Y009442D01*
X027401Y009384D02*
X026932Y009384D01*
X026981Y009325D02*
X027371Y009325D01*
X027341Y009267D02*
X027035Y009267D01*
X027072Y009208D02*
X027310Y009208D01*
X027280Y009150D02*
X027094Y009150D01*
X027108Y009091D02*
X027249Y009091D01*
X027219Y009033D02*
X027132Y009033D01*
X027134Y008974D02*
X027189Y008974D01*
X027158Y008916D02*
X027147Y008916D01*
X026831Y008331D02*
X026830Y008331D01*
X026792Y008272D02*
X026708Y008272D01*
X026754Y008214D02*
X025488Y008214D01*
X025450Y008155D02*
X026715Y008155D01*
X026676Y008097D02*
X025412Y008097D01*
X025374Y008038D02*
X026637Y008038D01*
X026598Y007980D02*
X025332Y007980D01*
X025349Y008001D02*
X025349Y008001D01*
X025284Y007921D02*
X026559Y007921D01*
X026521Y007863D02*
X025235Y007863D01*
X025187Y007804D02*
X026482Y007804D01*
X026443Y007746D02*
X025139Y007746D01*
X025090Y007687D02*
X026404Y007687D01*
X026365Y007629D02*
X025042Y007629D01*
X024994Y007570D02*
X026327Y007570D01*
X026288Y007512D02*
X024946Y007512D01*
X024897Y007453D02*
X026249Y007453D01*
X026210Y007395D02*
X024849Y007395D01*
X024801Y007336D02*
X026171Y007336D01*
X026125Y007278D02*
X024753Y007278D01*
X024704Y007219D02*
X026076Y007219D01*
X026028Y007161D02*
X024656Y007161D01*
X024608Y007102D02*
X025979Y007102D01*
X025931Y007044D02*
X024560Y007044D01*
X024511Y006985D02*
X025882Y006985D01*
X025834Y006927D02*
X024454Y006927D01*
X024498Y006969D02*
X024498Y006969D01*
X024394Y006868D02*
X025785Y006868D01*
X025737Y006810D02*
X024334Y006810D01*
X024273Y006751D02*
X025688Y006751D01*
X025640Y006693D02*
X024213Y006693D01*
X024153Y006634D02*
X025591Y006634D01*
X025543Y006576D02*
X024093Y006576D01*
X024032Y006517D02*
X025494Y006517D01*
X025446Y006459D02*
X023972Y006459D01*
X023983Y006469D02*
X023983Y006469D01*
X023912Y006400D02*
X025397Y006400D01*
X025349Y006342D02*
X023851Y006342D01*
X023823Y006314D02*
X023823Y006314D01*
X023765Y006283D02*
X025300Y006283D01*
X025272Y006250D02*
X025272Y006250D01*
X025247Y006225D02*
X023654Y006225D01*
X023543Y006166D02*
X025187Y006166D01*
X025127Y006108D02*
X023432Y006108D01*
X023341Y006060D02*
X023341Y006060D01*
X023291Y006049D02*
X025066Y006049D01*
X022807Y005951D02*
X022807Y005951D01*
X021217Y004236D02*
X019917Y004236D01*
X020536Y004177D02*
X021219Y004177D01*
X021243Y004119D02*
X020677Y004119D01*
X020753Y004060D02*
X021258Y004060D01*
X021279Y004002D02*
X020805Y004002D01*
X020863Y003943D02*
X021315Y003943D01*
X021371Y003885D02*
X020898Y003885D01*
X020928Y003841D02*
X020928Y003841D01*
X020931Y003826D02*
X021419Y003826D01*
X021458Y003777D02*
X021458Y003777D01*
X021477Y003768D02*
X020947Y003768D01*
X020971Y003709D02*
X021599Y003709D01*
X021720Y003651D02*
X020982Y003651D01*
X020985Y003592D02*
X021828Y003592D01*
X021707Y003534D02*
X020993Y003534D01*
X020982Y003487D02*
X020982Y003417D01*
X020958Y003358D02*
X021346Y003358D01*
X021226Y003300D02*
X020940Y003300D01*
X020922Y003241D02*
X021106Y003241D01*
X020985Y003183D02*
X020885Y003183D01*
X020865Y003124D02*
X020832Y003124D01*
X018021Y002247D02*
X016165Y002247D01*
X016117Y002188D02*
X017584Y002188D01*
X017147Y002130D02*
X016071Y002130D01*
X016046Y002099D02*
X016046Y002099D01*
X016046Y002099D01*
X011322Y004236D02*
X010023Y004236D01*
X010021Y004177D02*
X010707Y004177D01*
X010572Y004119D02*
X009997Y004119D01*
X009982Y004060D02*
X010487Y004060D01*
X010440Y004002D02*
X009961Y004002D01*
X009925Y003943D02*
X010386Y003943D01*
X010347Y003885D02*
X009869Y003885D01*
X009821Y003826D02*
X010309Y003826D01*
X010295Y003768D02*
X009763Y003768D01*
X009641Y003709D02*
X010278Y003709D01*
X010266Y003651D02*
X009520Y003651D01*
X009432Y003592D02*
X010255Y003592D01*
X010247Y003534D02*
X009537Y003534D01*
X009854Y003358D02*
X010287Y003358D01*
X010300Y003300D02*
X009986Y003300D01*
X010125Y003241D02*
X010318Y003241D01*
X010363Y003183D02*
X010263Y003183D01*
X010402Y003124D02*
X010411Y003124D01*
X008751Y004002D02*
X008692Y004002D01*
X008731Y004060D02*
X008601Y004060D01*
X008517Y004119D02*
X008717Y004119D01*
X008699Y004177D02*
X008434Y004177D01*
X008351Y004236D02*
X008691Y004236D01*
X008677Y004294D02*
X008267Y004294D01*
X008184Y004353D02*
X008683Y004353D01*
X008696Y004411D02*
X008101Y004411D01*
X008018Y004470D02*
X008707Y004470D01*
X008723Y004528D02*
X007934Y004528D01*
X007851Y004587D02*
X008737Y004587D01*
X008772Y004645D02*
X008107Y004645D01*
X008229Y004704D02*
X008813Y004704D01*
X008865Y004762D02*
X008339Y004762D01*
X008386Y004821D02*
X008912Y004821D01*
X008931Y004845D02*
X008931Y004845D01*
X008994Y004879D02*
X008437Y004879D01*
X008481Y004938D02*
X009124Y004938D01*
X008059Y005954D02*
X007755Y005954D01*
X007599Y005878D01*
X007482Y005822D02*
X007482Y005822D01*
X007476Y005815D02*
X006394Y005815D01*
X006448Y005757D02*
X007430Y005757D01*
X007381Y005698D02*
X006513Y005698D01*
X006580Y005640D02*
X007336Y005640D01*
X007292Y005584D02*
X007292Y005584D01*
X007291Y005581D02*
X006647Y005581D01*
X006714Y005523D02*
X007278Y005523D01*
X007264Y005464D02*
X006781Y005464D01*
X006847Y005406D02*
X007246Y005406D01*
X007238Y005347D02*
X006914Y005347D01*
X006981Y005289D02*
X007225Y005289D01*
X007225Y005288D02*
X007225Y005288D01*
X007238Y005230D02*
X007048Y005230D01*
X007115Y005172D02*
X007246Y005172D01*
X007264Y005113D02*
X007182Y005113D01*
X007249Y005055D02*
X007278Y005055D01*
X004088Y008896D02*
X004088Y008896D01*
X004093Y008916D02*
X004074Y008916D01*
X004106Y008974D02*
X004039Y008974D01*
X004005Y009033D02*
X004107Y009033D01*
X004131Y009091D02*
X003970Y009091D01*
X003942Y009150D02*
X004146Y009150D01*
X004156Y009192D02*
X004156Y009192D01*
X004168Y009208D02*
X003916Y009208D01*
X003889Y009267D02*
X004204Y009267D01*
X004258Y009325D02*
X003863Y009325D01*
X003836Y009384D02*
X004308Y009384D01*
X004345Y009430D02*
X004345Y009430D01*
X004345Y009430D01*
X004371Y009442D02*
X003810Y009442D01*
X003783Y009501D02*
X004489Y009501D01*
X004614Y009559D02*
X003757Y009559D01*
X003008Y012777D02*
X002715Y012777D01*
X002702Y012835D02*
X002886Y012835D01*
X002789Y012883D02*
X002789Y012883D01*
X002780Y012894D02*
X002689Y012894D01*
X002677Y012952D02*
X002733Y012952D01*
X002680Y013011D02*
X002664Y013011D01*
X002599Y013713D02*
X002582Y013713D01*
X002576Y013771D02*
X002637Y013771D01*
X002682Y013830D02*
X002570Y013830D01*
X002564Y013888D02*
X002739Y013888D01*
X002786Y013947D02*
X002557Y013947D01*
X002551Y014005D02*
X002892Y014005D01*
X002789Y013950D02*
X002789Y013950D01*
X002789Y013950D01*
X002863Y014532D02*
X002502Y014532D01*
X002502Y014590D02*
X002723Y014590D01*
X002667Y014626D02*
X002667Y014626D01*
X002649Y014649D02*
X002502Y014649D01*
X002502Y014707D02*
X002595Y014707D01*
X002537Y014766D02*
X002502Y014766D01*
X003630Y014766D02*
X011141Y014766D01*
X011165Y014742D02*
X011257Y014626D01*
X011257Y014626D01*
X011531Y014494D01*
X011835Y014494D01*
X012109Y014626D01*
X012109Y014626D01*
X012109Y014626D01*
X012298Y014864D01*
X012335Y015027D01*
X012339Y015037D01*
X012339Y015044D01*
X012366Y015160D01*
X012339Y015276D01*
X012339Y015300D01*
X012327Y015330D01*
X012298Y015456D01*
X012298Y015456D01*
X012249Y015517D01*
X012238Y015544D01*
X012188Y015595D01*
X012109Y015694D01*
X012109Y015694D01*
X012070Y015712D01*
X012052Y015731D01*
X011912Y015789D01*
X011835Y015826D01*
X011822Y015826D01*
X011808Y015832D01*
X011544Y015832D01*
X011301Y015731D01*
X011270Y015700D01*
X011257Y015694D01*
X011232Y015662D01*
X011114Y015544D01*
X011088Y015482D01*
X011068Y015456D01*
X011056Y015403D01*
X011013Y015300D01*
X011013Y015217D01*
X011000Y015160D01*
X011013Y015103D01*
X011013Y015037D01*
X011047Y014955D01*
X011068Y014864D01*
X011068Y014864D01*
X011103Y014820D01*
X011114Y014793D01*
X011165Y014742D01*
X011193Y014707D02*
X010460Y014707D01*
X010631Y014649D02*
X011239Y014649D01*
X011332Y014590D02*
X010803Y014590D01*
X010956Y014532D02*
X011453Y014532D01*
X011351Y014298D02*
X012032Y014298D01*
X012169Y014356D02*
X011215Y014356D01*
X011123Y014415D02*
X012319Y014415D01*
X012294Y014412D02*
X012294Y014412D01*
X012127Y014649D02*
X014915Y014649D01*
X014891Y014673D02*
X015133Y014431D01*
X015449Y014300D01*
X015791Y014300D01*
X016107Y014431D01*
X016349Y014673D01*
X016480Y014989D01*
X016480Y015331D01*
X016349Y015647D01*
X016107Y015889D01*
X015791Y016020D01*
X015449Y016020D01*
X015133Y015889D01*
X014891Y015647D01*
X014760Y015331D01*
X014760Y014989D01*
X014891Y014673D01*
X014877Y014707D02*
X012173Y014707D01*
X012220Y014766D02*
X014852Y014766D01*
X014828Y014824D02*
X012267Y014824D01*
X012298Y014864D02*
X012298Y014864D01*
X012303Y014883D02*
X014804Y014883D01*
X014780Y014941D02*
X012316Y014941D01*
X012329Y015000D02*
X014760Y015000D01*
X014760Y015058D02*
X012343Y015058D01*
X012356Y015117D02*
X014760Y015117D01*
X014760Y015175D02*
X012362Y015175D01*
X012349Y015234D02*
X014760Y015234D01*
X014760Y015292D02*
X012339Y015292D01*
X012322Y015351D02*
X014768Y015351D01*
X014793Y015409D02*
X012309Y015409D01*
X012289Y015468D02*
X014817Y015468D01*
X014841Y015526D02*
X012246Y015526D01*
X012198Y015585D02*
X014865Y015585D01*
X014889Y015643D02*
X012149Y015643D01*
X012092Y015702D02*
X014946Y015702D01*
X015004Y015760D02*
X011980Y015760D01*
X011849Y015819D02*
X015063Y015819D01*
X015121Y015877D02*
X013060Y015877D01*
X013110Y015885D02*
X013110Y015885D01*
X013213Y015900D02*
X013213Y015900D01*
X013278Y015936D02*
X015246Y015936D01*
X015387Y015994D02*
X013383Y015994D01*
X013484Y016053D02*
X017681Y016053D01*
X017712Y016017D02*
X017712Y016017D01*
X017753Y015994D02*
X015853Y015994D01*
X015994Y015936D02*
X017860Y015936D01*
X017967Y015877D02*
X016119Y015877D01*
X016177Y015819D02*
X019391Y015819D01*
X019405Y015826D02*
X019252Y015752D01*
X019172Y015719D01*
X019162Y015708D01*
X019131Y015694D01*
X019069Y015616D01*
X018985Y015532D01*
X018967Y015488D01*
X018942Y015456D01*
X018927Y015391D01*
X018884Y015289D01*
X018884Y015205D01*
X018874Y015160D01*
X018884Y015115D01*
X018884Y015025D01*
X018930Y014914D01*
X018942Y014864D01*
X018942Y014864D01*
X018961Y014840D01*
X018985Y014781D01*
X019096Y014670D01*
X019131Y014626D01*
X019131Y014626D01*
X019149Y014618D01*
X019172Y014594D01*
X019352Y014520D01*
X019405Y014494D01*
X019414Y014494D01*
X019416Y014494D01*
X019679Y014494D01*
X019681Y014494D01*
X019709Y014494D01*
X019878Y014576D01*
X019923Y014594D01*
X019929Y014600D01*
X019983Y014626D01*
X019983Y014626D01*
X019983Y014626D01*
X020092Y014764D01*
X020110Y014781D01*
X020113Y014790D01*
X020172Y014864D01*
X020207Y015015D01*
X020211Y015025D01*
X020211Y015032D01*
X020240Y015160D01*
X020211Y015288D01*
X020211Y015289D01*
X020210Y015290D01*
X020172Y015456D01*
X020172Y015456D01*
X019983Y015694D01*
X019983Y015694D01*
X019709Y015826D01*
X019405Y015826D01*
X019270Y015760D02*
X016236Y015760D01*
X016294Y015702D02*
X019148Y015702D01*
X019131Y015694D02*
X019131Y015694D01*
X019131Y015694D01*
X019091Y015643D02*
X016351Y015643D01*
X016375Y015585D02*
X019038Y015585D01*
X018983Y015526D02*
X016399Y015526D01*
X016423Y015468D02*
X018951Y015468D01*
X018942Y015456D02*
X018942Y015456D01*
X018931Y015409D02*
X016447Y015409D01*
X016472Y015351D02*
X018910Y015351D01*
X018886Y015292D02*
X016480Y015292D01*
X016480Y015234D02*
X018884Y015234D01*
X018878Y015175D02*
X016480Y015175D01*
X016480Y015117D02*
X018884Y015117D01*
X018874Y015160D02*
X018874Y015160D01*
X018884Y015058D02*
X016480Y015058D01*
X016480Y015000D02*
X018895Y015000D01*
X018919Y014941D02*
X016460Y014941D01*
X016436Y014883D02*
X018937Y014883D01*
X018967Y014824D02*
X016412Y014824D01*
X016388Y014766D02*
X019001Y014766D01*
X019059Y014707D02*
X016363Y014707D01*
X016325Y014649D02*
X019113Y014649D01*
X019182Y014590D02*
X016267Y014590D01*
X016208Y014532D02*
X019323Y014532D01*
X019210Y014298D02*
X019888Y014298D01*
X020024Y014356D02*
X019077Y014356D01*
X019116Y014338D02*
X019116Y014338D01*
X018910Y014415D02*
X020117Y014415D01*
X020136Y014429D02*
X020136Y014429D01*
X020199Y014473D02*
X018678Y014473D01*
X018186Y014480D02*
X018186Y014480D01*
X018139Y014473D02*
X016150Y014473D01*
X016068Y014415D02*
X017916Y014415D01*
X017809Y014356D02*
X015927Y014356D01*
X015313Y014356D02*
X013329Y014356D01*
X013434Y014298D02*
X017708Y014298D01*
X017712Y014303D02*
X017712Y014303D01*
X017658Y014239D02*
X013508Y014239D01*
X013558Y014181D02*
X017608Y014181D01*
X017558Y014122D02*
X013608Y014122D01*
X013658Y014064D02*
X017510Y014064D01*
X017489Y014005D02*
X013691Y014005D01*
X013712Y013947D02*
X017469Y013947D01*
X017448Y013888D02*
X013733Y013888D01*
X013754Y013830D02*
X017427Y013830D01*
X017408Y013776D02*
X017408Y013776D01*
X017408Y013771D02*
X013775Y013771D01*
X013781Y013713D02*
X017409Y013713D01*
X017411Y013654D02*
X013780Y013654D01*
X013779Y013596D02*
X017412Y013596D01*
X017413Y013537D02*
X013779Y013537D01*
X013778Y013479D02*
X017415Y013479D01*
X017415Y013467D02*
X017415Y013467D01*
X017434Y013420D02*
X013767Y013420D01*
X013777Y013446D02*
X013777Y013446D01*
X013744Y013362D02*
X017458Y013362D01*
X017482Y013303D02*
X013721Y013303D01*
X013721Y013304D02*
X013721Y013304D01*
X013698Y013245D02*
X017506Y013245D01*
X017529Y013186D02*
X013675Y013186D01*
X013652Y013128D02*
X017561Y013128D01*
X017540Y013161D02*
X017540Y013161D01*
X017600Y013069D02*
X013628Y013069D01*
X013626Y013063D02*
X013310Y012655D01*
X013310Y012655D01*
X013310Y012655D01*
X013102Y012502D01*
X013102Y012502D01*
X013010Y012426D01*
X012963Y012367D02*
X013399Y012367D01*
X013277Y012309D02*
X012915Y012309D01*
X012868Y012250D02*
X013199Y012250D01*
X013226Y012284D02*
X013226Y012284D01*
X013226Y012284D01*
X013152Y012192D02*
X012837Y012192D01*
X012811Y012133D02*
X013106Y012133D01*
X013059Y012075D02*
X012784Y012075D01*
X012760Y012016D02*
X013029Y012016D01*
X013016Y011958D02*
X012750Y011958D01*
X012740Y011899D02*
X013003Y011899D01*
X012989Y011841D02*
X012730Y011841D01*
X012721Y011782D02*
X012976Y011782D01*
X012969Y011750D02*
X012969Y011750D01*
X012975Y011724D02*
X012722Y011724D01*
X012724Y011665D02*
X012988Y011665D01*
X012997Y011607D02*
X012729Y011607D01*
X012734Y011548D02*
X013015Y011548D01*
X013028Y011490D02*
X012740Y011490D01*
X012745Y011431D02*
X013055Y011431D01*
X013036Y011454D02*
X013036Y011454D01*
X013094Y011373D02*
X012740Y011373D01*
X012728Y011314D02*
X013148Y011314D01*
X013194Y011256D02*
X012717Y011256D01*
X012705Y011197D02*
X013266Y011197D01*
X013226Y011217D02*
X013226Y011217D01*
X013386Y011139D02*
X012694Y011139D01*
X013080Y012484D02*
X014842Y012484D01*
X014849Y012498D02*
X014849Y012498D01*
X014884Y012543D02*
X013157Y012543D01*
X013237Y012601D02*
X014929Y012601D01*
X014956Y012637D02*
X014956Y012637D01*
X014974Y012660D02*
X013314Y012660D01*
X013359Y012718D02*
X015020Y012718D01*
X015051Y012759D02*
X015051Y012759D01*
X015081Y012777D02*
X013405Y012777D01*
X013450Y012835D02*
X015177Y012835D01*
X015273Y012894D02*
X013495Y012894D01*
X013540Y012952D02*
X015493Y012952D01*
X015620Y012976D02*
X015620Y012976D01*
X016517Y012250D02*
X017136Y012250D01*
X017089Y012192D02*
X016546Y012192D01*
X016550Y012185D02*
X016550Y012185D01*
X016564Y012133D02*
X017038Y012133D01*
X016996Y012075D02*
X016581Y012075D01*
X016598Y012016D02*
X016966Y012016D01*
X016953Y011958D02*
X016614Y011958D01*
X016631Y011899D02*
X016937Y011899D01*
X016926Y011841D02*
X016646Y011841D01*
X016651Y011782D02*
X016913Y011782D01*
X016906Y011750D02*
X016906Y011750D01*
X016912Y011724D02*
X016656Y011724D01*
X016656Y011721D02*
X016656Y011721D01*
X016661Y011665D02*
X016925Y011665D01*
X016935Y011607D02*
X016670Y011607D01*
X016680Y011548D02*
X016952Y011548D01*
X016965Y011490D02*
X016701Y011490D01*
X016722Y011431D02*
X016992Y011431D01*
X016973Y011454D02*
X016973Y011454D01*
X017033Y011373D02*
X016743Y011373D01*
X016766Y011314D02*
X017085Y011314D01*
X017131Y011256D02*
X016808Y011256D01*
X016849Y011197D02*
X017203Y011197D01*
X017163Y011217D02*
X017163Y011217D01*
X017324Y011139D02*
X016890Y011139D01*
X018080Y012543D02*
X018080Y012543D01*
X019460Y014239D02*
X019629Y014239D01*
X019787Y014532D02*
X020306Y014532D01*
X020239Y014502D02*
X020239Y014502D01*
X020435Y014590D02*
X019913Y014590D01*
X020001Y014649D02*
X020569Y014649D01*
X020560Y014647D02*
X020560Y014647D01*
X020816Y014707D02*
X020047Y014707D01*
X020095Y014766D02*
X027577Y014766D01*
X027553Y014824D02*
X020141Y014824D01*
X020172Y014864D02*
X020172Y014864D01*
X020177Y014883D02*
X027528Y014883D01*
X027532Y014864D02*
X027532Y014864D01*
X027504Y014941D02*
X020190Y014941D01*
X020203Y015000D02*
X027480Y015000D01*
X027477Y015058D02*
X020217Y015058D01*
X020230Y015117D02*
X027475Y015117D01*
X027465Y015160D02*
X027465Y015160D01*
X027468Y015175D02*
X020236Y015175D01*
X020223Y015234D02*
X027477Y015234D01*
X027485Y015292D02*
X020210Y015292D01*
X020196Y015351D02*
X027508Y015351D01*
X027522Y015409D02*
X020183Y015409D01*
X020163Y015468D02*
X027542Y015468D01*
X027532Y015456D02*
X027532Y015456D01*
X027588Y015526D02*
X020116Y015526D01*
X020070Y015585D02*
X021086Y015585D01*
X020686Y015643D02*
X020023Y015643D01*
X019966Y015702D02*
X020496Y015702D01*
X020367Y015760D02*
X019844Y015760D01*
X019723Y015819D02*
X020238Y015819D01*
X020239Y015818D02*
X020239Y015818D01*
X020156Y015877D02*
X018800Y015877D01*
X018662Y015842D02*
X018662Y015842D01*
X019002Y015928D02*
X019002Y015928D01*
X019018Y015936D02*
X020069Y015936D01*
X019963Y015994D02*
X019143Y015994D01*
X019304Y016053D02*
X019804Y016053D01*
X018311Y015823D02*
X018311Y015823D01*
X018088Y015854D02*
X018088Y015854D01*
X017984Y015868D02*
X017984Y015868D01*
X017632Y016111D02*
X013534Y016111D01*
X013584Y016170D02*
X017582Y016170D01*
X017532Y016228D02*
X013634Y016228D01*
X013679Y016281D02*
X013679Y016281D01*
X013681Y016287D02*
X017499Y016287D01*
X017512Y016252D02*
X017512Y016252D01*
X017478Y016345D02*
X013702Y016345D01*
X013723Y016404D02*
X017458Y016404D01*
X017437Y016462D02*
X013744Y016462D01*
X013765Y016521D02*
X017416Y016521D01*
X017409Y016579D02*
X013782Y016579D01*
X013782Y016569D02*
X013782Y016569D01*
X013781Y016638D02*
X017410Y016638D01*
X017411Y016696D02*
X013780Y016696D01*
X013779Y016755D02*
X017413Y016755D01*
X017414Y016813D02*
X013778Y016813D01*
X013777Y016872D02*
X017423Y016872D01*
X017415Y016853D02*
X017415Y016853D01*
X017446Y016930D02*
X013755Y016930D01*
X013777Y016875D02*
X013777Y016875D01*
X013732Y016989D02*
X017470Y016989D01*
X017455Y016950D02*
X017455Y016950D01*
X017492Y017042D02*
X017492Y017042D01*
X017494Y017047D02*
X013709Y017047D01*
X013721Y017017D02*
X013721Y017017D01*
X013686Y017106D02*
X017518Y017106D01*
X017540Y017159D02*
X017540Y017159D01*
X017543Y017164D02*
X013663Y017164D01*
X013639Y017223D02*
X017581Y017223D01*
X017620Y017281D02*
X013607Y017281D01*
X013562Y017340D02*
X017658Y017340D01*
X017732Y017453D02*
X017732Y017453D01*
X017976Y017705D01*
X017976Y017705D01*
X018080Y017777D01*
X018080Y017777D01*
X018121Y017805D01*
X018121Y017805D01*
X018217Y017882D01*
X018374Y018069D01*
X018478Y018292D01*
X018519Y018533D01*
X018516Y018656D01*
X018511Y018706D01*
X018511Y018706D01*
X018500Y018831D01*
X018500Y018831D01*
X018534Y019181D01*
X018534Y019181D01*
X018635Y019518D01*
X018635Y019518D01*
X018694Y019630D01*
X018694Y019631D01*
X018717Y019674D01*
X018740Y019718D01*
X018740Y019718D01*
X018829Y019884D01*
X018829Y019885D01*
X018852Y019928D01*
X018875Y019971D01*
X018876Y019972D01*
X018844Y019914D02*
X017852Y019914D01*
X017797Y019855D02*
X018813Y019855D01*
X018782Y019797D02*
X017742Y019797D01*
X017687Y019738D02*
X018751Y019738D01*
X018720Y019680D02*
X017625Y019680D01*
X017544Y019621D02*
X018690Y019621D01*
X018659Y019563D02*
X017462Y019563D01*
X017381Y019504D02*
X018631Y019504D01*
X018614Y019446D02*
X017265Y019446D01*
X017245Y019437D02*
X017245Y019437D01*
X017147Y019387D02*
X018596Y019387D01*
X018579Y019329D02*
X017058Y019329D01*
X016987Y019270D02*
X018561Y019270D01*
X018544Y019212D02*
X017822Y019212D01*
X017734Y019249D02*
X017470Y019249D01*
X017437Y019235D01*
X017431Y019233D01*
X017226Y019148D01*
X017200Y019121D01*
X017163Y019103D01*
X017088Y019009D01*
X017040Y018961D01*
X017029Y018936D01*
X016973Y018866D01*
X016973Y018866D01*
X016940Y018721D01*
X016939Y018717D01*
X016939Y018714D01*
X016906Y018570D01*
X016906Y018570D01*
X016973Y018273D01*
X017163Y018036D01*
X017437Y017904D01*
X017740Y017904D01*
X018014Y018036D01*
X018110Y018156D01*
X018164Y018210D01*
X018176Y018238D01*
X018204Y018273D01*
X018204Y018273D01*
X018220Y018345D01*
X018265Y018454D01*
X018265Y018542D01*
X018271Y018570D01*
X018265Y018597D01*
X018265Y018717D01*
X018204Y018865D01*
X018204Y018866D01*
X018203Y018866D01*
X018164Y018961D01*
X017977Y019148D01*
X017734Y019249D01*
X017964Y019153D02*
X018532Y019153D01*
X018526Y019095D02*
X018030Y019095D01*
X018089Y019036D02*
X018520Y019036D01*
X018514Y018978D02*
X018147Y018978D01*
X018181Y018919D02*
X018508Y018919D01*
X018502Y018861D02*
X018206Y018861D01*
X018204Y018866D02*
X018204Y018866D01*
X018230Y018802D02*
X018502Y018802D01*
X018508Y018744D02*
X018254Y018744D01*
X018265Y018685D02*
X018513Y018685D01*
X018517Y018627D02*
X018265Y018627D01*
X018271Y018568D02*
X018518Y018568D01*
X018515Y018510D02*
X018265Y018510D01*
X018264Y018451D02*
X018505Y018451D01*
X018495Y018393D02*
X018240Y018393D01*
X018218Y018334D02*
X018485Y018334D01*
X018470Y018276D02*
X018204Y018276D01*
X018167Y018217D02*
X018443Y018217D01*
X018416Y018159D02*
X018113Y018159D01*
X018066Y018100D02*
X018389Y018100D01*
X018351Y018042D02*
X018019Y018042D01*
X018014Y018036D02*
X018014Y018036D01*
X018014Y018036D01*
X017906Y017983D02*
X018302Y017983D01*
X018253Y017925D02*
X017784Y017925D01*
X017963Y017691D02*
X016290Y017691D01*
X016335Y017749D02*
X018041Y017749D01*
X018124Y017808D02*
X016380Y017808D01*
X016391Y017822D02*
X016391Y017822D01*
X016414Y017866D02*
X018197Y017866D01*
X017906Y017632D02*
X016244Y017632D01*
X016199Y017574D02*
X017849Y017574D01*
X017793Y017515D02*
X016114Y017515D01*
X016189Y017561D02*
X016189Y017561D01*
X016189Y017561D01*
X016017Y017457D02*
X017736Y017457D01*
X017393Y017925D02*
X016443Y017925D01*
X016473Y017983D02*
X017271Y017983D01*
X017163Y018036D02*
X017163Y018036D01*
X017158Y018042D02*
X016503Y018042D01*
X016532Y018100D02*
X017111Y018100D01*
X017065Y018159D02*
X016556Y018159D01*
X016573Y018217D02*
X017018Y018217D01*
X016973Y018273D02*
X016973Y018273D01*
X016973Y018276D02*
X016590Y018276D01*
X016606Y018334D02*
X016959Y018334D01*
X016946Y018393D02*
X016623Y018393D01*
X016639Y018451D02*
X016933Y018451D01*
X016919Y018510D02*
X016649Y018510D01*
X016654Y018568D02*
X016906Y018568D01*
X016919Y018627D02*
X016659Y018627D01*
X016656Y018599D02*
X016656Y018599D01*
X016666Y018685D02*
X016932Y018685D01*
X016946Y018744D02*
X016675Y018744D01*
X016691Y018802D02*
X016959Y018802D01*
X016972Y018861D02*
X016712Y018861D01*
X016733Y018919D02*
X017016Y018919D01*
X017057Y018978D02*
X016755Y018978D01*
X016788Y019036D02*
X017109Y019036D01*
X017156Y019095D02*
X016829Y019095D01*
X016870Y019153D02*
X017240Y019153D01*
X017163Y019103D02*
X017163Y019103D01*
X017163Y019103D01*
X017381Y019212D02*
X016917Y019212D01*
X017437Y019235D02*
X017437Y019235D01*
X018745Y021376D02*
X018837Y021540D01*
X018838Y021541D01*
X018861Y021583D01*
X018885Y021625D01*
X018885Y021627D01*
X018976Y021792D01*
X018977Y021793D01*
X019000Y021835D01*
X019023Y021878D01*
X019023Y021879D01*
X019112Y022045D01*
X019113Y022046D01*
X019136Y022089D01*
X019159Y022132D01*
X019159Y022133D01*
X019247Y022300D01*
X019248Y022301D01*
X019270Y022344D01*
X019292Y022387D01*
X019292Y022388D01*
X019379Y022556D01*
X019380Y022557D01*
X019401Y022600D01*
X019423Y022644D01*
X019423Y022645D01*
X019508Y022814D01*
X019509Y022815D01*
X019530Y022858D01*
X019552Y022901D01*
X019521Y022839D02*
X020633Y022839D01*
X020594Y022780D02*
X019491Y022780D01*
X019462Y022722D02*
X020553Y022722D01*
X020513Y022663D02*
X019433Y022663D01*
X019404Y022605D02*
X020473Y022605D01*
X020434Y022546D02*
X019374Y022546D01*
X019344Y022488D02*
X020395Y022488D01*
X020355Y022429D02*
X019314Y022429D01*
X019284Y022371D02*
X020316Y022371D01*
X020278Y022312D02*
X019254Y022312D01*
X019222Y022254D02*
X020239Y022254D01*
X020200Y022195D02*
X019192Y022195D01*
X019161Y022137D02*
X020162Y022137D01*
X020124Y022078D02*
X019130Y022078D01*
X019099Y022020D02*
X020086Y022020D01*
X020049Y021961D02*
X019067Y021961D01*
X019036Y021903D02*
X020011Y021903D01*
X019974Y021844D02*
X019005Y021844D01*
X018973Y021786D02*
X019937Y021786D01*
X019900Y021727D02*
X018940Y021727D01*
X018908Y021669D02*
X019863Y021669D01*
X019827Y021610D02*
X018876Y021610D01*
X018844Y021552D02*
X019790Y021552D01*
X019754Y021493D02*
X018811Y021493D01*
X018778Y021435D02*
X019718Y021435D01*
X020257Y024477D02*
X022951Y024477D01*
X022877Y024535D02*
X020265Y024535D01*
X020273Y024594D02*
X022830Y024594D01*
X022779Y024652D02*
X020280Y024652D01*
X020288Y024711D02*
X022737Y024711D01*
X022710Y024769D02*
X020295Y024769D01*
X020303Y024828D02*
X022696Y024828D01*
X022681Y024886D02*
X020310Y024886D01*
X020318Y024945D02*
X022670Y024945D01*
X022656Y025003D02*
X020312Y025003D01*
X020303Y025062D02*
X022657Y025062D01*
X022670Y025120D02*
X020294Y025120D01*
X020285Y025179D02*
X022684Y025179D01*
X022697Y025237D02*
X020275Y025237D01*
X020266Y025296D02*
X022710Y025296D01*
X022739Y025354D02*
X022058Y025354D01*
X022353Y025530D02*
X022879Y025530D01*
X022955Y025588D02*
X022400Y025588D01*
X022446Y025647D02*
X023076Y025647D01*
X023207Y025881D02*
X022540Y025881D01*
X022551Y025939D02*
X023122Y025939D01*
X023029Y025998D02*
X022564Y025998D01*
X022524Y025822D02*
X023281Y025822D01*
X023356Y025764D02*
X022511Y025764D01*
X022493Y025705D02*
X023430Y025705D01*
X023971Y025237D02*
X024026Y025237D01*
X023995Y025179D02*
X024101Y025179D01*
X024175Y025120D02*
X024002Y025120D01*
X024009Y025062D02*
X024250Y025062D01*
X024314Y025003D02*
X024009Y025003D01*
X024002Y024945D02*
X024374Y024945D01*
X024434Y024886D02*
X023998Y024886D01*
X023974Y024828D02*
X024494Y024828D01*
X024554Y024769D02*
X023956Y024769D01*
X023928Y024711D02*
X024614Y024711D01*
X024674Y024652D02*
X023900Y024652D01*
X023842Y024594D02*
X024734Y024594D01*
X024794Y024535D02*
X023788Y024535D01*
X023758Y024498D02*
X023758Y024498D01*
X023725Y024477D02*
X024855Y024477D01*
X024915Y024418D02*
X023597Y024418D01*
X022850Y024360D02*
X024975Y024360D01*
X021884Y026700D02*
X020982Y026700D01*
X020976Y026641D02*
X021649Y026641D01*
X021507Y026583D02*
X020952Y026583D01*
X020938Y026524D02*
X021443Y026524D01*
X021388Y026466D02*
X020918Y026466D01*
X020875Y026407D02*
X021330Y026407D01*
X021298Y026349D02*
X020824Y026349D01*
X020778Y026290D02*
X021265Y026290D01*
X021250Y026232D02*
X020719Y026232D01*
X020597Y026173D02*
X021226Y026173D01*
X021216Y026115D02*
X020476Y026115D01*
X020150Y026115D02*
X019890Y026115D01*
X019838Y026173D02*
X020028Y026173D01*
X019907Y026232D02*
X019787Y026232D01*
X019735Y026290D02*
X019848Y026290D01*
X019801Y026349D02*
X019683Y026349D01*
X019623Y026407D02*
X019755Y026407D01*
X019708Y026466D02*
X019530Y026466D01*
X019437Y026524D02*
X019687Y026524D01*
X019674Y026583D02*
X019344Y026583D01*
X019251Y026641D02*
X019661Y026641D01*
X019647Y026700D02*
X019133Y026700D01*
X018927Y026758D02*
X019634Y026758D01*
X019640Y026817D02*
X018721Y026817D01*
X018515Y026875D02*
X019653Y026875D01*
X019662Y026934D02*
X018309Y026934D01*
X017985Y026992D02*
X019680Y026992D01*
X019693Y027051D02*
X017636Y027051D01*
X017288Y027109D02*
X019728Y027109D01*
X019760Y027168D02*
X016905Y027168D01*
X016238Y027402D02*
X020066Y027402D01*
X020179Y027460D02*
X016252Y027460D01*
X016276Y027519D02*
X020016Y027519D01*
X019854Y027577D02*
X016292Y027577D01*
X016292Y027636D02*
X019692Y027636D01*
X019530Y027694D02*
X016301Y027694D01*
X016292Y027753D02*
X019346Y027753D01*
X019107Y027811D02*
X016292Y027811D01*
X016272Y027870D02*
X018867Y027870D01*
X018628Y027928D02*
X016248Y027928D01*
X016233Y027987D02*
X018388Y027987D01*
X018149Y028045D02*
X016200Y028045D01*
X016152Y028104D02*
X017790Y028104D01*
X016204Y027343D02*
X019936Y027343D01*
X019868Y027285D02*
X016163Y027285D01*
X016104Y027226D02*
X019819Y027226D01*
X020878Y027168D02*
X020922Y027168D01*
X020904Y027109D02*
X021042Y027109D01*
X020933Y027051D02*
X021163Y027051D01*
X021283Y026992D02*
X020953Y026992D01*
X020977Y026934D02*
X021403Y026934D01*
X021524Y026875D02*
X020982Y026875D01*
X020986Y026817D02*
X021644Y026817D01*
X021764Y026758D02*
X020992Y026758D01*
X021212Y026056D02*
X019942Y026056D01*
X019994Y025998D02*
X021204Y025998D01*
X021216Y025939D02*
X020025Y025939D01*
X020053Y025881D02*
X021219Y025881D01*
X021243Y025822D02*
X020081Y025822D01*
X020108Y025764D02*
X021257Y025764D01*
X021275Y025705D02*
X020136Y025705D01*
X020163Y025647D02*
X021316Y025647D01*
X021368Y025588D02*
X020191Y025588D01*
X020219Y025530D02*
X021414Y025530D01*
X021466Y025471D02*
X020238Y025471D01*
X020248Y025413D02*
X021588Y025413D01*
X021709Y025354D02*
X020257Y025354D01*
X015315Y028279D02*
X015120Y028279D01*
X015194Y028221D02*
X015079Y028077D01*
X015067Y028065D01*
X015065Y028059D01*
X015005Y027984D01*
X015005Y027984D01*
X015007Y027987D02*
X012853Y027987D01*
X012543Y027928D02*
X014992Y027928D01*
X014979Y027870D02*
X012334Y027870D01*
X012140Y027811D02*
X014966Y027811D01*
X014952Y027753D02*
X011946Y027753D01*
X011752Y027694D02*
X014939Y027694D01*
X014937Y027687D02*
X014937Y027687D01*
X014949Y027636D02*
X011558Y027636D01*
X011364Y027577D02*
X014962Y027577D01*
X014976Y027519D02*
X011170Y027519D01*
X011160Y027402D02*
X015002Y027402D01*
X015005Y027391D02*
X015005Y027391D01*
X015043Y027343D02*
X011300Y027343D01*
X011372Y027285D02*
X015090Y027285D01*
X015136Y027226D02*
X011420Y027226D01*
X011478Y027168D02*
X014334Y027168D01*
X013953Y027109D02*
X011512Y027109D01*
X011542Y027072D02*
X011542Y027072D01*
X011547Y027051D02*
X013604Y027051D01*
X013255Y026992D02*
X011560Y026992D01*
X011583Y026934D02*
X012931Y026934D01*
X012725Y026875D02*
X011592Y026875D01*
X011600Y026817D02*
X012519Y026817D01*
X012313Y026758D02*
X011606Y026758D01*
X011593Y026700D02*
X012107Y026700D01*
X012062Y026687D02*
X012062Y026687D01*
X011989Y026641D02*
X011590Y026641D01*
X011566Y026583D02*
X011896Y026583D01*
X011803Y026524D02*
X011553Y026524D01*
X011542Y026479D02*
X011542Y026479D01*
X011532Y026466D02*
X011710Y026466D01*
X011617Y026407D02*
X011493Y026407D01*
X011439Y026349D02*
X011558Y026349D01*
X011506Y026290D02*
X011392Y026290D01*
X011333Y026232D02*
X011454Y026232D01*
X011402Y026173D02*
X011212Y026173D01*
X011090Y026115D02*
X011351Y026115D01*
X011299Y026056D02*
X010028Y026056D01*
X010036Y025998D02*
X011247Y025998D01*
X011239Y025989D02*
X011239Y025989D01*
X011216Y025939D02*
X010023Y025939D01*
X010020Y025881D02*
X011188Y025881D01*
X011160Y025822D02*
X009996Y025822D01*
X009983Y025764D02*
X011133Y025764D01*
X011105Y025705D02*
X009965Y025705D01*
X009971Y025713D02*
X009971Y025713D01*
X009923Y025647D02*
X011078Y025647D01*
X011050Y025588D02*
X009872Y025588D01*
X009826Y025530D02*
X011022Y025530D01*
X011003Y025471D02*
X009774Y025471D01*
X009652Y025413D02*
X010993Y025413D01*
X010984Y025354D02*
X009531Y025354D01*
X010022Y026115D02*
X010764Y026115D01*
X010643Y026173D02*
X010013Y026173D01*
X009989Y026232D02*
X010521Y026232D01*
X010501Y026241D02*
X010501Y026241D01*
X010462Y026290D02*
X009975Y026290D01*
X009941Y026349D02*
X010416Y026349D01*
X010366Y026407D02*
X009909Y026407D01*
X009850Y026466D02*
X010322Y026466D01*
X010312Y026479D02*
X010312Y026479D01*
X010302Y026524D02*
X009797Y026524D01*
X009731Y026583D02*
X010288Y026583D01*
X010269Y026641D02*
X009590Y026641D01*
X009487Y026758D02*
X010248Y026758D01*
X010244Y026775D02*
X010244Y026775D01*
X010254Y026817D02*
X009593Y026817D01*
X009699Y026875D02*
X010266Y026875D01*
X010276Y026934D02*
X009804Y026934D01*
X009920Y026992D02*
X010294Y026992D01*
X010307Y027051D02*
X010059Y027051D01*
X010198Y027109D02*
X010342Y027109D01*
X010336Y027168D02*
X010380Y027168D01*
X010262Y026700D02*
X009382Y026700D01*
X011029Y027460D02*
X014989Y027460D01*
X015054Y028045D02*
X013164Y028045D01*
X013474Y028104D02*
X015101Y028104D01*
X015147Y028162D02*
X013784Y028162D01*
X015194Y028221D02*
X015194Y028221D01*
X015194Y028221D01*
X012276Y026748D02*
X012276Y026748D01*
X005734Y022078D02*
X004945Y022078D01*
X005076Y022020D02*
X005695Y022020D01*
X005657Y021961D02*
X005188Y021961D01*
X005240Y021903D02*
X005619Y021903D01*
X005581Y021844D02*
X005292Y021844D01*
X005339Y021786D02*
X005542Y021786D01*
X005504Y021727D02*
X005380Y021727D01*
X005386Y021720D02*
X005386Y021720D01*
X005398Y021669D02*
X005466Y021669D01*
X005428Y021610D02*
X005412Y021610D01*
X003870Y017515D02*
X003478Y017515D01*
X003600Y017457D02*
X003872Y017457D01*
X003874Y017398D02*
X003671Y017398D01*
X003640Y017437D02*
X003640Y017437D01*
X003718Y017340D02*
X003876Y017340D01*
X003878Y017295D02*
X003878Y017295D01*
X003882Y017281D02*
X003775Y017281D01*
X003811Y017223D02*
X003902Y017223D01*
X003922Y017164D02*
X003838Y017164D01*
X003852Y017106D02*
X003941Y017106D01*
X003961Y017047D02*
X003876Y017047D01*
X003882Y016989D02*
X003980Y016989D01*
X004000Y016930D02*
X003891Y016930D01*
X003897Y016903D02*
X003897Y016903D01*
X003890Y016872D02*
X004019Y016872D01*
X004039Y016813D02*
X003882Y016813D01*
X003877Y016755D02*
X004066Y016755D01*
X004107Y016696D02*
X003853Y016696D01*
X003837Y016638D02*
X004148Y016638D01*
X004188Y016579D02*
X003807Y016579D01*
X003830Y016607D02*
X003830Y016607D01*
X003779Y016521D02*
X004229Y016521D01*
X004269Y016462D02*
X003720Y016462D01*
X003667Y016404D02*
X004310Y016404D01*
X004350Y016345D02*
X003603Y016345D01*
X003640Y016370D02*
X003640Y016370D01*
X003640Y016370D01*
X003474Y016287D02*
X004415Y016287D01*
X003605Y015585D02*
X007738Y015585D01*
X009892Y015585D02*
X011155Y015585D01*
X011107Y015526D02*
X003652Y015526D01*
X003698Y015468D02*
X011077Y015468D01*
X011068Y015456D02*
X011068Y015456D01*
X011057Y015409D02*
X003718Y015409D01*
X003708Y015456D02*
X003708Y015456D01*
X003732Y015351D02*
X011034Y015351D01*
X011013Y015292D02*
X003745Y015292D01*
X003758Y015234D02*
X011013Y015234D01*
X011004Y015175D02*
X003772Y015175D01*
X003765Y015117D02*
X011010Y015117D01*
X011000Y015160D02*
X011000Y015160D01*
X011013Y015058D02*
X003752Y015058D01*
X003739Y015000D02*
X011028Y015000D01*
X011050Y014941D02*
X003725Y014941D01*
X003712Y014883D02*
X011063Y014883D01*
X011099Y014824D02*
X003676Y014824D01*
X003708Y014864D02*
X003708Y014864D01*
X010451Y015610D02*
X010451Y015610D01*
X010548Y015643D02*
X011213Y015643D01*
X011257Y015694D02*
X011257Y015694D01*
X011257Y015694D01*
X011272Y015702D02*
X010720Y015702D01*
X010892Y015760D02*
X011373Y015760D01*
X011514Y015819D02*
X011000Y015819D01*
X010939Y015776D02*
X010939Y015776D01*
X011083Y015877D02*
X012526Y015877D01*
X012232Y015936D02*
X011170Y015936D01*
X011276Y015994D02*
X012099Y015994D01*
X011948Y016053D02*
X011434Y016053D01*
X012034Y014590D02*
X014973Y014590D01*
X015032Y014532D02*
X011913Y014532D01*
X011777Y014239D02*
X011605Y014239D01*
X011039Y014473D02*
X012752Y014473D01*
X012805Y014481D02*
X012805Y014481D01*
X012854Y014473D02*
X015090Y014473D01*
X015172Y014415D02*
X013223Y014415D01*
X013213Y014420D02*
X013213Y014420D01*
X013015Y014450D02*
X013015Y014450D01*
X013015Y014450D01*
X013013Y014450D02*
X013013Y014450D01*
X013115Y017808D02*
X014860Y017808D01*
X014849Y017822D02*
X014849Y017822D01*
X014826Y017866D02*
X013043Y017866D01*
X013847Y017925D02*
X014797Y017925D01*
X014767Y017983D02*
X013983Y017983D01*
X014077Y018036D02*
X014077Y018036D01*
X014077Y018036D01*
X014082Y018042D02*
X014737Y018042D01*
X014708Y018100D02*
X014134Y018100D01*
X014192Y018159D02*
X014683Y018159D01*
X014690Y018135D02*
X014690Y018135D01*
X014667Y018217D02*
X014237Y018217D01*
X014267Y018276D02*
X014650Y018276D01*
X014634Y018334D02*
X014286Y018334D01*
X014310Y018393D02*
X014617Y018393D01*
X014601Y018451D02*
X014328Y018451D01*
X014328Y018510D02*
X014591Y018510D01*
X014594Y018473D02*
X014594Y018473D01*
X014586Y018568D02*
X014334Y018568D01*
X014328Y018627D02*
X014581Y018627D01*
X014574Y018685D02*
X014328Y018685D01*
X014311Y018744D02*
X014565Y018744D01*
X014549Y018802D02*
X014286Y018802D01*
X014268Y018861D02*
X014528Y018861D01*
X014507Y018919D02*
X014238Y018919D01*
X014267Y018866D02*
X014267Y018866D01*
X014194Y018978D02*
X014485Y018978D01*
X014452Y019036D02*
X014136Y019036D01*
X014084Y019095D02*
X014411Y019095D01*
X014370Y019153D02*
X013988Y019153D01*
X014077Y019103D02*
X014077Y019103D01*
X013852Y019212D02*
X014323Y019212D01*
X018088Y014466D02*
X018088Y014466D01*
X023510Y015585D02*
X027635Y015585D01*
X027682Y015643D02*
X024545Y015643D01*
X025227Y015702D02*
X027739Y015702D01*
X027860Y015760D02*
X025785Y015760D01*
X025952Y015779D02*
X025952Y015779D01*
X026047Y015819D02*
X027982Y015819D01*
X028279Y016287D02*
X028696Y016287D01*
X028693Y016345D02*
X028401Y016345D01*
X028451Y016370D02*
X028451Y016370D01*
X028451Y016370D01*
X028479Y016404D02*
X028690Y016404D01*
X028687Y016462D02*
X028525Y016462D01*
X028579Y016521D02*
X028684Y016521D01*
X028678Y016579D02*
X028619Y016579D01*
X028648Y016638D02*
X028669Y016638D01*
X028555Y017340D02*
X028537Y017340D01*
X028546Y017398D02*
X028482Y017398D01*
X028451Y017437D02*
X028451Y017437D01*
X028420Y017457D02*
X028537Y017457D01*
X028527Y017515D02*
X028299Y017515D01*
X027635Y014707D02*
X024064Y014707D01*
X024879Y014649D02*
X027693Y014649D01*
X027752Y014590D02*
X025490Y014590D01*
X025952Y014540D02*
X025952Y014540D01*
X025971Y014532D02*
X027876Y014532D01*
X028216Y014064D02*
X028698Y014064D01*
X028695Y014005D02*
X028357Y014005D01*
X028451Y013950D02*
X028451Y013950D01*
X028454Y013947D02*
X028691Y013947D01*
X028688Y013888D02*
X028508Y013888D01*
X028567Y013830D02*
X028685Y013830D01*
X028682Y013771D02*
X028611Y013771D01*
X028641Y013713D02*
X028674Y013713D01*
X028641Y013713D02*
X028641Y013713D01*
X028660Y013654D02*
X028664Y013654D01*
X028551Y012952D02*
X028510Y012952D01*
X028542Y012894D02*
X028460Y012894D01*
X028451Y012883D02*
X028451Y012883D01*
X028451Y012883D01*
X028532Y012835D02*
X028362Y012835D01*
X028232Y012777D02*
X028523Y012777D01*
X025835Y008682D02*
X025794Y008682D01*
X025756Y008623D02*
X025849Y008623D01*
X025854Y008600D02*
X025854Y008600D01*
X025882Y008565D02*
X025718Y008565D01*
X025680Y008506D02*
X025925Y008506D01*
X025975Y008448D02*
X025641Y008448D01*
X025603Y008389D02*
X026022Y008389D01*
X026109Y008331D02*
X025565Y008331D01*
X025527Y008272D02*
X026230Y008272D01*
X011712Y009192D02*
X011712Y009193D01*
X011712Y009192D02*
X011687Y009150D01*
D12*
X004001Y010931D03*
X003904Y011316D03*
X003807Y011700D03*
X003699Y012093D03*
X003612Y012478D03*
X003092Y012320D03*
X003179Y011935D03*
X003276Y011551D03*
X003363Y011166D03*
X003459Y010792D03*
D13*
X005499Y015449D03*
X005839Y015559D03*
X006270Y015531D03*
X006640Y015502D03*
X007009Y015473D03*
X007379Y015443D03*
X007748Y015424D03*
X005179Y015629D03*
X011912Y022117D03*
X011748Y022454D03*
X011584Y022781D03*
X011421Y023117D03*
X011257Y023444D03*
X011087Y023824D03*
X010826Y024059D03*
X010831Y024413D03*
X019789Y021841D03*
X020005Y022165D03*
X020211Y022479D03*
X020417Y022782D03*
X020623Y023086D03*
X020852Y023422D03*
X020925Y023765D03*
X021233Y023938D03*
X023513Y014885D03*
X023882Y014859D03*
X024251Y014833D03*
X024620Y014808D03*
X024989Y014782D03*
X025396Y014759D03*
X025732Y014862D03*
X026033Y014676D03*
X019312Y008203D03*
X019480Y007874D03*
X019648Y007544D03*
X019816Y007214D03*
X019984Y006874D03*
X020167Y006512D03*
X020424Y006272D03*
X020413Y005919D03*
X011445Y008454D03*
X011245Y008147D03*
X011044Y007839D03*
X010843Y007532D03*
X010633Y007225D03*
X010390Y006895D03*
X010323Y006550D03*
X010018Y006372D03*
M02*
