%
M48
M72
T01C0.0160
T02C0.0200
T03C0.0433
T04C0.1290
%
T01
X4673Y7931
X4998Y7931
X5328Y7941
X5168Y8216
X4828Y8221
T02
X7188Y12196
X7028Y12496
X7368Y12496
X7528Y12196
X7708Y12496
X7868Y12196
X8208Y12196
X8048Y12496
X8388Y12496
X8548Y12196
X8888Y12196
X8728Y12496
X12998Y15186
X13288Y15356
X12998Y15526
X13288Y15696
X12998Y15866
X13288Y16036
X12998Y16206
X13288Y16376
X12998Y16546
X13288Y16716
X12998Y16886
X13288Y17056
X16388Y11176
X16218Y10886
X16558Y10886
X16728Y11176
X16898Y10886
X17068Y11176
X17238Y10886
X17408Y11176
X17578Y10886
X17748Y11176
X17918Y10886
X18088Y11176
X11898Y8066
X11608Y7896
X11608Y7556
X11898Y7726
X11898Y7386
X11608Y7216
X11898Y7046
X11898Y6706
X11608Y6876
X11608Y6536
X11898Y6366
X11608Y6196
T03
X6543Y5781
X12459Y3342
X18354Y5771
X20803Y11676
X18357Y17601
X12449Y20041
X6554Y17592
X4102Y11686
T04
X12449Y11686
M30
