G75*
G70*
%OFA0B0*%
%FSLAX24Y24*%
%IPPOS*%
%LPD*%
%AMOC8*
5,1,8,0,0,1.08239X$1,22.5*
%
%ADD10R,0.1000X0.0500*%
%ADD11C,0.0060*%
%ADD12C,0.0320*%
D10*
G36*
X025515Y015370D02*
X025016Y016236D01*
X025449Y016486D01*
X025948Y015620D01*
X025515Y015370D01*
G37*
D11*
X016161Y010728D02*
X015669Y011774D01*
X015312Y012872D01*
X015096Y014007D01*
X015096Y014007D01*
X015023Y015160D01*
X015096Y016313D01*
X015312Y017448D01*
X015669Y018546D01*
X016161Y019592D01*
X016780Y020567D01*
X017516Y021457D01*
X018359Y022248D01*
X019293Y022927D01*
X020305Y023484D01*
X021380Y023909D01*
X022499Y024196D01*
X023645Y024341D01*
X024800Y024341D01*
X025946Y024196D01*
X027065Y023909D01*
X028139Y023484D01*
X029151Y022927D01*
X030086Y022248D01*
X030928Y021457D01*
X031665Y020567D01*
X032284Y019592D01*
X032775Y018546D01*
X033132Y017448D01*
X033349Y016313D01*
X033421Y015160D01*
X033349Y014007D01*
X033132Y012872D01*
X032775Y011774D01*
X032284Y010728D01*
X031665Y009753D01*
X030928Y008863D01*
X030086Y008072D01*
X029151Y007393D01*
X028139Y006836D01*
X027065Y006411D01*
X025946Y006124D01*
X024800Y005979D01*
X023645Y005979D01*
X022499Y006124D01*
X021380Y006411D01*
X020305Y006836D01*
X019293Y007393D01*
X018359Y008072D01*
X017516Y008863D01*
X016780Y009753D01*
X016161Y010728D01*
X016161Y010729D02*
X018124Y010729D01*
X018164Y010671D02*
X016197Y010671D01*
X016235Y010612D02*
X018203Y010612D01*
X018243Y010554D02*
X016272Y010554D01*
X016309Y010495D02*
X018285Y010495D01*
X018276Y010505D02*
X018986Y009718D01*
X018986Y009718D01*
X018986Y009718D01*
X019393Y009378D01*
X019431Y009347D01*
X019431Y009347D01*
X019502Y009287D01*
X019502Y009287D01*
X019778Y009214D01*
X020058Y009264D01*
X020058Y009264D01*
X020292Y009427D01*
X020292Y009427D01*
X020292Y009427D01*
X020338Y009507D01*
X020338Y009507D01*
X022732Y013654D01*
X022734Y013657D01*
X022740Y013667D01*
X022759Y013700D01*
X022759Y013700D01*
X022802Y013776D01*
X022831Y014048D01*
X022746Y014308D01*
X022563Y014511D01*
X022313Y014622D01*
X022226Y014622D01*
X017292Y014622D01*
X017034Y014502D01*
X017034Y014502D01*
X016850Y014284D01*
X016776Y014009D01*
X016792Y013918D01*
X016792Y013918D01*
X016801Y013869D01*
X016892Y013346D01*
X017218Y012337D01*
X017682Y011384D01*
X018276Y010505D01*
X018276Y010505D01*
X018337Y010437D02*
X016346Y010437D01*
X016383Y010378D02*
X018390Y010378D01*
X018443Y010320D02*
X016420Y010320D01*
X016457Y010261D02*
X018496Y010261D01*
X018549Y010203D02*
X016494Y010203D01*
X016532Y010144D02*
X018601Y010144D01*
X018654Y010086D02*
X016569Y010086D01*
X016606Y010027D02*
X018707Y010027D01*
X018760Y009969D02*
X016643Y009969D01*
X016680Y009910D02*
X018813Y009910D01*
X018866Y009852D02*
X016717Y009852D01*
X016754Y009793D02*
X018918Y009793D01*
X018971Y009735D02*
X016795Y009735D01*
X016843Y009676D02*
X019036Y009676D01*
X019106Y009618D02*
X016892Y009618D01*
X016940Y009559D02*
X019176Y009559D01*
X019246Y009501D02*
X016988Y009501D01*
X017037Y009442D02*
X019316Y009442D01*
X019386Y009384D02*
X017085Y009384D01*
X017134Y009325D02*
X019457Y009325D01*
X019578Y009267D02*
X017182Y009267D01*
X017230Y009208D02*
X021407Y009208D01*
X021373Y009150D02*
X017279Y009150D01*
X017327Y009091D02*
X021339Y009091D01*
X021306Y009033D02*
X017376Y009033D01*
X017424Y008974D02*
X021272Y008974D01*
X021269Y008970D02*
X021269Y008970D01*
X021293Y009010D01*
X021294Y009013D01*
X021294Y009013D01*
X023674Y013135D01*
X023733Y013238D01*
X023733Y013238D01*
X023733Y013238D01*
X023955Y013399D01*
X023955Y013399D01*
X024222Y013456D01*
X024222Y013456D01*
X024490Y013399D01*
X024490Y013399D01*
X024711Y013238D01*
X024711Y013238D01*
X024711Y013238D01*
X024759Y013154D01*
X027175Y008970D01*
X027175Y008970D01*
X027222Y008889D01*
X027222Y008889D01*
X027247Y008606D01*
X027247Y008606D01*
X027150Y008338D01*
X027150Y008338D01*
X026948Y008136D01*
X026948Y008136D01*
X026815Y008087D01*
X026768Y008070D01*
X026768Y008070D01*
X026317Y007905D01*
X026317Y007905D01*
X025280Y007683D01*
X025280Y007683D01*
X024222Y007608D01*
X024222Y007608D01*
X023165Y007683D01*
X023165Y007683D01*
X022128Y007905D01*
X022128Y007905D01*
X021630Y008087D01*
X021583Y008104D01*
X021583Y008104D01*
X021496Y008136D01*
X021496Y008136D01*
X021295Y008338D01*
X021295Y008338D01*
X021198Y008606D01*
X021198Y008606D01*
X021223Y008889D01*
X021223Y008889D01*
X021269Y008970D01*
X021238Y008916D02*
X017472Y008916D01*
X017522Y008857D02*
X021220Y008857D01*
X021215Y008799D02*
X017584Y008799D01*
X017647Y008740D02*
X021210Y008740D01*
X021205Y008682D02*
X017709Y008682D01*
X017771Y008623D02*
X021199Y008623D01*
X021213Y008565D02*
X020256Y008565D01*
X020198Y008593D02*
X019894Y008593D01*
X019621Y008461D01*
X019621Y008461D01*
X019431Y008223D01*
X019364Y007927D01*
X019431Y007631D01*
X019621Y007393D01*
X019683Y007363D01*
X019685Y007362D01*
X019697Y007357D01*
X019894Y007262D01*
X019927Y007262D01*
X019929Y007261D01*
X020192Y007261D01*
X020194Y007262D01*
X020198Y007262D01*
X020223Y007274D01*
X020436Y007362D01*
X020464Y007389D01*
X020472Y007393D01*
X020489Y007415D01*
X020623Y007548D01*
X020652Y007619D01*
X020662Y007631D01*
X020667Y007656D01*
X020723Y007792D01*
X020723Y007902D01*
X020729Y007927D01*
X020723Y007952D01*
X020723Y008056D01*
X020671Y008183D01*
X020662Y008223D01*
X020662Y008223D01*
X020646Y008243D01*
X020623Y008299D01*
X020516Y008406D01*
X020472Y008461D01*
X020451Y008471D01*
X020436Y008486D01*
X020324Y008532D01*
X020198Y008593D01*
X020387Y008506D02*
X021234Y008506D01*
X021255Y008448D02*
X020483Y008448D01*
X020472Y008461D02*
X020472Y008461D01*
X020533Y008389D02*
X021276Y008389D01*
X021302Y008331D02*
X020591Y008331D01*
X020634Y008272D02*
X021360Y008272D01*
X021418Y008214D02*
X020664Y008214D01*
X020682Y008155D02*
X021477Y008155D01*
X021603Y008097D02*
X020706Y008097D01*
X020723Y008038D02*
X021762Y008038D01*
X021922Y007980D02*
X020723Y007980D01*
X020728Y007921D02*
X022082Y007921D01*
X022322Y007863D02*
X020723Y007863D01*
X020723Y007804D02*
X022596Y007804D01*
X022869Y007746D02*
X020704Y007746D01*
X020680Y007687D02*
X023142Y007687D01*
X023928Y007629D02*
X020660Y007629D01*
X020662Y007631D02*
X020662Y007631D01*
X020632Y007570D02*
X027819Y007570D01*
X027805Y007604D02*
X027833Y007535D01*
X027963Y007405D01*
X027972Y007393D01*
X027972Y007393D01*
X027977Y007391D01*
X028020Y007348D01*
X028264Y007247D01*
X028527Y007247D01*
X028771Y007348D01*
X028809Y007386D01*
X028824Y007393D01*
X028824Y007393D01*
X028824Y007393D01*
X028855Y007432D01*
X028958Y007535D01*
X028980Y007589D01*
X029013Y007631D01*
X029033Y007717D01*
X029059Y007779D01*
X029059Y007829D01*
X029081Y007927D01*
X029059Y008025D01*
X029059Y008042D01*
X029050Y008063D01*
X029013Y008223D01*
X029013Y008223D01*
X028824Y008461D01*
X028824Y008461D01*
X028550Y008593D01*
X028246Y008593D01*
X027972Y008461D01*
X027972Y008461D01*
X027972Y008461D01*
X027783Y008223D01*
X027753Y008093D01*
X027732Y008042D01*
X027732Y008001D01*
X027715Y007927D01*
X027732Y007853D01*
X027732Y007779D01*
X027770Y007687D01*
X027783Y007631D01*
X027783Y007631D01*
X027805Y007604D01*
X027785Y007629D02*
X024516Y007629D01*
X025302Y007687D02*
X027770Y007687D01*
X027746Y007746D02*
X025576Y007746D01*
X025849Y007804D02*
X027732Y007804D01*
X027730Y007863D02*
X026122Y007863D01*
X026363Y007921D02*
X027717Y007921D01*
X027715Y007927D02*
X027715Y007927D01*
X027727Y007980D02*
X026523Y007980D01*
X026682Y008038D02*
X027732Y008038D01*
X027754Y008097D02*
X026842Y008097D01*
X026968Y008155D02*
X027768Y008155D01*
X027781Y008214D02*
X027026Y008214D01*
X027084Y008272D02*
X027822Y008272D01*
X027783Y008223D02*
X027783Y008223D01*
X027869Y008331D02*
X027143Y008331D01*
X027168Y008389D02*
X027915Y008389D01*
X027962Y008448D02*
X027190Y008448D01*
X027211Y008506D02*
X028067Y008506D01*
X028188Y008565D02*
X027232Y008565D01*
X027245Y008623D02*
X030673Y008623D01*
X030611Y008565D02*
X028608Y008565D01*
X028729Y008506D02*
X030549Y008506D01*
X030486Y008448D02*
X028834Y008448D01*
X028881Y008389D02*
X030424Y008389D01*
X030362Y008331D02*
X028928Y008331D01*
X028974Y008272D02*
X030300Y008272D01*
X030237Y008214D02*
X029015Y008214D01*
X029029Y008155D02*
X030175Y008155D01*
X030113Y008097D02*
X029042Y008097D01*
X029059Y008038D02*
X030040Y008038D01*
X029959Y007980D02*
X029069Y007980D01*
X029080Y007921D02*
X029879Y007921D01*
X029798Y007863D02*
X029066Y007863D01*
X029059Y007804D02*
X029718Y007804D01*
X029637Y007746D02*
X029045Y007746D01*
X029026Y007687D02*
X029557Y007687D01*
X029476Y007629D02*
X029012Y007629D01*
X029013Y007631D02*
X029013Y007631D01*
X028972Y007570D02*
X029396Y007570D01*
X029315Y007512D02*
X028935Y007512D01*
X028876Y007453D02*
X029235Y007453D01*
X029154Y007395D02*
X028825Y007395D01*
X028742Y007336D02*
X029049Y007336D01*
X028942Y007278D02*
X028601Y007278D01*
X028729Y007161D02*
X019715Y007161D01*
X019609Y007219D02*
X028836Y007219D01*
X028623Y007102D02*
X019822Y007102D01*
X019928Y007044D02*
X028517Y007044D01*
X028410Y006985D02*
X020034Y006985D01*
X020141Y006927D02*
X028304Y006927D01*
X028197Y006868D02*
X020247Y006868D01*
X020372Y006810D02*
X028072Y006810D01*
X027924Y006751D02*
X020520Y006751D01*
X020668Y006693D02*
X027777Y006693D01*
X027629Y006634D02*
X020816Y006634D01*
X020963Y006576D02*
X027481Y006576D01*
X027333Y006517D02*
X021111Y006517D01*
X021259Y006459D02*
X027186Y006459D01*
X027023Y006400D02*
X021421Y006400D01*
X021649Y006342D02*
X026795Y006342D01*
X026568Y006283D02*
X021877Y006283D01*
X022105Y006225D02*
X026340Y006225D01*
X026112Y006166D02*
X022333Y006166D01*
X022625Y006108D02*
X025820Y006108D01*
X025357Y006049D02*
X023088Y006049D01*
X023551Y005991D02*
X024894Y005991D01*
X027856Y007512D02*
X020586Y007512D01*
X020528Y007453D02*
X027915Y007453D01*
X027971Y007395D02*
X020473Y007395D01*
X020375Y007336D02*
X028049Y007336D01*
X028190Y007278D02*
X020234Y007278D01*
X019860Y007278D02*
X019502Y007278D01*
X019396Y007336D02*
X019739Y007336D01*
X019621Y007393D02*
X019621Y007393D01*
X019619Y007395D02*
X019290Y007395D01*
X019210Y007453D02*
X019573Y007453D01*
X019526Y007512D02*
X019129Y007512D01*
X019049Y007570D02*
X019480Y007570D01*
X019433Y007629D02*
X018968Y007629D01*
X018888Y007687D02*
X019418Y007687D01*
X019431Y007631D02*
X019431Y007631D01*
X019405Y007746D02*
X018807Y007746D01*
X018727Y007804D02*
X019392Y007804D01*
X019378Y007863D02*
X018646Y007863D01*
X018566Y007921D02*
X019365Y007921D01*
X019364Y007927D02*
X019364Y007927D01*
X019376Y007980D02*
X018485Y007980D01*
X018405Y008038D02*
X019389Y008038D01*
X019402Y008097D02*
X018332Y008097D01*
X018270Y008155D02*
X019416Y008155D01*
X019429Y008214D02*
X018207Y008214D01*
X018145Y008272D02*
X019470Y008272D01*
X019431Y008223D02*
X019431Y008223D01*
X019517Y008331D02*
X018083Y008331D01*
X018020Y008389D02*
X019564Y008389D01*
X019610Y008448D02*
X017958Y008448D01*
X017896Y008506D02*
X019715Y008506D01*
X019621Y008461D02*
X019621Y008461D01*
X019837Y008565D02*
X017834Y008565D01*
X019778Y009214D02*
X019778Y009214D01*
X020063Y009267D02*
X021441Y009267D01*
X021475Y009325D02*
X020146Y009325D01*
X020230Y009384D02*
X021508Y009384D01*
X021542Y009442D02*
X020300Y009442D01*
X020334Y009501D02*
X021576Y009501D01*
X021610Y009559D02*
X020368Y009559D01*
X020402Y009618D02*
X021643Y009618D01*
X021677Y009676D02*
X020435Y009676D01*
X020469Y009735D02*
X021711Y009735D01*
X021745Y009793D02*
X020503Y009793D01*
X020537Y009852D02*
X021779Y009852D01*
X021812Y009910D02*
X020571Y009910D01*
X020604Y009969D02*
X021846Y009969D01*
X021880Y010027D02*
X020638Y010027D01*
X020672Y010086D02*
X021914Y010086D01*
X021947Y010144D02*
X020706Y010144D01*
X020739Y010203D02*
X021981Y010203D01*
X022015Y010261D02*
X020773Y010261D01*
X020807Y010320D02*
X022049Y010320D01*
X022083Y010378D02*
X020841Y010378D01*
X020875Y010437D02*
X022116Y010437D01*
X022150Y010495D02*
X020908Y010495D01*
X020942Y010554D02*
X022184Y010554D01*
X022218Y010612D02*
X020976Y010612D01*
X021010Y010671D02*
X022251Y010671D01*
X022285Y010729D02*
X021043Y010729D01*
X021077Y010788D02*
X022319Y010788D01*
X022353Y010846D02*
X021111Y010846D01*
X021145Y010905D02*
X022387Y010905D01*
X022420Y010963D02*
X021178Y010963D01*
X021212Y011022D02*
X022454Y011022D01*
X022488Y011080D02*
X021246Y011080D01*
X021280Y011139D02*
X022522Y011139D01*
X022555Y011197D02*
X021314Y011197D01*
X021347Y011256D02*
X022589Y011256D01*
X022623Y011314D02*
X021381Y011314D01*
X021415Y011373D02*
X022657Y011373D01*
X022690Y011431D02*
X021449Y011431D01*
X021482Y011490D02*
X022724Y011490D01*
X022758Y011548D02*
X021516Y011548D01*
X021550Y011607D02*
X022792Y011607D01*
X022826Y011665D02*
X021584Y011665D01*
X021618Y011724D02*
X022859Y011724D01*
X022893Y011782D02*
X021651Y011782D01*
X021685Y011841D02*
X022927Y011841D01*
X022961Y011899D02*
X021719Y011899D01*
X021753Y011958D02*
X022994Y011958D01*
X023028Y012016D02*
X021786Y012016D01*
X021820Y012075D02*
X023062Y012075D01*
X023096Y012133D02*
X021854Y012133D01*
X021888Y012192D02*
X023130Y012192D01*
X023163Y012250D02*
X021922Y012250D01*
X021955Y012309D02*
X023197Y012309D01*
X023231Y012367D02*
X021989Y012367D01*
X022023Y012426D02*
X023265Y012426D01*
X023298Y012484D02*
X022057Y012484D01*
X022090Y012543D02*
X023332Y012543D01*
X023366Y012601D02*
X022124Y012601D01*
X022158Y012660D02*
X023400Y012660D01*
X023434Y012718D02*
X022192Y012718D01*
X022226Y012777D02*
X023467Y012777D01*
X023501Y012835D02*
X022259Y012835D01*
X022293Y012894D02*
X023535Y012894D01*
X023569Y012952D02*
X022327Y012952D01*
X022361Y013011D02*
X023602Y013011D01*
X023636Y013069D02*
X022394Y013069D01*
X022428Y013128D02*
X023670Y013128D01*
X023704Y013186D02*
X022462Y013186D01*
X022496Y013245D02*
X023743Y013245D01*
X023824Y013303D02*
X022529Y013303D01*
X022563Y013362D02*
X023904Y013362D01*
X024057Y013420D02*
X022597Y013420D01*
X022631Y013479D02*
X025814Y013479D01*
X025848Y013420D02*
X024388Y013420D01*
X024540Y013362D02*
X025881Y013362D01*
X025915Y013303D02*
X024621Y013303D01*
X024701Y013245D02*
X025949Y013245D01*
X025983Y013186D02*
X024741Y013186D01*
X024775Y013128D02*
X026016Y013128D01*
X026050Y013069D02*
X024808Y013069D01*
X024842Y013011D02*
X026084Y013011D01*
X026118Y012952D02*
X024876Y012952D01*
X024910Y012894D02*
X026152Y012894D01*
X026185Y012835D02*
X024943Y012835D01*
X024977Y012777D02*
X026219Y012777D01*
X026253Y012718D02*
X025011Y012718D01*
X025045Y012660D02*
X026287Y012660D01*
X026320Y012601D02*
X025079Y012601D01*
X025112Y012543D02*
X026354Y012543D01*
X026388Y012484D02*
X025146Y012484D01*
X025180Y012426D02*
X026422Y012426D01*
X026455Y012367D02*
X025214Y012367D01*
X025247Y012309D02*
X026489Y012309D01*
X026523Y012250D02*
X025281Y012250D01*
X025315Y012192D02*
X026557Y012192D01*
X026591Y012133D02*
X025349Y012133D01*
X025383Y012075D02*
X026624Y012075D01*
X026658Y012016D02*
X025416Y012016D01*
X025450Y011958D02*
X026692Y011958D01*
X026726Y011899D02*
X025484Y011899D01*
X025518Y011841D02*
X026759Y011841D01*
X026793Y011782D02*
X025551Y011782D01*
X025585Y011724D02*
X026827Y011724D01*
X026861Y011665D02*
X025619Y011665D01*
X025653Y011607D02*
X026895Y011607D01*
X026928Y011548D02*
X025687Y011548D01*
X025720Y011490D02*
X026962Y011490D01*
X026996Y011431D02*
X025754Y011431D01*
X025788Y011373D02*
X027030Y011373D01*
X027063Y011314D02*
X025822Y011314D01*
X025855Y011256D02*
X027097Y011256D01*
X027131Y011197D02*
X025889Y011197D01*
X025923Y011139D02*
X027165Y011139D01*
X027199Y011080D02*
X025957Y011080D01*
X025991Y011022D02*
X027232Y011022D01*
X027266Y010963D02*
X026024Y010963D01*
X026058Y010905D02*
X027300Y010905D01*
X027334Y010846D02*
X026092Y010846D01*
X026126Y010788D02*
X027367Y010788D01*
X027401Y010729D02*
X026159Y010729D01*
X026193Y010671D02*
X027435Y010671D01*
X027469Y010612D02*
X026227Y010612D01*
X026261Y010554D02*
X027503Y010554D01*
X027536Y010495D02*
X026294Y010495D01*
X026328Y010437D02*
X027570Y010437D01*
X027604Y010378D02*
X026362Y010378D01*
X026396Y010320D02*
X027638Y010320D01*
X027671Y010261D02*
X026430Y010261D01*
X026463Y010203D02*
X027705Y010203D01*
X027739Y010144D02*
X026497Y010144D01*
X026531Y010086D02*
X027773Y010086D01*
X027806Y010027D02*
X026565Y010027D01*
X026598Y009969D02*
X027840Y009969D01*
X027874Y009910D02*
X026632Y009910D01*
X026666Y009852D02*
X027908Y009852D01*
X027942Y009793D02*
X026700Y009793D01*
X026734Y009735D02*
X027975Y009735D01*
X028009Y009676D02*
X026767Y009676D01*
X026801Y009618D02*
X028043Y009618D01*
X028057Y009593D02*
X028057Y009593D01*
X028082Y009550D01*
X028104Y009511D01*
X028107Y009507D01*
X028153Y009427D01*
X028386Y009264D01*
X028667Y009214D01*
X028942Y009287D01*
X028942Y009287D01*
X029013Y009347D01*
X029013Y009347D01*
X029051Y009378D01*
X029458Y009718D01*
X029458Y009718D01*
X029458Y009718D01*
X030169Y010505D01*
X030762Y011384D01*
X030762Y011384D01*
X031227Y012337D01*
X031553Y013346D01*
X031635Y013820D01*
X031635Y013820D01*
X031644Y013869D01*
X031668Y014009D01*
X031594Y014284D01*
X031411Y014502D01*
X031411Y014502D01*
X031153Y014622D01*
X030960Y014622D01*
X026131Y014622D01*
X025881Y014511D01*
X025698Y014308D01*
X025698Y014308D01*
X025614Y014048D01*
X025614Y014048D01*
X025642Y013776D01*
X025642Y013776D01*
X025711Y013657D01*
X025736Y013614D01*
X028057Y009593D01*
X028077Y009559D02*
X026835Y009559D01*
X026869Y009501D02*
X028110Y009501D01*
X028144Y009442D02*
X026902Y009442D01*
X026936Y009384D02*
X028215Y009384D01*
X028153Y009427D02*
X028153Y009427D01*
X028298Y009325D02*
X026970Y009325D01*
X027004Y009267D02*
X028382Y009267D01*
X028386Y009264D02*
X028386Y009264D01*
X028667Y009214D02*
X028667Y009214D01*
X028866Y009267D02*
X031263Y009267D01*
X031311Y009325D02*
X028988Y009325D01*
X029058Y009384D02*
X031359Y009384D01*
X031408Y009442D02*
X029128Y009442D01*
X029198Y009501D02*
X031456Y009501D01*
X031504Y009559D02*
X029268Y009559D01*
X029338Y009618D02*
X031553Y009618D01*
X031601Y009676D02*
X029408Y009676D01*
X029473Y009735D02*
X031650Y009735D01*
X031690Y009793D02*
X029526Y009793D01*
X029579Y009852D02*
X031727Y009852D01*
X031765Y009910D02*
X029632Y009910D01*
X029685Y009969D02*
X031802Y009969D01*
X031839Y010027D02*
X029738Y010027D01*
X029790Y010086D02*
X031876Y010086D01*
X031913Y010144D02*
X029843Y010144D01*
X029896Y010203D02*
X031950Y010203D01*
X031987Y010261D02*
X029949Y010261D01*
X030002Y010320D02*
X032024Y010320D01*
X032062Y010378D02*
X030054Y010378D01*
X030107Y010437D02*
X032099Y010437D01*
X032136Y010495D02*
X030160Y010495D01*
X030202Y010554D02*
X032173Y010554D01*
X032210Y010612D02*
X030241Y010612D01*
X030281Y010671D02*
X032247Y010671D01*
X032284Y010729D02*
X030320Y010729D01*
X030360Y010788D02*
X032312Y010788D01*
X032339Y010846D02*
X030399Y010846D01*
X030439Y010905D02*
X032367Y010905D01*
X032394Y010963D02*
X030478Y010963D01*
X030518Y011022D02*
X032422Y011022D01*
X032449Y011080D02*
X030557Y011080D01*
X030597Y011139D02*
X032477Y011139D01*
X032504Y011197D02*
X030636Y011197D01*
X030676Y011256D02*
X032532Y011256D01*
X032559Y011314D02*
X030715Y011314D01*
X030755Y011373D02*
X032587Y011373D01*
X032614Y011431D02*
X030785Y011431D01*
X030814Y011490D02*
X032642Y011490D01*
X032669Y011548D02*
X030842Y011548D01*
X030871Y011607D02*
X032697Y011607D01*
X032725Y011665D02*
X030899Y011665D01*
X030928Y011724D02*
X032752Y011724D01*
X032778Y011782D02*
X030956Y011782D01*
X030985Y011841D02*
X032797Y011841D01*
X032816Y011899D02*
X031013Y011899D01*
X031042Y011958D02*
X032835Y011958D01*
X032854Y012016D02*
X031070Y012016D01*
X031099Y012075D02*
X032873Y012075D01*
X032892Y012133D02*
X031127Y012133D01*
X031156Y012192D02*
X032911Y012192D01*
X032930Y012250D02*
X031184Y012250D01*
X031213Y012309D02*
X032949Y012309D01*
X032968Y012367D02*
X031236Y012367D01*
X031255Y012426D02*
X032987Y012426D01*
X033006Y012484D02*
X031274Y012484D01*
X031293Y012543D02*
X033025Y012543D01*
X033044Y012601D02*
X031312Y012601D01*
X031331Y012660D02*
X033063Y012660D01*
X033082Y012718D02*
X031350Y012718D01*
X031369Y012777D02*
X033101Y012777D01*
X033120Y012835D02*
X031388Y012835D01*
X031407Y012894D02*
X033137Y012894D01*
X033148Y012952D02*
X031426Y012952D01*
X031445Y013011D02*
X033159Y013011D01*
X033170Y013069D02*
X031464Y013069D01*
X031482Y013128D02*
X033181Y013128D01*
X033192Y013186D02*
X031501Y013186D01*
X031520Y013245D02*
X033204Y013245D01*
X033215Y013303D02*
X031539Y013303D01*
X031556Y013362D02*
X033226Y013362D01*
X033237Y013420D02*
X031566Y013420D01*
X031576Y013479D02*
X033248Y013479D01*
X033259Y013537D02*
X031586Y013537D01*
X031596Y013596D02*
X033270Y013596D01*
X033282Y013654D02*
X031607Y013654D01*
X031617Y013713D02*
X033293Y013713D01*
X033304Y013771D02*
X031627Y013771D01*
X031637Y013830D02*
X033315Y013830D01*
X033326Y013888D02*
X031647Y013888D01*
X031658Y013947D02*
X033337Y013947D01*
X033349Y014005D02*
X031668Y014005D01*
X031668Y014009D02*
X031668Y014009D01*
X031654Y014064D02*
X033352Y014064D01*
X033356Y014122D02*
X031638Y014122D01*
X031622Y014181D02*
X033360Y014181D01*
X033364Y014239D02*
X031606Y014239D01*
X031594Y014284D02*
X031594Y014284D01*
X031582Y014298D02*
X033367Y014298D01*
X033371Y014356D02*
X031533Y014356D01*
X031484Y014415D02*
X033375Y014415D01*
X033378Y014473D02*
X031435Y014473D01*
X031347Y014532D02*
X032344Y014532D01*
X032422Y014494D02*
X032148Y014626D01*
X032148Y014626D01*
X032014Y014795D01*
X032008Y014801D01*
X032006Y014804D01*
X031959Y014864D01*
X031959Y014864D01*
X031931Y014986D01*
X031907Y015045D01*
X031907Y015092D01*
X031891Y015160D01*
X031891Y015160D01*
X031907Y015228D01*
X031907Y015309D01*
X031948Y015408D01*
X031959Y015456D01*
X031959Y015456D01*
X031978Y015480D01*
X032008Y015552D01*
X032145Y015689D01*
X032148Y015694D01*
X032148Y015694D01*
X032148Y015694D01*
X032150Y015695D01*
X032194Y015739D01*
X032438Y015840D01*
X032702Y015840D01*
X032945Y015739D01*
X032982Y015702D01*
X033000Y015694D01*
X033000Y015694D01*
X033037Y015648D01*
X033132Y015552D01*
X033153Y015502D01*
X033189Y015456D01*
X033189Y015456D01*
X033211Y015362D01*
X033233Y015309D01*
X033233Y015265D01*
X033257Y015160D01*
X033233Y015055D01*
X033233Y015045D01*
X033228Y015032D01*
X033189Y014864D01*
X033189Y014864D01*
X033000Y014626D01*
X033000Y014626D01*
X033000Y014626D01*
X032726Y014494D01*
X032422Y014494D01*
X032223Y014590D02*
X031221Y014590D01*
X030960Y014622D02*
X030960Y014622D01*
X031955Y014883D02*
X025407Y014883D01*
X025418Y014941D02*
X031941Y014941D01*
X031925Y015000D02*
X025428Y015000D01*
X025438Y015058D02*
X031907Y015058D01*
X031901Y015117D02*
X025449Y015117D01*
X025456Y015160D02*
X025382Y014738D01*
X025382Y014738D01*
X025168Y014367D01*
X025168Y014367D01*
X024839Y014091D01*
X024839Y014091D01*
X024437Y013945D01*
X024008Y013945D01*
X023605Y014091D01*
X023605Y014091D01*
X023277Y014367D01*
X023277Y014367D01*
X023063Y014738D01*
X023063Y014738D01*
X022988Y015160D01*
X022988Y015160D01*
X023063Y015582D01*
X023063Y015582D01*
X023277Y015953D01*
X023277Y015953D01*
X023605Y016229D01*
X023605Y016229D01*
X024008Y016375D01*
X024437Y016375D01*
X024839Y016229D01*
X024839Y016229D01*
X025168Y015953D01*
X025168Y015953D01*
X025168Y015953D01*
X025382Y015582D01*
X025456Y015160D01*
X025454Y015175D02*
X031895Y015175D01*
X031907Y015234D02*
X025443Y015234D01*
X025433Y015292D02*
X031907Y015292D01*
X031924Y015351D02*
X025423Y015351D01*
X025412Y015409D02*
X031948Y015409D01*
X031968Y015468D02*
X025402Y015468D01*
X025392Y015526D02*
X031997Y015526D01*
X032040Y015585D02*
X025380Y015585D01*
X025382Y015582D02*
X025382Y015582D01*
X025346Y015643D02*
X032099Y015643D01*
X032157Y015702D02*
X031162Y015702D01*
X031153Y015698D02*
X031411Y015818D01*
X031594Y016036D01*
X031668Y016311D01*
X031652Y016402D01*
X031652Y016402D01*
X031644Y016451D01*
X031553Y016974D01*
X031227Y017983D01*
X030762Y018936D01*
X030169Y019815D01*
X029458Y020602D01*
X029051Y020942D01*
X029013Y020973D01*
X028942Y021033D01*
X028667Y021106D01*
X028386Y021056D01*
X028153Y020893D01*
X028153Y020893D01*
X028153Y020893D01*
X028107Y020813D01*
X028107Y020813D01*
X025686Y016620D01*
X025686Y016620D01*
X025642Y016544D01*
X025614Y016272D01*
X025698Y016012D01*
X025881Y015809D01*
X025881Y015809D01*
X026131Y015698D01*
X026218Y015698D01*
X031153Y015698D01*
X031287Y015760D02*
X032247Y015760D01*
X032388Y015819D02*
X031412Y015819D01*
X031411Y015818D02*
X031411Y015818D01*
X031461Y015877D02*
X033376Y015877D01*
X033380Y015819D02*
X032752Y015819D01*
X032893Y015760D02*
X033384Y015760D01*
X033387Y015702D02*
X032983Y015702D01*
X033041Y015643D02*
X033391Y015643D01*
X033395Y015585D02*
X033099Y015585D01*
X033143Y015526D02*
X033398Y015526D01*
X033402Y015468D02*
X033180Y015468D01*
X033200Y015409D02*
X033406Y015409D01*
X033409Y015351D02*
X033215Y015351D01*
X033233Y015292D02*
X033413Y015292D01*
X033417Y015234D02*
X033240Y015234D01*
X033253Y015175D02*
X033420Y015175D01*
X033419Y015117D02*
X033247Y015117D01*
X033234Y015058D02*
X033415Y015058D01*
X033411Y015000D02*
X033220Y015000D01*
X033207Y014941D02*
X033408Y014941D01*
X033404Y014883D02*
X033194Y014883D01*
X033158Y014824D02*
X033400Y014824D01*
X033397Y014766D02*
X033111Y014766D01*
X033065Y014707D02*
X033393Y014707D01*
X033389Y014649D02*
X033018Y014649D01*
X032925Y014590D02*
X033386Y014590D01*
X033382Y014532D02*
X032804Y014532D01*
X032130Y014649D02*
X025330Y014649D01*
X025297Y014590D02*
X026060Y014590D01*
X025928Y014532D02*
X025263Y014532D01*
X025229Y014473D02*
X025848Y014473D01*
X025881Y014511D02*
X025881Y014511D01*
X025795Y014415D02*
X025195Y014415D01*
X025155Y014356D02*
X025742Y014356D01*
X025695Y014298D02*
X025085Y014298D01*
X025016Y014239D02*
X025676Y014239D01*
X025657Y014181D02*
X024946Y014181D01*
X024876Y014122D02*
X025638Y014122D01*
X025619Y014064D02*
X024764Y014064D01*
X024603Y014005D02*
X025618Y014005D01*
X025624Y013947D02*
X024442Y013947D01*
X024002Y013947D02*
X022820Y013947D01*
X022826Y014005D02*
X023841Y014005D01*
X023681Y014064D02*
X022825Y014064D01*
X022831Y014048D02*
X022831Y014048D01*
X022806Y014122D02*
X023568Y014122D01*
X023499Y014181D02*
X022787Y014181D01*
X022768Y014239D02*
X023429Y014239D01*
X023359Y014298D02*
X022749Y014298D01*
X022746Y014308D02*
X022746Y014308D01*
X022702Y014356D02*
X023289Y014356D01*
X023277Y014367D02*
X023277Y014367D01*
X023249Y014415D02*
X022650Y014415D01*
X022597Y014473D02*
X023216Y014473D01*
X023182Y014532D02*
X022516Y014532D01*
X022563Y014511D02*
X022563Y014511D01*
X022563Y014511D01*
X022385Y014590D02*
X023148Y014590D01*
X023114Y014649D02*
X016314Y014649D01*
X016296Y014626D02*
X016412Y014771D01*
X016425Y014784D01*
X016428Y014791D01*
X016486Y014864D01*
X016520Y015013D01*
X016526Y015028D01*
X016526Y015040D01*
X016553Y015160D01*
X016553Y015160D01*
X016526Y015280D01*
X016526Y015292D01*
X016520Y015307D01*
X016486Y015456D01*
X016428Y015529D01*
X016425Y015536D01*
X016412Y015549D01*
X016296Y015694D01*
X016240Y015721D01*
X016239Y015722D01*
X016230Y015725D01*
X016022Y015826D01*
X015719Y015826D01*
X015604Y015770D01*
X015487Y015722D01*
X015472Y015707D01*
X015445Y015694D01*
X015445Y015694D01*
X015445Y015694D01*
X015389Y015624D01*
X015301Y015536D01*
X015281Y015489D01*
X015255Y015456D01*
X015240Y015389D01*
X015200Y015292D01*
X015200Y015213D01*
X015188Y015160D01*
X015200Y015107D01*
X015200Y015028D01*
X015240Y014931D01*
X015255Y014864D01*
X015255Y014864D01*
X015281Y014831D01*
X015301Y014784D01*
X015389Y014696D01*
X015445Y014626D01*
X015472Y014613D01*
X015487Y014598D01*
X015604Y014550D01*
X015719Y014494D01*
X016022Y014494D01*
X016230Y014595D01*
X016239Y014598D01*
X016240Y014599D01*
X016296Y014626D01*
X016296Y014626D01*
X016222Y014590D02*
X017224Y014590D01*
X017098Y014532D02*
X016100Y014532D01*
X016361Y014707D02*
X023080Y014707D01*
X023058Y014766D02*
X016408Y014766D01*
X016454Y014824D02*
X023048Y014824D01*
X023037Y014883D02*
X016490Y014883D01*
X016503Y014941D02*
X023027Y014941D01*
X023017Y015000D02*
X016517Y015000D01*
X016530Y015058D02*
X023006Y015058D01*
X022996Y015117D02*
X016543Y015117D01*
X016550Y015175D02*
X022991Y015175D01*
X023001Y015234D02*
X016536Y015234D01*
X016526Y015292D02*
X023012Y015292D01*
X023022Y015351D02*
X016510Y015351D01*
X016496Y015409D02*
X023032Y015409D01*
X023043Y015468D02*
X016476Y015468D01*
X016486Y015456D02*
X016486Y015456D01*
X016430Y015526D02*
X023053Y015526D01*
X023064Y015585D02*
X016383Y015585D01*
X016336Y015643D02*
X023098Y015643D01*
X023132Y015702D02*
X022323Y015702D01*
X022313Y015698D02*
X022563Y015809D01*
X022563Y015809D01*
X022746Y016012D01*
X022746Y016012D01*
X022831Y016272D01*
X022831Y016272D01*
X022802Y016544D01*
X022802Y016544D01*
X022734Y016663D01*
X022709Y016706D01*
X020388Y020727D01*
X020388Y020727D01*
X020363Y020770D01*
X020339Y020810D01*
X020338Y020813D01*
X020292Y020893D01*
X020292Y020893D01*
X020292Y020893D01*
X020058Y021056D01*
X019778Y021106D01*
X019778Y021106D01*
X019502Y021033D01*
X019431Y020973D01*
X019393Y020942D01*
X018986Y020602D01*
X018276Y019815D01*
X018276Y019815D01*
X017682Y018936D01*
X017218Y017983D01*
X017218Y017983D01*
X016892Y016974D01*
X016892Y016974D01*
X016809Y016500D01*
X016801Y016451D01*
X016776Y016311D01*
X016850Y016036D01*
X016850Y016036D01*
X017034Y015818D01*
X017292Y015698D01*
X017484Y015698D01*
X022313Y015698D01*
X022454Y015760D02*
X023166Y015760D01*
X023200Y015819D02*
X022572Y015819D01*
X022625Y015877D02*
X023233Y015877D01*
X023267Y015936D02*
X022678Y015936D01*
X022730Y015994D02*
X023326Y015994D01*
X023396Y016053D02*
X022759Y016053D01*
X022778Y016111D02*
X023466Y016111D01*
X023535Y016170D02*
X022797Y016170D01*
X022816Y016228D02*
X023605Y016228D01*
X023766Y016287D02*
X022829Y016287D01*
X022823Y016345D02*
X023926Y016345D01*
X024518Y016345D02*
X025622Y016345D01*
X025615Y016287D02*
X024679Y016287D01*
X024839Y016228D02*
X025628Y016228D01*
X025614Y016272D02*
X025614Y016272D01*
X025647Y016170D02*
X024909Y016170D01*
X024979Y016111D02*
X025666Y016111D01*
X025685Y016053D02*
X025049Y016053D01*
X025118Y015994D02*
X025714Y015994D01*
X025698Y016012D02*
X025698Y016012D01*
X025767Y015936D02*
X025177Y015936D01*
X025211Y015877D02*
X025820Y015877D01*
X025872Y015819D02*
X025245Y015819D01*
X025279Y015760D02*
X025990Y015760D01*
X026122Y015702D02*
X025313Y015702D01*
X025628Y016404D02*
X022817Y016404D01*
X022811Y016462D02*
X025634Y016462D01*
X025640Y016521D02*
X022805Y016521D01*
X022782Y016579D02*
X025663Y016579D01*
X025642Y016544D02*
X025642Y016544D01*
X025696Y016638D02*
X022748Y016638D01*
X022714Y016696D02*
X025730Y016696D01*
X025764Y016755D02*
X022681Y016755D01*
X022709Y016706D02*
X022709Y016706D01*
X022647Y016813D02*
X025798Y016813D01*
X025832Y016872D02*
X024258Y016872D01*
X024222Y016864D02*
X024490Y016921D01*
X024711Y017082D01*
X024711Y017082D01*
X024711Y017082D01*
X024767Y017179D01*
X027175Y021350D01*
X027175Y021350D01*
X027222Y021431D01*
X027247Y021714D01*
X027247Y021714D01*
X027150Y021982D01*
X026948Y022184D01*
X026815Y022233D01*
X026768Y022250D01*
X026317Y022415D01*
X025280Y022637D01*
X024222Y022712D01*
X023165Y022637D01*
X023165Y022637D01*
X022128Y022415D01*
X021673Y022249D01*
X021630Y022233D01*
X021496Y022184D01*
X021295Y021982D01*
X021198Y021714D01*
X021223Y021431D01*
X021223Y021431D01*
X021294Y021307D01*
X021319Y021264D01*
X023688Y017160D01*
X023733Y017082D01*
X023733Y017082D01*
X023733Y017082D01*
X023955Y016921D01*
X024222Y016864D01*
X024222Y016864D01*
X024187Y016872D02*
X022613Y016872D01*
X022579Y016930D02*
X023942Y016930D01*
X023955Y016921D02*
X023955Y016921D01*
X023862Y016989D02*
X022545Y016989D01*
X022512Y017047D02*
X023781Y017047D01*
X023720Y017106D02*
X022478Y017106D01*
X022444Y017164D02*
X023686Y017164D01*
X023652Y017223D02*
X022410Y017223D01*
X022377Y017281D02*
X023618Y017281D01*
X023585Y017340D02*
X022343Y017340D01*
X022309Y017398D02*
X023551Y017398D01*
X023517Y017457D02*
X022275Y017457D01*
X022241Y017515D02*
X023483Y017515D01*
X023450Y017574D02*
X022208Y017574D01*
X022174Y017632D02*
X023416Y017632D01*
X023382Y017691D02*
X022140Y017691D01*
X022106Y017749D02*
X023348Y017749D01*
X023314Y017808D02*
X022073Y017808D01*
X022039Y017866D02*
X023281Y017866D01*
X023247Y017925D02*
X022005Y017925D01*
X021971Y017983D02*
X023213Y017983D01*
X023179Y018042D02*
X021938Y018042D01*
X021904Y018100D02*
X023146Y018100D01*
X023112Y018159D02*
X021870Y018159D01*
X021836Y018217D02*
X023078Y018217D01*
X023044Y018276D02*
X021802Y018276D01*
X021769Y018334D02*
X023010Y018334D01*
X022977Y018393D02*
X021735Y018393D01*
X021701Y018451D02*
X022943Y018451D01*
X022909Y018510D02*
X021667Y018510D01*
X021634Y018568D02*
X022875Y018568D01*
X022842Y018627D02*
X021600Y018627D01*
X021566Y018685D02*
X022808Y018685D01*
X022774Y018744D02*
X021532Y018744D01*
X021498Y018802D02*
X022740Y018802D01*
X022706Y018861D02*
X021465Y018861D01*
X021431Y018919D02*
X022673Y018919D01*
X022639Y018978D02*
X021397Y018978D01*
X021363Y019036D02*
X022605Y019036D01*
X022571Y019095D02*
X021330Y019095D01*
X021296Y019153D02*
X022538Y019153D01*
X022504Y019212D02*
X021262Y019212D01*
X021228Y019270D02*
X022470Y019270D01*
X022436Y019329D02*
X021194Y019329D01*
X021161Y019387D02*
X022402Y019387D01*
X022369Y019446D02*
X021127Y019446D01*
X021093Y019504D02*
X022335Y019504D01*
X022301Y019563D02*
X021059Y019563D01*
X021026Y019621D02*
X022267Y019621D01*
X022234Y019680D02*
X020992Y019680D01*
X020958Y019738D02*
X022200Y019738D01*
X022166Y019797D02*
X020924Y019797D01*
X020890Y019855D02*
X022132Y019855D01*
X022098Y019914D02*
X020857Y019914D01*
X020823Y019972D02*
X022065Y019972D01*
X022031Y020031D02*
X020789Y020031D01*
X020755Y020089D02*
X021997Y020089D01*
X021963Y020148D02*
X020722Y020148D01*
X020688Y020206D02*
X021930Y020206D01*
X021896Y020265D02*
X020654Y020265D01*
X020620Y020323D02*
X021862Y020323D01*
X021828Y020382D02*
X020586Y020382D01*
X020553Y020440D02*
X021795Y020440D01*
X021761Y020499D02*
X020519Y020499D01*
X020485Y020557D02*
X021727Y020557D01*
X021693Y020616D02*
X020451Y020616D01*
X020418Y020674D02*
X021659Y020674D01*
X021626Y020733D02*
X020384Y020733D01*
X020350Y020791D02*
X021592Y020791D01*
X021558Y020850D02*
X020316Y020850D01*
X020269Y020908D02*
X021524Y020908D01*
X021491Y020967D02*
X020186Y020967D01*
X020102Y021025D02*
X021457Y021025D01*
X021423Y021084D02*
X019903Y021084D01*
X020058Y021056D02*
X020058Y021056D01*
X019694Y021084D02*
X017208Y021084D01*
X017256Y021142D02*
X021389Y021142D01*
X021355Y021201D02*
X017304Y021201D01*
X017353Y021259D02*
X021322Y021259D01*
X021319Y021264D02*
X021319Y021264D01*
X021288Y021318D02*
X017401Y021318D01*
X017450Y021376D02*
X021254Y021376D01*
X021222Y021435D02*
X017498Y021435D01*
X017555Y021493D02*
X021217Y021493D01*
X021212Y021552D02*
X017617Y021552D01*
X017680Y021610D02*
X021207Y021610D01*
X021202Y021669D02*
X017742Y021669D01*
X017804Y021727D02*
X019894Y021727D01*
X019914Y021727D01*
X019916Y021726D01*
X020179Y021726D01*
X020181Y021727D01*
X020198Y021727D01*
X020302Y021777D01*
X020423Y021827D01*
X020439Y021843D01*
X020472Y021859D01*
X020472Y021859D01*
X020540Y021944D01*
X020610Y022014D01*
X020625Y022051D01*
X020662Y022097D01*
X020683Y022191D01*
X020711Y022258D01*
X020711Y022312D01*
X020729Y022393D01*
X020711Y022474D01*
X020711Y022521D01*
X020687Y022579D01*
X020662Y022689D01*
X020619Y022742D01*
X020610Y022765D01*
X020567Y022808D01*
X020472Y022927D01*
X020426Y022949D01*
X020423Y022952D01*
X020403Y022960D01*
X020198Y023058D01*
X019894Y023058D01*
X019676Y022953D01*
X019672Y022952D01*
X019672Y022951D01*
X019621Y022927D01*
X019621Y022927D01*
X019621Y022927D01*
X019517Y022797D01*
X019485Y022765D01*
X019479Y022748D01*
X019431Y022689D01*
X019403Y022567D01*
X019385Y022521D01*
X019385Y022484D01*
X019364Y022393D01*
X019385Y022302D01*
X019385Y022258D01*
X019407Y022204D01*
X019431Y022097D01*
X019431Y022097D01*
X019473Y022045D01*
X019485Y022014D01*
X019544Y021955D01*
X019621Y021859D01*
X019658Y021841D01*
X019672Y021827D01*
X019776Y021784D01*
X019894Y021727D01*
X019772Y021786D02*
X017866Y021786D01*
X017929Y021844D02*
X019651Y021844D01*
X019621Y021859D02*
X019621Y021859D01*
X019586Y021903D02*
X017991Y021903D01*
X018053Y021961D02*
X019538Y021961D01*
X019483Y022020D02*
X018116Y022020D01*
X018178Y022078D02*
X019446Y022078D01*
X019422Y022137D02*
X018240Y022137D01*
X018303Y022195D02*
X019409Y022195D01*
X019386Y022254D02*
X018367Y022254D01*
X018447Y022312D02*
X019382Y022312D01*
X019369Y022371D02*
X018528Y022371D01*
X018608Y022429D02*
X019372Y022429D01*
X019364Y022393D02*
X019364Y022393D01*
X019385Y022488D02*
X018689Y022488D01*
X018769Y022546D02*
X019395Y022546D01*
X019412Y022605D02*
X018850Y022605D01*
X018930Y022663D02*
X019425Y022663D01*
X019431Y022689D02*
X019431Y022689D01*
X019457Y022722D02*
X019011Y022722D01*
X019091Y022780D02*
X019501Y022780D01*
X019551Y022839D02*
X019172Y022839D01*
X019252Y022897D02*
X019597Y022897D01*
X019682Y022956D02*
X019346Y022956D01*
X019452Y023014D02*
X019803Y023014D01*
X019771Y023190D02*
X028673Y023190D01*
X028567Y023248D02*
X019878Y023248D01*
X019984Y023307D02*
X028460Y023307D01*
X028354Y023365D02*
X020091Y023365D01*
X020197Y023424D02*
X028248Y023424D01*
X028141Y023482D02*
X020303Y023482D01*
X020450Y023541D02*
X027994Y023541D01*
X027847Y023599D02*
X020598Y023599D01*
X020746Y023658D02*
X027699Y023658D01*
X027551Y023716D02*
X020894Y023716D01*
X021041Y023775D02*
X027403Y023775D01*
X027255Y023833D02*
X021189Y023833D01*
X021337Y023892D02*
X027108Y023892D01*
X026903Y023950D02*
X021542Y023950D01*
X021769Y024009D02*
X026675Y024009D01*
X026447Y024067D02*
X021997Y024067D01*
X022225Y024126D02*
X026220Y024126D01*
X025992Y024184D02*
X022453Y024184D01*
X022869Y024243D02*
X025576Y024243D01*
X025113Y024301D02*
X023332Y024301D01*
X023536Y022663D02*
X020667Y022663D01*
X020662Y022689D02*
X020662Y022689D01*
X020635Y022722D02*
X027809Y022722D01*
X027826Y022744D02*
X027783Y022689D01*
X027757Y022577D01*
X027741Y022537D01*
X027741Y022505D01*
X027715Y022393D01*
X027741Y022280D01*
X027741Y022274D01*
X027744Y022266D01*
X027783Y022097D01*
X027783Y022097D01*
X027972Y021859D01*
X027972Y021859D01*
X028246Y021727D01*
X028550Y021727D01*
X028824Y021859D01*
X028824Y021859D01*
X028824Y021859D01*
X028936Y022000D01*
X028966Y022030D01*
X028973Y022046D01*
X029013Y022097D01*
X029037Y022201D01*
X029067Y022274D01*
X029067Y022333D01*
X029081Y022393D01*
X029067Y022453D01*
X029067Y022537D01*
X029024Y022641D01*
X029013Y022689D01*
X028995Y022712D01*
X028966Y022781D01*
X028836Y022912D01*
X028824Y022927D01*
X028818Y022929D01*
X028780Y022968D01*
X028536Y023069D01*
X028272Y023069D01*
X028248Y023058D01*
X028246Y023058D01*
X028237Y023054D01*
X028029Y022968D01*
X028001Y022941D01*
X027972Y022927D01*
X027913Y022852D01*
X027842Y022781D01*
X027826Y022744D01*
X027842Y022780D02*
X020594Y022780D01*
X020542Y022839D02*
X027900Y022839D01*
X027949Y022897D02*
X020495Y022897D01*
X020472Y022927D02*
X020472Y022927D01*
X020413Y022956D02*
X028017Y022956D01*
X027972Y022927D02*
X027972Y022927D01*
X028141Y023014D02*
X020290Y023014D01*
X020681Y022605D02*
X023013Y022605D01*
X022740Y022546D02*
X020700Y022546D01*
X020711Y022488D02*
X022466Y022488D01*
X022193Y022429D02*
X020721Y022429D01*
X020724Y022371D02*
X022006Y022371D01*
X022128Y022415D02*
X022128Y022415D01*
X021847Y022312D02*
X020711Y022312D01*
X020709Y022254D02*
X021687Y022254D01*
X021527Y022195D02*
X020685Y022195D01*
X020671Y022137D02*
X021449Y022137D01*
X021496Y022184D02*
X021496Y022184D01*
X021391Y022078D02*
X020647Y022078D01*
X020662Y022097D02*
X020662Y022097D01*
X020612Y022020D02*
X021333Y022020D01*
X021295Y021982D02*
X021295Y021982D01*
X021287Y021961D02*
X020557Y021961D01*
X020507Y021903D02*
X021266Y021903D01*
X021245Y021844D02*
X020442Y021844D01*
X020472Y021859D02*
X020472Y021859D01*
X020323Y021786D02*
X021224Y021786D01*
X021203Y021727D02*
X020199Y021727D01*
X019502Y021033D02*
X019502Y021033D01*
X019493Y021025D02*
X017159Y021025D01*
X017111Y020967D02*
X019423Y020967D01*
X019431Y020973D02*
X019431Y020973D01*
X019353Y020908D02*
X017062Y020908D01*
X017014Y020850D02*
X019283Y020850D01*
X019213Y020791D02*
X016966Y020791D01*
X016917Y020733D02*
X019143Y020733D01*
X019073Y020674D02*
X016869Y020674D01*
X016820Y020616D02*
X019003Y020616D01*
X018986Y020602D02*
X018986Y020602D01*
X018946Y020557D02*
X016774Y020557D01*
X016737Y020499D02*
X018893Y020499D01*
X018841Y020440D02*
X016700Y020440D01*
X016663Y020382D02*
X018788Y020382D01*
X018735Y020323D02*
X016625Y020323D01*
X016588Y020265D02*
X018682Y020265D01*
X018629Y020206D02*
X016551Y020206D01*
X016514Y020148D02*
X018576Y020148D01*
X018524Y020089D02*
X016477Y020089D01*
X016440Y020031D02*
X018471Y020031D01*
X018418Y019972D02*
X016403Y019972D01*
X016366Y019914D02*
X018365Y019914D01*
X018312Y019855D02*
X016328Y019855D01*
X016291Y019797D02*
X018264Y019797D01*
X018224Y019738D02*
X016254Y019738D01*
X016217Y019680D02*
X018185Y019680D01*
X018145Y019621D02*
X016180Y019621D01*
X016147Y019563D02*
X018106Y019563D01*
X018066Y019504D02*
X016120Y019504D01*
X016092Y019446D02*
X018027Y019446D01*
X017987Y019387D02*
X016065Y019387D01*
X016037Y019329D02*
X017948Y019329D01*
X017908Y019270D02*
X016010Y019270D01*
X015982Y019212D02*
X017869Y019212D01*
X017829Y019153D02*
X015955Y019153D01*
X015927Y019095D02*
X017790Y019095D01*
X017750Y019036D02*
X015900Y019036D01*
X015872Y018978D02*
X017711Y018978D01*
X017682Y018936D02*
X017682Y018936D01*
X017674Y018919D02*
X015845Y018919D01*
X015817Y018861D02*
X017646Y018861D01*
X017617Y018802D02*
X015790Y018802D01*
X015762Y018744D02*
X017589Y018744D01*
X017560Y018685D02*
X015735Y018685D01*
X015707Y018627D02*
X017532Y018627D01*
X017503Y018568D02*
X015680Y018568D01*
X015657Y018510D02*
X017475Y018510D01*
X017446Y018451D02*
X015638Y018451D01*
X015619Y018393D02*
X017418Y018393D01*
X017389Y018334D02*
X015600Y018334D01*
X015581Y018276D02*
X017361Y018276D01*
X017332Y018217D02*
X015562Y018217D01*
X015543Y018159D02*
X017304Y018159D01*
X017275Y018100D02*
X015524Y018100D01*
X015505Y018042D02*
X017247Y018042D01*
X017218Y017983D02*
X015486Y017983D01*
X015467Y017925D02*
X017199Y017925D01*
X017180Y017866D02*
X015448Y017866D01*
X015429Y017808D02*
X017161Y017808D01*
X017142Y017749D02*
X015410Y017749D01*
X015391Y017691D02*
X017124Y017691D01*
X017105Y017632D02*
X015372Y017632D01*
X015353Y017574D02*
X017086Y017574D01*
X017067Y017515D02*
X015334Y017515D01*
X015315Y017457D02*
X017048Y017457D01*
X017029Y017398D02*
X015303Y017398D01*
X015292Y017340D02*
X017010Y017340D01*
X016991Y017281D02*
X015280Y017281D01*
X015269Y017223D02*
X016972Y017223D01*
X016953Y017164D02*
X015258Y017164D01*
X015247Y017106D02*
X016934Y017106D01*
X016915Y017047D02*
X015236Y017047D01*
X015225Y016989D02*
X016896Y016989D01*
X016884Y016930D02*
X015213Y016930D01*
X015202Y016872D02*
X016874Y016872D01*
X016864Y016813D02*
X015191Y016813D01*
X015180Y016755D02*
X016853Y016755D01*
X016843Y016696D02*
X015169Y016696D01*
X015158Y016638D02*
X016833Y016638D01*
X016823Y016579D02*
X015147Y016579D01*
X015135Y016521D02*
X016813Y016521D01*
X016809Y016500D02*
X016809Y016500D01*
X016803Y016462D02*
X015124Y016462D01*
X015113Y016404D02*
X016792Y016404D01*
X016782Y016345D02*
X015102Y016345D01*
X015094Y016287D02*
X016783Y016287D01*
X016776Y016311D02*
X016776Y016311D01*
X016799Y016228D02*
X015090Y016228D01*
X015087Y016170D02*
X016814Y016170D01*
X016830Y016111D02*
X015083Y016111D01*
X015079Y016053D02*
X016846Y016053D01*
X016885Y015994D02*
X015076Y015994D01*
X015072Y015936D02*
X016935Y015936D01*
X016984Y015877D02*
X015068Y015877D01*
X015065Y015819D02*
X015705Y015819D01*
X015580Y015760D02*
X015061Y015760D01*
X015057Y015702D02*
X015462Y015702D01*
X015405Y015643D02*
X015054Y015643D01*
X015050Y015585D02*
X015350Y015585D01*
X015297Y015526D02*
X015046Y015526D01*
X015043Y015468D02*
X015265Y015468D01*
X015255Y015456D02*
X015255Y015456D01*
X015245Y015409D02*
X015039Y015409D01*
X015035Y015351D02*
X015224Y015351D01*
X015200Y015292D02*
X015031Y015292D01*
X015028Y015234D02*
X015200Y015234D01*
X015191Y015175D02*
X015024Y015175D01*
X015026Y015117D02*
X015198Y015117D01*
X015188Y015160D02*
X015188Y015160D01*
X015200Y015058D02*
X015030Y015058D01*
X015033Y015000D02*
X015212Y015000D01*
X015236Y014941D02*
X015037Y014941D01*
X015041Y014883D02*
X015251Y014883D01*
X015284Y014824D02*
X015044Y014824D01*
X015048Y014766D02*
X015319Y014766D01*
X015378Y014707D02*
X015052Y014707D01*
X015055Y014649D02*
X015427Y014649D01*
X015445Y014626D02*
X015445Y014626D01*
X015505Y014590D02*
X015059Y014590D01*
X015063Y014532D02*
X015641Y014532D01*
X015066Y014473D02*
X017010Y014473D01*
X016961Y014415D02*
X015070Y014415D01*
X015074Y014356D02*
X016911Y014356D01*
X016862Y014298D02*
X015077Y014298D01*
X015081Y014239D02*
X016838Y014239D01*
X016850Y014284D02*
X016850Y014284D01*
X016823Y014181D02*
X015085Y014181D01*
X015088Y014122D02*
X016807Y014122D01*
X016791Y014064D02*
X015092Y014064D01*
X015096Y014005D02*
X016777Y014005D01*
X016776Y014009D02*
X016776Y014009D01*
X016787Y013947D02*
X015107Y013947D01*
X015118Y013888D02*
X016797Y013888D01*
X016807Y013830D02*
X015129Y013830D01*
X015141Y013771D02*
X016818Y013771D01*
X016828Y013713D02*
X015152Y013713D01*
X015163Y013654D02*
X016838Y013654D01*
X016848Y013596D02*
X015174Y013596D01*
X015185Y013537D02*
X016858Y013537D01*
X016868Y013479D02*
X015196Y013479D01*
X015208Y013420D02*
X016879Y013420D01*
X016889Y013362D02*
X015219Y013362D01*
X015230Y013303D02*
X016905Y013303D01*
X016892Y013346D02*
X016892Y013346D01*
X016924Y013245D02*
X015241Y013245D01*
X015252Y013186D02*
X016943Y013186D01*
X016962Y013128D02*
X015263Y013128D01*
X015275Y013069D02*
X016981Y013069D01*
X017000Y013011D02*
X015286Y013011D01*
X015297Y012952D02*
X017019Y012952D01*
X017038Y012894D02*
X015308Y012894D01*
X015324Y012835D02*
X017057Y012835D01*
X017076Y012777D02*
X015343Y012777D01*
X015362Y012718D02*
X017095Y012718D01*
X017114Y012660D02*
X015381Y012660D01*
X015400Y012601D02*
X017132Y012601D01*
X017151Y012543D02*
X015419Y012543D01*
X015438Y012484D02*
X017170Y012484D01*
X017189Y012426D02*
X015457Y012426D01*
X015476Y012367D02*
X017208Y012367D01*
X017218Y012337D02*
X017218Y012337D01*
X017232Y012309D02*
X015495Y012309D01*
X015514Y012250D02*
X017260Y012250D01*
X017289Y012192D02*
X015533Y012192D01*
X015552Y012133D02*
X017317Y012133D01*
X017346Y012075D02*
X015571Y012075D01*
X015590Y012016D02*
X017374Y012016D01*
X017403Y011958D02*
X015609Y011958D01*
X015628Y011899D02*
X017431Y011899D01*
X017460Y011841D02*
X015647Y011841D01*
X015666Y011782D02*
X017488Y011782D01*
X017517Y011724D02*
X015693Y011724D01*
X015720Y011665D02*
X017545Y011665D01*
X017574Y011607D02*
X015748Y011607D01*
X015775Y011548D02*
X017602Y011548D01*
X017631Y011490D02*
X015803Y011490D01*
X015830Y011431D02*
X017659Y011431D01*
X017682Y011384D02*
X017682Y011384D01*
X017690Y011373D02*
X015858Y011373D01*
X015885Y011314D02*
X017729Y011314D01*
X017769Y011256D02*
X015913Y011256D01*
X015940Y011197D02*
X017808Y011197D01*
X017848Y011139D02*
X015968Y011139D01*
X015995Y011080D02*
X017887Y011080D01*
X017927Y011022D02*
X016023Y011022D01*
X016050Y010963D02*
X017966Y010963D01*
X018006Y010905D02*
X016078Y010905D01*
X016105Y010846D02*
X018045Y010846D01*
X018085Y010788D02*
X016133Y010788D01*
X016296Y015694D02*
X016296Y015694D01*
X016279Y015702D02*
X017283Y015702D01*
X017157Y015760D02*
X016158Y015760D01*
X016036Y015819D02*
X017033Y015819D01*
X017034Y015818D02*
X017034Y015818D01*
X017484Y015698D02*
X017484Y015698D01*
X022226Y014622D02*
X022226Y014622D01*
X022814Y013888D02*
X025631Y013888D01*
X025637Y013830D02*
X022808Y013830D01*
X022802Y013776D02*
X022802Y013776D01*
X022800Y013771D02*
X025645Y013771D01*
X025679Y013713D02*
X022766Y013713D01*
X022732Y013654D02*
X025712Y013654D01*
X025736Y013614D02*
X025736Y013614D01*
X025746Y013596D02*
X022698Y013596D01*
X022665Y013537D02*
X025780Y013537D01*
X025364Y014707D02*
X032084Y014707D01*
X032037Y014766D02*
X025387Y014766D01*
X025397Y014824D02*
X031990Y014824D01*
X031510Y015936D02*
X033373Y015936D01*
X033369Y015994D02*
X031559Y015994D01*
X031594Y016036D02*
X031594Y016036D01*
X031599Y016053D02*
X033365Y016053D01*
X033362Y016111D02*
X031614Y016111D01*
X031630Y016170D02*
X033358Y016170D01*
X033354Y016228D02*
X031646Y016228D01*
X031662Y016287D02*
X033351Y016287D01*
X033343Y016345D02*
X031662Y016345D01*
X031668Y016311D02*
X031668Y016311D01*
X031652Y016404D02*
X033332Y016404D01*
X033320Y016462D02*
X031642Y016462D01*
X031632Y016521D02*
X033309Y016521D01*
X033298Y016579D02*
X031622Y016579D01*
X031611Y016638D02*
X033287Y016638D01*
X033276Y016696D02*
X031601Y016696D01*
X031591Y016755D02*
X033265Y016755D01*
X033253Y016813D02*
X031581Y016813D01*
X031571Y016872D02*
X033242Y016872D01*
X033231Y016930D02*
X031561Y016930D01*
X031548Y016989D02*
X033220Y016989D01*
X033209Y017047D02*
X031529Y017047D01*
X031510Y017106D02*
X033198Y017106D01*
X033186Y017164D02*
X031491Y017164D01*
X031472Y017223D02*
X033175Y017223D01*
X033164Y017281D02*
X031454Y017281D01*
X031435Y017340D02*
X033153Y017340D01*
X033142Y017398D02*
X031416Y017398D01*
X031397Y017457D02*
X033129Y017457D01*
X033110Y017515D02*
X031378Y017515D01*
X031359Y017574D02*
X033091Y017574D01*
X033072Y017632D02*
X031340Y017632D01*
X031321Y017691D02*
X033053Y017691D01*
X033034Y017749D02*
X031302Y017749D01*
X031283Y017808D02*
X033015Y017808D01*
X032996Y017866D02*
X031264Y017866D01*
X031245Y017925D02*
X032977Y017925D01*
X032958Y017983D02*
X031226Y017983D01*
X031198Y018042D02*
X032939Y018042D01*
X032920Y018100D02*
X031169Y018100D01*
X031141Y018159D02*
X032901Y018159D01*
X032882Y018217D02*
X031112Y018217D01*
X031084Y018276D02*
X032863Y018276D01*
X032844Y018334D02*
X031055Y018334D01*
X031027Y018393D02*
X032825Y018393D01*
X032806Y018451D02*
X030998Y018451D01*
X030970Y018510D02*
X032787Y018510D01*
X032765Y018568D02*
X030941Y018568D01*
X030913Y018627D02*
X032738Y018627D01*
X032710Y018685D02*
X030884Y018685D01*
X030856Y018744D02*
X032682Y018744D01*
X032655Y018802D02*
X030827Y018802D01*
X030799Y018861D02*
X032627Y018861D01*
X032600Y018919D02*
X030770Y018919D01*
X030734Y018978D02*
X032572Y018978D01*
X032545Y019036D02*
X030694Y019036D01*
X030655Y019095D02*
X032517Y019095D01*
X032490Y019153D02*
X030615Y019153D01*
X030576Y019212D02*
X032462Y019212D01*
X032435Y019270D02*
X030536Y019270D01*
X030497Y019329D02*
X032407Y019329D01*
X032380Y019387D02*
X030457Y019387D01*
X030418Y019446D02*
X032352Y019446D01*
X032325Y019504D02*
X030378Y019504D01*
X030339Y019563D02*
X032297Y019563D01*
X032265Y019621D02*
X030299Y019621D01*
X030260Y019680D02*
X032228Y019680D01*
X032190Y019738D02*
X030220Y019738D01*
X030181Y019797D02*
X032153Y019797D01*
X032116Y019855D02*
X030132Y019855D01*
X030079Y019914D02*
X032079Y019914D01*
X032042Y019972D02*
X030027Y019972D01*
X029974Y020031D02*
X032005Y020031D01*
X031968Y020089D02*
X029921Y020089D01*
X029868Y020148D02*
X031931Y020148D01*
X031893Y020206D02*
X029815Y020206D01*
X029762Y020265D02*
X031856Y020265D01*
X031819Y020323D02*
X029710Y020323D01*
X029657Y020382D02*
X031782Y020382D01*
X031745Y020440D02*
X029604Y020440D01*
X029551Y020499D02*
X031708Y020499D01*
X031671Y020557D02*
X029498Y020557D01*
X029458Y020602D02*
X029458Y020602D01*
X029441Y020616D02*
X031624Y020616D01*
X031576Y020674D02*
X029371Y020674D01*
X029301Y020733D02*
X031527Y020733D01*
X031479Y020791D02*
X029231Y020791D01*
X029161Y020850D02*
X031431Y020850D01*
X031382Y020908D02*
X029091Y020908D01*
X029021Y020967D02*
X031334Y020967D01*
X031285Y021025D02*
X028951Y021025D01*
X028942Y021033D02*
X028942Y021033D01*
X029013Y020973D02*
X029013Y020973D01*
X028750Y021084D02*
X031237Y021084D01*
X031189Y021142D02*
X027055Y021142D01*
X027022Y021084D02*
X028542Y021084D01*
X028667Y021106D02*
X028667Y021106D01*
X028386Y021056D02*
X028386Y021056D01*
X028342Y021025D02*
X026988Y021025D01*
X026954Y020967D02*
X028259Y020967D01*
X028175Y020908D02*
X026920Y020908D01*
X026886Y020850D02*
X028128Y020850D01*
X028095Y020791D02*
X026853Y020791D01*
X026819Y020733D02*
X028061Y020733D01*
X028027Y020674D02*
X026785Y020674D01*
X026751Y020616D02*
X027993Y020616D01*
X027959Y020557D02*
X026718Y020557D01*
X026684Y020499D02*
X027926Y020499D01*
X027892Y020440D02*
X026650Y020440D01*
X026616Y020382D02*
X027858Y020382D01*
X027824Y020323D02*
X026583Y020323D01*
X026549Y020265D02*
X027791Y020265D01*
X027757Y020206D02*
X026515Y020206D01*
X026481Y020148D02*
X027723Y020148D01*
X027689Y020089D02*
X026447Y020089D01*
X026414Y020031D02*
X027655Y020031D01*
X027622Y019972D02*
X026380Y019972D01*
X026346Y019914D02*
X027588Y019914D01*
X027554Y019855D02*
X026312Y019855D01*
X026279Y019797D02*
X027520Y019797D01*
X027487Y019738D02*
X026245Y019738D01*
X026211Y019680D02*
X027453Y019680D01*
X027419Y019621D02*
X026177Y019621D01*
X026143Y019563D02*
X027385Y019563D01*
X027351Y019504D02*
X026110Y019504D01*
X026076Y019446D02*
X027318Y019446D01*
X027284Y019387D02*
X026042Y019387D01*
X026008Y019329D02*
X027250Y019329D01*
X027216Y019270D02*
X025975Y019270D01*
X025941Y019212D02*
X027183Y019212D01*
X027149Y019153D02*
X025907Y019153D01*
X025873Y019095D02*
X027115Y019095D01*
X027081Y019036D02*
X025839Y019036D01*
X025806Y018978D02*
X027047Y018978D01*
X027014Y018919D02*
X025772Y018919D01*
X025738Y018861D02*
X026980Y018861D01*
X026946Y018802D02*
X025704Y018802D01*
X025671Y018744D02*
X026912Y018744D01*
X026879Y018685D02*
X025637Y018685D01*
X025603Y018627D02*
X026845Y018627D01*
X026811Y018568D02*
X025569Y018568D01*
X025535Y018510D02*
X026777Y018510D01*
X026744Y018451D02*
X025502Y018451D01*
X025468Y018393D02*
X026710Y018393D01*
X026676Y018334D02*
X025434Y018334D01*
X025400Y018276D02*
X026642Y018276D01*
X026608Y018217D02*
X025367Y018217D01*
X025333Y018159D02*
X026575Y018159D01*
X026541Y018100D02*
X025299Y018100D01*
X025265Y018042D02*
X026507Y018042D01*
X026473Y017983D02*
X025232Y017983D01*
X025198Y017925D02*
X026440Y017925D01*
X026406Y017866D02*
X025164Y017866D01*
X025130Y017808D02*
X026372Y017808D01*
X026338Y017749D02*
X025096Y017749D01*
X025063Y017691D02*
X026304Y017691D01*
X026271Y017632D02*
X025029Y017632D01*
X024995Y017574D02*
X026237Y017574D01*
X026203Y017515D02*
X024961Y017515D01*
X024928Y017457D02*
X026169Y017457D01*
X026136Y017398D02*
X024894Y017398D01*
X024860Y017340D02*
X026102Y017340D01*
X026068Y017281D02*
X024826Y017281D01*
X024792Y017223D02*
X026034Y017223D01*
X026000Y017164D02*
X024759Y017164D01*
X024725Y017106D02*
X025967Y017106D01*
X025933Y017047D02*
X024663Y017047D01*
X024583Y016989D02*
X025899Y016989D01*
X025865Y016930D02*
X024502Y016930D01*
X024490Y016921D02*
X024490Y016921D01*
X026218Y015698D02*
X026218Y015698D01*
X027089Y021201D02*
X031140Y021201D01*
X031092Y021259D02*
X027123Y021259D01*
X027157Y021318D02*
X031043Y021318D01*
X030995Y021376D02*
X027190Y021376D01*
X027222Y021431D02*
X027222Y021431D01*
X027222Y021435D02*
X030947Y021435D01*
X030890Y021493D02*
X027227Y021493D01*
X027232Y021552D02*
X030827Y021552D01*
X030765Y021610D02*
X027238Y021610D01*
X027243Y021669D02*
X030703Y021669D01*
X030640Y021727D02*
X028551Y021727D01*
X028672Y021786D02*
X030578Y021786D01*
X030516Y021844D02*
X028794Y021844D01*
X028859Y021903D02*
X030454Y021903D01*
X030391Y021961D02*
X028906Y021961D01*
X028956Y022020D02*
X030329Y022020D01*
X030267Y022078D02*
X028999Y022078D01*
X029013Y022097D02*
X029013Y022097D01*
X029023Y022137D02*
X030204Y022137D01*
X030142Y022195D02*
X029036Y022195D01*
X029059Y022254D02*
X030078Y022254D01*
X029997Y022312D02*
X029067Y022312D01*
X029076Y022371D02*
X029917Y022371D01*
X029836Y022429D02*
X029073Y022429D01*
X029081Y022393D02*
X029081Y022393D01*
X029067Y022488D02*
X029756Y022488D01*
X029675Y022546D02*
X029064Y022546D01*
X029039Y022605D02*
X029595Y022605D01*
X029514Y022663D02*
X029019Y022663D01*
X029013Y022689D02*
X029013Y022689D01*
X028991Y022722D02*
X029434Y022722D01*
X029353Y022780D02*
X028967Y022780D01*
X028909Y022839D02*
X029273Y022839D01*
X029192Y022897D02*
X028850Y022897D01*
X028824Y022927D02*
X028824Y022927D01*
X028792Y022956D02*
X029099Y022956D01*
X028992Y023014D02*
X028667Y023014D01*
X028780Y023131D02*
X019665Y023131D01*
X019559Y023073D02*
X028886Y023073D01*
X027783Y022689D02*
X027783Y022689D01*
X027777Y022663D02*
X024909Y022663D01*
X025280Y022637D02*
X025280Y022637D01*
X025431Y022605D02*
X027764Y022605D01*
X027745Y022546D02*
X025705Y022546D01*
X025978Y022488D02*
X027737Y022488D01*
X027724Y022429D02*
X026252Y022429D01*
X026438Y022371D02*
X027720Y022371D01*
X027715Y022393D02*
X027715Y022393D01*
X027734Y022312D02*
X026598Y022312D01*
X026758Y022254D02*
X027747Y022254D01*
X027760Y022195D02*
X026917Y022195D01*
X026948Y022184D02*
X026948Y022184D01*
X026995Y022137D02*
X027774Y022137D01*
X027798Y022078D02*
X027054Y022078D01*
X027112Y022020D02*
X027844Y022020D01*
X027891Y021961D02*
X027157Y021961D01*
X027150Y021982D02*
X027150Y021982D01*
X027178Y021903D02*
X027937Y021903D01*
X028003Y021844D02*
X027200Y021844D01*
X027221Y021786D02*
X028124Y021786D01*
X028246Y021727D02*
X027242Y021727D01*
X026768Y022250D02*
X026768Y022250D01*
X024222Y022712D02*
X024222Y022712D01*
X027038Y009208D02*
X031214Y009208D01*
X031166Y009150D02*
X027071Y009150D01*
X027105Y009091D02*
X031117Y009091D01*
X031069Y009033D02*
X027139Y009033D01*
X027173Y008974D02*
X031021Y008974D01*
X030972Y008916D02*
X027206Y008916D01*
X027225Y008857D02*
X030922Y008857D01*
X030860Y008799D02*
X027230Y008799D01*
X027235Y008740D02*
X030798Y008740D01*
X030736Y008682D02*
X027240Y008682D01*
D12*
X027492Y008959D03*
X027312Y009249D03*
X027152Y009539D03*
X026972Y009839D03*
X026802Y010149D03*
X021182Y010449D03*
X021012Y010139D03*
X020842Y009829D03*
X020672Y009539D03*
X020492Y009239D03*
X018632Y015439D03*
X018282Y015439D03*
X017902Y015419D03*
X017562Y015419D03*
X017222Y015419D03*
X021612Y020179D03*
X021432Y020479D03*
X021262Y020789D03*
X021092Y021079D03*
X020932Y021379D03*
X027282Y019889D03*
X027452Y020199D03*
X027622Y020509D03*
X027782Y020799D03*
X027952Y021109D03*
X029842Y014909D03*
X030192Y014909D03*
X030542Y014909D03*
X030882Y014909D03*
X031222Y014909D03*
M02*
