%
M48
M72
T01C0.0022
T02C0.0200
T03C0.1290
%
T01
X6282Y6292
X2730Y13398
X2613Y15140
X2739Y16880
X6292Y24018
X13400Y27548
X15140Y27668
X16890Y27548
X24001Y23998
X27537Y16880
X27667Y15140
X27547Y13400
X23998Y6282
X16890Y2733
X15130Y2603
X13400Y2723
X15143Y11200
X19077Y15140
X15143Y19070
X11203Y15140
T02
X7299Y15509
X6959Y15509
X6619Y15509
X6279Y15509
X5939Y15509
X5599Y15509
X14779Y7329
X14779Y6989
X14779Y6649
X14779Y6309
X14779Y5969
X14779Y5629
X22949Y14779
X23289Y14779
X23629Y14779
X23969Y14779
X24309Y14779
X24649Y14779
X15479Y22989
X15479Y23329
X15479Y23669
X15479Y24009
X15479Y24349
X15479Y24689
T03
X15140Y15140
M30
