G75*
G70*
%OFA0B0*%
%FSLAX24Y24*%
%IPPOS*%
%LPD*%
%AMOC8*
5,1,8,0,0,1.08239X$1,22.5*
%
%ADD10R,0.1000X0.0500*%
%ADD11R,0.2000X0.1000*%
%ADD12C,0.0360*%
%ADD13C,0.0320*%
%ADD14C,0.0340*%
%ADD15C,0.0320*%
%ADD16C,0.0040*%
D10*
G36*
X009759Y006343D02*
X010350Y007147D01*
X010753Y006851D01*
X010162Y006047D01*
X009759Y006343D01*
G37*
G36*
X010467Y005886D02*
X010869Y006801D01*
X011325Y006600D01*
X010923Y005685D01*
X010467Y005886D01*
G37*
G36*
X005004Y014995D02*
X005998Y015099D01*
X006050Y014603D01*
X005056Y014499D01*
X005004Y014995D01*
G37*
G36*
X005048Y015825D02*
X006042Y015721D01*
X005990Y015225D01*
X004996Y015329D01*
X005048Y015825D01*
G37*
G36*
X010169Y024268D02*
X010763Y023465D01*
X010361Y023168D01*
X009767Y023971D01*
X010169Y024268D01*
G37*
G36*
X010916Y024646D02*
X011322Y023733D01*
X010866Y023530D01*
X010460Y024443D01*
X010916Y024646D01*
G37*
G36*
X020786Y024453D02*
X020387Y023537D01*
X019930Y023737D01*
X020329Y024653D01*
X020786Y024453D01*
G37*
G36*
X021487Y023979D02*
X020900Y023171D01*
X020495Y023465D01*
X021082Y024273D01*
X021487Y023979D01*
G37*
G36*
X026251Y015336D02*
X025258Y015226D01*
X025203Y015722D01*
X026196Y015832D01*
X026251Y015336D01*
G37*
G36*
X026190Y014485D02*
X025197Y014595D01*
X025252Y015091D01*
X026245Y014981D01*
X026190Y014485D01*
G37*
G36*
X021078Y006047D02*
X020487Y006851D01*
X020890Y007147D01*
X021481Y006343D01*
X021078Y006047D01*
G37*
G36*
X020317Y005675D02*
X019915Y006590D01*
X020371Y006791D01*
X020773Y005876D01*
X020317Y005675D01*
G37*
D11*
G36*
X014382Y015532D02*
X015381Y013800D01*
X014514Y013300D01*
X013515Y015032D01*
X014382Y015532D01*
G37*
G36*
X002707Y017856D02*
X003391Y019734D01*
X004329Y019392D01*
X003645Y017514D01*
X002707Y017856D01*
G37*
G36*
X003808Y012727D02*
X004292Y010787D01*
X003322Y010545D01*
X002838Y012485D01*
X003808Y012727D01*
G37*
D12*
X003612Y012478D03*
X003699Y012093D03*
X003807Y011700D03*
X003904Y011316D03*
X004001Y010931D03*
X003459Y010792D03*
X003363Y011166D03*
X003276Y011551D03*
X003179Y011935D03*
X003092Y012320D03*
D13*
X005499Y015449D03*
X005839Y015559D03*
X006270Y015531D03*
X006640Y015502D03*
X007009Y015473D03*
X007379Y015443D03*
X007748Y015424D03*
X005179Y015629D03*
X011912Y022117D03*
X011748Y022454D03*
X011584Y022781D03*
X011421Y023117D03*
X011257Y023444D03*
X011087Y023824D03*
X010826Y024059D03*
X010831Y024413D03*
X019789Y021841D03*
X020005Y022165D03*
X020211Y022479D03*
X020417Y022782D03*
X020623Y023086D03*
X020852Y023422D03*
X020925Y023765D03*
X021233Y023938D03*
X023513Y014885D03*
X023882Y014859D03*
X024251Y014833D03*
X024620Y014808D03*
X024989Y014782D03*
X025396Y014759D03*
X025732Y014862D03*
X026033Y014676D03*
X019312Y008203D03*
X019480Y007874D03*
X019648Y007544D03*
X019816Y007214D03*
X019984Y006874D03*
X020167Y006512D03*
X020424Y006272D03*
X020413Y005919D03*
X011445Y008454D03*
X011245Y008147D03*
X011044Y007839D03*
X010843Y007532D03*
X010633Y007225D03*
X010390Y006895D03*
X010323Y006550D03*
X010018Y006372D03*
D14*
X010633Y007225D02*
X011445Y008454D01*
X007748Y015424D02*
X006259Y015529D01*
X005519Y015525D01*
X011912Y022117D02*
X011259Y023439D01*
X011039Y023829D01*
X019789Y021841D02*
X020623Y023086D01*
X020852Y023422D01*
D15*
X023513Y014885D02*
X024989Y014782D01*
X025396Y014759D01*
X019312Y008203D02*
X019984Y006874D01*
X020167Y006512D01*
X010633Y007225D02*
X010390Y006895D01*
D16*
X007741Y005936D02*
X006269Y005936D01*
X006234Y005974D02*
X008352Y005974D01*
X008436Y005957D02*
X007906Y006066D01*
X007906Y006066D01*
X007427Y006319D01*
X007427Y006319D01*
X007233Y006507D01*
X007199Y006540D01*
X006752Y006973D01*
X005901Y008005D01*
X005414Y008749D01*
X005405Y008728D01*
X005377Y008604D01*
X005377Y008604D01*
X005329Y008544D01*
X005323Y008529D01*
X005295Y008501D01*
X005190Y008370D01*
X005190Y008370D01*
X005190Y008370D01*
X004921Y008240D01*
X004621Y008240D01*
X004421Y008337D01*
X004399Y008346D01*
X004397Y008348D01*
X004397Y008349D01*
X004665Y007893D01*
X005500Y006770D01*
X006449Y005741D01*
X007303Y004994D01*
X007301Y004996D01*
X007301Y004996D01*
X007273Y005118D01*
X007256Y005159D01*
X007256Y005193D01*
X007235Y005288D01*
X007235Y005288D01*
X007256Y005383D01*
X007256Y005419D01*
X007274Y005463D01*
X007301Y005580D01*
X007301Y005580D01*
X007346Y005637D01*
X007356Y005659D01*
X007398Y005702D01*
X007488Y005814D01*
X007488Y005814D01*
X007488Y005814D01*
X007532Y005835D01*
X007539Y005843D01*
X007599Y005868D01*
X007758Y005944D01*
X008057Y005944D01*
X008191Y005880D01*
X008279Y005843D01*
X008291Y005831D01*
X008327Y005814D01*
X008327Y005814D01*
X008400Y005722D01*
X008463Y005659D01*
X008477Y005626D01*
X008513Y005580D01*
X008513Y005580D01*
X008535Y005485D01*
X008562Y005419D01*
X008562Y005365D01*
X008580Y005288D01*
X008580Y005288D01*
X008562Y005211D01*
X008562Y005159D01*
X008536Y005096D01*
X008513Y004996D01*
X008475Y004948D01*
X008463Y004919D01*
X008409Y004866D01*
X008327Y004762D01*
X008327Y004762D01*
X008327Y004762D01*
X008286Y004743D01*
X008279Y004736D01*
X008225Y004713D01*
X008057Y004632D01*
X007769Y004632D01*
X008647Y004016D01*
X008837Y003911D01*
X008825Y003925D01*
X008807Y003944D01*
X008802Y003953D01*
X008750Y004019D01*
X008750Y004019D01*
X008719Y004154D01*
X008707Y004184D01*
X008707Y004208D01*
X008684Y004311D01*
X008684Y004311D01*
X008707Y004414D01*
X008707Y004443D01*
X008722Y004479D01*
X008750Y004603D01*
X008750Y004603D01*
X008798Y004663D01*
X008807Y004683D01*
X008846Y004723D01*
X008937Y004837D01*
X008937Y004837D01*
X008981Y004858D01*
X008990Y004867D01*
X009059Y004895D01*
X009207Y004967D01*
X009506Y004967D01*
X009606Y004919D01*
X009730Y004867D01*
X009746Y004851D01*
X009776Y004837D01*
X009776Y004837D01*
X009836Y004761D01*
X009914Y004683D01*
X009931Y004642D01*
X009962Y004603D01*
X009981Y004521D01*
X010013Y004443D01*
X010013Y004380D01*
X010029Y004311D01*
X010029Y004311D01*
X010013Y004242D01*
X011330Y004242D01*
X011296Y004280D02*
X010022Y004280D01*
X010027Y004319D02*
X011262Y004319D01*
X011246Y004337D02*
X011606Y003931D01*
X012065Y003642D01*
X012280Y003581D01*
X012325Y003568D01*
X012968Y003386D01*
X014285Y003165D01*
X014285Y003165D01*
X015167Y003116D01*
X015144Y003088D01*
X015066Y003009D01*
X015049Y002968D01*
X015014Y002924D01*
X014993Y002835D01*
X014966Y002769D01*
X014966Y002716D01*
X014947Y002633D01*
X014947Y002633D01*
X014966Y002549D01*
X014966Y002509D01*
X012102Y002509D01*
X011975Y002548D02*
X014966Y002548D01*
X014966Y002509D02*
X014986Y002461D01*
X015014Y002341D01*
X015014Y002341D01*
X015060Y002282D01*
X015066Y002269D01*
X015090Y002245D01*
X015201Y002107D01*
X015377Y002021D01*
X015270Y002019D01*
X013875Y002130D01*
X012500Y002389D01*
X011160Y002793D01*
X010934Y002889D01*
X011077Y002889D01*
X011296Y002994D01*
X011299Y002996D01*
X011300Y002996D01*
X011347Y003019D01*
X011442Y003139D01*
X011483Y003179D01*
X011492Y003201D01*
X011533Y003253D01*
X011533Y003253D01*
X011558Y003360D01*
X011582Y003419D01*
X011582Y003468D01*
X011600Y003545D01*
X011582Y003621D01*
X011582Y003679D01*
X011553Y003751D01*
X011533Y003837D01*
X011500Y003878D01*
X011483Y003919D01*
X011405Y003997D01*
X011347Y004071D01*
X011347Y004071D01*
X011318Y004085D01*
X011299Y004103D01*
X011158Y004162D01*
X011077Y004201D01*
X011064Y004201D01*
X011059Y004202D01*
X010799Y004202D01*
X010795Y004201D01*
X010777Y004201D01*
X010669Y004148D01*
X010559Y004103D01*
X010545Y004089D01*
X010508Y004071D01*
X010508Y004071D01*
X010508Y004071D01*
X010431Y003975D01*
X010376Y003919D01*
X010364Y003890D01*
X010321Y003837D01*
X010321Y003837D01*
X010296Y003726D01*
X010276Y003679D01*
X010276Y003641D01*
X010254Y003545D01*
X010254Y003545D01*
X010276Y003449D01*
X010276Y003419D01*
X010291Y003384D01*
X010321Y003253D01*
X010321Y003253D01*
X010372Y003189D01*
X010376Y003179D01*
X010394Y003161D01*
X010447Y003094D01*
X009871Y003338D01*
X009298Y003655D01*
X009506Y003655D01*
X009685Y003741D01*
X009730Y003760D01*
X009736Y003766D01*
X009776Y003785D01*
X009857Y003887D01*
X009914Y003944D01*
X009926Y003974D01*
X009962Y004019D01*
X009984Y004112D01*
X010013Y004184D01*
X010013Y004242D01*
X010013Y004203D02*
X011364Y004203D01*
X011399Y004165D02*
X011151Y004165D01*
X011243Y004126D02*
X011433Y004126D01*
X011467Y004088D02*
X011314Y004088D01*
X011364Y004049D02*
X011501Y004049D01*
X011535Y004011D02*
X011394Y004011D01*
X011430Y003972D02*
X011569Y003972D01*
X011603Y003934D02*
X011468Y003934D01*
X011493Y003895D02*
X011663Y003895D01*
X011606Y003931D02*
X011606Y003931D01*
X011606Y003931D01*
X011517Y003857D02*
X011724Y003857D01*
X011785Y003818D02*
X011537Y003818D01*
X011533Y003837D02*
X011533Y003837D01*
X011546Y003780D02*
X011846Y003780D01*
X011907Y003741D02*
X011557Y003741D01*
X011573Y003703D02*
X011969Y003703D01*
X012030Y003664D02*
X011582Y003664D01*
X011582Y003626D02*
X012123Y003626D01*
X012065Y003642D02*
X012065Y003642D01*
X012259Y003587D02*
X011590Y003587D01*
X011599Y003549D02*
X012394Y003549D01*
X012280Y003581D02*
X012280Y003581D01*
X012529Y003510D02*
X011592Y003510D01*
X011583Y003472D02*
X012665Y003472D01*
X012800Y003433D02*
X011582Y003433D01*
X011572Y003395D02*
X012936Y003395D01*
X012968Y003386D02*
X012968Y003386D01*
X013143Y003356D02*
X011557Y003356D01*
X011548Y003318D02*
X013373Y003318D01*
X013602Y003279D02*
X011539Y003279D01*
X011524Y003241D02*
X013832Y003241D01*
X014061Y003202D02*
X011493Y003202D01*
X011467Y003164D02*
X014302Y003164D01*
X014970Y002779D02*
X011209Y002779D01*
X011104Y002817D02*
X014986Y002817D01*
X014998Y002856D02*
X011012Y002856D01*
X011088Y002894D02*
X015007Y002894D01*
X015014Y002924D02*
X015014Y002924D01*
X015021Y002933D02*
X011168Y002933D01*
X011248Y002971D02*
X015050Y002971D01*
X015066Y003010D02*
X011328Y003010D01*
X011347Y003019D02*
X011347Y003019D01*
X011370Y003048D02*
X015105Y003048D01*
X015143Y003087D02*
X011401Y003087D01*
X011432Y003125D02*
X014996Y003125D01*
X014966Y002740D02*
X011336Y002740D01*
X011464Y002702D02*
X014963Y002702D01*
X014954Y002663D02*
X011592Y002663D01*
X011719Y002625D02*
X014949Y002625D01*
X014958Y002586D02*
X011847Y002586D01*
X012230Y002471D02*
X014982Y002471D01*
X014993Y002432D02*
X012358Y002432D01*
X012485Y002394D02*
X015002Y002394D01*
X015010Y002355D02*
X012681Y002355D01*
X012885Y002317D02*
X015033Y002317D01*
X015062Y002278D02*
X013089Y002278D01*
X013293Y002240D02*
X015094Y002240D01*
X015125Y002201D02*
X013497Y002201D01*
X013702Y002163D02*
X015156Y002163D01*
X015186Y002124D02*
X013947Y002124D01*
X014428Y002086D02*
X015243Y002086D01*
X015201Y002107D02*
X015201Y002107D01*
X015323Y002047D02*
X014909Y002047D01*
X015891Y002035D02*
X016039Y002107D01*
X016155Y002251D01*
X016173Y002269D01*
X016177Y002279D01*
X016226Y002341D01*
X016255Y002468D01*
X016272Y002509D01*
X019152Y002509D01*
X018995Y002471D02*
X016256Y002471D01*
X016247Y002432D02*
X018837Y002432D01*
X018680Y002394D02*
X016238Y002394D01*
X016230Y002355D02*
X018522Y002355D01*
X018364Y002317D02*
X016207Y002317D01*
X016226Y002341D02*
X016226Y002341D01*
X016177Y002278D02*
X018207Y002278D01*
X018056Y002241D02*
X016669Y002056D01*
X015891Y002035D01*
X015917Y002047D02*
X016354Y002047D01*
X016146Y002240D02*
X018044Y002240D01*
X018056Y002241D02*
X019415Y002574D01*
X020289Y002889D01*
X020163Y002889D01*
X019893Y003019D01*
X019893Y003019D01*
X019707Y003253D01*
X019707Y003253D01*
X019672Y003406D01*
X019666Y003419D01*
X019666Y003430D01*
X019640Y003545D01*
X019640Y003545D01*
X019666Y003659D01*
X019666Y003679D01*
X019676Y003704D01*
X019707Y003837D01*
X019707Y003837D01*
X019758Y003901D01*
X019766Y003919D01*
X019800Y003954D01*
X019893Y004071D01*
X019893Y004071D01*
X019893Y004071D01*
X019939Y004093D01*
X019949Y004103D01*
X020029Y004136D01*
X020163Y004201D01*
X020185Y004201D01*
X020189Y004202D01*
X020449Y004202D01*
X020454Y004201D01*
X020463Y004201D01*
X020517Y004174D01*
X020689Y004103D01*
X020712Y004081D01*
X020732Y004071D01*
X020732Y004071D01*
X020775Y004018D01*
X020873Y003919D01*
X020895Y003867D01*
X020919Y003837D01*
X020919Y003837D01*
X020933Y003773D01*
X020972Y003679D01*
X020972Y003603D01*
X020986Y003545D01*
X020972Y003487D01*
X020972Y003419D01*
X020938Y003337D01*
X020919Y003253D01*
X020919Y003253D01*
X020887Y003212D01*
X020873Y003179D01*
X020811Y003118D01*
X020771Y003068D01*
X021979Y003655D01*
X021734Y003655D01*
X021555Y003741D01*
X021510Y003760D01*
X021504Y003766D01*
X021464Y003785D01*
X021464Y003785D01*
X021383Y003887D01*
X021326Y003944D01*
X021314Y003974D01*
X021278Y004019D01*
X021278Y004019D01*
X021256Y004112D01*
X021227Y004184D01*
X021227Y004242D01*
X019909Y004242D01*
X019943Y004280D02*
X021218Y004280D01*
X021211Y004311D02*
X021227Y004242D01*
X021227Y004203D02*
X019875Y004203D01*
X019841Y004165D02*
X020089Y004165D01*
X020006Y004126D02*
X019806Y004126D01*
X019772Y004088D02*
X019929Y004088D01*
X019876Y004049D02*
X019738Y004049D01*
X019704Y004011D02*
X019846Y004011D01*
X019815Y003972D02*
X019670Y003972D01*
X019636Y003934D02*
X019780Y003934D01*
X019754Y003895D02*
X019577Y003895D01*
X019633Y003931D02*
X019633Y003931D01*
X019992Y004336D01*
X019992Y004336D01*
X020224Y004826D01*
X020308Y005362D01*
X020277Y005604D01*
X020318Y005588D01*
X020837Y005816D01*
X020861Y005877D01*
X020432Y006854D01*
X020371Y006878D01*
X020273Y006835D01*
X020220Y006940D01*
X020220Y006940D01*
X020202Y006975D01*
X021002Y006975D01*
X020998Y006981D02*
X021025Y006943D01*
X021026Y006943D01*
X021140Y006786D01*
X021168Y006748D01*
X021196Y006710D01*
X021196Y006710D01*
X021329Y006529D01*
X021760Y006200D01*
X022266Y006006D01*
X022806Y005961D01*
X022806Y005961D01*
X023337Y006069D01*
X023817Y006322D01*
X023977Y006478D01*
X023977Y006478D01*
X024011Y006511D01*
X024491Y006976D01*
X025341Y008007D01*
X025825Y008748D01*
X025836Y008721D01*
X025863Y008604D01*
X025908Y008548D01*
X025916Y008529D01*
X025950Y008495D01*
X026050Y008370D01*
X026098Y008347D01*
X026099Y008346D01*
X026108Y008342D01*
X026319Y008240D01*
X026619Y008240D01*
X026827Y008341D01*
X026839Y008346D01*
X026841Y008347D01*
X026860Y008357D01*
X026173Y007320D01*
X025279Y006243D01*
X024277Y005267D01*
X023940Y005002D01*
X023956Y005071D01*
X023992Y005159D01*
X023992Y005231D01*
X024005Y005288D01*
X023992Y005345D01*
X023992Y005419D01*
X023955Y005510D01*
X023939Y005580D01*
X023939Y005580D01*
X023912Y005614D01*
X023893Y005659D01*
X023807Y005745D01*
X023752Y005814D01*
X023725Y005827D01*
X023709Y005843D01*
X023588Y005893D01*
X023482Y005944D01*
X023183Y005944D01*
X022996Y005854D01*
X022969Y005843D01*
X022966Y005840D01*
X022913Y005814D01*
X022805Y005679D01*
X022786Y005659D01*
X022781Y005649D01*
X022727Y005580D01*
X022694Y005438D01*
X022686Y005419D01*
X022686Y005404D01*
X022660Y005288D01*
X022686Y005173D01*
X022686Y005159D01*
X022693Y005143D01*
X022727Y004996D01*
X022783Y004925D01*
X022786Y004919D01*
X022796Y004909D01*
X022913Y004762D01*
X022913Y004762D01*
X023183Y004632D01*
X023469Y004632D01*
X023176Y004402D01*
X022418Y003928D01*
X022433Y003944D01*
X022438Y003953D01*
X022490Y004019D01*
X022521Y004154D01*
X022533Y004184D01*
X022533Y004208D01*
X022556Y004311D01*
X022556Y004311D01*
X022533Y004414D01*
X022533Y004443D01*
X022518Y004479D01*
X022490Y004603D01*
X022442Y004663D01*
X022433Y004683D01*
X022394Y004723D01*
X022303Y004837D01*
X022259Y004858D01*
X022250Y004867D01*
X022181Y004895D01*
X022033Y004967D01*
X021734Y004967D01*
X021634Y004919D01*
X021510Y004867D01*
X021494Y004851D01*
X021464Y004837D01*
X021464Y004837D01*
X021464Y004837D01*
X021404Y004761D01*
X021326Y004683D01*
X021309Y004642D01*
X021278Y004603D01*
X021278Y004603D01*
X021259Y004521D01*
X021227Y004443D01*
X021227Y004380D01*
X021211Y004311D01*
X021211Y004311D01*
X021213Y004319D02*
X019977Y004319D01*
X020002Y004357D02*
X021222Y004357D01*
X021227Y004396D02*
X020021Y004396D01*
X020039Y004434D02*
X021227Y004434D01*
X021239Y004473D02*
X020057Y004473D01*
X020075Y004511D02*
X021255Y004511D01*
X021266Y004550D02*
X020093Y004550D01*
X020111Y004588D02*
X021274Y004588D01*
X021297Y004627D02*
X020130Y004627D01*
X020148Y004665D02*
X021319Y004665D01*
X021347Y004704D02*
X020166Y004704D01*
X020184Y004742D02*
X021385Y004742D01*
X021420Y004781D02*
X020202Y004781D01*
X020220Y004819D02*
X021450Y004819D01*
X021501Y004858D02*
X020229Y004858D01*
X020224Y004826D02*
X020224Y004826D01*
X020235Y004896D02*
X021580Y004896D01*
X021668Y004935D02*
X020241Y004935D01*
X020247Y004973D02*
X022745Y004973D01*
X022727Y004996D02*
X022727Y004996D01*
X022723Y005012D02*
X020253Y005012D01*
X020259Y005050D02*
X022714Y005050D01*
X022705Y005089D02*
X020265Y005089D01*
X020271Y005127D02*
X022697Y005127D01*
X022686Y005166D02*
X020277Y005166D01*
X020283Y005204D02*
X022679Y005204D01*
X022670Y005243D02*
X020289Y005243D01*
X020295Y005281D02*
X022661Y005281D01*
X022660Y005288D02*
X022660Y005288D01*
X022667Y005320D02*
X020302Y005320D01*
X020308Y005358D02*
X022676Y005358D01*
X022685Y005397D02*
X020304Y005397D01*
X020308Y005362D02*
X020308Y005362D01*
X020299Y005435D02*
X022693Y005435D01*
X022702Y005474D02*
X020294Y005474D01*
X020289Y005512D02*
X022711Y005512D01*
X022720Y005551D02*
X020284Y005551D01*
X020279Y005589D02*
X020315Y005589D01*
X020322Y005589D02*
X022734Y005589D01*
X022727Y005580D02*
X022727Y005580D01*
X022765Y005628D02*
X020409Y005628D01*
X020497Y005666D02*
X022793Y005666D01*
X022826Y005705D02*
X020585Y005705D01*
X020672Y005743D02*
X022857Y005743D01*
X022887Y005782D02*
X020760Y005782D01*
X020839Y005820D02*
X022926Y005820D01*
X022913Y005814D02*
X022913Y005814D01*
X022913Y005814D01*
X023006Y005859D02*
X020854Y005859D01*
X020852Y005897D02*
X023086Y005897D01*
X023166Y005936D02*
X020835Y005936D01*
X020818Y005974D02*
X022641Y005974D01*
X022874Y005974D02*
X025004Y005974D01*
X024964Y005936D02*
X023499Y005936D01*
X023579Y005897D02*
X024925Y005897D01*
X024885Y005859D02*
X023671Y005859D01*
X023739Y005820D02*
X024846Y005820D01*
X024806Y005782D02*
X023778Y005782D01*
X023752Y005814D02*
X023752Y005814D01*
X023809Y005743D02*
X024767Y005743D01*
X024727Y005705D02*
X023847Y005705D01*
X023886Y005666D02*
X024687Y005666D01*
X024648Y005628D02*
X023906Y005628D01*
X023931Y005589D02*
X024608Y005589D01*
X024569Y005551D02*
X023945Y005551D01*
X023954Y005512D02*
X024529Y005512D01*
X024490Y005474D02*
X023970Y005474D01*
X023986Y005435D02*
X024450Y005435D01*
X024411Y005397D02*
X023992Y005397D01*
X023992Y005358D02*
X024371Y005358D01*
X024332Y005320D02*
X023998Y005320D01*
X024004Y005281D02*
X024292Y005281D01*
X024247Y005243D02*
X023995Y005243D01*
X023992Y005204D02*
X024198Y005204D01*
X024149Y005166D02*
X023992Y005166D01*
X023979Y005127D02*
X024100Y005127D01*
X024051Y005089D02*
X023963Y005089D01*
X023951Y005050D02*
X024002Y005050D01*
X023952Y005012D02*
X023942Y005012D01*
X023462Y004627D02*
X022471Y004627D01*
X022490Y004603D02*
X022490Y004603D01*
X022493Y004588D02*
X023413Y004588D01*
X023364Y004550D02*
X022502Y004550D01*
X022511Y004511D02*
X023315Y004511D01*
X023266Y004473D02*
X022521Y004473D01*
X022533Y004434D02*
X023217Y004434D01*
X023166Y004396D02*
X022537Y004396D01*
X022546Y004357D02*
X023104Y004357D01*
X023043Y004319D02*
X022555Y004319D01*
X022550Y004280D02*
X022981Y004280D01*
X022920Y004242D02*
X022541Y004242D01*
X022533Y004203D02*
X022858Y004203D01*
X022797Y004165D02*
X022525Y004165D01*
X022514Y004126D02*
X022735Y004126D01*
X022673Y004088D02*
X022506Y004088D01*
X022497Y004049D02*
X022612Y004049D01*
X022550Y004011D02*
X022483Y004011D01*
X022489Y003972D02*
X022453Y003972D01*
X022427Y003934D02*
X022424Y003934D01*
X021919Y003626D02*
X020972Y003626D01*
X020972Y003664D02*
X021715Y003664D01*
X021635Y003703D02*
X020963Y003703D01*
X020947Y003741D02*
X021555Y003741D01*
X021475Y003780D02*
X020932Y003780D01*
X020923Y003818D02*
X021438Y003818D01*
X021407Y003857D02*
X020903Y003857D01*
X020883Y003895D02*
X021374Y003895D01*
X021336Y003934D02*
X020858Y003934D01*
X020820Y003972D02*
X021314Y003972D01*
X021284Y004011D02*
X020781Y004011D01*
X020749Y004049D02*
X021271Y004049D01*
X021262Y004088D02*
X020704Y004088D01*
X020633Y004126D02*
X021250Y004126D01*
X021235Y004165D02*
X020540Y004165D01*
X020976Y003587D02*
X021840Y003587D01*
X021761Y003549D02*
X020985Y003549D01*
X020978Y003510D02*
X021682Y003510D01*
X021603Y003472D02*
X020972Y003472D01*
X020972Y003433D02*
X021523Y003433D01*
X021444Y003395D02*
X020962Y003395D01*
X020946Y003356D02*
X021365Y003356D01*
X021286Y003318D02*
X020934Y003318D01*
X020925Y003279D02*
X021207Y003279D01*
X021128Y003241D02*
X020909Y003241D01*
X020883Y003202D02*
X021048Y003202D01*
X020969Y003164D02*
X020857Y003164D01*
X020890Y003125D02*
X020819Y003125D01*
X020811Y003087D02*
X020787Y003087D01*
X020198Y002856D02*
X016242Y002856D01*
X016248Y002828D02*
X016226Y002924D01*
X016226Y002924D01*
X016189Y002971D01*
X016173Y003009D01*
X016101Y003081D01*
X016073Y003116D01*
X016953Y003165D01*
X016953Y003165D01*
X018271Y003385D01*
X018913Y003568D01*
X018959Y003581D01*
X018959Y003581D01*
X019174Y003642D01*
X019633Y003931D01*
X019723Y003857D02*
X019516Y003857D01*
X019454Y003818D02*
X019703Y003818D01*
X019694Y003780D02*
X019393Y003780D01*
X019332Y003741D02*
X019685Y003741D01*
X019676Y003703D02*
X019271Y003703D01*
X019209Y003664D02*
X019666Y003664D01*
X019659Y003626D02*
X019117Y003626D01*
X019174Y003642D02*
X019174Y003642D01*
X018981Y003587D02*
X019650Y003587D01*
X019641Y003549D02*
X018846Y003549D01*
X018710Y003510D02*
X019648Y003510D01*
X019657Y003472D02*
X018575Y003472D01*
X018439Y003433D02*
X019666Y003433D01*
X019674Y003395D02*
X018304Y003395D01*
X018271Y003385D02*
X018271Y003385D01*
X018097Y003356D02*
X019683Y003356D01*
X019692Y003318D02*
X017867Y003318D01*
X017638Y003279D02*
X019701Y003279D01*
X019716Y003241D02*
X017408Y003241D01*
X017178Y003202D02*
X019747Y003202D01*
X019778Y003164D02*
X016939Y003164D01*
X016244Y003125D02*
X019808Y003125D01*
X019839Y003087D02*
X016097Y003087D01*
X016134Y003048D02*
X019870Y003048D01*
X019912Y003010D02*
X016172Y003010D01*
X016189Y002971D02*
X019992Y002971D01*
X020072Y002933D02*
X016219Y002933D01*
X016233Y002894D02*
X020152Y002894D01*
X020091Y002817D02*
X016253Y002817D01*
X016248Y002828D02*
X016272Y002769D01*
X016272Y002722D01*
X016293Y002633D01*
X016272Y002543D01*
X016272Y002509D01*
X016273Y002548D02*
X019310Y002548D01*
X019451Y002586D02*
X016282Y002586D01*
X016291Y002625D02*
X019557Y002625D01*
X019664Y002663D02*
X016286Y002663D01*
X016277Y002702D02*
X019771Y002702D01*
X019878Y002740D02*
X016272Y002740D01*
X016268Y002779D02*
X019984Y002779D01*
X017756Y002201D02*
X016115Y002201D01*
X016084Y002163D02*
X017469Y002163D01*
X017181Y002124D02*
X016054Y002124D01*
X016039Y002107D02*
X016039Y002107D01*
X016039Y002107D01*
X015997Y002086D02*
X016894Y002086D01*
X020801Y006013D02*
X022247Y006013D01*
X022266Y006006D02*
X022266Y006006D01*
X022147Y006051D02*
X020784Y006051D01*
X020768Y006090D02*
X022047Y006090D01*
X021947Y006128D02*
X020751Y006128D01*
X020734Y006167D02*
X021847Y006167D01*
X021760Y006200D02*
X021760Y006200D01*
X021753Y006205D02*
X020717Y006205D01*
X020700Y006244D02*
X021703Y006244D01*
X021652Y006282D02*
X020683Y006282D01*
X020666Y006321D02*
X021602Y006321D01*
X021552Y006359D02*
X020649Y006359D01*
X020632Y006398D02*
X021501Y006398D01*
X021451Y006436D02*
X020615Y006436D01*
X020599Y006475D02*
X021400Y006475D01*
X021350Y006513D02*
X020582Y006513D01*
X020565Y006552D02*
X021312Y006552D01*
X021329Y006529D02*
X021329Y006529D01*
X021329Y006529D01*
X021284Y006590D02*
X020548Y006590D01*
X020531Y006629D02*
X021256Y006629D01*
X021227Y006667D02*
X020514Y006667D01*
X020497Y006706D02*
X021199Y006706D01*
X021171Y006744D02*
X020480Y006744D01*
X020463Y006783D02*
X021142Y006783D01*
X021140Y006786D02*
X021140Y006786D01*
X021114Y006821D02*
X020446Y006821D01*
X020416Y006860D02*
X021086Y006860D01*
X021058Y006898D02*
X020241Y006898D01*
X020260Y006860D02*
X020330Y006860D01*
X020221Y006937D02*
X021030Y006937D01*
X020998Y006981D02*
X020971Y007019D01*
X020970Y007020D01*
X020858Y007178D01*
X020857Y007178D01*
X020830Y007216D01*
X020803Y007254D01*
X020803Y007255D01*
X020692Y007414D01*
X020691Y007415D01*
X020664Y007453D01*
X020638Y007491D01*
X020637Y007492D01*
X020528Y007651D01*
X020527Y007652D01*
X020501Y007691D01*
X020475Y007729D01*
X020474Y007730D01*
X020367Y007890D01*
X020366Y007891D01*
X020340Y007930D01*
X020314Y007969D01*
X020314Y007970D01*
X020208Y008131D01*
X020207Y008131D01*
X020181Y008171D01*
X020156Y008209D01*
X020156Y008211D01*
X020051Y008373D01*
X020050Y008373D01*
X020025Y008413D01*
X020000Y008452D01*
X020000Y008453D01*
X019897Y008616D01*
X019896Y008616D01*
X019871Y008656D01*
X019846Y008695D01*
X019846Y008696D01*
X019745Y008860D01*
X019744Y008861D01*
X019720Y008901D01*
X019695Y008940D01*
X019695Y008941D01*
X019595Y009106D01*
X019594Y009107D01*
X019571Y009147D01*
X019547Y009186D01*
X019546Y009188D01*
X019448Y009353D01*
X019447Y009354D01*
X019424Y009394D01*
X019400Y009434D01*
X019400Y009435D01*
X019303Y009602D01*
X019303Y009602D01*
X019280Y009643D01*
X019256Y009683D01*
X019256Y009684D01*
X019161Y009851D01*
X019160Y009852D01*
X019138Y009893D01*
X019115Y009933D01*
X019114Y009935D01*
X019021Y010103D01*
X019020Y010103D01*
X018998Y010144D01*
X018975Y010185D01*
X018975Y010186D01*
X018883Y010355D01*
X018882Y010356D01*
X018861Y010397D01*
X018838Y010438D01*
X018838Y010439D01*
X018748Y010609D01*
X018748Y010609D01*
X018726Y010651D01*
X018704Y010692D01*
X018704Y010693D01*
X018644Y010806D01*
X018644Y010806D01*
X018544Y011141D01*
X018544Y011141D01*
X018510Y011489D01*
X018510Y011489D01*
X018523Y011634D01*
X018246Y011634D01*
X018246Y011621D02*
X018214Y011542D01*
X018195Y011459D01*
X018195Y011459D01*
X018162Y011418D01*
X018147Y011381D01*
X018076Y011310D01*
X018008Y011224D01*
X018008Y011224D01*
X018008Y011224D01*
X017975Y011208D01*
X017963Y011197D01*
X017874Y011160D01*
X017738Y011095D01*
X017439Y011095D01*
X017246Y011187D01*
X017223Y011197D01*
X017220Y011200D01*
X017169Y011224D01*
X017169Y011224D01*
X017065Y011355D01*
X017040Y011381D01*
X017034Y011394D01*
X016982Y011459D01*
X016982Y011459D01*
X016952Y011592D01*
X016940Y011621D01*
X016940Y011644D01*
X016916Y011750D01*
X016916Y011750D01*
X016940Y011857D01*
X016940Y011880D01*
X016952Y011909D01*
X016982Y012042D01*
X016982Y012042D01*
X017034Y012107D01*
X017040Y012120D01*
X017065Y012146D01*
X017169Y012276D01*
X017169Y012276D01*
X017220Y012301D01*
X017223Y012304D01*
X017247Y012314D01*
X017439Y012406D01*
X017738Y012406D01*
X017873Y012341D01*
X017963Y012304D01*
X017975Y012292D01*
X018008Y012276D01*
X018008Y012276D01*
X018076Y012192D01*
X018147Y012120D01*
X018162Y012083D01*
X018195Y012042D01*
X018195Y012042D01*
X018214Y011959D01*
X018246Y011880D01*
X018246Y011816D01*
X018261Y011750D01*
X018261Y011750D01*
X018246Y011685D01*
X018246Y011621D01*
X018236Y011595D02*
X018520Y011595D01*
X018516Y011557D02*
X018220Y011557D01*
X018208Y011518D02*
X018512Y011518D01*
X018510Y011480D02*
X018200Y011480D01*
X018181Y011441D02*
X018514Y011441D01*
X018518Y011403D02*
X018156Y011403D01*
X018131Y011364D02*
X018522Y011364D01*
X018526Y011326D02*
X018092Y011326D01*
X018058Y011287D02*
X018530Y011287D01*
X018533Y011249D02*
X018027Y011249D01*
X017979Y011210D02*
X018537Y011210D01*
X018541Y011172D02*
X017903Y011172D01*
X017819Y011133D02*
X018546Y011133D01*
X018558Y011095D02*
X017739Y011095D01*
X017438Y011095D02*
X016917Y011095D01*
X016896Y011113D02*
X016754Y011315D01*
X016669Y011548D01*
X016650Y011671D01*
X016650Y011679D01*
X016636Y011845D01*
X016540Y012181D01*
X016383Y012493D01*
X016305Y012593D01*
X016305Y012593D01*
X016282Y012623D01*
X016276Y012631D01*
X016247Y012668D01*
X016247Y012668D01*
X016182Y012751D01*
X016182Y012751D01*
X015921Y012910D01*
X015921Y012910D01*
X015620Y012966D01*
X015319Y012910D01*
X015058Y012751D01*
X014994Y012668D01*
X014994Y012668D01*
X014976Y012646D01*
X014964Y012631D01*
X014935Y012593D01*
X014935Y012593D01*
X014857Y012493D01*
X014857Y012493D01*
X014700Y012181D01*
X014604Y011845D01*
X014590Y011671D01*
X014571Y011548D01*
X014486Y011315D01*
X014344Y011113D01*
X014154Y010954D01*
X014044Y010895D01*
X014001Y010875D01*
X013886Y010822D01*
X013886Y010822D01*
X013602Y010618D01*
X013602Y010618D01*
X013362Y010364D01*
X013293Y010256D01*
X013293Y010256D01*
X013268Y010215D01*
X013243Y010176D01*
X013243Y010175D01*
X013141Y010013D01*
X013140Y010012D01*
X013116Y009972D01*
X013091Y009933D01*
X013091Y009932D01*
X012990Y009767D01*
X012989Y009767D01*
X012965Y009727D01*
X012941Y009687D01*
X012941Y009686D01*
X012842Y009521D01*
X012841Y009520D01*
X012817Y009480D01*
X012793Y009440D01*
X012793Y009439D01*
X012696Y009273D01*
X012695Y009272D01*
X012672Y009232D01*
X012648Y009192D01*
X012648Y009191D01*
X012552Y009024D01*
X012551Y009023D01*
X012528Y008983D01*
X012505Y008942D01*
X012505Y008941D01*
X012411Y008773D01*
X012410Y008773D01*
X012388Y008732D01*
X012365Y008691D01*
X012365Y008690D01*
X012272Y008522D01*
X012271Y008521D01*
X012249Y008480D01*
X012227Y008439D01*
X012227Y008438D01*
X012135Y008268D01*
X012135Y008267D01*
X012113Y008226D01*
X012091Y008185D01*
X012091Y008184D01*
X012001Y008014D01*
X012000Y008013D01*
X011979Y007971D01*
X011957Y007930D01*
X011957Y007929D01*
X011869Y007757D01*
X011848Y007715D01*
X011826Y007674D01*
X011826Y007672D01*
X011740Y007500D01*
X011739Y007499D01*
X011719Y007457D01*
X011698Y007416D01*
X011698Y007415D01*
X011613Y007241D01*
X011612Y007240D01*
X011592Y007198D01*
X011571Y007157D01*
X011571Y007155D01*
X011488Y006981D01*
X011487Y006980D01*
X011468Y006938D01*
X011447Y006896D01*
X011447Y006895D01*
X011366Y006719D01*
X011365Y006719D01*
X011346Y006676D01*
X011326Y006634D01*
X011326Y006633D01*
X011246Y006457D01*
X011245Y006456D01*
X011226Y006413D01*
X011207Y006371D01*
X011207Y006370D01*
X011128Y006193D01*
X011128Y006192D01*
X011109Y006149D01*
X011090Y006106D01*
X011090Y006106D01*
X011000Y005900D01*
X010931Y005363D01*
X010931Y005363D01*
X011015Y004827D01*
X011246Y004337D01*
X011246Y004337D01*
X011237Y004357D02*
X010018Y004357D01*
X010013Y004396D02*
X011218Y004396D01*
X011200Y004434D02*
X010013Y004434D01*
X010001Y004473D02*
X011182Y004473D01*
X011164Y004511D02*
X009985Y004511D01*
X009974Y004550D02*
X011146Y004550D01*
X011128Y004588D02*
X009966Y004588D01*
X009943Y004627D02*
X011109Y004627D01*
X011091Y004665D02*
X009921Y004665D01*
X009893Y004704D02*
X011073Y004704D01*
X011055Y004742D02*
X009855Y004742D01*
X009820Y004781D02*
X011037Y004781D01*
X011019Y004819D02*
X009790Y004819D01*
X009739Y004858D02*
X011010Y004858D01*
X011015Y004827D02*
X011015Y004827D01*
X011004Y004896D02*
X009660Y004896D01*
X009572Y004935D02*
X010998Y004935D01*
X010992Y004973D02*
X008495Y004973D01*
X008517Y005012D02*
X010986Y005012D01*
X010980Y005050D02*
X008526Y005050D01*
X008535Y005089D02*
X010974Y005089D01*
X010968Y005127D02*
X008549Y005127D01*
X008562Y005166D02*
X010962Y005166D01*
X010956Y005204D02*
X008562Y005204D01*
X008570Y005243D02*
X010950Y005243D01*
X010943Y005281D02*
X008579Y005281D01*
X008573Y005320D02*
X010937Y005320D01*
X010931Y005358D02*
X008564Y005358D01*
X008562Y005397D02*
X010935Y005397D01*
X010940Y005435D02*
X008556Y005435D01*
X008540Y005474D02*
X010945Y005474D01*
X010950Y005512D02*
X008529Y005512D01*
X008520Y005551D02*
X010955Y005551D01*
X010960Y005589D02*
X008506Y005589D01*
X008476Y005628D02*
X010965Y005628D01*
X010970Y005666D02*
X008456Y005666D01*
X008417Y005705D02*
X010975Y005705D01*
X010980Y005743D02*
X008383Y005743D01*
X008353Y005782D02*
X010985Y005782D01*
X010990Y005820D02*
X008314Y005820D01*
X008241Y005859D02*
X010995Y005859D01*
X011000Y005897D02*
X008154Y005897D01*
X008074Y005936D02*
X011016Y005936D01*
X011000Y005900D02*
X011000Y005900D01*
X011032Y005974D02*
X010208Y005974D01*
X010206Y005972D02*
X010837Y006831D01*
X010827Y006897D01*
X010738Y006963D01*
X010784Y007026D01*
X010814Y007046D01*
X011043Y007393D01*
X011047Y007396D01*
X011049Y007401D01*
X011681Y008357D01*
X011700Y008455D01*
X011680Y008552D01*
X011624Y008635D01*
X011541Y008690D01*
X011444Y008709D01*
X011403Y008700D01*
X011403Y008701D01*
X011505Y008867D01*
X011506Y008868D01*
X011530Y008908D01*
X011554Y008947D01*
X011554Y008948D01*
X011654Y009115D01*
X011655Y009115D01*
X011679Y009156D01*
X011703Y009195D01*
X011703Y009197D01*
X011801Y009364D01*
X011802Y009365D01*
X011825Y009405D01*
X011849Y009445D01*
X011849Y009446D01*
X011946Y009615D01*
X011947Y009616D01*
X011969Y009656D01*
X011992Y009696D01*
X011993Y009698D01*
X012087Y009867D01*
X012088Y009868D01*
X012111Y009908D01*
X012133Y009949D01*
X012134Y009950D01*
X012227Y010121D01*
X012228Y010121D01*
X012250Y010162D01*
X012272Y010203D01*
X012272Y010204D01*
X012364Y010376D01*
X012365Y010376D01*
X012386Y010418D01*
X012408Y010459D01*
X012408Y010460D01*
X012498Y010632D01*
X012520Y010674D01*
X012541Y010716D01*
X012541Y010716D01*
X012638Y010904D01*
X012737Y011410D01*
X012718Y011619D01*
X012714Y011661D01*
X012714Y011667D01*
X012711Y011787D01*
X012751Y012026D01*
X012851Y012245D01*
X013003Y012433D01*
X013096Y012510D01*
X013303Y012662D01*
X013617Y013068D01*
X013694Y013263D01*
X013712Y013307D01*
X013712Y013308D01*
X013729Y013351D01*
X013729Y013351D01*
X013767Y013448D01*
X013772Y013750D01*
X013670Y014034D01*
X013474Y014264D01*
X013210Y014411D01*
X013106Y014426D01*
X013103Y014427D01*
X013100Y014429D01*
X013099Y014429D01*
X013098Y014429D01*
X013098Y014429D01*
X013098Y014429D01*
X013098Y014429D01*
X013098Y014429D01*
X013057Y014434D01*
X013017Y014440D01*
X013017Y014440D01*
X013016Y014440D01*
X013016Y014440D01*
X013016Y014440D01*
X013016Y014440D01*
X013016Y014440D01*
X013016Y014440D01*
X013016Y014440D01*
X013016Y014440D01*
X013016Y014440D01*
X013015Y014440D01*
X013014Y014440D01*
X013013Y014440D01*
X012805Y014471D01*
X012297Y014402D01*
X012063Y014299D01*
X012063Y014298D01*
X011949Y014257D01*
X011712Y014219D01*
X011472Y014242D01*
X011247Y014326D01*
X011144Y014388D01*
X011105Y014416D01*
X011105Y014416D01*
X010933Y014535D01*
X010448Y014701D01*
X010238Y014711D01*
X010191Y014713D01*
X010144Y014716D01*
X010143Y014715D01*
X009950Y014724D01*
X009949Y014724D01*
X009902Y014726D01*
X009856Y014728D01*
X009854Y014727D01*
X009660Y014734D01*
X009659Y014734D01*
X009613Y014735D01*
X009566Y014737D01*
X009565Y014736D01*
X009371Y014741D01*
X009370Y014741D01*
X009323Y014742D01*
X009277Y014743D01*
X009275Y014743D01*
X009081Y014745D01*
X009080Y014746D01*
X009034Y014746D01*
X008987Y014746D01*
X008986Y014746D01*
X008792Y014746D01*
X008791Y014747D01*
X008744Y014747D01*
X008698Y014747D01*
X008696Y014746D01*
X008502Y014745D01*
X008501Y014745D01*
X008455Y014745D01*
X008408Y014744D01*
X008407Y014744D01*
X008213Y014740D01*
X008211Y014741D01*
X008165Y014740D01*
X008119Y014739D01*
X008117Y014738D01*
X007923Y014733D01*
X007922Y014733D01*
X007875Y014732D01*
X007829Y014730D01*
X007828Y014730D01*
X007633Y014723D01*
X007632Y014723D01*
X007586Y014721D01*
X007539Y014719D01*
X007538Y014719D01*
X007344Y014710D01*
X007343Y014710D01*
X007296Y014707D01*
X007250Y014705D01*
X007249Y014705D01*
X007054Y014693D01*
X007053Y014694D01*
X007007Y014691D01*
X006960Y014688D01*
X006959Y014688D01*
X006764Y014675D01*
X006763Y014675D01*
X006717Y014671D01*
X006670Y014668D01*
X006669Y014668D01*
X006475Y014653D01*
X006473Y014653D01*
X006427Y014649D01*
X006381Y014645D01*
X006380Y014645D01*
X006185Y014628D01*
X006184Y014628D01*
X006137Y014624D01*
X006091Y014620D01*
X006090Y014619D01*
X005895Y014600D01*
X005894Y014601D01*
X005848Y014596D01*
X005802Y014591D01*
X005800Y014590D01*
X005606Y014570D01*
X005605Y014570D01*
X005559Y014565D01*
X005512Y014560D01*
X005511Y014559D01*
X005289Y014534D01*
X004789Y014325D01*
X004368Y013985D01*
X004368Y013985D01*
X004368Y013985D01*
X004059Y013539D01*
X003888Y013025D01*
X003878Y012777D01*
X003878Y012779D01*
X003821Y012813D01*
X002786Y012555D01*
X002761Y012514D01*
X002641Y013069D01*
X002639Y013086D01*
X002642Y013082D01*
X002656Y013049D01*
X002718Y012988D01*
X002795Y012891D01*
X002833Y012872D01*
X002839Y012866D01*
X002685Y012866D01*
X002677Y012904D02*
X002784Y012904D01*
X002795Y012891D02*
X002795Y012891D01*
X002839Y012866D02*
X002890Y012845D01*
X003065Y012761D01*
X003364Y012761D01*
X003634Y012891D01*
X003751Y013038D01*
X003763Y013049D01*
X003766Y013056D01*
X003821Y013125D01*
X003853Y013267D01*
X003862Y013289D01*
X003976Y013289D01*
X003963Y013251D02*
X003849Y013251D01*
X003841Y013212D02*
X003950Y013212D01*
X003937Y013174D02*
X003832Y013174D01*
X003823Y013135D02*
X003924Y013135D01*
X003911Y013097D02*
X003799Y013097D01*
X003821Y013125D02*
X003821Y013125D01*
X003768Y013058D02*
X003899Y013058D01*
X003888Y013025D02*
X003888Y013025D01*
X003887Y013020D02*
X003737Y013020D01*
X003706Y012981D02*
X003886Y012981D01*
X003884Y012943D02*
X003676Y012943D01*
X003645Y012904D02*
X003883Y012904D01*
X003881Y012866D02*
X003583Y012866D01*
X003634Y012891D02*
X003634Y012891D01*
X003634Y012891D01*
X003725Y012789D02*
X003423Y012789D01*
X003416Y012712D02*
X002718Y012712D01*
X002710Y012750D02*
X003570Y012750D01*
X003503Y012827D02*
X003880Y012827D01*
X003879Y012789D02*
X003861Y012789D01*
X003862Y013289D02*
X003862Y013308D01*
X003887Y013417D01*
X003862Y013525D01*
X003862Y013549D01*
X003850Y013579D01*
X003821Y013708D01*
X003771Y013771D01*
X003763Y013789D01*
X003729Y013824D01*
X003634Y013942D01*
X003587Y013965D01*
X003579Y013973D01*
X003516Y013999D01*
X003364Y014072D01*
X003339Y014072D01*
X003079Y014072D01*
X003065Y014072D01*
X002975Y014029D01*
X002839Y013973D01*
X002822Y013955D01*
X002795Y013942D01*
X002740Y013874D01*
X002656Y013789D01*
X002637Y013745D01*
X002608Y013708D01*
X002591Y013634D01*
X002583Y013614D01*
X002492Y014460D01*
X002492Y014860D01*
X002504Y014847D01*
X002527Y014790D01*
X002634Y014683D01*
X002673Y014634D01*
X002673Y014634D01*
X002692Y014625D01*
X002711Y014606D01*
X002852Y014548D01*
X002943Y014504D01*
X003242Y014504D01*
X003512Y014634D01*
X003512Y014634D01*
X003512Y014634D01*
X003699Y014868D01*
X003699Y014868D01*
X003765Y015160D01*
X003699Y015452D01*
X003512Y015686D01*
X003242Y015816D01*
X002943Y015816D01*
X002852Y015772D01*
X002711Y015714D01*
X002692Y015695D01*
X002673Y015686D01*
X002634Y015637D01*
X002527Y015530D01*
X002504Y015473D01*
X002492Y015460D01*
X002492Y015860D01*
X002584Y016717D01*
X002608Y016612D01*
X002608Y016612D01*
X002657Y016551D01*
X002666Y016529D01*
X002706Y016489D01*
X002795Y016378D01*
X002839Y016356D01*
X002849Y016346D01*
X002932Y016312D01*
X003065Y016248D01*
X003086Y016248D01*
X003089Y016246D01*
X003349Y016246D01*
X003352Y016248D01*
X003364Y016248D01*
X003436Y016282D01*
X003589Y016346D01*
X003609Y016366D01*
X003634Y016378D01*
X003684Y016441D01*
X003773Y016529D01*
X003792Y016576D01*
X003821Y016612D01*
X003837Y016684D01*
X003872Y016769D01*
X003872Y016839D01*
X003887Y016903D01*
X003872Y016968D01*
X003872Y017029D01*
X003841Y017104D01*
X003821Y017195D01*
X003785Y017240D01*
X003773Y017269D01*
X003717Y017326D01*
X003634Y017429D01*
X003593Y017449D01*
X003589Y017453D01*
X003558Y017466D01*
X003364Y017559D01*
X003065Y017559D01*
X002795Y017429D01*
X002673Y017277D01*
X002666Y017269D01*
X002664Y017265D01*
X002639Y017234D01*
X002641Y017251D01*
X002937Y018619D01*
X003377Y019947D01*
X003955Y021222D01*
X004113Y021491D01*
X004098Y021424D01*
X004098Y021424D01*
X004116Y021344D01*
X004116Y021299D01*
X004139Y021245D01*
X004165Y021132D01*
X004165Y021132D01*
X004208Y021077D01*
X004216Y021059D01*
X004249Y021026D01*
X004351Y020898D01*
X004351Y020898D01*
X004621Y020768D01*
X004921Y020768D01*
X004962Y020788D01*
X004565Y020003D01*
X004097Y018750D01*
X004097Y018750D01*
X003939Y018124D01*
X003934Y018101D01*
X003928Y018076D01*
X003922Y018055D01*
X003922Y018055D01*
X003868Y017838D01*
X003888Y017297D01*
X004059Y016783D01*
X004368Y016337D01*
X004789Y015997D01*
X005015Y015902D01*
X004972Y015867D01*
X004956Y015717D01*
X004939Y015677D01*
X004939Y015582D01*
X004941Y015577D01*
X004913Y015304D01*
X004954Y015252D01*
X006015Y015141D01*
X006066Y015183D01*
X006076Y015278D01*
X006251Y015279D01*
X007780Y015171D01*
X007875Y015202D01*
X007950Y015268D01*
X007994Y015357D01*
X008001Y015456D01*
X007970Y015550D01*
X007937Y015588D01*
X008118Y015583D01*
X008119Y015583D01*
X008166Y015582D01*
X008212Y015581D01*
X008214Y015581D01*
X008408Y015578D01*
X008409Y015577D01*
X008456Y015577D01*
X008502Y015576D01*
X008503Y015577D01*
X008698Y015575D01*
X008699Y015575D01*
X008745Y015575D01*
X008792Y015574D01*
X008793Y015575D01*
X008987Y015575D01*
X008988Y015575D01*
X009035Y015576D01*
X009081Y015576D01*
X009082Y015576D01*
X009277Y015579D01*
X009278Y015578D01*
X009324Y015579D01*
X009371Y015580D01*
X009372Y015580D01*
X009566Y015585D01*
X009567Y015584D01*
X009614Y015586D01*
X009660Y015587D01*
X009662Y015588D01*
X009856Y015594D01*
X009857Y015593D01*
X009904Y015595D01*
X009950Y015597D01*
X009951Y015597D01*
X010145Y015606D01*
X010145Y015606D01*
X010192Y015608D01*
X010239Y015610D01*
X010240Y015610D01*
X010449Y015620D01*
X010934Y015785D01*
X011105Y015905D01*
X011105Y015905D01*
X011144Y015932D01*
X011247Y015995D01*
X011473Y016078D01*
X011712Y016101D01*
X011949Y016063D01*
X012062Y016022D01*
X012106Y016002D01*
X012297Y015918D01*
X012804Y015850D01*
X013013Y015881D01*
X013015Y015880D01*
X013016Y015880D01*
X013017Y015880D01*
X013060Y015888D01*
X013061Y015888D01*
X013104Y015894D01*
X013105Y015894D01*
X013105Y015894D01*
X013105Y015894D01*
X013106Y015894D01*
X013106Y015894D01*
X013107Y015894D01*
X013210Y015910D01*
X013474Y016056D01*
X013670Y016286D01*
X013670Y016286D01*
X013772Y016571D01*
X013767Y016873D01*
X013729Y016969D01*
X013729Y016970D01*
X013712Y017013D01*
X013712Y017013D01*
X013694Y017058D01*
X013617Y017252D01*
X013617Y017252D01*
X013303Y017658D01*
X013303Y017658D01*
X013134Y017781D01*
X013134Y017781D01*
X013107Y017801D01*
X013096Y017810D01*
X013003Y017887D01*
X012851Y018074D01*
X012751Y018294D01*
X012711Y018532D01*
X012714Y018653D01*
X012714Y018653D01*
X012715Y018668D01*
X012718Y018701D01*
X012737Y018910D01*
X012737Y018910D01*
X012638Y019416D01*
X012541Y019603D01*
X012541Y019604D01*
X012520Y019646D01*
X012498Y019688D01*
X012498Y019688D01*
X012408Y019860D01*
X012408Y019861D01*
X012386Y019902D01*
X012365Y019943D01*
X012364Y019944D01*
X012272Y020115D01*
X012272Y020117D01*
X012250Y020157D01*
X012228Y020198D01*
X012227Y020199D01*
X012134Y020369D01*
X012134Y020371D01*
X012111Y020411D01*
X012089Y020452D01*
X012088Y020453D01*
X011993Y020622D01*
X011993Y020623D01*
X011969Y020664D01*
X011947Y020704D01*
X011946Y020705D01*
X011849Y020873D01*
X011849Y020875D01*
X011825Y020915D01*
X011802Y020955D01*
X011801Y020956D01*
X011703Y021123D01*
X011703Y021124D01*
X011679Y021164D01*
X011655Y021204D01*
X011654Y021205D01*
X011554Y021371D01*
X011554Y021373D01*
X011530Y021412D01*
X011506Y021452D01*
X011505Y021453D01*
X011403Y021618D01*
X011403Y021620D01*
X011378Y021659D01*
X011354Y021698D01*
X011353Y021699D01*
X011249Y021864D01*
X011249Y021865D01*
X011224Y021904D01*
X011199Y021943D01*
X011198Y021944D01*
X011093Y022108D01*
X011093Y022109D01*
X011067Y022148D01*
X011042Y022187D01*
X011041Y022188D01*
X010934Y022350D01*
X010934Y022352D01*
X010908Y022390D01*
X010883Y022429D01*
X010882Y022430D01*
X010773Y022591D01*
X010773Y022593D01*
X010746Y022631D01*
X010720Y022670D01*
X010719Y022670D01*
X010609Y022831D01*
X010609Y022832D01*
X010582Y022870D01*
X010556Y022909D01*
X010555Y022909D01*
X010442Y023069D01*
X010442Y023071D01*
X010415Y023108D01*
X010388Y023146D01*
X010387Y023147D01*
X010273Y023306D01*
X010273Y023307D01*
X010246Y023345D01*
X010219Y023383D01*
X010218Y023383D01*
X010102Y023541D01*
X010102Y023542D01*
X010074Y023579D01*
X010046Y023617D01*
X010046Y023618D01*
X009913Y023798D01*
X009913Y023798D01*
X009913Y023798D01*
X009482Y024125D01*
X008977Y024319D01*
X008977Y024319D01*
X008437Y024364D01*
X007907Y024255D01*
X007907Y024255D01*
X007428Y024002D01*
X007268Y023847D01*
X007243Y023823D01*
X007234Y023814D01*
X007234Y023814D01*
X007200Y023781D01*
X007200Y023781D01*
X006753Y023348D01*
X005902Y022317D01*
X005416Y021575D01*
X005401Y021612D01*
X005377Y021716D01*
X005337Y021766D01*
X005323Y021799D01*
X005260Y021862D01*
X005190Y021950D01*
X005156Y021966D01*
X005139Y021983D01*
X005010Y022037D01*
X004921Y022080D01*
X004906Y022080D01*
X004899Y022082D01*
X004639Y022082D01*
X004633Y022080D01*
X004621Y022080D01*
X004550Y022046D01*
X004405Y021985D01*
X004665Y022427D01*
X005500Y023550D01*
X006449Y024579D01*
X007303Y025326D01*
X007301Y025324D01*
X007301Y025324D01*
X007273Y025199D01*
X007256Y025159D01*
X007256Y025127D01*
X007235Y025032D01*
X006967Y025032D01*
X006923Y024994D02*
X007243Y024994D01*
X007235Y025032D02*
X007256Y024937D01*
X007256Y024899D01*
X007275Y024854D01*
X007301Y024740D01*
X007301Y024740D01*
X007345Y024685D01*
X007356Y024659D01*
X007403Y024612D01*
X007488Y024506D01*
X007529Y024486D01*
X007539Y024476D01*
X007617Y024443D01*
X007758Y024376D01*
X008057Y024376D01*
X008172Y024431D01*
X008279Y024476D01*
X008293Y024490D01*
X008327Y024506D01*
X008395Y024592D01*
X008463Y024659D01*
X008478Y024695D01*
X008513Y024740D01*
X008534Y024832D01*
X008562Y024899D01*
X008562Y024955D01*
X008563Y024955D02*
X010932Y024955D01*
X010932Y024958D02*
X010963Y024714D01*
X010914Y024733D01*
X010396Y024503D01*
X010373Y024441D01*
X010806Y023467D01*
X010868Y023443D01*
X010950Y023479D01*
X011038Y023323D01*
X011709Y021962D01*
X011784Y021896D01*
X011878Y021864D01*
X011978Y021871D01*
X012067Y021915D01*
X012132Y021990D01*
X012147Y022032D01*
X012226Y021883D01*
X012227Y021882D01*
X012249Y021841D01*
X012271Y021800D01*
X012272Y021799D01*
X012365Y021630D01*
X012365Y021629D01*
X012387Y021589D01*
X012410Y021548D01*
X012411Y021547D01*
X012505Y021379D01*
X012505Y021378D01*
X012528Y021338D01*
X012551Y021297D01*
X012552Y021296D01*
X012648Y021130D01*
X012648Y021128D01*
X012671Y021088D01*
X012695Y021048D01*
X012696Y021047D01*
X012793Y020881D01*
X012793Y020880D01*
X012817Y020840D01*
X012841Y020800D01*
X012842Y020799D01*
X012940Y020634D01*
X012941Y020633D01*
X012965Y020594D01*
X012989Y020554D01*
X012990Y020553D01*
X013090Y020389D01*
X013091Y020388D01*
X013115Y020348D01*
X013140Y020308D01*
X013141Y020308D02*
X013242Y020145D01*
X013242Y020145D01*
X013268Y020105D01*
X013293Y020065D01*
X013293Y020064D01*
X013361Y019956D01*
X013601Y019702D01*
X013601Y019702D01*
X013601Y019702D01*
X013885Y019498D01*
X013885Y019498D01*
X014001Y019445D01*
X014001Y019445D01*
X014044Y019425D01*
X014154Y019366D01*
X014344Y019207D01*
X014486Y019005D01*
X014571Y018772D01*
X014590Y018649D01*
X014591Y018637D01*
X014604Y018475D01*
X014700Y018139D01*
X014857Y017827D01*
X014935Y017727D01*
X014935Y017727D01*
X014958Y017698D01*
X014964Y017689D01*
X014993Y017652D01*
X014993Y017652D01*
X015058Y017569D01*
X015058Y017569D01*
X015058Y017569D01*
X015319Y017410D01*
X015319Y017410D01*
X015620Y017354D01*
X015921Y017410D01*
X016182Y017569D01*
X016246Y017652D01*
X016246Y017652D01*
X016262Y017672D01*
X016276Y017689D01*
X016305Y017727D01*
X016305Y017727D01*
X016383Y017827D01*
X016540Y018139D01*
X016636Y018475D01*
X016646Y018601D01*
X016646Y018601D01*
X016650Y018649D01*
X016669Y018772D01*
X016754Y019005D01*
X016896Y019207D01*
X017086Y019366D01*
X017196Y019425D01*
X017239Y019445D01*
X017354Y019498D01*
X017638Y019702D01*
X017878Y019956D01*
X017878Y019956D01*
X017947Y020064D01*
X017947Y020064D01*
X017973Y020105D01*
X017997Y020144D01*
X017997Y020145D01*
X018099Y020307D01*
X018100Y020308D01*
X018124Y020348D01*
X018149Y020387D01*
X018149Y020388D01*
X018250Y020553D01*
X018251Y020553D01*
X018275Y020593D01*
X018299Y020633D01*
X018299Y020634D01*
X018398Y020799D01*
X018399Y020800D01*
X018423Y020840D01*
X018447Y020880D01*
X018447Y020881D01*
X018544Y021047D01*
X018545Y021048D01*
X018568Y021088D01*
X018592Y021128D01*
X018592Y021129D01*
X018688Y021296D01*
X018689Y021297D01*
X018712Y021337D01*
X018735Y021378D01*
X018735Y021379D01*
X018829Y021547D01*
X018830Y021547D01*
X018852Y021588D01*
X018875Y021629D01*
X018875Y021630D01*
X018968Y021798D01*
X019543Y021798D01*
X019550Y021760D02*
X018947Y021760D01*
X018968Y021798D02*
X018969Y021799D01*
X018991Y021840D01*
X019013Y021881D01*
X019013Y021882D01*
X019105Y022052D01*
X019105Y022053D01*
X019127Y022094D01*
X019149Y022135D01*
X019149Y022136D01*
X019239Y022306D01*
X019240Y022307D01*
X019261Y022349D01*
X019283Y022390D01*
X019283Y022391D01*
X019371Y022563D01*
X019392Y022605D01*
X019414Y022646D01*
X019414Y022648D01*
X019500Y022820D01*
X019501Y022821D01*
X019521Y022863D01*
X019542Y022904D01*
X019542Y022905D01*
X019627Y023079D01*
X019628Y023080D01*
X019648Y023122D01*
X019669Y023163D01*
X019669Y023165D01*
X019752Y023339D01*
X019753Y023340D01*
X019772Y023382D01*
X019793Y023424D01*
X019793Y023425D01*
X019874Y023601D01*
X019875Y023601D01*
X019894Y023644D01*
X019914Y023686D01*
X019914Y023687D01*
X019994Y023863D01*
X019995Y023864D01*
X020014Y023907D01*
X020033Y023949D01*
X020033Y023950D01*
X020112Y024127D01*
X020112Y024128D01*
X020131Y024171D01*
X020150Y024214D01*
X020150Y024214D01*
X020240Y024420D01*
X020309Y024957D01*
X020309Y024957D01*
X020225Y025493D01*
X019994Y025983D01*
X019634Y026389D01*
X019175Y026678D01*
X018960Y026739D01*
X018915Y026752D01*
X018272Y026934D01*
X016955Y027155D01*
X016073Y027204D01*
X016096Y027232D01*
X016183Y027319D01*
X016202Y027365D01*
X016226Y027396D01*
X016240Y027458D01*
X016282Y027559D01*
X016282Y027642D01*
X016293Y027687D01*
X016282Y027733D01*
X016282Y027819D01*
X016238Y027926D01*
X016226Y027979D01*
X016226Y027979D01*
X016205Y028005D01*
X016183Y028059D01*
X016081Y028161D01*
X016039Y028213D01*
X016019Y028223D01*
X015999Y028243D01*
X015899Y028285D01*
X016669Y028264D01*
X018056Y028079D01*
X019415Y027746D01*
X020258Y027442D01*
X020189Y027442D01*
X019949Y027343D01*
X019921Y027315D01*
X019893Y027301D01*
X019837Y027231D01*
X019766Y027159D01*
X019750Y027121D01*
X019707Y027067D01*
X019681Y026955D01*
X019666Y026919D01*
X019666Y026890D01*
X019640Y026775D01*
X019666Y026661D01*
X019666Y026659D01*
X019667Y026658D01*
X019707Y026483D01*
X019893Y026249D01*
X019893Y026249D01*
X020163Y026119D01*
X020463Y026119D01*
X020732Y026249D01*
X020732Y026249D01*
X020848Y026395D01*
X020873Y026419D01*
X020878Y026432D01*
X020919Y026483D01*
X020919Y026483D01*
X020943Y026588D01*
X020972Y026659D01*
X020972Y026717D01*
X020986Y026775D01*
X020972Y026833D01*
X020972Y026919D01*
X020929Y027025D01*
X020919Y027067D01*
X020919Y027067D01*
X020903Y027088D01*
X020873Y027159D01*
X020788Y027244D01*
X021964Y026672D01*
X021749Y026672D01*
X021509Y026573D01*
X021478Y026542D01*
X021464Y026535D01*
X021436Y026499D01*
X021326Y026389D01*
X021302Y026331D01*
X021278Y026301D01*
X021263Y026239D01*
X021226Y026149D01*
X021226Y026076D01*
X021211Y026009D01*
X021226Y025942D01*
X021226Y025889D01*
X021253Y025825D01*
X021278Y025717D01*
X021319Y025665D01*
X021326Y025649D01*
X021355Y025620D01*
X021464Y025483D01*
X021464Y025483D01*
X021734Y025353D01*
X022033Y025353D01*
X022303Y025483D01*
X022303Y025483D01*
X022303Y025483D01*
X022490Y025717D01*
X022490Y025717D01*
X022525Y025872D01*
X022532Y025889D01*
X022532Y025904D01*
X022556Y026009D01*
X022532Y026115D01*
X022532Y026149D01*
X022515Y026192D01*
X022490Y026301D01*
X022448Y026354D01*
X022437Y026380D01*
X023176Y025918D01*
X022536Y025918D01*
X022544Y025956D02*
X023115Y025956D01*
X023176Y025918D02*
X023469Y025688D01*
X023183Y025688D01*
X022913Y025558D01*
X022913Y025558D01*
X022913Y025558D01*
X022791Y025405D01*
X022786Y025399D01*
X022784Y025396D01*
X022727Y025324D01*
X022692Y025174D01*
X022686Y025159D01*
X022686Y025147D01*
X022660Y025032D01*
X020298Y025032D01*
X020304Y024994D02*
X022669Y024994D01*
X022660Y025032D02*
X022686Y024916D01*
X022686Y024899D01*
X022695Y024879D01*
X022727Y024740D01*
X022780Y024672D01*
X022786Y024659D01*
X022810Y024635D01*
X022913Y024506D01*
X022913Y024506D01*
X022964Y024482D01*
X022969Y024476D01*
X023014Y024457D01*
X023183Y024376D01*
X023482Y024376D01*
X023569Y024418D01*
X023709Y024476D01*
X023728Y024494D01*
X023752Y024506D01*
X023802Y024569D01*
X023893Y024659D01*
X023913Y024707D01*
X023939Y024740D01*
X023954Y024807D01*
X023992Y024899D01*
X023992Y024975D01*
X024005Y025032D01*
X024299Y025032D01*
X024277Y025053D02*
X025279Y024077D01*
X026173Y023000D01*
X026860Y021963D01*
X026858Y021965D01*
X026839Y021983D01*
X026697Y022042D01*
X026619Y022080D01*
X026606Y022080D01*
X026599Y022082D01*
X026339Y022082D01*
X026333Y022080D01*
X026319Y022080D01*
X026238Y022040D01*
X026099Y021983D01*
X026081Y021965D01*
X026050Y021950D01*
X026050Y021950D01*
X025985Y021868D01*
X025916Y021799D01*
X025901Y021763D01*
X025863Y021716D01*
X025863Y021716D01*
X025841Y021618D01*
X025823Y021576D01*
X025342Y022312D01*
X024492Y023343D01*
X024012Y023808D01*
X023978Y023841D01*
X023818Y023997D01*
X023818Y023997D01*
X023339Y024250D01*
X023339Y024250D01*
X022808Y024359D01*
X022267Y024314D01*
X021762Y024119D01*
X021569Y023973D01*
X021561Y024024D01*
X021103Y024357D01*
X021038Y024347D01*
X020411Y023484D01*
X020421Y023419D01*
X020506Y023358D01*
X020444Y023267D01*
X020443Y023267D01*
X020416Y023226D01*
X020389Y023185D01*
X020389Y023185D01*
X019554Y021939D01*
X019534Y021841D01*
X019554Y021744D01*
X019609Y021661D01*
X019691Y021606D01*
X019789Y021586D01*
X019828Y021594D01*
X019745Y021460D01*
X019744Y021460D01*
X019720Y021420D01*
X019696Y021380D01*
X019696Y021379D01*
X019596Y021214D01*
X019595Y021214D01*
X019571Y021174D01*
X019547Y021134D01*
X019547Y021133D01*
X019449Y020967D01*
X019448Y020967D01*
X019424Y020926D01*
X019400Y020886D01*
X019400Y020885D01*
X019304Y020719D01*
X019303Y020718D01*
X019280Y020678D01*
X019256Y020637D01*
X019256Y020636D01*
X019161Y020469D01*
X019160Y020468D01*
X019138Y020427D01*
X019115Y020387D01*
X019115Y020386D01*
X019021Y020218D01*
X019020Y020217D01*
X018998Y020176D01*
X018975Y020135D01*
X018975Y020134D01*
X018883Y019965D01*
X018883Y019964D01*
X018861Y019923D01*
X018839Y019882D01*
X018838Y019881D01*
X018748Y019712D01*
X018748Y019711D01*
X018726Y019670D01*
X018704Y019628D01*
X018704Y019627D01*
X018645Y019514D01*
X018544Y019179D01*
X018510Y018831D01*
X018521Y018705D01*
X018521Y018705D01*
X018526Y018657D01*
X018529Y018533D01*
X018487Y018289D01*
X018383Y018064D01*
X018223Y017874D01*
X018126Y017797D01*
X018099Y017778D01*
X017983Y017697D01*
X017983Y017697D01*
X017740Y017447D01*
X017549Y017154D01*
X017501Y017037D01*
X017501Y017037D01*
X017485Y016998D01*
X017483Y016993D01*
X017465Y016948D01*
X017425Y016851D01*
X017418Y016545D01*
X017520Y016257D01*
X017719Y016025D01*
X017719Y016025D01*
X017987Y015878D01*
X018091Y015863D01*
X018138Y015857D01*
X018141Y015856D01*
X018186Y015850D01*
X018311Y015833D01*
X018660Y015852D01*
X018999Y015938D01*
X019157Y016012D01*
X019272Y016057D01*
X019516Y016101D01*
X019763Y016079D01*
X019996Y015993D01*
X020101Y015928D01*
X020140Y015900D01*
X020140Y015900D01*
X020244Y015827D01*
X020244Y015827D01*
X020563Y015683D01*
X020903Y015602D01*
X021030Y015597D01*
X021031Y015597D01*
X021078Y015595D01*
X021125Y015593D01*
X021126Y015594D01*
X021317Y015587D01*
X021319Y015586D01*
X021365Y015585D01*
X021412Y015583D01*
X021413Y015584D01*
X021605Y015579D01*
X021606Y015578D01*
X021653Y015577D01*
X021699Y015576D01*
X021700Y015577D01*
X021893Y015573D01*
X021894Y015573D01*
X021940Y015573D01*
X021987Y015572D01*
X021988Y015572D01*
X022180Y015571D01*
X022181Y015571D01*
X022228Y015571D01*
X022274Y015570D01*
X022275Y015571D01*
X022468Y015571D01*
X022469Y015571D01*
X022515Y015571D01*
X022562Y015571D01*
X022563Y015572D01*
X022755Y015574D01*
X022757Y015574D01*
X022803Y015575D01*
X022850Y015575D01*
X022851Y015576D01*
X023043Y015580D01*
X023044Y015579D01*
X023091Y015581D01*
X023137Y015582D01*
X023138Y015582D01*
X023331Y015588D01*
X023332Y015588D01*
X023378Y015590D01*
X023425Y015591D01*
X023426Y015592D01*
X023618Y015599D01*
X023620Y015599D01*
X023666Y015601D01*
X023713Y015603D01*
X023714Y015604D01*
X023906Y015613D01*
X023907Y015613D01*
X023954Y015616D01*
X024000Y015618D01*
X024001Y015618D01*
X024194Y015630D01*
X024195Y015629D01*
X024241Y015633D01*
X024288Y015635D01*
X024289Y015636D01*
X024481Y015649D01*
X024483Y015649D01*
X024529Y015652D01*
X024575Y015656D01*
X024576Y015656D01*
X024769Y015671D01*
X024770Y015671D01*
X024817Y015675D01*
X024863Y015678D01*
X024864Y015679D01*
X025057Y015696D01*
X025058Y015696D01*
X025104Y015700D01*
X025151Y015704D01*
X025152Y015705D01*
X025345Y015723D01*
X025346Y015723D01*
X025392Y015728D01*
X025438Y015733D01*
X025439Y015733D01*
X025632Y015754D01*
X025632Y015753D01*
X025679Y015759D01*
X025726Y015764D01*
X025726Y015764D01*
X025949Y015789D01*
X026449Y015998D01*
X026449Y015998D01*
X026871Y016338D01*
X026871Y016338D01*
X026871Y016338D01*
X027180Y016784D01*
X027352Y017298D01*
X027372Y017840D01*
X027306Y018103D01*
X027294Y018149D01*
X027143Y018750D01*
X026675Y020002D01*
X026278Y020788D01*
X026319Y020768D01*
X026619Y020768D01*
X026889Y020898D01*
X026996Y021032D01*
X027023Y021059D01*
X027029Y021074D01*
X027075Y021132D01*
X027103Y021251D01*
X027122Y021299D01*
X027122Y021339D01*
X027142Y021424D01*
X027128Y021483D01*
X027591Y020592D01*
X028101Y019289D01*
X028469Y017939D01*
X028574Y017288D01*
X028493Y017369D01*
X028445Y017429D01*
X028422Y017441D01*
X028399Y017463D01*
X028228Y017534D01*
X028175Y017559D01*
X028167Y017559D01*
X028159Y017562D01*
X027899Y017562D01*
X027892Y017559D01*
X027876Y017559D01*
X027776Y017511D01*
X027659Y017463D01*
X027644Y017448D01*
X027606Y017429D01*
X027528Y017332D01*
X027476Y017279D01*
X027464Y017252D01*
X027419Y017195D01*
X027393Y017080D01*
X027376Y017039D01*
X027376Y017006D01*
X027353Y016903D01*
X027376Y016801D01*
X027376Y016779D01*
X027387Y016754D01*
X027419Y016612D01*
X027474Y016543D01*
X027476Y016539D01*
X027482Y016533D01*
X027606Y016378D01*
X027876Y016248D01*
X028175Y016248D01*
X028445Y016378D01*
X028539Y016496D01*
X028583Y016539D01*
X028593Y016563D01*
X028632Y016612D01*
X028655Y016713D01*
X028663Y016733D01*
X028692Y016557D01*
X028750Y015456D01*
X028567Y015686D01*
X028567Y015686D01*
X028297Y015816D01*
X027998Y015816D01*
X027728Y015686D01*
X027728Y015686D01*
X027728Y015686D01*
X027595Y015519D01*
X027586Y015510D01*
X027584Y015505D01*
X027541Y015452D01*
X027516Y015342D01*
X027487Y015270D01*
X027487Y015212D01*
X027475Y015160D01*
X027487Y015108D01*
X027487Y015010D01*
X027536Y014891D01*
X027541Y014868D01*
X027550Y014857D01*
X027586Y014770D01*
X027770Y014587D01*
X028010Y014487D01*
X028270Y014487D01*
X028510Y014587D01*
X028548Y014625D01*
X028567Y014634D01*
X028606Y014683D01*
X028693Y014770D01*
X028712Y014816D01*
X028750Y014864D01*
X028692Y013763D01*
X028667Y013610D01*
X028638Y013681D01*
X028632Y013708D01*
X028632Y013708D01*
X028621Y013722D01*
X028593Y013789D01*
X028465Y013917D01*
X028445Y013942D01*
X028435Y013947D01*
X028409Y013973D01*
X028212Y014055D01*
X028175Y014072D01*
X028169Y014072D01*
X027909Y014072D01*
X027876Y014072D01*
X027670Y013973D01*
X027669Y013973D01*
X027606Y013942D01*
X027419Y013708D01*
X027353Y013417D01*
X027419Y013125D01*
X027419Y013125D01*
X027606Y012891D01*
X027876Y012761D01*
X028175Y012761D01*
X028296Y012819D01*
X028409Y012866D01*
X028424Y012880D01*
X028445Y012891D01*
X028488Y012944D01*
X028574Y013030D01*
X028469Y012381D01*
X028101Y011031D01*
X027591Y009728D01*
X027128Y008837D01*
X027142Y008896D01*
X027122Y008981D01*
X027122Y009029D01*
X027098Y009088D01*
X027075Y009188D01*
X027075Y009188D01*
X027037Y009237D01*
X027023Y009269D01*
X026961Y009331D01*
X026889Y009422D01*
X026889Y009422D01*
X026853Y009439D01*
X026839Y009453D01*
X026735Y009496D01*
X026619Y009552D01*
X026600Y009552D01*
X026599Y009552D01*
X026339Y009552D01*
X026319Y009552D01*
X026278Y009532D01*
X026675Y010317D01*
X027142Y011568D01*
X027306Y012216D01*
X027317Y012262D01*
X027317Y012262D01*
X027372Y012479D01*
X027372Y012479D01*
X027351Y013020D01*
X027503Y013020D01*
X027534Y012981D02*
X027353Y012981D01*
X027354Y012943D02*
X027564Y012943D01*
X027595Y012904D02*
X027356Y012904D01*
X027357Y012866D02*
X027657Y012866D01*
X027606Y012891D02*
X027606Y012891D01*
X027737Y012827D02*
X027359Y012827D01*
X027360Y012789D02*
X027817Y012789D01*
X027472Y013058D02*
X027339Y013058D01*
X027351Y013020D02*
X027180Y013535D01*
X026871Y013980D01*
X026450Y014321D01*
X026450Y014321D01*
X026229Y014413D01*
X026267Y014443D01*
X026329Y015006D01*
X026287Y015058D01*
X025228Y015175D01*
X025176Y015133D01*
X025162Y015012D01*
X025043Y015019D01*
X025037Y015022D01*
X024997Y015022D01*
X024676Y015044D01*
X024668Y015048D01*
X024628Y015048D01*
X024307Y015070D01*
X024299Y015073D01*
X024259Y015073D01*
X023938Y015096D01*
X023930Y015099D01*
X025172Y015099D01*
X025168Y015060D02*
X024443Y015060D01*
X023930Y015099D02*
X023890Y015099D01*
X023568Y015122D01*
X023560Y015125D01*
X023521Y015125D01*
X023482Y015128D01*
X023474Y015125D01*
X023465Y015125D01*
X023429Y015110D01*
X023391Y015097D01*
X023385Y015092D01*
X023377Y015088D01*
X023349Y015061D01*
X023319Y015035D01*
X023315Y015027D01*
X023309Y015021D01*
X023294Y014985D01*
X023277Y014949D01*
X023276Y014941D01*
X023273Y014933D01*
X023273Y014893D01*
X023270Y014854D01*
X023273Y014846D01*
X023273Y014837D01*
X023288Y014801D01*
X023300Y014764D01*
X023306Y014757D01*
X023309Y014749D01*
X023327Y014732D01*
X023139Y014737D01*
X023138Y014738D01*
X023091Y014739D01*
X023045Y014740D01*
X023044Y014740D01*
X022851Y014744D01*
X022850Y014745D01*
X022804Y014745D01*
X022757Y014746D01*
X022756Y014746D01*
X022564Y014748D01*
X022562Y014749D01*
X022516Y014749D01*
X022469Y014749D01*
X022468Y014749D01*
X022276Y014749D01*
X022275Y014750D01*
X022228Y014749D01*
X022182Y014749D01*
X022181Y014749D01*
X021988Y014748D01*
X021987Y014748D01*
X021941Y014747D01*
X021894Y014747D01*
X021893Y014747D01*
X021701Y014743D01*
X021700Y014744D01*
X021653Y014743D01*
X021607Y014742D01*
X021605Y014741D01*
X021413Y014736D01*
X021412Y014737D01*
X021365Y014735D01*
X021319Y014734D01*
X021318Y014733D01*
X021126Y014727D01*
X021126Y014727D01*
X021078Y014725D01*
X021031Y014723D01*
X020903Y014718D01*
X020563Y014637D01*
X020563Y014637D01*
X020244Y014493D01*
X020140Y014420D01*
X020102Y014392D01*
X019996Y014327D01*
X019763Y014241D01*
X019516Y014219D01*
X019272Y014263D01*
X019157Y014308D01*
X019157Y014308D01*
X018999Y014382D01*
X018660Y014468D01*
X018311Y014487D01*
X018186Y014470D01*
X018186Y014470D01*
X018142Y014464D01*
X018138Y014463D01*
X018091Y014457D01*
X018091Y014457D01*
X017987Y014442D01*
X017987Y014442D01*
X017719Y014296D01*
X017719Y014296D01*
X017520Y014063D01*
X017418Y013775D01*
X017418Y013775D01*
X017425Y013469D01*
X017465Y013372D01*
X017465Y013372D01*
X017474Y013349D01*
X017483Y013327D01*
X017501Y013283D01*
X017549Y013166D01*
X017740Y012873D01*
X017983Y012623D01*
X018087Y012550D01*
X018126Y012523D01*
X018223Y012446D01*
X018383Y012256D01*
X018487Y012031D01*
X018529Y011787D01*
X018526Y011663D01*
X018523Y011634D01*
X018526Y011672D02*
X018246Y011672D01*
X018252Y011711D02*
X018527Y011711D01*
X018528Y011749D02*
X018261Y011749D01*
X018253Y011788D02*
X018529Y011788D01*
X018522Y011826D02*
X018246Y011826D01*
X018246Y011865D02*
X018516Y011865D01*
X018509Y011903D02*
X018237Y011903D01*
X018221Y011942D02*
X018502Y011942D01*
X018496Y011980D02*
X018209Y011980D01*
X018200Y012019D02*
X018489Y012019D01*
X018475Y012057D02*
X018183Y012057D01*
X018157Y012096D02*
X018457Y012096D01*
X018439Y012134D02*
X018133Y012134D01*
X018094Y012173D02*
X018421Y012173D01*
X018403Y012211D02*
X018060Y012211D01*
X018029Y012250D02*
X018385Y012250D01*
X018355Y012288D02*
X017983Y012288D01*
X017908Y012327D02*
X018323Y012327D01*
X018291Y012365D02*
X017823Y012365D01*
X017743Y012404D02*
X018258Y012404D01*
X018226Y012442D02*
X016408Y012442D01*
X016428Y012404D02*
X017434Y012404D01*
X017354Y012365D02*
X016447Y012365D01*
X016467Y012327D02*
X017274Y012327D01*
X017194Y012288D02*
X016486Y012288D01*
X016506Y012250D02*
X017148Y012250D01*
X017117Y012211D02*
X016525Y012211D01*
X016540Y012181D02*
X016540Y012181D01*
X016543Y012173D02*
X017087Y012173D01*
X017054Y012134D02*
X016554Y012134D01*
X016565Y012096D02*
X017025Y012096D01*
X016994Y012057D02*
X016575Y012057D01*
X016586Y012019D02*
X016977Y012019D01*
X016968Y011980D02*
X016597Y011980D01*
X016608Y011942D02*
X016959Y011942D01*
X016950Y011903D02*
X016619Y011903D01*
X016630Y011865D02*
X016940Y011865D01*
X016933Y011826D02*
X016637Y011826D01*
X016641Y011788D02*
X016924Y011788D01*
X016916Y011749D02*
X016644Y011749D01*
X016647Y011711D02*
X016925Y011711D01*
X016934Y011672D02*
X016650Y011672D01*
X016656Y011634D02*
X016940Y011634D01*
X016950Y011595D02*
X016662Y011595D01*
X016668Y011557D02*
X016960Y011557D01*
X016969Y011518D02*
X016680Y011518D01*
X016694Y011480D02*
X016977Y011480D01*
X016996Y011441D02*
X016708Y011441D01*
X016722Y011403D02*
X017027Y011403D01*
X017056Y011364D02*
X016736Y011364D01*
X016750Y011326D02*
X017088Y011326D01*
X017119Y011287D02*
X016773Y011287D01*
X016800Y011249D02*
X017150Y011249D01*
X017198Y011210D02*
X016827Y011210D01*
X016854Y011172D02*
X017278Y011172D01*
X017358Y011133D02*
X016881Y011133D01*
X016896Y011113D02*
X017086Y010954D01*
X017196Y010895D01*
X017239Y010875D01*
X017239Y010875D01*
X017355Y010822D01*
X017355Y010822D01*
X017639Y010618D01*
X017639Y010618D01*
X017639Y010618D01*
X017879Y010364D01*
X017879Y010364D01*
X017947Y010256D01*
X017947Y010255D01*
X017972Y010215D01*
X017998Y010175D01*
X017998Y010175D01*
X018099Y010012D01*
X018100Y010012D01*
X018125Y009972D01*
X018149Y009932D01*
X018150Y009931D01*
X018250Y009767D01*
X018251Y009766D01*
X018275Y009726D01*
X018299Y009687D01*
X018300Y009686D01*
X018398Y009521D01*
X018399Y009520D01*
X018423Y009480D01*
X018447Y009440D01*
X018447Y009439D01*
X018544Y009273D01*
X018545Y009272D01*
X018569Y009232D01*
X018592Y009192D01*
X018592Y009190D01*
X018688Y009024D01*
X018689Y009023D01*
X018712Y008982D01*
X018735Y008942D01*
X018735Y008941D01*
X018829Y008773D01*
X018830Y008772D01*
X018853Y008731D01*
X018875Y008691D01*
X018875Y008690D01*
X018968Y008521D01*
X018969Y008520D01*
X018991Y008479D01*
X019013Y008438D01*
X019014Y008437D01*
X019090Y008295D01*
X019099Y008323D01*
X019075Y008323D01*
X019099Y008323D02*
X019105Y008330D01*
X019109Y008339D01*
X019136Y008366D01*
X019161Y008396D01*
X019170Y008400D01*
X019176Y008407D01*
X019212Y008421D01*
X019246Y008439D01*
X019256Y008440D01*
X019264Y008443D01*
X019303Y008443D01*
X019342Y008446D01*
X019351Y008443D01*
X019360Y008443D01*
X019396Y008428D01*
X019432Y008416D01*
X019439Y008410D01*
X019448Y008407D01*
X019475Y008379D01*
X019505Y008354D01*
X019509Y008346D01*
X019516Y008339D01*
X019530Y008303D01*
X019674Y008019D01*
X019684Y008009D01*
X019704Y007960D01*
X019840Y007692D01*
X019852Y007680D01*
X019878Y007616D01*
X020005Y007364D01*
X020020Y007350D01*
X020052Y007273D01*
X020177Y007025D01*
X020177Y007025D01*
X020181Y007017D01*
X020188Y007010D01*
X020202Y006975D01*
X020184Y007014D02*
X020974Y007014D01*
X020947Y007052D02*
X020163Y007052D01*
X020144Y007091D02*
X020920Y007091D01*
X020892Y007129D02*
X020124Y007129D01*
X020105Y007168D02*
X020865Y007168D01*
X020837Y007206D02*
X020085Y007206D01*
X020066Y007245D02*
X020809Y007245D01*
X020783Y007283D02*
X020047Y007283D01*
X020031Y007322D02*
X020756Y007322D01*
X020729Y007360D02*
X020009Y007360D01*
X019988Y007399D02*
X020702Y007399D01*
X020675Y007437D02*
X019968Y007437D01*
X019949Y007476D02*
X020648Y007476D01*
X020622Y007514D02*
X019929Y007514D01*
X019910Y007553D02*
X020596Y007553D01*
X020569Y007591D02*
X019890Y007591D01*
X019872Y007630D02*
X020543Y007630D01*
X020516Y007668D02*
X019856Y007668D01*
X019832Y007707D02*
X020490Y007707D01*
X020464Y007745D02*
X019813Y007745D01*
X019793Y007784D02*
X020438Y007784D01*
X020412Y007822D02*
X019774Y007822D01*
X019754Y007861D02*
X020386Y007861D01*
X020360Y007899D02*
X019735Y007899D01*
X019715Y007938D02*
X020335Y007938D01*
X020309Y007976D02*
X019697Y007976D01*
X019678Y008015D02*
X020284Y008015D01*
X020259Y008053D02*
X019657Y008053D01*
X019637Y008092D02*
X020233Y008092D01*
X020208Y008130D02*
X019618Y008130D01*
X019598Y008169D02*
X020182Y008169D01*
X020157Y008207D02*
X019579Y008207D01*
X019560Y008246D02*
X020133Y008246D01*
X020108Y008284D02*
X019540Y008284D01*
X019522Y008323D02*
X020083Y008323D01*
X020058Y008361D02*
X019496Y008361D01*
X019455Y008400D02*
X020033Y008400D01*
X020008Y008438D02*
X019371Y008438D01*
X019246Y008438D02*
X019013Y008438D01*
X019034Y008400D02*
X019169Y008400D01*
X019131Y008361D02*
X019054Y008361D01*
X018992Y008477D02*
X019984Y008477D01*
X019960Y008515D02*
X018972Y008515D01*
X018950Y008554D02*
X019936Y008554D01*
X019911Y008592D02*
X018929Y008592D01*
X018908Y008631D02*
X019887Y008631D01*
X019863Y008669D02*
X018887Y008669D01*
X018866Y008708D02*
X019839Y008708D01*
X019815Y008746D02*
X018844Y008746D01*
X018822Y008785D02*
X019791Y008785D01*
X019768Y008823D02*
X018801Y008823D01*
X018779Y008862D02*
X019743Y008862D01*
X019720Y008900D02*
X018758Y008900D01*
X018736Y008939D02*
X019696Y008939D01*
X019673Y008977D02*
X018714Y008977D01*
X018693Y009016D02*
X019650Y009016D01*
X019627Y009054D02*
X018670Y009054D01*
X018648Y009093D02*
X019603Y009093D01*
X019580Y009131D02*
X018626Y009131D01*
X018604Y009170D02*
X019557Y009170D01*
X019534Y009208D02*
X018582Y009208D01*
X018560Y009247D02*
X019511Y009247D01*
X019488Y009285D02*
X018537Y009285D01*
X018514Y009324D02*
X019465Y009324D01*
X019442Y009362D02*
X018492Y009362D01*
X018469Y009401D02*
X019420Y009401D01*
X019398Y009439D02*
X018447Y009439D01*
X018424Y009478D02*
X019375Y009478D01*
X019353Y009516D02*
X018401Y009516D01*
X018378Y009555D02*
X019331Y009555D01*
X019308Y009593D02*
X018355Y009593D01*
X018332Y009632D02*
X019286Y009632D01*
X019263Y009670D02*
X018309Y009670D01*
X018286Y009709D02*
X019242Y009709D01*
X019220Y009747D02*
X018262Y009747D01*
X018239Y009786D02*
X019198Y009786D01*
X019176Y009824D02*
X018215Y009824D01*
X018191Y009863D02*
X019154Y009863D01*
X019133Y009901D02*
X018168Y009901D01*
X018145Y009940D02*
X019111Y009940D01*
X019090Y009978D02*
X018121Y009978D01*
X018097Y010017D02*
X019069Y010017D01*
X019047Y010055D02*
X018072Y010055D01*
X018048Y010094D02*
X019026Y010094D01*
X019004Y010132D02*
X018024Y010132D01*
X018000Y010171D02*
X018983Y010171D01*
X018963Y010209D02*
X017976Y010209D01*
X017952Y010248D02*
X018942Y010248D01*
X018921Y010286D02*
X017927Y010286D01*
X017903Y010325D02*
X018900Y010325D01*
X018879Y010363D02*
X017879Y010363D01*
X017842Y010402D02*
X018858Y010402D01*
X018838Y010440D02*
X017806Y010440D01*
X017770Y010479D02*
X018817Y010479D01*
X018797Y010517D02*
X017734Y010517D01*
X017697Y010556D02*
X018776Y010556D01*
X018756Y010594D02*
X017661Y010594D01*
X017618Y010633D02*
X018735Y010633D01*
X018715Y010671D02*
X017564Y010671D01*
X017511Y010710D02*
X018695Y010710D01*
X018675Y010748D02*
X017457Y010748D01*
X017403Y010787D02*
X018655Y010787D01*
X018639Y010825D02*
X017347Y010825D01*
X017263Y010864D02*
X018627Y010864D01*
X018616Y010902D02*
X017182Y010902D01*
X017111Y010941D02*
X018604Y010941D01*
X018593Y010979D02*
X017056Y010979D01*
X017010Y011018D02*
X018581Y011018D01*
X018570Y011056D02*
X016964Y011056D01*
X016389Y012481D02*
X018179Y012481D01*
X018131Y012519D02*
X016362Y012519D01*
X016383Y012493D02*
X016383Y012493D01*
X016332Y012558D02*
X018076Y012558D01*
X018087Y012550D02*
X018087Y012550D01*
X018021Y012596D02*
X016302Y012596D01*
X016272Y012635D02*
X017971Y012635D01*
X017983Y012623D02*
X017983Y012623D01*
X017934Y012673D02*
X016243Y012673D01*
X016213Y012712D02*
X017897Y012712D01*
X017859Y012750D02*
X016183Y012750D01*
X016182Y012751D02*
X016182Y012751D01*
X016120Y012789D02*
X017822Y012789D01*
X017784Y012827D02*
X016057Y012827D01*
X015994Y012866D02*
X017747Y012866D01*
X017740Y012873D02*
X017740Y012873D01*
X017719Y012904D02*
X015930Y012904D01*
X015743Y012943D02*
X017694Y012943D01*
X017669Y012981D02*
X013550Y012981D01*
X013520Y012943D02*
X015497Y012943D01*
X015620Y012966D02*
X015620Y012966D01*
X015319Y012910D02*
X015319Y012910D01*
X015310Y012904D02*
X013491Y012904D01*
X013461Y012866D02*
X015247Y012866D01*
X015183Y012827D02*
X013431Y012827D01*
X013401Y012789D02*
X015120Y012789D01*
X015058Y012751D02*
X015058Y012751D01*
X015057Y012750D02*
X013371Y012750D01*
X013342Y012712D02*
X015028Y012712D01*
X014998Y012673D02*
X013312Y012673D01*
X013303Y012662D02*
X013303Y012662D01*
X013303Y012662D01*
X013266Y012635D02*
X014968Y012635D01*
X014964Y012631D02*
X014964Y012631D01*
X014938Y012596D02*
X013214Y012596D01*
X013161Y012558D02*
X014908Y012558D01*
X014878Y012519D02*
X013108Y012519D01*
X013096Y012510D02*
X013096Y012510D01*
X013061Y012481D02*
X014851Y012481D01*
X014832Y012442D02*
X013014Y012442D01*
X012979Y012404D02*
X013497Y012404D01*
X013502Y012406D02*
X013232Y012276D01*
X013045Y012042D01*
X013009Y011884D01*
X013005Y011874D01*
X013005Y011866D01*
X012979Y011750D01*
X013005Y011635D01*
X013005Y011614D01*
X013016Y011588D01*
X013045Y011459D01*
X013045Y011459D01*
X013095Y011396D01*
X013104Y011374D01*
X013146Y011332D01*
X013232Y011224D01*
X013274Y011204D01*
X013288Y011190D01*
X013397Y011145D01*
X013502Y011095D01*
X013519Y011095D01*
X013528Y011091D01*
X013788Y011091D01*
X013797Y011095D01*
X013801Y011095D01*
X013825Y011106D01*
X014028Y011190D01*
X014054Y011217D01*
X014071Y011224D01*
X014071Y011224D01*
X014071Y011224D01*
X014105Y011267D01*
X014212Y011374D01*
X014235Y011430D01*
X014258Y011459D01*
X014271Y011517D01*
X014311Y011614D01*
X014311Y011693D01*
X014324Y011750D01*
X014311Y011808D01*
X014311Y011874D01*
X014278Y011955D01*
X014258Y012042D01*
X014258Y012042D01*
X014224Y012085D01*
X014212Y012114D01*
X014157Y012168D01*
X014071Y012276D01*
X014029Y012297D01*
X014028Y012297D01*
X014023Y012299D01*
X013801Y012406D01*
X013502Y012406D01*
X013417Y012365D02*
X012948Y012365D01*
X012917Y012327D02*
X013337Y012327D01*
X013257Y012288D02*
X012886Y012288D01*
X012854Y012250D02*
X013211Y012250D01*
X013232Y012276D02*
X013232Y012276D01*
X013232Y012276D01*
X013180Y012211D02*
X012835Y012211D01*
X012818Y012173D02*
X013150Y012173D01*
X013119Y012134D02*
X012800Y012134D01*
X012783Y012096D02*
X013088Y012096D01*
X013057Y012057D02*
X012766Y012057D01*
X012750Y012019D02*
X013040Y012019D01*
X013045Y012042D02*
X013045Y012042D01*
X013031Y011980D02*
X012744Y011980D01*
X012737Y011942D02*
X013022Y011942D01*
X013014Y011903D02*
X012730Y011903D01*
X012724Y011865D02*
X013005Y011865D01*
X012996Y011826D02*
X012717Y011826D01*
X012711Y011788D02*
X012987Y011788D01*
X012979Y011750D02*
X012979Y011750D01*
X012979Y011749D02*
X012712Y011749D01*
X012713Y011711D02*
X012988Y011711D01*
X012997Y011672D02*
X012714Y011672D01*
X012714Y011667D02*
X012714Y011667D01*
X012717Y011634D02*
X013005Y011634D01*
X013013Y011595D02*
X012720Y011595D01*
X012718Y011619D02*
X012718Y011619D01*
X012724Y011557D02*
X013023Y011557D01*
X013032Y011518D02*
X012727Y011518D01*
X012731Y011480D02*
X013040Y011480D01*
X013059Y011441D02*
X012734Y011441D01*
X012737Y011410D02*
X012737Y011410D01*
X012735Y011403D02*
X013090Y011403D01*
X013114Y011364D02*
X012728Y011364D01*
X012720Y011326D02*
X013151Y011326D01*
X013182Y011287D02*
X012713Y011287D01*
X012705Y011249D02*
X013213Y011249D01*
X013232Y011224D02*
X013232Y011224D01*
X013261Y011210D02*
X012698Y011210D01*
X012690Y011172D02*
X013332Y011172D01*
X013421Y011133D02*
X012683Y011133D01*
X012675Y011095D02*
X013501Y011095D01*
X013802Y011095D02*
X014323Y011095D01*
X014359Y011133D02*
X013891Y011133D01*
X013984Y011172D02*
X014386Y011172D01*
X014413Y011210D02*
X014048Y011210D01*
X014090Y011249D02*
X014440Y011249D01*
X014467Y011287D02*
X014125Y011287D01*
X014164Y011326D02*
X014490Y011326D01*
X014504Y011364D02*
X014202Y011364D01*
X014224Y011403D02*
X014518Y011403D01*
X014532Y011441D02*
X014244Y011441D01*
X014258Y011459D02*
X014258Y011459D01*
X014263Y011480D02*
X014546Y011480D01*
X014560Y011518D02*
X014272Y011518D01*
X014288Y011557D02*
X014572Y011557D01*
X014578Y011595D02*
X014304Y011595D01*
X014311Y011634D02*
X014584Y011634D01*
X014590Y011671D02*
X014590Y011671D01*
X014590Y011672D02*
X014311Y011672D01*
X014315Y011711D02*
X014593Y011711D01*
X014596Y011749D02*
X014324Y011749D01*
X014316Y011788D02*
X014599Y011788D01*
X014603Y011826D02*
X014311Y011826D01*
X014311Y011865D02*
X014610Y011865D01*
X014604Y011845D02*
X014604Y011845D01*
X014621Y011903D02*
X014299Y011903D01*
X014283Y011942D02*
X014632Y011942D01*
X014643Y011980D02*
X014272Y011980D01*
X014263Y012019D02*
X014654Y012019D01*
X014665Y012057D02*
X014246Y012057D01*
X014219Y012096D02*
X014675Y012096D01*
X014686Y012134D02*
X014191Y012134D01*
X014153Y012173D02*
X014697Y012173D01*
X014700Y012181D02*
X014700Y012181D01*
X014715Y012211D02*
X014123Y012211D01*
X014092Y012250D02*
X014734Y012250D01*
X014754Y012288D02*
X014046Y012288D01*
X014071Y012276D02*
X014071Y012276D01*
X013966Y012327D02*
X014773Y012327D01*
X014793Y012365D02*
X013886Y012365D01*
X013806Y012404D02*
X014812Y012404D01*
X013610Y013058D02*
X017619Y013058D01*
X017644Y013020D02*
X013580Y013020D01*
X013629Y013097D02*
X017594Y013097D01*
X017568Y013135D02*
X013644Y013135D01*
X013659Y013174D02*
X017545Y013174D01*
X017549Y013166D02*
X017549Y013166D01*
X017530Y013212D02*
X013674Y013212D01*
X013690Y013251D02*
X017514Y013251D01*
X017501Y013283D02*
X017501Y013283D01*
X017498Y013289D02*
X013705Y013289D01*
X013694Y013263D02*
X013694Y013263D01*
X013720Y013328D02*
X017482Y013328D01*
X017467Y013366D02*
X013735Y013366D01*
X013750Y013405D02*
X017451Y013405D01*
X017435Y013443D02*
X013766Y013443D01*
X013767Y013448D02*
X013767Y013448D01*
X013768Y013482D02*
X017425Y013482D01*
X017425Y013469D02*
X017425Y013469D01*
X017424Y013520D02*
X013768Y013520D01*
X013769Y013559D02*
X017423Y013559D01*
X017422Y013597D02*
X013770Y013597D01*
X013770Y013636D02*
X017421Y013636D01*
X017420Y013674D02*
X013771Y013674D01*
X013771Y013713D02*
X017419Y013713D01*
X017419Y013751D02*
X013771Y013751D01*
X013772Y013750D02*
X013772Y013750D01*
X013757Y013790D02*
X017423Y013790D01*
X017437Y013828D02*
X013744Y013828D01*
X013730Y013867D02*
X017451Y013867D01*
X017465Y013905D02*
X013716Y013905D01*
X013702Y013944D02*
X017478Y013944D01*
X017492Y013982D02*
X013688Y013982D01*
X013675Y014021D02*
X017506Y014021D01*
X017519Y014059D02*
X013648Y014059D01*
X013670Y014034D02*
X013670Y014034D01*
X013616Y014098D02*
X017550Y014098D01*
X017520Y014063D02*
X017520Y014063D01*
X017583Y014136D02*
X013583Y014136D01*
X013550Y014175D02*
X017616Y014175D01*
X017649Y014213D02*
X013517Y014213D01*
X013485Y014252D02*
X017682Y014252D01*
X017714Y014290D02*
X013427Y014290D01*
X013474Y014264D02*
X013474Y014264D01*
X013474Y014264D01*
X013358Y014329D02*
X015405Y014329D01*
X015451Y014310D02*
X015789Y014310D01*
X016101Y014439D01*
X016341Y014679D01*
X016470Y014991D01*
X016470Y015329D01*
X016341Y015641D01*
X016101Y015881D01*
X015789Y016010D01*
X015451Y016010D01*
X015139Y015881D01*
X014899Y015641D01*
X014770Y015329D01*
X014770Y014991D01*
X014899Y014679D01*
X015139Y014439D01*
X015451Y014310D01*
X015312Y014367D02*
X013288Y014367D01*
X013219Y014406D02*
X015219Y014406D01*
X015134Y014444D02*
X012982Y014444D01*
X013014Y014440D02*
X013014Y014440D01*
X013016Y014440D02*
X013016Y014440D01*
X013106Y014426D02*
X013106Y014426D01*
X013210Y014411D02*
X013210Y014411D01*
X012805Y014471D02*
X012805Y014471D01*
X012612Y014444D02*
X011063Y014444D01*
X011008Y014483D02*
X015095Y014483D01*
X015057Y014521D02*
X011869Y014521D01*
X011833Y014504D02*
X012102Y014634D01*
X012102Y014634D01*
X012289Y014868D01*
X014821Y014868D01*
X014805Y014906D02*
X012298Y014906D01*
X012289Y014868D02*
X012327Y015032D01*
X012329Y015039D01*
X012329Y015044D01*
X012356Y015160D01*
X012329Y015276D01*
X012329Y015298D01*
X012318Y015326D01*
X012289Y015452D01*
X012240Y015513D01*
X012230Y015538D01*
X012182Y015587D01*
X012102Y015686D01*
X012064Y015705D01*
X012046Y015722D01*
X011912Y015778D01*
X011833Y015816D01*
X011820Y015816D01*
X011806Y015822D01*
X011546Y015822D01*
X011306Y015722D01*
X011276Y015692D01*
X011264Y015686D01*
X011264Y015686D01*
X011238Y015653D01*
X011123Y015538D01*
X011097Y015478D01*
X011077Y015452D01*
X011077Y015452D01*
X011065Y015399D01*
X011023Y015298D01*
X011023Y015217D01*
X011010Y015160D01*
X011023Y015103D01*
X011023Y015039D01*
X011056Y014959D01*
X011077Y014868D01*
X003699Y014868D01*
X003707Y014906D02*
X011068Y014906D01*
X011077Y014868D02*
X011077Y014868D01*
X011112Y014824D01*
X011123Y014799D01*
X011171Y014750D01*
X011264Y014634D01*
X011533Y014504D01*
X011833Y014504D01*
X011949Y014560D02*
X015018Y014560D01*
X014980Y014598D02*
X012029Y014598D01*
X012102Y014634D02*
X012102Y014634D01*
X012105Y014637D02*
X014941Y014637D01*
X014903Y014675D02*
X012135Y014675D01*
X012166Y014714D02*
X014885Y014714D01*
X014869Y014752D02*
X012197Y014752D01*
X012228Y014791D02*
X014853Y014791D01*
X014837Y014829D02*
X012258Y014829D01*
X012289Y014868D02*
X012289Y014868D01*
X012307Y014945D02*
X014789Y014945D01*
X014773Y014983D02*
X012315Y014983D01*
X012324Y015022D02*
X014770Y015022D01*
X014770Y015060D02*
X012333Y015060D01*
X012342Y015099D02*
X014770Y015099D01*
X014770Y015137D02*
X012351Y015137D01*
X012352Y015176D02*
X014770Y015176D01*
X014770Y015214D02*
X012343Y015214D01*
X012335Y015253D02*
X014770Y015253D01*
X014770Y015291D02*
X012329Y015291D01*
X012317Y015330D02*
X014770Y015330D01*
X014786Y015368D02*
X012308Y015368D01*
X012299Y015407D02*
X014802Y015407D01*
X014818Y015445D02*
X012291Y015445D01*
X012289Y015452D02*
X012289Y015452D01*
X012264Y015484D02*
X014834Y015484D01*
X014850Y015522D02*
X012236Y015522D01*
X012207Y015561D02*
X014866Y015561D01*
X014882Y015599D02*
X012171Y015599D01*
X012141Y015638D02*
X014898Y015638D01*
X014934Y015676D02*
X012110Y015676D01*
X012102Y015686D02*
X012102Y015686D01*
X012053Y015715D02*
X014973Y015715D01*
X015011Y015753D02*
X011971Y015753D01*
X011882Y015792D02*
X015050Y015792D01*
X015089Y015830D02*
X010999Y015830D01*
X011054Y015869D02*
X012663Y015869D01*
X012934Y015869D02*
X015127Y015869D01*
X015204Y015907D02*
X013195Y015907D01*
X013210Y015910D02*
X013210Y015910D01*
X013275Y015946D02*
X015297Y015946D01*
X015389Y015984D02*
X013345Y015984D01*
X013414Y016023D02*
X017722Y016023D01*
X017719Y016025D02*
X017719Y016025D01*
X017687Y016061D02*
X013479Y016061D01*
X013474Y016056D02*
X013474Y016056D01*
X013511Y016100D02*
X017654Y016100D01*
X017622Y016138D02*
X013544Y016138D01*
X013577Y016177D02*
X017589Y016177D01*
X017556Y016215D02*
X013610Y016215D01*
X013642Y016254D02*
X017523Y016254D01*
X017520Y016257D02*
X017520Y016257D01*
X017508Y016292D02*
X013672Y016292D01*
X013686Y016331D02*
X017494Y016331D01*
X017481Y016369D02*
X013700Y016369D01*
X013713Y016408D02*
X017467Y016408D01*
X017453Y016446D02*
X013727Y016446D01*
X013741Y016485D02*
X017439Y016485D01*
X017426Y016523D02*
X013755Y016523D01*
X013769Y016562D02*
X017418Y016562D01*
X017418Y016545D02*
X017418Y016545D01*
X017419Y016600D02*
X013771Y016600D01*
X013772Y016571D02*
X013772Y016571D01*
X013771Y016639D02*
X017420Y016639D01*
X017421Y016677D02*
X013770Y016677D01*
X013770Y016716D02*
X017422Y016716D01*
X017423Y016754D02*
X013769Y016754D01*
X013768Y016793D02*
X017424Y016793D01*
X017424Y016831D02*
X013768Y016831D01*
X013767Y016870D02*
X017433Y016870D01*
X017425Y016851D02*
X017425Y016851D01*
X017448Y016908D02*
X013753Y016908D01*
X013767Y016873D02*
X013767Y016873D01*
X013738Y016947D02*
X017464Y016947D01*
X017465Y016948D02*
X017465Y016948D01*
X017480Y016985D02*
X013723Y016985D01*
X013708Y017024D02*
X017495Y017024D01*
X017511Y017062D02*
X013692Y017062D01*
X013694Y017058D02*
X013694Y017058D01*
X013677Y017101D02*
X017527Y017101D01*
X017542Y017139D02*
X013662Y017139D01*
X013646Y017178D02*
X017564Y017178D01*
X017549Y017154D02*
X017549Y017154D01*
X017589Y017216D02*
X013631Y017216D01*
X013615Y017255D02*
X017614Y017255D01*
X017640Y017293D02*
X013585Y017293D01*
X013555Y017332D02*
X017665Y017332D01*
X017690Y017370D02*
X015707Y017370D01*
X015620Y017354D02*
X015620Y017354D01*
X015533Y017370D02*
X013526Y017370D01*
X013496Y017409D02*
X015324Y017409D01*
X015257Y017447D02*
X013466Y017447D01*
X013436Y017486D02*
X015194Y017486D01*
X015131Y017524D02*
X013406Y017524D01*
X013377Y017563D02*
X015067Y017563D01*
X015032Y017601D02*
X013347Y017601D01*
X013317Y017640D02*
X015003Y017640D01*
X014973Y017678D02*
X013275Y017678D01*
X013303Y017658D02*
X013303Y017658D01*
X013223Y017717D02*
X014943Y017717D01*
X014913Y017755D02*
X013170Y017755D01*
X013117Y017794D02*
X014883Y017794D01*
X014857Y017827D02*
X014857Y017827D01*
X014855Y017832D02*
X013068Y017832D01*
X013096Y017810D02*
X013096Y017810D01*
X013022Y017871D02*
X014835Y017871D01*
X014816Y017909D02*
X012985Y017909D01*
X012954Y017948D02*
X013431Y017948D01*
X013502Y017914D02*
X013232Y018044D01*
X013232Y018044D01*
X013045Y018278D01*
X013045Y018278D01*
X012979Y018570D01*
X012979Y018570D01*
X013045Y018861D01*
X013045Y018861D01*
X013232Y019096D01*
X013232Y019096D01*
X013232Y019096D01*
X013502Y019225D01*
X013801Y019225D01*
X013881Y019187D01*
X014035Y019123D01*
X014055Y019103D01*
X014071Y019096D01*
X014071Y019096D01*
X014103Y019055D01*
X014219Y018939D01*
X014244Y018878D01*
X014258Y018861D01*
X014258Y018861D01*
X014266Y018827D01*
X014318Y018699D01*
X014318Y018595D01*
X014324Y018570D01*
X014318Y018544D01*
X014318Y018440D01*
X014265Y018312D01*
X014258Y018278D01*
X014258Y018278D01*
X014244Y018261D01*
X014219Y018200D01*
X014102Y018083D01*
X014071Y018044D01*
X014071Y018044D01*
X014071Y018044D01*
X014056Y018036D01*
X014035Y018016D01*
X013879Y017951D01*
X013801Y017914D01*
X013502Y017914D01*
X013351Y017986D02*
X012922Y017986D01*
X012891Y018025D02*
X013271Y018025D01*
X013216Y018063D02*
X012860Y018063D01*
X012838Y018102D02*
X013185Y018102D01*
X013155Y018140D02*
X012821Y018140D01*
X012803Y018179D02*
X013124Y018179D01*
X013093Y018217D02*
X012786Y018217D01*
X012769Y018256D02*
X013063Y018256D01*
X013042Y018294D02*
X012751Y018294D01*
X012745Y018333D02*
X013033Y018333D01*
X013024Y018371D02*
X012738Y018371D01*
X012732Y018410D02*
X013015Y018410D01*
X013006Y018448D02*
X012725Y018448D01*
X012719Y018487D02*
X012998Y018487D01*
X012989Y018525D02*
X012712Y018525D01*
X012712Y018564D02*
X012980Y018564D01*
X012986Y018602D02*
X012713Y018602D01*
X012714Y018641D02*
X012995Y018641D01*
X013004Y018679D02*
X012716Y018679D01*
X012718Y018701D02*
X012718Y018701D01*
X012720Y018718D02*
X013013Y018718D01*
X013021Y018756D02*
X012723Y018756D01*
X012726Y018795D02*
X013030Y018795D01*
X013039Y018833D02*
X012730Y018833D01*
X012733Y018872D02*
X013054Y018872D01*
X013084Y018910D02*
X012737Y018910D01*
X012729Y018949D02*
X013115Y018949D01*
X013146Y018987D02*
X012722Y018987D01*
X012714Y019026D02*
X013177Y019026D01*
X013207Y019064D02*
X012707Y019064D01*
X012699Y019103D02*
X013248Y019103D01*
X013327Y019141D02*
X012692Y019141D01*
X012684Y019180D02*
X013407Y019180D01*
X013487Y019218D02*
X012676Y019218D01*
X012669Y019257D02*
X014284Y019257D01*
X014238Y019295D02*
X012661Y019295D01*
X012654Y019334D02*
X014192Y019334D01*
X014141Y019372D02*
X012646Y019372D01*
X012639Y019411D02*
X014070Y019411D01*
X013991Y019449D02*
X012621Y019449D01*
X012638Y019416D02*
X012638Y019416D01*
X012601Y019488D02*
X013907Y019488D01*
X013846Y019526D02*
X012581Y019526D01*
X012561Y019565D02*
X013792Y019565D01*
X013739Y019603D02*
X012541Y019603D01*
X012522Y019642D02*
X013685Y019642D01*
X013631Y019680D02*
X012502Y019680D01*
X012481Y019719D02*
X013585Y019719D01*
X013549Y019757D02*
X012461Y019757D01*
X012441Y019796D02*
X013513Y019796D01*
X013476Y019834D02*
X012421Y019834D01*
X012402Y019873D02*
X013440Y019873D01*
X013404Y019911D02*
X012381Y019911D01*
X012360Y019950D02*
X013367Y019950D01*
X013361Y019956D02*
X013361Y019956D01*
X013341Y019988D02*
X012340Y019988D01*
X012319Y020027D02*
X013317Y020027D01*
X013292Y020065D02*
X012299Y020065D01*
X012278Y020104D02*
X013268Y020104D01*
X013244Y020142D02*
X012258Y020142D01*
X012237Y020181D02*
X013220Y020181D01*
X013196Y020219D02*
X012216Y020219D01*
X012195Y020258D02*
X013172Y020258D01*
X013148Y020296D02*
X012174Y020296D01*
X012153Y020335D02*
X013123Y020335D01*
X013140Y020308D02*
X013141Y020308D01*
X013099Y020373D02*
X012132Y020373D01*
X012110Y020412D02*
X013076Y020412D01*
X013053Y020450D02*
X012089Y020450D01*
X012067Y020489D02*
X013029Y020489D01*
X013005Y020528D02*
X012046Y020528D01*
X012024Y020566D02*
X012981Y020566D01*
X012958Y020605D02*
X012003Y020605D01*
X011981Y020643D02*
X012935Y020643D01*
X012912Y020682D02*
X011959Y020682D01*
X011937Y020720D02*
X012889Y020720D01*
X012866Y020759D02*
X011915Y020759D01*
X011893Y020797D02*
X012843Y020797D01*
X012820Y020836D02*
X011871Y020836D01*
X011849Y020874D02*
X012797Y020874D01*
X012775Y020913D02*
X011827Y020913D01*
X011805Y020951D02*
X012752Y020951D01*
X012729Y020990D02*
X011782Y020990D01*
X011759Y021028D02*
X012707Y021028D01*
X012684Y021067D02*
X011736Y021067D01*
X011714Y021105D02*
X012662Y021105D01*
X012640Y021144D02*
X011691Y021144D01*
X011668Y021182D02*
X012618Y021182D01*
X012596Y021221D02*
X011645Y021221D01*
X011622Y021259D02*
X012573Y021259D01*
X012551Y021298D02*
X011599Y021298D01*
X011576Y021336D02*
X012529Y021336D01*
X012507Y021375D02*
X011553Y021375D01*
X011529Y021413D02*
X012486Y021413D01*
X012464Y021452D02*
X011506Y021452D01*
X011482Y021490D02*
X012443Y021490D01*
X012421Y021529D02*
X011458Y021529D01*
X011435Y021567D02*
X012399Y021567D01*
X012378Y021606D02*
X011411Y021606D01*
X011388Y021644D02*
X012357Y021644D01*
X012336Y021683D02*
X011364Y021683D01*
X011339Y021721D02*
X012315Y021721D01*
X012294Y021760D02*
X011315Y021760D01*
X011291Y021798D02*
X012273Y021798D01*
X012251Y021837D02*
X011267Y021837D01*
X011243Y021875D02*
X011847Y021875D01*
X011765Y021914D02*
X011218Y021914D01*
X011193Y021952D02*
X011721Y021952D01*
X011695Y021991D02*
X011169Y021991D01*
X011144Y022029D02*
X011676Y022029D01*
X011657Y022068D02*
X011119Y022068D01*
X011094Y022106D02*
X011638Y022106D01*
X011619Y022145D02*
X011070Y022145D01*
X011045Y022183D02*
X011600Y022183D01*
X011581Y022222D02*
X011019Y022222D01*
X010994Y022260D02*
X011562Y022260D01*
X011543Y022299D02*
X010968Y022299D01*
X010943Y022337D02*
X011524Y022337D01*
X011505Y022376D02*
X010918Y022376D01*
X010892Y022414D02*
X011486Y022414D01*
X011467Y022453D02*
X010866Y022453D01*
X010840Y022491D02*
X011448Y022491D01*
X011429Y022530D02*
X010815Y022530D01*
X010789Y022568D02*
X011410Y022568D01*
X011391Y022607D02*
X010763Y022607D01*
X010737Y022645D02*
X011372Y022645D01*
X011353Y022684D02*
X010710Y022684D01*
X010684Y022722D02*
X011334Y022722D01*
X011315Y022761D02*
X010657Y022761D01*
X010631Y022799D02*
X011296Y022799D01*
X011278Y022838D02*
X010605Y022838D01*
X010578Y022876D02*
X011259Y022876D01*
X011240Y022915D02*
X010551Y022915D01*
X010524Y022953D02*
X011221Y022953D01*
X011202Y022992D02*
X010497Y022992D01*
X010470Y023030D02*
X011183Y023030D01*
X011164Y023069D02*
X010443Y023069D01*
X010416Y023107D02*
X011145Y023107D01*
X011126Y023146D02*
X010389Y023146D01*
X010361Y023184D02*
X011107Y023184D01*
X011088Y023223D02*
X010333Y023223D01*
X010306Y023261D02*
X011069Y023261D01*
X011050Y023300D02*
X010278Y023300D01*
X010251Y023338D02*
X011030Y023338D01*
X011008Y023377D02*
X010223Y023377D01*
X010194Y023415D02*
X010986Y023415D01*
X010964Y023454D02*
X010892Y023454D01*
X010841Y023454D02*
X010166Y023454D01*
X010138Y023492D02*
X010795Y023492D01*
X010778Y023531D02*
X010110Y023531D01*
X010082Y023569D02*
X010761Y023569D01*
X010744Y023608D02*
X010054Y023608D01*
X010025Y023646D02*
X010727Y023646D01*
X010709Y023685D02*
X009996Y023685D01*
X009968Y023723D02*
X010692Y023723D01*
X010675Y023762D02*
X009939Y023762D01*
X009910Y023800D02*
X010658Y023800D01*
X010641Y023839D02*
X009859Y023839D01*
X009808Y023877D02*
X010624Y023877D01*
X010607Y023916D02*
X009758Y023916D01*
X009707Y023954D02*
X010589Y023954D01*
X010572Y023993D02*
X009656Y023993D01*
X009606Y024031D02*
X010555Y024031D01*
X010538Y024070D02*
X009555Y024070D01*
X009505Y024108D02*
X010521Y024108D01*
X010504Y024147D02*
X009426Y024147D01*
X009482Y024125D02*
X009482Y024125D01*
X009326Y024185D02*
X010487Y024185D01*
X010469Y024224D02*
X009226Y024224D01*
X009125Y024262D02*
X010452Y024262D01*
X010435Y024301D02*
X009025Y024301D01*
X008734Y024339D02*
X010418Y024339D01*
X010401Y024378D02*
X008060Y024378D01*
X008140Y024416D02*
X010384Y024416D01*
X010378Y024455D02*
X008228Y024455D01*
X008300Y024493D02*
X010393Y024493D01*
X010461Y024532D02*
X008347Y024532D01*
X008327Y024506D02*
X008327Y024506D01*
X008327Y024506D01*
X008378Y024570D02*
X010548Y024570D01*
X010634Y024609D02*
X008412Y024609D01*
X008451Y024647D02*
X010721Y024647D01*
X010807Y024686D02*
X008474Y024686D01*
X008501Y024724D02*
X010894Y024724D01*
X010937Y024724D02*
X010962Y024724D01*
X010957Y024763D02*
X008519Y024763D01*
X008513Y024740D02*
X008513Y024740D01*
X008527Y024801D02*
X010952Y024801D01*
X010947Y024840D02*
X008538Y024840D01*
X008554Y024878D02*
X010942Y024878D01*
X010937Y024917D02*
X008562Y024917D01*
X008562Y024955D02*
X008580Y025032D01*
X010943Y025032D01*
X010937Y024994D02*
X008571Y024994D01*
X008580Y025032D02*
X008562Y025109D01*
X010956Y025109D01*
X010962Y025148D02*
X008562Y025148D01*
X008562Y025159D02*
X008537Y025221D01*
X008513Y025324D01*
X008474Y025374D01*
X008463Y025399D01*
X008414Y025448D01*
X008327Y025558D01*
X008284Y025578D01*
X008279Y025583D01*
X008244Y025598D01*
X008057Y025688D01*
X007769Y025688D01*
X008647Y026304D01*
X008813Y026396D01*
X008806Y026389D01*
X008790Y026351D01*
X008750Y026301D01*
X008727Y026199D01*
X008706Y026149D01*
X008706Y026109D01*
X008684Y026009D01*
X008706Y025909D01*
X008706Y025889D01*
X008716Y025865D01*
X008750Y025717D01*
X008937Y025483D01*
X009207Y025353D01*
X009506Y025353D01*
X009776Y025483D01*
X009890Y025626D01*
X009913Y025649D01*
X009918Y025662D01*
X009962Y025717D01*
X009962Y025717D01*
X009989Y025832D01*
X010012Y025889D01*
X010012Y025936D01*
X010029Y026009D01*
X010012Y026082D01*
X010012Y026149D01*
X009978Y026232D01*
X009962Y026301D01*
X009936Y026334D01*
X009913Y026389D01*
X009809Y026493D01*
X009776Y026535D01*
X009776Y026535D01*
X009759Y026543D01*
X009729Y026573D01*
X009489Y026672D01*
X009311Y026672D01*
X009871Y026982D01*
X010447Y027226D01*
X010429Y027202D01*
X010376Y027149D01*
X010364Y027121D01*
X010321Y027067D01*
X010296Y026956D01*
X010276Y026909D01*
X010276Y026871D01*
X010254Y026775D01*
X010276Y026679D01*
X010276Y026649D01*
X009546Y026649D01*
X009639Y026611D02*
X010292Y026611D01*
X010291Y026613D02*
X010321Y026483D01*
X010371Y026420D01*
X010376Y026409D01*
X010397Y026389D01*
X010508Y026249D01*
X010777Y026119D01*
X011077Y026119D01*
X011287Y026221D01*
X011299Y026226D01*
X011301Y026227D01*
X011347Y026249D01*
X011347Y026249D01*
X011347Y026249D01*
X011440Y026366D01*
X011483Y026409D01*
X011492Y026432D01*
X011533Y026483D01*
X011533Y026483D01*
X011557Y026589D01*
X011582Y026649D01*
X012020Y026649D01*
X012066Y026678D02*
X011607Y026389D01*
X011248Y025984D01*
X011016Y025494D01*
X010932Y024958D01*
X010932Y024958D01*
X010950Y025071D02*
X008571Y025071D01*
X008562Y025109D02*
X008562Y025159D01*
X008551Y025186D02*
X010968Y025186D01*
X010974Y025225D02*
X008536Y025225D01*
X008527Y025263D02*
X010980Y025263D01*
X010986Y025302D02*
X008518Y025302D01*
X008513Y025324D02*
X008513Y025324D01*
X008500Y025340D02*
X010992Y025340D01*
X010998Y025379D02*
X009559Y025379D01*
X009638Y025417D02*
X011004Y025417D01*
X011010Y025456D02*
X009718Y025456D01*
X009776Y025483D02*
X009776Y025483D01*
X009776Y025483D01*
X009784Y025494D02*
X011016Y025494D01*
X011016Y025494D01*
X011035Y025533D02*
X009815Y025533D01*
X009846Y025571D02*
X011053Y025571D01*
X011071Y025610D02*
X009877Y025610D01*
X009912Y025648D02*
X011089Y025648D01*
X011107Y025687D02*
X009938Y025687D01*
X009964Y025725D02*
X011126Y025725D01*
X011144Y025764D02*
X009973Y025764D01*
X009982Y025802D02*
X011162Y025802D01*
X011180Y025841D02*
X009992Y025841D01*
X010008Y025879D02*
X011198Y025879D01*
X011216Y025918D02*
X010012Y025918D01*
X010017Y025956D02*
X011235Y025956D01*
X011248Y025984D02*
X011248Y025984D01*
X011257Y025995D02*
X010026Y025995D01*
X010024Y026033D02*
X011291Y026033D01*
X011325Y026072D02*
X010015Y026072D01*
X010012Y026110D02*
X011359Y026110D01*
X011394Y026149D02*
X011137Y026149D01*
X011217Y026187D02*
X011428Y026187D01*
X011462Y026226D02*
X011299Y026226D01*
X011358Y026264D02*
X011496Y026264D01*
X011530Y026303D02*
X011389Y026303D01*
X011420Y026341D02*
X011564Y026341D01*
X011598Y026380D02*
X011453Y026380D01*
X011487Y026418D02*
X011653Y026418D01*
X011607Y026389D02*
X011607Y026389D01*
X011512Y026457D02*
X011714Y026457D01*
X011775Y026495D02*
X011536Y026495D01*
X011545Y026534D02*
X011836Y026534D01*
X011898Y026572D02*
X011553Y026572D01*
X011566Y026611D02*
X011959Y026611D01*
X012066Y026678D02*
X012066Y026678D01*
X012281Y026739D01*
X012281Y026739D01*
X012327Y026752D01*
X012969Y026935D01*
X014287Y027155D01*
X015167Y027204D01*
X015014Y027396D01*
X015014Y027396D01*
X014977Y027559D01*
X014976Y027559D01*
X014976Y027560D01*
X014947Y027687D01*
X014947Y027687D01*
X014976Y027815D01*
X014976Y027819D01*
X014979Y027825D01*
X015014Y027979D01*
X015014Y027979D01*
X015074Y028054D01*
X015076Y028059D01*
X015085Y028069D01*
X015201Y028213D01*
X015201Y028213D01*
X015201Y028213D01*
X015257Y028241D01*
X015259Y028243D01*
X015277Y028250D01*
X015377Y028299D01*
X015270Y028301D01*
X013875Y028190D01*
X012500Y027931D01*
X011160Y027527D01*
X010937Y027432D01*
X011059Y027432D01*
X011062Y027431D01*
X011077Y027431D01*
X011166Y027388D01*
X011299Y027333D01*
X011317Y027316D01*
X011347Y027301D01*
X011347Y027301D01*
X011408Y027225D01*
X011483Y027149D01*
X011500Y027109D01*
X011533Y027067D01*
X011533Y027067D01*
X011553Y026980D01*
X011582Y026909D01*
X011582Y026852D01*
X011600Y026775D01*
X011582Y026699D01*
X011582Y026649D01*
X011582Y026688D02*
X012100Y026688D01*
X012235Y026726D02*
X011589Y026726D01*
X011597Y026765D02*
X012371Y026765D01*
X012506Y026803D02*
X011594Y026803D01*
X011585Y026842D02*
X012642Y026842D01*
X012778Y026880D02*
X011582Y026880D01*
X011579Y026919D02*
X012913Y026919D01*
X013104Y026957D02*
X011563Y026957D01*
X011550Y026996D02*
X013333Y026996D01*
X013563Y027034D02*
X011541Y027034D01*
X011529Y027073D02*
X013793Y027073D01*
X014022Y027111D02*
X011499Y027111D01*
X011483Y027150D02*
X014252Y027150D01*
X014877Y027188D02*
X011444Y027188D01*
X011406Y027227D02*
X015149Y027227D01*
X015118Y027265D02*
X011375Y027265D01*
X011342Y027304D02*
X015087Y027304D01*
X015057Y027342D02*
X011278Y027342D01*
X011185Y027381D02*
X015026Y027381D01*
X015009Y027419D02*
X011102Y027419D01*
X011088Y027496D02*
X014991Y027496D01*
X015000Y027458D02*
X010997Y027458D01*
X011187Y027535D02*
X014982Y027535D01*
X014973Y027573D02*
X011314Y027573D01*
X011442Y027612D02*
X014965Y027612D01*
X014956Y027650D02*
X011570Y027650D01*
X011697Y027689D02*
X014947Y027689D01*
X014956Y027727D02*
X011825Y027727D01*
X011953Y027766D02*
X014965Y027766D01*
X014974Y027804D02*
X012081Y027804D01*
X012208Y027843D02*
X014983Y027843D01*
X014991Y027881D02*
X012336Y027881D01*
X012464Y027920D02*
X015000Y027920D01*
X015009Y027958D02*
X012646Y027958D01*
X012850Y027997D02*
X015028Y027997D01*
X015058Y028035D02*
X013054Y028035D01*
X013258Y028074D02*
X015089Y028074D01*
X015120Y028112D02*
X013463Y028112D01*
X013667Y028151D02*
X015150Y028151D01*
X015181Y028189D02*
X013871Y028189D01*
X014346Y028228D02*
X015230Y028228D01*
X015310Y028266D02*
X014827Y028266D01*
X015944Y028266D02*
X016601Y028266D01*
X016943Y028228D02*
X016015Y028228D01*
X016039Y028213D02*
X016039Y028213D01*
X016059Y028189D02*
X017230Y028189D01*
X017518Y028151D02*
X016092Y028151D01*
X016130Y028112D02*
X017805Y028112D01*
X018076Y028074D02*
X016169Y028074D01*
X016193Y028035D02*
X018234Y028035D01*
X018391Y027997D02*
X016212Y027997D01*
X016231Y027958D02*
X018549Y027958D01*
X018706Y027920D02*
X016241Y027920D01*
X016257Y027881D02*
X018864Y027881D01*
X019022Y027843D02*
X016273Y027843D01*
X016282Y027804D02*
X019179Y027804D01*
X019337Y027766D02*
X016282Y027766D01*
X016284Y027727D02*
X019469Y027727D01*
X019576Y027689D02*
X016293Y027689D01*
X016284Y027650D02*
X019682Y027650D01*
X019789Y027612D02*
X016282Y027612D01*
X016282Y027573D02*
X019896Y027573D01*
X020003Y027535D02*
X016272Y027535D01*
X016256Y027496D02*
X020109Y027496D01*
X020133Y027419D02*
X016231Y027419D01*
X016226Y027396D02*
X016226Y027396D01*
X016214Y027381D02*
X020040Y027381D01*
X019948Y027342D02*
X016192Y027342D01*
X016167Y027304D02*
X019898Y027304D01*
X019893Y027301D02*
X019893Y027301D01*
X019893Y027301D01*
X019865Y027265D02*
X016129Y027265D01*
X016091Y027227D02*
X019833Y027227D01*
X019794Y027188D02*
X016363Y027188D01*
X016240Y027458D02*
X020216Y027458D01*
X019762Y027150D02*
X016988Y027150D01*
X017218Y027111D02*
X019742Y027111D01*
X019711Y027073D02*
X017447Y027073D01*
X017677Y027034D02*
X019699Y027034D01*
X019707Y027067D02*
X019707Y027067D01*
X019690Y026996D02*
X017906Y026996D01*
X018136Y026957D02*
X019682Y026957D01*
X019666Y026919D02*
X018327Y026919D01*
X018463Y026880D02*
X019664Y026880D01*
X019655Y026842D02*
X018598Y026842D01*
X018734Y026803D02*
X019646Y026803D01*
X019640Y026775D02*
X019640Y026775D01*
X019643Y026765D02*
X018869Y026765D01*
X018960Y026739D02*
X018960Y026739D01*
X019005Y026726D02*
X019651Y026726D01*
X019660Y026688D02*
X019140Y026688D01*
X019175Y026678D02*
X019175Y026678D01*
X019221Y026649D02*
X019669Y026649D01*
X019678Y026611D02*
X019282Y026611D01*
X019343Y026572D02*
X019687Y026572D01*
X019695Y026534D02*
X019404Y026534D01*
X019465Y026495D02*
X019704Y026495D01*
X019707Y026483D02*
X019707Y026483D01*
X019728Y026457D02*
X019527Y026457D01*
X019588Y026418D02*
X019759Y026418D01*
X019790Y026380D02*
X019643Y026380D01*
X019634Y026389D02*
X019634Y026389D01*
X019634Y026389D01*
X019677Y026341D02*
X019820Y026341D01*
X019851Y026303D02*
X019711Y026303D01*
X019745Y026264D02*
X019882Y026264D01*
X019943Y026226D02*
X019779Y026226D01*
X019813Y026187D02*
X020023Y026187D01*
X020103Y026149D02*
X019847Y026149D01*
X019881Y026110D02*
X021226Y026110D01*
X021225Y026072D02*
X019915Y026072D01*
X019950Y026033D02*
X021216Y026033D01*
X021211Y026009D02*
X021211Y026009D01*
X021214Y025995D02*
X019984Y025995D01*
X019994Y025983D02*
X019994Y025983D01*
X020007Y025956D02*
X021223Y025956D01*
X021226Y025918D02*
X020025Y025918D01*
X020043Y025879D02*
X021231Y025879D01*
X021247Y025841D02*
X020061Y025841D01*
X020079Y025802D02*
X021258Y025802D01*
X021267Y025764D02*
X020097Y025764D01*
X020115Y025725D02*
X021276Y025725D01*
X021278Y025717D02*
X021278Y025717D01*
X021302Y025687D02*
X020134Y025687D01*
X020152Y025648D02*
X021327Y025648D01*
X021363Y025610D02*
X020170Y025610D01*
X020188Y025571D02*
X021394Y025571D01*
X021425Y025533D02*
X020206Y025533D01*
X020224Y025494D02*
X021456Y025494D01*
X021522Y025456D02*
X020231Y025456D01*
X020225Y025493D02*
X020225Y025493D01*
X020237Y025417D02*
X021602Y025417D01*
X021681Y025379D02*
X020243Y025379D01*
X020249Y025340D02*
X022740Y025340D01*
X022727Y025324D02*
X022727Y025324D01*
X022722Y025302D02*
X020255Y025302D01*
X020261Y025263D02*
X022713Y025263D01*
X022704Y025225D02*
X020267Y025225D01*
X020273Y025186D02*
X022695Y025186D01*
X022686Y025148D02*
X020279Y025148D01*
X020285Y025109D02*
X022678Y025109D01*
X022669Y025071D02*
X020291Y025071D01*
X020309Y024955D02*
X022677Y024955D01*
X022686Y024917D02*
X020304Y024917D01*
X020299Y024878D02*
X022695Y024878D01*
X022704Y024840D02*
X020294Y024840D01*
X020289Y024801D02*
X022713Y024801D01*
X022721Y024763D02*
X020284Y024763D01*
X020279Y024724D02*
X022739Y024724D01*
X022727Y024740D02*
X022727Y024740D01*
X022770Y024686D02*
X020274Y024686D01*
X020269Y024647D02*
X022798Y024647D01*
X022831Y024609D02*
X020264Y024609D01*
X020259Y024570D02*
X022862Y024570D01*
X022893Y024532D02*
X020254Y024532D01*
X020249Y024493D02*
X022940Y024493D01*
X023020Y024455D02*
X020244Y024455D01*
X020240Y024420D02*
X020240Y024420D01*
X020238Y024416D02*
X023100Y024416D01*
X023180Y024378D02*
X020222Y024378D01*
X020205Y024339D02*
X021032Y024339D01*
X021004Y024301D02*
X020188Y024301D01*
X020171Y024262D02*
X020976Y024262D01*
X020948Y024224D02*
X020154Y024224D01*
X020137Y024185D02*
X020920Y024185D01*
X020892Y024147D02*
X020120Y024147D01*
X020103Y024108D02*
X020864Y024108D01*
X020836Y024070D02*
X020086Y024070D01*
X020069Y024031D02*
X020808Y024031D01*
X020780Y023993D02*
X020052Y023993D01*
X020035Y023954D02*
X020752Y023954D01*
X020724Y023916D02*
X020018Y023916D01*
X020001Y023877D02*
X020696Y023877D01*
X020668Y023839D02*
X019983Y023839D01*
X019965Y023800D02*
X020640Y023800D01*
X020612Y023762D02*
X019948Y023762D01*
X019930Y023723D02*
X020584Y023723D01*
X020556Y023685D02*
X019913Y023685D01*
X019896Y023646D02*
X020528Y023646D01*
X020500Y023608D02*
X019878Y023608D01*
X019860Y023569D02*
X020472Y023569D01*
X020444Y023531D02*
X019842Y023531D01*
X019824Y023492D02*
X020416Y023492D01*
X020416Y023454D02*
X019806Y023454D01*
X019788Y023415D02*
X020426Y023415D01*
X020479Y023377D02*
X019770Y023377D01*
X019751Y023338D02*
X020492Y023338D01*
X020466Y023300D02*
X019733Y023300D01*
X019715Y023261D02*
X020440Y023261D01*
X020414Y023223D02*
X019696Y023223D01*
X019678Y023184D02*
X020388Y023184D01*
X020362Y023146D02*
X019660Y023146D01*
X019641Y023107D02*
X020337Y023107D01*
X020311Y023069D02*
X019622Y023069D01*
X019603Y023030D02*
X020285Y023030D01*
X020259Y022992D02*
X019584Y022992D01*
X019566Y022953D02*
X020233Y022953D01*
X020208Y022915D02*
X019547Y022915D01*
X019528Y022876D02*
X020182Y022876D01*
X020156Y022838D02*
X019509Y022838D01*
X019490Y022799D02*
X020130Y022799D01*
X020104Y022761D02*
X019470Y022761D01*
X019451Y022722D02*
X020079Y022722D01*
X020053Y022684D02*
X019432Y022684D01*
X019413Y022645D02*
X020027Y022645D01*
X020001Y022607D02*
X019393Y022607D01*
X019374Y022568D02*
X019975Y022568D01*
X019950Y022530D02*
X019354Y022530D01*
X019371Y022563D02*
X019371Y022563D01*
X019334Y022491D02*
X019924Y022491D01*
X019898Y022453D02*
X019314Y022453D01*
X019294Y022414D02*
X019872Y022414D01*
X019846Y022376D02*
X019275Y022376D01*
X019255Y022337D02*
X019821Y022337D01*
X019795Y022299D02*
X019235Y022299D01*
X019214Y022260D02*
X019769Y022260D01*
X019743Y022222D02*
X019194Y022222D01*
X019174Y022183D02*
X019717Y022183D01*
X019692Y022145D02*
X019154Y022145D01*
X019134Y022106D02*
X019666Y022106D01*
X019640Y022068D02*
X019113Y022068D01*
X019092Y022029D02*
X019614Y022029D01*
X019588Y021991D02*
X019072Y021991D01*
X019051Y021952D02*
X019563Y021952D01*
X019549Y021914D02*
X019030Y021914D01*
X019010Y021875D02*
X019541Y021875D01*
X019535Y021837D02*
X018989Y021837D01*
X018925Y021721D02*
X019569Y021721D01*
X019594Y021683D02*
X018904Y021683D01*
X018883Y021644D02*
X019634Y021644D01*
X019692Y021606D02*
X018862Y021606D01*
X018841Y021567D02*
X019811Y021567D01*
X019788Y021529D02*
X018819Y021529D01*
X018797Y021490D02*
X019764Y021490D01*
X019739Y021452D02*
X018776Y021452D01*
X018754Y021413D02*
X019716Y021413D01*
X019693Y021375D02*
X018733Y021375D01*
X018711Y021336D02*
X019669Y021336D01*
X019646Y021298D02*
X018689Y021298D01*
X018667Y021259D02*
X019623Y021259D01*
X019599Y021221D02*
X018644Y021221D01*
X018622Y021182D02*
X019576Y021182D01*
X019553Y021144D02*
X018600Y021144D01*
X018578Y021105D02*
X019530Y021105D01*
X019507Y021067D02*
X018556Y021067D01*
X018533Y021028D02*
X019485Y021028D01*
X019462Y020990D02*
X018511Y020990D01*
X018488Y020951D02*
X019439Y020951D01*
X019416Y020913D02*
X018465Y020913D01*
X018443Y020874D02*
X019394Y020874D01*
X019371Y020836D02*
X018420Y020836D01*
X018397Y020797D02*
X019349Y020797D01*
X019327Y020759D02*
X018374Y020759D01*
X018351Y020720D02*
X019304Y020720D01*
X019282Y020682D02*
X018328Y020682D01*
X018305Y020643D02*
X019260Y020643D01*
X019238Y020605D02*
X018282Y020605D01*
X018258Y020566D02*
X019216Y020566D01*
X019195Y020528D02*
X018235Y020528D01*
X018211Y020489D02*
X019173Y020489D01*
X019150Y020450D02*
X018187Y020450D01*
X018164Y020412D02*
X019129Y020412D01*
X019108Y020373D02*
X018140Y020373D01*
X018117Y020335D02*
X019086Y020335D01*
X019065Y020296D02*
X018092Y020296D01*
X018068Y020258D02*
X019044Y020258D01*
X019022Y020219D02*
X018044Y020219D01*
X018020Y020181D02*
X019001Y020181D01*
X018979Y020142D02*
X017996Y020142D01*
X017972Y020104D02*
X018959Y020104D01*
X018938Y020065D02*
X017948Y020065D01*
X017923Y020027D02*
X018917Y020027D01*
X018896Y019988D02*
X017899Y019988D01*
X017872Y019950D02*
X018875Y019950D01*
X018854Y019911D02*
X017836Y019911D01*
X017800Y019873D02*
X018834Y019873D01*
X018814Y019834D02*
X017763Y019834D01*
X017727Y019796D02*
X018793Y019796D01*
X018773Y019757D02*
X017691Y019757D01*
X017655Y019719D02*
X018752Y019719D01*
X018732Y019680D02*
X017609Y019680D01*
X017555Y019642D02*
X018711Y019642D01*
X018691Y019603D02*
X017501Y019603D01*
X017448Y019565D02*
X018671Y019565D01*
X018651Y019526D02*
X017394Y019526D01*
X017333Y019488D02*
X018637Y019488D01*
X018645Y019514D02*
X018645Y019514D01*
X018625Y019449D02*
X017249Y019449D01*
X017239Y019445D02*
X017239Y019445D01*
X017170Y019411D02*
X018614Y019411D01*
X018602Y019372D02*
X017099Y019372D01*
X017048Y019334D02*
X018591Y019334D01*
X018579Y019295D02*
X017002Y019295D01*
X016956Y019257D02*
X018567Y019257D01*
X018556Y019218D02*
X017780Y019218D01*
X017732Y019239D02*
X017472Y019239D01*
X017440Y019225D01*
X017439Y019225D01*
X017431Y019222D01*
X017232Y019139D01*
X017206Y019113D01*
X017169Y019096D01*
X017169Y019096D01*
X017169Y019096D01*
X017093Y019001D01*
X017048Y018956D01*
X017038Y018932D01*
X016982Y018861D01*
X016949Y018717D01*
X016949Y018715D01*
X016949Y018714D01*
X016916Y018570D01*
X016916Y018570D01*
X016982Y018278D01*
X016982Y018278D01*
X017169Y018044D01*
X017439Y017914D01*
X017738Y017914D01*
X018008Y018044D01*
X018104Y018165D01*
X018156Y018216D01*
X018167Y018243D01*
X018195Y018278D01*
X018211Y018350D01*
X018255Y018456D01*
X018255Y018542D01*
X018261Y018570D01*
X018255Y018597D01*
X018255Y018715D01*
X018195Y018861D01*
X018195Y018861D01*
X018195Y018861D01*
X018194Y018862D01*
X018156Y018956D01*
X017972Y019139D01*
X017732Y019239D01*
X017873Y019180D02*
X018544Y019180D01*
X018544Y019179D02*
X018544Y019179D01*
X018540Y019141D02*
X017966Y019141D01*
X018008Y019103D02*
X018537Y019103D01*
X018533Y019064D02*
X018047Y019064D01*
X018085Y019026D02*
X018529Y019026D01*
X018525Y018987D02*
X018124Y018987D01*
X018158Y018949D02*
X018521Y018949D01*
X018517Y018910D02*
X018174Y018910D01*
X018190Y018872D02*
X018514Y018872D01*
X018510Y018833D02*
X018206Y018833D01*
X018222Y018795D02*
X018513Y018795D01*
X018510Y018831D02*
X018510Y018831D01*
X018517Y018756D02*
X018238Y018756D01*
X018254Y018718D02*
X018520Y018718D01*
X018524Y018679D02*
X018255Y018679D01*
X018255Y018641D02*
X018526Y018641D01*
X018527Y018602D02*
X018255Y018602D01*
X018260Y018564D02*
X018528Y018564D01*
X018528Y018525D02*
X018255Y018525D01*
X018255Y018487D02*
X018521Y018487D01*
X018515Y018448D02*
X018252Y018448D01*
X018236Y018410D02*
X018508Y018410D01*
X018501Y018371D02*
X018220Y018371D01*
X018207Y018333D02*
X018495Y018333D01*
X018488Y018294D02*
X018198Y018294D01*
X018195Y018278D02*
X018195Y018278D01*
X018177Y018256D02*
X018472Y018256D01*
X018454Y018217D02*
X018156Y018217D01*
X018119Y018179D02*
X018436Y018179D01*
X018418Y018140D02*
X018085Y018140D01*
X018055Y018102D02*
X018400Y018102D01*
X018382Y018063D02*
X018024Y018063D01*
X018008Y018044D02*
X018008Y018044D01*
X018008Y018044D01*
X017969Y018025D02*
X018350Y018025D01*
X018318Y017986D02*
X017889Y017986D01*
X017809Y017948D02*
X018285Y017948D01*
X018253Y017909D02*
X016424Y017909D01*
X016405Y017871D02*
X018219Y017871D01*
X018171Y017832D02*
X016385Y017832D01*
X016383Y017827D02*
X016383Y017827D01*
X016357Y017794D02*
X018122Y017794D01*
X018126Y017797D02*
X018126Y017797D01*
X018067Y017755D02*
X016327Y017755D01*
X016297Y017717D02*
X018012Y017717D01*
X017965Y017678D02*
X016267Y017678D01*
X016237Y017640D02*
X017927Y017640D01*
X017890Y017601D02*
X016207Y017601D01*
X016182Y017569D02*
X016182Y017569D01*
X016182Y017569D01*
X016173Y017563D02*
X017853Y017563D01*
X017815Y017524D02*
X016109Y017524D01*
X016046Y017486D02*
X017778Y017486D01*
X017740Y017447D02*
X015983Y017447D01*
X015921Y017410D02*
X015921Y017410D01*
X015916Y017409D02*
X017715Y017409D01*
X017740Y017447D02*
X017740Y017447D01*
X017368Y017948D02*
X016444Y017948D01*
X016463Y017986D02*
X017288Y017986D01*
X017208Y018025D02*
X016483Y018025D01*
X016502Y018063D02*
X017153Y018063D01*
X017169Y018044D02*
X017169Y018044D01*
X017122Y018102D02*
X016522Y018102D01*
X016540Y018139D02*
X016540Y018139D01*
X016541Y018140D02*
X017092Y018140D01*
X017061Y018179D02*
X016552Y018179D01*
X016563Y018217D02*
X017030Y018217D01*
X017000Y018256D02*
X016574Y018256D01*
X016585Y018294D02*
X016979Y018294D01*
X016970Y018333D02*
X016595Y018333D01*
X016606Y018371D02*
X016961Y018371D01*
X016952Y018410D02*
X016617Y018410D01*
X016628Y018448D02*
X016943Y018448D01*
X016935Y018487D02*
X016637Y018487D01*
X016636Y018475D02*
X016636Y018475D01*
X016640Y018525D02*
X016926Y018525D01*
X016917Y018564D02*
X016643Y018564D01*
X016647Y018602D02*
X016923Y018602D01*
X016932Y018641D02*
X016650Y018641D01*
X016655Y018679D02*
X016941Y018679D01*
X016950Y018718D02*
X016661Y018718D01*
X016667Y018756D02*
X016958Y018756D01*
X016967Y018795D02*
X016677Y018795D01*
X016691Y018833D02*
X016976Y018833D01*
X016982Y018861D02*
X016982Y018861D01*
X016991Y018872D02*
X016705Y018872D01*
X016719Y018910D02*
X017021Y018910D01*
X017046Y018949D02*
X016733Y018949D01*
X016747Y018987D02*
X017080Y018987D01*
X017114Y019026D02*
X016769Y019026D01*
X016796Y019064D02*
X017144Y019064D01*
X017185Y019103D02*
X016823Y019103D01*
X016850Y019141D02*
X017237Y019141D01*
X017330Y019180D02*
X016877Y019180D01*
X016909Y019218D02*
X017423Y019218D01*
X014796Y017948D02*
X013872Y017948D01*
X013964Y017986D02*
X014777Y017986D01*
X014757Y018025D02*
X014044Y018025D01*
X014087Y018063D02*
X014738Y018063D01*
X014718Y018102D02*
X014121Y018102D01*
X014160Y018140D02*
X014699Y018140D01*
X014700Y018139D02*
X014700Y018139D01*
X014688Y018179D02*
X014198Y018179D01*
X014226Y018217D02*
X014677Y018217D01*
X014666Y018256D02*
X014242Y018256D01*
X014261Y018294D02*
X014655Y018294D01*
X014645Y018333D02*
X014274Y018333D01*
X014290Y018371D02*
X014634Y018371D01*
X014623Y018410D02*
X014306Y018410D01*
X014318Y018448D02*
X014612Y018448D01*
X014604Y018475D02*
X014604Y018475D01*
X014603Y018487D02*
X014318Y018487D01*
X014318Y018525D02*
X014600Y018525D01*
X014597Y018564D02*
X014323Y018564D01*
X014318Y018602D02*
X014593Y018602D01*
X014590Y018641D02*
X014318Y018641D01*
X014318Y018679D02*
X014585Y018679D01*
X014579Y018718D02*
X014311Y018718D01*
X014295Y018756D02*
X014573Y018756D01*
X014562Y018795D02*
X014279Y018795D01*
X014264Y018833D02*
X014549Y018833D01*
X014535Y018872D02*
X014249Y018872D01*
X014231Y018910D02*
X014521Y018910D01*
X014507Y018949D02*
X014209Y018949D01*
X014171Y018987D02*
X014493Y018987D01*
X014471Y019026D02*
X014132Y019026D01*
X014096Y019064D02*
X014444Y019064D01*
X014417Y019103D02*
X014055Y019103D01*
X013991Y019141D02*
X014390Y019141D01*
X014363Y019180D02*
X013898Y019180D01*
X013816Y019218D02*
X014331Y019218D01*
X012230Y021875D02*
X011986Y021875D01*
X012064Y021914D02*
X012210Y021914D01*
X012189Y021952D02*
X012099Y021952D01*
X012133Y021991D02*
X012169Y021991D01*
X012148Y022029D02*
X012146Y022029D01*
X009154Y025379D02*
X008472Y025379D01*
X008445Y025417D02*
X009074Y025417D01*
X008994Y025456D02*
X008408Y025456D01*
X008378Y025494D02*
X008928Y025494D01*
X008937Y025483D02*
X008937Y025483D01*
X008897Y025533D02*
X008347Y025533D01*
X008327Y025558D02*
X008327Y025558D01*
X008299Y025571D02*
X008867Y025571D01*
X008836Y025610D02*
X008219Y025610D01*
X008139Y025648D02*
X008805Y025648D01*
X008775Y025687D02*
X008059Y025687D01*
X007987Y025841D02*
X008722Y025841D01*
X008711Y025879D02*
X008041Y025879D01*
X008096Y025918D02*
X008704Y025918D01*
X008696Y025956D02*
X008151Y025956D01*
X008206Y025995D02*
X008687Y025995D01*
X008684Y026009D02*
X008684Y026009D01*
X008689Y026033D02*
X008261Y026033D01*
X008315Y026072D02*
X008698Y026072D01*
X008706Y026110D02*
X008370Y026110D01*
X008425Y026149D02*
X008706Y026149D01*
X008722Y026187D02*
X008480Y026187D01*
X008535Y026226D02*
X008733Y026226D01*
X008742Y026264D02*
X008589Y026264D01*
X008644Y026303D02*
X008751Y026303D01*
X008750Y026301D02*
X008750Y026301D01*
X008782Y026341D02*
X008713Y026341D01*
X008783Y026380D02*
X008802Y026380D01*
X008731Y025802D02*
X007932Y025802D01*
X007877Y025764D02*
X008740Y025764D01*
X008748Y025725D02*
X007822Y025725D01*
X007296Y025302D02*
X007275Y025302D01*
X007287Y025263D02*
X007231Y025263D01*
X007187Y025225D02*
X007279Y025225D01*
X007267Y025186D02*
X007143Y025186D01*
X007099Y025148D02*
X007256Y025148D01*
X007252Y025109D02*
X007055Y025109D01*
X007011Y025071D02*
X007243Y025071D01*
X007235Y025032D02*
X007235Y025032D01*
X007252Y024955D02*
X006879Y024955D01*
X006835Y024917D02*
X007256Y024917D01*
X007265Y024878D02*
X006791Y024878D01*
X006747Y024840D02*
X007278Y024840D01*
X007287Y024801D02*
X006703Y024801D01*
X006659Y024763D02*
X007296Y024763D01*
X007314Y024724D02*
X006615Y024724D01*
X006571Y024686D02*
X007345Y024686D01*
X007368Y024647D02*
X006527Y024647D01*
X006483Y024609D02*
X007406Y024609D01*
X007437Y024570D02*
X006441Y024570D01*
X006405Y024532D02*
X007467Y024532D01*
X007488Y024506D02*
X007488Y024506D01*
X007514Y024493D02*
X006370Y024493D01*
X006334Y024455D02*
X007591Y024455D01*
X007674Y024416D02*
X006299Y024416D01*
X006263Y024378D02*
X007754Y024378D01*
X007847Y024224D02*
X006121Y024224D01*
X006157Y024262D02*
X007941Y024262D01*
X007774Y024185D02*
X006085Y024185D01*
X006050Y024147D02*
X007701Y024147D01*
X007628Y024108D02*
X006014Y024108D01*
X005979Y024070D02*
X007555Y024070D01*
X007482Y024031D02*
X005943Y024031D01*
X005908Y023993D02*
X007418Y023993D01*
X007428Y024002D02*
X007428Y024002D01*
X007378Y023954D02*
X005872Y023954D01*
X005837Y023916D02*
X007339Y023916D01*
X007299Y023877D02*
X005801Y023877D01*
X005766Y023839D02*
X007259Y023839D01*
X007268Y023847D02*
X007268Y023847D01*
X007219Y023800D02*
X005730Y023800D01*
X005695Y023762D02*
X007180Y023762D01*
X007140Y023723D02*
X005659Y023723D01*
X005623Y023685D02*
X007100Y023685D01*
X007060Y023646D02*
X005588Y023646D01*
X005552Y023608D02*
X007021Y023608D01*
X006981Y023569D02*
X005517Y023569D01*
X005485Y023531D02*
X006941Y023531D01*
X006902Y023492D02*
X005456Y023492D01*
X005428Y023454D02*
X006862Y023454D01*
X006822Y023415D02*
X005399Y023415D01*
X005370Y023377D02*
X006782Y023377D01*
X006753Y023348D02*
X006753Y023348D01*
X006745Y023338D02*
X005342Y023338D01*
X005313Y023300D02*
X006713Y023300D01*
X006681Y023261D02*
X005285Y023261D01*
X005256Y023223D02*
X006649Y023223D01*
X006618Y023184D02*
X005227Y023184D01*
X005199Y023146D02*
X006586Y023146D01*
X006554Y023107D02*
X005170Y023107D01*
X005142Y023069D02*
X006522Y023069D01*
X006490Y023030D02*
X005113Y023030D01*
X005084Y022992D02*
X006459Y022992D01*
X006427Y022953D02*
X005056Y022953D01*
X005027Y022915D02*
X006395Y022915D01*
X006363Y022876D02*
X004999Y022876D01*
X004970Y022838D02*
X006332Y022838D01*
X006300Y022799D02*
X004941Y022799D01*
X004913Y022761D02*
X006268Y022761D01*
X006236Y022722D02*
X004884Y022722D01*
X004856Y022684D02*
X006204Y022684D01*
X006173Y022645D02*
X004827Y022645D01*
X004798Y022607D02*
X006141Y022607D01*
X006109Y022568D02*
X004770Y022568D01*
X004741Y022530D02*
X006077Y022530D01*
X006045Y022491D02*
X004713Y022491D01*
X004684Y022453D02*
X006014Y022453D01*
X005982Y022414D02*
X004657Y022414D01*
X004635Y022376D02*
X005950Y022376D01*
X005918Y022337D02*
X004612Y022337D01*
X004589Y022299D02*
X005890Y022299D01*
X005864Y022260D02*
X004567Y022260D01*
X004544Y022222D02*
X005839Y022222D01*
X005814Y022183D02*
X004521Y022183D01*
X004499Y022145D02*
X005789Y022145D01*
X005764Y022106D02*
X004476Y022106D01*
X004453Y022068D02*
X004596Y022068D01*
X004510Y022029D02*
X004431Y022029D01*
X004418Y021991D02*
X004408Y021991D01*
X004946Y022068D02*
X005739Y022068D01*
X005713Y022029D02*
X005028Y022029D01*
X005121Y021991D02*
X005688Y021991D01*
X005663Y021952D02*
X005186Y021952D01*
X005190Y021950D02*
X005190Y021950D01*
X005219Y021914D02*
X005638Y021914D01*
X005613Y021875D02*
X005250Y021875D01*
X005286Y021837D02*
X005587Y021837D01*
X005562Y021798D02*
X005324Y021798D01*
X005342Y021760D02*
X005537Y021760D01*
X005512Y021721D02*
X005373Y021721D01*
X005377Y021716D02*
X005377Y021716D01*
X005385Y021683D02*
X005487Y021683D01*
X005461Y021644D02*
X005393Y021644D01*
X005403Y021606D02*
X005436Y021606D01*
X004947Y020759D02*
X003745Y020759D01*
X003762Y020797D02*
X004561Y020797D01*
X004481Y020836D02*
X003780Y020836D01*
X003797Y020874D02*
X004401Y020874D01*
X004340Y020913D02*
X003814Y020913D01*
X003832Y020951D02*
X004309Y020951D01*
X004278Y020990D02*
X003849Y020990D01*
X003867Y021028D02*
X004247Y021028D01*
X004213Y021067D02*
X003884Y021067D01*
X003902Y021105D02*
X004186Y021105D01*
X004162Y021144D02*
X003919Y021144D01*
X003937Y021182D02*
X004153Y021182D01*
X004145Y021221D02*
X003954Y021221D01*
X003977Y021259D02*
X004133Y021259D01*
X004117Y021298D02*
X003999Y021298D01*
X004022Y021336D02*
X004116Y021336D01*
X004109Y021375D02*
X004045Y021375D01*
X004068Y021413D02*
X004101Y021413D01*
X004104Y021452D02*
X004090Y021452D01*
X004113Y021490D02*
X004113Y021490D01*
X003727Y020720D02*
X004928Y020720D01*
X004908Y020682D02*
X003710Y020682D01*
X003692Y020643D02*
X004889Y020643D01*
X004869Y020605D02*
X003675Y020605D01*
X003657Y020566D02*
X004850Y020566D01*
X004830Y020528D02*
X003640Y020528D01*
X003622Y020489D02*
X004811Y020489D01*
X004791Y020450D02*
X003605Y020450D01*
X003587Y020412D02*
X004772Y020412D01*
X004752Y020373D02*
X003570Y020373D01*
X003552Y020335D02*
X004733Y020335D01*
X004714Y020296D02*
X003535Y020296D01*
X003518Y020258D02*
X004694Y020258D01*
X004675Y020219D02*
X003500Y020219D01*
X003483Y020181D02*
X004655Y020181D01*
X004636Y020142D02*
X003465Y020142D01*
X003448Y020104D02*
X004616Y020104D01*
X004597Y020065D02*
X003430Y020065D01*
X003413Y020027D02*
X004577Y020027D01*
X004565Y020003D02*
X004565Y020003D01*
X004560Y019988D02*
X003395Y019988D01*
X003378Y019950D02*
X004545Y019950D01*
X004531Y019911D02*
X003365Y019911D01*
X003352Y019873D02*
X004516Y019873D01*
X004502Y019834D02*
X003339Y019834D01*
X003326Y019796D02*
X004488Y019796D01*
X004473Y019757D02*
X003314Y019757D01*
X003301Y019719D02*
X004459Y019719D01*
X004445Y019680D02*
X003288Y019680D01*
X003276Y019642D02*
X004430Y019642D01*
X004416Y019603D02*
X003263Y019603D01*
X003250Y019565D02*
X004401Y019565D01*
X004387Y019526D02*
X003237Y019526D01*
X003225Y019488D02*
X004373Y019488D01*
X004358Y019449D02*
X003212Y019449D01*
X003199Y019411D02*
X004344Y019411D01*
X004330Y019372D02*
X003186Y019372D01*
X003174Y019334D02*
X004315Y019334D01*
X004301Y019295D02*
X003161Y019295D01*
X003148Y019257D02*
X004286Y019257D01*
X004272Y019218D02*
X003135Y019218D01*
X003123Y019180D02*
X004258Y019180D01*
X004243Y019141D02*
X003110Y019141D01*
X003097Y019103D02*
X004229Y019103D01*
X004215Y019064D02*
X003084Y019064D01*
X003072Y019026D02*
X004200Y019026D01*
X004186Y018987D02*
X003059Y018987D01*
X003046Y018949D02*
X004171Y018949D01*
X004157Y018910D02*
X003034Y018910D01*
X003021Y018872D02*
X004143Y018872D01*
X004128Y018833D02*
X003008Y018833D01*
X002995Y018795D02*
X004114Y018795D01*
X004099Y018756D02*
X002983Y018756D01*
X002970Y018718D02*
X004089Y018718D01*
X004079Y018679D02*
X002957Y018679D01*
X002944Y018641D02*
X004070Y018641D01*
X004060Y018602D02*
X002933Y018602D01*
X002925Y018564D02*
X004050Y018564D01*
X004040Y018525D02*
X002917Y018525D01*
X002909Y018487D02*
X004031Y018487D01*
X004021Y018448D02*
X002900Y018448D01*
X002892Y018410D02*
X004011Y018410D01*
X004002Y018371D02*
X002884Y018371D01*
X002875Y018333D02*
X003992Y018333D01*
X003982Y018294D02*
X002867Y018294D01*
X002859Y018256D02*
X003973Y018256D01*
X003963Y018217D02*
X002850Y018217D01*
X002842Y018179D02*
X003953Y018179D01*
X003944Y018140D02*
X002834Y018140D01*
X002825Y018102D02*
X003934Y018102D01*
X003924Y018063D02*
X002817Y018063D01*
X002809Y018025D02*
X003915Y018025D01*
X003905Y017986D02*
X002800Y017986D01*
X002792Y017948D02*
X003895Y017948D01*
X003885Y017909D02*
X002784Y017909D01*
X002775Y017871D02*
X003876Y017871D01*
X003868Y017838D02*
X003868Y017838D01*
X003868Y017832D02*
X002767Y017832D01*
X002759Y017794D02*
X003869Y017794D01*
X003871Y017755D02*
X002750Y017755D01*
X002742Y017717D02*
X003872Y017717D01*
X003874Y017678D02*
X002734Y017678D01*
X002725Y017640D02*
X003875Y017640D01*
X003876Y017601D02*
X002717Y017601D01*
X002709Y017563D02*
X003878Y017563D01*
X003879Y017524D02*
X003437Y017524D01*
X003517Y017486D02*
X003881Y017486D01*
X003882Y017447D02*
X003596Y017447D01*
X003634Y017429D02*
X003634Y017429D01*
X003650Y017409D02*
X003884Y017409D01*
X003885Y017370D02*
X003681Y017370D01*
X003712Y017332D02*
X003887Y017332D01*
X003888Y017297D02*
X003888Y017297D01*
X003889Y017293D02*
X003749Y017293D01*
X003779Y017255D02*
X003902Y017255D01*
X003915Y017216D02*
X003804Y017216D01*
X003825Y017178D02*
X003928Y017178D01*
X003940Y017139D02*
X003833Y017139D01*
X003843Y017101D02*
X003953Y017101D01*
X003966Y017062D02*
X003859Y017062D01*
X003872Y017024D02*
X003979Y017024D01*
X003992Y016985D02*
X003872Y016985D01*
X003877Y016947D02*
X004005Y016947D01*
X004017Y016908D02*
X003886Y016908D01*
X003887Y016903D02*
X003887Y016903D01*
X003880Y016870D02*
X004030Y016870D01*
X004043Y016831D02*
X003872Y016831D01*
X003872Y016793D02*
X004056Y016793D01*
X004079Y016754D02*
X003866Y016754D01*
X003850Y016716D02*
X004106Y016716D01*
X004132Y016677D02*
X003836Y016677D01*
X003827Y016639D02*
X004159Y016639D01*
X004186Y016600D02*
X003812Y016600D01*
X003821Y016612D02*
X003821Y016612D01*
X003786Y016562D02*
X004212Y016562D01*
X004239Y016523D02*
X003767Y016523D01*
X003729Y016485D02*
X004266Y016485D01*
X004293Y016446D02*
X003690Y016446D01*
X003658Y016408D02*
X004319Y016408D01*
X004346Y016369D02*
X003617Y016369D01*
X003634Y016378D02*
X003634Y016378D01*
X003634Y016378D01*
X003554Y016331D02*
X004376Y016331D01*
X004368Y016337D02*
X004368Y016337D01*
X004424Y016292D02*
X003461Y016292D01*
X003377Y016254D02*
X004471Y016254D01*
X004519Y016215D02*
X002531Y016215D01*
X002526Y016177D02*
X004566Y016177D01*
X004614Y016138D02*
X002522Y016138D01*
X002518Y016100D02*
X004662Y016100D01*
X004709Y016061D02*
X002514Y016061D01*
X002510Y016023D02*
X004757Y016023D01*
X004818Y015984D02*
X002506Y015984D01*
X002502Y015946D02*
X004910Y015946D01*
X005003Y015907D02*
X002498Y015907D01*
X002493Y015869D02*
X004974Y015869D01*
X004968Y015830D02*
X002492Y015830D01*
X002492Y015792D02*
X002893Y015792D01*
X002807Y015753D02*
X002492Y015753D01*
X002492Y015715D02*
X002714Y015715D01*
X002673Y015686D02*
X002673Y015686D01*
X002673Y015686D01*
X002665Y015676D02*
X002492Y015676D01*
X002492Y015638D02*
X002635Y015638D01*
X002597Y015599D02*
X002492Y015599D01*
X002492Y015561D02*
X002558Y015561D01*
X002524Y015522D02*
X002492Y015522D01*
X002492Y015484D02*
X002508Y015484D01*
X002492Y014829D02*
X002511Y014829D01*
X002527Y014791D02*
X002492Y014791D01*
X002492Y014752D02*
X002565Y014752D01*
X002603Y014714D02*
X002492Y014714D01*
X002492Y014675D02*
X002640Y014675D01*
X002671Y014637D02*
X002492Y014637D01*
X002492Y014598D02*
X002730Y014598D01*
X002823Y014560D02*
X002492Y014560D01*
X002492Y014521D02*
X002907Y014521D01*
X003278Y014521D02*
X005258Y014521D01*
X005289Y014534D02*
X005289Y014534D01*
X005166Y014483D02*
X002492Y014483D01*
X002494Y014444D02*
X005074Y014444D01*
X004982Y014406D02*
X002498Y014406D01*
X002502Y014367D02*
X004890Y014367D01*
X004798Y014329D02*
X002507Y014329D01*
X002511Y014290D02*
X004746Y014290D01*
X004789Y014325D02*
X004789Y014325D01*
X004698Y014252D02*
X002515Y014252D01*
X002519Y014213D02*
X004651Y014213D01*
X004603Y014175D02*
X002523Y014175D01*
X002527Y014136D02*
X004556Y014136D01*
X004508Y014098D02*
X002531Y014098D01*
X002535Y014059D02*
X003038Y014059D01*
X003079Y014072D02*
X003079Y014072D01*
X002955Y014021D02*
X002539Y014021D01*
X002544Y013982D02*
X002862Y013982D01*
X002798Y013944D02*
X002548Y013944D01*
X002552Y013905D02*
X002765Y013905D01*
X002795Y013942D02*
X002795Y013942D01*
X002795Y013942D01*
X002733Y013867D02*
X002556Y013867D01*
X002560Y013828D02*
X002695Y013828D01*
X002656Y013790D02*
X002564Y013790D01*
X002568Y013751D02*
X002640Y013751D01*
X002612Y013713D02*
X002572Y013713D01*
X002608Y013708D02*
X002608Y013708D01*
X002601Y013674D02*
X002576Y013674D01*
X002581Y013636D02*
X002592Y013636D01*
X002643Y013058D02*
X002652Y013058D01*
X002652Y013020D02*
X002685Y013020D01*
X002660Y012981D02*
X002722Y012981D01*
X002753Y012943D02*
X002668Y012943D01*
X002693Y012827D02*
X002926Y012827D01*
X003006Y012789D02*
X002702Y012789D01*
X002727Y012673D02*
X003262Y012673D01*
X003107Y012635D02*
X002735Y012635D01*
X002743Y012596D02*
X002953Y012596D01*
X002798Y012558D02*
X002752Y012558D01*
X002760Y012519D02*
X002765Y012519D01*
X003867Y013328D02*
X003988Y013328D01*
X004001Y013366D02*
X003876Y013366D01*
X003885Y013405D02*
X004014Y013405D01*
X004027Y013443D02*
X003881Y013443D01*
X003872Y013482D02*
X004040Y013482D01*
X004053Y013520D02*
X003863Y013520D01*
X003858Y013559D02*
X004073Y013559D01*
X004059Y013539D02*
X004059Y013539D01*
X004099Y013597D02*
X003846Y013597D01*
X003837Y013636D02*
X004126Y013636D01*
X004153Y013674D02*
X003828Y013674D01*
X003821Y013708D02*
X003821Y013708D01*
X003817Y013713D02*
X004179Y013713D01*
X004206Y013751D02*
X003786Y013751D01*
X003762Y013790D02*
X004233Y013790D01*
X004260Y013828D02*
X003725Y013828D01*
X003694Y013867D02*
X004286Y013867D01*
X004313Y013905D02*
X003663Y013905D01*
X003634Y013942D02*
X003634Y013942D01*
X003631Y013944D02*
X004340Y013944D01*
X004366Y013982D02*
X003557Y013982D01*
X003471Y014021D02*
X004413Y014021D01*
X004460Y014059D02*
X003391Y014059D01*
X003339Y014072D02*
X003339Y014072D01*
X003358Y014560D02*
X005516Y014560D01*
X005875Y014598D02*
X003438Y014598D01*
X003514Y014637D02*
X006290Y014637D01*
X006778Y014675D02*
X003545Y014675D01*
X003576Y014714D02*
X007437Y014714D01*
X007710Y015176D02*
X006058Y015176D01*
X006070Y015214D02*
X007167Y015214D01*
X006623Y015253D02*
X006074Y015253D01*
X005681Y015176D02*
X003762Y015176D01*
X003760Y015137D02*
X011015Y015137D01*
X011010Y015160D02*
X011010Y015160D01*
X011014Y015176D02*
X007795Y015176D01*
X007889Y015214D02*
X011023Y015214D01*
X011023Y015253D02*
X007933Y015253D01*
X007962Y015291D02*
X011023Y015291D01*
X011036Y015330D02*
X007981Y015330D01*
X007995Y015368D02*
X011052Y015368D01*
X011067Y015407D02*
X007998Y015407D01*
X008001Y015445D02*
X011075Y015445D01*
X011100Y015484D02*
X007992Y015484D01*
X007979Y015522D02*
X011116Y015522D01*
X011145Y015561D02*
X007960Y015561D01*
X009997Y015599D02*
X011184Y015599D01*
X011222Y015638D02*
X010501Y015638D01*
X010449Y015620D02*
X010449Y015620D01*
X010614Y015676D02*
X011256Y015676D01*
X011264Y015686D02*
X011264Y015686D01*
X011299Y015715D02*
X010727Y015715D01*
X010840Y015753D02*
X011382Y015753D01*
X011475Y015792D02*
X010943Y015792D01*
X010934Y015785D02*
X010934Y015785D01*
X011109Y015907D02*
X012378Y015907D01*
X012234Y015946D02*
X011167Y015946D01*
X011231Y015984D02*
X012147Y015984D01*
X012106Y016002D02*
X012106Y016002D01*
X012059Y016023D02*
X011324Y016023D01*
X011429Y016061D02*
X011953Y016061D01*
X011718Y016100D02*
X011702Y016100D01*
X011023Y015099D02*
X003751Y015099D01*
X003743Y015060D02*
X011023Y015060D01*
X011030Y015022D02*
X003734Y015022D01*
X003725Y014983D02*
X011046Y014983D01*
X011059Y014945D02*
X003716Y014945D01*
X003668Y014829D02*
X011108Y014829D01*
X011130Y014791D02*
X003637Y014791D01*
X003606Y014752D02*
X011169Y014752D01*
X011200Y014714D02*
X010179Y014714D01*
X010238Y014711D02*
X010238Y014711D01*
X010523Y014675D02*
X011230Y014675D01*
X011261Y014637D02*
X010636Y014637D01*
X010748Y014598D02*
X011337Y014598D01*
X011264Y014634D02*
X011264Y014634D01*
X011417Y014560D02*
X010861Y014560D01*
X010953Y014521D02*
X011497Y014521D01*
X011447Y014252D02*
X011918Y014252D01*
X012041Y014290D02*
X011342Y014290D01*
X011241Y014329D02*
X012132Y014329D01*
X012219Y014367D02*
X011178Y014367D01*
X011119Y014406D02*
X012327Y014406D01*
X012297Y014402D02*
X012297Y014402D01*
X013104Y015894D02*
X013104Y015894D01*
X015851Y015984D02*
X017792Y015984D01*
X017862Y015946D02*
X015943Y015946D01*
X016036Y015907D02*
X017933Y015907D01*
X017987Y015878D02*
X017987Y015878D01*
X018050Y015869D02*
X016113Y015869D01*
X016151Y015830D02*
X020239Y015830D01*
X020185Y015869D02*
X018726Y015869D01*
X018660Y015852D02*
X018660Y015852D01*
X018878Y015907D02*
X020130Y015907D01*
X020072Y015946D02*
X019016Y015946D01*
X018999Y015938D02*
X018999Y015938D01*
X019098Y015984D02*
X020010Y015984D01*
X019914Y016023D02*
X019185Y016023D01*
X019157Y016012D02*
X019157Y016012D01*
X019296Y016061D02*
X019810Y016061D01*
X019707Y015816D02*
X019407Y015816D01*
X019252Y015741D01*
X019178Y015710D01*
X019168Y015701D01*
X019138Y015686D01*
X019138Y015686D01*
X019075Y015608D01*
X018994Y015527D01*
X018976Y015484D01*
X016406Y015484D01*
X016422Y015445D02*
X018949Y015445D01*
X018951Y015452D02*
X018936Y015387D01*
X018894Y015287D01*
X018894Y015205D01*
X018884Y015160D01*
X018894Y015115D01*
X018894Y015027D01*
X018939Y014918D01*
X018951Y014868D01*
X016419Y014868D01*
X016435Y014906D02*
X018942Y014906D01*
X018951Y014868D02*
X018951Y014868D01*
X018970Y014844D01*
X018994Y014787D01*
X019102Y014679D01*
X019138Y014634D01*
X019155Y014626D01*
X019178Y014603D01*
X019352Y014531D01*
X019407Y014504D01*
X019416Y014504D01*
X019418Y014504D01*
X019677Y014504D01*
X019679Y014504D01*
X019707Y014504D01*
X019878Y014587D01*
X019917Y014603D01*
X019923Y014608D01*
X019976Y014634D01*
X019976Y014634D01*
X020086Y014772D01*
X020101Y014787D01*
X020104Y014795D01*
X020163Y014868D01*
X023271Y014868D01*
X023273Y014906D02*
X020172Y014906D01*
X020163Y014868D02*
X020198Y015020D01*
X020201Y015027D01*
X020201Y015032D01*
X020230Y015160D01*
X020163Y015452D01*
X019976Y015686D01*
X019707Y015816D01*
X019756Y015792D02*
X020321Y015792D01*
X020407Y015753D02*
X019836Y015753D01*
X019916Y015715D02*
X020492Y015715D01*
X020563Y015683D02*
X020563Y015683D01*
X020590Y015676D02*
X019984Y015676D01*
X019976Y015686D02*
X019976Y015686D01*
X020015Y015638D02*
X020752Y015638D01*
X020903Y015602D02*
X020903Y015602D01*
X020974Y015599D02*
X020045Y015599D01*
X020076Y015561D02*
X027628Y015561D01*
X027598Y015522D02*
X020107Y015522D01*
X020138Y015484D02*
X027567Y015484D01*
X027541Y015452D02*
X027541Y015452D01*
X027540Y015445D02*
X020165Y015445D01*
X020163Y015452D02*
X020163Y015452D01*
X020173Y015407D02*
X027531Y015407D01*
X027522Y015368D02*
X020182Y015368D01*
X020191Y015330D02*
X027511Y015330D01*
X027495Y015291D02*
X020200Y015291D01*
X020209Y015253D02*
X027487Y015253D01*
X027487Y015214D02*
X020217Y015214D01*
X020226Y015176D02*
X027478Y015176D01*
X027475Y015160D02*
X027475Y015160D01*
X027480Y015137D02*
X025567Y015137D01*
X025916Y015099D02*
X027487Y015099D01*
X027487Y015060D02*
X026264Y015060D01*
X026316Y015022D02*
X027487Y015022D01*
X027498Y014983D02*
X026326Y014983D01*
X026322Y014945D02*
X027514Y014945D01*
X027530Y014906D02*
X026318Y014906D01*
X026314Y014868D02*
X027541Y014868D01*
X027541Y014868D01*
X027562Y014829D02*
X026309Y014829D01*
X026305Y014791D02*
X027578Y014791D01*
X027604Y014752D02*
X026301Y014752D01*
X026297Y014714D02*
X027642Y014714D01*
X027681Y014675D02*
X026292Y014675D01*
X026288Y014637D02*
X027719Y014637D01*
X027758Y014598D02*
X026284Y014598D01*
X026280Y014560D02*
X027834Y014560D01*
X027927Y014521D02*
X026275Y014521D01*
X026271Y014483D02*
X028730Y014483D01*
X028732Y014521D02*
X028352Y014521D01*
X028445Y014560D02*
X028734Y014560D01*
X028736Y014598D02*
X028521Y014598D01*
X028567Y014634D02*
X028567Y014634D01*
X028567Y014634D01*
X028569Y014637D02*
X028738Y014637D01*
X028740Y014675D02*
X028600Y014675D01*
X028637Y014714D02*
X028742Y014714D01*
X028744Y014752D02*
X028675Y014752D01*
X028702Y014791D02*
X028746Y014791D01*
X028749Y014829D02*
X028723Y014829D01*
X028728Y014444D02*
X026267Y014444D01*
X026246Y014406D02*
X028726Y014406D01*
X028724Y014367D02*
X026338Y014367D01*
X026430Y014329D02*
X028722Y014329D01*
X028720Y014290D02*
X026487Y014290D01*
X026535Y014252D02*
X028718Y014252D01*
X028716Y014213D02*
X026583Y014213D01*
X026630Y014175D02*
X028714Y014175D01*
X028712Y014136D02*
X026678Y014136D01*
X026725Y014098D02*
X028710Y014098D01*
X028707Y014059D02*
X028202Y014059D01*
X028169Y014072D02*
X028169Y014072D01*
X028294Y014021D02*
X028705Y014021D01*
X028703Y013982D02*
X028387Y013982D01*
X028442Y013944D02*
X028701Y013944D01*
X028699Y013905D02*
X028477Y013905D01*
X028445Y013942D02*
X028445Y013942D01*
X028515Y013867D02*
X028697Y013867D01*
X028695Y013828D02*
X028554Y013828D01*
X028592Y013790D02*
X028693Y013790D01*
X028690Y013751D02*
X028609Y013751D01*
X028628Y013713D02*
X028684Y013713D01*
X028677Y013674D02*
X028641Y013674D01*
X028657Y013636D02*
X028671Y013636D01*
X028572Y013020D02*
X028564Y013020D01*
X028566Y012981D02*
X028525Y012981D01*
X028560Y012943D02*
X028487Y012943D01*
X028456Y012904D02*
X028553Y012904D01*
X028547Y012866D02*
X028410Y012866D01*
X028445Y012891D02*
X028445Y012891D01*
X028445Y012891D01*
X028541Y012827D02*
X028317Y012827D01*
X028234Y012789D02*
X028535Y012789D01*
X028529Y012750D02*
X027362Y012750D01*
X027363Y012712D02*
X028522Y012712D01*
X028516Y012673D02*
X027364Y012673D01*
X027366Y012635D02*
X028510Y012635D01*
X028504Y012596D02*
X027367Y012596D01*
X027369Y012558D02*
X028498Y012558D01*
X028491Y012519D02*
X027370Y012519D01*
X027372Y012481D02*
X028485Y012481D01*
X028479Y012442D02*
X027363Y012442D01*
X027353Y012404D02*
X028473Y012404D01*
X028465Y012365D02*
X027343Y012365D01*
X027334Y012327D02*
X028454Y012327D01*
X028444Y012288D02*
X027324Y012288D01*
X027314Y012250D02*
X028433Y012250D01*
X028423Y012211D02*
X027304Y012211D01*
X027295Y012173D02*
X028412Y012173D01*
X028402Y012134D02*
X027285Y012134D01*
X027275Y012096D02*
X028391Y012096D01*
X028381Y012057D02*
X027266Y012057D01*
X027256Y012019D02*
X028370Y012019D01*
X028360Y011980D02*
X027246Y011980D01*
X027237Y011942D02*
X028349Y011942D01*
X028339Y011903D02*
X027227Y011903D01*
X027217Y011865D02*
X028328Y011865D01*
X028318Y011826D02*
X027207Y011826D01*
X027198Y011788D02*
X028307Y011788D01*
X028297Y011749D02*
X027188Y011749D01*
X027178Y011711D02*
X028286Y011711D01*
X028276Y011672D02*
X027169Y011672D01*
X027159Y011634D02*
X028265Y011634D01*
X028255Y011595D02*
X027149Y011595D01*
X027142Y011568D02*
X027142Y011568D01*
X027138Y011557D02*
X028244Y011557D01*
X028234Y011518D02*
X027124Y011518D01*
X027109Y011480D02*
X028223Y011480D01*
X028213Y011441D02*
X027095Y011441D01*
X027081Y011403D02*
X028202Y011403D01*
X028192Y011364D02*
X027066Y011364D01*
X027052Y011326D02*
X028181Y011326D01*
X028171Y011287D02*
X027037Y011287D01*
X027023Y011249D02*
X028160Y011249D01*
X028150Y011210D02*
X027009Y011210D01*
X026994Y011172D02*
X028139Y011172D01*
X028129Y011133D02*
X026980Y011133D01*
X026966Y011095D02*
X028118Y011095D01*
X028108Y011056D02*
X026951Y011056D01*
X026937Y011018D02*
X028096Y011018D01*
X028081Y010979D02*
X026922Y010979D01*
X026908Y010941D02*
X028066Y010941D01*
X028051Y010902D02*
X026894Y010902D01*
X026879Y010864D02*
X028036Y010864D01*
X028020Y010825D02*
X026865Y010825D01*
X026850Y010787D02*
X028005Y010787D01*
X027990Y010748D02*
X026836Y010748D01*
X026822Y010710D02*
X027975Y010710D01*
X027960Y010671D02*
X026807Y010671D01*
X026793Y010633D02*
X027945Y010633D01*
X027930Y010594D02*
X026779Y010594D01*
X026764Y010556D02*
X027915Y010556D01*
X027900Y010517D02*
X026750Y010517D01*
X026735Y010479D02*
X027885Y010479D01*
X027870Y010440D02*
X026721Y010440D01*
X026707Y010402D02*
X027855Y010402D01*
X027840Y010363D02*
X026692Y010363D01*
X026678Y010325D02*
X027825Y010325D01*
X027810Y010286D02*
X026659Y010286D01*
X026675Y010317D02*
X026675Y010317D01*
X026640Y010248D02*
X027795Y010248D01*
X027780Y010209D02*
X026621Y010209D01*
X026601Y010171D02*
X027765Y010171D01*
X027750Y010132D02*
X026582Y010132D01*
X026562Y010094D02*
X027734Y010094D01*
X027719Y010055D02*
X026543Y010055D01*
X026523Y010017D02*
X027704Y010017D01*
X027689Y009978D02*
X026504Y009978D01*
X026484Y009940D02*
X027674Y009940D01*
X027659Y009901D02*
X026465Y009901D01*
X026445Y009863D02*
X027644Y009863D01*
X027629Y009824D02*
X026426Y009824D01*
X026406Y009786D02*
X027614Y009786D01*
X027599Y009747D02*
X026387Y009747D01*
X026367Y009709D02*
X027582Y009709D01*
X027561Y009670D02*
X026348Y009670D01*
X026328Y009632D02*
X027541Y009632D01*
X027521Y009593D02*
X026309Y009593D01*
X026289Y009555D02*
X027501Y009555D01*
X027481Y009516D02*
X026693Y009516D01*
X026779Y009478D02*
X027461Y009478D01*
X027441Y009439D02*
X026853Y009439D01*
X026906Y009401D02*
X027421Y009401D01*
X027401Y009362D02*
X026936Y009362D01*
X026968Y009324D02*
X027381Y009324D01*
X027361Y009285D02*
X027007Y009285D01*
X027032Y009247D02*
X027341Y009247D01*
X027321Y009208D02*
X027059Y009208D01*
X027079Y009170D02*
X027301Y009170D01*
X027281Y009131D02*
X027088Y009131D01*
X027097Y009093D02*
X027261Y009093D01*
X027241Y009054D02*
X027112Y009054D01*
X027122Y009016D02*
X027221Y009016D01*
X027201Y008977D02*
X027123Y008977D01*
X027132Y008939D02*
X027181Y008939D01*
X027161Y008900D02*
X027141Y008900D01*
X027134Y008862D02*
X027141Y008862D01*
X026838Y008323D02*
X026790Y008323D01*
X026812Y008284D02*
X026710Y008284D01*
X026787Y008246D02*
X026630Y008246D01*
X026736Y008169D02*
X025447Y008169D01*
X025472Y008207D02*
X026761Y008207D01*
X026710Y008130D02*
X025422Y008130D01*
X025397Y008092D02*
X026685Y008092D01*
X026659Y008053D02*
X025371Y008053D01*
X025346Y008015D02*
X026634Y008015D01*
X026608Y007976D02*
X025316Y007976D01*
X025341Y008007D02*
X025341Y008007D01*
X025284Y007938D02*
X026582Y007938D01*
X026557Y007899D02*
X025252Y007899D01*
X025221Y007861D02*
X026531Y007861D01*
X026506Y007822D02*
X025189Y007822D01*
X025157Y007784D02*
X026480Y007784D01*
X026455Y007745D02*
X025125Y007745D01*
X025094Y007707D02*
X026429Y007707D01*
X026404Y007668D02*
X025062Y007668D01*
X025030Y007630D02*
X026378Y007630D01*
X026353Y007591D02*
X024998Y007591D01*
X024967Y007553D02*
X026327Y007553D01*
X026301Y007514D02*
X024935Y007514D01*
X024903Y007476D02*
X026276Y007476D01*
X026250Y007437D02*
X024871Y007437D01*
X024840Y007399D02*
X026225Y007399D01*
X026199Y007360D02*
X024808Y007360D01*
X024776Y007322D02*
X026174Y007322D01*
X026142Y007283D02*
X024744Y007283D01*
X024712Y007245D02*
X026110Y007245D01*
X026078Y007206D02*
X024681Y007206D01*
X024649Y007168D02*
X026046Y007168D01*
X026014Y007129D02*
X024617Y007129D01*
X024585Y007091D02*
X025983Y007091D01*
X025951Y007052D02*
X024554Y007052D01*
X024522Y007014D02*
X025919Y007014D01*
X025887Y006975D02*
X024490Y006975D01*
X024491Y006976D02*
X024491Y006976D01*
X024450Y006937D02*
X025855Y006937D01*
X025823Y006898D02*
X024411Y006898D01*
X024371Y006860D02*
X025791Y006860D01*
X025759Y006821D02*
X024331Y006821D01*
X024292Y006783D02*
X025727Y006783D01*
X025695Y006744D02*
X024252Y006744D01*
X024212Y006706D02*
X025663Y006706D01*
X025631Y006667D02*
X024173Y006667D01*
X024133Y006629D02*
X025600Y006629D01*
X025568Y006590D02*
X024093Y006590D01*
X024053Y006552D02*
X025536Y006552D01*
X025504Y006513D02*
X024014Y006513D01*
X023974Y006475D02*
X025472Y006475D01*
X025440Y006436D02*
X023934Y006436D01*
X023895Y006398D02*
X025408Y006398D01*
X025376Y006359D02*
X023855Y006359D01*
X023817Y006322D02*
X023817Y006322D01*
X023814Y006321D02*
X025344Y006321D01*
X025312Y006282D02*
X023741Y006282D01*
X023668Y006244D02*
X025280Y006244D01*
X025279Y006243D02*
X025279Y006243D01*
X025241Y006205D02*
X023596Y006205D01*
X023523Y006167D02*
X025201Y006167D01*
X025162Y006128D02*
X023450Y006128D01*
X023377Y006090D02*
X025122Y006090D01*
X025083Y006051D02*
X023251Y006051D01*
X023337Y006069D02*
X023337Y006069D01*
X023062Y006013D02*
X025043Y006013D01*
X023114Y004665D02*
X022441Y004665D01*
X022413Y004704D02*
X023034Y004704D01*
X022954Y004742D02*
X022379Y004742D01*
X022348Y004781D02*
X022898Y004781D01*
X022868Y004819D02*
X022317Y004819D01*
X022303Y004837D02*
X022303Y004837D01*
X022260Y004858D02*
X022837Y004858D01*
X022806Y004896D02*
X022180Y004896D01*
X022100Y004935D02*
X022776Y004935D01*
X025497Y008246D02*
X026308Y008246D01*
X026228Y008284D02*
X025522Y008284D01*
X025548Y008323D02*
X026148Y008323D01*
X026068Y008361D02*
X025573Y008361D01*
X025598Y008400D02*
X026026Y008400D01*
X026050Y008370D02*
X026050Y008370D01*
X025995Y008438D02*
X025623Y008438D01*
X025648Y008477D02*
X025965Y008477D01*
X025930Y008515D02*
X025673Y008515D01*
X025699Y008554D02*
X025903Y008554D01*
X025873Y008592D02*
X025724Y008592D01*
X025749Y008631D02*
X025857Y008631D01*
X025863Y008604D02*
X025863Y008604D01*
X025848Y008669D02*
X025774Y008669D01*
X025799Y008708D02*
X025839Y008708D01*
X025825Y008746D02*
X025826Y008746D01*
X026339Y009552D02*
X026339Y009552D01*
X027326Y013097D02*
X027441Y013097D01*
X027417Y013135D02*
X027313Y013135D01*
X027300Y013174D02*
X027408Y013174D01*
X027399Y013212D02*
X027287Y013212D01*
X027275Y013251D02*
X027391Y013251D01*
X027382Y013289D02*
X027262Y013289D01*
X027249Y013328D02*
X027373Y013328D01*
X027364Y013366D02*
X027236Y013366D01*
X027223Y013405D02*
X027355Y013405D01*
X027353Y013417D02*
X027353Y013417D01*
X027359Y013443D02*
X027210Y013443D01*
X027197Y013482D02*
X027368Y013482D01*
X027377Y013520D02*
X027185Y013520D01*
X027163Y013559D02*
X027385Y013559D01*
X027394Y013597D02*
X027136Y013597D01*
X027110Y013636D02*
X027403Y013636D01*
X027412Y013674D02*
X027083Y013674D01*
X027056Y013713D02*
X027423Y013713D01*
X027454Y013751D02*
X027030Y013751D01*
X027003Y013790D02*
X027484Y013790D01*
X027515Y013828D02*
X026976Y013828D01*
X026949Y013867D02*
X027546Y013867D01*
X027577Y013905D02*
X026923Y013905D01*
X026896Y013944D02*
X027609Y013944D01*
X027606Y013942D02*
X027606Y013942D01*
X027669Y013973D02*
X027669Y013973D01*
X027689Y013982D02*
X026868Y013982D01*
X026871Y013980D02*
X026871Y013980D01*
X026820Y014021D02*
X027769Y014021D01*
X027849Y014059D02*
X026773Y014059D01*
X027909Y014072D02*
X027909Y014072D01*
X028728Y015484D02*
X028749Y015484D01*
X028747Y015522D02*
X028697Y015522D01*
X028667Y015561D02*
X028745Y015561D01*
X028743Y015599D02*
X028636Y015599D01*
X028605Y015638D02*
X028741Y015638D01*
X028739Y015676D02*
X028575Y015676D01*
X028507Y015715D02*
X028737Y015715D01*
X028735Y015753D02*
X028427Y015753D01*
X028347Y015792D02*
X028732Y015792D01*
X028730Y015830D02*
X026049Y015830D01*
X025957Y015792D02*
X027948Y015792D01*
X027868Y015753D02*
X025630Y015753D01*
X025949Y015789D02*
X025949Y015789D01*
X026141Y015869D02*
X028728Y015869D01*
X028726Y015907D02*
X026233Y015907D01*
X026326Y015946D02*
X028724Y015946D01*
X028722Y015984D02*
X026418Y015984D01*
X026481Y016023D02*
X028720Y016023D01*
X028718Y016061D02*
X026528Y016061D01*
X026576Y016100D02*
X028716Y016100D01*
X028714Y016138D02*
X026624Y016138D01*
X026671Y016177D02*
X028712Y016177D01*
X028710Y016215D02*
X026719Y016215D01*
X026767Y016254D02*
X027863Y016254D01*
X027783Y016292D02*
X026814Y016292D01*
X026862Y016331D02*
X027703Y016331D01*
X027623Y016369D02*
X026893Y016369D01*
X026919Y016408D02*
X027582Y016408D01*
X027606Y016378D02*
X027606Y016378D01*
X027551Y016446D02*
X026946Y016446D01*
X026973Y016485D02*
X027520Y016485D01*
X027490Y016523D02*
X026999Y016523D01*
X027026Y016562D02*
X027459Y016562D01*
X027428Y016600D02*
X027053Y016600D01*
X027080Y016639D02*
X027413Y016639D01*
X027419Y016612D02*
X027419Y016612D01*
X027404Y016677D02*
X027106Y016677D01*
X027133Y016716D02*
X027396Y016716D01*
X027387Y016754D02*
X027160Y016754D01*
X027180Y016784D02*
X027180Y016784D01*
X027183Y016793D02*
X027376Y016793D01*
X027369Y016831D02*
X027196Y016831D01*
X027209Y016870D02*
X027360Y016870D01*
X027353Y016903D02*
X027353Y016903D01*
X027354Y016908D02*
X027222Y016908D01*
X027234Y016947D02*
X027363Y016947D01*
X027372Y016985D02*
X027247Y016985D01*
X027260Y017024D02*
X027376Y017024D01*
X027386Y017062D02*
X027273Y017062D01*
X027286Y017101D02*
X027398Y017101D01*
X027407Y017139D02*
X027299Y017139D01*
X027312Y017178D02*
X027415Y017178D01*
X027419Y017195D02*
X027419Y017195D01*
X027436Y017216D02*
X027324Y017216D01*
X027337Y017255D02*
X027466Y017255D01*
X027490Y017293D02*
X027350Y017293D01*
X027352Y017298D02*
X027352Y017298D01*
X027353Y017332D02*
X027528Y017332D01*
X027559Y017370D02*
X027354Y017370D01*
X027356Y017409D02*
X027590Y017409D01*
X027606Y017429D02*
X027606Y017429D01*
X027644Y017447D02*
X027357Y017447D01*
X027359Y017486D02*
X027715Y017486D01*
X027803Y017524D02*
X027360Y017524D01*
X027362Y017563D02*
X028530Y017563D01*
X028536Y017524D02*
X028251Y017524D01*
X028344Y017486D02*
X028542Y017486D01*
X028548Y017447D02*
X028415Y017447D01*
X028445Y017429D02*
X028445Y017429D01*
X028461Y017409D02*
X028554Y017409D01*
X028561Y017370D02*
X028492Y017370D01*
X028530Y017332D02*
X028567Y017332D01*
X028569Y017293D02*
X028573Y017293D01*
X028523Y017601D02*
X027363Y017601D01*
X027365Y017640D02*
X028517Y017640D01*
X028511Y017678D02*
X027366Y017678D01*
X027367Y017717D02*
X028505Y017717D01*
X028499Y017755D02*
X027369Y017755D01*
X027370Y017794D02*
X028492Y017794D01*
X028486Y017832D02*
X027372Y017832D01*
X027372Y017840D02*
X027372Y017840D01*
X027364Y017871D02*
X028480Y017871D01*
X028474Y017909D02*
X027355Y017909D01*
X027345Y017948D02*
X028467Y017948D01*
X028456Y017986D02*
X027335Y017986D01*
X027325Y018025D02*
X028446Y018025D01*
X028435Y018063D02*
X027316Y018063D01*
X027306Y018102D02*
X028425Y018102D01*
X028414Y018140D02*
X027296Y018140D01*
X027287Y018179D02*
X028404Y018179D01*
X028393Y018217D02*
X027277Y018217D01*
X027267Y018256D02*
X028383Y018256D01*
X028372Y018294D02*
X027258Y018294D01*
X027248Y018333D02*
X028362Y018333D01*
X028351Y018371D02*
X027238Y018371D01*
X027229Y018410D02*
X028341Y018410D01*
X028330Y018448D02*
X027219Y018448D01*
X027209Y018487D02*
X028320Y018487D01*
X028309Y018525D02*
X027199Y018525D01*
X027190Y018564D02*
X028299Y018564D01*
X028288Y018602D02*
X027180Y018602D01*
X027170Y018641D02*
X028278Y018641D01*
X028267Y018679D02*
X027161Y018679D01*
X027151Y018718D02*
X028257Y018718D01*
X028246Y018756D02*
X027141Y018756D01*
X027126Y018795D02*
X028236Y018795D01*
X028225Y018833D02*
X027112Y018833D01*
X027097Y018872D02*
X028215Y018872D01*
X028204Y018910D02*
X027083Y018910D01*
X027069Y018949D02*
X028194Y018949D01*
X028183Y018987D02*
X027054Y018987D01*
X027040Y019026D02*
X028173Y019026D01*
X028162Y019064D02*
X027025Y019064D01*
X027011Y019103D02*
X028152Y019103D01*
X028141Y019141D02*
X026997Y019141D01*
X026982Y019180D02*
X028131Y019180D01*
X028120Y019218D02*
X026968Y019218D01*
X026954Y019257D02*
X028110Y019257D01*
X028098Y019295D02*
X026939Y019295D01*
X026925Y019334D02*
X028083Y019334D01*
X028068Y019372D02*
X026910Y019372D01*
X026896Y019411D02*
X028053Y019411D01*
X028038Y019449D02*
X026882Y019449D01*
X026867Y019488D02*
X028023Y019488D01*
X028008Y019526D02*
X026853Y019526D01*
X026839Y019565D02*
X027993Y019565D01*
X027978Y019603D02*
X026824Y019603D01*
X026810Y019642D02*
X027963Y019642D01*
X027948Y019680D02*
X026795Y019680D01*
X026781Y019719D02*
X027933Y019719D01*
X027918Y019757D02*
X026767Y019757D01*
X026752Y019796D02*
X027903Y019796D01*
X027888Y019834D02*
X026738Y019834D01*
X026724Y019873D02*
X027873Y019873D01*
X027857Y019911D02*
X026709Y019911D01*
X026695Y019950D02*
X027842Y019950D01*
X027827Y019988D02*
X026680Y019988D01*
X026663Y020027D02*
X027812Y020027D01*
X027797Y020065D02*
X026643Y020065D01*
X026624Y020104D02*
X027782Y020104D01*
X027767Y020142D02*
X026604Y020142D01*
X026585Y020181D02*
X027752Y020181D01*
X027737Y020219D02*
X026565Y020219D01*
X026546Y020258D02*
X027722Y020258D01*
X027707Y020296D02*
X026526Y020296D01*
X026507Y020335D02*
X027692Y020335D01*
X027677Y020373D02*
X026487Y020373D01*
X026468Y020412D02*
X027662Y020412D01*
X027647Y020450D02*
X026449Y020450D01*
X026429Y020489D02*
X027632Y020489D01*
X027617Y020528D02*
X026410Y020528D01*
X026390Y020566D02*
X027602Y020566D01*
X027585Y020605D02*
X026371Y020605D01*
X026351Y020643D02*
X027565Y020643D01*
X027545Y020682D02*
X026332Y020682D01*
X026312Y020720D02*
X027525Y020720D01*
X027505Y020759D02*
X026293Y020759D01*
X026679Y020797D02*
X027485Y020797D01*
X027465Y020836D02*
X026759Y020836D01*
X026839Y020874D02*
X027445Y020874D01*
X027425Y020913D02*
X026900Y020913D01*
X026889Y020898D02*
X026889Y020898D01*
X026889Y020898D01*
X026931Y020951D02*
X027405Y020951D01*
X027385Y020990D02*
X026962Y020990D01*
X026992Y021028D02*
X027365Y021028D01*
X027345Y021067D02*
X027026Y021067D01*
X027054Y021105D02*
X027325Y021105D01*
X027305Y021144D02*
X027078Y021144D01*
X027075Y021132D02*
X027075Y021132D01*
X027087Y021182D02*
X027285Y021182D01*
X027265Y021221D02*
X027095Y021221D01*
X027106Y021259D02*
X027245Y021259D01*
X027225Y021298D02*
X027122Y021298D01*
X027122Y021336D02*
X027205Y021336D01*
X027185Y021375D02*
X027131Y021375D01*
X027139Y021413D02*
X027165Y021413D01*
X027145Y021452D02*
X027136Y021452D01*
X026842Y021991D02*
X026821Y021991D01*
X026817Y022029D02*
X026728Y022029D01*
X026791Y022068D02*
X026644Y022068D01*
X026740Y022145D02*
X025451Y022145D01*
X025426Y022183D02*
X026714Y022183D01*
X026689Y022222D02*
X025401Y022222D01*
X025376Y022260D02*
X026663Y022260D01*
X026638Y022299D02*
X025351Y022299D01*
X025321Y022337D02*
X026612Y022337D01*
X026587Y022376D02*
X025290Y022376D01*
X025258Y022414D02*
X026561Y022414D01*
X026536Y022453D02*
X025226Y022453D01*
X025194Y022491D02*
X026510Y022491D01*
X026485Y022530D02*
X025162Y022530D01*
X025131Y022568D02*
X026459Y022568D01*
X026434Y022607D02*
X025099Y022607D01*
X025067Y022645D02*
X026408Y022645D01*
X026382Y022684D02*
X025035Y022684D01*
X025004Y022722D02*
X026357Y022722D01*
X026331Y022761D02*
X024972Y022761D01*
X024940Y022799D02*
X026306Y022799D01*
X026280Y022838D02*
X024908Y022838D01*
X024877Y022876D02*
X026255Y022876D01*
X026229Y022915D02*
X024845Y022915D01*
X024813Y022953D02*
X026204Y022953D01*
X026178Y022992D02*
X024781Y022992D01*
X024750Y023030D02*
X026148Y023030D01*
X026116Y023069D02*
X024718Y023069D01*
X024686Y023107D02*
X026084Y023107D01*
X026052Y023146D02*
X024654Y023146D01*
X024623Y023184D02*
X026020Y023184D01*
X025988Y023223D02*
X024591Y023223D01*
X024559Y023261D02*
X025956Y023261D01*
X025924Y023300D02*
X024527Y023300D01*
X024496Y023338D02*
X025892Y023338D01*
X025860Y023377D02*
X024457Y023377D01*
X024417Y023415D02*
X025828Y023415D01*
X025797Y023454D02*
X024378Y023454D01*
X024338Y023492D02*
X025765Y023492D01*
X025733Y023531D02*
X024298Y023531D01*
X024259Y023569D02*
X025701Y023569D01*
X025669Y023608D02*
X024219Y023608D01*
X024179Y023646D02*
X025637Y023646D01*
X025605Y023685D02*
X024140Y023685D01*
X024100Y023723D02*
X025573Y023723D01*
X025541Y023762D02*
X024060Y023762D01*
X024021Y023800D02*
X025509Y023800D01*
X025477Y023839D02*
X023981Y023839D01*
X023978Y023841D02*
X023978Y023841D01*
X024012Y023808D02*
X024012Y023808D01*
X023941Y023877D02*
X025445Y023877D01*
X025413Y023916D02*
X023902Y023916D01*
X023862Y023954D02*
X025382Y023954D01*
X025350Y023993D02*
X023822Y023993D01*
X023753Y024031D02*
X025318Y024031D01*
X025286Y024070D02*
X023680Y024070D01*
X023607Y024108D02*
X025248Y024108D01*
X025208Y024147D02*
X023534Y024147D01*
X023461Y024185D02*
X025169Y024185D01*
X025129Y024224D02*
X023389Y024224D01*
X023279Y024262D02*
X025090Y024262D01*
X025050Y024301D02*
X023091Y024301D01*
X022903Y024339D02*
X025011Y024339D01*
X024971Y024378D02*
X023486Y024378D01*
X023566Y024416D02*
X024931Y024416D01*
X024892Y024455D02*
X023658Y024455D01*
X023727Y024493D02*
X024852Y024493D01*
X024813Y024532D02*
X023773Y024532D01*
X023752Y024506D02*
X023752Y024506D01*
X023752Y024506D01*
X023804Y024570D02*
X024773Y024570D01*
X024734Y024609D02*
X023842Y024609D01*
X023881Y024647D02*
X024694Y024647D01*
X024655Y024686D02*
X023904Y024686D01*
X023926Y024724D02*
X024615Y024724D01*
X024576Y024763D02*
X023944Y024763D01*
X023939Y024740D02*
X023939Y024740D01*
X023953Y024801D02*
X024536Y024801D01*
X024497Y024840D02*
X023968Y024840D01*
X023984Y024878D02*
X024457Y024878D01*
X024417Y024917D02*
X023992Y024917D01*
X023992Y024955D02*
X024378Y024955D01*
X024338Y024994D02*
X023997Y024994D01*
X024005Y025032D02*
X023992Y025089D01*
X023992Y025159D01*
X023957Y025246D01*
X023940Y025318D01*
X024277Y025053D01*
X024255Y025071D02*
X023997Y025071D01*
X023992Y025109D02*
X024206Y025109D01*
X024157Y025148D02*
X023992Y025148D01*
X023981Y025186D02*
X024108Y025186D01*
X024059Y025225D02*
X023965Y025225D01*
X023953Y025263D02*
X024010Y025263D01*
X023961Y025302D02*
X023944Y025302D01*
X023421Y025725D02*
X022492Y025725D01*
X022500Y025764D02*
X023372Y025764D01*
X023323Y025802D02*
X022509Y025802D01*
X022518Y025841D02*
X023274Y025841D01*
X023225Y025879D02*
X022528Y025879D01*
X022553Y025995D02*
X023053Y025995D01*
X022992Y026033D02*
X022551Y026033D01*
X022542Y026072D02*
X022930Y026072D01*
X022869Y026110D02*
X022533Y026110D01*
X022532Y026149D02*
X022807Y026149D01*
X022745Y026187D02*
X022517Y026187D01*
X022507Y026226D02*
X022684Y026226D01*
X022622Y026264D02*
X022498Y026264D01*
X022490Y026301D02*
X022490Y026301D01*
X022489Y026303D02*
X022561Y026303D01*
X022499Y026341D02*
X022458Y026341D01*
X022438Y026380D02*
X022437Y026380D01*
X021933Y026688D02*
X020972Y026688D01*
X020974Y026726D02*
X021854Y026726D01*
X021774Y026765D02*
X020983Y026765D01*
X020979Y026803D02*
X021695Y026803D01*
X021616Y026842D02*
X020972Y026842D01*
X020972Y026880D02*
X021537Y026880D01*
X021458Y026919D02*
X020972Y026919D01*
X020957Y026957D02*
X021379Y026957D01*
X021299Y026996D02*
X020941Y026996D01*
X020927Y027034D02*
X021220Y027034D01*
X021141Y027073D02*
X020915Y027073D01*
X020893Y027111D02*
X021062Y027111D01*
X020983Y027150D02*
X020877Y027150D01*
X020904Y027188D02*
X020844Y027188D01*
X020824Y027227D02*
X020806Y027227D01*
X020968Y026649D02*
X021693Y026649D01*
X021600Y026611D02*
X020952Y026611D01*
X020939Y026572D02*
X021508Y026572D01*
X021464Y026535D02*
X021464Y026535D01*
X021463Y026534D02*
X020930Y026534D01*
X020922Y026495D02*
X021431Y026495D01*
X021393Y026457D02*
X020898Y026457D01*
X020872Y026418D02*
X021354Y026418D01*
X021322Y026380D02*
X020836Y026380D01*
X020805Y026341D02*
X021306Y026341D01*
X021279Y026303D02*
X020775Y026303D01*
X020744Y026264D02*
X021269Y026264D01*
X021258Y026226D02*
X020683Y026226D01*
X020732Y026249D02*
X020732Y026249D01*
X020603Y026187D02*
X021242Y026187D01*
X021226Y026149D02*
X020523Y026149D01*
X022086Y025379D02*
X022770Y025379D01*
X022801Y025417D02*
X022166Y025417D01*
X022246Y025456D02*
X022832Y025456D01*
X022862Y025494D02*
X022312Y025494D01*
X022343Y025533D02*
X022893Y025533D01*
X022941Y025571D02*
X022373Y025571D01*
X022404Y025610D02*
X023021Y025610D01*
X023101Y025648D02*
X022435Y025648D01*
X022465Y025687D02*
X023181Y025687D01*
X022660Y025032D02*
X022660Y025032D01*
X022808Y024359D02*
X022808Y024359D01*
X022573Y024339D02*
X021128Y024339D01*
X021181Y024301D02*
X022233Y024301D01*
X022267Y024314D02*
X022267Y024314D01*
X022133Y024262D02*
X021234Y024262D01*
X021287Y024224D02*
X022033Y024224D01*
X021933Y024185D02*
X021340Y024185D01*
X021393Y024147D02*
X021832Y024147D01*
X021762Y024119D02*
X021762Y024119D01*
X021747Y024108D02*
X021446Y024108D01*
X021499Y024070D02*
X021696Y024070D01*
X021646Y024031D02*
X021552Y024031D01*
X021566Y023993D02*
X021595Y023993D01*
X025476Y022106D02*
X026766Y022106D01*
X026294Y022068D02*
X025502Y022068D01*
X025527Y022029D02*
X026210Y022029D01*
X026118Y021991D02*
X025552Y021991D01*
X025577Y021952D02*
X026054Y021952D01*
X026050Y021950D02*
X026050Y021950D01*
X026021Y021914D02*
X025602Y021914D01*
X025627Y021875D02*
X025990Y021875D01*
X025953Y021837D02*
X025653Y021837D01*
X025678Y021798D02*
X025915Y021798D01*
X025898Y021760D02*
X025703Y021760D01*
X025728Y021721D02*
X025867Y021721D01*
X025855Y021683D02*
X025753Y021683D01*
X025778Y021644D02*
X025847Y021644D01*
X025835Y021606D02*
X025804Y021606D01*
X028656Y016716D02*
X028666Y016716D01*
X028672Y016677D02*
X028647Y016677D01*
X028638Y016639D02*
X028679Y016639D01*
X028685Y016600D02*
X028623Y016600D01*
X028632Y016612D02*
X028632Y016612D01*
X028592Y016562D02*
X028691Y016562D01*
X028693Y016523D02*
X028567Y016523D01*
X028531Y016485D02*
X028696Y016485D01*
X028698Y016446D02*
X028500Y016446D01*
X028469Y016408D02*
X028700Y016408D01*
X028702Y016369D02*
X028428Y016369D01*
X028445Y016378D02*
X028445Y016378D01*
X028445Y016378D01*
X028348Y016331D02*
X028704Y016331D01*
X028706Y016292D02*
X028268Y016292D01*
X028189Y016254D02*
X028708Y016254D01*
X027788Y015715D02*
X025257Y015715D01*
X024837Y015676D02*
X027720Y015676D01*
X027690Y015638D02*
X024320Y015638D01*
X024994Y015022D02*
X025163Y015022D01*
X025181Y015137D02*
X020225Y015137D01*
X020216Y015099D02*
X023396Y015099D01*
X023349Y015060D02*
X020207Y015060D01*
X020199Y015022D02*
X023310Y015022D01*
X023294Y014983D02*
X020189Y014983D01*
X020181Y014945D02*
X023276Y014945D01*
X023276Y014829D02*
X020132Y014829D01*
X020103Y014791D02*
X023291Y014791D01*
X023308Y014752D02*
X020071Y014752D01*
X020040Y014714D02*
X020887Y014714D01*
X020903Y014718D02*
X020903Y014718D01*
X021031Y014723D02*
X021031Y014723D01*
X020724Y014675D02*
X020010Y014675D01*
X019979Y014637D02*
X020562Y014637D01*
X020477Y014598D02*
X019907Y014598D01*
X019976Y014634D02*
X019976Y014634D01*
X019823Y014560D02*
X020392Y014560D01*
X020307Y014521D02*
X019743Y014521D01*
X019792Y014252D02*
X019333Y014252D01*
X019201Y014290D02*
X019896Y014290D01*
X019999Y014329D02*
X019112Y014329D01*
X019030Y014367D02*
X020062Y014367D01*
X020121Y014406D02*
X018904Y014406D01*
X018752Y014444D02*
X020175Y014444D01*
X020140Y014420D02*
X020140Y014420D01*
X020230Y014483D02*
X018384Y014483D01*
X018282Y014483D02*
X016145Y014483D01*
X016183Y014521D02*
X019371Y014521D01*
X019281Y014560D02*
X016222Y014560D01*
X016260Y014598D02*
X019188Y014598D01*
X019138Y014634D02*
X019138Y014634D01*
X019135Y014637D02*
X016299Y014637D01*
X016337Y014675D02*
X019105Y014675D01*
X019067Y014714D02*
X016355Y014714D01*
X016371Y014752D02*
X019028Y014752D01*
X018992Y014791D02*
X016387Y014791D01*
X016403Y014829D02*
X018976Y014829D01*
X018928Y014945D02*
X016451Y014945D01*
X016467Y014983D02*
X018912Y014983D01*
X018896Y015022D02*
X016470Y015022D01*
X016470Y015060D02*
X018894Y015060D01*
X018894Y015099D02*
X016470Y015099D01*
X016470Y015137D02*
X018889Y015137D01*
X018884Y015160D02*
X018884Y015160D01*
X018888Y015176D02*
X016470Y015176D01*
X016470Y015214D02*
X018894Y015214D01*
X018894Y015253D02*
X016470Y015253D01*
X016470Y015291D02*
X018897Y015291D01*
X018912Y015330D02*
X016470Y015330D01*
X016454Y015368D02*
X018928Y015368D01*
X018941Y015407D02*
X016438Y015407D01*
X016390Y015522D02*
X018992Y015522D01*
X018976Y015484D02*
X018951Y015452D01*
X018951Y015452D01*
X019028Y015561D02*
X016374Y015561D01*
X016358Y015599D02*
X019067Y015599D01*
X019099Y015638D02*
X016342Y015638D01*
X016305Y015676D02*
X019130Y015676D01*
X019138Y015686D02*
X019138Y015686D01*
X019189Y015715D02*
X016267Y015715D01*
X016228Y015753D02*
X019278Y015753D01*
X019358Y015792D02*
X016190Y015792D01*
X016106Y014444D02*
X018002Y014444D01*
X017920Y014406D02*
X016021Y014406D01*
X015928Y014367D02*
X017850Y014367D01*
X017780Y014329D02*
X015835Y014329D01*
X018091Y015863D02*
X018091Y015863D01*
X018186Y015850D02*
X018186Y015850D01*
X018311Y015833D02*
X018311Y015833D01*
X019513Y016100D02*
X019523Y016100D01*
X020163Y014868D02*
X020163Y014868D01*
X020244Y014493D02*
X020244Y014493D01*
X023631Y015599D02*
X027659Y015599D01*
X014276Y011056D02*
X012668Y011056D01*
X012660Y011018D02*
X014230Y011018D01*
X014184Y010979D02*
X012653Y010979D01*
X012645Y010941D02*
X014129Y010941D01*
X014058Y010902D02*
X012637Y010902D01*
X012638Y010904D02*
X012638Y010904D01*
X012617Y010864D02*
X013977Y010864D01*
X014001Y010875D02*
X014001Y010875D01*
X013893Y010825D02*
X012598Y010825D01*
X012578Y010787D02*
X013837Y010787D01*
X013783Y010748D02*
X012558Y010748D01*
X012538Y010710D02*
X013729Y010710D01*
X013676Y010671D02*
X012518Y010671D01*
X012498Y010633D02*
X013622Y010633D01*
X013579Y010594D02*
X012478Y010594D01*
X012498Y010632D02*
X012498Y010632D01*
X012458Y010556D02*
X013543Y010556D01*
X013507Y010517D02*
X012438Y010517D01*
X012418Y010479D02*
X013470Y010479D01*
X013434Y010440D02*
X012398Y010440D01*
X012378Y010402D02*
X013398Y010402D01*
X013362Y010364D02*
X013362Y010364D01*
X013361Y010363D02*
X012357Y010363D01*
X012336Y010325D02*
X013337Y010325D01*
X013313Y010286D02*
X012316Y010286D01*
X012295Y010248D02*
X013288Y010248D01*
X013264Y010209D02*
X012275Y010209D01*
X012254Y010171D02*
X013240Y010171D01*
X013216Y010132D02*
X012234Y010132D01*
X012212Y010094D02*
X013192Y010094D01*
X013168Y010055D02*
X012191Y010055D01*
X012170Y010017D02*
X013144Y010017D01*
X013119Y009978D02*
X012149Y009978D01*
X012128Y009940D02*
X013095Y009940D01*
X013072Y009901D02*
X012107Y009901D01*
X012085Y009863D02*
X013049Y009863D01*
X013025Y009824D02*
X012064Y009824D01*
X012042Y009786D02*
X013001Y009786D01*
X012978Y009747D02*
X012020Y009747D01*
X011999Y009709D02*
X012954Y009709D01*
X012931Y009670D02*
X011977Y009670D01*
X011956Y009632D02*
X012908Y009632D01*
X012885Y009593D02*
X011933Y009593D01*
X011911Y009555D02*
X012862Y009555D01*
X012839Y009516D02*
X011889Y009516D01*
X011867Y009478D02*
X012816Y009478D01*
X012793Y009439D02*
X011845Y009439D01*
X011823Y009401D02*
X012771Y009401D01*
X012748Y009362D02*
X011800Y009362D01*
X011778Y009324D02*
X012726Y009324D01*
X012703Y009285D02*
X011755Y009285D01*
X011732Y009247D02*
X012680Y009247D01*
X012658Y009208D02*
X011710Y009208D01*
X011687Y009170D02*
X012636Y009170D01*
X012614Y009131D02*
X011664Y009131D01*
X011641Y009093D02*
X012592Y009093D01*
X012570Y009054D02*
X011618Y009054D01*
X011595Y009016D02*
X012547Y009016D01*
X012525Y008977D02*
X011572Y008977D01*
X011549Y008939D02*
X012504Y008939D01*
X012482Y008900D02*
X011525Y008900D01*
X011501Y008862D02*
X012461Y008862D01*
X012439Y008823D02*
X011478Y008823D01*
X011454Y008785D02*
X012417Y008785D01*
X012396Y008746D02*
X011430Y008746D01*
X011440Y008708D02*
X011407Y008708D01*
X011447Y008708D02*
X012374Y008708D01*
X012353Y008669D02*
X011572Y008669D01*
X011627Y008631D02*
X012332Y008631D01*
X012311Y008592D02*
X011653Y008592D01*
X011679Y008554D02*
X012290Y008554D01*
X012268Y008515D02*
X011688Y008515D01*
X011696Y008477D02*
X012247Y008477D01*
X012227Y008438D02*
X011697Y008438D01*
X011689Y008400D02*
X012206Y008400D01*
X012185Y008361D02*
X011682Y008361D01*
X011658Y008323D02*
X012165Y008323D01*
X012144Y008284D02*
X011633Y008284D01*
X011607Y008246D02*
X012123Y008246D01*
X012103Y008207D02*
X011582Y008207D01*
X011556Y008169D02*
X012083Y008169D01*
X012063Y008130D02*
X011531Y008130D01*
X011506Y008092D02*
X012042Y008092D01*
X012022Y008053D02*
X011480Y008053D01*
X011455Y008015D02*
X012002Y008015D01*
X011982Y007976D02*
X011429Y007976D01*
X011404Y007938D02*
X011962Y007938D01*
X011942Y007899D02*
X011378Y007899D01*
X011353Y007861D02*
X011922Y007861D01*
X011903Y007822D02*
X011327Y007822D01*
X011302Y007784D02*
X011883Y007784D01*
X011869Y007757D02*
X011869Y007757D01*
X011863Y007745D02*
X011276Y007745D01*
X011251Y007707D02*
X011843Y007707D01*
X011824Y007668D02*
X011226Y007668D01*
X011200Y007630D02*
X011805Y007630D01*
X011786Y007591D02*
X011175Y007591D01*
X011149Y007553D02*
X011766Y007553D01*
X011747Y007514D02*
X011124Y007514D01*
X011098Y007476D02*
X011728Y007476D01*
X011709Y007437D02*
X011073Y007437D01*
X011048Y007399D02*
X011690Y007399D01*
X011671Y007360D02*
X011022Y007360D01*
X010997Y007322D02*
X011652Y007322D01*
X011633Y007283D02*
X010971Y007283D01*
X010946Y007245D02*
X011615Y007245D01*
X011596Y007206D02*
X010920Y007206D01*
X010895Y007168D02*
X011577Y007168D01*
X011559Y007129D02*
X010869Y007129D01*
X010844Y007091D02*
X011541Y007091D01*
X011522Y007052D02*
X010818Y007052D01*
X010776Y007014D02*
X011504Y007014D01*
X011485Y006975D02*
X010747Y006975D01*
X010773Y006937D02*
X011467Y006937D01*
X011449Y006898D02*
X010825Y006898D01*
X010833Y006860D02*
X011431Y006860D01*
X011413Y006821D02*
X010830Y006821D01*
X010802Y006783D02*
X011395Y006783D01*
X011377Y006744D02*
X010774Y006744D01*
X010745Y006706D02*
X011359Y006706D01*
X011341Y006667D02*
X010717Y006667D01*
X010689Y006629D02*
X011324Y006629D01*
X011307Y006590D02*
X010660Y006590D01*
X010632Y006552D02*
X011289Y006552D01*
X011272Y006513D02*
X010604Y006513D01*
X010576Y006475D02*
X011254Y006475D01*
X011236Y006436D02*
X010547Y006436D01*
X010519Y006398D02*
X011219Y006398D01*
X011202Y006359D02*
X010491Y006359D01*
X010462Y006321D02*
X011185Y006321D01*
X011168Y006282D02*
X010434Y006282D01*
X010406Y006244D02*
X011151Y006244D01*
X011134Y006205D02*
X010378Y006205D01*
X010349Y006167D02*
X011117Y006167D01*
X011100Y006128D02*
X010321Y006128D01*
X010293Y006090D02*
X011083Y006090D01*
X011066Y006051D02*
X010265Y006051D01*
X010236Y006013D02*
X011049Y006013D01*
X010206Y005972D02*
X010141Y005962D01*
X009684Y006297D01*
X009677Y006345D01*
X009481Y006195D01*
X009481Y006195D01*
X008975Y006002D01*
X008975Y006002D01*
X008436Y005957D01*
X008436Y005957D01*
X008644Y005974D02*
X010124Y005974D01*
X010071Y006013D02*
X009005Y006013D01*
X009105Y006051D02*
X010019Y006051D01*
X009966Y006090D02*
X009206Y006090D01*
X009306Y006128D02*
X009914Y006128D01*
X009862Y006167D02*
X009407Y006167D01*
X009494Y006205D02*
X009809Y006205D01*
X009757Y006244D02*
X009545Y006244D01*
X009595Y006282D02*
X009704Y006282D01*
X009681Y006321D02*
X009646Y006321D01*
X009140Y004935D02*
X008469Y004935D01*
X008440Y004896D02*
X009060Y004896D01*
X008980Y004858D02*
X008403Y004858D01*
X008372Y004819D02*
X008923Y004819D01*
X008937Y004837D02*
X008937Y004837D01*
X008892Y004781D02*
X008342Y004781D01*
X008286Y004742D02*
X008861Y004742D01*
X008827Y004704D02*
X008206Y004704D01*
X008126Y004665D02*
X008799Y004665D01*
X008769Y004627D02*
X007777Y004627D01*
X007831Y004588D02*
X008747Y004588D01*
X008738Y004550D02*
X007886Y004550D01*
X007941Y004511D02*
X008729Y004511D01*
X008719Y004473D02*
X007996Y004473D01*
X008051Y004434D02*
X008707Y004434D01*
X008703Y004396D02*
X008106Y004396D01*
X008160Y004357D02*
X008694Y004357D01*
X008685Y004319D02*
X008215Y004319D01*
X008270Y004280D02*
X008690Y004280D01*
X008699Y004242D02*
X008325Y004242D01*
X008380Y004203D02*
X008707Y004203D01*
X008715Y004165D02*
X008434Y004165D01*
X008489Y004126D02*
X008726Y004126D01*
X008734Y004088D02*
X008544Y004088D01*
X008599Y004049D02*
X008743Y004049D01*
X008757Y004011D02*
X008655Y004011D01*
X008725Y003972D02*
X008787Y003972D01*
X008794Y003934D02*
X008816Y003934D01*
X009350Y003626D02*
X010273Y003626D01*
X010276Y003664D02*
X009525Y003664D01*
X009605Y003703D02*
X010286Y003703D01*
X010299Y003741D02*
X009685Y003741D01*
X009765Y003780D02*
X010308Y003780D01*
X010317Y003818D02*
X009802Y003818D01*
X009776Y003785D02*
X009776Y003785D01*
X009776Y003785D01*
X009833Y003857D02*
X010337Y003857D01*
X010366Y003895D02*
X009866Y003895D01*
X009904Y003934D02*
X010390Y003934D01*
X010429Y003972D02*
X009926Y003972D01*
X009956Y004011D02*
X010460Y004011D01*
X010491Y004049D02*
X009969Y004049D01*
X009962Y004019D02*
X009962Y004019D01*
X009978Y004088D02*
X010543Y004088D01*
X010616Y004126D02*
X009990Y004126D01*
X010005Y004165D02*
X010703Y004165D01*
X010264Y003587D02*
X009420Y003587D01*
X009489Y003549D02*
X010255Y003549D01*
X010262Y003510D02*
X009559Y003510D01*
X009629Y003472D02*
X010271Y003472D01*
X010276Y003433D02*
X009698Y003433D01*
X009768Y003395D02*
X010286Y003395D01*
X010297Y003356D02*
X009837Y003356D01*
X009918Y003318D02*
X010306Y003318D01*
X010315Y003279D02*
X010009Y003279D01*
X010100Y003241D02*
X010331Y003241D01*
X010361Y003202D02*
X010191Y003202D01*
X010282Y003164D02*
X010391Y003164D01*
X010374Y003125D02*
X010423Y003125D01*
X008164Y006013D02*
X006198Y006013D01*
X006163Y006051D02*
X007976Y006051D01*
X007860Y006090D02*
X006127Y006090D01*
X006092Y006128D02*
X007787Y006128D01*
X007714Y006167D02*
X006056Y006167D01*
X006020Y006205D02*
X007641Y006205D01*
X007569Y006244D02*
X005985Y006244D01*
X005949Y006282D02*
X007496Y006282D01*
X007425Y006321D02*
X005914Y006321D01*
X005878Y006359D02*
X007385Y006359D01*
X007345Y006398D02*
X005843Y006398D01*
X005807Y006436D02*
X007306Y006436D01*
X007266Y006475D02*
X005772Y006475D01*
X005736Y006513D02*
X007226Y006513D01*
X007186Y006552D02*
X005701Y006552D01*
X005665Y006590D02*
X007147Y006590D01*
X007107Y006629D02*
X005629Y006629D01*
X005594Y006667D02*
X007067Y006667D01*
X007028Y006706D02*
X005558Y006706D01*
X005523Y006744D02*
X006988Y006744D01*
X006948Y006783D02*
X005490Y006783D01*
X005461Y006821D02*
X006908Y006821D01*
X006869Y006860D02*
X005433Y006860D01*
X005404Y006898D02*
X006829Y006898D01*
X006789Y006937D02*
X005375Y006937D01*
X005347Y006975D02*
X006750Y006975D01*
X006718Y007014D02*
X005318Y007014D01*
X005290Y007052D02*
X006687Y007052D01*
X006655Y007091D02*
X005261Y007091D01*
X005232Y007129D02*
X006623Y007129D01*
X006591Y007168D02*
X005204Y007168D01*
X005175Y007206D02*
X006559Y007206D01*
X006528Y007245D02*
X005146Y007245D01*
X005118Y007283D02*
X006496Y007283D01*
X006464Y007322D02*
X005089Y007322D01*
X005061Y007360D02*
X006432Y007360D01*
X006401Y007399D02*
X005032Y007399D01*
X005003Y007437D02*
X006369Y007437D01*
X006337Y007476D02*
X004975Y007476D01*
X004946Y007514D02*
X006305Y007514D01*
X006273Y007553D02*
X004918Y007553D01*
X004889Y007591D02*
X006242Y007591D01*
X006210Y007630D02*
X004860Y007630D01*
X004832Y007668D02*
X006178Y007668D01*
X006146Y007707D02*
X004803Y007707D01*
X004775Y007745D02*
X006115Y007745D01*
X006083Y007784D02*
X004746Y007784D01*
X004717Y007822D02*
X006051Y007822D01*
X006019Y007861D02*
X004689Y007861D01*
X004661Y007899D02*
X005987Y007899D01*
X005956Y007938D02*
X004639Y007938D01*
X004616Y007976D02*
X005924Y007976D01*
X005894Y008015D02*
X004593Y008015D01*
X004570Y008053D02*
X005869Y008053D01*
X005843Y008092D02*
X004548Y008092D01*
X004525Y008130D02*
X005818Y008130D01*
X005793Y008169D02*
X004502Y008169D01*
X004480Y008207D02*
X005768Y008207D01*
X005743Y008246D02*
X004932Y008246D01*
X005012Y008284D02*
X005718Y008284D01*
X005692Y008323D02*
X005092Y008323D01*
X005172Y008361D02*
X005667Y008361D01*
X005642Y008400D02*
X005214Y008400D01*
X005245Y008438D02*
X005617Y008438D01*
X005592Y008477D02*
X005275Y008477D01*
X005309Y008515D02*
X005567Y008515D01*
X005541Y008554D02*
X005337Y008554D01*
X005367Y008592D02*
X005516Y008592D01*
X005491Y008631D02*
X005383Y008631D01*
X005392Y008669D02*
X005466Y008669D01*
X005441Y008708D02*
X005401Y008708D01*
X005413Y008746D02*
X005415Y008746D01*
X004610Y008246D02*
X004457Y008246D01*
X004434Y008284D02*
X004530Y008284D01*
X004450Y008323D02*
X004412Y008323D01*
X006305Y005897D02*
X007661Y005897D01*
X007578Y005859D02*
X006340Y005859D01*
X006376Y005820D02*
X007501Y005820D01*
X007462Y005782D02*
X006411Y005782D01*
X006447Y005743D02*
X007431Y005743D01*
X007401Y005705D02*
X006490Y005705D01*
X006534Y005666D02*
X007363Y005666D01*
X007339Y005628D02*
X006578Y005628D01*
X006622Y005589D02*
X007309Y005589D01*
X007295Y005551D02*
X006666Y005551D01*
X006710Y005512D02*
X007286Y005512D01*
X007277Y005474D02*
X006754Y005474D01*
X006798Y005435D02*
X007263Y005435D01*
X007256Y005397D02*
X006842Y005397D01*
X006886Y005358D02*
X007251Y005358D01*
X007242Y005320D02*
X006930Y005320D01*
X006974Y005281D02*
X007236Y005281D01*
X007245Y005243D02*
X007018Y005243D01*
X007062Y005204D02*
X007254Y005204D01*
X007256Y005166D02*
X007106Y005166D01*
X007150Y005127D02*
X007270Y005127D01*
X007280Y005089D02*
X007194Y005089D01*
X007238Y005050D02*
X007289Y005050D01*
X007282Y005012D02*
X007298Y005012D01*
X005315Y015214D02*
X003753Y015214D01*
X003744Y015253D02*
X004954Y015253D01*
X004923Y015291D02*
X003735Y015291D01*
X003726Y015330D02*
X004915Y015330D01*
X004919Y015368D02*
X003718Y015368D01*
X003709Y015407D02*
X004923Y015407D01*
X004927Y015445D02*
X003700Y015445D01*
X003699Y015452D02*
X003699Y015452D01*
X003673Y015484D02*
X004932Y015484D01*
X004936Y015522D02*
X003642Y015522D01*
X003612Y015561D02*
X004940Y015561D01*
X004939Y015599D02*
X003581Y015599D01*
X003550Y015638D02*
X004939Y015638D01*
X004939Y015676D02*
X003520Y015676D01*
X003512Y015686D02*
X003512Y015686D01*
X003452Y015715D02*
X004955Y015715D01*
X004960Y015753D02*
X003372Y015753D01*
X003292Y015792D02*
X004964Y015792D01*
X003051Y016254D02*
X002535Y016254D01*
X002539Y016292D02*
X002972Y016292D01*
X002885Y016331D02*
X002543Y016331D01*
X002547Y016369D02*
X002812Y016369D01*
X002795Y016378D02*
X002795Y016378D01*
X002771Y016408D02*
X002551Y016408D01*
X002555Y016446D02*
X002740Y016446D01*
X002709Y016485D02*
X002559Y016485D01*
X002563Y016523D02*
X002672Y016523D01*
X002648Y016562D02*
X002568Y016562D01*
X002572Y016600D02*
X002617Y016600D01*
X002602Y016639D02*
X002576Y016639D01*
X002580Y016677D02*
X002593Y016677D01*
X002584Y016716D02*
X002584Y016716D01*
X002642Y017255D02*
X002656Y017255D01*
X002650Y017293D02*
X002687Y017293D01*
X002659Y017332D02*
X002717Y017332D01*
X002748Y017370D02*
X002667Y017370D01*
X002675Y017409D02*
X002779Y017409D01*
X002795Y017429D02*
X002795Y017429D01*
X002795Y017429D01*
X002832Y017447D02*
X002684Y017447D01*
X002692Y017486D02*
X002912Y017486D01*
X002992Y017524D02*
X002700Y017524D01*
X006192Y024301D02*
X008129Y024301D01*
X008317Y024339D02*
X006228Y024339D01*
X008437Y024364D02*
X008437Y024364D01*
X008750Y025717D02*
X008750Y025717D01*
X009339Y026688D02*
X010274Y026688D01*
X010276Y026649D02*
X010291Y026613D01*
X010301Y026572D02*
X009730Y026572D01*
X009777Y026534D02*
X010310Y026534D01*
X010318Y026495D02*
X009808Y026495D01*
X009846Y026457D02*
X010342Y026457D01*
X010321Y026483D02*
X010321Y026483D01*
X010372Y026418D02*
X009884Y026418D01*
X009917Y026380D02*
X010404Y026380D01*
X010435Y026341D02*
X009933Y026341D01*
X009961Y026303D02*
X010465Y026303D01*
X010496Y026264D02*
X009971Y026264D01*
X009962Y026301D02*
X009962Y026301D01*
X009981Y026226D02*
X010557Y026226D01*
X010508Y026249D02*
X010508Y026249D01*
X010637Y026187D02*
X009997Y026187D01*
X010012Y026149D02*
X010717Y026149D01*
X010266Y026726D02*
X009408Y026726D01*
X009478Y026765D02*
X010257Y026765D01*
X010254Y026775D02*
X010254Y026775D01*
X010261Y026803D02*
X009547Y026803D01*
X009617Y026842D02*
X010269Y026842D01*
X010276Y026880D02*
X009686Y026880D01*
X009756Y026919D02*
X010280Y026919D01*
X010296Y026957D02*
X009825Y026957D01*
X009902Y026996D02*
X010305Y026996D01*
X010313Y027034D02*
X009993Y027034D01*
X010084Y027073D02*
X010325Y027073D01*
X010321Y027067D02*
X010321Y027067D01*
X010356Y027111D02*
X010176Y027111D01*
X010267Y027150D02*
X010376Y027150D01*
X010358Y027188D02*
X010414Y027188D01*
M02*
