%
M48
M72
T01C0.0160
T02C0.0866
T03C0.1260
%
T01
X11889Y9239
X12069Y9539
X12239Y9829
X12409Y10139
X12579Y10449
X10029Y15439
X9679Y15439
X9299Y15419
X8959Y15419
X8619Y15419
X13009Y20179
X12829Y20479
X12659Y20789
X12489Y21079
X12329Y21379
X18679Y19889
X18849Y20199
X19019Y20509
X19179Y20799
X19349Y21109
X21239Y14909
X21589Y14909
X21939Y14909
X22279Y14909
X22619Y14909
X18199Y10149
X18369Y9839
X18549Y9539
X18709Y9249
X18889Y8959
T02
X11458Y7924
X7261Y15160
X11445Y22389
X19802Y22406
X23968Y15177
X19793Y7910
T03
X15620Y15160
M30
