G75*
G70*
%OFA0B0*%
%FSLAX24Y24*%
%IPPOS*%
%LPD*%
%AMOC8*
5,1,8,0,0,1.08239X$1,22.5*
%
%ADD10C,0.0926*%
%ADD11C,0.1320*%
%ADD12R,0.1060X0.0560*%
%ADD13R,0.2060X0.1060*%
%ADD14C,0.0420*%
%ADD15C,0.0380*%
D10*
X007909Y005289D03*
X009360Y004314D03*
X010929Y003549D03*
X015619Y002639D03*
X020319Y003549D03*
X021880Y004314D03*
X023339Y005289D03*
X026469Y008899D03*
X028039Y013419D03*
X028140Y015140D03*
X028029Y016909D03*
X026469Y021429D03*
X023339Y025029D03*
X021879Y026019D03*
X020319Y026789D03*
X015629Y027689D03*
X010929Y026779D03*
X009359Y026019D03*
X007909Y025029D03*
X004769Y021429D03*
X003219Y016899D03*
X003081Y015160D03*
X003209Y013419D03*
X004769Y008899D03*
X011676Y015169D03*
X013665Y018569D03*
X017602Y018586D03*
X019548Y015157D03*
X017593Y011750D03*
X013658Y011744D03*
D11*
X015620Y015160D03*
D12*
G36*
X010175Y024310D02*
X010805Y023459D01*
X010355Y023126D01*
X009725Y023977D01*
X010175Y024310D01*
G37*
G36*
X010931Y024686D02*
X011362Y023718D01*
X010851Y023490D01*
X010420Y024458D01*
X010931Y024686D01*
G37*
G36*
X005022Y015858D02*
X006075Y015748D01*
X006016Y015192D01*
X004963Y015302D01*
X005022Y015858D01*
G37*
G36*
X004971Y015022D02*
X006024Y015132D01*
X006083Y014576D01*
X005030Y014466D01*
X004971Y015022D01*
G37*
G36*
X009717Y006336D02*
X010344Y007189D01*
X010795Y006858D01*
X010168Y006005D01*
X009717Y006336D01*
G37*
G36*
X010427Y005871D02*
X010853Y006840D01*
X011365Y006615D01*
X010939Y005646D01*
X010427Y005871D01*
G37*
G36*
X020301Y005636D02*
X019875Y006605D01*
X020387Y006830D01*
X020813Y005861D01*
X020301Y005636D01*
G37*
G36*
X021072Y006005D02*
X020445Y006858D01*
X020896Y007189D01*
X021523Y006336D01*
X021072Y006005D01*
G37*
G36*
X026217Y014452D02*
X025164Y014568D01*
X025225Y015124D01*
X026278Y015008D01*
X026217Y014452D01*
G37*
G36*
X026284Y015309D02*
X025231Y015193D01*
X025170Y015749D01*
X026223Y015865D01*
X026284Y015309D01*
G37*
G36*
X021529Y023986D02*
X020906Y023129D01*
X020453Y023458D01*
X021076Y024315D01*
X021529Y023986D01*
G37*
G36*
X020826Y024469D02*
X020403Y023498D01*
X019890Y023721D01*
X020313Y024692D01*
X020826Y024469D01*
G37*
D13*
G36*
X014392Y015573D02*
X015421Y013789D01*
X014504Y013259D01*
X013475Y015043D01*
X014392Y015573D01*
G37*
G36*
X002668Y017838D02*
X003373Y019773D01*
X004368Y019410D01*
X003663Y017475D01*
X002668Y017838D01*
G37*
G36*
X003830Y012763D02*
X004328Y010765D01*
X003300Y010509D01*
X002802Y012507D01*
X003830Y012763D01*
G37*
D14*
X003612Y012478D03*
X003699Y012093D03*
X003807Y011700D03*
X003904Y011316D03*
X004001Y010931D03*
X003459Y010792D03*
X003363Y011166D03*
X003276Y011551D03*
X003179Y011935D03*
X003092Y012320D03*
D15*
X005499Y015449D03*
X005839Y015559D03*
X006270Y015531D03*
X006640Y015502D03*
X007009Y015473D03*
X007379Y015443D03*
X007748Y015424D03*
X005179Y015629D03*
X011912Y022117D03*
X011748Y022454D03*
X011584Y022781D03*
X011421Y023117D03*
X011257Y023444D03*
X011087Y023824D03*
X010826Y024059D03*
X010831Y024413D03*
X019789Y021841D03*
X020005Y022165D03*
X020211Y022479D03*
X020417Y022782D03*
X020623Y023086D03*
X020852Y023422D03*
X020925Y023765D03*
X021233Y023938D03*
X023513Y014885D03*
X023882Y014859D03*
X024251Y014833D03*
X024620Y014808D03*
X024989Y014782D03*
X025396Y014759D03*
X025732Y014862D03*
X026033Y014676D03*
X019312Y008203D03*
X019480Y007874D03*
X019648Y007544D03*
X019816Y007214D03*
X019984Y006874D03*
X020167Y006512D03*
X020424Y006272D03*
X020413Y005919D03*
X011445Y008454D03*
X011245Y008147D03*
X011044Y007839D03*
X010843Y007532D03*
X010633Y007225D03*
X010390Y006895D03*
X010323Y006550D03*
X010018Y006372D03*
M02*
