%
M48
M72
T01C0.0200
T02C0.1260
T03C0.3600
%
T01
X13819Y6519
X14109Y6689
X13819Y6859
X14109Y7029
X13819Y7199
X14109Y7369
X13819Y7539
X14109Y7709
X13819Y7879
X14109Y8049
X13819Y8219
X14109Y8389
X13819Y8559
X14109Y8729
X13819Y8899
X14109Y9069
X13819Y9239
X14109Y9409
X14399Y9239
X14399Y8899
X14399Y8559
X14399Y8219
X14399Y7879
X14399Y7539
X14399Y7199
X14399Y6859
X14399Y6519
X21089Y13799
X20919Y14089
X21089Y14379
X21259Y14089
X21429Y13799
X21599Y14089
X21769Y13799
X21939Y14089
X22109Y13799
X22279Y14089
X22449Y13799
X22619Y14089
X22789Y13799
X22959Y14089
X23129Y13799
X23299Y14089
X23469Y13799
X23639Y14089
X23809Y13799
X23809Y14379
X23469Y14379
X23129Y14379
X22789Y14379
X22449Y14379
X22109Y14379
X21769Y14379
X21429Y14379
X16189Y20899
X15899Y21069
X16189Y21239
X15899Y21409
X16189Y21579
X15899Y21749
X16189Y21919
X15899Y22089
X16189Y22259
X15899Y22429
X16189Y22599
X15899Y22769
X16189Y22939
X15899Y23109
X16189Y23279
X15899Y23449
X16189Y23619
X15899Y23789
X16479Y23789
X16479Y23449
X16479Y23109
X16479Y22769
X16479Y22429
X16479Y22089
X16479Y21749
X16479Y21409
X16479Y21069
X9199Y16459
X9029Y16169
X8859Y15879
X8689Y16169
X8519Y15879
X8349Y16169
X8179Y15879
X8009Y16169
X7839Y15879
X7669Y16169
X7499Y15879
X7329Y16169
X7159Y15879
X6989Y16169
X6819Y15879
X6649Y16169
X6479Y15879
X6479Y16459
X6819Y16459
X7159Y16459
X7499Y16459
X7839Y16459
X8179Y16459
X8519Y16459
X8859Y16459
X9369Y16169
X9199Y15879
X4759Y20759
X4379Y20759
X4379Y21139
X4759Y21139
T02
X6282Y6292
X7942Y4892
X4882Y7972
X2830Y12958
X2613Y15140
X2799Y17320
X4877Y22320
X6292Y23998
X7957Y25400
X12960Y27468
X15140Y27668
X17310Y27488
X22317Y25400
X24001Y23998
X25397Y22320
X27477Y17320
X27667Y15140
X27487Y12960
X25420Y7963
X23998Y6282
X22320Y4863
X17310Y2793
X15130Y2603
X12980Y2803
X15143Y11200
X19077Y15140
X15143Y19070
X11203Y15140
T03
X15140Y15140
M30
