G75*
G70*
%OFA0B0*%
%FSLAX24Y24*%
%IPPOS*%
%LPD*%
%AMOC8*
5,1,8,0,0,1.08239X$1,22.5*
%
%ADD10R,0.1000X0.0500*%
%ADD11C,0.0240*%
%ADD12C,0.0320*%
%ADD13C,0.0060*%
%ADD14C,0.0040*%
D10*
G36*
X011590Y009229D02*
X012089Y010095D01*
X012522Y009845D01*
X012023Y008979D01*
X011590Y009229D01*
G37*
G36*
X012570Y010895D02*
X013069Y011761D01*
X013502Y011511D01*
X013003Y010645D01*
X012570Y010895D01*
G37*
G36*
X014325Y014994D02*
X014824Y014128D01*
X014391Y013878D01*
X013892Y014744D01*
X014325Y014994D01*
G37*
X010924Y015428D03*
X008961Y015417D03*
G36*
X006976Y016213D02*
X007234Y017178D01*
X007716Y017049D01*
X007458Y016084D01*
X006976Y016213D01*
G37*
G36*
X007353Y017700D02*
X007695Y018639D01*
X008163Y018468D01*
X007821Y017529D01*
X007353Y017700D01*
G37*
G36*
X012465Y021647D02*
X012964Y020781D01*
X012531Y020531D01*
X012032Y021397D01*
X012465Y021647D01*
G37*
G36*
X013520Y018835D02*
X013021Y019701D01*
X013454Y019951D01*
X013953Y019085D01*
X013520Y018835D01*
G37*
G36*
X017742Y018815D02*
X018241Y019681D01*
X018674Y019431D01*
X018175Y018565D01*
X017742Y018815D01*
G37*
G36*
X019644Y021121D02*
X019145Y020255D01*
X018712Y020505D01*
X019211Y021371D01*
X019644Y021121D01*
G37*
X020307Y014889D03*
X022281Y014908D03*
G36*
X017711Y011515D02*
X018210Y010649D01*
X017777Y010399D01*
X017278Y011265D01*
X017711Y011515D01*
G37*
G36*
X018691Y009811D02*
X019190Y008945D01*
X018757Y008695D01*
X018258Y009561D01*
X018691Y009811D01*
G37*
D11*
X008961Y015417D02*
X008899Y015479D01*
X008269Y015479D01*
X007346Y016403D01*
X007346Y016631D01*
D12*
X008619Y015419D03*
X008959Y015419D03*
X009299Y015419D03*
X009679Y015439D03*
X010029Y015439D03*
X013009Y020179D03*
X012829Y020479D03*
X012659Y020789D03*
X012489Y021079D03*
X012329Y021379D03*
X018679Y019889D03*
X018849Y020199D03*
X019019Y020509D03*
X019179Y020799D03*
X019349Y021109D03*
X021239Y014909D03*
X021589Y014909D03*
X021939Y014909D03*
X022279Y014909D03*
X022619Y014909D03*
X018199Y010149D03*
X018369Y009839D03*
X018549Y009539D03*
X018709Y009249D03*
X018889Y008959D03*
X012579Y010449D03*
X012409Y010139D03*
X012239Y009829D03*
X012069Y009539D03*
X011889Y009239D03*
D13*
X011772Y009091D02*
X012100Y009091D01*
X012067Y009033D02*
X011858Y009033D01*
X011943Y008974D02*
X012035Y008974D01*
X012009Y008929D02*
X011569Y009229D01*
X011579Y009239D01*
X011686Y009425D01*
X011689Y009427D01*
X011689Y009427D01*
X011689Y009427D01*
X011736Y009507D01*
X012485Y010806D01*
X012929Y010569D01*
X012009Y008929D01*
X012133Y009150D02*
X011686Y009150D01*
X011600Y009208D02*
X012166Y009208D01*
X012199Y009267D02*
X011595Y009267D01*
X011629Y009325D02*
X012232Y009325D01*
X012264Y009384D02*
X011662Y009384D01*
X011698Y009442D02*
X012297Y009442D01*
X012330Y009501D02*
X011732Y009501D01*
X011736Y009507D02*
X011736Y009507D01*
X011766Y009559D02*
X012363Y009559D01*
X012396Y009618D02*
X011799Y009618D01*
X011833Y009676D02*
X012428Y009676D01*
X012461Y009735D02*
X011867Y009735D01*
X011901Y009793D02*
X012494Y009793D01*
X012527Y009852D02*
X011934Y009852D01*
X011968Y009910D02*
X012560Y009910D01*
X012593Y009969D02*
X012002Y009969D01*
X012036Y010027D02*
X012625Y010027D01*
X012658Y010086D02*
X012070Y010086D01*
X012103Y010144D02*
X012691Y010144D01*
X012724Y010203D02*
X012137Y010203D01*
X012171Y010261D02*
X012757Y010261D01*
X012789Y010320D02*
X012205Y010320D01*
X012238Y010378D02*
X012822Y010378D01*
X012855Y010437D02*
X012272Y010437D01*
X012306Y010495D02*
X012888Y010495D01*
X012921Y010554D02*
X012340Y010554D01*
X012374Y010612D02*
X012849Y010612D01*
X012739Y010671D02*
X012407Y010671D01*
X012441Y010729D02*
X012629Y010729D01*
X012520Y010788D02*
X012475Y010788D01*
X010269Y015139D02*
X008429Y015139D01*
X008429Y015699D01*
X008686Y015699D01*
X008690Y015698D01*
X008882Y015698D01*
X010269Y015698D01*
X010269Y015139D01*
X010269Y015175D02*
X008429Y015175D01*
X008429Y015234D02*
X010269Y015234D01*
X010269Y015292D02*
X008429Y015292D01*
X008429Y015351D02*
X010269Y015351D01*
X010269Y015409D02*
X008429Y015409D01*
X008429Y015468D02*
X010269Y015468D01*
X010269Y015526D02*
X008429Y015526D01*
X008429Y015585D02*
X010269Y015585D01*
X010269Y015643D02*
X008429Y015643D01*
X008882Y015698D02*
X008882Y015698D01*
X012859Y019899D02*
X013343Y020180D01*
X012717Y021264D01*
X012717Y021264D01*
X012692Y021307D01*
X012621Y021431D01*
X012621Y021431D01*
X012620Y021435D01*
X012033Y021435D01*
X011989Y021409D02*
X012469Y021689D01*
X012620Y021435D01*
X012652Y021376D02*
X012008Y021376D01*
X011989Y021409D02*
X012859Y019899D01*
X012851Y019914D02*
X012885Y019914D01*
X012817Y019972D02*
X012985Y019972D01*
X013086Y020031D02*
X012784Y020031D01*
X012750Y020089D02*
X013187Y020089D01*
X013288Y020148D02*
X012716Y020148D01*
X012682Y020206D02*
X013327Y020206D01*
X013294Y020265D02*
X012649Y020265D01*
X012615Y020323D02*
X013260Y020323D01*
X013226Y020382D02*
X012581Y020382D01*
X012548Y020440D02*
X013192Y020440D01*
X013158Y020499D02*
X012514Y020499D01*
X012480Y020557D02*
X013125Y020557D01*
X013091Y020616D02*
X012447Y020616D01*
X012413Y020674D02*
X013057Y020674D01*
X013023Y020733D02*
X012379Y020733D01*
X012345Y020791D02*
X012990Y020791D01*
X012956Y020850D02*
X012312Y020850D01*
X012278Y020908D02*
X012922Y020908D01*
X012888Y020967D02*
X012244Y020967D01*
X012211Y021025D02*
X012854Y021025D01*
X012821Y021084D02*
X012177Y021084D01*
X012143Y021142D02*
X012787Y021142D01*
X012753Y021201D02*
X012109Y021201D01*
X012076Y021259D02*
X012719Y021259D01*
X012686Y021318D02*
X012042Y021318D01*
X012134Y021493D02*
X012586Y021493D01*
X012551Y021552D02*
X012234Y021552D01*
X012334Y021610D02*
X012516Y021610D01*
X012481Y021669D02*
X012434Y021669D01*
X018329Y019879D02*
X018801Y019594D01*
X019200Y020285D01*
X019679Y021139D01*
X019199Y021409D01*
X018329Y019879D01*
X018349Y019914D02*
X018986Y019914D01*
X019019Y019972D02*
X018382Y019972D01*
X018416Y020031D02*
X019053Y020031D01*
X019087Y020089D02*
X018449Y020089D01*
X018482Y020148D02*
X019121Y020148D01*
X019154Y020206D02*
X018515Y020206D01*
X018549Y020265D02*
X019188Y020265D01*
X019221Y020323D02*
X018582Y020323D01*
X018615Y020382D02*
X019254Y020382D01*
X019287Y020440D02*
X018648Y020440D01*
X018682Y020499D02*
X019320Y020499D01*
X019353Y020557D02*
X018715Y020557D01*
X018748Y020616D02*
X019386Y020616D01*
X019418Y020674D02*
X018781Y020674D01*
X018815Y020733D02*
X019451Y020733D01*
X019484Y020791D02*
X018848Y020791D01*
X018881Y020850D02*
X019517Y020850D01*
X019550Y020908D02*
X018915Y020908D01*
X018948Y020967D02*
X019583Y020967D01*
X019615Y021025D02*
X018981Y021025D01*
X019014Y021084D02*
X019648Y021084D01*
X019674Y021142D02*
X019048Y021142D01*
X019081Y021201D02*
X019570Y021201D01*
X019466Y021259D02*
X019114Y021259D01*
X019147Y021318D02*
X019362Y021318D01*
X019258Y021376D02*
X019181Y021376D01*
X018952Y019855D02*
X018369Y019855D01*
X018466Y019797D02*
X018918Y019797D01*
X018884Y019738D02*
X018563Y019738D01*
X018659Y019680D02*
X018850Y019680D01*
X018817Y019621D02*
X018756Y019621D01*
X021039Y015199D02*
X022809Y015199D01*
X022809Y014619D01*
X022556Y014619D01*
X022550Y014622D01*
X022358Y014622D01*
X021039Y014622D01*
X021039Y015199D01*
X021039Y015175D02*
X022809Y015175D01*
X022809Y015117D02*
X021039Y015117D01*
X021039Y015058D02*
X022809Y015058D01*
X022809Y015000D02*
X021039Y015000D01*
X021039Y014941D02*
X022809Y014941D01*
X022809Y014883D02*
X021039Y014883D01*
X021039Y014824D02*
X022809Y014824D01*
X022809Y014766D02*
X021039Y014766D01*
X021039Y014707D02*
X022809Y014707D01*
X022809Y014649D02*
X021039Y014649D01*
X022358Y014622D02*
X022358Y014622D01*
X018349Y010529D02*
X017844Y010232D01*
X018573Y008970D01*
X018573Y008970D01*
X018619Y008889D01*
X018619Y008889D01*
X018620Y008883D01*
X018749Y008659D01*
X019249Y008949D01*
X018349Y010529D01*
X018369Y010495D02*
X018292Y010495D01*
X018192Y010437D02*
X018402Y010437D01*
X018435Y010378D02*
X018093Y010378D01*
X017993Y010320D02*
X018469Y010320D01*
X018502Y010261D02*
X017894Y010261D01*
X017861Y010203D02*
X018535Y010203D01*
X018569Y010144D02*
X017895Y010144D01*
X017929Y010086D02*
X018602Y010086D01*
X018635Y010027D02*
X017962Y010027D01*
X017996Y009969D02*
X018669Y009969D01*
X018702Y009910D02*
X018030Y009910D01*
X018064Y009852D02*
X018735Y009852D01*
X018769Y009793D02*
X018098Y009793D01*
X018131Y009735D02*
X018802Y009735D01*
X018835Y009676D02*
X018165Y009676D01*
X018199Y009618D02*
X018869Y009618D01*
X018902Y009559D02*
X018233Y009559D01*
X018266Y009501D02*
X018935Y009501D01*
X018969Y009442D02*
X018300Y009442D01*
X018334Y009384D02*
X019002Y009384D01*
X019035Y009325D02*
X018368Y009325D01*
X018401Y009267D02*
X019068Y009267D01*
X019102Y009208D02*
X018435Y009208D01*
X018469Y009150D02*
X019135Y009150D01*
X019168Y009091D02*
X018503Y009091D01*
X018537Y009033D02*
X019202Y009033D01*
X019235Y008974D02*
X018570Y008974D01*
X018604Y008916D02*
X019192Y008916D01*
X019091Y008857D02*
X018635Y008857D01*
X018668Y008799D02*
X018990Y008799D01*
X018889Y008740D02*
X018702Y008740D01*
X018736Y008682D02*
X018788Y008682D01*
D14*
X008907Y008856D02*
X008170Y009747D01*
X007550Y010723D01*
X007058Y011770D01*
X006700Y012870D01*
X006483Y014006D01*
X006411Y015160D01*
X006483Y016314D01*
X006700Y017450D01*
X007058Y018550D01*
X007550Y019597D01*
X008170Y020573D01*
X008907Y021464D01*
X009750Y022256D01*
X010685Y022936D01*
X011699Y023493D01*
X012774Y023918D01*
X013894Y024206D01*
X015042Y024351D01*
X016198Y024351D01*
X017346Y024206D01*
X018466Y023918D01*
X019541Y023493D01*
X020555Y022936D01*
X021490Y022256D01*
X022333Y021464D01*
X023070Y020573D01*
X023690Y019597D01*
X024182Y018550D01*
X024540Y017450D01*
X024757Y016314D01*
X024829Y015160D01*
X024757Y014006D01*
X024540Y012870D01*
X024182Y011770D01*
X023690Y010723D01*
X023070Y009747D01*
X022333Y008856D01*
X021490Y008064D01*
X020555Y007384D01*
X019541Y006827D01*
X018466Y006402D01*
X017346Y006114D01*
X016198Y005969D01*
X015042Y005969D01*
X013894Y006114D01*
X012774Y006402D01*
X011699Y006827D01*
X010685Y007384D01*
X009750Y008064D01*
X008907Y008856D01*
X008902Y008862D02*
X011913Y008862D01*
X011914Y008861D02*
X011916Y008856D01*
X011951Y008836D01*
X011985Y008813D01*
X011990Y008814D01*
X011995Y008811D01*
X012035Y008822D01*
X012075Y008830D01*
X012078Y008834D01*
X012083Y008836D01*
X012103Y008871D01*
X012126Y008905D01*
X012125Y008910D01*
X013004Y010477D01*
X013005Y010477D01*
X013026Y010517D01*
X013048Y010555D01*
X013047Y010557D01*
X013048Y010558D01*
X013035Y010600D01*
X013023Y010643D01*
X013022Y010644D01*
X013021Y010645D01*
X012982Y010666D01*
X012943Y010688D01*
X012942Y010687D01*
X012533Y010906D01*
X012532Y010906D01*
X014099Y013621D01*
X014123Y013662D01*
X014190Y013779D01*
X014218Y014047D01*
X014135Y014303D01*
X013955Y014503D01*
X013709Y014612D01*
X013622Y014612D01*
X013622Y014612D01*
X008692Y014612D01*
X008438Y014494D01*
X008438Y014494D01*
X008257Y014279D01*
X008184Y014008D01*
X008200Y013917D01*
X008208Y013870D01*
X008299Y013349D01*
X008299Y013349D01*
X008625Y012341D01*
X009089Y011389D01*
X009681Y010511D01*
X010391Y009725D01*
X010797Y009386D01*
X010834Y009355D01*
X010905Y009296D01*
X011176Y009224D01*
X011452Y009273D01*
X011452Y009273D01*
X011470Y009286D01*
X011459Y009275D01*
X011459Y009263D01*
X011453Y009254D01*
X011459Y009219D01*
X011459Y009184D01*
X011468Y009176D01*
X011470Y009164D01*
X011499Y009144D01*
X011524Y009119D01*
X011535Y009119D01*
X011914Y008861D01*
X011969Y008823D02*
X008941Y008823D01*
X008982Y008785D02*
X012621Y008785D01*
X012625Y008823D02*
X012041Y008823D01*
X012098Y008862D02*
X012628Y008862D01*
X012630Y008886D02*
X012606Y008607D01*
X012701Y008343D01*
X012899Y008145D01*
X012899Y008145D01*
X012986Y008113D01*
X013031Y008096D01*
X013528Y007914D01*
X014564Y007693D01*
X015620Y007618D01*
X016676Y007693D01*
X017712Y007914D01*
X018209Y008096D01*
X018209Y008096D01*
X018250Y008111D01*
X018341Y008145D01*
X018539Y008343D01*
X018539Y008343D01*
X018634Y008607D01*
X018631Y008644D01*
X018631Y008644D01*
X018631Y008644D01*
X018654Y008605D01*
X018677Y008565D01*
X018677Y008565D01*
X018677Y008565D01*
X018719Y008554D01*
X018765Y008541D01*
X018765Y008541D01*
X018765Y008541D01*
X018804Y008564D01*
X018844Y008587D01*
X018844Y008587D01*
X019304Y008854D01*
X019343Y008876D01*
X019344Y008877D01*
X019356Y008921D01*
X019368Y008964D01*
X019367Y008965D01*
X019345Y009004D01*
X018467Y010545D01*
X018467Y010546D01*
X018445Y010584D01*
X018422Y010623D01*
X018422Y010624D01*
X018421Y010624D01*
X018378Y010636D01*
X018335Y010648D01*
X018334Y010647D01*
X018333Y010647D01*
X018294Y010625D01*
X018255Y010602D01*
X017784Y010324D01*
X017781Y010322D01*
X016169Y013114D01*
X016169Y013114D01*
X016101Y013231D01*
X015883Y013389D01*
X015620Y013445D01*
X015357Y013389D01*
X015139Y013231D01*
X015071Y013114D01*
X015051Y013080D01*
X012724Y009049D01*
X012700Y009008D01*
X012630Y008886D01*
X012630Y008886D01*
X012638Y008900D02*
X012123Y008900D01*
X012141Y008939D02*
X012661Y008939D01*
X012683Y008977D02*
X012162Y008977D01*
X012184Y009016D02*
X012705Y009016D01*
X012727Y009054D02*
X012206Y009054D01*
X012227Y009093D02*
X012750Y009093D01*
X012772Y009131D02*
X012249Y009131D01*
X012270Y009170D02*
X012794Y009170D01*
X012816Y009208D02*
X012292Y009208D01*
X012314Y009247D02*
X012839Y009247D01*
X012861Y009285D02*
X012335Y009285D01*
X012357Y009324D02*
X012883Y009324D01*
X012905Y009362D02*
X012378Y009362D01*
X012400Y009401D02*
X012927Y009401D01*
X012950Y009439D02*
X012422Y009439D01*
X012443Y009478D02*
X012972Y009478D01*
X012994Y009516D02*
X012465Y009516D01*
X012486Y009555D02*
X013016Y009555D01*
X013039Y009593D02*
X012508Y009593D01*
X012530Y009632D02*
X013061Y009632D01*
X013083Y009670D02*
X012551Y009670D01*
X012573Y009709D02*
X013105Y009709D01*
X013128Y009747D02*
X012594Y009747D01*
X012616Y009786D02*
X013150Y009786D01*
X013172Y009824D02*
X012638Y009824D01*
X012659Y009863D02*
X013194Y009863D01*
X013216Y009901D02*
X012681Y009901D01*
X012702Y009940D02*
X013239Y009940D01*
X013261Y009978D02*
X012724Y009978D01*
X012746Y010017D02*
X013283Y010017D01*
X013305Y010055D02*
X012767Y010055D01*
X012789Y010094D02*
X013328Y010094D01*
X013350Y010132D02*
X012810Y010132D01*
X012832Y010171D02*
X013372Y010171D01*
X013394Y010209D02*
X012854Y010209D01*
X012875Y010248D02*
X013416Y010248D01*
X013439Y010286D02*
X012897Y010286D01*
X012918Y010325D02*
X013461Y010325D01*
X013483Y010363D02*
X012940Y010363D01*
X012962Y010402D02*
X013505Y010402D01*
X013528Y010440D02*
X012983Y010440D01*
X013006Y010479D02*
X013550Y010479D01*
X013572Y010517D02*
X013026Y010517D01*
X013047Y010556D02*
X013594Y010556D01*
X013617Y010594D02*
X013037Y010594D01*
X013026Y010633D02*
X013639Y010633D01*
X013661Y010671D02*
X012972Y010671D01*
X012900Y010710D02*
X013683Y010710D01*
X013705Y010748D02*
X012827Y010748D01*
X012755Y010787D02*
X013728Y010787D01*
X013750Y010825D02*
X012683Y010825D01*
X012611Y010864D02*
X013772Y010864D01*
X013794Y010902D02*
X012539Y010902D01*
X012552Y010941D02*
X013817Y010941D01*
X013839Y010979D02*
X012574Y010979D01*
X012596Y011018D02*
X013861Y011018D01*
X013883Y011056D02*
X012618Y011056D01*
X012641Y011095D02*
X013905Y011095D01*
X013928Y011133D02*
X012663Y011133D01*
X012685Y011172D02*
X013950Y011172D01*
X013972Y011210D02*
X012707Y011210D01*
X012729Y011249D02*
X013994Y011249D01*
X014017Y011287D02*
X012752Y011287D01*
X012774Y011326D02*
X014039Y011326D01*
X014061Y011364D02*
X012796Y011364D01*
X012818Y011403D02*
X014083Y011403D01*
X014106Y011441D02*
X012841Y011441D01*
X012863Y011480D02*
X014128Y011480D01*
X014150Y011518D02*
X012885Y011518D01*
X012907Y011557D02*
X014172Y011557D01*
X014194Y011595D02*
X012930Y011595D01*
X012952Y011634D02*
X014217Y011634D01*
X014239Y011672D02*
X012974Y011672D01*
X012996Y011711D02*
X014261Y011711D01*
X014283Y011749D02*
X013018Y011749D01*
X013041Y011788D02*
X014306Y011788D01*
X014328Y011826D02*
X013063Y011826D01*
X013085Y011865D02*
X014350Y011865D01*
X014372Y011903D02*
X013107Y011903D01*
X013130Y011942D02*
X014395Y011942D01*
X014417Y011980D02*
X013152Y011980D01*
X013174Y012019D02*
X014439Y012019D01*
X014461Y012057D02*
X013196Y012057D01*
X013219Y012096D02*
X014483Y012096D01*
X014506Y012134D02*
X013241Y012134D01*
X013263Y012173D02*
X014528Y012173D01*
X014550Y012211D02*
X013285Y012211D01*
X013307Y012250D02*
X014572Y012250D01*
X014595Y012288D02*
X013330Y012288D01*
X013352Y012327D02*
X014617Y012327D01*
X014639Y012365D02*
X013374Y012365D01*
X013396Y012404D02*
X014661Y012404D01*
X014683Y012442D02*
X013419Y012442D01*
X013441Y012481D02*
X014706Y012481D01*
X014728Y012519D02*
X013463Y012519D01*
X013485Y012558D02*
X014750Y012558D01*
X014772Y012596D02*
X013507Y012596D01*
X013530Y012635D02*
X014795Y012635D01*
X014817Y012673D02*
X013552Y012673D01*
X013574Y012712D02*
X014839Y012712D01*
X014861Y012750D02*
X013596Y012750D01*
X013619Y012789D02*
X014884Y012789D01*
X014906Y012827D02*
X013641Y012827D01*
X013663Y012866D02*
X014928Y012866D01*
X014950Y012904D02*
X013685Y012904D01*
X013708Y012943D02*
X014972Y012943D01*
X014995Y012981D02*
X013730Y012981D01*
X013752Y013020D02*
X015017Y013020D01*
X015039Y013058D02*
X013774Y013058D01*
X013796Y013097D02*
X015061Y013097D01*
X015084Y013135D02*
X013819Y013135D01*
X013841Y013174D02*
X015106Y013174D01*
X015128Y013212D02*
X013863Y013212D01*
X013885Y013251D02*
X015166Y013251D01*
X015139Y013231D02*
X015139Y013231D01*
X015139Y013231D01*
X015219Y013289D02*
X013908Y013289D01*
X013930Y013328D02*
X015272Y013328D01*
X015325Y013366D02*
X013952Y013366D01*
X013974Y013405D02*
X015430Y013405D01*
X015357Y013389D02*
X015357Y013389D01*
X015611Y013443D02*
X013996Y013443D01*
X014019Y013482D02*
X017221Y013482D01*
X017199Y013520D02*
X014041Y013520D01*
X014063Y013559D02*
X017177Y013559D01*
X017155Y013597D02*
X014085Y013597D01*
X014099Y013621D02*
X014099Y013621D01*
X014108Y013636D02*
X017132Y013636D01*
X017141Y013621D02*
X017141Y013621D01*
X017117Y013662D01*
X017050Y013779D01*
X017050Y013779D01*
X017022Y014047D01*
X017022Y014047D01*
X017105Y014303D01*
X017105Y014303D01*
X017285Y014503D01*
X017285Y014503D01*
X017531Y014612D01*
X020929Y014612D01*
X020929Y015245D01*
X020994Y015309D01*
X022855Y015309D01*
X022919Y015245D01*
X022919Y014574D01*
X022855Y014509D01*
X022769Y014509D01*
X022802Y014494D01*
X022802Y014494D01*
X022983Y014279D01*
X022983Y014279D01*
X023056Y014008D01*
X023056Y014008D01*
X023032Y013870D01*
X023024Y013823D01*
X023024Y013823D01*
X022941Y013349D01*
X022615Y012341D01*
X022151Y011389D01*
X022151Y011389D01*
X021559Y010511D01*
X020849Y009725D01*
X020849Y009725D01*
X020849Y009725D01*
X020443Y009386D01*
X020406Y009355D01*
X020406Y009355D01*
X020335Y009296D01*
X020335Y009296D01*
X020064Y009224D01*
X020064Y009224D01*
X019788Y009273D01*
X019788Y009273D01*
X019558Y009434D01*
X019558Y009434D01*
X019488Y009555D01*
X019472Y009583D01*
X017141Y013621D01*
X017110Y013674D02*
X014130Y013674D01*
X014152Y013713D02*
X017088Y013713D01*
X017066Y013751D02*
X014174Y013751D01*
X014190Y013779D02*
X014190Y013779D01*
X014191Y013790D02*
X017049Y013790D01*
X017045Y013828D02*
X014195Y013828D01*
X014199Y013867D02*
X017041Y013867D01*
X017037Y013905D02*
X014203Y013905D01*
X014207Y013944D02*
X017033Y013944D01*
X017028Y013982D02*
X015909Y013982D01*
X015833Y013955D02*
X016232Y014100D01*
X016558Y014373D01*
X016770Y014741D01*
X016770Y014741D01*
X016844Y015160D01*
X016770Y015579D01*
X016558Y015947D01*
X016558Y015947D01*
X016558Y015947D01*
X016232Y016220D01*
X015833Y016365D01*
X015407Y016365D01*
X015008Y016220D01*
X014682Y015947D01*
X014682Y015947D01*
X014470Y015579D01*
X014470Y015579D01*
X014396Y015160D01*
X014470Y014741D01*
X014682Y014373D01*
X014682Y014373D01*
X014682Y014373D01*
X015008Y014100D01*
X015008Y014100D01*
X015407Y013955D01*
X015833Y013955D01*
X016015Y014021D02*
X017024Y014021D01*
X017026Y014059D02*
X016120Y014059D01*
X016226Y014098D02*
X017038Y014098D01*
X017051Y014136D02*
X016275Y014136D01*
X016232Y014100D02*
X016232Y014100D01*
X016321Y014175D02*
X017063Y014175D01*
X017076Y014213D02*
X016367Y014213D01*
X016413Y014252D02*
X017088Y014252D01*
X017101Y014290D02*
X016459Y014290D01*
X016505Y014329D02*
X017129Y014329D01*
X017163Y014367D02*
X016551Y014367D01*
X016558Y014373D02*
X016558Y014373D01*
X016576Y014406D02*
X017198Y014406D01*
X017233Y014444D02*
X016599Y014444D01*
X016621Y014483D02*
X017267Y014483D01*
X017327Y014521D02*
X016643Y014521D01*
X016665Y014560D02*
X017414Y014560D01*
X017500Y014598D02*
X016688Y014598D01*
X016710Y014637D02*
X020929Y014637D01*
X020929Y014675D02*
X016732Y014675D01*
X016754Y014714D02*
X020929Y014714D01*
X020929Y014752D02*
X016772Y014752D01*
X016779Y014791D02*
X020929Y014791D01*
X020929Y014829D02*
X016786Y014829D01*
X016792Y014868D02*
X020929Y014868D01*
X020929Y014906D02*
X016799Y014906D01*
X016806Y014945D02*
X020929Y014945D01*
X020929Y014983D02*
X016813Y014983D01*
X016820Y015022D02*
X020929Y015022D01*
X020929Y015060D02*
X016826Y015060D01*
X016833Y015099D02*
X020929Y015099D01*
X020929Y015137D02*
X016840Y015137D01*
X016841Y015176D02*
X020929Y015176D01*
X020929Y015214D02*
X016834Y015214D01*
X016828Y015253D02*
X020937Y015253D01*
X020976Y015291D02*
X016821Y015291D01*
X016814Y015330D02*
X023324Y015330D01*
X023314Y015307D02*
X023314Y015228D01*
X023299Y015160D01*
X023314Y015092D01*
X023314Y015047D01*
X023338Y014991D01*
X023366Y014868D01*
X022919Y014868D01*
X022919Y014906D02*
X023357Y014906D01*
X023366Y014868D02*
X023366Y014868D01*
X023413Y014809D01*
X023414Y014807D01*
X023417Y014803D01*
X023552Y014634D01*
X023552Y014634D01*
X023822Y014504D01*
X024121Y014504D01*
X024391Y014634D01*
X024391Y014634D01*
X024578Y014868D01*
X024578Y014868D01*
X024616Y015036D01*
X024621Y015047D01*
X024621Y015055D01*
X024645Y015160D01*
X024621Y015265D01*
X024621Y015307D01*
X024599Y015358D01*
X024578Y015452D01*
X024542Y015498D01*
X024521Y015547D01*
X024428Y015639D01*
X024391Y015686D01*
X024373Y015695D01*
X024337Y015730D01*
X024097Y015830D01*
X023838Y015830D01*
X023598Y015730D01*
X023554Y015687D01*
X023552Y015686D01*
X023548Y015681D01*
X023414Y015547D01*
X023385Y015476D01*
X023366Y015452D01*
X023366Y015452D01*
X023355Y015403D01*
X023314Y015307D01*
X023314Y015291D02*
X022873Y015291D01*
X022911Y015253D02*
X023314Y015253D01*
X023311Y015214D02*
X022919Y015214D01*
X022919Y015176D02*
X023303Y015176D01*
X023299Y015160D02*
X023299Y015160D01*
X023304Y015137D02*
X022919Y015137D01*
X022919Y015099D02*
X023313Y015099D01*
X023314Y015060D02*
X022919Y015060D01*
X022919Y015022D02*
X023325Y015022D01*
X023339Y014983D02*
X022919Y014983D01*
X022919Y014945D02*
X023348Y014945D01*
X023396Y014829D02*
X022919Y014829D01*
X022919Y014791D02*
X023427Y014791D01*
X023458Y014752D02*
X022919Y014752D01*
X022919Y014714D02*
X023489Y014714D01*
X023519Y014675D02*
X022919Y014675D01*
X022919Y014637D02*
X023550Y014637D01*
X023626Y014598D02*
X022919Y014598D01*
X022906Y014560D02*
X023706Y014560D01*
X023786Y014521D02*
X022867Y014521D01*
X022811Y014483D02*
X024787Y014483D01*
X024789Y014521D02*
X024158Y014521D01*
X024237Y014560D02*
X024791Y014560D01*
X024794Y014598D02*
X024317Y014598D01*
X024391Y014634D02*
X024391Y014634D01*
X024394Y014637D02*
X024796Y014637D01*
X024799Y014675D02*
X024424Y014675D01*
X024455Y014714D02*
X024801Y014714D01*
X024803Y014752D02*
X024486Y014752D01*
X024516Y014791D02*
X024806Y014791D01*
X024808Y014829D02*
X024547Y014829D01*
X024578Y014868D02*
X024811Y014868D01*
X024813Y014906D02*
X024587Y014906D01*
X024595Y014945D02*
X024816Y014945D01*
X024818Y014983D02*
X024604Y014983D01*
X024613Y015022D02*
X024820Y015022D01*
X024823Y015060D02*
X024622Y015060D01*
X024631Y015099D02*
X024825Y015099D01*
X024828Y015137D02*
X024639Y015137D01*
X024641Y015176D02*
X024828Y015176D01*
X024826Y015214D02*
X024632Y015214D01*
X024623Y015253D02*
X024823Y015253D01*
X024821Y015291D02*
X024621Y015291D01*
X024611Y015330D02*
X024818Y015330D01*
X024816Y015368D02*
X024597Y015368D01*
X024588Y015407D02*
X024814Y015407D01*
X024811Y015445D02*
X024579Y015445D01*
X024578Y015452D02*
X024578Y015452D01*
X024552Y015484D02*
X024809Y015484D01*
X024806Y015522D02*
X024531Y015522D01*
X024507Y015561D02*
X024804Y015561D01*
X024801Y015599D02*
X024468Y015599D01*
X024430Y015638D02*
X024799Y015638D01*
X024797Y015676D02*
X024399Y015676D01*
X024391Y015686D02*
X024391Y015686D01*
X024353Y015715D02*
X024794Y015715D01*
X024792Y015753D02*
X024281Y015753D01*
X024189Y015792D02*
X024789Y015792D01*
X024787Y015830D02*
X022806Y015830D01*
X022802Y015826D02*
X022983Y016041D01*
X023056Y016312D01*
X023040Y016403D01*
X023032Y016450D01*
X022941Y016971D01*
X022615Y017979D01*
X022151Y018931D01*
X021559Y019809D01*
X020849Y020595D01*
X020443Y020934D01*
X020406Y020965D01*
X020335Y021024D01*
X020064Y021096D01*
X019788Y021047D01*
X019788Y021047D01*
X019731Y021007D01*
X019776Y021086D01*
X019798Y021125D01*
X019798Y021125D01*
X019785Y021169D01*
X019773Y021213D01*
X019733Y021235D01*
X019254Y021505D01*
X019214Y021528D01*
X019214Y021527D01*
X019214Y021528D01*
X019170Y021515D01*
X019126Y021503D01*
X019126Y021503D01*
X019126Y021503D01*
X019104Y021464D01*
X018234Y019935D01*
X018212Y019897D01*
X018212Y019896D01*
X018211Y019894D01*
X018223Y019852D01*
X018233Y019809D01*
X018235Y019808D01*
X018235Y019806D01*
X018274Y019784D01*
X018715Y019518D01*
X018716Y019516D01*
X018754Y019494D01*
X018755Y019494D01*
X017141Y016699D01*
X017117Y016658D01*
X017050Y016541D01*
X017022Y016273D01*
X017105Y016017D01*
X017285Y015817D01*
X017285Y015817D01*
X017531Y015708D01*
X017618Y015708D01*
X017618Y015708D01*
X022548Y015708D01*
X022802Y015826D01*
X022802Y015826D01*
X022838Y015869D02*
X024785Y015869D01*
X024782Y015907D02*
X022871Y015907D01*
X022903Y015946D02*
X024780Y015946D01*
X024777Y015984D02*
X022935Y015984D01*
X022968Y016023D02*
X024775Y016023D01*
X024772Y016061D02*
X022988Y016061D01*
X022983Y016041D02*
X022983Y016041D01*
X022999Y016100D02*
X024770Y016100D01*
X024768Y016138D02*
X023009Y016138D01*
X023020Y016177D02*
X024765Y016177D01*
X024763Y016215D02*
X023030Y016215D01*
X023040Y016254D02*
X024760Y016254D01*
X024758Y016292D02*
X023051Y016292D01*
X023056Y016312D02*
X023056Y016312D01*
X023052Y016331D02*
X024753Y016331D01*
X024746Y016369D02*
X023046Y016369D01*
X023040Y016403D02*
X023040Y016403D01*
X023039Y016408D02*
X024739Y016408D01*
X024731Y016446D02*
X023032Y016446D01*
X023026Y016485D02*
X024724Y016485D01*
X024717Y016523D02*
X023019Y016523D01*
X023012Y016562D02*
X024709Y016562D01*
X024702Y016600D02*
X023006Y016600D01*
X022999Y016639D02*
X024695Y016639D01*
X024687Y016677D02*
X022992Y016677D01*
X022985Y016716D02*
X024680Y016716D01*
X024673Y016754D02*
X022979Y016754D01*
X022972Y016793D02*
X024665Y016793D01*
X024658Y016831D02*
X022965Y016831D01*
X022959Y016870D02*
X024650Y016870D01*
X024643Y016908D02*
X022952Y016908D01*
X022945Y016947D02*
X024636Y016947D01*
X024628Y016985D02*
X022936Y016985D01*
X022924Y017024D02*
X024621Y017024D01*
X024614Y017062D02*
X022912Y017062D01*
X022899Y017101D02*
X024606Y017101D01*
X024599Y017139D02*
X022887Y017139D01*
X022874Y017178D02*
X024592Y017178D01*
X024584Y017216D02*
X022862Y017216D01*
X022849Y017255D02*
X024577Y017255D01*
X024570Y017293D02*
X022837Y017293D01*
X022824Y017332D02*
X024562Y017332D01*
X024555Y017370D02*
X022812Y017370D01*
X022799Y017409D02*
X024548Y017409D01*
X024540Y017447D02*
X022787Y017447D01*
X022775Y017486D02*
X024528Y017486D01*
X024516Y017524D02*
X022762Y017524D01*
X022750Y017563D02*
X024503Y017563D01*
X024491Y017601D02*
X022737Y017601D01*
X022725Y017640D02*
X024478Y017640D01*
X024466Y017678D02*
X022712Y017678D01*
X022700Y017717D02*
X024453Y017717D01*
X024441Y017755D02*
X022687Y017755D01*
X022675Y017794D02*
X024428Y017794D01*
X024416Y017832D02*
X022662Y017832D01*
X022650Y017871D02*
X024403Y017871D01*
X024391Y017909D02*
X022638Y017909D01*
X022625Y017948D02*
X024378Y017948D01*
X024366Y017986D02*
X022611Y017986D01*
X022593Y018025D02*
X024353Y018025D01*
X024341Y018063D02*
X022574Y018063D01*
X022555Y018102D02*
X024328Y018102D01*
X024316Y018140D02*
X022536Y018140D01*
X022518Y018179D02*
X024303Y018179D01*
X024291Y018217D02*
X022499Y018217D01*
X022480Y018256D02*
X024278Y018256D01*
X024265Y018294D02*
X022461Y018294D01*
X022443Y018333D02*
X024253Y018333D01*
X024240Y018371D02*
X022424Y018371D01*
X022405Y018410D02*
X024228Y018410D01*
X024215Y018448D02*
X022386Y018448D01*
X022368Y018487D02*
X024203Y018487D01*
X024190Y018525D02*
X022349Y018525D01*
X022330Y018564D02*
X024176Y018564D01*
X024158Y018602D02*
X022311Y018602D01*
X022293Y018641D02*
X024140Y018641D01*
X024122Y018679D02*
X022274Y018679D01*
X022255Y018718D02*
X024103Y018718D01*
X024085Y018756D02*
X022236Y018756D01*
X022218Y018795D02*
X024067Y018795D01*
X024049Y018833D02*
X022199Y018833D01*
X022180Y018872D02*
X024031Y018872D01*
X024013Y018910D02*
X022161Y018910D01*
X022139Y018949D02*
X023995Y018949D01*
X023977Y018987D02*
X022113Y018987D01*
X022087Y019026D02*
X023959Y019026D01*
X023940Y019064D02*
X022061Y019064D01*
X022035Y019103D02*
X023922Y019103D01*
X023904Y019141D02*
X022009Y019141D01*
X021983Y019180D02*
X023886Y019180D01*
X023868Y019218D02*
X021957Y019218D01*
X021931Y019257D02*
X023850Y019257D01*
X023832Y019295D02*
X021905Y019295D01*
X021879Y019334D02*
X023814Y019334D01*
X023795Y019372D02*
X021853Y019372D01*
X021827Y019411D02*
X023777Y019411D01*
X023759Y019449D02*
X021801Y019449D01*
X021775Y019488D02*
X023741Y019488D01*
X023723Y019526D02*
X021749Y019526D01*
X021723Y019565D02*
X023705Y019565D01*
X023686Y019603D02*
X021697Y019603D01*
X021671Y019642D02*
X023661Y019642D01*
X023637Y019680D02*
X021645Y019680D01*
X021619Y019719D02*
X023612Y019719D01*
X023588Y019757D02*
X021593Y019757D01*
X021567Y019796D02*
X023563Y019796D01*
X023539Y019834D02*
X021535Y019834D01*
X021501Y019873D02*
X023515Y019873D01*
X023490Y019911D02*
X021466Y019911D01*
X021431Y019950D02*
X023466Y019950D01*
X023441Y019988D02*
X021396Y019988D01*
X021362Y020027D02*
X023417Y020027D01*
X023392Y020065D02*
X021327Y020065D01*
X021292Y020104D02*
X023368Y020104D01*
X023344Y020142D02*
X021257Y020142D01*
X021223Y020181D02*
X023319Y020181D01*
X023295Y020219D02*
X021188Y020219D01*
X021153Y020258D02*
X023270Y020258D01*
X023246Y020296D02*
X021118Y020296D01*
X021083Y020335D02*
X023221Y020335D01*
X023197Y020373D02*
X021049Y020373D01*
X021014Y020412D02*
X023173Y020412D01*
X023148Y020450D02*
X020979Y020450D01*
X020944Y020489D02*
X023124Y020489D01*
X023099Y020528D02*
X020910Y020528D01*
X020875Y020566D02*
X023075Y020566D01*
X023044Y020605D02*
X020837Y020605D01*
X020849Y020595D02*
X020849Y020595D01*
X020791Y020643D02*
X023012Y020643D01*
X022981Y020682D02*
X020745Y020682D01*
X020699Y020720D02*
X022949Y020720D01*
X022917Y020759D02*
X020653Y020759D01*
X020607Y020797D02*
X022885Y020797D01*
X022853Y020836D02*
X020561Y020836D01*
X020515Y020874D02*
X022821Y020874D01*
X022789Y020913D02*
X020468Y020913D01*
X020422Y020951D02*
X022758Y020951D01*
X022726Y020990D02*
X020376Y020990D01*
X020406Y020965D02*
X020406Y020965D01*
X020335Y021024D02*
X020335Y021024D01*
X020320Y021028D02*
X022694Y021028D01*
X022662Y021067D02*
X020175Y021067D01*
X020064Y021096D02*
X020064Y021096D01*
X019898Y021067D02*
X019765Y021067D01*
X019761Y021028D02*
X019743Y021028D01*
X019786Y021105D02*
X022630Y021105D01*
X022598Y021144D02*
X019792Y021144D01*
X019798Y021125D02*
X019798Y021125D01*
X019782Y021182D02*
X022567Y021182D01*
X022535Y021221D02*
X019760Y021221D01*
X019773Y021213D02*
X019773Y021213D01*
X019773Y021213D01*
X019691Y021259D02*
X022503Y021259D01*
X022471Y021298D02*
X019623Y021298D01*
X019554Y021336D02*
X022439Y021336D01*
X022407Y021375D02*
X019486Y021375D01*
X019417Y021413D02*
X022375Y021413D01*
X022344Y021452D02*
X019349Y021452D01*
X019280Y021490D02*
X022306Y021490D01*
X022265Y021529D02*
X018618Y021529D01*
X018621Y021567D02*
X022224Y021567D01*
X022183Y021606D02*
X018625Y021606D01*
X018628Y021644D02*
X022142Y021644D01*
X022101Y021683D02*
X018632Y021683D01*
X018634Y021713D02*
X018634Y021713D01*
X018539Y021977D01*
X018341Y022175D01*
X018341Y022175D01*
X018209Y022224D01*
X018199Y022227D01*
X017712Y022406D01*
X016676Y022627D01*
X015620Y022702D01*
X014564Y022627D01*
X014564Y022627D01*
X013528Y022406D01*
X013031Y022224D01*
X013017Y022218D01*
X012899Y022175D01*
X012701Y021977D01*
X012606Y021713D01*
X012610Y021668D01*
X012564Y021745D01*
X012541Y021784D01*
X012541Y021785D01*
X012497Y021796D01*
X012453Y021807D01*
X012452Y021807D01*
X012414Y021784D01*
X011934Y021505D01*
X011895Y021482D01*
X011895Y021482D01*
X011895Y021481D01*
X011883Y021438D01*
X011871Y021394D01*
X011871Y021394D01*
X011871Y021393D01*
X011894Y021354D01*
X012741Y019884D01*
X012741Y019884D01*
X012764Y019845D01*
X012787Y019805D01*
X012787Y019805D01*
X012787Y019805D01*
X012831Y019793D01*
X012875Y019781D01*
X012875Y019781D01*
X012914Y019804D01*
X012954Y019827D01*
X013376Y020072D01*
X013376Y020072D01*
X013406Y020089D01*
X015082Y017187D01*
X015139Y017089D01*
X015357Y016931D01*
X015620Y016875D01*
X015883Y016931D01*
X016101Y017089D01*
X016101Y017089D01*
X016169Y017206D01*
X016188Y017239D01*
X018516Y021271D01*
X018540Y021312D01*
X018610Y021434D01*
X018634Y021713D01*
X018631Y021721D02*
X022060Y021721D01*
X022019Y021760D02*
X019992Y021760D01*
X019946Y021737D02*
X020215Y021867D01*
X020328Y022008D01*
X020356Y022036D01*
X020362Y022050D01*
X020402Y022101D01*
X020426Y022205D01*
X020455Y022276D01*
X020455Y022333D01*
X020469Y022393D01*
X020469Y022393D01*
X020455Y022453D01*
X020455Y022535D01*
X020413Y022637D01*
X020402Y022685D01*
X020384Y022708D01*
X020356Y022776D01*
X020228Y022903D01*
X020215Y022919D01*
X020209Y022922D01*
X020172Y022959D01*
X019932Y023059D01*
X019672Y023059D01*
X019648Y023049D01*
X019646Y023049D01*
X019635Y023043D01*
X019432Y022959D01*
X019406Y022933D01*
X019376Y022919D01*
X019317Y022844D01*
X019248Y022776D01*
X019233Y022739D01*
X019190Y022685D01*
X019190Y022685D01*
X019164Y022572D01*
X019149Y022535D01*
X019149Y022505D01*
X019123Y022393D01*
X019149Y022280D01*
X019149Y022276D01*
X019151Y022270D01*
X019190Y022101D01*
X019376Y021867D01*
X019376Y021867D01*
X019646Y021737D01*
X019946Y021737D01*
X020072Y021798D02*
X021978Y021798D01*
X021937Y021837D02*
X020152Y021837D01*
X020215Y021867D02*
X020215Y021867D01*
X020215Y021867D01*
X020222Y021875D02*
X021896Y021875D01*
X021855Y021914D02*
X020253Y021914D01*
X020283Y021952D02*
X021814Y021952D01*
X021773Y021991D02*
X020314Y021991D01*
X020349Y022029D02*
X021732Y022029D01*
X021691Y022068D02*
X020375Y022068D01*
X020402Y022101D02*
X020402Y022101D01*
X020403Y022106D02*
X021650Y022106D01*
X021609Y022145D02*
X020412Y022145D01*
X020421Y022183D02*
X021568Y022183D01*
X021527Y022222D02*
X020433Y022222D01*
X020448Y022260D02*
X021484Y022260D01*
X021431Y022299D02*
X020455Y022299D01*
X020456Y022337D02*
X021378Y022337D01*
X021325Y022376D02*
X020465Y022376D01*
X020464Y022414D02*
X021272Y022414D01*
X021219Y022453D02*
X020455Y022453D01*
X020455Y022491D02*
X021166Y022491D01*
X021113Y022530D02*
X020455Y022530D01*
X020441Y022568D02*
X021060Y022568D01*
X021007Y022607D02*
X020426Y022607D01*
X020411Y022645D02*
X020954Y022645D01*
X020901Y022684D02*
X020402Y022684D01*
X020402Y022685D02*
X020402Y022685D01*
X020378Y022722D02*
X020848Y022722D01*
X020795Y022761D02*
X020362Y022761D01*
X020332Y022799D02*
X020742Y022799D01*
X020689Y022838D02*
X020294Y022838D01*
X020255Y022876D02*
X020636Y022876D01*
X020583Y022915D02*
X020219Y022915D01*
X020215Y022919D02*
X020215Y022919D01*
X020178Y022953D02*
X020523Y022953D01*
X020453Y022992D02*
X020094Y022992D01*
X020001Y023030D02*
X020383Y023030D01*
X020313Y023069D02*
X010927Y023069D01*
X010857Y023030D02*
X011256Y023030D01*
X011294Y023049D02*
X011025Y022919D01*
X011025Y022919D01*
X010921Y022788D01*
X010892Y022759D01*
X010885Y022744D01*
X010838Y022685D01*
X010838Y022685D01*
X010810Y022563D01*
X010792Y022519D01*
X010792Y022484D01*
X010771Y022393D01*
X010792Y022302D01*
X010792Y022260D01*
X009756Y022260D01*
X009713Y022222D02*
X010808Y022222D01*
X010814Y022208D02*
X010838Y022101D01*
X010838Y022101D01*
X010879Y022049D01*
X010892Y022020D01*
X010947Y021964D01*
X011025Y021867D01*
X011063Y021849D01*
X011075Y021836D01*
X011174Y021795D01*
X011294Y021737D01*
X011314Y021737D01*
X011315Y021736D01*
X011575Y021736D01*
X011577Y021737D01*
X011594Y021737D01*
X011700Y021788D01*
X011815Y021836D01*
X011830Y021851D01*
X011864Y021867D01*
X011932Y021952D01*
X011999Y022020D01*
X012014Y022055D01*
X012050Y022101D01*
X012072Y022196D01*
X012098Y022260D01*
X013130Y022260D01*
X013025Y022222D02*
X012083Y022222D01*
X012098Y022260D02*
X012098Y022312D01*
X012117Y022393D01*
X012098Y022474D01*
X012098Y022519D01*
X012075Y022575D01*
X012050Y022685D01*
X012008Y022738D01*
X011999Y022759D01*
X011958Y022800D01*
X011864Y022919D01*
X011817Y022941D01*
X011815Y022943D01*
X011801Y022949D01*
X011594Y023049D01*
X011294Y023049D01*
X011176Y022992D02*
X010787Y022992D01*
X010717Y022953D02*
X011096Y022953D01*
X011025Y022919D02*
X011025Y022919D01*
X011021Y022915D02*
X010657Y022915D01*
X010604Y022876D02*
X010991Y022876D01*
X010960Y022838D02*
X010551Y022838D01*
X010498Y022799D02*
X010929Y022799D01*
X010893Y022761D02*
X010445Y022761D01*
X010392Y022722D02*
X010868Y022722D01*
X010838Y022684D02*
X010339Y022684D01*
X010286Y022645D02*
X010829Y022645D01*
X010820Y022607D02*
X010233Y022607D01*
X010180Y022568D02*
X010811Y022568D01*
X010796Y022530D02*
X010127Y022530D01*
X010074Y022491D02*
X010792Y022491D01*
X010785Y022453D02*
X010021Y022453D01*
X009968Y022414D02*
X010776Y022414D01*
X010771Y022393D02*
X010771Y022393D01*
X010775Y022376D02*
X009915Y022376D01*
X009862Y022337D02*
X010784Y022337D01*
X010792Y022299D02*
X009809Y022299D01*
X009672Y022183D02*
X010819Y022183D01*
X010814Y022208D02*
X010792Y022260D01*
X010828Y022145D02*
X009631Y022145D01*
X009590Y022106D02*
X010837Y022106D01*
X010865Y022068D02*
X009549Y022068D01*
X009508Y022029D02*
X010888Y022029D01*
X010921Y021991D02*
X009467Y021991D01*
X009426Y021952D02*
X010957Y021952D01*
X010987Y021914D02*
X009385Y021914D01*
X009344Y021875D02*
X011018Y021875D01*
X011025Y021867D02*
X011025Y021867D01*
X011075Y021837D02*
X009303Y021837D01*
X009262Y021798D02*
X011167Y021798D01*
X011248Y021760D02*
X009221Y021760D01*
X009180Y021721D02*
X012305Y021721D01*
X012239Y021683D02*
X009139Y021683D01*
X009098Y021644D02*
X012173Y021644D01*
X012107Y021606D02*
X009057Y021606D01*
X009016Y021567D02*
X012041Y021567D01*
X011975Y021529D02*
X008975Y021529D01*
X008934Y021490D02*
X011909Y021490D01*
X011887Y021452D02*
X008896Y021452D01*
X008865Y021413D02*
X011876Y021413D01*
X011882Y021375D02*
X008833Y021375D01*
X008801Y021336D02*
X011905Y021336D01*
X011927Y021298D02*
X008769Y021298D01*
X008737Y021259D02*
X011949Y021259D01*
X011971Y021221D02*
X008705Y021221D01*
X008673Y021182D02*
X011993Y021182D01*
X012016Y021144D02*
X008642Y021144D01*
X008610Y021105D02*
X012038Y021105D01*
X012060Y021067D02*
X011342Y021067D01*
X011452Y021047D02*
X011176Y021096D01*
X011176Y021096D01*
X010905Y021024D01*
X010905Y021024D01*
X010834Y020965D01*
X010834Y020965D01*
X010797Y020934D01*
X010391Y020595D01*
X009681Y019809D01*
X009681Y019809D01*
X009089Y018931D01*
X008625Y017979D01*
X008299Y016971D01*
X008216Y016497D01*
X008208Y016450D01*
X008184Y016312D01*
X008184Y016312D01*
X008257Y016041D01*
X008257Y016041D01*
X008438Y015826D01*
X008474Y015809D01*
X008384Y015809D01*
X008319Y015745D01*
X008319Y015712D01*
X007627Y016405D01*
X007802Y017060D01*
X007769Y017118D01*
X007222Y017264D01*
X007165Y017231D01*
X006889Y016201D01*
X006922Y016144D01*
X007469Y015997D01*
X008069Y015397D01*
X008187Y015279D01*
X008319Y015279D01*
X008319Y015094D01*
X008384Y015029D01*
X010315Y015029D01*
X010379Y015094D01*
X010379Y015708D01*
X013709Y015708D01*
X013955Y015817D01*
X014135Y016017D01*
X014135Y016017D01*
X014218Y016273D01*
X014218Y016273D01*
X014190Y016541D01*
X014123Y016658D01*
X014099Y016699D01*
X014099Y016699D01*
X011769Y020735D01*
X011752Y020765D01*
X011682Y020886D01*
X011682Y020886D01*
X011682Y020886D01*
X011452Y021047D01*
X011452Y021047D01*
X011479Y021028D02*
X012082Y021028D01*
X012104Y020990D02*
X011534Y020990D01*
X011589Y020951D02*
X012127Y020951D01*
X012149Y020913D02*
X011644Y020913D01*
X011689Y020874D02*
X012171Y020874D01*
X012193Y020836D02*
X011711Y020836D01*
X011733Y020797D02*
X012215Y020797D01*
X012237Y020759D02*
X011755Y020759D01*
X011777Y020720D02*
X012260Y020720D01*
X012282Y020682D02*
X011800Y020682D01*
X011822Y020643D02*
X012304Y020643D01*
X012326Y020605D02*
X011844Y020605D01*
X011866Y020566D02*
X012348Y020566D01*
X012371Y020528D02*
X011889Y020528D01*
X011911Y020489D02*
X012393Y020489D01*
X012415Y020450D02*
X011933Y020450D01*
X011955Y020412D02*
X012437Y020412D01*
X012459Y020373D02*
X011978Y020373D01*
X012000Y020335D02*
X012481Y020335D01*
X012504Y020296D02*
X012022Y020296D01*
X012044Y020258D02*
X012526Y020258D01*
X012548Y020219D02*
X012066Y020219D01*
X012089Y020181D02*
X012570Y020181D01*
X012592Y020142D02*
X012111Y020142D01*
X012133Y020104D02*
X012615Y020104D01*
X012637Y020065D02*
X012155Y020065D01*
X012178Y020027D02*
X012659Y020027D01*
X012681Y019988D02*
X012200Y019988D01*
X012222Y019950D02*
X012703Y019950D01*
X012725Y019911D02*
X012244Y019911D01*
X012267Y019873D02*
X012748Y019873D01*
X012770Y019834D02*
X012289Y019834D01*
X012311Y019796D02*
X012820Y019796D01*
X012875Y019781D02*
X012875Y019781D01*
X012900Y019796D02*
X013576Y019796D01*
X013598Y019757D02*
X012333Y019757D01*
X012355Y019719D02*
X013620Y019719D01*
X013643Y019680D02*
X012378Y019680D01*
X012400Y019642D02*
X013665Y019642D01*
X013687Y019603D02*
X012422Y019603D01*
X012444Y019565D02*
X013709Y019565D01*
X013731Y019526D02*
X012467Y019526D01*
X012489Y019488D02*
X013754Y019488D01*
X013776Y019449D02*
X012511Y019449D01*
X012533Y019411D02*
X013798Y019411D01*
X013820Y019372D02*
X012555Y019372D01*
X012578Y019334D02*
X013843Y019334D01*
X013865Y019295D02*
X012600Y019295D01*
X012622Y019257D02*
X013887Y019257D01*
X013909Y019218D02*
X012644Y019218D01*
X012667Y019180D02*
X013932Y019180D01*
X013954Y019141D02*
X012689Y019141D01*
X012711Y019103D02*
X013976Y019103D01*
X013998Y019064D02*
X012733Y019064D01*
X012756Y019026D02*
X014020Y019026D01*
X014043Y018987D02*
X012778Y018987D01*
X012800Y018949D02*
X014065Y018949D01*
X014087Y018910D02*
X012822Y018910D01*
X012844Y018872D02*
X014109Y018872D01*
X014132Y018833D02*
X012867Y018833D01*
X012889Y018795D02*
X014154Y018795D01*
X014176Y018756D02*
X012911Y018756D01*
X012933Y018718D02*
X014198Y018718D01*
X014220Y018679D02*
X012956Y018679D01*
X012978Y018641D02*
X014243Y018641D01*
X014265Y018602D02*
X013000Y018602D01*
X013022Y018564D02*
X014287Y018564D01*
X014309Y018525D02*
X013044Y018525D01*
X013067Y018487D02*
X014332Y018487D01*
X014354Y018448D02*
X013089Y018448D01*
X013111Y018410D02*
X014376Y018410D01*
X014398Y018371D02*
X013133Y018371D01*
X013156Y018333D02*
X014421Y018333D01*
X014443Y018294D02*
X013178Y018294D01*
X013200Y018256D02*
X014465Y018256D01*
X014487Y018217D02*
X013222Y018217D01*
X013245Y018179D02*
X014509Y018179D01*
X014532Y018140D02*
X013267Y018140D01*
X013289Y018102D02*
X014554Y018102D01*
X014576Y018063D02*
X013311Y018063D01*
X013333Y018025D02*
X014598Y018025D01*
X014621Y017986D02*
X013356Y017986D01*
X013378Y017948D02*
X014643Y017948D01*
X014665Y017909D02*
X013400Y017909D01*
X013422Y017871D02*
X014687Y017871D01*
X014709Y017832D02*
X013445Y017832D01*
X013467Y017794D02*
X014732Y017794D01*
X014754Y017755D02*
X013489Y017755D01*
X013511Y017717D02*
X014776Y017717D01*
X014798Y017678D02*
X013534Y017678D01*
X013556Y017640D02*
X014821Y017640D01*
X014843Y017601D02*
X013578Y017601D01*
X013600Y017563D02*
X014865Y017563D01*
X014887Y017524D02*
X013622Y017524D01*
X013645Y017486D02*
X014910Y017486D01*
X014932Y017447D02*
X013667Y017447D01*
X013689Y017409D02*
X014954Y017409D01*
X014976Y017370D02*
X013711Y017370D01*
X013734Y017332D02*
X014998Y017332D01*
X015021Y017293D02*
X013756Y017293D01*
X013778Y017255D02*
X015043Y017255D01*
X015065Y017216D02*
X013800Y017216D01*
X013822Y017178D02*
X015087Y017178D01*
X015110Y017139D02*
X013845Y017139D01*
X013867Y017101D02*
X015132Y017101D01*
X015139Y017089D02*
X015139Y017089D01*
X015139Y017089D01*
X015175Y017062D02*
X013889Y017062D01*
X013911Y017024D02*
X015228Y017024D01*
X015281Y016985D02*
X013934Y016985D01*
X013956Y016947D02*
X015334Y016947D01*
X015357Y016931D02*
X015357Y016931D01*
X015461Y016908D02*
X013978Y016908D01*
X014000Y016870D02*
X017240Y016870D01*
X017262Y016908D02*
X015779Y016908D01*
X015883Y016931D02*
X015883Y016931D01*
X015906Y016947D02*
X017284Y016947D01*
X017306Y016985D02*
X015959Y016985D01*
X016012Y017024D02*
X017329Y017024D01*
X017351Y017062D02*
X016065Y017062D01*
X016101Y017089D02*
X016101Y017089D01*
X016108Y017101D02*
X017373Y017101D01*
X017395Y017139D02*
X016130Y017139D01*
X016153Y017178D02*
X017418Y017178D01*
X017440Y017216D02*
X016175Y017216D01*
X016197Y017255D02*
X017462Y017255D01*
X017484Y017293D02*
X016219Y017293D01*
X016242Y017332D02*
X017506Y017332D01*
X017529Y017370D02*
X016264Y017370D01*
X016286Y017409D02*
X017551Y017409D01*
X017573Y017447D02*
X016308Y017447D01*
X016330Y017486D02*
X017595Y017486D01*
X017618Y017524D02*
X016353Y017524D01*
X016375Y017563D02*
X017640Y017563D01*
X017662Y017601D02*
X016397Y017601D01*
X016419Y017640D02*
X017684Y017640D01*
X017706Y017678D02*
X016442Y017678D01*
X016464Y017717D02*
X017729Y017717D01*
X017751Y017755D02*
X016486Y017755D01*
X016508Y017794D02*
X017773Y017794D01*
X017795Y017832D02*
X016531Y017832D01*
X016553Y017871D02*
X017818Y017871D01*
X017840Y017909D02*
X016575Y017909D01*
X016597Y017948D02*
X017862Y017948D01*
X017884Y017986D02*
X016619Y017986D01*
X016642Y018025D02*
X017907Y018025D01*
X017929Y018063D02*
X016664Y018063D01*
X016686Y018102D02*
X017951Y018102D01*
X017973Y018140D02*
X016708Y018140D01*
X016731Y018179D02*
X017995Y018179D01*
X018018Y018217D02*
X016753Y018217D01*
X016775Y018256D02*
X018040Y018256D01*
X018062Y018294D02*
X016797Y018294D01*
X016819Y018333D02*
X018084Y018333D01*
X018107Y018371D02*
X016842Y018371D01*
X016864Y018410D02*
X018129Y018410D01*
X018151Y018448D02*
X016886Y018448D01*
X016908Y018487D02*
X018173Y018487D01*
X018196Y018525D02*
X016931Y018525D01*
X016953Y018564D02*
X018218Y018564D01*
X018240Y018602D02*
X016975Y018602D01*
X016997Y018641D02*
X018262Y018641D01*
X018284Y018679D02*
X017020Y018679D01*
X017042Y018718D02*
X018307Y018718D01*
X018329Y018756D02*
X017064Y018756D01*
X017086Y018795D02*
X018351Y018795D01*
X018373Y018833D02*
X017108Y018833D01*
X017131Y018872D02*
X018396Y018872D01*
X018418Y018910D02*
X017153Y018910D01*
X017175Y018949D02*
X018440Y018949D01*
X018462Y018987D02*
X017197Y018987D01*
X017220Y019026D02*
X018484Y019026D01*
X018507Y019064D02*
X017242Y019064D01*
X017264Y019103D02*
X018529Y019103D01*
X018551Y019141D02*
X017286Y019141D01*
X017308Y019180D02*
X018573Y019180D01*
X018596Y019218D02*
X017331Y019218D01*
X017353Y019257D02*
X018618Y019257D01*
X018640Y019295D02*
X017375Y019295D01*
X017397Y019334D02*
X018662Y019334D01*
X018685Y019372D02*
X017420Y019372D01*
X017442Y019411D02*
X018707Y019411D01*
X018729Y019449D02*
X017464Y019449D01*
X017486Y019488D02*
X018751Y019488D01*
X018701Y019526D02*
X017509Y019526D01*
X017531Y019565D02*
X018637Y019565D01*
X018573Y019603D02*
X017553Y019603D01*
X017575Y019642D02*
X018510Y019642D01*
X018446Y019680D02*
X017597Y019680D01*
X017620Y019719D02*
X018382Y019719D01*
X018318Y019757D02*
X017642Y019757D01*
X017664Y019796D02*
X018253Y019796D01*
X018227Y019834D02*
X017686Y019834D01*
X017709Y019873D02*
X018217Y019873D01*
X018220Y019911D02*
X017731Y019911D01*
X017753Y019950D02*
X018243Y019950D01*
X018265Y019988D02*
X017775Y019988D01*
X017798Y020027D02*
X018287Y020027D01*
X018309Y020065D02*
X017820Y020065D01*
X017842Y020104D02*
X018331Y020104D01*
X018352Y020142D02*
X017864Y020142D01*
X017886Y020181D02*
X018374Y020181D01*
X018396Y020219D02*
X017909Y020219D01*
X017931Y020258D02*
X018418Y020258D01*
X018440Y020296D02*
X017953Y020296D01*
X017975Y020335D02*
X018462Y020335D01*
X018484Y020373D02*
X017998Y020373D01*
X018020Y020412D02*
X018506Y020412D01*
X018528Y020450D02*
X018042Y020450D01*
X018064Y020489D02*
X018549Y020489D01*
X018571Y020528D02*
X018086Y020528D01*
X018109Y020566D02*
X018593Y020566D01*
X018615Y020605D02*
X018131Y020605D01*
X018153Y020643D02*
X018637Y020643D01*
X018659Y020682D02*
X018175Y020682D01*
X018198Y020720D02*
X018681Y020720D01*
X018703Y020759D02*
X018220Y020759D01*
X018242Y020797D02*
X018725Y020797D01*
X018747Y020836D02*
X018264Y020836D01*
X018287Y020874D02*
X018768Y020874D01*
X018790Y020913D02*
X018309Y020913D01*
X018331Y020951D02*
X018812Y020951D01*
X018834Y020990D02*
X018353Y020990D01*
X018375Y021028D02*
X018856Y021028D01*
X018878Y021067D02*
X018398Y021067D01*
X018420Y021105D02*
X018900Y021105D01*
X018922Y021144D02*
X018442Y021144D01*
X018464Y021182D02*
X018944Y021182D01*
X018965Y021221D02*
X018487Y021221D01*
X018509Y021259D02*
X018987Y021259D01*
X019009Y021298D02*
X018531Y021298D01*
X018553Y021336D02*
X019031Y021336D01*
X019053Y021375D02*
X018575Y021375D01*
X018598Y021413D02*
X019075Y021413D01*
X019097Y021452D02*
X018611Y021452D01*
X018610Y021434D02*
X018610Y021434D01*
X018615Y021490D02*
X019119Y021490D01*
X019370Y021875D02*
X018576Y021875D01*
X018589Y021837D02*
X019439Y021837D01*
X019519Y021798D02*
X018603Y021798D01*
X018617Y021760D02*
X019599Y021760D01*
X019339Y021914D02*
X018562Y021914D01*
X018548Y021952D02*
X019309Y021952D01*
X019278Y021991D02*
X018525Y021991D01*
X018539Y021977D02*
X018539Y021977D01*
X018487Y022029D02*
X019247Y022029D01*
X019216Y022068D02*
X018448Y022068D01*
X018410Y022106D02*
X019189Y022106D01*
X019190Y022101D02*
X019190Y022101D01*
X019180Y022145D02*
X018371Y022145D01*
X018320Y022183D02*
X019171Y022183D01*
X019162Y022222D02*
X018215Y022222D01*
X018110Y022260D02*
X019153Y022260D01*
X019145Y022299D02*
X018005Y022299D01*
X017900Y022337D02*
X019136Y022337D01*
X019127Y022376D02*
X017795Y022376D01*
X017674Y022414D02*
X019128Y022414D01*
X019123Y022393D02*
X019123Y022393D01*
X019137Y022453D02*
X017494Y022453D01*
X017314Y022491D02*
X019146Y022491D01*
X019149Y022530D02*
X017134Y022530D01*
X016954Y022568D02*
X019162Y022568D01*
X019172Y022607D02*
X016774Y022607D01*
X016676Y022627D02*
X016676Y022627D01*
X016426Y022645D02*
X019181Y022645D01*
X019189Y022684D02*
X015879Y022684D01*
X015620Y022702D02*
X015620Y022702D01*
X015361Y022684D02*
X012051Y022684D01*
X012050Y022685D02*
X012050Y022685D01*
X012059Y022645D02*
X014814Y022645D01*
X014466Y022607D02*
X012068Y022607D01*
X012078Y022568D02*
X014286Y022568D01*
X014106Y022530D02*
X012094Y022530D01*
X012098Y022491D02*
X013926Y022491D01*
X013746Y022453D02*
X012103Y022453D01*
X012112Y022414D02*
X013566Y022414D01*
X013528Y022406D02*
X013528Y022406D01*
X013445Y022376D02*
X012113Y022376D01*
X012104Y022337D02*
X013340Y022337D01*
X013235Y022299D02*
X012098Y022299D01*
X012069Y022183D02*
X012920Y022183D01*
X012899Y022175D02*
X012899Y022175D01*
X012869Y022145D02*
X012060Y022145D01*
X012051Y022106D02*
X012830Y022106D01*
X012792Y022068D02*
X012024Y022068D01*
X012050Y022101D02*
X012050Y022101D01*
X012003Y022029D02*
X012753Y022029D01*
X012715Y021991D02*
X011970Y021991D01*
X011931Y021952D02*
X012692Y021952D01*
X012701Y021977D02*
X012701Y021977D01*
X012678Y021914D02*
X011901Y021914D01*
X011870Y021875D02*
X012664Y021875D01*
X012651Y021837D02*
X011816Y021837D01*
X011864Y021867D02*
X011864Y021867D01*
X011864Y021867D01*
X011724Y021798D02*
X012437Y021798D01*
X012453Y021807D02*
X012453Y021807D01*
X012489Y021798D02*
X012637Y021798D01*
X012623Y021760D02*
X012556Y021760D01*
X012541Y021784D02*
X012541Y021784D01*
X012579Y021721D02*
X012609Y021721D01*
X012601Y021683D02*
X012608Y021683D01*
X012371Y021760D02*
X011641Y021760D01*
X011065Y021067D02*
X008578Y021067D01*
X008546Y021028D02*
X010920Y021028D01*
X010864Y020990D02*
X008514Y020990D01*
X008482Y020951D02*
X010818Y020951D01*
X010772Y020913D02*
X008451Y020913D01*
X008419Y020874D02*
X010725Y020874D01*
X010679Y020836D02*
X008387Y020836D01*
X008355Y020797D02*
X010633Y020797D01*
X010587Y020759D02*
X008323Y020759D01*
X008291Y020720D02*
X010541Y020720D01*
X010495Y020682D02*
X008259Y020682D01*
X008228Y020643D02*
X010449Y020643D01*
X010403Y020605D02*
X008196Y020605D01*
X008165Y020566D02*
X010365Y020566D01*
X010391Y020595D02*
X010391Y020595D01*
X010330Y020528D02*
X008141Y020528D01*
X008116Y020489D02*
X010296Y020489D01*
X010261Y020450D02*
X008092Y020450D01*
X008067Y020412D02*
X010226Y020412D01*
X010191Y020373D02*
X008043Y020373D01*
X008019Y020335D02*
X010157Y020335D01*
X010122Y020296D02*
X007994Y020296D01*
X007970Y020258D02*
X010087Y020258D01*
X010052Y020219D02*
X007945Y020219D01*
X007921Y020181D02*
X010017Y020181D01*
X009983Y020142D02*
X007896Y020142D01*
X007872Y020104D02*
X009948Y020104D01*
X009913Y020065D02*
X007848Y020065D01*
X007823Y020027D02*
X009878Y020027D01*
X009844Y019988D02*
X007799Y019988D01*
X007774Y019950D02*
X009809Y019950D01*
X009774Y019911D02*
X007750Y019911D01*
X007725Y019873D02*
X009739Y019873D01*
X009705Y019834D02*
X007701Y019834D01*
X007677Y019796D02*
X009673Y019796D01*
X009647Y019757D02*
X007652Y019757D01*
X007628Y019719D02*
X009621Y019719D01*
X009595Y019680D02*
X007603Y019680D01*
X007579Y019642D02*
X009569Y019642D01*
X009543Y019603D02*
X007554Y019603D01*
X007535Y019565D02*
X009517Y019565D01*
X009491Y019526D02*
X007517Y019526D01*
X007499Y019488D02*
X009465Y019488D01*
X009439Y019449D02*
X007481Y019449D01*
X007463Y019411D02*
X009413Y019411D01*
X009387Y019372D02*
X007445Y019372D01*
X007426Y019334D02*
X009361Y019334D01*
X009335Y019295D02*
X007408Y019295D01*
X007390Y019257D02*
X009309Y019257D01*
X009283Y019218D02*
X007372Y019218D01*
X007354Y019180D02*
X009257Y019180D01*
X009231Y019141D02*
X007336Y019141D01*
X007318Y019103D02*
X009205Y019103D01*
X009179Y019064D02*
X007300Y019064D01*
X007281Y019026D02*
X009153Y019026D01*
X009127Y018987D02*
X007263Y018987D01*
X007245Y018949D02*
X009101Y018949D01*
X009089Y018931D02*
X009089Y018931D01*
X009079Y018910D02*
X007227Y018910D01*
X007209Y018872D02*
X009060Y018872D01*
X009041Y018833D02*
X007191Y018833D01*
X007173Y018795D02*
X009022Y018795D01*
X009004Y018756D02*
X007155Y018756D01*
X007137Y018718D02*
X008985Y018718D01*
X008966Y018679D02*
X007118Y018679D01*
X007100Y018641D02*
X008947Y018641D01*
X008929Y018602D02*
X007082Y018602D01*
X007064Y018564D02*
X008910Y018564D01*
X008891Y018525D02*
X007050Y018525D01*
X007037Y018487D02*
X008872Y018487D01*
X008854Y018448D02*
X007025Y018448D01*
X007012Y018410D02*
X008835Y018410D01*
X008816Y018371D02*
X007000Y018371D01*
X006987Y018333D02*
X008797Y018333D01*
X008779Y018294D02*
X006975Y018294D01*
X006962Y018256D02*
X008760Y018256D01*
X008741Y018217D02*
X006949Y018217D01*
X006937Y018179D02*
X008722Y018179D01*
X008704Y018140D02*
X006924Y018140D01*
X006912Y018102D02*
X008685Y018102D01*
X008666Y018063D02*
X006899Y018063D01*
X006887Y018025D02*
X008647Y018025D01*
X008629Y017986D02*
X006874Y017986D01*
X006862Y017948D02*
X008615Y017948D01*
X008625Y017979D02*
X008625Y017979D01*
X008602Y017909D02*
X006849Y017909D01*
X006837Y017871D02*
X008590Y017871D01*
X008578Y017832D02*
X006824Y017832D01*
X006812Y017794D02*
X008565Y017794D01*
X008553Y017755D02*
X006799Y017755D01*
X006787Y017717D02*
X008540Y017717D01*
X008528Y017678D02*
X006774Y017678D01*
X006762Y017640D02*
X008515Y017640D01*
X008503Y017601D02*
X006749Y017601D01*
X006737Y017563D02*
X008490Y017563D01*
X008478Y017524D02*
X006724Y017524D01*
X006712Y017486D02*
X008465Y017486D01*
X008453Y017447D02*
X006700Y017447D01*
X006692Y017409D02*
X008441Y017409D01*
X008428Y017370D02*
X006685Y017370D01*
X006678Y017332D02*
X008416Y017332D01*
X008403Y017293D02*
X006670Y017293D01*
X006663Y017255D02*
X007206Y017255D01*
X007257Y017255D02*
X008391Y017255D01*
X008378Y017216D02*
X007401Y017216D01*
X007544Y017178D02*
X008366Y017178D01*
X008353Y017139D02*
X007688Y017139D01*
X007779Y017101D02*
X008341Y017101D01*
X008328Y017062D02*
X007801Y017062D01*
X007793Y017024D02*
X008316Y017024D01*
X008304Y016985D02*
X007782Y016985D01*
X007772Y016947D02*
X008295Y016947D01*
X008299Y016971D02*
X008299Y016971D01*
X008288Y016908D02*
X007762Y016908D01*
X007751Y016870D02*
X008281Y016870D01*
X008275Y016831D02*
X007741Y016831D01*
X007731Y016793D02*
X008268Y016793D01*
X008261Y016754D02*
X007720Y016754D01*
X007710Y016716D02*
X008255Y016716D01*
X008248Y016677D02*
X007700Y016677D01*
X007689Y016639D02*
X008241Y016639D01*
X008234Y016600D02*
X007679Y016600D01*
X007669Y016562D02*
X008228Y016562D01*
X008221Y016523D02*
X007659Y016523D01*
X007648Y016485D02*
X008214Y016485D01*
X008216Y016497D02*
X008216Y016497D01*
X008208Y016446D02*
X007638Y016446D01*
X007628Y016408D02*
X008201Y016408D01*
X008194Y016369D02*
X007662Y016369D01*
X007701Y016331D02*
X008188Y016331D01*
X008189Y016292D02*
X007739Y016292D01*
X007778Y016254D02*
X008200Y016254D01*
X008210Y016215D02*
X007816Y016215D01*
X007855Y016177D02*
X008220Y016177D01*
X008231Y016138D02*
X007893Y016138D01*
X007932Y016100D02*
X008241Y016100D01*
X008252Y016061D02*
X007970Y016061D01*
X008009Y016023D02*
X008272Y016023D01*
X008305Y015984D02*
X008047Y015984D01*
X008086Y015946D02*
X008337Y015946D01*
X008369Y015907D02*
X008124Y015907D01*
X008163Y015869D02*
X008402Y015869D01*
X008434Y015830D02*
X008201Y015830D01*
X008240Y015792D02*
X008366Y015792D01*
X008328Y015753D02*
X008278Y015753D01*
X008317Y015715D02*
X008319Y015715D01*
X008438Y015826D02*
X008438Y015826D01*
X008097Y015368D02*
X007893Y015368D01*
X007902Y015330D02*
X008136Y015330D01*
X008174Y015291D02*
X007913Y015291D01*
X007914Y015290D02*
X007908Y015303D01*
X007874Y015452D01*
X007817Y015524D01*
X007814Y015530D01*
X007804Y015541D01*
X007688Y015686D01*
X007688Y015686D01*
X007631Y015713D01*
X007631Y015714D01*
X007628Y015715D01*
X007418Y015816D01*
X007119Y015816D01*
X007002Y015760D01*
X006891Y015714D01*
X006876Y015699D01*
X006849Y015686D01*
X006849Y015686D01*
X006793Y015616D01*
X006707Y015530D01*
X006688Y015485D01*
X006662Y015452D01*
X006662Y015452D01*
X006647Y015384D01*
X006608Y015290D01*
X006608Y015213D01*
X006595Y015160D01*
X006608Y015107D01*
X006608Y015030D01*
X006647Y014936D01*
X006662Y014868D01*
X006688Y014835D01*
X006707Y014790D01*
X006793Y014704D01*
X006849Y014634D01*
X006876Y014621D01*
X006891Y014606D01*
X007002Y014560D01*
X007119Y014504D01*
X007418Y014504D01*
X007628Y014605D01*
X007631Y014606D01*
X007631Y014607D01*
X007688Y014634D01*
X007804Y014779D01*
X007814Y014790D01*
X007817Y014796D01*
X007874Y014868D01*
X014448Y014868D01*
X014454Y014829D02*
X007844Y014829D01*
X007815Y014791D02*
X014461Y014791D01*
X014468Y014752D02*
X007782Y014752D01*
X007751Y014714D02*
X014486Y014714D01*
X014470Y014741D02*
X014470Y014741D01*
X014508Y014675D02*
X007721Y014675D01*
X007690Y014637D02*
X014530Y014637D01*
X014552Y014598D02*
X013740Y014598D01*
X013826Y014560D02*
X014575Y014560D01*
X014597Y014521D02*
X013913Y014521D01*
X013955Y014503D02*
X013955Y014503D01*
X013955Y014503D01*
X013973Y014483D02*
X014619Y014483D01*
X014641Y014444D02*
X014007Y014444D01*
X014042Y014406D02*
X014664Y014406D01*
X014689Y014367D02*
X014077Y014367D01*
X014111Y014329D02*
X014735Y014329D01*
X014781Y014290D02*
X014139Y014290D01*
X014135Y014303D02*
X014135Y014303D01*
X014152Y014252D02*
X014827Y014252D01*
X014873Y014213D02*
X014164Y014213D01*
X014177Y014175D02*
X014919Y014175D01*
X014965Y014136D02*
X014189Y014136D01*
X014202Y014098D02*
X015014Y014098D01*
X015120Y014059D02*
X014214Y014059D01*
X014218Y014047D02*
X014218Y014047D01*
X014216Y014021D02*
X015225Y014021D01*
X015331Y013982D02*
X014212Y013982D01*
X014441Y014906D02*
X007883Y014906D01*
X007874Y014868D02*
X007908Y015017D01*
X007914Y015030D01*
X007914Y015040D01*
X007941Y015160D01*
X007914Y015280D01*
X007914Y015290D01*
X007920Y015253D02*
X008319Y015253D01*
X008319Y015214D02*
X007929Y015214D01*
X007937Y015176D02*
X008319Y015176D01*
X008319Y015137D02*
X007936Y015137D01*
X007941Y015160D02*
X007941Y015160D01*
X007927Y015099D02*
X008319Y015099D01*
X008353Y015060D02*
X007918Y015060D01*
X007910Y015022D02*
X014420Y015022D01*
X014414Y015060D02*
X010346Y015060D01*
X010379Y015099D02*
X014407Y015099D01*
X014400Y015137D02*
X010379Y015137D01*
X010379Y015176D02*
X014399Y015176D01*
X014396Y015160D02*
X014396Y015160D01*
X014406Y015214D02*
X010379Y015214D01*
X010379Y015253D02*
X014412Y015253D01*
X014419Y015291D02*
X010379Y015291D01*
X010379Y015330D02*
X014426Y015330D01*
X014433Y015368D02*
X010379Y015368D01*
X010379Y015407D02*
X014440Y015407D01*
X014446Y015445D02*
X010379Y015445D01*
X010379Y015484D02*
X014453Y015484D01*
X014460Y015522D02*
X010379Y015522D01*
X010379Y015561D02*
X014467Y015561D01*
X014482Y015599D02*
X010379Y015599D01*
X010379Y015638D02*
X014504Y015638D01*
X014526Y015676D02*
X010379Y015676D01*
X008662Y014598D02*
X007614Y014598D01*
X007688Y014634D02*
X007688Y014634D01*
X007534Y014560D02*
X008580Y014560D01*
X008497Y014521D02*
X007454Y014521D01*
X007082Y014521D02*
X006451Y014521D01*
X006453Y014483D02*
X008429Y014483D01*
X008396Y014444D02*
X006456Y014444D01*
X006458Y014406D02*
X008364Y014406D01*
X008331Y014367D02*
X006461Y014367D01*
X006463Y014329D02*
X008299Y014329D01*
X008267Y014290D02*
X006466Y014290D01*
X006468Y014252D02*
X008250Y014252D01*
X008257Y014279D02*
X008257Y014279D01*
X008239Y014213D02*
X006470Y014213D01*
X006473Y014175D02*
X008229Y014175D01*
X008219Y014136D02*
X006475Y014136D01*
X006478Y014098D02*
X008208Y014098D01*
X008198Y014059D02*
X006480Y014059D01*
X006483Y014021D02*
X008188Y014021D01*
X008184Y014008D02*
X008184Y014008D01*
X008189Y013982D02*
X006488Y013982D01*
X006483Y014006D02*
X006483Y014006D01*
X006495Y013944D02*
X008195Y013944D01*
X008200Y013917D02*
X008200Y013917D01*
X008202Y013905D02*
X006503Y013905D01*
X006510Y013867D02*
X008209Y013867D01*
X008216Y013828D02*
X006517Y013828D01*
X006525Y013790D02*
X008222Y013790D01*
X008229Y013751D02*
X006532Y013751D01*
X006539Y013713D02*
X008236Y013713D01*
X008242Y013674D02*
X006547Y013674D01*
X006554Y013636D02*
X008249Y013636D01*
X008256Y013597D02*
X006561Y013597D01*
X006569Y013559D02*
X008262Y013559D01*
X008269Y013520D02*
X006576Y013520D01*
X006583Y013482D02*
X008276Y013482D01*
X008282Y013443D02*
X006591Y013443D01*
X006598Y013405D02*
X008289Y013405D01*
X008296Y013366D02*
X006605Y013366D01*
X006613Y013328D02*
X008306Y013328D01*
X008318Y013289D02*
X006620Y013289D01*
X006627Y013251D02*
X008331Y013251D01*
X008343Y013212D02*
X006635Y013212D01*
X006642Y013174D02*
X008355Y013174D01*
X008368Y013135D02*
X006650Y013135D01*
X006657Y013097D02*
X008380Y013097D01*
X008393Y013058D02*
X006664Y013058D01*
X006672Y013020D02*
X008405Y013020D01*
X008418Y012981D02*
X006679Y012981D01*
X006686Y012943D02*
X008430Y012943D01*
X008443Y012904D02*
X006694Y012904D01*
X006701Y012866D02*
X008455Y012866D01*
X008468Y012827D02*
X006714Y012827D01*
X006726Y012789D02*
X008480Y012789D01*
X008492Y012750D02*
X006739Y012750D01*
X006751Y012712D02*
X008505Y012712D01*
X008517Y012673D02*
X006764Y012673D01*
X006776Y012635D02*
X008530Y012635D01*
X008542Y012596D02*
X006789Y012596D01*
X006802Y012558D02*
X008555Y012558D01*
X008567Y012519D02*
X006814Y012519D01*
X006827Y012481D02*
X008580Y012481D01*
X008592Y012442D02*
X006839Y012442D01*
X006852Y012404D02*
X008605Y012404D01*
X008617Y012365D02*
X006864Y012365D01*
X006877Y012327D02*
X008632Y012327D01*
X008625Y012341D02*
X008625Y012341D01*
X008651Y012288D02*
X006889Y012288D01*
X006902Y012250D02*
X008669Y012250D01*
X008688Y012211D02*
X006914Y012211D01*
X006927Y012173D02*
X008707Y012173D01*
X008726Y012134D02*
X006939Y012134D01*
X006952Y012096D02*
X008744Y012096D01*
X008763Y012057D02*
X006964Y012057D01*
X006977Y012019D02*
X008782Y012019D01*
X008801Y011980D02*
X006989Y011980D01*
X007002Y011942D02*
X008819Y011942D01*
X008838Y011903D02*
X007014Y011903D01*
X007027Y011865D02*
X008857Y011865D01*
X008876Y011826D02*
X007039Y011826D01*
X007052Y011788D02*
X008894Y011788D01*
X008913Y011749D02*
X007067Y011749D01*
X007085Y011711D02*
X008932Y011711D01*
X008951Y011672D02*
X007103Y011672D01*
X007122Y011634D02*
X008969Y011634D01*
X008988Y011595D02*
X007140Y011595D01*
X007158Y011557D02*
X009007Y011557D01*
X009026Y011518D02*
X007176Y011518D01*
X007194Y011480D02*
X009044Y011480D01*
X009063Y011441D02*
X007212Y011441D01*
X007230Y011403D02*
X009082Y011403D01*
X009089Y011389D02*
X009089Y011389D01*
X009105Y011364D02*
X007248Y011364D01*
X007266Y011326D02*
X009131Y011326D01*
X009157Y011287D02*
X007285Y011287D01*
X007303Y011249D02*
X009183Y011249D01*
X009209Y011210D02*
X007321Y011210D01*
X007339Y011172D02*
X009235Y011172D01*
X009261Y011133D02*
X007357Y011133D01*
X007375Y011095D02*
X009287Y011095D01*
X009313Y011056D02*
X007393Y011056D01*
X007411Y011018D02*
X009339Y011018D01*
X009365Y010979D02*
X007430Y010979D01*
X007448Y010941D02*
X009391Y010941D01*
X009417Y010902D02*
X007466Y010902D01*
X007484Y010864D02*
X009443Y010864D01*
X009469Y010825D02*
X007502Y010825D01*
X007520Y010787D02*
X009495Y010787D01*
X009521Y010748D02*
X007538Y010748D01*
X007559Y010710D02*
X009547Y010710D01*
X009573Y010671D02*
X007583Y010671D01*
X007607Y010633D02*
X009599Y010633D01*
X009625Y010594D02*
X007632Y010594D01*
X007656Y010556D02*
X009651Y010556D01*
X009677Y010517D02*
X007681Y010517D01*
X007705Y010479D02*
X009711Y010479D01*
X009681Y010511D02*
X009681Y010511D01*
X009745Y010440D02*
X007730Y010440D01*
X007754Y010402D02*
X009780Y010402D01*
X009815Y010363D02*
X007778Y010363D01*
X007803Y010325D02*
X009850Y010325D01*
X009884Y010286D02*
X007827Y010286D01*
X007852Y010248D02*
X009919Y010248D01*
X009954Y010209D02*
X007876Y010209D01*
X007901Y010171D02*
X009989Y010171D01*
X010023Y010132D02*
X007925Y010132D01*
X007949Y010094D02*
X010058Y010094D01*
X010093Y010055D02*
X007974Y010055D01*
X007998Y010017D02*
X010128Y010017D01*
X010162Y009978D02*
X008023Y009978D01*
X008047Y009940D02*
X010197Y009940D01*
X010232Y009901D02*
X008072Y009901D01*
X008096Y009863D02*
X010267Y009863D01*
X010301Y009824D02*
X008121Y009824D01*
X008145Y009786D02*
X010336Y009786D01*
X010371Y009747D02*
X008169Y009747D01*
X008201Y009709D02*
X010411Y009709D01*
X010391Y009725D02*
X010391Y009725D01*
X010391Y009725D01*
X010457Y009670D02*
X008233Y009670D01*
X008265Y009632D02*
X010503Y009632D01*
X010549Y009593D02*
X008297Y009593D01*
X008329Y009555D02*
X010595Y009555D01*
X010641Y009516D02*
X008360Y009516D01*
X008392Y009478D02*
X010687Y009478D01*
X010733Y009439D02*
X008424Y009439D01*
X008456Y009401D02*
X010779Y009401D01*
X010825Y009362D02*
X008488Y009362D01*
X008520Y009324D02*
X010872Y009324D01*
X010905Y009296D02*
X010905Y009296D01*
X010945Y009285D02*
X008552Y009285D01*
X008583Y009247D02*
X011090Y009247D01*
X011176Y009224D02*
X011176Y009224D01*
X011305Y009247D02*
X011454Y009247D01*
X011459Y009208D02*
X008615Y009208D01*
X008647Y009170D02*
X011469Y009170D01*
X011512Y009131D02*
X008679Y009131D01*
X008711Y009093D02*
X011574Y009093D01*
X011631Y009054D02*
X008743Y009054D01*
X008774Y009016D02*
X011687Y009016D01*
X011744Y008977D02*
X008806Y008977D01*
X008838Y008939D02*
X011800Y008939D01*
X011857Y008900D02*
X008870Y008900D01*
X009023Y008746D02*
X012618Y008746D01*
X012615Y008708D02*
X009064Y008708D01*
X009105Y008669D02*
X012611Y008669D01*
X012608Y008631D02*
X009146Y008631D01*
X009187Y008592D02*
X012611Y008592D01*
X012606Y008607D02*
X012606Y008607D01*
X012625Y008554D02*
X011654Y008554D01*
X011594Y008583D02*
X011294Y008583D01*
X011025Y008453D01*
X011025Y008453D01*
X010838Y008219D01*
X010771Y007927D01*
X010838Y007635D01*
X011025Y007401D01*
X011087Y007371D01*
X011088Y007370D01*
X011095Y007367D01*
X011294Y007271D01*
X011327Y007271D01*
X011328Y007271D01*
X011588Y007271D01*
X011589Y007271D01*
X011594Y007271D01*
X011621Y007284D01*
X011828Y007370D01*
X011855Y007397D01*
X011864Y007401D01*
X011881Y007423D01*
X012012Y007554D01*
X012040Y007623D01*
X012050Y007635D01*
X012056Y007661D01*
X012111Y007794D01*
X012111Y007902D01*
X012117Y007927D01*
X012111Y007952D01*
X012111Y008054D01*
X012060Y008178D01*
X012050Y008219D01*
X012050Y008219D01*
X012035Y008239D01*
X012012Y008294D01*
X011908Y008398D01*
X011864Y008453D01*
X011864Y008453D01*
X011842Y008464D01*
X011828Y008477D01*
X011721Y008522D01*
X011594Y008583D01*
X011736Y008515D02*
X012639Y008515D01*
X012653Y008477D02*
X011829Y008477D01*
X011875Y008438D02*
X012667Y008438D01*
X012681Y008400D02*
X011906Y008400D01*
X011944Y008361D02*
X012695Y008361D01*
X012701Y008343D02*
X012701Y008343D01*
X012722Y008323D02*
X011983Y008323D01*
X012016Y008284D02*
X012760Y008284D01*
X012798Y008246D02*
X012032Y008246D01*
X012053Y008207D02*
X012837Y008207D01*
X012875Y008169D02*
X012063Y008169D01*
X012079Y008130D02*
X012938Y008130D01*
X013043Y008092D02*
X012095Y008092D01*
X012111Y008053D02*
X013148Y008053D01*
X013253Y008015D02*
X012111Y008015D01*
X012111Y007976D02*
X013358Y007976D01*
X013463Y007938D02*
X012114Y007938D01*
X012111Y007899D02*
X013597Y007899D01*
X013528Y007914D02*
X013528Y007914D01*
X013777Y007861D02*
X012111Y007861D01*
X012111Y007822D02*
X013957Y007822D01*
X014137Y007784D02*
X012107Y007784D01*
X012091Y007745D02*
X014317Y007745D01*
X014497Y007707D02*
X012075Y007707D01*
X012059Y007668D02*
X014907Y007668D01*
X014564Y007693D02*
X014564Y007693D01*
X015454Y007630D02*
X012046Y007630D01*
X012050Y007635D02*
X012050Y007635D01*
X012027Y007591D02*
X019218Y007591D01*
X019212Y007608D02*
X019240Y007541D01*
X019367Y007413D01*
X019376Y007401D01*
X019376Y007401D01*
X019381Y007399D01*
X011859Y007399D01*
X011864Y007401D02*
X011864Y007401D01*
X011895Y007437D02*
X019343Y007437D01*
X019381Y007399D02*
X019423Y007357D01*
X019663Y007257D01*
X019923Y007257D01*
X020163Y007357D01*
X020200Y007394D01*
X020215Y007401D01*
X020215Y007401D01*
X020215Y007401D01*
X020246Y007440D01*
X020347Y007541D01*
X020369Y007594D01*
X020402Y007635D01*
X020402Y007635D01*
X020422Y007721D01*
X020446Y007781D01*
X020446Y007829D01*
X020469Y007927D01*
X020446Y008025D01*
X020446Y008040D01*
X020439Y008059D01*
X020402Y008219D01*
X020402Y008219D01*
X020215Y008453D01*
X019946Y008583D01*
X019646Y008583D01*
X019376Y008453D01*
X019190Y008219D01*
X019160Y008088D01*
X019140Y008040D01*
X019140Y008001D01*
X019123Y007927D01*
X019140Y007853D01*
X019140Y007781D01*
X019177Y007692D01*
X019190Y007635D01*
X019212Y007608D01*
X019194Y007630D02*
X015786Y007630D01*
X015620Y007618D02*
X015620Y007618D01*
X016333Y007668D02*
X019182Y007668D01*
X019190Y007635D02*
X019190Y007635D01*
X019171Y007707D02*
X016743Y007707D01*
X016676Y007693D02*
X016676Y007693D01*
X016923Y007745D02*
X019155Y007745D01*
X019140Y007784D02*
X017103Y007784D01*
X017283Y007822D02*
X019140Y007822D01*
X019138Y007861D02*
X017463Y007861D01*
X017643Y007899D02*
X019129Y007899D01*
X019123Y007927D02*
X019123Y007927D01*
X019126Y007938D02*
X017777Y007938D01*
X017712Y007914D02*
X017712Y007914D01*
X017882Y007976D02*
X019134Y007976D01*
X019140Y008015D02*
X017987Y008015D01*
X018092Y008053D02*
X019145Y008053D01*
X019161Y008092D02*
X018197Y008092D01*
X018302Y008130D02*
X019170Y008130D01*
X019178Y008169D02*
X018365Y008169D01*
X018341Y008145D02*
X018341Y008145D01*
X018403Y008207D02*
X019187Y008207D01*
X019190Y008219D02*
X019190Y008219D01*
X019211Y008246D02*
X018442Y008246D01*
X018480Y008284D02*
X019242Y008284D01*
X019273Y008323D02*
X018518Y008323D01*
X018545Y008361D02*
X019303Y008361D01*
X019334Y008400D02*
X018559Y008400D01*
X018573Y008438D02*
X019365Y008438D01*
X019376Y008453D02*
X019376Y008453D01*
X019376Y008453D01*
X019426Y008477D02*
X018587Y008477D01*
X018601Y008515D02*
X019506Y008515D01*
X019586Y008554D02*
X018787Y008554D01*
X018718Y008554D02*
X018615Y008554D01*
X018629Y008592D02*
X018661Y008592D01*
X018634Y008607D02*
X018634Y008607D01*
X018632Y008631D02*
X018639Y008631D01*
X018853Y008592D02*
X022053Y008592D01*
X022094Y008631D02*
X018920Y008631D01*
X018986Y008669D02*
X022135Y008669D01*
X022176Y008708D02*
X019052Y008708D01*
X019119Y008746D02*
X022217Y008746D01*
X022258Y008785D02*
X019185Y008785D01*
X019251Y008823D02*
X022299Y008823D01*
X022338Y008862D02*
X019318Y008862D01*
X019344Y008877D02*
X019344Y008877D01*
X019350Y008900D02*
X022370Y008900D01*
X022402Y008939D02*
X019361Y008939D01*
X019367Y008965D02*
X019367Y008965D01*
X019360Y008977D02*
X022434Y008977D01*
X022466Y009016D02*
X019338Y009016D01*
X019316Y009054D02*
X022497Y009054D01*
X022529Y009093D02*
X019294Y009093D01*
X019272Y009131D02*
X022561Y009131D01*
X022593Y009170D02*
X019250Y009170D01*
X019228Y009208D02*
X022625Y009208D01*
X022657Y009247D02*
X020150Y009247D01*
X020295Y009285D02*
X022688Y009285D01*
X022720Y009324D02*
X020368Y009324D01*
X020415Y009362D02*
X022752Y009362D01*
X022784Y009401D02*
X020461Y009401D01*
X020507Y009439D02*
X022816Y009439D01*
X022848Y009478D02*
X020553Y009478D01*
X020599Y009516D02*
X022880Y009516D01*
X022911Y009555D02*
X020645Y009555D01*
X020691Y009593D02*
X022943Y009593D01*
X022975Y009632D02*
X020737Y009632D01*
X020783Y009670D02*
X023007Y009670D01*
X023039Y009709D02*
X020829Y009709D01*
X020869Y009747D02*
X023071Y009747D01*
X023095Y009786D02*
X020904Y009786D01*
X020938Y009824D02*
X023119Y009824D01*
X023144Y009863D02*
X020973Y009863D01*
X021008Y009901D02*
X023168Y009901D01*
X023193Y009940D02*
X021043Y009940D01*
X021078Y009978D02*
X023217Y009978D01*
X023242Y010017D02*
X021112Y010017D01*
X021147Y010055D02*
X023266Y010055D01*
X023291Y010094D02*
X021182Y010094D01*
X021217Y010132D02*
X023315Y010132D01*
X023339Y010171D02*
X021251Y010171D01*
X021286Y010209D02*
X023364Y010209D01*
X023388Y010248D02*
X021321Y010248D01*
X021356Y010286D02*
X023413Y010286D01*
X023437Y010325D02*
X021390Y010325D01*
X021425Y010363D02*
X023462Y010363D01*
X023486Y010402D02*
X021460Y010402D01*
X021495Y010440D02*
X023510Y010440D01*
X023535Y010479D02*
X021529Y010479D01*
X021563Y010517D02*
X023559Y010517D01*
X023584Y010556D02*
X021589Y010556D01*
X021615Y010594D02*
X023608Y010594D01*
X023633Y010633D02*
X021641Y010633D01*
X021667Y010671D02*
X023657Y010671D01*
X023681Y010710D02*
X021693Y010710D01*
X021719Y010748D02*
X023702Y010748D01*
X023720Y010787D02*
X021745Y010787D01*
X021771Y010825D02*
X023738Y010825D01*
X023756Y010864D02*
X021797Y010864D01*
X021823Y010902D02*
X023774Y010902D01*
X023792Y010941D02*
X021849Y010941D01*
X021875Y010979D02*
X023810Y010979D01*
X023829Y011018D02*
X021901Y011018D01*
X021927Y011056D02*
X023847Y011056D01*
X023865Y011095D02*
X021953Y011095D01*
X021979Y011133D02*
X023883Y011133D01*
X023901Y011172D02*
X022005Y011172D01*
X022031Y011210D02*
X023919Y011210D01*
X023937Y011249D02*
X022057Y011249D01*
X022083Y011287D02*
X023955Y011287D01*
X023974Y011326D02*
X022109Y011326D01*
X022135Y011364D02*
X023992Y011364D01*
X024010Y011403D02*
X022158Y011403D01*
X022177Y011441D02*
X024028Y011441D01*
X024046Y011480D02*
X022196Y011480D01*
X022214Y011518D02*
X024064Y011518D01*
X024082Y011557D02*
X022233Y011557D01*
X022252Y011595D02*
X024100Y011595D01*
X024118Y011634D02*
X022271Y011634D01*
X022289Y011672D02*
X024137Y011672D01*
X024155Y011711D02*
X022308Y011711D01*
X022327Y011749D02*
X024173Y011749D01*
X024188Y011788D02*
X022346Y011788D01*
X022364Y011826D02*
X024201Y011826D01*
X024213Y011865D02*
X022383Y011865D01*
X022402Y011903D02*
X024226Y011903D01*
X024238Y011942D02*
X022421Y011942D01*
X022439Y011980D02*
X024251Y011980D01*
X024263Y012019D02*
X022458Y012019D01*
X022477Y012057D02*
X024276Y012057D01*
X024288Y012096D02*
X022496Y012096D01*
X022514Y012134D02*
X024301Y012134D01*
X024313Y012173D02*
X022533Y012173D01*
X022552Y012211D02*
X024326Y012211D01*
X024338Y012250D02*
X022571Y012250D01*
X022589Y012288D02*
X024351Y012288D01*
X024363Y012327D02*
X022608Y012327D01*
X022623Y012365D02*
X024376Y012365D01*
X024388Y012404D02*
X022635Y012404D01*
X022648Y012442D02*
X024401Y012442D01*
X024413Y012481D02*
X022660Y012481D01*
X022673Y012519D02*
X024426Y012519D01*
X024438Y012558D02*
X022685Y012558D01*
X022698Y012596D02*
X024451Y012596D01*
X024464Y012635D02*
X022710Y012635D01*
X022723Y012673D02*
X024476Y012673D01*
X024489Y012712D02*
X022735Y012712D01*
X022748Y012750D02*
X024501Y012750D01*
X024514Y012789D02*
X022760Y012789D01*
X022772Y012827D02*
X024526Y012827D01*
X024539Y012866D02*
X022785Y012866D01*
X022797Y012904D02*
X024546Y012904D01*
X024554Y012943D02*
X022810Y012943D01*
X022822Y012981D02*
X024561Y012981D01*
X024568Y013020D02*
X022835Y013020D01*
X022847Y013058D02*
X024576Y013058D01*
X024583Y013097D02*
X022860Y013097D01*
X022872Y013135D02*
X024590Y013135D01*
X024598Y013174D02*
X022885Y013174D01*
X022897Y013212D02*
X024605Y013212D01*
X024613Y013251D02*
X022909Y013251D01*
X022922Y013289D02*
X024620Y013289D01*
X024627Y013328D02*
X022934Y013328D01*
X022944Y013366D02*
X024635Y013366D01*
X024642Y013405D02*
X022951Y013405D01*
X022958Y013443D02*
X024649Y013443D01*
X024657Y013482D02*
X022964Y013482D01*
X022971Y013520D02*
X024664Y013520D01*
X024671Y013559D02*
X022978Y013559D01*
X022984Y013597D02*
X024679Y013597D01*
X024686Y013636D02*
X022991Y013636D01*
X022998Y013674D02*
X024693Y013674D01*
X024701Y013713D02*
X023004Y013713D01*
X023011Y013751D02*
X024708Y013751D01*
X024715Y013790D02*
X023018Y013790D01*
X023024Y013828D02*
X024723Y013828D01*
X024730Y013867D02*
X023031Y013867D01*
X023038Y013905D02*
X024737Y013905D01*
X024745Y013944D02*
X023045Y013944D01*
X023051Y013982D02*
X024752Y013982D01*
X024757Y014021D02*
X023052Y014021D01*
X023042Y014059D02*
X024760Y014059D01*
X024762Y014098D02*
X023032Y014098D01*
X023021Y014136D02*
X024765Y014136D01*
X024767Y014175D02*
X023011Y014175D01*
X023001Y014213D02*
X024770Y014213D01*
X024772Y014252D02*
X022990Y014252D01*
X022973Y014290D02*
X024774Y014290D01*
X024777Y014329D02*
X022941Y014329D01*
X022909Y014367D02*
X024779Y014367D01*
X024782Y014406D02*
X022876Y014406D01*
X022844Y014444D02*
X024784Y014444D01*
X023747Y015792D02*
X022729Y015792D01*
X022646Y015753D02*
X023654Y015753D01*
X023582Y015715D02*
X022564Y015715D01*
X023364Y015445D02*
X016794Y015445D01*
X016800Y015407D02*
X023355Y015407D01*
X023340Y015368D02*
X016807Y015368D01*
X016787Y015484D02*
X023388Y015484D01*
X023404Y015522D02*
X016780Y015522D01*
X016773Y015561D02*
X023428Y015561D01*
X023467Y015599D02*
X016758Y015599D01*
X016770Y015579D02*
X016770Y015579D01*
X016736Y015638D02*
X023505Y015638D01*
X023544Y015676D02*
X016714Y015676D01*
X016691Y015715D02*
X017515Y015715D01*
X017428Y015753D02*
X016669Y015753D01*
X016647Y015792D02*
X017342Y015792D01*
X017273Y015830D02*
X016625Y015830D01*
X016602Y015869D02*
X017239Y015869D01*
X017204Y015907D02*
X016580Y015907D01*
X016558Y015946D02*
X017169Y015946D01*
X017135Y015984D02*
X016513Y015984D01*
X016467Y016023D02*
X017103Y016023D01*
X017105Y016017D02*
X017105Y016017D01*
X017091Y016061D02*
X016421Y016061D01*
X016375Y016100D02*
X017078Y016100D01*
X017066Y016138D02*
X016329Y016138D01*
X016283Y016177D02*
X017053Y016177D01*
X017041Y016215D02*
X016237Y016215D01*
X016232Y016220D02*
X016232Y016220D01*
X016139Y016254D02*
X017028Y016254D01*
X017022Y016273D02*
X017022Y016273D01*
X017024Y016292D02*
X016033Y016292D01*
X015927Y016331D02*
X017028Y016331D01*
X017032Y016369D02*
X014208Y016369D01*
X014212Y016331D02*
X015313Y016331D01*
X015207Y016292D02*
X014216Y016292D01*
X014212Y016254D02*
X015101Y016254D01*
X015008Y016220D02*
X015008Y016220D01*
X015003Y016215D02*
X014199Y016215D01*
X014187Y016177D02*
X014957Y016177D01*
X014911Y016138D02*
X014174Y016138D01*
X014162Y016100D02*
X014865Y016100D01*
X014819Y016061D02*
X014149Y016061D01*
X014137Y016023D02*
X014773Y016023D01*
X014727Y015984D02*
X014105Y015984D01*
X014071Y015946D02*
X014682Y015946D01*
X014660Y015907D02*
X014036Y015907D01*
X014001Y015869D02*
X014638Y015869D01*
X014615Y015830D02*
X013967Y015830D01*
X013955Y015817D02*
X013955Y015817D01*
X013898Y015792D02*
X014593Y015792D01*
X014571Y015753D02*
X013812Y015753D01*
X013725Y015715D02*
X014549Y015715D01*
X014427Y014983D02*
X007901Y014983D01*
X007892Y014945D02*
X014434Y014945D01*
X014204Y016408D02*
X017036Y016408D01*
X017040Y016446D02*
X014200Y016446D01*
X014196Y016485D02*
X017044Y016485D01*
X017048Y016523D02*
X014192Y016523D01*
X014190Y016541D02*
X014190Y016541D01*
X014178Y016562D02*
X017062Y016562D01*
X017050Y016541D02*
X017050Y016541D01*
X017084Y016600D02*
X014156Y016600D01*
X014134Y016639D02*
X017106Y016639D01*
X017129Y016677D02*
X014111Y016677D01*
X014089Y016716D02*
X017151Y016716D01*
X017173Y016754D02*
X014067Y016754D01*
X014045Y016793D02*
X017195Y016793D01*
X017217Y016831D02*
X014023Y016831D01*
X015620Y016875D02*
X015620Y016875D01*
X013554Y019834D02*
X012967Y019834D01*
X012954Y019827D02*
X012954Y019827D01*
X013033Y019873D02*
X013531Y019873D01*
X013509Y019911D02*
X013100Y019911D01*
X013166Y019950D02*
X013487Y019950D01*
X013465Y019988D02*
X013232Y019988D01*
X013299Y020027D02*
X013442Y020027D01*
X013420Y020065D02*
X013365Y020065D01*
X012021Y022722D02*
X019219Y022722D01*
X019242Y022761D02*
X011998Y022761D01*
X011959Y022799D02*
X019272Y022799D01*
X019310Y022838D02*
X011928Y022838D01*
X011898Y022876D02*
X019342Y022876D01*
X019373Y022915D02*
X011867Y022915D01*
X011864Y022919D02*
X011864Y022919D01*
X011793Y022953D02*
X019426Y022953D01*
X019376Y022919D02*
X019376Y022919D01*
X019510Y022992D02*
X011713Y022992D01*
X011633Y023030D02*
X019603Y023030D01*
X019752Y023377D02*
X011488Y023377D01*
X011558Y023415D02*
X019682Y023415D01*
X019612Y023454D02*
X011628Y023454D01*
X011698Y023492D02*
X019542Y023492D01*
X019445Y023531D02*
X011795Y023531D01*
X011892Y023569D02*
X019348Y023569D01*
X019251Y023608D02*
X011989Y023608D01*
X012086Y023646D02*
X019154Y023646D01*
X019057Y023685D02*
X012183Y023685D01*
X012281Y023723D02*
X018959Y023723D01*
X018862Y023762D02*
X012378Y023762D01*
X012475Y023800D02*
X018765Y023800D01*
X018668Y023839D02*
X012572Y023839D01*
X012670Y023877D02*
X018570Y023877D01*
X018473Y023916D02*
X012767Y023916D01*
X012913Y023954D02*
X018327Y023954D01*
X018177Y023993D02*
X013063Y023993D01*
X013213Y024031D02*
X018027Y024031D01*
X017877Y024070D02*
X013363Y024070D01*
X013513Y024108D02*
X017727Y024108D01*
X017577Y024147D02*
X013663Y024147D01*
X013813Y024185D02*
X017427Y024185D01*
X017207Y024224D02*
X014033Y024224D01*
X014338Y024262D02*
X016902Y024262D01*
X016598Y024301D02*
X014642Y024301D01*
X014947Y024339D02*
X016293Y024339D01*
X019822Y023338D02*
X011418Y023338D01*
X011348Y023300D02*
X019892Y023300D01*
X019962Y023261D02*
X011278Y023261D01*
X011208Y023223D02*
X020032Y023223D01*
X020103Y023184D02*
X011137Y023184D01*
X011067Y023146D02*
X020173Y023146D01*
X020243Y023107D02*
X010997Y023107D01*
X007161Y017216D02*
X006656Y017216D01*
X006648Y017178D02*
X007151Y017178D01*
X007140Y017139D02*
X006641Y017139D01*
X006634Y017101D02*
X007130Y017101D01*
X007120Y017062D02*
X006626Y017062D01*
X006619Y017024D02*
X007109Y017024D01*
X007099Y016985D02*
X006612Y016985D01*
X006604Y016947D02*
X007089Y016947D01*
X007078Y016908D02*
X006597Y016908D01*
X006589Y016870D02*
X007068Y016870D01*
X007058Y016831D02*
X006582Y016831D01*
X006575Y016793D02*
X007047Y016793D01*
X007037Y016754D02*
X006567Y016754D01*
X006560Y016716D02*
X007027Y016716D01*
X007017Y016677D02*
X006553Y016677D01*
X006545Y016639D02*
X007006Y016639D01*
X006996Y016600D02*
X006538Y016600D01*
X006531Y016562D02*
X006986Y016562D01*
X006975Y016523D02*
X006523Y016523D01*
X006516Y016485D02*
X006965Y016485D01*
X006955Y016446D02*
X006509Y016446D01*
X006501Y016408D02*
X006944Y016408D01*
X006934Y016369D02*
X006494Y016369D01*
X006487Y016331D02*
X006924Y016331D01*
X006913Y016292D02*
X006482Y016292D01*
X006480Y016254D02*
X006903Y016254D01*
X006893Y016215D02*
X006477Y016215D01*
X006475Y016177D02*
X006903Y016177D01*
X006942Y016138D02*
X006472Y016138D01*
X006470Y016100D02*
X007086Y016100D01*
X007229Y016061D02*
X006468Y016061D01*
X006465Y016023D02*
X007373Y016023D01*
X007481Y015984D02*
X006463Y015984D01*
X006460Y015946D02*
X007520Y015946D01*
X007558Y015907D02*
X006458Y015907D01*
X006455Y015869D02*
X007597Y015869D01*
X007635Y015830D02*
X006453Y015830D01*
X006451Y015792D02*
X007069Y015792D01*
X006987Y015753D02*
X006448Y015753D01*
X006446Y015715D02*
X006894Y015715D01*
X006849Y015686D02*
X006849Y015686D01*
X006841Y015676D02*
X006443Y015676D01*
X006441Y015638D02*
X006810Y015638D01*
X006777Y015599D02*
X006439Y015599D01*
X006436Y015561D02*
X006738Y015561D01*
X006704Y015522D02*
X006434Y015522D01*
X006431Y015484D02*
X006688Y015484D01*
X006661Y015445D02*
X006429Y015445D01*
X006426Y015407D02*
X006652Y015407D01*
X006640Y015368D02*
X006424Y015368D01*
X006422Y015330D02*
X006624Y015330D01*
X006608Y015291D02*
X006419Y015291D01*
X006417Y015253D02*
X006608Y015253D01*
X006608Y015214D02*
X006414Y015214D01*
X006412Y015176D02*
X006599Y015176D01*
X006595Y015160D02*
X006595Y015160D01*
X006601Y015137D02*
X006412Y015137D01*
X006415Y015099D02*
X006608Y015099D01*
X006608Y015060D02*
X006417Y015060D01*
X006420Y015022D02*
X006611Y015022D01*
X006627Y014983D02*
X006422Y014983D01*
X006424Y014945D02*
X006643Y014945D01*
X006653Y014906D02*
X006427Y014906D01*
X006429Y014868D02*
X006662Y014868D01*
X006662Y014868D01*
X006691Y014829D02*
X006432Y014829D01*
X006434Y014791D02*
X006707Y014791D01*
X006745Y014752D02*
X006437Y014752D01*
X006439Y014714D02*
X006783Y014714D01*
X006816Y014675D02*
X006441Y014675D01*
X006444Y014637D02*
X006846Y014637D01*
X006849Y014634D02*
X006849Y014634D01*
X006910Y014598D02*
X006446Y014598D01*
X006449Y014560D02*
X007003Y014560D01*
X007885Y015407D02*
X008059Y015407D01*
X008020Y015445D02*
X007876Y015445D01*
X007874Y015452D02*
X007874Y015452D01*
X007849Y015484D02*
X007982Y015484D01*
X007943Y015522D02*
X007818Y015522D01*
X007787Y015561D02*
X007905Y015561D01*
X007866Y015599D02*
X007757Y015599D01*
X007726Y015638D02*
X007828Y015638D01*
X007789Y015676D02*
X007695Y015676D01*
X007751Y015715D02*
X007627Y015715D01*
X007548Y015753D02*
X007712Y015753D01*
X007674Y015792D02*
X007468Y015792D01*
X010834Y009355D02*
X010834Y009355D01*
X011470Y009285D02*
X011470Y009285D01*
X011234Y008554D02*
X009228Y008554D01*
X009269Y008515D02*
X011154Y008515D01*
X011074Y008477D02*
X009310Y008477D01*
X009351Y008438D02*
X011013Y008438D01*
X011025Y008453D02*
X011025Y008453D01*
X010982Y008400D02*
X009392Y008400D01*
X009433Y008361D02*
X010952Y008361D01*
X010921Y008323D02*
X009474Y008323D01*
X009515Y008284D02*
X010890Y008284D01*
X010859Y008246D02*
X009556Y008246D01*
X009597Y008207D02*
X010835Y008207D01*
X010838Y008219D02*
X010838Y008219D01*
X010827Y008169D02*
X009638Y008169D01*
X009679Y008130D02*
X010818Y008130D01*
X010809Y008092D02*
X009720Y008092D01*
X009765Y008053D02*
X010800Y008053D01*
X010791Y008015D02*
X009818Y008015D01*
X009871Y007976D02*
X010783Y007976D01*
X010774Y007938D02*
X009924Y007938D01*
X009977Y007899D02*
X010778Y007899D01*
X010771Y007927D02*
X010771Y007927D01*
X010786Y007861D02*
X010030Y007861D01*
X010083Y007822D02*
X010795Y007822D01*
X010804Y007784D02*
X010136Y007784D01*
X010189Y007745D02*
X010813Y007745D01*
X010822Y007707D02*
X010242Y007707D01*
X010295Y007668D02*
X010830Y007668D01*
X010838Y007635D02*
X010838Y007635D01*
X010842Y007630D02*
X010348Y007630D01*
X010401Y007591D02*
X010873Y007591D01*
X010904Y007553D02*
X010454Y007553D01*
X010507Y007514D02*
X010934Y007514D01*
X010965Y007476D02*
X010560Y007476D01*
X010613Y007437D02*
X010996Y007437D01*
X011025Y007401D02*
X011025Y007401D01*
X011029Y007399D02*
X010666Y007399D01*
X010729Y007360D02*
X011109Y007360D01*
X011189Y007322D02*
X010799Y007322D01*
X010869Y007283D02*
X011269Y007283D01*
X011149Y007129D02*
X020091Y007129D01*
X020161Y007168D02*
X011079Y007168D01*
X011009Y007206D02*
X020231Y007206D01*
X020301Y007245D02*
X010939Y007245D01*
X011219Y007091D02*
X020021Y007091D01*
X019950Y007052D02*
X011290Y007052D01*
X011360Y007014D02*
X019880Y007014D01*
X019810Y006975D02*
X011430Y006975D01*
X011500Y006937D02*
X019740Y006937D01*
X019670Y006898D02*
X011570Y006898D01*
X011640Y006860D02*
X019600Y006860D01*
X019526Y006821D02*
X011714Y006821D01*
X011811Y006783D02*
X019429Y006783D01*
X019332Y006744D02*
X011908Y006744D01*
X012006Y006706D02*
X019234Y006706D01*
X019137Y006667D02*
X012103Y006667D01*
X012200Y006629D02*
X019040Y006629D01*
X018943Y006590D02*
X012297Y006590D01*
X012395Y006552D02*
X018845Y006552D01*
X018748Y006513D02*
X012492Y006513D01*
X012589Y006475D02*
X018651Y006475D01*
X018554Y006436D02*
X012686Y006436D01*
X012789Y006398D02*
X018451Y006398D01*
X018301Y006359D02*
X012939Y006359D01*
X013088Y006321D02*
X018152Y006321D01*
X018002Y006282D02*
X013238Y006282D01*
X013388Y006244D02*
X017852Y006244D01*
X017702Y006205D02*
X013538Y006205D01*
X013688Y006167D02*
X017552Y006167D01*
X017402Y006128D02*
X013838Y006128D01*
X014085Y006090D02*
X017155Y006090D01*
X016850Y006051D02*
X014390Y006051D01*
X014694Y006013D02*
X016546Y006013D01*
X016241Y005974D02*
X014999Y005974D01*
X012011Y007553D02*
X019234Y007553D01*
X019266Y007514D02*
X011972Y007514D01*
X011934Y007476D02*
X019304Y007476D01*
X019420Y007360D02*
X011805Y007360D01*
X011712Y007322D02*
X019507Y007322D01*
X019600Y007283D02*
X011619Y007283D01*
X016779Y012057D02*
X018044Y012057D01*
X018066Y012019D02*
X016801Y012019D01*
X016823Y011980D02*
X018088Y011980D01*
X018110Y011942D02*
X016845Y011942D01*
X016868Y011903D02*
X018133Y011903D01*
X018155Y011865D02*
X016890Y011865D01*
X016912Y011826D02*
X018177Y011826D01*
X018199Y011788D02*
X016934Y011788D01*
X016957Y011749D02*
X018222Y011749D01*
X018244Y011711D02*
X016979Y011711D01*
X017001Y011672D02*
X018266Y011672D01*
X018288Y011634D02*
X017023Y011634D01*
X017046Y011595D02*
X018310Y011595D01*
X018333Y011557D02*
X017068Y011557D01*
X017090Y011518D02*
X018355Y011518D01*
X018377Y011480D02*
X017112Y011480D01*
X017134Y011441D02*
X018399Y011441D01*
X018422Y011403D02*
X017157Y011403D01*
X017179Y011364D02*
X018444Y011364D01*
X018466Y011326D02*
X017201Y011326D01*
X017223Y011287D02*
X018488Y011287D01*
X018510Y011249D02*
X017246Y011249D01*
X017268Y011210D02*
X018533Y011210D01*
X018555Y011172D02*
X017290Y011172D01*
X017312Y011133D02*
X018577Y011133D01*
X018599Y011095D02*
X017335Y011095D01*
X017357Y011056D02*
X018622Y011056D01*
X018644Y011018D02*
X017379Y011018D01*
X017401Y010979D02*
X018666Y010979D01*
X018688Y010941D02*
X017423Y010941D01*
X017446Y010902D02*
X018711Y010902D01*
X018733Y010864D02*
X017468Y010864D01*
X017490Y010825D02*
X018755Y010825D01*
X018777Y010787D02*
X017512Y010787D01*
X017535Y010748D02*
X018799Y010748D01*
X018822Y010710D02*
X017557Y010710D01*
X017579Y010671D02*
X018844Y010671D01*
X018866Y010633D02*
X018388Y010633D01*
X018439Y010594D02*
X018888Y010594D01*
X018911Y010556D02*
X018461Y010556D01*
X018483Y010517D02*
X018933Y010517D01*
X018955Y010479D02*
X018505Y010479D01*
X018527Y010440D02*
X018977Y010440D01*
X019000Y010402D02*
X018549Y010402D01*
X018570Y010363D02*
X019022Y010363D01*
X019044Y010325D02*
X018592Y010325D01*
X018614Y010286D02*
X019066Y010286D01*
X019088Y010248D02*
X018636Y010248D01*
X018658Y010209D02*
X019111Y010209D01*
X019133Y010171D02*
X018680Y010171D01*
X018702Y010132D02*
X019155Y010132D01*
X019177Y010094D02*
X018724Y010094D01*
X018746Y010055D02*
X019200Y010055D01*
X019222Y010017D02*
X018768Y010017D01*
X018790Y009978D02*
X019244Y009978D01*
X019266Y009940D02*
X018812Y009940D01*
X018834Y009901D02*
X019288Y009901D01*
X019311Y009863D02*
X018856Y009863D01*
X018878Y009824D02*
X019333Y009824D01*
X019355Y009786D02*
X018899Y009786D01*
X018921Y009747D02*
X019377Y009747D01*
X019400Y009709D02*
X018943Y009709D01*
X018965Y009670D02*
X019422Y009670D01*
X019444Y009632D02*
X018987Y009632D01*
X019009Y009593D02*
X019466Y009593D01*
X019489Y009555D02*
X019031Y009555D01*
X019053Y009516D02*
X019511Y009516D01*
X019533Y009478D02*
X019075Y009478D01*
X019097Y009439D02*
X019555Y009439D01*
X019606Y009401D02*
X019119Y009401D01*
X019141Y009362D02*
X019660Y009362D01*
X019715Y009324D02*
X019163Y009324D01*
X019185Y009285D02*
X019770Y009285D01*
X019935Y009247D02*
X019206Y009247D01*
X020006Y008554D02*
X022012Y008554D01*
X021971Y008515D02*
X020086Y008515D01*
X020166Y008477D02*
X021930Y008477D01*
X021889Y008438D02*
X020227Y008438D01*
X020215Y008453D02*
X020215Y008453D01*
X020258Y008400D02*
X021848Y008400D01*
X021807Y008361D02*
X020288Y008361D01*
X020319Y008323D02*
X021766Y008323D01*
X021725Y008284D02*
X020350Y008284D01*
X020381Y008246D02*
X021684Y008246D01*
X021643Y008207D02*
X020405Y008207D01*
X020413Y008169D02*
X021602Y008169D01*
X021561Y008130D02*
X020422Y008130D01*
X020431Y008092D02*
X021520Y008092D01*
X021475Y008053D02*
X020441Y008053D01*
X020449Y008015D02*
X021422Y008015D01*
X021369Y007976D02*
X020457Y007976D01*
X020466Y007938D02*
X021316Y007938D01*
X021263Y007899D02*
X020462Y007899D01*
X020454Y007861D02*
X021210Y007861D01*
X021157Y007822D02*
X020446Y007822D01*
X020446Y007784D02*
X021104Y007784D01*
X021051Y007745D02*
X020432Y007745D01*
X020418Y007707D02*
X020998Y007707D01*
X020945Y007668D02*
X020410Y007668D01*
X020398Y007630D02*
X020892Y007630D01*
X020839Y007591D02*
X020368Y007591D01*
X020352Y007553D02*
X020786Y007553D01*
X020733Y007514D02*
X020321Y007514D01*
X020282Y007476D02*
X020680Y007476D01*
X020627Y007437D02*
X020244Y007437D01*
X020211Y007399D02*
X020574Y007399D01*
X020511Y007360D02*
X020167Y007360D01*
X020079Y007322D02*
X020441Y007322D01*
X020371Y007283D02*
X019986Y007283D01*
X017850Y010363D02*
X017757Y010363D01*
X017779Y010325D02*
X017785Y010325D01*
X017735Y010402D02*
X017916Y010402D01*
X017981Y010440D02*
X017712Y010440D01*
X017690Y010479D02*
X018047Y010479D01*
X018112Y010517D02*
X017668Y010517D01*
X017646Y010556D02*
X018178Y010556D01*
X018243Y010594D02*
X017623Y010594D01*
X017601Y010633D02*
X018308Y010633D01*
X018255Y010602D02*
X018255Y010602D01*
X018021Y012096D02*
X016757Y012096D01*
X016734Y012134D02*
X017999Y012134D01*
X017977Y012173D02*
X016712Y012173D01*
X016690Y012211D02*
X017955Y012211D01*
X017933Y012250D02*
X016668Y012250D01*
X016645Y012288D02*
X017910Y012288D01*
X017888Y012327D02*
X016623Y012327D01*
X016601Y012365D02*
X017866Y012365D01*
X017844Y012404D02*
X016579Y012404D01*
X016557Y012442D02*
X017821Y012442D01*
X017799Y012481D02*
X016534Y012481D01*
X016512Y012519D02*
X017777Y012519D01*
X017755Y012558D02*
X016490Y012558D01*
X016468Y012596D02*
X017733Y012596D01*
X017710Y012635D02*
X016445Y012635D01*
X016423Y012673D02*
X017688Y012673D01*
X017666Y012712D02*
X016401Y012712D01*
X016379Y012750D02*
X017644Y012750D01*
X017621Y012789D02*
X016356Y012789D01*
X016334Y012827D02*
X017599Y012827D01*
X017577Y012866D02*
X016312Y012866D01*
X016290Y012904D02*
X017555Y012904D01*
X017532Y012943D02*
X016268Y012943D01*
X016245Y012981D02*
X017510Y012981D01*
X017488Y013020D02*
X016223Y013020D01*
X016201Y013058D02*
X017466Y013058D01*
X017444Y013097D02*
X016179Y013097D01*
X016156Y013135D02*
X017421Y013135D01*
X017399Y013174D02*
X016134Y013174D01*
X016112Y013212D02*
X017377Y013212D01*
X017355Y013251D02*
X016074Y013251D01*
X016101Y013231D02*
X016101Y013231D01*
X016101Y013231D01*
X016021Y013289D02*
X017332Y013289D01*
X017310Y013328D02*
X015968Y013328D01*
X015915Y013366D02*
X017288Y013366D01*
X017266Y013405D02*
X015810Y013405D01*
X015883Y013389D02*
X015883Y013389D01*
X015629Y013443D02*
X017243Y013443D01*
X015620Y013445D02*
X015620Y013445D01*
X023552Y015686D02*
X023552Y015686D01*
X023552Y015686D01*
M02*
