G75*
G70*
%OFA0B0*%
%FSLAX24Y24*%
%IPPOS*%
%LPD*%
%AMOC8*
5,1,8,0,0,1.08239X$1,22.5*
%
%ADD10R,0.2000X0.1000*%
%ADD11C,0.0060*%
%ADD12C,0.0360*%
%ADD13C,0.0320*%
D10*
G36*
X017916Y015272D02*
X016917Y017004D01*
X017784Y017504D01*
X018783Y015772D01*
X017916Y015272D01*
G37*
D11*
X006758Y005825D02*
X005867Y005825D01*
X005925Y005767D02*
X006734Y005767D01*
X006729Y005754D02*
X006729Y005412D01*
X006860Y005096D01*
X007102Y004854D01*
X007418Y004723D01*
X007760Y004723D01*
X008076Y004854D01*
X008318Y005096D01*
X008449Y005412D01*
X008449Y005754D01*
X008318Y006070D01*
X008076Y006312D01*
X007760Y006443D01*
X007418Y006443D01*
X007102Y006312D01*
X006860Y006070D01*
X006729Y005754D01*
X006729Y005708D02*
X005984Y005708D01*
X006042Y005650D02*
X006729Y005650D01*
X006729Y005591D02*
X006101Y005591D01*
X006159Y005533D02*
X006729Y005533D01*
X006729Y005474D02*
X006218Y005474D01*
X006276Y005416D02*
X006729Y005416D01*
X006751Y005357D02*
X006335Y005357D01*
X006393Y005299D02*
X006776Y005299D01*
X006800Y005240D02*
X006452Y005240D01*
X006510Y005182D02*
X006824Y005182D01*
X006848Y005123D02*
X006569Y005123D01*
X006577Y005115D02*
X005575Y006117D01*
X004684Y007217D01*
X003913Y008405D01*
X003270Y009667D01*
X002762Y010989D01*
X002396Y012357D01*
X002174Y013756D01*
X002100Y015170D01*
X002174Y016584D01*
X002396Y017983D01*
X002762Y019351D01*
X003270Y020673D01*
X003913Y021935D01*
X004684Y023123D01*
X005575Y024223D01*
X006577Y025225D01*
X007677Y026116D01*
X008865Y026887D01*
X010127Y027530D01*
X011449Y028038D01*
X012817Y028404D01*
X014216Y028626D01*
X015630Y028700D01*
X017044Y028626D01*
X018443Y028404D01*
X019811Y028038D01*
X021133Y027530D01*
X022395Y026887D01*
X023583Y026116D01*
X023583Y026116D01*
X024683Y025225D01*
X024683Y025225D01*
X025685Y024223D01*
X026576Y023123D01*
X027347Y021935D01*
X027990Y020673D01*
X028498Y019351D01*
X028864Y017983D01*
X029086Y016584D01*
X029160Y015170D01*
X029086Y013756D01*
X028864Y012357D01*
X028498Y010989D01*
X027990Y009667D01*
X027347Y008405D01*
X026576Y007217D01*
X025685Y006117D01*
X024683Y005115D01*
X023583Y004224D01*
X022395Y003453D01*
X021133Y002810D01*
X019811Y002302D01*
X018443Y001936D01*
X018443Y001936D01*
X017044Y001714D01*
X015630Y001640D01*
X014216Y001714D01*
X012817Y001936D01*
X011449Y002302D01*
X010127Y002810D01*
X008865Y003453D01*
X007677Y004224D01*
X006577Y005115D01*
X006639Y005065D02*
X006890Y005065D01*
X006949Y005006D02*
X006711Y005006D01*
X006784Y004948D02*
X007007Y004948D01*
X007066Y004889D02*
X006856Y004889D01*
X006928Y004831D02*
X007157Y004831D01*
X007073Y004714D02*
X008601Y004714D01*
X008625Y004772D02*
X007879Y004772D01*
X008020Y004831D02*
X008661Y004831D01*
X008641Y004811D02*
X008510Y004495D01*
X008510Y004152D01*
X008641Y003836D01*
X008274Y003836D01*
X008184Y003895D02*
X008617Y003895D01*
X008593Y003953D02*
X008094Y003953D01*
X008004Y004012D02*
X008568Y004012D01*
X008544Y004070D02*
X007914Y004070D01*
X007824Y004129D02*
X008520Y004129D01*
X008510Y004187D02*
X007734Y004187D01*
X007650Y004246D02*
X008510Y004246D01*
X008510Y004304D02*
X007578Y004304D01*
X007506Y004363D02*
X008510Y004363D01*
X008510Y004421D02*
X007434Y004421D01*
X007362Y004480D02*
X008510Y004480D01*
X008528Y004538D02*
X007289Y004538D01*
X007217Y004597D02*
X008553Y004597D01*
X008577Y004655D02*
X007145Y004655D01*
X007000Y004772D02*
X007298Y004772D01*
X008111Y004889D02*
X008720Y004889D01*
X008778Y004948D02*
X008170Y004948D01*
X008228Y005006D02*
X008837Y005006D01*
X008883Y005053D02*
X008641Y004811D01*
X008883Y005053D02*
X009199Y005183D01*
X009541Y005183D01*
X009857Y005053D01*
X010099Y004811D01*
X010230Y004495D01*
X010230Y004152D01*
X010099Y003836D01*
X010595Y003836D01*
X010571Y003778D02*
X010041Y003778D01*
X010099Y003836D02*
X009857Y003595D01*
X009541Y003464D01*
X009199Y003464D01*
X008883Y003595D01*
X008641Y003836D01*
X008700Y003778D02*
X008365Y003778D01*
X008455Y003719D02*
X008758Y003719D01*
X008817Y003661D02*
X008545Y003661D01*
X008635Y003602D02*
X008875Y003602D01*
X008815Y003485D02*
X009147Y003485D01*
X009005Y003544D02*
X008725Y003544D01*
X008916Y003427D02*
X010489Y003427D01*
X010489Y003485D02*
X009594Y003485D01*
X009735Y003544D02*
X010489Y003544D01*
X010489Y003581D02*
X010489Y003239D01*
X010620Y002923D01*
X010862Y002681D01*
X011178Y002550D01*
X011520Y002550D01*
X011836Y002681D01*
X012078Y002923D01*
X012209Y003239D01*
X012209Y003581D01*
X012078Y003897D01*
X011836Y004139D01*
X011520Y004270D01*
X011178Y004270D01*
X010862Y004139D01*
X010620Y003897D01*
X010489Y003581D01*
X010498Y003602D02*
X009865Y003602D01*
X009924Y003661D02*
X010522Y003661D01*
X010546Y003719D02*
X009982Y003719D01*
X010123Y003895D02*
X010619Y003895D01*
X010676Y003953D02*
X010148Y003953D01*
X010172Y004012D02*
X010735Y004012D01*
X010793Y004070D02*
X010196Y004070D01*
X010220Y004129D02*
X010852Y004129D01*
X010979Y004187D02*
X010230Y004187D01*
X010230Y004246D02*
X011120Y004246D01*
X011577Y004246D02*
X012865Y004246D01*
X012891Y004232D02*
X013050Y004196D01*
X013050Y004196D01*
X013098Y004185D01*
X013111Y004182D01*
X013147Y004173D01*
X013721Y004041D01*
X014990Y003897D01*
X014990Y003897D01*
X016268Y003897D01*
X017538Y004041D01*
X018112Y004173D01*
X018139Y004179D01*
X018160Y004184D01*
X018208Y004195D01*
X018368Y004232D01*
X018744Y004431D01*
X018744Y004431D01*
X019057Y004721D01*
X019284Y005081D01*
X019412Y005487D01*
X019412Y005487D01*
X019430Y005913D01*
X019338Y006329D01*
X019338Y006329D01*
X019263Y006475D01*
X019240Y006519D01*
X019218Y006562D01*
X019217Y006563D01*
X019146Y006699D01*
X019146Y006700D01*
X019123Y006743D01*
X019101Y006786D01*
X019100Y006786D01*
X019027Y006922D01*
X019027Y006923D01*
X019003Y006966D01*
X018981Y007009D01*
X018980Y007009D01*
X018906Y007144D01*
X018905Y007146D01*
X018882Y007188D01*
X018858Y007230D01*
X018857Y007231D01*
X018782Y007365D01*
X018782Y007366D01*
X018758Y007409D01*
X018734Y007451D01*
X018733Y007452D01*
X018657Y007585D01*
X018656Y007586D01*
X018632Y007628D01*
X018608Y007670D01*
X018607Y007671D01*
X018529Y007803D01*
X018529Y007805D01*
X018504Y007846D01*
X018479Y007888D01*
X018478Y007889D01*
X018399Y008021D01*
X018399Y008022D01*
X018373Y008063D01*
X018349Y008105D01*
X018348Y008106D01*
X018267Y008237D01*
X018267Y008238D01*
X018241Y008279D01*
X018216Y008320D01*
X018215Y008321D01*
X018133Y008452D01*
X018133Y008453D01*
X018107Y008494D01*
X018081Y008535D01*
X018080Y008535D01*
X017997Y008665D01*
X017996Y008666D01*
X017970Y008707D01*
X017944Y008748D01*
X017943Y008749D01*
X017858Y008878D01*
X017858Y008879D01*
X017831Y008919D01*
X017805Y008960D01*
X017804Y008960D01*
X017718Y009089D01*
X017718Y009090D01*
X017690Y009130D01*
X017663Y009170D01*
X017662Y009171D01*
X017575Y009299D01*
X017575Y009300D01*
X017547Y009340D01*
X017520Y009380D01*
X017519Y009380D01*
X017430Y009507D01*
X017430Y009509D01*
X017402Y009548D01*
X017374Y009588D01*
X017373Y009589D01*
X017284Y009715D01*
X017283Y009716D01*
X017255Y009755D01*
X017227Y009795D01*
X017226Y009795D01*
X017120Y009942D01*
X017108Y009966D01*
X017091Y009981D01*
X017077Y010000D01*
X017054Y010014D01*
X017035Y010032D01*
X017012Y010040D01*
X016992Y010052D01*
X016971Y010056D01*
X016813Y010122D01*
X016489Y010321D01*
X016345Y010445D01*
X016309Y010479D01*
X016230Y010554D01*
X015944Y010694D01*
X015630Y010743D01*
X015316Y010694D01*
X015030Y010554D01*
X014951Y010479D01*
X014951Y010479D01*
X014915Y010445D01*
X014771Y010321D01*
X014447Y010122D01*
X014289Y010056D01*
X014268Y010053D01*
X014248Y010040D01*
X014225Y010032D01*
X014206Y010014D01*
X014183Y010001D01*
X014169Y009981D01*
X014152Y009966D01*
X014140Y009942D01*
X014034Y009796D01*
X014033Y009795D01*
X014005Y009756D01*
X013977Y009716D01*
X013976Y009715D01*
X013886Y009589D01*
X013885Y009588D01*
X013857Y009549D01*
X013829Y009509D01*
X013829Y009508D01*
X013740Y009381D01*
X013739Y009380D01*
X013712Y009340D01*
X013684Y009300D01*
X013684Y009299D01*
X013597Y009171D01*
X013596Y009171D01*
X013569Y009130D01*
X013542Y009090D01*
X013541Y009089D01*
X013455Y008961D01*
X013454Y008960D01*
X013428Y008920D01*
X013401Y008879D01*
X013401Y008878D01*
X013316Y008749D01*
X013315Y008748D01*
X013289Y008707D01*
X013262Y008667D01*
X013262Y008666D01*
X013179Y008536D01*
X013178Y008535D01*
X013152Y008494D01*
X013126Y008453D01*
X013126Y008452D01*
X013044Y008322D01*
X013043Y008321D01*
X013017Y008280D01*
X012992Y008238D01*
X012991Y008237D01*
X012911Y008106D01*
X012910Y008105D01*
X012885Y008064D01*
X012860Y008022D01*
X012859Y008021D01*
X012780Y007889D01*
X012779Y007888D01*
X012755Y007847D01*
X012730Y007805D01*
X012729Y007804D01*
X012651Y007671D01*
X012650Y007670D01*
X012626Y007628D01*
X012602Y007586D01*
X012602Y007585D01*
X012525Y007452D01*
X012524Y007451D01*
X012500Y007409D01*
X012476Y007367D01*
X012476Y007365D01*
X012401Y007231D01*
X012400Y007230D01*
X012376Y007188D01*
X012353Y007145D01*
X012353Y007144D01*
X012279Y007009D01*
X012278Y007008D01*
X012255Y006966D01*
X012231Y006923D01*
X012231Y006922D01*
X012159Y006786D01*
X012158Y006785D01*
X012135Y006742D01*
X012112Y006700D01*
X012112Y006698D01*
X012041Y006562D01*
X012041Y006562D01*
X012018Y006518D01*
X011995Y006475D01*
X011995Y006474D01*
X011920Y006329D01*
X011920Y006329D01*
X011828Y005913D01*
X011828Y005913D01*
X011847Y005487D01*
X011974Y005081D01*
X011974Y005081D01*
X012202Y004721D01*
X012514Y004432D01*
X012891Y004232D01*
X012755Y004304D02*
X010230Y004304D01*
X010230Y004363D02*
X012644Y004363D01*
X012534Y004421D02*
X010230Y004421D01*
X010230Y004480D02*
X012462Y004480D01*
X012514Y004432D02*
X012514Y004432D01*
X012399Y004538D02*
X010212Y004538D01*
X010188Y004597D02*
X012336Y004597D01*
X012273Y004655D02*
X010163Y004655D01*
X010139Y004714D02*
X012209Y004714D01*
X012169Y004772D02*
X010115Y004772D01*
X010079Y004831D02*
X012132Y004831D01*
X012095Y004889D02*
X010020Y004889D01*
X009962Y004948D02*
X012058Y004948D01*
X012021Y005006D02*
X009903Y005006D01*
X009827Y005065D02*
X011984Y005065D01*
X011961Y005123D02*
X009686Y005123D01*
X009545Y005182D02*
X011943Y005182D01*
X011924Y005240D02*
X008378Y005240D01*
X008353Y005182D02*
X009195Y005182D01*
X009054Y005123D02*
X008329Y005123D01*
X008287Y005065D02*
X008913Y005065D01*
X008402Y005299D02*
X011906Y005299D01*
X011888Y005357D02*
X008426Y005357D01*
X008449Y005416D02*
X011869Y005416D01*
X011851Y005474D02*
X008449Y005474D01*
X008449Y005533D02*
X011845Y005533D01*
X011847Y005487D02*
X011847Y005487D01*
X011842Y005591D02*
X008449Y005591D01*
X008449Y005650D02*
X011840Y005650D01*
X011837Y005708D02*
X008449Y005708D01*
X008443Y005767D02*
X011835Y005767D01*
X011832Y005825D02*
X008419Y005825D01*
X008395Y005884D02*
X011830Y005884D01*
X011835Y005942D02*
X008370Y005942D01*
X008346Y006001D02*
X011848Y006001D01*
X011861Y006059D02*
X008322Y006059D01*
X008270Y006118D02*
X011874Y006118D01*
X011887Y006176D02*
X008211Y006176D01*
X008153Y006235D02*
X011899Y006235D01*
X011912Y006293D02*
X008094Y006293D01*
X007979Y006352D02*
X011932Y006352D01*
X011962Y006410D02*
X007838Y006410D01*
X007887Y007104D02*
X008294Y006978D01*
X008720Y006961D01*
X009135Y007054D01*
X009513Y007251D01*
X009828Y007538D01*
X009916Y007676D01*
X009917Y007676D01*
X009943Y007717D01*
X009969Y007759D01*
X009969Y007760D01*
X010052Y007889D01*
X010053Y007890D01*
X010078Y007931D01*
X010104Y007972D01*
X010104Y007973D01*
X010186Y008104D01*
X010187Y008105D01*
X010212Y008147D01*
X010237Y008188D01*
X010237Y008189D01*
X010317Y008320D01*
X010318Y008321D01*
X010343Y008363D01*
X010368Y008404D01*
X010368Y008406D01*
X010447Y008538D01*
X010448Y008539D01*
X010472Y008580D01*
X010497Y008622D01*
X010497Y008623D01*
X010574Y008756D01*
X010575Y008757D01*
X010599Y008799D01*
X010624Y008841D01*
X010624Y008842D01*
X010700Y008976D01*
X010701Y008977D01*
X010724Y009019D01*
X010748Y009062D01*
X010748Y009063D01*
X010823Y009197D01*
X010824Y009198D01*
X010847Y009241D01*
X010871Y009283D01*
X010871Y009284D01*
X010944Y009420D01*
X010945Y009420D01*
X010968Y009463D01*
X010991Y009506D01*
X010991Y009507D01*
X011063Y009643D01*
X011064Y009644D01*
X011086Y009687D01*
X011109Y009730D01*
X011109Y009731D01*
X011180Y009868D01*
X011181Y009869D01*
X011203Y009912D01*
X011225Y009955D01*
X011225Y009956D01*
X011295Y010094D01*
X011296Y010095D01*
X011317Y010138D01*
X011339Y010182D01*
X011339Y010183D01*
X011407Y010321D01*
X011408Y010322D01*
X011429Y010366D01*
X011451Y010409D01*
X011451Y010410D01*
X011518Y010550D01*
X011519Y010551D01*
X011539Y010594D01*
X011560Y010638D01*
X011561Y010639D01*
X011626Y010779D01*
X011627Y010780D01*
X011647Y010824D01*
X011668Y010868D01*
X011668Y010869D01*
X011733Y011010D01*
X011733Y011011D01*
X011753Y011055D01*
X011773Y011100D01*
X011773Y011101D01*
X011847Y011266D01*
X013204Y011266D01*
X013236Y011227D02*
X013278Y011206D01*
X013293Y011192D01*
X013407Y011144D01*
X013510Y011095D01*
X013526Y011095D01*
X013536Y011091D01*
X013800Y011091D01*
X013810Y011095D01*
X013813Y011095D01*
X013835Y011105D01*
X014044Y011192D01*
X014071Y011219D01*
X014087Y011227D01*
X014121Y011269D01*
X014230Y011378D01*
X014254Y011436D01*
X014277Y011464D01*
X014277Y011464D01*
X014290Y011522D01*
X014331Y011622D01*
X014331Y011703D01*
X014344Y011760D01*
X014331Y011818D01*
X014331Y011886D01*
X014297Y011969D01*
X014277Y012057D01*
X014243Y012099D01*
X014230Y012129D01*
X014173Y012186D01*
X014087Y012294D01*
X014045Y012315D01*
X014044Y012316D01*
X014033Y012320D01*
X013813Y012426D01*
X013510Y012426D01*
X013236Y012294D01*
X013046Y012057D01*
X013046Y012057D01*
X013010Y011898D01*
X013005Y011886D01*
X013005Y011876D01*
X012979Y011760D01*
X013005Y011645D01*
X013005Y011622D01*
X013017Y011593D01*
X013046Y011464D01*
X013096Y011402D01*
X013106Y011378D01*
X013150Y011334D01*
X013236Y011227D01*
X013236Y011227D01*
X013276Y011207D02*
X011821Y011207D01*
X011795Y011149D02*
X013396Y011149D01*
X013158Y011324D02*
X011873Y011324D01*
X011877Y011332D02*
X011877Y011359D01*
X011883Y011385D01*
X011879Y011408D01*
X011879Y011431D01*
X011872Y011451D01*
X011850Y011622D01*
X011860Y012001D01*
X011895Y012188D01*
X011907Y012236D01*
X011907Y012236D01*
X011933Y012342D01*
X011933Y012342D01*
X011911Y012660D01*
X011796Y012956D01*
X011796Y012956D01*
X011597Y013205D01*
X011597Y013205D01*
X011597Y013205D01*
X011333Y013382D01*
X011333Y013382D01*
X011228Y013413D01*
X011180Y013427D01*
X011001Y013490D01*
X010667Y013670D01*
X010530Y013774D01*
X010517Y013791D01*
X010496Y013802D01*
X010478Y013818D01*
X010453Y013826D01*
X010430Y013838D01*
X010406Y013841D01*
X010384Y013848D01*
X010357Y013846D01*
X010178Y013865D01*
X010177Y013865D01*
X010129Y013870D01*
X010080Y013875D01*
X010079Y013875D01*
X009925Y013890D01*
X009924Y013890D01*
X009875Y013894D01*
X009827Y013899D01*
X009826Y013899D01*
X009672Y013912D01*
X009670Y013912D01*
X009622Y013916D01*
X009574Y013920D01*
X009573Y013920D01*
X009419Y013931D01*
X009417Y013932D01*
X009369Y013935D01*
X009321Y013939D01*
X009320Y013939D01*
X009165Y013949D01*
X009164Y013949D01*
X009116Y013952D01*
X009068Y013955D01*
X009066Y013955D01*
X008912Y013963D01*
X008911Y013964D01*
X008863Y013966D01*
X008814Y013969D01*
X008813Y013969D01*
X008659Y013976D01*
X008658Y013976D01*
X008610Y013978D01*
X008561Y013980D01*
X008560Y013980D01*
X008406Y013986D01*
X008405Y013986D01*
X008356Y013987D01*
X008308Y013989D01*
X008307Y013989D01*
X008153Y013993D01*
X008152Y013993D01*
X008103Y013994D01*
X008055Y013995D01*
X008054Y013995D01*
X007900Y013998D01*
X007898Y013998D01*
X007850Y013998D01*
X007802Y013999D01*
X007800Y013999D01*
X007646Y014000D01*
X007645Y014000D01*
X007597Y014000D01*
X007548Y014001D01*
X007547Y014000D01*
X007393Y014000D01*
X007392Y014000D01*
X007344Y014000D01*
X007295Y014000D01*
X007294Y013999D01*
X007140Y013997D01*
X007139Y013998D01*
X007090Y013997D01*
X007042Y013996D01*
X007041Y013995D01*
X006887Y013992D01*
X006886Y013992D01*
X006837Y013991D01*
X006789Y013990D01*
X006788Y013989D01*
X006634Y013984D01*
X006632Y013985D01*
X006584Y013983D01*
X006536Y013981D01*
X006534Y013981D01*
X006381Y013974D01*
X006380Y013974D01*
X006331Y013972D01*
X006282Y013970D01*
X006118Y013962D01*
X005712Y013834D01*
X005353Y013605D01*
X005065Y013291D01*
X004867Y012914D01*
X004773Y012499D01*
X004788Y012073D01*
X004836Y011917D01*
X004848Y011879D01*
X004851Y011870D01*
X004865Y011822D01*
X005038Y011259D01*
X005547Y010087D01*
X006186Y008981D01*
X006186Y008981D01*
X006946Y007953D01*
X007347Y007522D01*
X007381Y007486D01*
X007526Y007330D01*
X007526Y007330D01*
X007526Y007330D01*
X007887Y007104D01*
X007887Y007104D01*
X007873Y007112D02*
X004769Y007112D01*
X004816Y007054D02*
X008048Y007054D01*
X008237Y006995D02*
X004864Y006995D01*
X004911Y006937D02*
X012239Y006937D01*
X012208Y006878D02*
X004959Y006878D01*
X005006Y006820D02*
X012177Y006820D01*
X012145Y006761D02*
X005053Y006761D01*
X005101Y006703D02*
X012114Y006703D01*
X012084Y006644D02*
X005148Y006644D01*
X005195Y006586D02*
X012053Y006586D01*
X012023Y006527D02*
X005243Y006527D01*
X005290Y006469D02*
X011993Y006469D01*
X012271Y006995D02*
X008875Y006995D01*
X008720Y006961D02*
X008720Y006961D01*
X009135Y007054D02*
X009135Y007054D01*
X009136Y007054D02*
X012303Y007054D01*
X012335Y007112D02*
X009248Y007112D01*
X009360Y007171D02*
X012367Y007171D01*
X012399Y007229D02*
X009473Y007229D01*
X009513Y007251D02*
X009513Y007251D01*
X009554Y007288D02*
X012433Y007288D01*
X012465Y007346D02*
X009618Y007346D01*
X009682Y007405D02*
X012498Y007405D01*
X012532Y007463D02*
X009746Y007463D01*
X009810Y007522D02*
X012565Y007522D01*
X012599Y007580D02*
X009855Y007580D01*
X009828Y007538D02*
X009828Y007538D01*
X009828Y007538D01*
X009892Y007639D02*
X012633Y007639D01*
X012667Y007697D02*
X009930Y007697D01*
X009967Y007756D02*
X012701Y007756D01*
X012735Y007814D02*
X010004Y007814D01*
X010041Y007873D02*
X012770Y007873D01*
X012806Y007931D02*
X010078Y007931D01*
X010115Y007990D02*
X012841Y007990D01*
X012876Y008048D02*
X010151Y008048D01*
X010188Y008107D02*
X012911Y008107D01*
X012947Y008165D02*
X010223Y008165D01*
X010259Y008224D02*
X012983Y008224D01*
X013019Y008282D02*
X010294Y008282D01*
X010330Y008341D02*
X013056Y008341D01*
X013093Y008399D02*
X010365Y008399D01*
X010399Y008458D02*
X013129Y008458D01*
X013166Y008516D02*
X010434Y008516D01*
X010469Y008575D02*
X013204Y008575D01*
X013241Y008633D02*
X010503Y008633D01*
X010537Y008692D02*
X013279Y008692D01*
X013317Y008750D02*
X010571Y008750D01*
X010605Y008809D02*
X013355Y008809D01*
X013394Y008867D02*
X010638Y008867D01*
X010671Y008926D02*
X013432Y008926D01*
X013471Y008984D02*
X010705Y008984D01*
X010738Y009043D02*
X013510Y009043D01*
X013549Y009101D02*
X010770Y009101D01*
X010802Y009160D02*
X013589Y009160D01*
X013629Y009218D02*
X010835Y009218D01*
X010867Y009277D02*
X013669Y009277D01*
X013709Y009335D02*
X010898Y009335D01*
X010930Y009394D02*
X013750Y009394D01*
X013790Y009452D02*
X010962Y009452D01*
X010993Y009511D02*
X013831Y009511D01*
X013872Y009569D02*
X011024Y009569D01*
X011055Y009628D02*
X013914Y009628D01*
X013956Y009686D02*
X011086Y009686D01*
X011116Y009745D02*
X013997Y009745D01*
X014040Y009803D02*
X011147Y009803D01*
X011177Y009862D02*
X014082Y009862D01*
X014125Y009920D02*
X011207Y009920D01*
X011237Y009979D02*
X014166Y009979D01*
X014240Y010037D02*
X011266Y010037D01*
X011296Y010096D02*
X014385Y010096D01*
X014500Y010154D02*
X011325Y010154D01*
X011354Y010213D02*
X014595Y010213D01*
X014690Y010271D02*
X011383Y010271D01*
X011412Y010330D02*
X014781Y010330D01*
X014849Y010388D02*
X011441Y010388D01*
X011468Y010447D02*
X014917Y010447D01*
X014979Y010505D02*
X011497Y010505D01*
X011525Y010564D02*
X015050Y010564D01*
X015030Y010554D02*
X015030Y010554D01*
X015169Y010622D02*
X011553Y010622D01*
X011580Y010681D02*
X015288Y010681D01*
X015316Y010694D02*
X015316Y010694D01*
X015608Y010739D02*
X011607Y010739D01*
X011635Y010798D02*
X019624Y010798D01*
X019632Y010780D02*
X019633Y010779D01*
X019699Y010639D01*
X019699Y010638D01*
X019720Y010594D01*
X019740Y010550D01*
X019741Y010549D01*
X019808Y010410D01*
X019808Y010409D01*
X019830Y010365D01*
X019851Y010322D01*
X019852Y010321D01*
X019920Y010182D01*
X019920Y010181D01*
X019942Y010138D01*
X019963Y010094D01*
X019964Y010093D01*
X020034Y009955D01*
X020034Y009954D01*
X020056Y009911D01*
X020078Y009868D01*
X020079Y009867D01*
X020150Y009730D01*
X020150Y009729D01*
X020172Y009686D01*
X020195Y009643D01*
X020196Y009642D01*
X020268Y009506D01*
X020268Y009505D01*
X020291Y009462D01*
X020314Y009419D01*
X020315Y009419D01*
X020388Y009283D01*
X020388Y009282D01*
X020412Y009239D01*
X020435Y009197D01*
X020436Y009196D01*
X020511Y009061D01*
X020511Y009060D01*
X020535Y009018D01*
X020558Y008976D01*
X020559Y008975D01*
X020635Y008841D01*
X020635Y008840D01*
X020660Y008798D01*
X020684Y008756D01*
X020685Y008755D01*
X020762Y008622D01*
X020762Y008621D01*
X020787Y008579D01*
X020811Y008537D01*
X020812Y008536D01*
X020891Y008404D01*
X020891Y008403D01*
X020916Y008361D01*
X020941Y008320D01*
X020942Y008319D01*
X021022Y008187D01*
X021022Y008186D01*
X021048Y008145D01*
X021073Y008103D01*
X021074Y008103D01*
X021155Y007972D01*
X021155Y007970D01*
X021181Y007930D01*
X021207Y007888D01*
X021208Y007888D01*
X021290Y007758D01*
X021290Y007757D01*
X021317Y007716D01*
X021343Y007675D01*
X021343Y007674D01*
X021432Y007536D01*
X021746Y007249D01*
X022124Y007052D01*
X022540Y006960D01*
X022965Y006977D01*
X023372Y007103D01*
X023733Y007329D01*
X023844Y007448D01*
X023878Y007485D01*
X024313Y007952D01*
X024313Y007952D01*
X025073Y008979D01*
X025073Y008979D01*
X025712Y010086D01*
X026222Y011257D01*
X026222Y011257D01*
X026409Y011868D01*
X026424Y011916D01*
X026471Y012072D01*
X026487Y012498D01*
X026393Y012913D01*
X026393Y012913D01*
X026195Y013290D01*
X026195Y013290D01*
X025906Y013604D01*
X025547Y013832D01*
X025141Y013961D01*
X025141Y013961D01*
X024977Y013969D01*
X024976Y013969D01*
X024927Y013971D01*
X024878Y013973D01*
X024878Y013973D01*
X024724Y013979D01*
X024723Y013980D01*
X024675Y013981D01*
X024626Y013983D01*
X024625Y013983D01*
X024471Y013988D01*
X024470Y013988D01*
X024422Y013989D01*
X024373Y013991D01*
X024372Y013990D01*
X024218Y013994D01*
X024217Y013994D01*
X024169Y013995D01*
X024120Y013996D01*
X024119Y013996D01*
X023965Y013997D01*
X023964Y013998D01*
X023916Y013998D01*
X023867Y013999D01*
X023866Y013998D01*
X023712Y013999D01*
X023711Y013999D01*
X023662Y013999D01*
X023614Y013999D01*
X023613Y013998D01*
X023459Y013997D01*
X023458Y013998D01*
X023409Y013997D01*
X023361Y013996D01*
X023360Y013996D01*
X023206Y013993D01*
X023205Y013994D01*
X023156Y013993D01*
X023108Y013992D01*
X023107Y013991D01*
X022953Y013987D01*
X022952Y013988D01*
X022903Y013986D01*
X022855Y013985D01*
X022854Y013984D01*
X022700Y013978D01*
X022699Y013979D01*
X022650Y013977D01*
X022602Y013975D01*
X022601Y013974D01*
X022447Y013967D01*
X022445Y013968D01*
X022397Y013965D01*
X022349Y013963D01*
X022348Y013962D01*
X022194Y013954D01*
X022192Y013954D01*
X022144Y013951D01*
X022096Y013948D01*
X022094Y013948D01*
X021940Y013938D01*
X021939Y013938D01*
X021891Y013934D01*
X021843Y013931D01*
X021841Y013931D01*
X021687Y013919D01*
X021686Y013919D01*
X021638Y013915D01*
X021589Y013912D01*
X021588Y013911D01*
X021434Y013898D01*
X021433Y013898D01*
X021385Y013894D01*
X021336Y013890D01*
X021335Y013889D01*
X021181Y013874D01*
X021180Y013875D01*
X021132Y013870D01*
X021083Y013865D01*
X021082Y013865D01*
X020903Y013846D01*
X020876Y013848D01*
X020854Y013841D01*
X020830Y013838D01*
X020807Y013826D01*
X020782Y013818D01*
X020764Y013802D01*
X020743Y013791D01*
X020730Y013774D01*
X020593Y013670D01*
X020259Y013490D01*
X020080Y013427D01*
X020080Y013427D01*
X019927Y013382D01*
X019663Y013205D01*
X019663Y013205D01*
X019663Y013205D01*
X019464Y012956D01*
X019349Y012660D01*
X019327Y012342D01*
X019365Y012188D01*
X019365Y012188D01*
X019400Y012001D01*
X019410Y011622D01*
X019388Y011451D01*
X019381Y011432D01*
X019381Y011408D01*
X019377Y011385D01*
X019383Y011359D01*
X019383Y011332D01*
X019393Y011311D01*
X019398Y011287D01*
X019413Y011266D01*
X018056Y011266D01*
X018024Y011227D02*
X018092Y011311D01*
X018165Y011385D01*
X018181Y011424D01*
X018214Y011464D01*
X018233Y011548D01*
X018266Y011629D01*
X018266Y011695D01*
X018281Y011760D01*
X018266Y011826D01*
X018266Y011892D01*
X018233Y011973D01*
X018214Y012057D01*
X018181Y012097D01*
X018165Y012136D01*
X018092Y012210D01*
X018024Y012294D01*
X017991Y012310D01*
X017979Y012323D01*
X017883Y012362D01*
X017750Y012426D01*
X017447Y012426D01*
X017257Y012335D01*
X017228Y012323D01*
X017224Y012319D01*
X014036Y012319D01*
X014087Y012294D02*
X014087Y012294D01*
X014114Y012260D02*
X017146Y012260D01*
X017173Y012294D02*
X017069Y012164D01*
X017041Y012136D01*
X017035Y012121D01*
X016983Y012057D01*
X016983Y012057D01*
X016953Y011923D01*
X016940Y011892D01*
X016940Y011867D01*
X016916Y011760D01*
X016940Y011654D01*
X016940Y011629D01*
X016953Y011598D01*
X016983Y011464D01*
X017035Y011400D01*
X017041Y011385D01*
X017069Y011357D01*
X017173Y011227D01*
X017224Y011202D01*
X017228Y011198D01*
X017256Y011186D01*
X017447Y011095D01*
X017750Y011095D01*
X017883Y011159D01*
X017979Y011198D01*
X017991Y011211D01*
X018024Y011227D01*
X018024Y011227D01*
X018024Y011227D01*
X017988Y011207D02*
X019439Y011207D01*
X019465Y011149D02*
X017863Y011149D01*
X018105Y011324D02*
X019387Y011324D01*
X019377Y011383D02*
X018163Y011383D01*
X018195Y011441D02*
X019385Y011441D01*
X019395Y011500D02*
X018222Y011500D01*
X018237Y011558D02*
X019402Y011558D01*
X019410Y011617D02*
X018261Y011617D01*
X018266Y011675D02*
X019409Y011675D01*
X019407Y011734D02*
X018275Y011734D01*
X018281Y011760D02*
X018281Y011760D01*
X018274Y011792D02*
X019406Y011792D01*
X019404Y011851D02*
X018266Y011851D01*
X018259Y011909D02*
X019402Y011909D01*
X019401Y011968D02*
X018235Y011968D01*
X018221Y012026D02*
X019395Y012026D01*
X019384Y012085D02*
X018191Y012085D01*
X018214Y012057D02*
X018214Y012057D01*
X018158Y012143D02*
X019373Y012143D01*
X019361Y012202D02*
X018099Y012202D01*
X018051Y012260D02*
X019347Y012260D01*
X019333Y012319D02*
X017982Y012319D01*
X018024Y012294D02*
X018024Y012294D01*
X017851Y012377D02*
X019330Y012377D01*
X019334Y012436D02*
X011926Y012436D01*
X011922Y012494D02*
X019338Y012494D01*
X019341Y012553D02*
X011919Y012553D01*
X011915Y012611D02*
X019345Y012611D01*
X019353Y012670D02*
X011907Y012670D01*
X011911Y012660D02*
X011911Y012660D01*
X011885Y012728D02*
X019375Y012728D01*
X019398Y012787D02*
X011862Y012787D01*
X011839Y012845D02*
X019421Y012845D01*
X019444Y012904D02*
X011816Y012904D01*
X011791Y012962D02*
X015549Y012962D01*
X015630Y012952D02*
X015056Y013027D01*
X015056Y013027D01*
X014521Y013249D01*
X014521Y013249D01*
X014062Y013602D01*
X014062Y013602D01*
X013709Y014061D01*
X013709Y014061D01*
X013487Y014596D01*
X013487Y014596D01*
X013412Y015170D01*
X013412Y015170D01*
X013487Y015744D01*
X013487Y015744D01*
X013709Y016279D01*
X013709Y016279D01*
X014062Y016738D01*
X014062Y016738D01*
X014062Y016738D01*
X014521Y017091D01*
X014521Y017091D01*
X015056Y017313D01*
X015056Y017313D01*
X015630Y017388D01*
X015630Y017388D01*
X016204Y017313D01*
X016204Y017313D01*
X016739Y017091D01*
X016739Y017091D01*
X017198Y016738D01*
X017198Y016738D01*
X017198Y016738D01*
X017551Y016279D01*
X017551Y016279D01*
X017773Y015744D01*
X017848Y015170D01*
X017773Y014596D01*
X017773Y014596D01*
X017551Y014061D01*
X017198Y013602D01*
X017198Y013602D01*
X016739Y013249D01*
X016204Y013027D01*
X016204Y013027D01*
X015630Y012952D01*
X015630Y012952D01*
X015711Y012962D02*
X019469Y012962D01*
X019464Y012956D02*
X019464Y012956D01*
X019516Y013021D02*
X016155Y013021D01*
X016330Y013079D02*
X019563Y013079D01*
X019610Y013138D02*
X016471Y013138D01*
X016612Y013196D02*
X019657Y013196D01*
X019738Y013255D02*
X016747Y013255D01*
X016823Y013313D02*
X019825Y013313D01*
X019913Y013372D02*
X016899Y013372D01*
X016976Y013430D02*
X020091Y013430D01*
X019927Y013382D02*
X019927Y013382D01*
X020257Y013489D02*
X017052Y013489D01*
X017128Y013547D02*
X020366Y013547D01*
X020474Y013606D02*
X017202Y013606D01*
X017247Y013664D02*
X020583Y013664D01*
X020662Y013723D02*
X017292Y013723D01*
X017337Y013781D02*
X020735Y013781D01*
X020845Y013840D02*
X017381Y013840D01*
X017426Y013898D02*
X021440Y013898D01*
X022253Y013957D02*
X017471Y013957D01*
X017516Y014015D02*
X029099Y014015D01*
X029096Y013957D02*
X025154Y013957D01*
X025338Y013898D02*
X029093Y013898D01*
X029090Y013840D02*
X028181Y013840D01*
X028142Y013856D02*
X027800Y013856D01*
X027484Y013725D01*
X027242Y013483D01*
X027111Y013167D01*
X027111Y012825D01*
X027242Y012509D01*
X027484Y012267D01*
X027800Y012136D01*
X028142Y012136D01*
X028458Y012267D01*
X028700Y012509D01*
X028831Y012825D01*
X028831Y013167D01*
X028700Y013483D01*
X028458Y013725D01*
X028142Y013856D01*
X028322Y013781D02*
X029087Y013781D01*
X029081Y013723D02*
X028460Y013723D01*
X028519Y013664D02*
X029071Y013664D01*
X029062Y013606D02*
X028577Y013606D01*
X028636Y013547D02*
X029053Y013547D01*
X029043Y013489D02*
X028694Y013489D01*
X028722Y013430D02*
X029034Y013430D01*
X029025Y013372D02*
X028746Y013372D01*
X028770Y013313D02*
X029016Y013313D01*
X029006Y013255D02*
X028794Y013255D01*
X028819Y013196D02*
X028997Y013196D01*
X028988Y013138D02*
X028831Y013138D01*
X028831Y013079D02*
X028979Y013079D01*
X028969Y013021D02*
X028831Y013021D01*
X028831Y012962D02*
X028960Y012962D01*
X028951Y012904D02*
X028831Y012904D01*
X028831Y012845D02*
X028942Y012845D01*
X028932Y012787D02*
X028815Y012787D01*
X028790Y012728D02*
X028923Y012728D01*
X028914Y012670D02*
X028766Y012670D01*
X028742Y012611D02*
X028904Y012611D01*
X028895Y012553D02*
X028718Y012553D01*
X028685Y012494D02*
X028886Y012494D01*
X028877Y012436D02*
X028626Y012436D01*
X028568Y012377D02*
X028867Y012377D01*
X028854Y012319D02*
X028509Y012319D01*
X028441Y012260D02*
X028838Y012260D01*
X028823Y012202D02*
X028300Y012202D01*
X028159Y012143D02*
X028807Y012143D01*
X028791Y012085D02*
X026472Y012085D01*
X026471Y012072D02*
X026471Y012072D01*
X026457Y012026D02*
X028776Y012026D01*
X028760Y011968D02*
X026439Y011968D01*
X026424Y011916D02*
X026424Y011916D01*
X026422Y011909D02*
X028744Y011909D01*
X028729Y011851D02*
X026404Y011851D01*
X026386Y011792D02*
X028713Y011792D01*
X028697Y011734D02*
X026368Y011734D01*
X026350Y011675D02*
X028682Y011675D01*
X028666Y011617D02*
X026332Y011617D01*
X026314Y011558D02*
X028650Y011558D01*
X028635Y011500D02*
X026296Y011500D01*
X026278Y011441D02*
X028619Y011441D01*
X028603Y011383D02*
X026260Y011383D01*
X026242Y011324D02*
X028588Y011324D01*
X028572Y011266D02*
X026224Y011266D01*
X026200Y011207D02*
X028556Y011207D01*
X028540Y011149D02*
X026175Y011149D01*
X026149Y011090D02*
X028525Y011090D01*
X028509Y011032D02*
X026124Y011032D01*
X026098Y010973D02*
X028492Y010973D01*
X028469Y010915D02*
X026073Y010915D01*
X026047Y010856D02*
X028447Y010856D01*
X028424Y010798D02*
X026022Y010798D01*
X025996Y010739D02*
X028402Y010739D01*
X028379Y010681D02*
X025971Y010681D01*
X025946Y010622D02*
X028357Y010622D01*
X028334Y010564D02*
X025920Y010564D01*
X025895Y010505D02*
X028312Y010505D01*
X028290Y010447D02*
X025869Y010447D01*
X025844Y010388D02*
X028267Y010388D01*
X028245Y010330D02*
X025818Y010330D01*
X025793Y010271D02*
X028222Y010271D01*
X028200Y010213D02*
X025767Y010213D01*
X025742Y010154D02*
X028177Y010154D01*
X028155Y010096D02*
X025716Y010096D01*
X025712Y010086D02*
X025712Y010086D01*
X025684Y010037D02*
X028132Y010037D01*
X028110Y009979D02*
X025650Y009979D01*
X025616Y009920D02*
X028087Y009920D01*
X028065Y009862D02*
X025583Y009862D01*
X025549Y009803D02*
X028043Y009803D01*
X028020Y009745D02*
X026709Y009745D01*
X026650Y009769D02*
X026966Y009638D01*
X027208Y009396D01*
X027339Y009080D01*
X027339Y008738D01*
X027208Y008422D01*
X026966Y008180D01*
X026650Y008049D01*
X026308Y008049D01*
X025992Y008180D01*
X025750Y008422D01*
X025619Y008738D01*
X025619Y009080D01*
X025750Y009396D01*
X025992Y009638D01*
X026308Y009769D01*
X026650Y009769D01*
X026851Y009686D02*
X027998Y009686D01*
X027970Y009628D02*
X026977Y009628D01*
X027035Y009569D02*
X027940Y009569D01*
X027911Y009511D02*
X027094Y009511D01*
X027152Y009452D02*
X027881Y009452D01*
X027851Y009394D02*
X027209Y009394D01*
X027234Y009335D02*
X027821Y009335D01*
X027791Y009277D02*
X027258Y009277D01*
X027282Y009218D02*
X027762Y009218D01*
X027732Y009160D02*
X027306Y009160D01*
X027331Y009101D02*
X027702Y009101D01*
X027672Y009043D02*
X027339Y009043D01*
X027339Y008984D02*
X027642Y008984D01*
X027613Y008926D02*
X027339Y008926D01*
X027339Y008867D02*
X027583Y008867D01*
X027553Y008809D02*
X027339Y008809D01*
X027339Y008750D02*
X027523Y008750D01*
X027493Y008692D02*
X027320Y008692D01*
X027296Y008633D02*
X027464Y008633D01*
X027434Y008575D02*
X027272Y008575D01*
X027247Y008516D02*
X027404Y008516D01*
X027374Y008458D02*
X027223Y008458D01*
X027186Y008399D02*
X027344Y008399D01*
X027306Y008341D02*
X027127Y008341D01*
X027069Y008282D02*
X027268Y008282D01*
X027230Y008224D02*
X027010Y008224D01*
X026930Y008165D02*
X027192Y008165D01*
X027154Y008107D02*
X026789Y008107D01*
X027040Y007931D02*
X024294Y007931D01*
X024341Y007990D02*
X027078Y007990D01*
X027116Y008048D02*
X024384Y008048D01*
X024428Y008107D02*
X026170Y008107D01*
X026028Y008165D02*
X024471Y008165D01*
X024514Y008224D02*
X025949Y008224D01*
X025890Y008282D02*
X024558Y008282D01*
X024601Y008341D02*
X025832Y008341D01*
X025773Y008399D02*
X024644Y008399D01*
X024687Y008458D02*
X025736Y008458D01*
X025711Y008516D02*
X024731Y008516D01*
X024774Y008575D02*
X025687Y008575D01*
X025663Y008633D02*
X024817Y008633D01*
X024860Y008692D02*
X025639Y008692D01*
X025619Y008750D02*
X024904Y008750D01*
X024947Y008809D02*
X025619Y008809D01*
X025619Y008867D02*
X024990Y008867D01*
X025034Y008926D02*
X025619Y008926D01*
X025619Y008984D02*
X025076Y008984D01*
X025110Y009043D02*
X025619Y009043D01*
X025628Y009101D02*
X025144Y009101D01*
X025177Y009160D02*
X025652Y009160D01*
X025677Y009218D02*
X025211Y009218D01*
X025245Y009277D02*
X025701Y009277D01*
X025725Y009335D02*
X025279Y009335D01*
X025312Y009394D02*
X025749Y009394D01*
X025806Y009452D02*
X025346Y009452D01*
X025380Y009511D02*
X025865Y009511D01*
X025923Y009569D02*
X025414Y009569D01*
X025448Y009628D02*
X025982Y009628D01*
X026108Y009686D02*
X025481Y009686D01*
X025515Y009745D02*
X026249Y009745D01*
X027002Y007873D02*
X024239Y007873D01*
X024185Y007814D02*
X026964Y007814D01*
X026926Y007756D02*
X024130Y007756D01*
X024076Y007697D02*
X026888Y007697D01*
X026850Y007639D02*
X024021Y007639D01*
X023967Y007580D02*
X026812Y007580D01*
X026774Y007522D02*
X023912Y007522D01*
X023858Y007463D02*
X026736Y007463D01*
X026698Y007405D02*
X023803Y007405D01*
X023844Y007448D02*
X023844Y007448D01*
X023749Y007346D02*
X026660Y007346D01*
X026622Y007288D02*
X023667Y007288D01*
X023733Y007329D02*
X023733Y007329D01*
X023574Y007229D02*
X026584Y007229D01*
X026538Y007171D02*
X023481Y007171D01*
X023387Y007112D02*
X026491Y007112D01*
X026444Y007054D02*
X023215Y007054D01*
X023372Y007103D02*
X023372Y007103D01*
X023026Y006995D02*
X026396Y006995D01*
X026349Y006937D02*
X019019Y006937D01*
X018988Y006995D02*
X022379Y006995D01*
X022540Y006960D02*
X022540Y006960D01*
X022965Y006977D02*
X022965Y006977D01*
X023193Y006304D02*
X022951Y006062D01*
X022820Y005746D01*
X022820Y005404D01*
X022951Y005088D01*
X023193Y004846D01*
X023509Y004715D01*
X023851Y004715D01*
X024167Y004846D01*
X024409Y005088D01*
X024540Y005404D01*
X024540Y005746D01*
X024409Y006062D01*
X024167Y006304D01*
X023851Y006435D01*
X023509Y006435D01*
X023193Y006304D01*
X023182Y006293D02*
X019346Y006293D01*
X019359Y006235D02*
X023124Y006235D01*
X023065Y006176D02*
X019372Y006176D01*
X019385Y006118D02*
X023007Y006118D01*
X022950Y006059D02*
X019398Y006059D01*
X019411Y006001D02*
X022926Y006001D01*
X022902Y005942D02*
X019424Y005942D01*
X019430Y005913D02*
X019430Y005913D01*
X019429Y005884D02*
X022877Y005884D01*
X022853Y005825D02*
X019426Y005825D01*
X019424Y005767D02*
X022829Y005767D01*
X022820Y005708D02*
X019421Y005708D01*
X019419Y005650D02*
X022820Y005650D01*
X022820Y005591D02*
X019416Y005591D01*
X019414Y005533D02*
X022820Y005533D01*
X022820Y005474D02*
X019408Y005474D01*
X019389Y005416D02*
X022820Y005416D01*
X022839Y005357D02*
X019371Y005357D01*
X019353Y005299D02*
X022864Y005299D01*
X022888Y005240D02*
X019334Y005240D01*
X019316Y005182D02*
X021715Y005182D01*
X021719Y005183D02*
X021403Y005053D01*
X021161Y004811D01*
X021030Y004495D01*
X021030Y004152D01*
X021161Y003836D01*
X020683Y003836D01*
X020665Y003881D02*
X020423Y004123D01*
X020107Y004254D01*
X019765Y004254D01*
X019449Y004123D01*
X019207Y003881D01*
X019076Y003565D01*
X019076Y003223D01*
X019207Y002907D01*
X019449Y002665D01*
X019765Y002534D01*
X020107Y002534D01*
X020423Y002665D01*
X020665Y002907D01*
X020796Y003223D01*
X020796Y003565D01*
X020665Y003881D01*
X020651Y003895D02*
X021137Y003895D01*
X021161Y003836D02*
X021403Y003595D01*
X021719Y003464D01*
X022061Y003464D01*
X022377Y003595D01*
X022619Y003836D01*
X022986Y003836D01*
X023076Y003895D02*
X022643Y003895D01*
X022667Y003953D02*
X023166Y003953D01*
X023256Y004012D02*
X022692Y004012D01*
X022716Y004070D02*
X023346Y004070D01*
X023436Y004129D02*
X022740Y004129D01*
X022750Y004152D02*
X022619Y003836D01*
X022560Y003778D02*
X022895Y003778D01*
X022805Y003719D02*
X022502Y003719D01*
X022443Y003661D02*
X022715Y003661D01*
X022625Y003602D02*
X022385Y003602D01*
X022445Y003485D02*
X022113Y003485D01*
X022255Y003544D02*
X022535Y003544D01*
X022344Y003427D02*
X020796Y003427D01*
X020796Y003485D02*
X021666Y003485D01*
X021525Y003544D02*
X020796Y003544D01*
X020780Y003602D02*
X021395Y003602D01*
X021336Y003661D02*
X020756Y003661D01*
X020732Y003719D02*
X021278Y003719D01*
X021219Y003778D02*
X020707Y003778D01*
X020592Y003953D02*
X021112Y003953D01*
X021088Y004012D02*
X020534Y004012D01*
X020475Y004070D02*
X021064Y004070D01*
X021040Y004129D02*
X020409Y004129D01*
X020267Y004187D02*
X021030Y004187D01*
X021030Y004246D02*
X020126Y004246D01*
X019745Y004246D02*
X018394Y004246D01*
X018368Y004232D02*
X018368Y004232D01*
X018504Y004304D02*
X021030Y004304D01*
X021030Y004363D02*
X018615Y004363D01*
X018725Y004421D02*
X021030Y004421D01*
X021030Y004480D02*
X018797Y004480D01*
X018860Y004538D02*
X021048Y004538D01*
X021072Y004597D02*
X018923Y004597D01*
X018986Y004655D02*
X021097Y004655D01*
X021121Y004714D02*
X019049Y004714D01*
X019057Y004721D02*
X019057Y004721D01*
X019057Y004721D01*
X019089Y004772D02*
X021145Y004772D01*
X021181Y004831D02*
X019126Y004831D01*
X019163Y004889D02*
X021240Y004889D01*
X021298Y004948D02*
X019200Y004948D01*
X019237Y005006D02*
X021357Y005006D01*
X021433Y005065D02*
X019274Y005065D01*
X019284Y005081D02*
X019284Y005081D01*
X019298Y005123D02*
X021574Y005123D01*
X021719Y005183D02*
X022061Y005183D01*
X022377Y005053D01*
X022619Y004811D01*
X022750Y004495D01*
X022750Y004152D01*
X022750Y004187D02*
X023526Y004187D01*
X023610Y004246D02*
X022750Y004246D01*
X022750Y004304D02*
X023682Y004304D01*
X023754Y004363D02*
X022750Y004363D01*
X022750Y004421D02*
X023826Y004421D01*
X023898Y004480D02*
X022750Y004480D01*
X022732Y004538D02*
X023971Y004538D01*
X024043Y004597D02*
X022707Y004597D01*
X022683Y004655D02*
X024115Y004655D01*
X024187Y004714D02*
X022659Y004714D01*
X022635Y004772D02*
X023371Y004772D01*
X023229Y004831D02*
X022599Y004831D01*
X022540Y004889D02*
X023150Y004889D01*
X023091Y004948D02*
X022482Y004948D01*
X022423Y005006D02*
X023033Y005006D01*
X022974Y005065D02*
X022347Y005065D01*
X022206Y005123D02*
X022936Y005123D01*
X022912Y005182D02*
X022065Y005182D01*
X023309Y006352D02*
X019326Y006352D01*
X019296Y006410D02*
X023450Y006410D01*
X023910Y006410D02*
X025922Y006410D01*
X025875Y006352D02*
X024051Y006352D01*
X024178Y006293D02*
X025828Y006293D01*
X025780Y006235D02*
X024236Y006235D01*
X024295Y006176D02*
X025733Y006176D01*
X025686Y006118D02*
X024353Y006118D01*
X024410Y006059D02*
X025627Y006059D01*
X025569Y006001D02*
X024434Y006001D01*
X024459Y005942D02*
X025510Y005942D01*
X025452Y005884D02*
X024483Y005884D01*
X024507Y005825D02*
X025393Y005825D01*
X025335Y005767D02*
X024531Y005767D01*
X024540Y005708D02*
X025276Y005708D01*
X025218Y005650D02*
X024540Y005650D01*
X024540Y005591D02*
X025159Y005591D01*
X025101Y005533D02*
X024540Y005533D01*
X024540Y005474D02*
X025042Y005474D01*
X024984Y005416D02*
X024540Y005416D01*
X024521Y005357D02*
X024925Y005357D01*
X024867Y005299D02*
X024496Y005299D01*
X024472Y005240D02*
X024808Y005240D01*
X024750Y005182D02*
X024448Y005182D01*
X024424Y005123D02*
X024691Y005123D01*
X024621Y005065D02*
X024386Y005065D01*
X024328Y005006D02*
X024549Y005006D01*
X024476Y004948D02*
X024269Y004948D01*
X024211Y004889D02*
X024404Y004889D01*
X024332Y004831D02*
X024131Y004831D01*
X024260Y004772D02*
X023990Y004772D01*
X022229Y003368D02*
X020796Y003368D01*
X020796Y003310D02*
X022114Y003310D01*
X022000Y003251D02*
X020796Y003251D01*
X020783Y003193D02*
X021885Y003193D01*
X021770Y003134D02*
X020759Y003134D01*
X020735Y003076D02*
X021655Y003076D01*
X021540Y003017D02*
X020710Y003017D01*
X020686Y002959D02*
X021426Y002959D01*
X021311Y002900D02*
X020658Y002900D01*
X020600Y002842D02*
X021196Y002842D01*
X021064Y002783D02*
X020541Y002783D01*
X020483Y002725D02*
X020912Y002725D01*
X020759Y002666D02*
X020424Y002666D01*
X020454Y002549D02*
X020144Y002549D01*
X020150Y002432D02*
X016470Y002432D01*
X016489Y002478D02*
X016358Y002162D01*
X016116Y001920D01*
X015800Y001789D01*
X015458Y001789D01*
X015142Y001920D01*
X014900Y002162D01*
X014769Y002478D01*
X014769Y002820D01*
X014900Y003136D01*
X015142Y003378D01*
X015458Y003509D01*
X015800Y003509D01*
X016116Y003378D01*
X016358Y003136D01*
X016489Y002820D01*
X016489Y002478D01*
X016489Y002491D02*
X020302Y002491D01*
X020285Y002608D02*
X020607Y002608D01*
X019997Y002374D02*
X016446Y002374D01*
X016422Y002315D02*
X019845Y002315D01*
X019641Y002257D02*
X016398Y002257D01*
X016373Y002198D02*
X019423Y002198D01*
X019205Y002140D02*
X016336Y002140D01*
X016277Y002081D02*
X018986Y002081D01*
X018768Y002023D02*
X016219Y002023D01*
X016160Y001964D02*
X018550Y001964D01*
X018254Y001906D02*
X016081Y001906D01*
X015940Y001847D02*
X017885Y001847D01*
X017515Y001789D02*
X013745Y001789D01*
X013375Y001847D02*
X015318Y001847D01*
X015177Y001906D02*
X013006Y001906D01*
X012710Y001964D02*
X015098Y001964D01*
X015040Y002023D02*
X012492Y002023D01*
X012274Y002081D02*
X014981Y002081D01*
X014923Y002140D02*
X012055Y002140D01*
X011837Y002198D02*
X014885Y002198D01*
X014861Y002257D02*
X011619Y002257D01*
X011415Y002315D02*
X014837Y002315D01*
X014813Y002374D02*
X011263Y002374D01*
X011110Y002432D02*
X014788Y002432D01*
X014769Y002491D02*
X010958Y002491D01*
X011038Y002608D02*
X010653Y002608D01*
X010501Y002666D02*
X010896Y002666D01*
X010818Y002725D02*
X010348Y002725D01*
X010196Y002783D02*
X010759Y002783D01*
X010701Y002842D02*
X010064Y002842D01*
X009949Y002900D02*
X010642Y002900D01*
X010605Y002959D02*
X009834Y002959D01*
X009720Y003017D02*
X010581Y003017D01*
X010556Y003076D02*
X009605Y003076D01*
X009490Y003134D02*
X010532Y003134D01*
X010508Y003193D02*
X009375Y003193D01*
X009260Y003251D02*
X010489Y003251D01*
X010489Y003310D02*
X009146Y003310D01*
X009031Y003368D02*
X010489Y003368D01*
X010806Y002549D02*
X014769Y002549D01*
X014769Y002608D02*
X011660Y002608D01*
X011801Y002666D02*
X014769Y002666D01*
X014769Y002725D02*
X011880Y002725D01*
X011939Y002783D02*
X014769Y002783D01*
X014778Y002842D02*
X011997Y002842D01*
X012056Y002900D02*
X014803Y002900D01*
X014827Y002959D02*
X012093Y002959D01*
X012117Y003017D02*
X014851Y003017D01*
X014875Y003076D02*
X012141Y003076D01*
X012166Y003134D02*
X014899Y003134D01*
X014957Y003193D02*
X012190Y003193D01*
X012209Y003251D02*
X015015Y003251D01*
X015074Y003310D02*
X012209Y003310D01*
X012209Y003368D02*
X015132Y003368D01*
X015259Y003427D02*
X012209Y003427D01*
X012209Y003485D02*
X015401Y003485D01*
X015858Y003485D02*
X019076Y003485D01*
X019076Y003427D02*
X015999Y003427D01*
X016126Y003368D02*
X019076Y003368D01*
X019076Y003310D02*
X016185Y003310D01*
X016243Y003251D02*
X019076Y003251D01*
X019088Y003193D02*
X016302Y003193D01*
X016359Y003134D02*
X019112Y003134D01*
X019137Y003076D02*
X016383Y003076D01*
X016408Y003017D02*
X019161Y003017D01*
X019185Y002959D02*
X016432Y002959D01*
X016456Y002900D02*
X019213Y002900D01*
X019272Y002842D02*
X016480Y002842D01*
X016489Y002783D02*
X019330Y002783D01*
X019389Y002725D02*
X016489Y002725D01*
X016489Y002666D02*
X019447Y002666D01*
X019586Y002608D02*
X016489Y002608D01*
X016489Y002549D02*
X019728Y002549D01*
X019076Y003544D02*
X012209Y003544D01*
X012200Y003602D02*
X019091Y003602D01*
X019115Y003661D02*
X012176Y003661D01*
X012151Y003719D02*
X019140Y003719D01*
X019164Y003778D02*
X012127Y003778D01*
X012103Y003836D02*
X019188Y003836D01*
X019220Y003895D02*
X012079Y003895D01*
X012021Y003953D02*
X014492Y003953D01*
X013978Y004012D02*
X011963Y004012D01*
X011904Y004070D02*
X013594Y004070D01*
X013721Y004041D02*
X013721Y004041D01*
X013340Y004129D02*
X011846Y004129D01*
X011719Y004187D02*
X013086Y004187D01*
X013147Y004173D02*
X013147Y004173D01*
X014114Y001730D02*
X017146Y001730D01*
X016235Y001672D02*
X015025Y001672D01*
X016268Y003897D02*
X016268Y003897D01*
X016767Y003953D02*
X019279Y003953D01*
X019337Y004012D02*
X017282Y004012D01*
X017538Y004041D02*
X017538Y004041D01*
X017666Y004070D02*
X019396Y004070D01*
X019463Y004129D02*
X017920Y004129D01*
X018112Y004173D02*
X018112Y004173D01*
X018174Y004187D02*
X019604Y004187D01*
X019266Y006469D02*
X025970Y006469D01*
X026017Y006527D02*
X019236Y006527D01*
X019263Y006475D02*
X019263Y006475D01*
X019205Y006586D02*
X026065Y006586D01*
X026112Y006644D02*
X019174Y006644D01*
X019144Y006703D02*
X026159Y006703D01*
X026207Y006761D02*
X019113Y006761D01*
X019082Y006820D02*
X026254Y006820D01*
X026301Y006878D02*
X019050Y006878D01*
X018955Y007054D02*
X022121Y007054D01*
X022124Y007052D02*
X022124Y007052D01*
X022009Y007112D02*
X018923Y007112D01*
X018891Y007171D02*
X021897Y007171D01*
X021784Y007229D02*
X018859Y007229D01*
X018825Y007288D02*
X021704Y007288D01*
X021746Y007249D02*
X021746Y007249D01*
X021640Y007346D02*
X018793Y007346D01*
X018760Y007405D02*
X021576Y007405D01*
X021512Y007463D02*
X018726Y007463D01*
X018693Y007522D02*
X021448Y007522D01*
X021404Y007580D02*
X018659Y007580D01*
X018626Y007639D02*
X021366Y007639D01*
X021328Y007697D02*
X018591Y007697D01*
X018557Y007756D02*
X021291Y007756D01*
X021254Y007814D02*
X018523Y007814D01*
X018488Y007873D02*
X021217Y007873D01*
X021180Y007931D02*
X018453Y007931D01*
X018417Y007990D02*
X021144Y007990D01*
X021107Y008048D02*
X018383Y008048D01*
X018347Y008107D02*
X021071Y008107D01*
X021035Y008165D02*
X018311Y008165D01*
X018275Y008224D02*
X020999Y008224D01*
X020964Y008282D02*
X018239Y008282D01*
X018202Y008341D02*
X020928Y008341D01*
X020893Y008399D02*
X018166Y008399D01*
X018129Y008458D02*
X020859Y008458D01*
X020824Y008516D02*
X018092Y008516D01*
X018055Y008575D02*
X020789Y008575D01*
X020755Y008633D02*
X018017Y008633D01*
X017980Y008692D02*
X020721Y008692D01*
X020687Y008750D02*
X017942Y008750D01*
X017903Y008809D02*
X020653Y008809D01*
X020620Y008867D02*
X017865Y008867D01*
X017827Y008926D02*
X020587Y008926D01*
X020553Y008984D02*
X017788Y008984D01*
X017748Y009043D02*
X020520Y009043D01*
X020488Y009101D02*
X017710Y009101D01*
X017670Y009160D02*
X020456Y009160D01*
X020423Y009218D02*
X017630Y009218D01*
X017590Y009277D02*
X020391Y009277D01*
X020360Y009335D02*
X017550Y009335D01*
X017510Y009394D02*
X020328Y009394D01*
X020296Y009452D02*
X017469Y009452D01*
X017429Y009511D02*
X020265Y009511D01*
X020234Y009569D02*
X017387Y009569D01*
X017345Y009628D02*
X020203Y009628D01*
X020172Y009686D02*
X017304Y009686D01*
X017262Y009745D02*
X020142Y009745D01*
X020112Y009803D02*
X017220Y009803D01*
X017178Y009862D02*
X020082Y009862D01*
X020051Y009920D02*
X017135Y009920D01*
X017094Y009979D02*
X020022Y009979D01*
X019992Y010037D02*
X017020Y010037D01*
X016875Y010096D02*
X019962Y010096D01*
X019933Y010154D02*
X016760Y010154D01*
X016665Y010213D02*
X019905Y010213D01*
X019876Y010271D02*
X016570Y010271D01*
X016489Y010321D02*
X016489Y010321D01*
X016479Y010330D02*
X019847Y010330D01*
X019818Y010388D02*
X016411Y010388D01*
X016343Y010447D02*
X019791Y010447D01*
X019762Y010505D02*
X016281Y010505D01*
X016309Y010479D02*
X016309Y010479D01*
X016230Y010554D02*
X016230Y010554D01*
X016210Y010564D02*
X019734Y010564D01*
X019706Y010622D02*
X016091Y010622D01*
X015972Y010681D02*
X019679Y010681D01*
X019652Y010739D02*
X015652Y010739D01*
X015630Y010743D02*
X015630Y010743D01*
X015944Y010694D02*
X015944Y010694D01*
X016983Y011464D02*
X016983Y011464D01*
X017002Y011441D02*
X014258Y011441D01*
X014232Y011383D02*
X017043Y011383D01*
X017095Y011324D02*
X014176Y011324D01*
X014118Y011266D02*
X017141Y011266D01*
X017173Y011227D02*
X017173Y011227D01*
X017213Y011207D02*
X014059Y011207D01*
X014087Y011227D02*
X014087Y011227D01*
X014087Y011227D01*
X013941Y011149D02*
X017334Y011149D01*
X016975Y011500D02*
X014285Y011500D01*
X014305Y011558D02*
X016962Y011558D01*
X016945Y011617D02*
X014329Y011617D01*
X014331Y011675D02*
X016935Y011675D01*
X016922Y011734D02*
X014338Y011734D01*
X014344Y011760D02*
X014344Y011760D01*
X014337Y011792D02*
X016923Y011792D01*
X016916Y011760D02*
X016916Y011760D01*
X016936Y011851D02*
X014331Y011851D01*
X014321Y011909D02*
X016947Y011909D01*
X016963Y011968D02*
X014297Y011968D01*
X014284Y012026D02*
X016976Y012026D01*
X017006Y012085D02*
X014254Y012085D01*
X014216Y012143D02*
X017048Y012143D01*
X017099Y012202D02*
X014161Y012202D01*
X013914Y012377D02*
X017346Y012377D01*
X017224Y012319D02*
X017173Y012294D01*
X017173Y012294D01*
X017173Y012294D01*
X017556Y014074D02*
X029102Y014074D01*
X029105Y014132D02*
X017581Y014132D01*
X017605Y014191D02*
X029109Y014191D01*
X029112Y014249D02*
X017629Y014249D01*
X017653Y014308D02*
X027936Y014308D01*
X027979Y014290D02*
X028321Y014290D01*
X028637Y014421D01*
X028879Y014663D01*
X029010Y014979D01*
X029010Y015321D01*
X028879Y015637D01*
X028637Y015879D01*
X028321Y016010D01*
X027979Y016010D01*
X027663Y015879D01*
X027421Y015637D01*
X027290Y015321D01*
X027290Y014979D01*
X027421Y014663D01*
X027663Y014421D01*
X027979Y014290D01*
X027795Y014366D02*
X017678Y014366D01*
X017702Y014425D02*
X027659Y014425D01*
X027600Y014483D02*
X017726Y014483D01*
X017750Y014542D02*
X019333Y014542D01*
X019362Y014530D02*
X019415Y014504D01*
X019424Y014504D01*
X019426Y014504D01*
X019689Y014504D01*
X019691Y014504D01*
X019719Y014504D01*
X019888Y014586D01*
X019933Y014604D01*
X019939Y014610D01*
X019993Y014636D01*
X019993Y014636D01*
X019993Y014636D01*
X020102Y014774D01*
X020120Y014791D01*
X020123Y014800D01*
X020182Y014874D01*
X020217Y015025D01*
X020221Y015035D01*
X020221Y015042D01*
X020250Y015170D01*
X020221Y015298D01*
X020221Y015299D01*
X020220Y015300D01*
X020182Y015466D01*
X020182Y015466D01*
X019993Y015704D01*
X019993Y015704D01*
X019719Y015836D01*
X019415Y015836D01*
X019262Y015762D01*
X019182Y015729D01*
X019172Y015718D01*
X019141Y015704D01*
X019079Y015626D01*
X018995Y015542D01*
X018977Y015498D01*
X018952Y015466D01*
X018937Y015401D01*
X018894Y015299D01*
X018894Y015215D01*
X018884Y015170D01*
X018894Y015125D01*
X018894Y015035D01*
X018940Y014924D01*
X018952Y014874D01*
X018952Y014874D01*
X018971Y014850D01*
X018995Y014791D01*
X019106Y014680D01*
X019141Y014636D01*
X019141Y014636D01*
X019159Y014628D01*
X019182Y014604D01*
X019362Y014530D01*
X019192Y014600D02*
X017773Y014600D01*
X017781Y014659D02*
X019123Y014659D01*
X019069Y014717D02*
X017789Y014717D01*
X017796Y014776D02*
X019011Y014776D01*
X018977Y014834D02*
X017804Y014834D01*
X017812Y014893D02*
X018947Y014893D01*
X018929Y014951D02*
X017819Y014951D01*
X017827Y015010D02*
X018905Y015010D01*
X018894Y015068D02*
X017835Y015068D01*
X017843Y015127D02*
X018894Y015127D01*
X018884Y015170D02*
X018884Y015170D01*
X018888Y015185D02*
X017846Y015185D01*
X017838Y015244D02*
X018894Y015244D01*
X018896Y015302D02*
X017831Y015302D01*
X017823Y015361D02*
X018920Y015361D01*
X018941Y015419D02*
X017815Y015419D01*
X017808Y015478D02*
X018961Y015478D01*
X018952Y015466D02*
X018952Y015466D01*
X018993Y015536D02*
X017800Y015536D01*
X017792Y015595D02*
X019048Y015595D01*
X019101Y015653D02*
X017785Y015653D01*
X017777Y015712D02*
X019158Y015712D01*
X019141Y015704D02*
X019141Y015704D01*
X019141Y015704D01*
X019280Y015770D02*
X017762Y015770D01*
X017773Y015744D02*
X017773Y015744D01*
X017737Y015829D02*
X019401Y015829D01*
X019733Y015829D02*
X027612Y015829D01*
X027554Y015770D02*
X019854Y015770D01*
X019976Y015712D02*
X027495Y015712D01*
X027437Y015653D02*
X020033Y015653D01*
X020080Y015595D02*
X027403Y015595D01*
X027379Y015536D02*
X020126Y015536D01*
X020173Y015478D02*
X027355Y015478D01*
X027330Y015419D02*
X020193Y015419D01*
X020206Y015361D02*
X027306Y015361D01*
X027290Y015302D02*
X020220Y015302D01*
X020233Y015244D02*
X027290Y015244D01*
X027290Y015185D02*
X020246Y015185D01*
X020240Y015127D02*
X027290Y015127D01*
X027290Y015068D02*
X020227Y015068D01*
X020213Y015010D02*
X027290Y015010D01*
X027301Y014951D02*
X020200Y014951D01*
X020187Y014893D02*
X027326Y014893D01*
X027350Y014834D02*
X020151Y014834D01*
X020182Y014874D02*
X020182Y014874D01*
X020105Y014776D02*
X027374Y014776D01*
X027398Y014717D02*
X020057Y014717D01*
X020011Y014659D02*
X027425Y014659D01*
X027483Y014600D02*
X019923Y014600D01*
X019797Y014542D02*
X027542Y014542D01*
X027760Y013840D02*
X025523Y013840D01*
X025547Y013832D02*
X025547Y013832D01*
X025627Y013781D02*
X027619Y013781D01*
X027481Y013723D02*
X025719Y013723D01*
X025811Y013664D02*
X027423Y013664D01*
X027364Y013606D02*
X025903Y013606D01*
X025906Y013604D02*
X025906Y013604D01*
X025958Y013547D02*
X027306Y013547D01*
X027247Y013489D02*
X026012Y013489D01*
X026066Y013430D02*
X027220Y013430D01*
X027195Y013372D02*
X026120Y013372D01*
X026173Y013313D02*
X027171Y013313D01*
X027147Y013255D02*
X026213Y013255D01*
X026244Y013196D02*
X027123Y013196D01*
X027111Y013138D02*
X026275Y013138D01*
X026305Y013079D02*
X027111Y013079D01*
X027111Y013021D02*
X026336Y013021D01*
X026367Y012962D02*
X027111Y012962D01*
X027111Y012904D02*
X026395Y012904D01*
X026408Y012845D02*
X027111Y012845D01*
X027127Y012787D02*
X026421Y012787D01*
X026435Y012728D02*
X027151Y012728D01*
X027175Y012670D02*
X026448Y012670D01*
X026461Y012611D02*
X027199Y012611D01*
X027224Y012553D02*
X026475Y012553D01*
X026487Y012498D02*
X026487Y012498D01*
X026487Y012494D02*
X027256Y012494D01*
X027315Y012436D02*
X026485Y012436D01*
X026483Y012377D02*
X027373Y012377D01*
X027432Y012319D02*
X026480Y012319D01*
X026478Y012260D02*
X027500Y012260D01*
X027641Y012202D02*
X026476Y012202D01*
X026474Y012143D02*
X027783Y012143D01*
X028363Y014308D02*
X029115Y014308D01*
X029118Y014366D02*
X028504Y014366D01*
X028640Y014425D02*
X029121Y014425D01*
X029124Y014483D02*
X028699Y014483D01*
X028757Y014542D02*
X029127Y014542D01*
X029130Y014600D02*
X028816Y014600D01*
X028874Y014659D02*
X029133Y014659D01*
X029136Y014717D02*
X028901Y014717D01*
X028925Y014776D02*
X029139Y014776D01*
X029142Y014834D02*
X028950Y014834D01*
X028974Y014893D02*
X029145Y014893D01*
X029148Y014951D02*
X028998Y014951D01*
X029010Y015010D02*
X029151Y015010D01*
X029155Y015068D02*
X029010Y015068D01*
X029010Y015127D02*
X029158Y015127D01*
X029159Y015185D02*
X029010Y015185D01*
X029010Y015244D02*
X029156Y015244D01*
X029153Y015302D02*
X029010Y015302D01*
X028993Y015361D02*
X029150Y015361D01*
X029147Y015419D02*
X028969Y015419D01*
X028945Y015478D02*
X029144Y015478D01*
X029141Y015536D02*
X028921Y015536D01*
X028896Y015595D02*
X029138Y015595D01*
X029135Y015653D02*
X028863Y015653D01*
X028804Y015712D02*
X029131Y015712D01*
X029128Y015770D02*
X028746Y015770D01*
X028687Y015829D02*
X029125Y015829D01*
X029122Y015887D02*
X028617Y015887D01*
X028476Y015946D02*
X029119Y015946D01*
X029116Y016004D02*
X028335Y016004D01*
X027965Y016004D02*
X017665Y016004D01*
X017689Y015946D02*
X027823Y015946D01*
X027682Y015887D02*
X017713Y015887D01*
X017641Y016063D02*
X029113Y016063D01*
X029110Y016121D02*
X017616Y016121D01*
X017592Y016180D02*
X029107Y016180D01*
X029104Y016238D02*
X017568Y016238D01*
X017537Y016297D02*
X029101Y016297D01*
X029098Y016355D02*
X024633Y016355D01*
X024628Y016355D02*
X024676Y016357D01*
X024724Y016359D01*
X024726Y016359D01*
X024879Y016366D01*
X024880Y016366D01*
X024928Y016368D01*
X024978Y016370D01*
X025142Y016378D01*
X025548Y016506D01*
X025907Y016735D01*
X026195Y017049D01*
X026393Y017426D01*
X026487Y017841D01*
X026472Y018267D01*
X026424Y018423D01*
X026409Y018470D01*
X026222Y019081D01*
X025713Y020253D01*
X025074Y021359D01*
X024314Y022387D01*
X023913Y022818D01*
X023879Y022854D01*
X023734Y023010D01*
X023734Y023010D01*
X023373Y023236D01*
X022966Y023362D01*
X022540Y023379D01*
X022125Y023286D01*
X022125Y023286D01*
X021747Y023089D01*
X021747Y023089D01*
X021432Y022802D01*
X021344Y022664D01*
X021343Y022664D01*
X021317Y022623D01*
X021317Y022623D01*
X021291Y022581D01*
X021291Y022580D01*
X021208Y022451D01*
X021207Y022450D01*
X021182Y022409D01*
X021156Y022368D01*
X021156Y022367D01*
X021074Y022236D01*
X021073Y022235D01*
X021048Y022193D01*
X021023Y022152D01*
X021023Y022151D01*
X020943Y022020D01*
X020942Y022019D01*
X020917Y021977D01*
X020892Y021936D01*
X020892Y021934D01*
X020813Y021802D01*
X020812Y021801D01*
X020788Y021760D01*
X020763Y021718D01*
X020763Y021717D01*
X020686Y021584D01*
X020685Y021583D01*
X020661Y021541D01*
X020636Y021499D01*
X020636Y021498D01*
X020560Y021364D01*
X020559Y021363D01*
X020536Y021321D01*
X020512Y021278D01*
X020512Y021277D01*
X020437Y021143D01*
X020436Y021142D01*
X020413Y021099D01*
X020389Y021057D01*
X020389Y021056D01*
X020316Y020920D01*
X020315Y020920D01*
X020292Y020877D01*
X020269Y020834D01*
X020269Y020833D01*
X020197Y020697D01*
X020196Y020696D01*
X020174Y020653D01*
X020151Y020610D01*
X020151Y020609D01*
X020080Y020472D01*
X020079Y020471D01*
X020057Y020428D01*
X020035Y020385D01*
X020035Y020384D01*
X019965Y020246D01*
X019964Y020245D01*
X019943Y020202D01*
X019921Y020158D01*
X016715Y020158D01*
X016810Y020216D02*
X019950Y020216D01*
X019921Y020158D02*
X019921Y020157D01*
X019853Y020019D01*
X019852Y020018D01*
X019831Y019974D01*
X019809Y019931D01*
X019809Y019930D01*
X019742Y019790D01*
X019741Y019789D01*
X019721Y019746D01*
X019700Y019702D01*
X019699Y019701D01*
X019634Y019561D01*
X019633Y019560D01*
X019613Y019516D01*
X019592Y019472D01*
X019592Y019471D01*
X019527Y019330D01*
X019527Y019329D01*
X019507Y019285D01*
X019487Y019240D01*
X019487Y019239D01*
X019413Y019074D01*
X019398Y019053D01*
X019393Y019029D01*
X019383Y019008D01*
X019383Y018981D01*
X019377Y018955D01*
X019381Y018932D01*
X019381Y018909D01*
X019388Y018889D01*
X019410Y018718D01*
X019400Y018339D01*
X019365Y018152D01*
X019363Y018144D01*
X019327Y017998D01*
X019349Y017680D01*
X019464Y017384D01*
X019464Y017384D01*
X019663Y017135D01*
X019927Y016958D01*
X019927Y016958D01*
X020080Y016913D01*
X020259Y016850D01*
X020593Y016670D01*
X020730Y016566D01*
X020743Y016549D01*
X020764Y016538D01*
X020782Y016522D01*
X020807Y016514D01*
X020830Y016502D01*
X020854Y016499D01*
X020876Y016492D01*
X020903Y016494D01*
X021082Y016475D01*
X021083Y016475D01*
X021131Y016470D01*
X021180Y016465D01*
X021181Y016465D01*
X021335Y016450D01*
X021336Y016450D01*
X021385Y016446D01*
X021433Y016441D01*
X021434Y016441D01*
X021588Y016428D01*
X021590Y016428D01*
X021638Y016424D01*
X021686Y016420D01*
X021687Y016420D01*
X021841Y016409D01*
X021843Y016408D01*
X021891Y016405D01*
X021939Y016401D01*
X021940Y016401D01*
X022095Y016391D01*
X022096Y016391D01*
X022144Y016388D01*
X022192Y016385D01*
X022194Y016385D01*
X022348Y016377D01*
X022349Y016376D01*
X022397Y016374D01*
X022446Y016371D01*
X022447Y016371D01*
X022601Y016364D01*
X022602Y016364D01*
X022650Y016362D01*
X022699Y016360D01*
X022700Y016360D01*
X022854Y016354D01*
X022855Y016354D01*
X022904Y016353D01*
X022952Y016351D01*
X022953Y016351D01*
X023107Y016347D01*
X023108Y016347D01*
X023157Y016346D01*
X023205Y016345D01*
X023206Y016345D01*
X023360Y016342D01*
X023362Y016342D01*
X023410Y016342D01*
X023458Y016341D01*
X023460Y016341D01*
X023614Y016340D01*
X023615Y016340D01*
X023663Y016340D01*
X023712Y016339D01*
X023713Y016340D01*
X023867Y016340D01*
X023868Y016340D01*
X023916Y016340D01*
X023965Y016340D01*
X023966Y016341D01*
X024120Y016343D01*
X024121Y016342D01*
X024170Y016343D01*
X024218Y016344D01*
X024219Y016345D01*
X024373Y016348D01*
X024374Y016348D01*
X024423Y016349D01*
X024471Y016350D01*
X024472Y016351D01*
X024626Y016356D01*
X024628Y016355D01*
X024627Y016355D02*
X024620Y016355D01*
X024978Y016370D02*
X024978Y016370D01*
X025142Y016378D02*
X025142Y016378D01*
X025256Y016414D02*
X029095Y016414D01*
X029092Y016472D02*
X025440Y016472D01*
X025548Y016506D02*
X025548Y016506D01*
X025586Y016531D02*
X027732Y016531D01*
X027805Y016500D02*
X028147Y016500D01*
X028463Y016631D01*
X028705Y016873D01*
X028836Y017189D01*
X028836Y017531D01*
X028705Y017847D01*
X028463Y018089D01*
X028147Y018220D01*
X027805Y018220D01*
X027489Y018089D01*
X027247Y017847D01*
X027116Y017531D01*
X027116Y017189D01*
X027247Y016873D01*
X027489Y016631D01*
X027805Y016500D01*
X027590Y016589D02*
X025678Y016589D01*
X025770Y016648D02*
X027473Y016648D01*
X027414Y016706D02*
X025862Y016706D01*
X025907Y016735D02*
X025907Y016735D01*
X025934Y016765D02*
X027356Y016765D01*
X027297Y016823D02*
X025988Y016823D01*
X026042Y016882D02*
X027244Y016882D01*
X027220Y016940D02*
X026096Y016940D01*
X026150Y016999D02*
X027195Y016999D01*
X027171Y017057D02*
X026200Y017057D01*
X026195Y017049D02*
X026195Y017049D01*
X026231Y017116D02*
X027147Y017116D01*
X027123Y017174D02*
X026261Y017174D01*
X026292Y017233D02*
X027116Y017233D01*
X027116Y017291D02*
X026323Y017291D01*
X026353Y017350D02*
X027116Y017350D01*
X027116Y017408D02*
X026384Y017408D01*
X026393Y017426D02*
X026393Y017426D01*
X026403Y017467D02*
X027116Y017467D01*
X027116Y017525D02*
X026416Y017525D01*
X026429Y017584D02*
X027138Y017584D01*
X027162Y017642D02*
X026442Y017642D01*
X026456Y017701D02*
X027187Y017701D01*
X027211Y017759D02*
X026469Y017759D01*
X026482Y017818D02*
X027235Y017818D01*
X027276Y017876D02*
X026486Y017876D01*
X026487Y017841D02*
X026487Y017841D01*
X026484Y017935D02*
X027335Y017935D01*
X027393Y017993D02*
X026482Y017993D01*
X026480Y018052D02*
X027452Y018052D01*
X027540Y018110D02*
X026478Y018110D01*
X026475Y018169D02*
X027682Y018169D01*
X028271Y018169D02*
X028814Y018169D01*
X028799Y018227D02*
X026473Y018227D01*
X026472Y018267D02*
X026472Y018267D01*
X026466Y018286D02*
X028783Y018286D01*
X028767Y018344D02*
X026448Y018344D01*
X026430Y018403D02*
X028752Y018403D01*
X028736Y018461D02*
X026412Y018461D01*
X026424Y018423D02*
X026424Y018423D01*
X026394Y018520D02*
X028720Y018520D01*
X028705Y018578D02*
X026376Y018578D01*
X026358Y018637D02*
X028689Y018637D01*
X028673Y018695D02*
X026340Y018695D01*
X026323Y018754D02*
X028658Y018754D01*
X028642Y018812D02*
X026305Y018812D01*
X026287Y018871D02*
X028626Y018871D01*
X028611Y018929D02*
X026269Y018929D01*
X026251Y018988D02*
X028595Y018988D01*
X028579Y019046D02*
X026233Y019046D01*
X026222Y019081D02*
X026222Y019081D01*
X026212Y019105D02*
X028564Y019105D01*
X028548Y019163D02*
X026187Y019163D01*
X026161Y019222D02*
X028532Y019222D01*
X028517Y019280D02*
X026136Y019280D01*
X026110Y019339D02*
X028501Y019339D01*
X028480Y019397D02*
X026085Y019397D01*
X026059Y019456D02*
X028457Y019456D01*
X028435Y019514D02*
X026034Y019514D01*
X026008Y019573D02*
X028412Y019573D01*
X028390Y019631D02*
X025983Y019631D01*
X025958Y019690D02*
X028368Y019690D01*
X028345Y019748D02*
X025932Y019748D01*
X025907Y019807D02*
X028323Y019807D01*
X028300Y019865D02*
X025881Y019865D01*
X025856Y019924D02*
X028278Y019924D01*
X028255Y019982D02*
X025830Y019982D01*
X025805Y020041D02*
X028233Y020041D01*
X028210Y020099D02*
X025779Y020099D01*
X025754Y020158D02*
X028188Y020158D01*
X028165Y020216D02*
X025729Y020216D01*
X025700Y020275D02*
X028143Y020275D01*
X028120Y020333D02*
X025666Y020333D01*
X025632Y020392D02*
X028098Y020392D01*
X028076Y020450D02*
X025599Y020450D01*
X025565Y020509D02*
X028053Y020509D01*
X028031Y020567D02*
X025531Y020567D01*
X025497Y020626D02*
X026196Y020626D01*
X026308Y020579D02*
X026650Y020579D01*
X026966Y020710D01*
X027208Y020952D01*
X027339Y021268D01*
X027339Y021610D01*
X027208Y021926D01*
X026966Y022168D01*
X026650Y022299D01*
X026308Y022299D01*
X025992Y022168D01*
X025750Y021926D01*
X025619Y021610D01*
X025619Y021268D01*
X025750Y020952D01*
X025992Y020710D01*
X026308Y020579D01*
X026055Y020684D02*
X025464Y020684D01*
X025430Y020743D02*
X025960Y020743D01*
X025901Y020801D02*
X025396Y020801D01*
X025362Y020860D02*
X025843Y020860D01*
X025784Y020918D02*
X025328Y020918D01*
X025295Y020977D02*
X025740Y020977D01*
X025716Y021035D02*
X025261Y021035D01*
X025227Y021094D02*
X025692Y021094D01*
X025667Y021152D02*
X025193Y021152D01*
X025160Y021211D02*
X025643Y021211D01*
X025619Y021269D02*
X025126Y021269D01*
X025092Y021328D02*
X025619Y021328D01*
X025619Y021386D02*
X025054Y021386D01*
X025011Y021445D02*
X025619Y021445D01*
X025619Y021503D02*
X024967Y021503D01*
X024924Y021562D02*
X025619Y021562D01*
X025624Y021620D02*
X024881Y021620D01*
X024838Y021679D02*
X025648Y021679D01*
X025672Y021737D02*
X024794Y021737D01*
X024751Y021796D02*
X025696Y021796D01*
X025721Y021854D02*
X024708Y021854D01*
X024665Y021913D02*
X025745Y021913D01*
X025795Y021971D02*
X024621Y021971D01*
X024578Y022030D02*
X025854Y022030D01*
X025912Y022088D02*
X024535Y022088D01*
X024491Y022147D02*
X025971Y022147D01*
X026082Y022205D02*
X024448Y022205D01*
X024405Y022264D02*
X026223Y022264D01*
X026736Y022264D02*
X027134Y022264D01*
X027171Y022205D02*
X026877Y022205D01*
X026988Y022147D02*
X027209Y022147D01*
X027247Y022088D02*
X027046Y022088D01*
X027105Y022030D02*
X027285Y022030D01*
X027323Y021971D02*
X027163Y021971D01*
X027214Y021913D02*
X027358Y021913D01*
X027388Y021854D02*
X027238Y021854D01*
X027262Y021796D02*
X027418Y021796D01*
X027448Y021737D02*
X027287Y021737D01*
X027311Y021679D02*
X027478Y021679D01*
X027507Y021620D02*
X027335Y021620D01*
X027339Y021562D02*
X027537Y021562D01*
X027567Y021503D02*
X027339Y021503D01*
X027339Y021445D02*
X027597Y021445D01*
X027627Y021386D02*
X027339Y021386D01*
X027339Y021328D02*
X027656Y021328D01*
X027686Y021269D02*
X027339Y021269D01*
X027316Y021211D02*
X027716Y021211D01*
X027746Y021152D02*
X027291Y021152D01*
X027267Y021094D02*
X027776Y021094D01*
X027805Y021035D02*
X027243Y021035D01*
X027219Y020977D02*
X027835Y020977D01*
X027865Y020918D02*
X027175Y020918D01*
X027116Y020860D02*
X027895Y020860D01*
X027925Y020801D02*
X027058Y020801D01*
X026999Y020743D02*
X027955Y020743D01*
X027984Y020684D02*
X026904Y020684D01*
X026763Y020626D02*
X028008Y020626D01*
X027096Y022322D02*
X024362Y022322D01*
X024318Y022381D02*
X027058Y022381D01*
X027020Y022439D02*
X024265Y022439D01*
X024211Y022498D02*
X026982Y022498D01*
X026944Y022556D02*
X024156Y022556D01*
X024102Y022615D02*
X026906Y022615D01*
X026868Y022673D02*
X024047Y022673D01*
X023993Y022732D02*
X026830Y022732D01*
X026792Y022790D02*
X023938Y022790D01*
X023913Y022818D02*
X023913Y022818D01*
X023884Y022849D02*
X026754Y022849D01*
X026716Y022907D02*
X023829Y022907D01*
X023775Y022966D02*
X026678Y022966D01*
X026640Y023024D02*
X023710Y023024D01*
X023617Y023083D02*
X026602Y023083D01*
X026561Y023141D02*
X023524Y023141D01*
X023431Y023200D02*
X026513Y023200D01*
X026466Y023258D02*
X023301Y023258D01*
X023373Y023236D02*
X023373Y023236D01*
X023113Y023317D02*
X026419Y023317D01*
X026371Y023375D02*
X022639Y023375D01*
X022540Y023379D02*
X022540Y023379D01*
X022523Y023375D02*
X019006Y023375D01*
X019005Y023374D02*
X019029Y023417D01*
X019029Y023418D01*
X019101Y023554D01*
X019102Y023555D01*
X019125Y023598D01*
X019148Y023640D01*
X019148Y023642D01*
X019219Y023778D01*
X019219Y023778D01*
X019242Y023822D01*
X019265Y023865D01*
X019265Y023866D01*
X019340Y024011D01*
X019340Y024011D01*
X019432Y024427D01*
X019432Y024427D01*
X019413Y024853D01*
X019286Y025259D01*
X019058Y025619D01*
X019058Y025619D01*
X018746Y025908D01*
X018746Y025908D01*
X018369Y026108D01*
X018210Y026144D01*
X018210Y026144D01*
X018162Y026155D01*
X017539Y026299D01*
X016270Y026443D01*
X014992Y026443D01*
X013722Y026299D01*
X013148Y026167D01*
X013100Y026156D01*
X012892Y026108D01*
X012516Y025909D01*
X012516Y025909D01*
X012203Y025619D01*
X011976Y025259D01*
X011848Y024853D01*
X011848Y024853D01*
X011830Y024427D01*
X011922Y024011D01*
X011997Y023865D01*
X012020Y023822D01*
X012042Y023778D01*
X012043Y023777D01*
X012114Y023641D01*
X012114Y023640D01*
X012137Y023597D01*
X012159Y023554D01*
X012160Y023554D01*
X012233Y023418D01*
X012233Y023417D01*
X012257Y023374D01*
X012279Y023331D01*
X012280Y023331D01*
X012354Y023196D01*
X012355Y023194D01*
X012378Y023152D01*
X012402Y023110D01*
X012403Y023109D01*
X012478Y022975D01*
X012478Y022974D01*
X012502Y022931D01*
X012526Y022889D01*
X012527Y022888D01*
X012603Y022755D01*
X012604Y022754D01*
X012628Y022712D01*
X012652Y022670D01*
X012653Y022669D01*
X012731Y022537D01*
X012731Y022535D01*
X012756Y022494D01*
X012781Y022452D01*
X012782Y022451D01*
X012861Y022319D01*
X012861Y022318D01*
X012887Y022277D01*
X012911Y022235D01*
X012912Y022234D01*
X012993Y022103D01*
X012993Y022102D01*
X013019Y022061D01*
X013044Y022020D01*
X013045Y022019D01*
X013127Y021888D01*
X013127Y021887D01*
X013153Y021846D01*
X013179Y021805D01*
X013180Y021805D01*
X013263Y021675D01*
X013264Y021674D01*
X013290Y021633D01*
X013316Y021592D01*
X013317Y021591D01*
X013402Y021462D01*
X013402Y021461D01*
X013429Y021421D01*
X013455Y021380D01*
X013456Y021380D01*
X013542Y021251D01*
X013542Y021250D01*
X013570Y021210D01*
X013597Y021170D01*
X013598Y021169D01*
X013685Y021041D01*
X013685Y021040D01*
X013713Y021000D01*
X013740Y020960D01*
X013741Y020960D01*
X013830Y020833D01*
X013830Y020831D01*
X013858Y020792D01*
X013886Y020752D01*
X013887Y020751D01*
X013976Y020625D01*
X013977Y020624D01*
X014005Y020585D01*
X014033Y020545D01*
X014034Y020545D01*
X014140Y020398D01*
X014152Y020374D01*
X014169Y020359D01*
X014183Y020340D01*
X014206Y020326D01*
X014225Y020308D01*
X014248Y020300D01*
X014268Y020288D01*
X014289Y020284D01*
X014447Y020218D01*
X014771Y020019D01*
X014915Y019895D01*
X014951Y019861D01*
X015030Y019786D01*
X015316Y019646D01*
X015630Y019597D01*
X015944Y019646D01*
X016230Y019786D01*
X016309Y019861D01*
X016328Y019879D01*
X016345Y019895D01*
X016345Y019895D01*
X016345Y019895D01*
X016489Y020019D01*
X016813Y020218D01*
X016971Y020284D01*
X016992Y020287D01*
X017012Y020300D01*
X017035Y020308D01*
X017054Y020326D01*
X017077Y020339D01*
X017091Y020359D01*
X017108Y020374D01*
X017120Y020398D01*
X017226Y020544D01*
X017227Y020545D01*
X017255Y020584D01*
X017283Y020624D01*
X017284Y020625D01*
X017374Y020751D01*
X017375Y020752D01*
X017403Y020791D01*
X017431Y020831D01*
X017431Y020832D01*
X017520Y020959D01*
X017521Y020960D01*
X017548Y021000D01*
X017576Y021040D01*
X017576Y021041D01*
X017663Y021169D01*
X017664Y021169D01*
X017691Y021210D01*
X017718Y021250D01*
X017719Y021251D01*
X017805Y021379D01*
X017806Y021380D01*
X017832Y021420D01*
X017859Y021461D01*
X017859Y021462D01*
X017944Y021591D01*
X017945Y021592D01*
X017971Y021633D01*
X017998Y021673D01*
X017998Y021674D01*
X018081Y021804D01*
X018082Y021805D01*
X018108Y021846D01*
X018134Y021887D01*
X018134Y021888D01*
X018216Y022018D01*
X018217Y022019D01*
X018243Y022060D01*
X018268Y022102D01*
X018269Y022103D01*
X018349Y022234D01*
X018350Y022235D01*
X018375Y022276D01*
X018400Y022318D01*
X018401Y022319D01*
X018480Y022451D01*
X018481Y022452D01*
X018505Y022493D01*
X018530Y022535D01*
X018531Y022536D01*
X018609Y022669D01*
X018610Y022670D01*
X018634Y022712D01*
X018658Y022754D01*
X018658Y022755D01*
X018735Y022888D01*
X018736Y022889D01*
X018760Y022931D01*
X018784Y022973D01*
X018784Y022975D01*
X018859Y023109D01*
X018860Y023110D01*
X018884Y023152D01*
X018907Y023195D01*
X018907Y023196D01*
X018981Y023331D01*
X018982Y023332D01*
X019005Y023374D01*
X018974Y023317D02*
X022261Y023317D01*
X022071Y023258D02*
X018942Y023258D01*
X018910Y023200D02*
X021959Y023200D01*
X021846Y023141D02*
X018878Y023141D01*
X018845Y023083D02*
X021740Y023083D01*
X021676Y023024D02*
X018812Y023024D01*
X018779Y022966D02*
X021612Y022966D01*
X021548Y022907D02*
X018746Y022907D01*
X018712Y022849D02*
X021484Y022849D01*
X021432Y022802D02*
X021432Y022802D01*
X021425Y022790D02*
X018679Y022790D01*
X018645Y022732D02*
X021387Y022732D01*
X021350Y022673D02*
X018612Y022673D01*
X018577Y022615D02*
X021313Y022615D01*
X021275Y022556D02*
X018542Y022556D01*
X018508Y022498D02*
X021238Y022498D01*
X021201Y022439D02*
X018473Y022439D01*
X018438Y022381D02*
X021164Y022381D01*
X021128Y022322D02*
X018403Y022322D01*
X018368Y022264D02*
X021092Y022264D01*
X021056Y022205D02*
X018332Y022205D01*
X018296Y022147D02*
X021020Y022147D01*
X020985Y022088D02*
X018260Y022088D01*
X018224Y022030D02*
X020949Y022030D01*
X020914Y021971D02*
X018187Y021971D01*
X018150Y021913D02*
X020879Y021913D01*
X020844Y021854D02*
X018113Y021854D01*
X018076Y021796D02*
X020809Y021796D01*
X020775Y021737D02*
X018038Y021737D01*
X018001Y021679D02*
X020741Y021679D01*
X020707Y021620D02*
X017963Y021620D01*
X017925Y021562D02*
X020673Y021562D01*
X020639Y021503D02*
X017887Y021503D01*
X017849Y021445D02*
X020606Y021445D01*
X020573Y021386D02*
X017810Y021386D01*
X017770Y021328D02*
X020540Y021328D01*
X020507Y021269D02*
X017731Y021269D01*
X017692Y021211D02*
X020475Y021211D01*
X020442Y021152D02*
X017652Y021152D01*
X017612Y021094D02*
X020410Y021094D01*
X020378Y021035D02*
X017573Y021035D01*
X017532Y020977D02*
X020347Y020977D01*
X020314Y020918D02*
X017491Y020918D01*
X017450Y020860D02*
X020283Y020860D01*
X020252Y020801D02*
X017410Y020801D01*
X017368Y020743D02*
X020221Y020743D01*
X020190Y020684D02*
X017326Y020684D01*
X017285Y020626D02*
X020159Y020626D01*
X020129Y020567D02*
X017243Y020567D01*
X017200Y020509D02*
X020099Y020509D01*
X020069Y020450D02*
X017158Y020450D01*
X017117Y020392D02*
X020039Y020392D01*
X020009Y020333D02*
X017067Y020333D01*
X016949Y020275D02*
X019980Y020275D01*
X019892Y020099D02*
X016620Y020099D01*
X016525Y020041D02*
X019864Y020041D01*
X019835Y019982D02*
X016447Y019982D01*
X016378Y019924D02*
X019806Y019924D01*
X019778Y019865D02*
X016314Y019865D01*
X016309Y019861D02*
X016309Y019861D01*
X016252Y019807D02*
X019750Y019807D01*
X019722Y019748D02*
X016154Y019748D01*
X016230Y019786D02*
X016230Y019786D01*
X016035Y019690D02*
X019694Y019690D01*
X019667Y019631D02*
X015853Y019631D01*
X015944Y019646D02*
X015944Y019646D01*
X015630Y019597D02*
X015630Y019597D01*
X015407Y019631D02*
X011594Y019631D01*
X011621Y019573D02*
X019640Y019573D01*
X019612Y019514D02*
X011649Y019514D01*
X011648Y019516D02*
X011628Y019560D01*
X011627Y019561D01*
X011561Y019701D01*
X011561Y019702D01*
X011540Y019746D01*
X011520Y019790D01*
X011519Y019791D01*
X011452Y019930D01*
X011452Y019931D01*
X011430Y019975D01*
X011409Y020018D01*
X011408Y020019D01*
X011340Y020158D01*
X014545Y020158D01*
X014450Y020216D02*
X011311Y020216D01*
X011318Y020202D02*
X011297Y020246D01*
X011296Y020247D01*
X011226Y020385D01*
X011226Y020386D01*
X011204Y020429D01*
X011182Y020472D01*
X011181Y020473D01*
X011110Y020610D01*
X011110Y020611D01*
X011088Y020654D01*
X011065Y020697D01*
X011064Y020698D01*
X010992Y020834D01*
X010992Y020835D01*
X010969Y020878D01*
X010946Y020921D01*
X010945Y020921D01*
X010872Y021057D01*
X010872Y021058D01*
X010848Y021101D01*
X010825Y021143D01*
X010824Y021144D01*
X010749Y021279D01*
X010749Y021280D01*
X010725Y021322D01*
X010702Y021364D01*
X010701Y021365D01*
X010625Y021499D01*
X010625Y021500D01*
X010600Y021542D01*
X010576Y021584D01*
X010575Y021585D01*
X010498Y021718D01*
X010498Y021719D01*
X010473Y021761D01*
X010449Y021803D01*
X010448Y021804D01*
X010369Y021936D01*
X010369Y021937D01*
X010344Y021979D01*
X010319Y022020D01*
X010318Y022021D01*
X010238Y022153D01*
X010238Y022154D01*
X010212Y022195D01*
X010187Y022237D01*
X010186Y022237D01*
X010105Y022368D01*
X010105Y022370D01*
X010079Y022410D01*
X010053Y022452D01*
X010052Y022452D01*
X009970Y022582D01*
X009970Y022583D01*
X009943Y022624D01*
X009917Y022665D01*
X009917Y022666D01*
X009828Y022804D01*
X009514Y023091D01*
X009514Y023091D01*
X009136Y023288D01*
X008720Y023380D01*
X008295Y023363D01*
X008295Y023363D01*
X007888Y023237D01*
X007527Y023011D01*
X007382Y022855D01*
X007348Y022819D01*
X006947Y022388D01*
X006947Y022388D01*
X006187Y021361D01*
X006187Y021361D01*
X005548Y020254D01*
X005038Y019083D01*
X005038Y019083D01*
X004851Y018472D01*
X004836Y018424D01*
X004789Y018268D01*
X004773Y017842D01*
X004867Y017427D01*
X005065Y017050D01*
X005354Y016736D01*
X005713Y016508D01*
X005713Y016508D01*
X006119Y016379D01*
X006119Y016379D01*
X006283Y016371D01*
X006284Y016371D01*
X006333Y016369D01*
X006382Y016367D01*
X006536Y016361D01*
X006537Y016360D01*
X006585Y016359D01*
X006634Y016357D01*
X006635Y016357D01*
X006789Y016352D01*
X006790Y016352D01*
X006838Y016351D01*
X006887Y016349D01*
X006888Y016350D01*
X007042Y016346D01*
X007043Y016346D01*
X007091Y016345D01*
X007140Y016344D01*
X007141Y016344D01*
X007295Y016343D01*
X007296Y016342D01*
X007344Y016342D01*
X007393Y016341D01*
X007394Y016342D01*
X007548Y016341D01*
X007549Y016341D01*
X007598Y016341D01*
X007646Y016341D01*
X007647Y016342D01*
X007801Y016343D01*
X007802Y016342D01*
X007851Y016343D01*
X007899Y016344D01*
X007900Y016344D01*
X008054Y016347D01*
X008055Y016346D01*
X008104Y016347D01*
X008152Y016348D01*
X008153Y016349D01*
X008307Y016353D01*
X008308Y016352D01*
X008357Y016354D01*
X008405Y016355D01*
X008406Y016356D01*
X008560Y016362D01*
X008561Y016361D01*
X008610Y016363D01*
X008658Y016365D01*
X008659Y016366D01*
X008813Y016373D01*
X008815Y016372D01*
X008863Y016375D01*
X008911Y016377D01*
X008912Y016378D01*
X009066Y016386D01*
X009068Y016386D01*
X009116Y016389D01*
X009164Y016392D01*
X009166Y016392D01*
X009320Y016402D01*
X009321Y016402D01*
X009369Y016406D01*
X009417Y016409D01*
X009419Y016409D01*
X009573Y016421D01*
X009574Y016421D01*
X009622Y016425D01*
X009671Y016428D01*
X009672Y016429D01*
X009826Y016442D01*
X009827Y016442D01*
X009875Y016446D01*
X009924Y016450D01*
X009925Y016451D01*
X010079Y016466D01*
X010080Y016465D01*
X010128Y016470D01*
X010177Y016475D01*
X010178Y016475D01*
X010357Y016494D01*
X010384Y016492D01*
X010406Y016499D01*
X010430Y016502D01*
X010453Y016514D01*
X010478Y016522D01*
X010496Y016538D01*
X010517Y016549D01*
X010530Y016566D01*
X010667Y016670D01*
X011001Y016850D01*
X011180Y016913D01*
X011189Y016916D01*
X011333Y016958D01*
X011597Y017135D01*
X011796Y017384D01*
X011911Y017680D01*
X011933Y017998D01*
X011895Y018152D01*
X011895Y018152D01*
X011860Y018339D01*
X011850Y018718D01*
X011872Y018889D01*
X011879Y018908D01*
X011879Y018932D01*
X011883Y018955D01*
X011877Y018981D01*
X011877Y019008D01*
X011867Y019029D01*
X011862Y019053D01*
X011847Y019074D01*
X011774Y019239D01*
X011774Y019240D01*
X011753Y019284D01*
X011734Y019329D01*
X011733Y019330D01*
X011668Y019471D01*
X011668Y019472D01*
X011648Y019516D01*
X011675Y019456D02*
X019585Y019456D01*
X019559Y019397D02*
X011702Y019397D01*
X011729Y019339D02*
X019532Y019339D01*
X019505Y019280D02*
X011755Y019280D01*
X011781Y019222D02*
X013461Y019222D01*
X013510Y019245D02*
X013236Y019113D01*
X013046Y018876D01*
X013046Y018876D01*
X012979Y018580D01*
X012979Y018580D01*
X013046Y018283D01*
X013236Y018046D01*
X013510Y017914D01*
X013813Y017914D01*
X013889Y017950D01*
X014051Y018017D01*
X014072Y018038D01*
X014087Y018046D01*
X014118Y018085D01*
X014237Y018204D01*
X014263Y018267D01*
X014277Y018283D01*
X014277Y018283D01*
X014284Y018317D01*
X014338Y018448D01*
X014338Y018554D01*
X014344Y018580D01*
X014338Y018605D01*
X014338Y018711D01*
X014284Y018841D01*
X014277Y018876D01*
X014263Y018892D01*
X014237Y018955D01*
X014119Y019073D01*
X014087Y019113D01*
X014072Y019121D01*
X014051Y019142D01*
X013891Y019208D01*
X013813Y019245D01*
X013510Y019245D01*
X013340Y019163D02*
X011807Y019163D01*
X011833Y019105D02*
X013229Y019105D01*
X013236Y019113D02*
X013236Y019113D01*
X013236Y019113D01*
X013182Y019046D02*
X011863Y019046D01*
X011877Y018988D02*
X013136Y018988D01*
X013089Y018929D02*
X011879Y018929D01*
X011869Y018871D02*
X013045Y018871D01*
X013032Y018812D02*
X011862Y018812D01*
X011854Y018754D02*
X013019Y018754D01*
X013005Y018695D02*
X011850Y018695D01*
X011852Y018637D02*
X012992Y018637D01*
X012979Y018578D02*
X011853Y018578D01*
X011855Y018520D02*
X012992Y018520D01*
X013006Y018461D02*
X011857Y018461D01*
X011858Y018403D02*
X013019Y018403D01*
X013032Y018344D02*
X011860Y018344D01*
X011870Y018286D02*
X013046Y018286D01*
X013046Y018283D02*
X013046Y018283D01*
X013091Y018227D02*
X011881Y018227D01*
X011892Y018169D02*
X013138Y018169D01*
X013184Y018110D02*
X011905Y018110D01*
X011919Y018052D02*
X013231Y018052D01*
X013236Y018046D02*
X013236Y018046D01*
X013344Y017993D02*
X011932Y017993D01*
X011933Y017998D02*
X011933Y017998D01*
X011928Y017935D02*
X013466Y017935D01*
X013857Y017935D02*
X017403Y017935D01*
X017447Y017914D02*
X017750Y017914D01*
X018024Y018046D01*
X018120Y018166D01*
X018174Y018220D01*
X018186Y018248D01*
X018214Y018283D01*
X018214Y018283D01*
X018230Y018355D01*
X018275Y018464D01*
X018275Y018552D01*
X018281Y018580D01*
X018275Y018607D01*
X018275Y018727D01*
X018214Y018875D01*
X018214Y018876D01*
X018213Y018876D01*
X018174Y018971D01*
X017987Y019158D01*
X017744Y019259D01*
X017480Y019259D01*
X017447Y019245D01*
X017441Y019243D01*
X017236Y019158D01*
X017210Y019131D01*
X017173Y019113D01*
X017098Y019019D01*
X017050Y018971D01*
X017039Y018946D01*
X016983Y018876D01*
X016950Y018731D01*
X016949Y018727D01*
X016949Y018724D01*
X016916Y018580D01*
X016916Y018580D01*
X016983Y018283D01*
X017173Y018046D01*
X017447Y017914D01*
X017281Y017993D02*
X013993Y017993D01*
X014087Y018046D02*
X014087Y018046D01*
X014087Y018046D01*
X014092Y018052D02*
X017168Y018052D01*
X017173Y018046D02*
X017173Y018046D01*
X017121Y018110D02*
X014144Y018110D01*
X014202Y018169D02*
X017075Y018169D01*
X017028Y018227D02*
X014247Y018227D01*
X014277Y018286D02*
X016983Y018286D01*
X016983Y018283D02*
X016983Y018283D01*
X016969Y018344D02*
X014296Y018344D01*
X014320Y018403D02*
X016956Y018403D01*
X016943Y018461D02*
X014338Y018461D01*
X014338Y018520D02*
X016929Y018520D01*
X016916Y018578D02*
X014344Y018578D01*
X014338Y018637D02*
X016929Y018637D01*
X016942Y018695D02*
X014338Y018695D01*
X014321Y018754D02*
X016956Y018754D01*
X016969Y018812D02*
X014296Y018812D01*
X014278Y018871D02*
X016982Y018871D01*
X017026Y018929D02*
X014248Y018929D01*
X014277Y018876D02*
X014277Y018876D01*
X014204Y018988D02*
X017067Y018988D01*
X017119Y019046D02*
X014146Y019046D01*
X014094Y019105D02*
X017166Y019105D01*
X017173Y019113D02*
X017173Y019113D01*
X017250Y019163D02*
X013998Y019163D01*
X014087Y019113D02*
X014087Y019113D01*
X013862Y019222D02*
X017391Y019222D01*
X017447Y019245D02*
X017447Y019245D01*
X017832Y019222D02*
X019479Y019222D01*
X019453Y019163D02*
X017974Y019163D01*
X018040Y019105D02*
X019427Y019105D01*
X019397Y019046D02*
X018099Y019046D01*
X018157Y018988D02*
X019383Y018988D01*
X019381Y018929D02*
X018191Y018929D01*
X018214Y018876D02*
X018214Y018876D01*
X018216Y018871D02*
X019391Y018871D01*
X019398Y018812D02*
X018240Y018812D01*
X018264Y018754D02*
X019406Y018754D01*
X019410Y018695D02*
X018275Y018695D01*
X018275Y018637D02*
X019408Y018637D01*
X019407Y018578D02*
X018281Y018578D01*
X018275Y018520D02*
X019405Y018520D01*
X019403Y018461D02*
X018274Y018461D01*
X018250Y018403D02*
X019402Y018403D01*
X019400Y018344D02*
X018228Y018344D01*
X018214Y018286D02*
X019390Y018286D01*
X019379Y018227D02*
X018177Y018227D01*
X018123Y018169D02*
X019368Y018169D01*
X019355Y018110D02*
X018076Y018110D01*
X018029Y018052D02*
X019341Y018052D01*
X019328Y017993D02*
X017916Y017993D01*
X018024Y018046D02*
X018024Y018046D01*
X018024Y018046D01*
X017794Y017935D02*
X019332Y017935D01*
X019335Y017876D02*
X011925Y017876D01*
X011921Y017818D02*
X019339Y017818D01*
X019343Y017759D02*
X011917Y017759D01*
X011913Y017701D02*
X019347Y017701D01*
X019363Y017642D02*
X011897Y017642D01*
X011911Y017680D02*
X011911Y017680D01*
X011874Y017584D02*
X019386Y017584D01*
X019409Y017525D02*
X011851Y017525D01*
X011828Y017467D02*
X019432Y017467D01*
X019454Y017408D02*
X011806Y017408D01*
X011796Y017384D02*
X011796Y017384D01*
X011769Y017350D02*
X015339Y017350D01*
X015005Y017291D02*
X011722Y017291D01*
X011675Y017233D02*
X014864Y017233D01*
X014722Y017174D02*
X011628Y017174D01*
X011597Y017135D02*
X011597Y017135D01*
X011568Y017116D02*
X014581Y017116D01*
X014477Y017057D02*
X011481Y017057D01*
X011393Y016999D02*
X014401Y016999D01*
X014325Y016940D02*
X011272Y016940D01*
X011333Y016958D02*
X011333Y016958D01*
X011091Y016882D02*
X014248Y016882D01*
X014172Y016823D02*
X010951Y016823D01*
X010843Y016765D02*
X014096Y016765D01*
X014037Y016706D02*
X010735Y016706D01*
X010638Y016648D02*
X013992Y016648D01*
X013947Y016589D02*
X010562Y016589D01*
X010488Y016531D02*
X013902Y016531D01*
X013857Y016472D02*
X010152Y016472D01*
X009478Y016414D02*
X013812Y016414D01*
X013768Y016355D02*
X008404Y016355D01*
X006687Y016355D02*
X002162Y016355D01*
X002159Y016297D02*
X013723Y016297D01*
X013692Y016238D02*
X002156Y016238D01*
X002153Y016180D02*
X013668Y016180D01*
X013644Y016121D02*
X002150Y016121D01*
X002147Y016063D02*
X013619Y016063D01*
X013595Y016004D02*
X003323Y016004D01*
X003262Y016030D02*
X003578Y015899D01*
X003820Y015657D01*
X003951Y015341D01*
X003951Y014999D01*
X003820Y014683D01*
X003578Y014441D01*
X003262Y014310D01*
X002920Y014310D01*
X002604Y014441D01*
X002362Y014683D01*
X002231Y014999D01*
X002231Y015341D01*
X002362Y015657D01*
X002604Y015899D01*
X002920Y016030D01*
X003262Y016030D01*
X003464Y015946D02*
X013571Y015946D01*
X013547Y015887D02*
X003589Y015887D01*
X003648Y015829D02*
X011524Y015829D01*
X011554Y015842D02*
X011311Y015741D01*
X011280Y015710D01*
X011267Y015704D01*
X011242Y015672D01*
X011124Y015554D01*
X011098Y015492D01*
X011078Y015466D01*
X011066Y015413D01*
X011023Y015310D01*
X011023Y015227D01*
X011010Y015170D01*
X011023Y015113D01*
X011023Y015047D01*
X011057Y014965D01*
X011078Y014874D01*
X011078Y014874D01*
X011113Y014830D01*
X011124Y014803D01*
X011175Y014752D01*
X011267Y014636D01*
X011267Y014636D01*
X011541Y014504D01*
X011845Y014504D01*
X012119Y014636D01*
X012119Y014636D01*
X012119Y014636D01*
X012308Y014874D01*
X012345Y015037D01*
X012349Y015047D01*
X012349Y015054D01*
X012376Y015170D01*
X012349Y015286D01*
X012349Y015310D01*
X012337Y015340D01*
X012308Y015466D01*
X012308Y015466D01*
X012259Y015527D01*
X012248Y015554D01*
X012198Y015605D01*
X012119Y015704D01*
X012119Y015704D01*
X012080Y015722D01*
X012062Y015741D01*
X011922Y015799D01*
X011845Y015836D01*
X011832Y015836D01*
X011818Y015842D01*
X011554Y015842D01*
X011383Y015770D02*
X003706Y015770D01*
X003765Y015712D02*
X011282Y015712D01*
X011267Y015704D02*
X011267Y015704D01*
X011267Y015704D01*
X011223Y015653D02*
X003821Y015653D01*
X003845Y015595D02*
X011165Y015595D01*
X011117Y015536D02*
X003870Y015536D01*
X003894Y015478D02*
X011087Y015478D01*
X011078Y015466D02*
X011078Y015466D01*
X011067Y015419D02*
X003918Y015419D01*
X003942Y015361D02*
X011044Y015361D01*
X011023Y015302D02*
X003951Y015302D01*
X003951Y015244D02*
X011023Y015244D01*
X011014Y015185D02*
X003951Y015185D01*
X003951Y015127D02*
X011020Y015127D01*
X011010Y015170D02*
X011010Y015170D01*
X011023Y015068D02*
X003951Y015068D01*
X003951Y015010D02*
X011038Y015010D01*
X011060Y014951D02*
X003931Y014951D01*
X003907Y014893D02*
X011073Y014893D01*
X011109Y014834D02*
X003882Y014834D01*
X003858Y014776D02*
X011151Y014776D01*
X011203Y014717D02*
X003834Y014717D01*
X003796Y014659D02*
X011249Y014659D01*
X011342Y014600D02*
X003737Y014600D01*
X003679Y014542D02*
X011463Y014542D01*
X011923Y014542D02*
X013510Y014542D01*
X013487Y014600D02*
X012044Y014600D01*
X012137Y014659D02*
X013479Y014659D01*
X013471Y014717D02*
X012183Y014717D01*
X012230Y014776D02*
X013464Y014776D01*
X013456Y014834D02*
X012277Y014834D01*
X012308Y014874D02*
X012308Y014874D01*
X012313Y014893D02*
X013448Y014893D01*
X013441Y014951D02*
X012326Y014951D01*
X012339Y015010D02*
X013433Y015010D01*
X013425Y015068D02*
X012353Y015068D01*
X012366Y015127D02*
X013417Y015127D01*
X013414Y015185D02*
X012372Y015185D01*
X012359Y015244D02*
X013422Y015244D01*
X013429Y015302D02*
X012349Y015302D01*
X012332Y015361D02*
X013437Y015361D01*
X013445Y015419D02*
X012319Y015419D01*
X012299Y015478D02*
X013452Y015478D01*
X013460Y015536D02*
X012256Y015536D01*
X012208Y015595D02*
X013468Y015595D01*
X013475Y015653D02*
X012159Y015653D01*
X012102Y015712D02*
X013483Y015712D01*
X013498Y015770D02*
X011990Y015770D01*
X011859Y015829D02*
X013523Y015829D01*
X013534Y014483D02*
X003620Y014483D01*
X003539Y014425D02*
X013558Y014425D01*
X013582Y014366D02*
X003398Y014366D01*
X003461Y013840D02*
X003119Y013840D01*
X002803Y013710D01*
X002561Y013468D01*
X002430Y013152D01*
X002430Y012810D01*
X002561Y012493D01*
X002803Y012252D01*
X003119Y012121D01*
X003461Y012121D01*
X003777Y012252D01*
X004019Y012493D01*
X004150Y012810D01*
X004150Y013152D01*
X004019Y013468D01*
X003777Y013710D01*
X003461Y013840D01*
X003463Y013840D02*
X005732Y013840D01*
X005712Y013834D02*
X005712Y013834D01*
X005630Y013781D02*
X003604Y013781D01*
X003745Y013723D02*
X005538Y013723D01*
X005447Y013664D02*
X003822Y013664D01*
X003881Y013606D02*
X005355Y013606D01*
X005353Y013605D02*
X005353Y013605D01*
X005300Y013547D02*
X003939Y013547D01*
X003998Y013489D02*
X005246Y013489D01*
X005193Y013430D02*
X004035Y013430D01*
X004059Y013372D02*
X005139Y013372D01*
X005085Y013313D02*
X004083Y013313D01*
X004107Y013255D02*
X005046Y013255D01*
X005065Y013291D02*
X005065Y013291D01*
X005015Y013196D02*
X004132Y013196D01*
X004150Y013138D02*
X004984Y013138D01*
X004953Y013079D02*
X004150Y013079D01*
X004150Y013021D02*
X004923Y013021D01*
X004892Y012962D02*
X004150Y012962D01*
X004150Y012904D02*
X004864Y012904D01*
X004867Y012914D02*
X004867Y012914D01*
X004851Y012845D02*
X004150Y012845D01*
X004141Y012787D02*
X004838Y012787D01*
X004825Y012728D02*
X004117Y012728D01*
X004092Y012670D02*
X004811Y012670D01*
X004798Y012611D02*
X004068Y012611D01*
X004044Y012553D02*
X004785Y012553D01*
X004773Y012499D02*
X004773Y012499D01*
X004773Y012494D02*
X004020Y012494D01*
X003962Y012436D02*
X004775Y012436D01*
X004777Y012377D02*
X003903Y012377D01*
X003845Y012319D02*
X004779Y012319D01*
X004781Y012260D02*
X003786Y012260D01*
X003658Y012202D02*
X004783Y012202D01*
X004786Y012143D02*
X003516Y012143D01*
X003064Y012143D02*
X002453Y012143D01*
X002469Y012085D02*
X004788Y012085D01*
X004788Y012073D02*
X004788Y012073D01*
X004803Y012026D02*
X002484Y012026D01*
X002500Y011968D02*
X004821Y011968D01*
X004836Y011917D02*
X004836Y011917D01*
X004838Y011909D02*
X002516Y011909D01*
X002531Y011851D02*
X004856Y011851D01*
X004865Y011822D02*
X004865Y011822D01*
X004874Y011792D02*
X002547Y011792D01*
X002563Y011734D02*
X004892Y011734D01*
X004910Y011675D02*
X002578Y011675D01*
X002594Y011617D02*
X004928Y011617D01*
X004946Y011558D02*
X002610Y011558D01*
X002625Y011500D02*
X004964Y011500D01*
X004982Y011441D02*
X002641Y011441D01*
X002657Y011383D02*
X005000Y011383D01*
X005018Y011324D02*
X002672Y011324D01*
X002688Y011266D02*
X005035Y011266D01*
X005038Y011259D02*
X005038Y011259D01*
X005060Y011207D02*
X002704Y011207D01*
X002720Y011149D02*
X005085Y011149D01*
X005111Y011090D02*
X002735Y011090D01*
X002751Y011032D02*
X005136Y011032D01*
X005162Y010973D02*
X002768Y010973D01*
X002791Y010915D02*
X005187Y010915D01*
X005213Y010856D02*
X002813Y010856D01*
X002836Y010798D02*
X005238Y010798D01*
X005264Y010739D02*
X002858Y010739D01*
X002881Y010681D02*
X005289Y010681D01*
X005314Y010622D02*
X002903Y010622D01*
X002926Y010564D02*
X005340Y010564D01*
X005365Y010505D02*
X002948Y010505D01*
X002970Y010447D02*
X005391Y010447D01*
X005416Y010388D02*
X002993Y010388D01*
X003015Y010330D02*
X005442Y010330D01*
X005467Y010271D02*
X003038Y010271D01*
X003060Y010213D02*
X005493Y010213D01*
X005518Y010154D02*
X003083Y010154D01*
X003105Y010096D02*
X005544Y010096D01*
X005547Y010087D02*
X005547Y010087D01*
X005576Y010037D02*
X003128Y010037D01*
X003150Y009979D02*
X005610Y009979D01*
X005644Y009920D02*
X003173Y009920D01*
X003195Y009862D02*
X005677Y009862D01*
X005711Y009803D02*
X003217Y009803D01*
X003240Y009745D02*
X004549Y009745D01*
X004608Y009769D02*
X004292Y009638D01*
X004050Y009396D01*
X003919Y009080D01*
X003919Y008738D01*
X004050Y008422D01*
X004292Y008180D01*
X004608Y008049D01*
X004950Y008049D01*
X005266Y008180D01*
X005508Y008422D01*
X005639Y008738D01*
X005639Y009080D01*
X005508Y009396D01*
X005266Y009638D01*
X004950Y009769D01*
X004608Y009769D01*
X004408Y009686D02*
X003262Y009686D01*
X003290Y009628D02*
X004282Y009628D01*
X004223Y009569D02*
X003320Y009569D01*
X003349Y009511D02*
X004165Y009511D01*
X004106Y009452D02*
X003379Y009452D01*
X003409Y009394D02*
X004049Y009394D01*
X004025Y009335D02*
X003439Y009335D01*
X003469Y009277D02*
X004001Y009277D01*
X003977Y009218D02*
X003498Y009218D01*
X003528Y009160D02*
X003952Y009160D01*
X003928Y009101D02*
X003558Y009101D01*
X003588Y009043D02*
X003919Y009043D01*
X003919Y008984D02*
X003618Y008984D01*
X003647Y008926D02*
X003919Y008926D01*
X003919Y008867D02*
X003677Y008867D01*
X003707Y008809D02*
X003919Y008809D01*
X003919Y008750D02*
X003737Y008750D01*
X003767Y008692D02*
X003939Y008692D01*
X003963Y008633D02*
X003796Y008633D01*
X003826Y008575D02*
X003987Y008575D01*
X004011Y008516D02*
X003856Y008516D01*
X003886Y008458D02*
X004036Y008458D01*
X004073Y008399D02*
X003916Y008399D01*
X003954Y008341D02*
X004132Y008341D01*
X004190Y008282D02*
X003992Y008282D01*
X004030Y008224D02*
X004249Y008224D01*
X004328Y008165D02*
X004068Y008165D01*
X004106Y008107D02*
X004470Y008107D01*
X004220Y007931D02*
X006966Y007931D01*
X006946Y007953D02*
X006946Y007953D01*
X006919Y007990D02*
X004182Y007990D01*
X004144Y008048D02*
X006875Y008048D01*
X006832Y008107D02*
X005089Y008107D01*
X005230Y008165D02*
X006789Y008165D01*
X006746Y008224D02*
X005310Y008224D01*
X005369Y008282D02*
X006702Y008282D01*
X006659Y008341D02*
X005427Y008341D01*
X005486Y008399D02*
X006616Y008399D01*
X006573Y008458D02*
X005523Y008458D01*
X005547Y008516D02*
X006529Y008516D01*
X006486Y008575D02*
X005572Y008575D01*
X005596Y008633D02*
X006443Y008633D01*
X006400Y008692D02*
X005620Y008692D01*
X005639Y008750D02*
X006356Y008750D01*
X006313Y008809D02*
X005639Y008809D01*
X005639Y008867D02*
X006270Y008867D01*
X006227Y008926D02*
X005639Y008926D01*
X005639Y008984D02*
X006184Y008984D01*
X006150Y009043D02*
X005639Y009043D01*
X005631Y009101D02*
X006116Y009101D01*
X006083Y009160D02*
X005606Y009160D01*
X005582Y009218D02*
X006049Y009218D01*
X006015Y009277D02*
X005558Y009277D01*
X005534Y009335D02*
X005981Y009335D01*
X005948Y009394D02*
X005509Y009394D01*
X005452Y009452D02*
X005914Y009452D01*
X005880Y009511D02*
X005394Y009511D01*
X005335Y009569D02*
X005846Y009569D01*
X005812Y009628D02*
X005277Y009628D01*
X005151Y009686D02*
X005779Y009686D01*
X005745Y009745D02*
X005009Y009745D01*
X004258Y007873D02*
X007021Y007873D01*
X007075Y007814D02*
X004296Y007814D01*
X004334Y007756D02*
X007130Y007756D01*
X007184Y007697D02*
X004372Y007697D01*
X004410Y007639D02*
X007239Y007639D01*
X007293Y007580D02*
X004448Y007580D01*
X004486Y007522D02*
X007348Y007522D01*
X007347Y007522D02*
X007347Y007522D01*
X007402Y007463D02*
X004524Y007463D01*
X004562Y007405D02*
X007457Y007405D01*
X007511Y007346D02*
X004600Y007346D01*
X004638Y007288D02*
X007594Y007288D01*
X007687Y007229D02*
X004676Y007229D01*
X004722Y007171D02*
X007780Y007171D01*
X008294Y006978D02*
X008294Y006978D01*
X007339Y006410D02*
X005338Y006410D01*
X005385Y006352D02*
X007198Y006352D01*
X007083Y006293D02*
X005432Y006293D01*
X005480Y006235D02*
X007025Y006235D01*
X006966Y006176D02*
X005527Y006176D01*
X005574Y006118D02*
X006908Y006118D01*
X006855Y006059D02*
X005633Y006059D01*
X005691Y006001D02*
X006831Y006001D01*
X006807Y005942D02*
X005750Y005942D01*
X005808Y005884D02*
X006783Y005884D01*
X011662Y010856D02*
X019597Y010856D01*
X019592Y010868D02*
X019612Y010824D01*
X019632Y010780D01*
X019592Y010868D02*
X019592Y010869D01*
X019527Y011010D01*
X019526Y011011D01*
X019507Y011056D01*
X019486Y011100D01*
X019486Y011101D01*
X019413Y011266D01*
X019491Y011090D02*
X011769Y011090D01*
X011743Y011032D02*
X019517Y011032D01*
X019544Y010973D02*
X011716Y010973D01*
X011689Y010915D02*
X019571Y010915D01*
X015105Y013021D02*
X011744Y013021D01*
X011697Y013079D02*
X014930Y013079D01*
X014789Y013138D02*
X011650Y013138D01*
X011603Y013196D02*
X014648Y013196D01*
X014513Y013255D02*
X011522Y013255D01*
X011435Y013313D02*
X014437Y013313D01*
X014361Y013372D02*
X011347Y013372D01*
X011228Y013413D02*
X011228Y013413D01*
X011169Y013430D02*
X014284Y013430D01*
X014208Y013489D02*
X011003Y013489D01*
X010894Y013547D02*
X014132Y013547D01*
X014058Y013606D02*
X010786Y013606D01*
X010677Y013664D02*
X014013Y013664D01*
X013968Y013723D02*
X010598Y013723D01*
X010525Y013781D02*
X013923Y013781D01*
X013879Y013840D02*
X010414Y013840D01*
X009832Y013898D02*
X013834Y013898D01*
X013789Y013957D02*
X009029Y013957D01*
X011930Y012377D02*
X013409Y012377D01*
X013287Y012319D02*
X011927Y012319D01*
X011913Y012260D02*
X013209Y012260D01*
X013236Y012294D02*
X013236Y012294D01*
X013236Y012294D01*
X013162Y012202D02*
X011899Y012202D01*
X011887Y012143D02*
X013116Y012143D01*
X013069Y012085D02*
X011876Y012085D01*
X011865Y012026D02*
X013039Y012026D01*
X013026Y011968D02*
X011859Y011968D01*
X011858Y011909D02*
X013013Y011909D01*
X012999Y011851D02*
X011856Y011851D01*
X011854Y011792D02*
X012986Y011792D01*
X012979Y011760D02*
X012979Y011760D01*
X012985Y011734D02*
X011853Y011734D01*
X011851Y011675D02*
X012998Y011675D01*
X013007Y011617D02*
X011850Y011617D01*
X011858Y011558D02*
X013025Y011558D01*
X013038Y011500D02*
X011865Y011500D01*
X011875Y011441D02*
X013065Y011441D01*
X013046Y011464D02*
X013046Y011464D01*
X013104Y011383D02*
X011883Y011383D01*
X011877Y011332D02*
X011867Y011311D01*
X011862Y011287D01*
X011847Y011266D01*
X013744Y014015D02*
X002161Y014015D01*
X002164Y013957D02*
X006101Y013957D01*
X006118Y013962D02*
X006118Y013962D01*
X006282Y013970D02*
X006282Y013970D01*
X005917Y013898D02*
X002167Y013898D01*
X002170Y013840D02*
X003118Y013840D01*
X002977Y013781D02*
X002173Y013781D01*
X002179Y013723D02*
X002835Y013723D01*
X002758Y013664D02*
X002189Y013664D01*
X002198Y013606D02*
X002700Y013606D01*
X002641Y013547D02*
X002207Y013547D01*
X002217Y013489D02*
X002583Y013489D01*
X002546Y013430D02*
X002226Y013430D01*
X002235Y013372D02*
X002522Y013372D01*
X002497Y013313D02*
X002244Y013313D01*
X002254Y013255D02*
X002473Y013255D01*
X002449Y013196D02*
X002263Y013196D01*
X002272Y013138D02*
X002430Y013138D01*
X002430Y013079D02*
X002281Y013079D01*
X002291Y013021D02*
X002430Y013021D01*
X002430Y012962D02*
X002300Y012962D01*
X002309Y012904D02*
X002430Y012904D01*
X002430Y012845D02*
X002318Y012845D01*
X002328Y012787D02*
X002440Y012787D01*
X002464Y012728D02*
X002337Y012728D01*
X002346Y012670D02*
X002488Y012670D01*
X002512Y012611D02*
X002356Y012611D01*
X002365Y012553D02*
X002537Y012553D01*
X002561Y012494D02*
X002374Y012494D01*
X002383Y012436D02*
X002619Y012436D01*
X002677Y012377D02*
X002393Y012377D01*
X002406Y012319D02*
X002736Y012319D01*
X002794Y012260D02*
X002422Y012260D01*
X002437Y012202D02*
X002923Y012202D01*
X002158Y014074D02*
X013704Y014074D01*
X013679Y014132D02*
X002155Y014132D01*
X002151Y014191D02*
X013655Y014191D01*
X013631Y014249D02*
X002148Y014249D01*
X002145Y014308D02*
X013607Y014308D01*
X015921Y017350D02*
X019491Y017350D01*
X019538Y017291D02*
X016255Y017291D01*
X016396Y017233D02*
X019585Y017233D01*
X019632Y017174D02*
X016538Y017174D01*
X016679Y017116D02*
X019692Y017116D01*
X019663Y017135D02*
X019663Y017135D01*
X019663Y017135D01*
X019779Y017057D02*
X016783Y017057D01*
X016859Y016999D02*
X019867Y016999D01*
X019988Y016940D02*
X016935Y016940D01*
X017012Y016882D02*
X020169Y016882D01*
X020080Y016913D02*
X020080Y016913D01*
X020309Y016823D02*
X017088Y016823D01*
X017164Y016765D02*
X020417Y016765D01*
X020525Y016706D02*
X017223Y016706D01*
X017268Y016648D02*
X020622Y016648D01*
X020698Y016589D02*
X017313Y016589D01*
X017358Y016531D02*
X020772Y016531D01*
X021105Y016472D02*
X017403Y016472D01*
X017448Y016414D02*
X021770Y016414D01*
X022828Y016355D02*
X017492Y016355D01*
X015316Y019646D02*
X015316Y019646D01*
X015225Y019690D02*
X011566Y019690D01*
X011539Y019748D02*
X015106Y019748D01*
X015030Y019786D02*
X015030Y019786D01*
X015008Y019807D02*
X011511Y019807D01*
X011483Y019865D02*
X014946Y019865D01*
X014951Y019861D02*
X014951Y019861D01*
X014882Y019924D02*
X011455Y019924D01*
X011427Y019982D02*
X014813Y019982D01*
X014735Y020041D02*
X011398Y020041D01*
X011369Y020099D02*
X014640Y020099D01*
X014311Y020275D02*
X011282Y020275D01*
X011252Y020333D02*
X014193Y020333D01*
X014143Y020392D02*
X011223Y020392D01*
X011193Y020450D02*
X014103Y020450D01*
X014060Y020509D02*
X011162Y020509D01*
X011132Y020567D02*
X014017Y020567D01*
X013976Y020626D02*
X011102Y020626D01*
X011072Y020684D02*
X013934Y020684D01*
X013893Y020743D02*
X011040Y020743D01*
X011009Y020801D02*
X013851Y020801D01*
X013810Y020860D02*
X010979Y020860D01*
X010947Y020918D02*
X013770Y020918D01*
X013729Y020977D02*
X010915Y020977D01*
X010884Y021035D02*
X013688Y021035D01*
X013649Y021094D02*
X010852Y021094D01*
X010819Y021152D02*
X013609Y021152D01*
X013569Y021211D02*
X010787Y021211D01*
X010755Y021269D02*
X013530Y021269D01*
X013491Y021328D02*
X010722Y021328D01*
X010689Y021386D02*
X013451Y021386D01*
X013413Y021445D02*
X010656Y021445D01*
X010623Y021503D02*
X013375Y021503D01*
X013337Y021562D02*
X010589Y021562D01*
X010555Y021620D02*
X013298Y021620D01*
X013261Y021679D02*
X010521Y021679D01*
X010487Y021737D02*
X013223Y021737D01*
X013186Y021796D02*
X010453Y021796D01*
X010418Y021854D02*
X013148Y021854D01*
X013112Y021913D02*
X010383Y021913D01*
X010348Y021971D02*
X013075Y021971D01*
X013038Y022030D02*
X010313Y022030D01*
X010277Y022088D02*
X013002Y022088D01*
X012966Y022147D02*
X010242Y022147D01*
X010206Y022205D02*
X012930Y022205D01*
X012894Y022264D02*
X010170Y022264D01*
X010133Y022322D02*
X012859Y022322D01*
X012824Y022381D02*
X010098Y022381D01*
X010061Y022439D02*
X012789Y022439D01*
X012754Y022498D02*
X010023Y022498D01*
X009986Y022556D02*
X012719Y022556D01*
X012685Y022615D02*
X009949Y022615D01*
X009912Y022673D02*
X012650Y022673D01*
X012616Y022732D02*
X009874Y022732D01*
X009837Y022790D02*
X012583Y022790D01*
X012550Y022849D02*
X009778Y022849D01*
X009828Y022804D02*
X009828Y022804D01*
X009714Y022907D02*
X012516Y022907D01*
X012482Y022966D02*
X009650Y022966D01*
X009586Y023024D02*
X012450Y023024D01*
X012417Y023083D02*
X009522Y023083D01*
X009417Y023141D02*
X012384Y023141D01*
X012352Y023200D02*
X009304Y023200D01*
X009192Y023258D02*
X012320Y023258D01*
X012288Y023317D02*
X009004Y023317D01*
X009136Y023288D02*
X009136Y023288D01*
X008743Y023375D02*
X012256Y023375D01*
X012225Y023434D02*
X004936Y023434D01*
X004889Y023375D02*
X008596Y023375D01*
X008720Y023380D02*
X008720Y023380D01*
X008145Y023317D02*
X004841Y023317D01*
X004794Y023258D02*
X007956Y023258D01*
X007888Y023237D02*
X007888Y023237D01*
X007829Y023200D02*
X004747Y023200D01*
X004699Y023141D02*
X007735Y023141D01*
X007642Y023083D02*
X004658Y023083D01*
X004620Y023024D02*
X007549Y023024D01*
X007527Y023011D02*
X007527Y023011D01*
X007485Y022966D02*
X004582Y022966D01*
X004544Y022907D02*
X007431Y022907D01*
X007376Y022849D02*
X004506Y022849D01*
X004468Y022790D02*
X007322Y022790D01*
X007348Y022819D02*
X007348Y022819D01*
X007267Y022732D02*
X004430Y022732D01*
X004392Y022673D02*
X007213Y022673D01*
X007158Y022615D02*
X004354Y022615D01*
X004316Y022556D02*
X007104Y022556D01*
X007049Y022498D02*
X004278Y022498D01*
X004240Y022439D02*
X006995Y022439D01*
X006942Y022381D02*
X004202Y022381D01*
X004164Y022322D02*
X006898Y022322D01*
X006855Y022264D02*
X005036Y022264D01*
X004950Y022299D02*
X004608Y022299D01*
X004292Y022168D01*
X004050Y021926D01*
X003919Y021610D01*
X003919Y021268D01*
X004050Y020952D01*
X004292Y020710D01*
X004608Y020579D01*
X004950Y020579D01*
X005266Y020710D01*
X005508Y020952D01*
X005639Y021268D01*
X005639Y021610D01*
X005508Y021926D01*
X005266Y022168D01*
X004950Y022299D01*
X005177Y022205D02*
X006812Y022205D01*
X006769Y022147D02*
X005288Y022147D01*
X005346Y022088D02*
X006725Y022088D01*
X006682Y022030D02*
X005405Y022030D01*
X005463Y021971D02*
X006639Y021971D01*
X006595Y021913D02*
X005514Y021913D01*
X005538Y021854D02*
X006552Y021854D01*
X006509Y021796D02*
X005562Y021796D01*
X005587Y021737D02*
X006466Y021737D01*
X006422Y021679D02*
X005611Y021679D01*
X005635Y021620D02*
X006379Y021620D01*
X006336Y021562D02*
X005639Y021562D01*
X005639Y021503D02*
X006293Y021503D01*
X006249Y021445D02*
X005639Y021445D01*
X005639Y021386D02*
X006206Y021386D01*
X006168Y021328D02*
X005639Y021328D01*
X005639Y021269D02*
X006134Y021269D01*
X006100Y021211D02*
X005616Y021211D01*
X005591Y021152D02*
X006067Y021152D01*
X006033Y021094D02*
X005567Y021094D01*
X005543Y021035D02*
X005999Y021035D01*
X005965Y020977D02*
X005519Y020977D01*
X005475Y020918D02*
X005932Y020918D01*
X005898Y020860D02*
X005416Y020860D01*
X005358Y020801D02*
X005864Y020801D01*
X005830Y020743D02*
X005299Y020743D01*
X005204Y020684D02*
X005796Y020684D01*
X005763Y020626D02*
X005063Y020626D01*
X004496Y020626D02*
X003252Y020626D01*
X003229Y020567D02*
X005729Y020567D01*
X005695Y020509D02*
X003207Y020509D01*
X003184Y020450D02*
X005661Y020450D01*
X005628Y020392D02*
X003162Y020392D01*
X003140Y020333D02*
X005594Y020333D01*
X005560Y020275D02*
X003117Y020275D01*
X003095Y020216D02*
X005532Y020216D01*
X005548Y020254D02*
X005548Y020254D01*
X005506Y020158D02*
X003072Y020158D01*
X003050Y020099D02*
X005481Y020099D01*
X005455Y020041D02*
X003027Y020041D01*
X003005Y019982D02*
X005430Y019982D01*
X005404Y019924D02*
X002982Y019924D01*
X002960Y019865D02*
X005379Y019865D01*
X005353Y019807D02*
X002937Y019807D01*
X002915Y019748D02*
X005328Y019748D01*
X005302Y019690D02*
X002892Y019690D01*
X002870Y019631D02*
X005277Y019631D01*
X005252Y019573D02*
X002848Y019573D01*
X002825Y019514D02*
X005226Y019514D01*
X005201Y019456D02*
X002803Y019456D01*
X002780Y019397D02*
X005175Y019397D01*
X005150Y019339D02*
X002759Y019339D01*
X002743Y019280D02*
X005124Y019280D01*
X005099Y019222D02*
X002728Y019222D01*
X002712Y019163D02*
X005073Y019163D01*
X005048Y019105D02*
X002696Y019105D01*
X002681Y019046D02*
X005027Y019046D01*
X005009Y018988D02*
X002665Y018988D01*
X002649Y018929D02*
X004991Y018929D01*
X004973Y018871D02*
X002634Y018871D01*
X002618Y018812D02*
X004955Y018812D01*
X004937Y018754D02*
X002602Y018754D01*
X002587Y018695D02*
X004920Y018695D01*
X004902Y018637D02*
X002571Y018637D01*
X002555Y018578D02*
X004884Y018578D01*
X004866Y018520D02*
X002540Y018520D01*
X002524Y018461D02*
X004848Y018461D01*
X004836Y018424D02*
X004836Y018424D01*
X004830Y018403D02*
X002508Y018403D01*
X002493Y018344D02*
X004812Y018344D01*
X004794Y018286D02*
X002477Y018286D01*
X002461Y018227D02*
X004787Y018227D01*
X004785Y018169D02*
X003563Y018169D01*
X003463Y018210D02*
X003121Y018210D01*
X002805Y018079D01*
X002563Y017837D01*
X002432Y017521D01*
X002432Y017179D01*
X002563Y016863D01*
X002805Y016621D01*
X003121Y016490D01*
X003463Y016490D01*
X003779Y016621D01*
X004021Y016863D01*
X004152Y017179D01*
X004152Y017521D01*
X004021Y017837D01*
X003779Y018079D01*
X003463Y018210D01*
X003704Y018110D02*
X004783Y018110D01*
X004781Y018052D02*
X003807Y018052D01*
X003865Y017993D02*
X004778Y017993D01*
X004776Y017935D02*
X003924Y017935D01*
X003982Y017876D02*
X004774Y017876D01*
X004778Y017818D02*
X004029Y017818D01*
X004054Y017759D02*
X004792Y017759D01*
X004805Y017701D02*
X004078Y017701D01*
X004102Y017642D02*
X004818Y017642D01*
X004832Y017584D02*
X004126Y017584D01*
X004151Y017525D02*
X004845Y017525D01*
X004858Y017467D02*
X004152Y017467D01*
X004152Y017408D02*
X004877Y017408D01*
X004908Y017350D02*
X004152Y017350D01*
X004152Y017291D02*
X004938Y017291D01*
X004969Y017233D02*
X004152Y017233D01*
X004150Y017174D02*
X005000Y017174D01*
X005031Y017116D02*
X004126Y017116D01*
X004102Y017057D02*
X005061Y017057D01*
X005112Y016999D02*
X004078Y016999D01*
X004053Y016940D02*
X005166Y016940D01*
X005220Y016882D02*
X004029Y016882D01*
X003982Y016823D02*
X005274Y016823D01*
X005327Y016765D02*
X003923Y016765D01*
X003865Y016706D02*
X005401Y016706D01*
X005354Y016736D02*
X005354Y016736D01*
X005354Y016736D01*
X005492Y016648D02*
X003806Y016648D01*
X003703Y016589D02*
X005584Y016589D01*
X005676Y016531D02*
X003561Y016531D01*
X003023Y016531D02*
X002171Y016531D01*
X002175Y016589D02*
X002882Y016589D01*
X002779Y016648D02*
X002184Y016648D01*
X002194Y016706D02*
X002720Y016706D01*
X002662Y016765D02*
X002203Y016765D01*
X002212Y016823D02*
X002603Y016823D01*
X002556Y016882D02*
X002221Y016882D01*
X002231Y016940D02*
X002531Y016940D01*
X002507Y016999D02*
X002240Y016999D01*
X002249Y017057D02*
X002483Y017057D01*
X002459Y017116D02*
X002258Y017116D01*
X002268Y017174D02*
X002434Y017174D01*
X002432Y017233D02*
X002277Y017233D01*
X002286Y017291D02*
X002432Y017291D01*
X002432Y017350D02*
X002296Y017350D01*
X002305Y017408D02*
X002432Y017408D01*
X002432Y017467D02*
X002314Y017467D01*
X002323Y017525D02*
X002434Y017525D01*
X002458Y017584D02*
X002333Y017584D01*
X002342Y017642D02*
X002483Y017642D01*
X002507Y017701D02*
X002351Y017701D01*
X002360Y017759D02*
X002531Y017759D01*
X002555Y017818D02*
X002370Y017818D01*
X002379Y017876D02*
X002602Y017876D01*
X002661Y017935D02*
X002388Y017935D01*
X002399Y017993D02*
X002719Y017993D01*
X002778Y018052D02*
X002414Y018052D01*
X002430Y018110D02*
X002880Y018110D01*
X003022Y018169D02*
X002446Y018169D01*
X002168Y016472D02*
X005824Y016472D01*
X006009Y016414D02*
X002165Y016414D01*
X002144Y016004D02*
X002858Y016004D01*
X002717Y015946D02*
X002141Y015946D01*
X002138Y015887D02*
X002592Y015887D01*
X002533Y015829D02*
X002135Y015829D01*
X002132Y015770D02*
X002475Y015770D01*
X002416Y015712D02*
X002129Y015712D01*
X002125Y015653D02*
X002360Y015653D01*
X002336Y015595D02*
X002122Y015595D01*
X002119Y015536D02*
X002312Y015536D01*
X002287Y015478D02*
X002116Y015478D01*
X002113Y015419D02*
X002263Y015419D01*
X002239Y015361D02*
X002110Y015361D01*
X002107Y015302D02*
X002231Y015302D01*
X002231Y015244D02*
X002104Y015244D01*
X002101Y015185D02*
X002231Y015185D01*
X002231Y015127D02*
X002102Y015127D01*
X002105Y015068D02*
X002231Y015068D01*
X002231Y015010D02*
X002109Y015010D01*
X002112Y014951D02*
X002250Y014951D01*
X002275Y014893D02*
X002115Y014893D01*
X002118Y014834D02*
X002299Y014834D01*
X002323Y014776D02*
X002121Y014776D01*
X002124Y014717D02*
X002347Y014717D01*
X002386Y014659D02*
X002127Y014659D01*
X002130Y014600D02*
X002444Y014600D01*
X002503Y014542D02*
X002133Y014542D01*
X002136Y014483D02*
X002561Y014483D01*
X002642Y014425D02*
X002139Y014425D01*
X002142Y014366D02*
X002784Y014366D01*
X006382Y016367D02*
X006382Y016367D01*
X004355Y020684D02*
X003276Y020684D01*
X003305Y020743D02*
X004260Y020743D01*
X004201Y020801D02*
X003335Y020801D01*
X003365Y020860D02*
X004143Y020860D01*
X004084Y020918D02*
X003395Y020918D01*
X003425Y020977D02*
X004040Y020977D01*
X004016Y021035D02*
X003455Y021035D01*
X003484Y021094D02*
X003992Y021094D01*
X003967Y021152D02*
X003514Y021152D01*
X003544Y021211D02*
X003943Y021211D01*
X003919Y021269D02*
X003574Y021269D01*
X003604Y021328D02*
X003919Y021328D01*
X003919Y021386D02*
X003633Y021386D01*
X003663Y021445D02*
X003919Y021445D01*
X003919Y021503D02*
X003693Y021503D01*
X003723Y021562D02*
X003919Y021562D01*
X003924Y021620D02*
X003753Y021620D01*
X003782Y021679D02*
X003948Y021679D01*
X003972Y021737D02*
X003812Y021737D01*
X003842Y021796D02*
X003996Y021796D01*
X004021Y021854D02*
X003872Y021854D01*
X003902Y021913D02*
X004045Y021913D01*
X004095Y021971D02*
X003937Y021971D01*
X003975Y022030D02*
X004154Y022030D01*
X004212Y022088D02*
X004013Y022088D01*
X004051Y022147D02*
X004271Y022147D01*
X004382Y022205D02*
X004089Y022205D01*
X004126Y022264D02*
X004523Y022264D01*
X004984Y023492D02*
X012193Y023492D01*
X012162Y023551D02*
X005031Y023551D01*
X005078Y023609D02*
X012131Y023609D01*
X012100Y023668D02*
X005126Y023668D01*
X005173Y023726D02*
X012069Y023726D01*
X012039Y023785D02*
X005220Y023785D01*
X005268Y023843D02*
X012008Y023843D01*
X011997Y023865D02*
X011997Y023865D01*
X011978Y023902D02*
X005315Y023902D01*
X005363Y023960D02*
X007309Y023960D01*
X007408Y023919D02*
X007750Y023919D01*
X008066Y024050D01*
X008308Y024292D01*
X008439Y024608D01*
X008439Y024950D01*
X008308Y025266D01*
X008066Y025508D01*
X007750Y025639D01*
X007408Y025639D01*
X007092Y025508D01*
X006850Y025266D01*
X006719Y024950D01*
X006719Y024608D01*
X006850Y024292D01*
X007092Y024050D01*
X007408Y023919D01*
X007168Y024019D02*
X005410Y024019D01*
X005457Y024077D02*
X007065Y024077D01*
X007007Y024136D02*
X005505Y024136D01*
X005552Y024194D02*
X006948Y024194D01*
X006890Y024253D02*
X005605Y024253D01*
X005664Y024311D02*
X006842Y024311D01*
X006818Y024370D02*
X005722Y024370D01*
X005781Y024428D02*
X006794Y024428D01*
X006770Y024487D02*
X005839Y024487D01*
X005898Y024545D02*
X006745Y024545D01*
X006721Y024604D02*
X005956Y024604D01*
X006015Y024662D02*
X006719Y024662D01*
X006719Y024721D02*
X006073Y024721D01*
X006132Y024779D02*
X006719Y024779D01*
X006719Y024838D02*
X006190Y024838D01*
X006249Y024896D02*
X006719Y024896D01*
X006721Y024955D02*
X006307Y024955D01*
X006366Y025013D02*
X006746Y025013D01*
X006770Y025072D02*
X006424Y025072D01*
X006483Y025130D02*
X006794Y025130D01*
X006818Y025189D02*
X006541Y025189D01*
X006605Y025247D02*
X006842Y025247D01*
X006890Y025306D02*
X006677Y025306D01*
X006749Y025364D02*
X006948Y025364D01*
X007007Y025423D02*
X006822Y025423D01*
X006894Y025481D02*
X007065Y025481D01*
X006966Y025540D02*
X007169Y025540D01*
X007111Y025657D02*
X008593Y025657D01*
X008617Y025598D02*
X007849Y025598D01*
X007990Y025540D02*
X008643Y025540D01*
X008640Y025542D02*
X008882Y025300D01*
X009198Y025169D01*
X009540Y025169D01*
X009856Y025300D01*
X010098Y025542D01*
X010229Y025858D01*
X010229Y026200D01*
X010098Y026516D01*
X009856Y026758D01*
X009540Y026889D01*
X009198Y026889D01*
X008882Y026758D01*
X008640Y026516D01*
X008509Y026200D01*
X008509Y025858D01*
X008640Y025542D01*
X008701Y025481D02*
X008093Y025481D01*
X008152Y025423D02*
X008760Y025423D01*
X008818Y025364D02*
X008210Y025364D01*
X008269Y025306D02*
X008877Y025306D01*
X009010Y025247D02*
X008316Y025247D01*
X008340Y025189D02*
X009151Y025189D01*
X009588Y025189D02*
X011954Y025189D01*
X011972Y025247D02*
X009729Y025247D01*
X009862Y025306D02*
X012005Y025306D01*
X011976Y025259D02*
X011976Y025259D01*
X012042Y025364D02*
X009921Y025364D01*
X009979Y025423D02*
X012079Y025423D01*
X012116Y025481D02*
X010038Y025481D01*
X010096Y025540D02*
X012153Y025540D01*
X012190Y025598D02*
X010122Y025598D01*
X010146Y025657D02*
X012244Y025657D01*
X012203Y025619D02*
X012203Y025619D01*
X012307Y025715D02*
X010170Y025715D01*
X010194Y025774D02*
X012370Y025774D01*
X012433Y025832D02*
X010219Y025832D01*
X010229Y025891D02*
X012497Y025891D01*
X012593Y025949D02*
X010229Y025949D01*
X010229Y026008D02*
X012703Y026008D01*
X012814Y026066D02*
X010229Y026066D01*
X010229Y026125D02*
X011089Y026125D01*
X011162Y026095D02*
X010846Y026226D01*
X010604Y026468D01*
X010473Y026784D01*
X010473Y027126D01*
X010604Y027442D01*
X010846Y027684D01*
X011162Y027815D01*
X011504Y027815D01*
X011820Y027684D01*
X012062Y027442D01*
X012193Y027126D01*
X012193Y026784D01*
X012062Y026468D01*
X011820Y026226D01*
X011504Y026095D01*
X011162Y026095D01*
X010948Y026183D02*
X010229Y026183D01*
X010212Y026242D02*
X010830Y026242D01*
X010771Y026300D02*
X010188Y026300D01*
X010164Y026359D02*
X010713Y026359D01*
X010654Y026417D02*
X010139Y026417D01*
X010115Y026476D02*
X010601Y026476D01*
X010576Y026534D02*
X010080Y026534D01*
X010022Y026593D02*
X010552Y026593D01*
X010528Y026651D02*
X009963Y026651D01*
X009905Y026710D02*
X010504Y026710D01*
X010479Y026768D02*
X009832Y026768D01*
X009691Y026827D02*
X010473Y026827D01*
X010473Y026885D02*
X009550Y026885D01*
X009436Y027178D02*
X010495Y027178D01*
X010473Y027119D02*
X009321Y027119D01*
X009206Y027061D02*
X010473Y027061D01*
X010473Y027002D02*
X009091Y027002D01*
X008977Y026944D02*
X010473Y026944D01*
X010519Y027236D02*
X009551Y027236D01*
X009665Y027295D02*
X010543Y027295D01*
X010567Y027353D02*
X009780Y027353D01*
X009895Y027412D02*
X010592Y027412D01*
X010633Y027470D02*
X010010Y027470D01*
X010125Y027529D02*
X010691Y027529D01*
X010750Y027587D02*
X010276Y027587D01*
X010429Y027646D02*
X010808Y027646D01*
X010896Y027704D02*
X010581Y027704D01*
X010734Y027763D02*
X011037Y027763D01*
X011038Y027880D02*
X014783Y027880D01*
X014779Y027870D02*
X014779Y027528D01*
X014910Y027212D01*
X015152Y026970D01*
X015468Y026839D01*
X015810Y026839D01*
X016126Y026970D01*
X016368Y027212D01*
X016499Y027528D01*
X016499Y027870D01*
X016368Y028186D01*
X016126Y028428D01*
X015810Y028559D01*
X015468Y028559D01*
X015152Y028428D01*
X014910Y028186D01*
X014779Y027870D01*
X014779Y027821D02*
X010886Y027821D01*
X011191Y027938D02*
X014808Y027938D01*
X014832Y027997D02*
X011343Y027997D01*
X011516Y028055D02*
X014856Y028055D01*
X014880Y028114D02*
X011734Y028114D01*
X011952Y028172D02*
X014905Y028172D01*
X014955Y028231D02*
X012171Y028231D01*
X012389Y028289D02*
X015013Y028289D01*
X015072Y028348D02*
X012607Y028348D01*
X012832Y028406D02*
X015130Y028406D01*
X015241Y028465D02*
X013201Y028465D01*
X013570Y028523D02*
X015382Y028523D01*
X015614Y028699D02*
X015646Y028699D01*
X015897Y028523D02*
X017690Y028523D01*
X018059Y028465D02*
X016038Y028465D01*
X016148Y028406D02*
X018428Y028406D01*
X018653Y028348D02*
X016207Y028348D01*
X016265Y028289D02*
X018871Y028289D01*
X019089Y028231D02*
X016324Y028231D01*
X016374Y028172D02*
X019308Y028172D01*
X019526Y028114D02*
X016398Y028114D01*
X016423Y028055D02*
X019744Y028055D01*
X019917Y027997D02*
X016447Y027997D01*
X016471Y027938D02*
X020069Y027938D01*
X020099Y027801D02*
X019757Y027801D01*
X019441Y027670D01*
X019199Y027428D01*
X019068Y027112D01*
X019068Y026770D01*
X019199Y026454D01*
X019441Y026212D01*
X019757Y026081D01*
X020099Y026081D01*
X020415Y026212D01*
X020657Y026454D01*
X020788Y026770D01*
X020788Y027112D01*
X020657Y027428D01*
X020415Y027670D01*
X020099Y027801D01*
X020191Y027763D02*
X020526Y027763D01*
X020439Y027646D02*
X020831Y027646D01*
X020679Y027704D02*
X020332Y027704D01*
X020374Y027821D02*
X016499Y027821D01*
X016499Y027763D02*
X019665Y027763D01*
X019524Y027704D02*
X016499Y027704D01*
X016499Y027646D02*
X019417Y027646D01*
X019358Y027587D02*
X016499Y027587D01*
X016499Y027529D02*
X019300Y027529D01*
X019241Y027470D02*
X016475Y027470D01*
X016451Y027412D02*
X019192Y027412D01*
X019168Y027353D02*
X016427Y027353D01*
X016403Y027295D02*
X019144Y027295D01*
X019119Y027236D02*
X016378Y027236D01*
X016334Y027178D02*
X019095Y027178D01*
X019071Y027119D02*
X016276Y027119D01*
X016217Y027061D02*
X019068Y027061D01*
X019068Y027002D02*
X016159Y027002D01*
X016063Y026944D02*
X019068Y026944D01*
X019068Y026885D02*
X015922Y026885D01*
X015357Y026885D02*
X012193Y026885D01*
X012193Y026827D02*
X019068Y026827D01*
X019069Y026768D02*
X012187Y026768D01*
X012162Y026710D02*
X019093Y026710D01*
X019117Y026651D02*
X012138Y026651D01*
X012114Y026593D02*
X019141Y026593D01*
X019165Y026534D02*
X012090Y026534D01*
X012066Y026476D02*
X019190Y026476D01*
X019235Y026417D02*
X016496Y026417D01*
X017010Y026359D02*
X019294Y026359D01*
X019352Y026300D02*
X017525Y026300D01*
X017786Y026242D02*
X019411Y026242D01*
X019510Y026183D02*
X018040Y026183D01*
X018293Y026125D02*
X019651Y026125D01*
X020205Y026125D02*
X021029Y026125D01*
X021029Y026183D02*
X020346Y026183D01*
X020445Y026242D02*
X021047Y026242D01*
X021029Y026200D02*
X021160Y026516D01*
X021402Y026758D01*
X021718Y026889D01*
X022060Y026889D01*
X022376Y026758D01*
X022618Y026516D01*
X022749Y026200D01*
X022749Y025858D01*
X022618Y025542D01*
X022376Y025300D01*
X022060Y025169D01*
X021718Y025169D01*
X021402Y025300D01*
X021160Y025542D01*
X021029Y025858D01*
X021029Y026200D01*
X021071Y026300D02*
X020503Y026300D01*
X020562Y026359D02*
X021095Y026359D01*
X021119Y026417D02*
X020620Y026417D01*
X020666Y026476D02*
X021144Y026476D01*
X021178Y026534D02*
X020690Y026534D01*
X020714Y026593D02*
X021237Y026593D01*
X021295Y026651D02*
X020739Y026651D01*
X020763Y026710D02*
X021354Y026710D01*
X021427Y026768D02*
X020787Y026768D01*
X020788Y026827D02*
X021568Y026827D01*
X021709Y026885D02*
X020788Y026885D01*
X020788Y026944D02*
X022283Y026944D01*
X022395Y026887D02*
X022395Y026887D01*
X022398Y026885D02*
X022070Y026885D01*
X022211Y026827D02*
X022488Y026827D01*
X022578Y026768D02*
X022352Y026768D01*
X022425Y026710D02*
X022668Y026710D01*
X022758Y026651D02*
X022483Y026651D01*
X022542Y026593D02*
X022848Y026593D01*
X022938Y026534D02*
X022600Y026534D01*
X022635Y026476D02*
X023028Y026476D01*
X023118Y026417D02*
X022659Y026417D01*
X022684Y026359D02*
X023208Y026359D01*
X023298Y026300D02*
X022708Y026300D01*
X022732Y026242D02*
X023388Y026242D01*
X023479Y026183D02*
X022749Y026183D01*
X022749Y026125D02*
X023569Y026125D01*
X023644Y026066D02*
X022749Y026066D01*
X022749Y026008D02*
X023716Y026008D01*
X023788Y025949D02*
X022749Y025949D01*
X022749Y025891D02*
X023860Y025891D01*
X023933Y025832D02*
X022739Y025832D01*
X022714Y025774D02*
X024005Y025774D01*
X024077Y025715D02*
X022690Y025715D01*
X022666Y025657D02*
X024149Y025657D01*
X024222Y025598D02*
X023896Y025598D01*
X023835Y025624D02*
X023493Y025624D01*
X023177Y025493D01*
X022935Y025251D01*
X022804Y024935D01*
X022804Y024593D01*
X022935Y024277D01*
X023177Y024035D01*
X023493Y023904D01*
X023835Y023904D01*
X024151Y024035D01*
X024393Y024277D01*
X024524Y024593D01*
X024524Y024935D01*
X024393Y025251D01*
X024151Y025493D01*
X023835Y025624D01*
X024038Y025540D02*
X024294Y025540D01*
X024366Y025481D02*
X024163Y025481D01*
X024221Y025423D02*
X024438Y025423D01*
X024511Y025364D02*
X024280Y025364D01*
X024338Y025306D02*
X024583Y025306D01*
X024655Y025247D02*
X024395Y025247D01*
X024419Y025189D02*
X024719Y025189D01*
X024777Y025130D02*
X024443Y025130D01*
X024467Y025072D02*
X024836Y025072D01*
X024894Y025013D02*
X024492Y025013D01*
X024516Y024955D02*
X024953Y024955D01*
X025011Y024896D02*
X024524Y024896D01*
X024524Y024838D02*
X025070Y024838D01*
X025128Y024779D02*
X024524Y024779D01*
X024524Y024721D02*
X025187Y024721D01*
X025245Y024662D02*
X024524Y024662D01*
X024524Y024604D02*
X025304Y024604D01*
X025362Y024545D02*
X024505Y024545D01*
X024480Y024487D02*
X025421Y024487D01*
X025479Y024428D02*
X024456Y024428D01*
X024432Y024370D02*
X025538Y024370D01*
X025596Y024311D02*
X024408Y024311D01*
X024370Y024253D02*
X025655Y024253D01*
X025708Y024194D02*
X024311Y024194D01*
X024253Y024136D02*
X025755Y024136D01*
X025803Y024077D02*
X024194Y024077D01*
X024113Y024019D02*
X025850Y024019D01*
X025897Y023960D02*
X023972Y023960D01*
X023357Y023960D02*
X019314Y023960D01*
X019342Y024019D02*
X023215Y024019D01*
X023135Y024077D02*
X019354Y024077D01*
X019367Y024136D02*
X023076Y024136D01*
X023018Y024194D02*
X019380Y024194D01*
X019393Y024253D02*
X022959Y024253D01*
X022921Y024311D02*
X019406Y024311D01*
X019419Y024370D02*
X022897Y024370D01*
X022872Y024428D02*
X019431Y024428D01*
X019429Y024487D02*
X022848Y024487D01*
X022824Y024545D02*
X019426Y024545D01*
X019424Y024604D02*
X022804Y024604D01*
X022804Y024662D02*
X019421Y024662D01*
X019419Y024721D02*
X022804Y024721D01*
X022804Y024779D02*
X019416Y024779D01*
X019414Y024838D02*
X022804Y024838D01*
X022804Y024896D02*
X019399Y024896D01*
X019413Y024853D02*
X019413Y024853D01*
X019381Y024955D02*
X022813Y024955D01*
X022837Y025013D02*
X019363Y025013D01*
X019344Y025072D02*
X022861Y025072D01*
X022885Y025130D02*
X019326Y025130D01*
X019308Y025189D02*
X021671Y025189D01*
X021530Y025247D02*
X019289Y025247D01*
X019286Y025259D02*
X019286Y025259D01*
X019256Y025306D02*
X021397Y025306D01*
X021338Y025364D02*
X019219Y025364D01*
X019182Y025423D02*
X021280Y025423D01*
X021221Y025481D02*
X019145Y025481D01*
X019108Y025540D02*
X021163Y025540D01*
X021137Y025598D02*
X019071Y025598D01*
X019017Y025657D02*
X021113Y025657D01*
X021089Y025715D02*
X018954Y025715D01*
X018891Y025774D02*
X021064Y025774D01*
X021040Y025832D02*
X018828Y025832D01*
X018764Y025891D02*
X021029Y025891D01*
X021029Y025949D02*
X018668Y025949D01*
X018557Y026008D02*
X021029Y026008D01*
X021029Y026066D02*
X018447Y026066D01*
X018369Y026108D02*
X018369Y026108D01*
X020222Y027880D02*
X016495Y027880D01*
X016763Y028640D02*
X014497Y028640D01*
X013940Y028582D02*
X017320Y028582D01*
X015216Y026944D02*
X012193Y026944D01*
X012193Y027002D02*
X015120Y027002D01*
X015062Y027061D02*
X012193Y027061D01*
X012193Y027119D02*
X015003Y027119D01*
X014945Y027178D02*
X012171Y027178D01*
X012147Y027236D02*
X014900Y027236D01*
X014876Y027295D02*
X012123Y027295D01*
X012099Y027353D02*
X014852Y027353D01*
X014828Y027412D02*
X012074Y027412D01*
X012033Y027470D02*
X014803Y027470D01*
X014779Y027529D02*
X011975Y027529D01*
X011916Y027587D02*
X014779Y027587D01*
X014779Y027646D02*
X011858Y027646D01*
X011770Y027704D02*
X014779Y027704D01*
X014779Y027763D02*
X011629Y027763D01*
X012012Y026417D02*
X014764Y026417D01*
X014249Y026359D02*
X011953Y026359D01*
X011895Y026300D02*
X013735Y026300D01*
X013474Y026242D02*
X011836Y026242D01*
X011718Y026183D02*
X013220Y026183D01*
X013148Y026167D02*
X013148Y026167D01*
X012966Y026125D02*
X011577Y026125D01*
X011935Y025130D02*
X008365Y025130D01*
X008389Y025072D02*
X011917Y025072D01*
X011899Y025013D02*
X008413Y025013D01*
X008437Y024955D02*
X011880Y024955D01*
X011862Y024896D02*
X008439Y024896D01*
X008439Y024838D02*
X011848Y024838D01*
X011845Y024779D02*
X008439Y024779D01*
X008439Y024721D02*
X011843Y024721D01*
X011840Y024662D02*
X008439Y024662D01*
X008437Y024604D02*
X011838Y024604D01*
X011835Y024545D02*
X008413Y024545D01*
X008389Y024487D02*
X011832Y024487D01*
X011830Y024428D02*
X008365Y024428D01*
X008341Y024370D02*
X011842Y024370D01*
X011830Y024427D02*
X011830Y024427D01*
X011855Y024311D02*
X008316Y024311D01*
X008269Y024253D02*
X011868Y024253D01*
X011881Y024194D02*
X008211Y024194D01*
X008152Y024136D02*
X011894Y024136D01*
X011907Y024077D02*
X008094Y024077D01*
X007991Y024019D02*
X011920Y024019D01*
X011948Y023960D02*
X007849Y023960D01*
X007310Y025598D02*
X007038Y025598D01*
X007183Y025715D02*
X008569Y025715D01*
X008544Y025774D02*
X007255Y025774D01*
X007327Y025832D02*
X008520Y025832D01*
X008509Y025891D02*
X007400Y025891D01*
X007472Y025949D02*
X008509Y025949D01*
X008509Y026008D02*
X007544Y026008D01*
X007616Y026066D02*
X008509Y026066D01*
X008509Y026125D02*
X007691Y026125D01*
X007781Y026183D02*
X008509Y026183D01*
X008527Y026242D02*
X007872Y026242D01*
X007962Y026300D02*
X008551Y026300D01*
X008575Y026359D02*
X008052Y026359D01*
X008142Y026417D02*
X008599Y026417D01*
X008624Y026476D02*
X008232Y026476D01*
X008322Y026534D02*
X008658Y026534D01*
X008717Y026593D02*
X008412Y026593D01*
X008502Y026651D02*
X008775Y026651D01*
X008834Y026710D02*
X008592Y026710D01*
X008682Y026768D02*
X008907Y026768D01*
X008862Y026885D02*
X009189Y026885D01*
X009048Y026827D02*
X008772Y026827D01*
X012892Y026108D02*
X012892Y026108D01*
X011318Y020202D02*
X011340Y020159D01*
X011340Y020158D01*
X019037Y023434D02*
X026324Y023434D01*
X026276Y023492D02*
X019068Y023492D01*
X019100Y023551D02*
X026229Y023551D01*
X026182Y023609D02*
X019131Y023609D01*
X019162Y023668D02*
X026134Y023668D01*
X026087Y023726D02*
X019192Y023726D01*
X019223Y023785D02*
X026040Y023785D01*
X025992Y023843D02*
X019253Y023843D01*
X019283Y023902D02*
X025945Y023902D01*
X023432Y025598D02*
X022642Y025598D01*
X022616Y025540D02*
X023291Y025540D01*
X023166Y025481D02*
X022558Y025481D01*
X022499Y025423D02*
X023107Y025423D01*
X023049Y025364D02*
X022441Y025364D01*
X022382Y025306D02*
X022990Y025306D01*
X022934Y025247D02*
X022249Y025247D01*
X022108Y025189D02*
X022910Y025189D01*
X022966Y023362D02*
X022966Y023362D01*
X022169Y027002D02*
X020788Y027002D01*
X020788Y027061D02*
X022054Y027061D01*
X021939Y027119D02*
X020785Y027119D01*
X020760Y027178D02*
X021824Y027178D01*
X021709Y027236D02*
X020736Y027236D01*
X020712Y027295D02*
X021595Y027295D01*
X021480Y027353D02*
X020688Y027353D01*
X020664Y027412D02*
X021365Y027412D01*
X021250Y027470D02*
X020615Y027470D01*
X020556Y027529D02*
X021135Y027529D01*
X020984Y027587D02*
X020498Y027587D01*
X028412Y018110D02*
X028830Y018110D01*
X028846Y018052D02*
X028501Y018052D01*
X028559Y017993D02*
X028861Y017993D01*
X028872Y017935D02*
X028618Y017935D01*
X028676Y017876D02*
X028881Y017876D01*
X028890Y017818D02*
X028718Y017818D01*
X028742Y017759D02*
X028900Y017759D01*
X028909Y017701D02*
X028766Y017701D01*
X028790Y017642D02*
X028918Y017642D01*
X028927Y017584D02*
X028815Y017584D01*
X028836Y017525D02*
X028937Y017525D01*
X028946Y017467D02*
X028836Y017467D01*
X028836Y017408D02*
X028955Y017408D01*
X028964Y017350D02*
X028836Y017350D01*
X028836Y017291D02*
X028974Y017291D01*
X028983Y017233D02*
X028836Y017233D01*
X028830Y017174D02*
X028992Y017174D01*
X029002Y017116D02*
X028806Y017116D01*
X028782Y017057D02*
X029011Y017057D01*
X029020Y016999D02*
X028757Y016999D01*
X028733Y016940D02*
X029029Y016940D01*
X029039Y016882D02*
X028709Y016882D01*
X028656Y016823D02*
X029048Y016823D01*
X029057Y016765D02*
X028597Y016765D01*
X028539Y016706D02*
X029066Y016706D01*
X029076Y016648D02*
X028480Y016648D01*
X028362Y016589D02*
X029085Y016589D01*
X029089Y016531D02*
X028221Y016531D01*
D12*
X004239Y010233D03*
X004142Y010617D03*
X003601Y010467D03*
X003698Y010093D03*
X003514Y010852D03*
X003417Y011236D03*
X003330Y011621D03*
X003850Y011779D03*
X003938Y011395D03*
X004045Y011001D03*
D13*
X006233Y015431D03*
X006454Y015754D03*
X006823Y015725D03*
X007193Y015695D03*
X007342Y015343D03*
X007711Y015324D03*
X007562Y015666D03*
X007932Y015646D03*
X007782Y016001D03*
X007413Y016020D03*
X007043Y016050D03*
X006674Y016079D03*
X006304Y016108D03*
X005873Y016136D03*
X005533Y016026D03*
X005213Y016206D03*
X006603Y015402D03*
X006972Y015372D03*
X010873Y008836D03*
X010689Y008519D03*
X011067Y008515D03*
X011251Y008832D03*
X011443Y008495D03*
X011246Y008155D03*
X011062Y007838D03*
X010877Y007521D03*
X010683Y007203D03*
X010492Y007540D03*
X010308Y007861D03*
X010492Y008179D03*
X010686Y007858D03*
X010871Y008175D03*
X010113Y007544D03*
X009888Y007227D03*
X009821Y006883D03*
X009516Y006705D03*
X018803Y007953D03*
X019183Y007947D03*
X019015Y008276D03*
X019369Y008276D03*
X019537Y007947D03*
X019705Y007617D03*
X019351Y007617D03*
X019519Y007287D03*
X019873Y007287D03*
X020041Y006947D03*
X019687Y006947D03*
X019306Y006964D03*
X019138Y007294D03*
X018970Y007624D03*
X019474Y006625D03*
X019633Y006262D03*
X019890Y006023D03*
X019879Y005669D03*
X023430Y014205D03*
X023800Y014198D03*
X024170Y014192D03*
X024540Y014185D03*
X024364Y014523D03*
X023994Y014530D03*
X023828Y014870D03*
X024198Y014864D03*
X024568Y014857D03*
X024734Y014517D03*
X024910Y014179D03*
X025335Y014178D03*
X025671Y014281D03*
X025972Y014095D03*
X024938Y014851D03*
X023624Y014536D03*
X023255Y014543D03*
X023458Y014876D03*
X020360Y021482D03*
X019988Y021502D03*
X019798Y021831D03*
X019997Y022166D03*
X020186Y022490D03*
X020376Y022804D03*
X020566Y023118D03*
X020756Y022789D03*
X020567Y022475D03*
X020377Y022161D03*
X020187Y021837D03*
X020559Y021817D03*
X020748Y022141D03*
X020938Y022455D03*
X021128Y022769D03*
X021334Y023086D03*
X021407Y023429D03*
X021716Y023602D03*
X012410Y022387D03*
X012045Y022395D03*
X011886Y022728D03*
X012246Y022724D03*
X012082Y023050D03*
X011722Y023064D03*
X011558Y023391D03*
X011919Y023387D03*
X011755Y023714D03*
X011586Y024094D03*
X011325Y024329D03*
X011329Y024682D03*
X011188Y023407D03*
X011352Y023080D03*
X011511Y022737D03*
X011684Y022399D03*
X011848Y022072D03*
X012208Y022058D03*
M02*
