G75*
G70*
%OFA0B0*%
%FSLAX24Y24*%
%IPPOS*%
%LPD*%
%AMOC8*
5,1,8,0,0,1.08239X$1,22.5*
%
%ADD10R,0.1000X0.2000*%
%ADD11R,0.2000X0.1000*%
%ADD12R,0.0500X0.1000*%
%ADD13C,0.0320*%
%ADD14C,0.0400*%
%ADD15C,0.0039*%
%ADD16C,0.0320*%
%ADD17C,0.0060*%
D10*
X014089Y005189D03*
X016174Y005148D03*
X016209Y025109D03*
X014119Y025109D03*
D11*
X005153Y016190D03*
X005157Y014127D03*
G36*
X013569Y012135D02*
X012156Y013548D01*
X012863Y014255D01*
X014276Y012842D01*
X013569Y012135D01*
G37*
X025115Y014067D03*
X025102Y016170D03*
D12*
X003809Y021009D03*
X002949Y019049D03*
D13*
X004379Y020759D03*
X004379Y021139D03*
X004759Y021139D03*
X004759Y020759D03*
X006479Y016459D03*
X006649Y016169D03*
X006479Y015879D03*
X006819Y015879D03*
X006989Y016169D03*
X007159Y015879D03*
X007329Y016169D03*
X007499Y015879D03*
X007669Y016169D03*
X007839Y015879D03*
X008009Y016169D03*
X008179Y015879D03*
X008349Y016169D03*
X008519Y015879D03*
X008689Y016169D03*
X008859Y015879D03*
X009029Y016169D03*
X009199Y015879D03*
X009369Y016169D03*
X009199Y016459D03*
X008859Y016459D03*
X008519Y016459D03*
X008179Y016459D03*
X007839Y016459D03*
X007499Y016459D03*
X007159Y016459D03*
X006819Y016459D03*
X013819Y009239D03*
X014109Y009069D03*
X013819Y008899D03*
X014109Y008729D03*
X013819Y008559D03*
X014109Y008389D03*
X013819Y008219D03*
X014109Y008049D03*
X013819Y007879D03*
X014109Y007709D03*
X013819Y007539D03*
X014109Y007369D03*
X013819Y007199D03*
X014109Y007029D03*
X013819Y006859D03*
X014109Y006689D03*
X013819Y006519D03*
X014399Y006519D03*
X014399Y006859D03*
X014399Y007199D03*
X014399Y007539D03*
X014399Y007879D03*
X014399Y008219D03*
X014399Y008559D03*
X014399Y008899D03*
X014399Y009239D03*
X014109Y009409D03*
X020919Y014089D03*
X021089Y013799D03*
X021259Y014089D03*
X021429Y013799D03*
X021599Y014089D03*
X021769Y013799D03*
X021939Y014089D03*
X022109Y013799D03*
X022279Y014089D03*
X022449Y013799D03*
X022619Y014089D03*
X022789Y013799D03*
X022959Y014089D03*
X023129Y013799D03*
X023299Y014089D03*
X023469Y013799D03*
X023639Y014089D03*
X023809Y013799D03*
X023809Y014379D03*
X023469Y014379D03*
X023129Y014379D03*
X022789Y014379D03*
X022449Y014379D03*
X022109Y014379D03*
X021769Y014379D03*
X021429Y014379D03*
X021089Y014379D03*
X016189Y020899D03*
X015899Y021069D03*
X016189Y021239D03*
X015899Y021409D03*
X016189Y021579D03*
X015899Y021749D03*
X016189Y021919D03*
X015899Y022089D03*
X016189Y022259D03*
X015899Y022429D03*
X016189Y022599D03*
X015899Y022769D03*
X016189Y022939D03*
X015899Y023109D03*
X016189Y023279D03*
X015899Y023449D03*
X016189Y023619D03*
X015899Y023789D03*
X016479Y023789D03*
X016479Y023449D03*
X016479Y023109D03*
X016479Y022769D03*
X016479Y022429D03*
X016479Y022089D03*
X016479Y021749D03*
X016479Y021409D03*
X016479Y021069D03*
D14*
X016479Y022059D02*
X016479Y023789D01*
X016210Y025116D01*
X008209Y016459D02*
X006479Y016459D01*
X005153Y016190D01*
X013819Y008249D02*
X013819Y006519D01*
X014088Y005193D01*
X022079Y013799D02*
X023809Y013799D01*
X025136Y014068D01*
D15*
X024819Y014078D02*
X020639Y014078D01*
X020639Y014116D02*
X024819Y014116D01*
X024819Y014154D02*
X020639Y014154D01*
X020639Y014191D02*
X024819Y014191D01*
X024819Y014229D02*
X020639Y014229D01*
X020639Y014267D02*
X024819Y014267D01*
X024819Y014305D02*
X020639Y014305D01*
X020639Y014343D02*
X024819Y014343D01*
X024819Y014381D02*
X020639Y014381D01*
X020639Y014419D02*
X024819Y014419D01*
X024819Y014456D02*
X020639Y014456D01*
X020639Y014494D02*
X024819Y014494D01*
X024819Y014532D02*
X020639Y014532D01*
X020639Y014569D02*
X024819Y014569D01*
X024819Y013499D01*
X024404Y013499D01*
X024378Y013509D01*
X024200Y013519D01*
X024199Y013520D01*
X024142Y013523D01*
X024085Y013526D01*
X024085Y013526D01*
X024009Y013529D01*
X024008Y013530D01*
X023952Y013532D01*
X023895Y013535D01*
X023894Y013534D01*
X023819Y013537D01*
X023818Y013538D01*
X023761Y013539D01*
X023704Y013541D01*
X023703Y013540D01*
X023628Y013541D01*
X023627Y013542D01*
X023570Y013542D01*
X023514Y013543D01*
X023513Y013542D01*
X023437Y013543D01*
X023436Y013543D01*
X023379Y013543D01*
X023323Y013543D01*
X023322Y013542D01*
X023246Y013541D01*
X023245Y013542D01*
X023188Y013540D01*
X023132Y013539D01*
X023131Y013538D01*
X023055Y013536D01*
X023054Y013537D01*
X022998Y013534D01*
X022941Y013533D01*
X022940Y013532D01*
X022864Y013528D01*
X022863Y013529D01*
X022807Y013525D01*
X022750Y013523D01*
X022749Y013522D01*
X022673Y013517D01*
X022672Y013518D01*
X022616Y013514D01*
X022559Y013510D01*
X020639Y013510D01*
X020639Y013499D02*
X020639Y014569D01*
X020639Y014040D02*
X024819Y014040D01*
X024819Y014002D02*
X020639Y014002D01*
X020639Y013964D02*
X024819Y013964D01*
X024819Y013926D02*
X020639Y013926D01*
X020639Y013888D02*
X024819Y013888D01*
X024819Y013851D02*
X020639Y013851D01*
X020639Y013813D02*
X024819Y013813D01*
X024819Y013775D02*
X020639Y013775D01*
X020639Y013737D02*
X024819Y013737D01*
X024819Y013699D02*
X020639Y013699D01*
X020639Y013661D02*
X024819Y013661D01*
X024819Y013623D02*
X020639Y013623D01*
X020639Y013585D02*
X024819Y013585D01*
X024819Y013548D02*
X020639Y013548D01*
X020639Y013499D02*
X022434Y013499D01*
X022481Y013504D01*
X022482Y013503D01*
X022559Y013509D01*
X022559Y013510D01*
X024367Y013510D02*
X024819Y013510D01*
X024378Y013509D02*
X024378Y013509D01*
X016719Y020669D02*
X015679Y020669D01*
X015679Y024699D01*
X016719Y024699D01*
X016719Y020669D01*
X016719Y020705D02*
X015679Y020705D01*
X015679Y020743D02*
X016719Y020743D01*
X016719Y020781D02*
X015679Y020781D01*
X015679Y020819D02*
X016719Y020819D01*
X016719Y020857D02*
X015679Y020857D01*
X015679Y020894D02*
X016719Y020894D01*
X016719Y020932D02*
X015679Y020932D01*
X015679Y020970D02*
X016719Y020970D01*
X016719Y021008D02*
X015679Y021008D01*
X015679Y021046D02*
X016719Y021046D01*
X016719Y021084D02*
X015679Y021084D01*
X015679Y021122D02*
X016719Y021122D01*
X016719Y021160D02*
X015679Y021160D01*
X015679Y021197D02*
X016719Y021197D01*
X016719Y021235D02*
X015679Y021235D01*
X015679Y021273D02*
X016719Y021273D01*
X016719Y021311D02*
X015679Y021311D01*
X015679Y021349D02*
X016719Y021349D01*
X016719Y021387D02*
X015679Y021387D01*
X015679Y021425D02*
X016719Y021425D01*
X016719Y021462D02*
X015679Y021462D01*
X015679Y021500D02*
X016719Y021500D01*
X016719Y021538D02*
X015679Y021538D01*
X015679Y021576D02*
X016719Y021576D01*
X016719Y021614D02*
X015679Y021614D01*
X015679Y021652D02*
X016719Y021652D01*
X016719Y021690D02*
X015679Y021690D01*
X015679Y021728D02*
X016719Y021728D01*
X016719Y021765D02*
X015679Y021765D01*
X015679Y021803D02*
X016719Y021803D01*
X016719Y021841D02*
X015679Y021841D01*
X015679Y021879D02*
X016719Y021879D01*
X016719Y021917D02*
X015679Y021917D01*
X015679Y021955D02*
X016719Y021955D01*
X016719Y021993D02*
X015679Y021993D01*
X015679Y022031D02*
X016719Y022031D01*
X016719Y022068D02*
X015679Y022068D01*
X015679Y022106D02*
X016719Y022106D01*
X016719Y022144D02*
X015679Y022144D01*
X015679Y022182D02*
X016719Y022182D01*
X016719Y022220D02*
X015679Y022220D01*
X015679Y022258D02*
X016719Y022258D01*
X016719Y022296D02*
X015679Y022296D01*
X015679Y022334D02*
X016719Y022334D01*
X016719Y022371D02*
X015679Y022371D01*
X015679Y022409D02*
X016719Y022409D01*
X016719Y022447D02*
X015679Y022447D01*
X015679Y022485D02*
X016719Y022485D01*
X016719Y022523D02*
X015679Y022523D01*
X015679Y022561D02*
X016719Y022561D01*
X016719Y022599D02*
X015679Y022599D01*
X015679Y022636D02*
X016719Y022636D01*
X016719Y022674D02*
X015679Y022674D01*
X015679Y022712D02*
X016719Y022712D01*
X016719Y022750D02*
X015679Y022750D01*
X015679Y022788D02*
X016719Y022788D01*
X016719Y022826D02*
X015679Y022826D01*
X015679Y022864D02*
X016719Y022864D01*
X016719Y022902D02*
X015679Y022902D01*
X015679Y022939D02*
X016719Y022939D01*
X016719Y022977D02*
X015679Y022977D01*
X015679Y023015D02*
X016719Y023015D01*
X016719Y023053D02*
X015679Y023053D01*
X015679Y023091D02*
X016719Y023091D01*
X016719Y023129D02*
X015679Y023129D01*
X015679Y023167D02*
X016719Y023167D01*
X016719Y023205D02*
X015679Y023205D01*
X015679Y023242D02*
X016719Y023242D01*
X016719Y023280D02*
X015679Y023280D01*
X015679Y023318D02*
X016719Y023318D01*
X016719Y023356D02*
X015679Y023356D01*
X015679Y023394D02*
X016719Y023394D01*
X016719Y023432D02*
X015679Y023432D01*
X015679Y023470D02*
X016719Y023470D01*
X016719Y023507D02*
X015679Y023507D01*
X015679Y023545D02*
X016719Y023545D01*
X016719Y023583D02*
X015679Y023583D01*
X015679Y023621D02*
X016719Y023621D01*
X016719Y023659D02*
X015679Y023659D01*
X015679Y023697D02*
X016719Y023697D01*
X016719Y023735D02*
X015679Y023735D01*
X015679Y023773D02*
X016719Y023773D01*
X016719Y023810D02*
X015679Y023810D01*
X015679Y023848D02*
X016719Y023848D01*
X016719Y023886D02*
X015679Y023886D01*
X015679Y023924D02*
X016719Y023924D01*
X016719Y023962D02*
X015679Y023962D01*
X015679Y024000D02*
X016719Y024000D01*
X016719Y024038D02*
X015679Y024038D01*
X015679Y024076D02*
X016719Y024076D01*
X016719Y024113D02*
X015679Y024113D01*
X015679Y024151D02*
X016719Y024151D01*
X016719Y024189D02*
X015679Y024189D01*
X015679Y024227D02*
X016719Y024227D01*
X016719Y024265D02*
X015679Y024265D01*
X015679Y024303D02*
X016719Y024303D01*
X016719Y024341D02*
X015679Y024341D01*
X015679Y024379D02*
X016719Y024379D01*
X016719Y024416D02*
X015679Y024416D01*
X015679Y024454D02*
X016719Y024454D01*
X016719Y024492D02*
X015679Y024492D01*
X015679Y024530D02*
X016719Y024530D01*
X016719Y024568D02*
X015679Y024568D01*
X015679Y024606D02*
X016719Y024606D01*
X016719Y024644D02*
X015679Y024644D01*
X015679Y024681D02*
X016719Y024681D01*
X009589Y016759D02*
X009589Y015599D01*
X005099Y015599D01*
X005099Y016769D01*
X005109Y016759D01*
X006094Y016759D01*
X006138Y016757D01*
X006195Y016754D01*
X006195Y016754D01*
X006271Y016751D01*
X006272Y016750D01*
X006328Y016748D01*
X006385Y016745D01*
X006386Y016746D01*
X006461Y016743D01*
X006462Y016742D01*
X006519Y016741D01*
X006576Y016739D01*
X006577Y016740D01*
X006652Y016739D01*
X006653Y016738D01*
X006710Y016738D01*
X006766Y016737D01*
X006767Y016738D01*
X006843Y016737D01*
X006844Y016737D01*
X006901Y016737D01*
X006957Y016737D01*
X006958Y016738D01*
X007034Y016739D01*
X007035Y016738D01*
X007092Y016740D01*
X007148Y016741D01*
X007149Y016742D01*
X007225Y016744D01*
X007226Y016743D01*
X007282Y016746D01*
X007339Y016747D01*
X007340Y016748D01*
X007416Y016752D01*
X007417Y016751D01*
X007473Y016755D01*
X007530Y016757D01*
X007531Y016758D01*
X007550Y016759D01*
X009589Y016759D01*
X009589Y016729D02*
X005099Y016729D01*
X005099Y016767D02*
X005102Y016767D01*
X005099Y016691D02*
X009589Y016691D01*
X009589Y016653D02*
X005099Y016653D01*
X005099Y016615D02*
X009589Y016615D01*
X009589Y016577D02*
X005099Y016577D01*
X005099Y016539D02*
X009589Y016539D01*
X009589Y016501D02*
X005099Y016501D01*
X005099Y016464D02*
X009589Y016464D01*
X009589Y016426D02*
X005099Y016426D01*
X005099Y016388D02*
X009589Y016388D01*
X009589Y016350D02*
X005099Y016350D01*
X005099Y016312D02*
X009589Y016312D01*
X009589Y016274D02*
X005099Y016274D01*
X005099Y016236D02*
X009589Y016236D01*
X009589Y016199D02*
X005099Y016199D01*
X005099Y016161D02*
X009589Y016161D01*
X009589Y016123D02*
X005099Y016123D01*
X005099Y016085D02*
X009589Y016085D01*
X009589Y016047D02*
X005099Y016047D01*
X005099Y016009D02*
X009589Y016009D01*
X009589Y015971D02*
X005099Y015971D01*
X005099Y015933D02*
X009589Y015933D01*
X009589Y015896D02*
X005099Y015896D01*
X005099Y015858D02*
X009589Y015858D01*
X009589Y015820D02*
X005099Y015820D01*
X005099Y015782D02*
X009589Y015782D01*
X009589Y015744D02*
X005099Y015744D01*
X005099Y015706D02*
X009589Y015706D01*
X009589Y015668D02*
X005099Y015668D01*
X005099Y015630D02*
X009589Y015630D01*
X013459Y009719D02*
X013459Y008238D01*
X013459Y008237D01*
X013467Y008180D01*
X013466Y008179D01*
X013474Y008103D01*
X013475Y008102D01*
X013481Y008046D01*
X013487Y007990D01*
X013486Y007989D01*
X013493Y007912D01*
X013494Y007911D01*
X013499Y007855D01*
X013504Y007799D01*
X013503Y007798D01*
X013509Y007721D01*
X013510Y007721D01*
X013514Y007664D01*
X013518Y007608D01*
X013517Y007607D01*
X013522Y007531D01*
X013523Y007530D01*
X013525Y007473D01*
X013529Y007417D01*
X013528Y007416D01*
X013532Y007340D01*
X013533Y007339D01*
X013534Y007282D01*
X013537Y007226D01*
X013536Y007225D01*
X013538Y007149D01*
X013539Y007148D01*
X013540Y007092D01*
X013542Y007035D01*
X013541Y007034D01*
X013542Y006958D01*
X014649Y006958D01*
X014649Y006920D02*
X013543Y006920D01*
X013543Y006901D02*
X013543Y006957D01*
X013542Y006958D01*
X013541Y006996D02*
X014649Y006996D01*
X014649Y007034D02*
X013541Y007034D01*
X013541Y007072D02*
X014649Y007072D01*
X014649Y007110D02*
X013540Y007110D01*
X013539Y007148D02*
X014649Y007148D01*
X014649Y007185D02*
X013537Y007185D01*
X013536Y007223D02*
X014649Y007223D01*
X014649Y007261D02*
X013535Y007261D01*
X013534Y007299D02*
X014649Y007299D01*
X014649Y007337D02*
X013533Y007337D01*
X013530Y007375D02*
X014649Y007375D01*
X014649Y007413D02*
X013528Y007413D01*
X013527Y007450D02*
X014649Y007450D01*
X014649Y007488D02*
X013525Y007488D01*
X013523Y007526D02*
X014649Y007526D01*
X014649Y007564D02*
X013520Y007564D01*
X013517Y007602D02*
X014649Y007602D01*
X014649Y007640D02*
X013515Y007640D01*
X013513Y007678D02*
X014649Y007678D01*
X014649Y007716D02*
X013510Y007716D01*
X013507Y007753D02*
X014649Y007753D01*
X014649Y007791D02*
X013504Y007791D01*
X013501Y007829D02*
X014649Y007829D01*
X014649Y007867D02*
X013498Y007867D01*
X013495Y007905D02*
X014649Y007905D01*
X014649Y007943D02*
X013490Y007943D01*
X013487Y007981D02*
X014649Y007981D01*
X014649Y008019D02*
X013484Y008019D01*
X013480Y008056D02*
X014649Y008056D01*
X014649Y008094D02*
X013476Y008094D01*
X013471Y008132D02*
X014649Y008132D01*
X014649Y008170D02*
X013467Y008170D01*
X013463Y008208D02*
X014649Y008208D01*
X014649Y008246D02*
X013459Y008246D01*
X013459Y008284D02*
X014649Y008284D01*
X014649Y008321D02*
X013459Y008321D01*
X013459Y008359D02*
X014649Y008359D01*
X014649Y008397D02*
X013459Y008397D01*
X013459Y008435D02*
X014649Y008435D01*
X014649Y008473D02*
X013459Y008473D01*
X013459Y008511D02*
X014649Y008511D01*
X014649Y008549D02*
X013459Y008549D01*
X013459Y008587D02*
X014649Y008587D01*
X014649Y008624D02*
X013459Y008624D01*
X013459Y008662D02*
X014649Y008662D01*
X014649Y008700D02*
X013459Y008700D01*
X013459Y008738D02*
X014649Y008738D01*
X014649Y008776D02*
X013459Y008776D01*
X013459Y008814D02*
X014649Y008814D01*
X014649Y008852D02*
X013459Y008852D01*
X013459Y008890D02*
X014649Y008890D01*
X014649Y008927D02*
X013459Y008927D01*
X013459Y008965D02*
X014649Y008965D01*
X014649Y009003D02*
X013459Y009003D01*
X013459Y009041D02*
X014649Y009041D01*
X014649Y009079D02*
X013459Y009079D01*
X013459Y009117D02*
X014649Y009117D01*
X014649Y009155D02*
X013459Y009155D01*
X013459Y009193D02*
X014649Y009193D01*
X014649Y009230D02*
X013459Y009230D01*
X013459Y009268D02*
X014649Y009268D01*
X014649Y009306D02*
X013459Y009306D01*
X013459Y009344D02*
X014649Y009344D01*
X014649Y009382D02*
X013459Y009382D01*
X013459Y009420D02*
X014649Y009420D01*
X014649Y009458D02*
X013459Y009458D01*
X013459Y009495D02*
X014649Y009495D01*
X014649Y009533D02*
X013459Y009533D01*
X013459Y009571D02*
X014649Y009571D01*
X014649Y009609D02*
X013459Y009609D01*
X013459Y009647D02*
X014649Y009647D01*
X014649Y009685D02*
X013459Y009685D01*
X013459Y009719D02*
X014649Y009719D01*
X014649Y005149D01*
X013439Y005149D01*
X013459Y005169D01*
X013459Y005772D01*
X013509Y005902D01*
X013519Y006080D01*
X013520Y006081D01*
X013523Y006138D01*
X013526Y006195D01*
X013526Y006195D01*
X013529Y006271D01*
X013530Y006272D01*
X013532Y006328D01*
X013535Y006385D01*
X013534Y006386D01*
X013537Y006461D01*
X013538Y006462D01*
X013539Y006519D01*
X013541Y006576D01*
X013540Y006577D01*
X013541Y006652D01*
X013542Y006653D01*
X013542Y006710D01*
X013543Y006766D01*
X013542Y006767D01*
X013543Y006843D01*
X013543Y006844D01*
X013543Y006901D01*
X013543Y006882D02*
X014649Y006882D01*
X014649Y006845D02*
X013543Y006845D01*
X013542Y006807D02*
X014649Y006807D01*
X014649Y006769D02*
X013542Y006769D01*
X013543Y006731D02*
X014649Y006731D01*
X014649Y006693D02*
X013542Y006693D01*
X013542Y006655D02*
X014649Y006655D01*
X014649Y006617D02*
X013541Y006617D01*
X013540Y006579D02*
X014649Y006579D01*
X014649Y006542D02*
X013540Y006542D01*
X013539Y006504D02*
X014649Y006504D01*
X014649Y006466D02*
X013538Y006466D01*
X013536Y006428D02*
X014649Y006428D01*
X014649Y006390D02*
X013534Y006390D01*
X013534Y006352D02*
X014649Y006352D01*
X014649Y006314D02*
X013532Y006314D01*
X013531Y006276D02*
X014649Y006276D01*
X014649Y006239D02*
X013528Y006239D01*
X013526Y006201D02*
X014649Y006201D01*
X014649Y006163D02*
X013524Y006163D01*
X013522Y006125D02*
X014649Y006125D01*
X014649Y006087D02*
X013520Y006087D01*
X013518Y006049D02*
X014649Y006049D01*
X014649Y006011D02*
X013515Y006011D01*
X013513Y005974D02*
X014649Y005974D01*
X014649Y005936D02*
X013511Y005936D01*
X013509Y005902D02*
X013509Y005902D01*
X013508Y005898D02*
X014649Y005898D01*
X014649Y005860D02*
X013493Y005860D01*
X013478Y005822D02*
X014649Y005822D01*
X014649Y005784D02*
X013464Y005784D01*
X013459Y005746D02*
X014649Y005746D01*
X014649Y005708D02*
X013459Y005708D01*
X013459Y005671D02*
X014649Y005671D01*
X014649Y005633D02*
X013459Y005633D01*
X013459Y005595D02*
X014649Y005595D01*
X014649Y005557D02*
X013459Y005557D01*
X013459Y005519D02*
X014649Y005519D01*
X014649Y005481D02*
X013459Y005481D01*
X013459Y005443D02*
X014649Y005443D01*
X014649Y005405D02*
X013459Y005405D01*
X013459Y005368D02*
X014649Y005368D01*
X014649Y005330D02*
X013459Y005330D01*
X013459Y005292D02*
X014649Y005292D01*
X014649Y005254D02*
X013459Y005254D01*
X013459Y005216D02*
X014649Y005216D01*
X014649Y005178D02*
X013459Y005178D01*
D16*
X004739Y020739D02*
X004739Y020759D01*
X004379Y021119D01*
X004399Y021119D01*
X004739Y020779D01*
X004399Y020779D01*
X004379Y020759D01*
X004379Y021139D01*
X004099Y021139D01*
X004099Y020819D01*
X004139Y020779D01*
X004039Y020779D01*
X003809Y021009D01*
X004379Y021139D02*
X004719Y021139D01*
X004739Y021159D01*
X004739Y020779D01*
X004739Y020759D01*
D17*
X005556Y005503D02*
X005688Y005503D01*
X005615Y005444D02*
X005776Y005444D01*
X005863Y005386D02*
X005673Y005386D01*
X005732Y005327D02*
X006070Y005327D01*
X005900Y005361D02*
X006282Y005285D01*
X006663Y005361D01*
X006663Y005361D01*
X006986Y005577D01*
X006986Y005577D01*
X007202Y005900D01*
X007202Y005900D01*
X007278Y006282D01*
X007202Y006663D01*
X006986Y006986D01*
X006663Y007202D01*
X006282Y007278D01*
X006282Y007278D01*
X005900Y007202D01*
X005577Y006986D01*
X005361Y006663D01*
X005285Y006282D01*
X005361Y005900D01*
X005577Y005577D01*
X005577Y005577D01*
X005577Y005577D01*
X005900Y005361D01*
X005900Y005361D01*
X005790Y005269D02*
X007040Y005269D01*
X007034Y005259D02*
X006958Y004878D01*
X007034Y004497D01*
X007034Y004497D01*
X007250Y004173D01*
X007573Y003957D01*
X007955Y003882D01*
X008336Y003957D01*
X008659Y004173D01*
X008659Y004173D01*
X008659Y004173D01*
X008875Y004497D01*
X008951Y004878D01*
X008875Y005259D01*
X008875Y005259D01*
X008659Y005583D01*
X008336Y005799D01*
X007955Y005875D01*
X007955Y005875D01*
X007573Y005799D01*
X007250Y005583D01*
X007250Y005583D01*
X007034Y005259D01*
X007024Y005210D02*
X005849Y005210D01*
X005907Y005152D02*
X007013Y005152D01*
X007001Y005093D02*
X005966Y005093D01*
X006024Y005035D02*
X006989Y005035D01*
X006978Y004976D02*
X006094Y004976D01*
X006033Y005026D02*
X006033Y005026D01*
X005026Y006033D01*
X004129Y007140D01*
X003354Y008335D01*
X002707Y009604D01*
X002196Y010934D01*
X001828Y012310D01*
X001605Y013717D01*
X001530Y015140D01*
X001605Y016563D01*
X001828Y017970D01*
X002196Y019346D01*
X002707Y020676D01*
X003354Y021945D01*
X004129Y023140D01*
X005026Y024247D01*
X006033Y025254D01*
X007140Y026151D01*
X008335Y026926D01*
X009604Y027573D01*
X010934Y028084D01*
X012310Y028452D01*
X013717Y028675D01*
X015140Y028750D01*
X016563Y028675D01*
X017970Y028452D01*
X019346Y028084D01*
X020676Y027573D01*
X021945Y026926D01*
X023140Y026151D01*
X024247Y025254D01*
X025254Y024247D01*
X026151Y023140D01*
X026926Y021945D01*
X027573Y020676D01*
X028084Y019346D01*
X028452Y017970D01*
X028675Y016563D01*
X028750Y015140D01*
X028675Y013717D01*
X028452Y012310D01*
X028084Y010934D01*
X027573Y009604D01*
X026926Y008335D01*
X026151Y007140D01*
X025254Y006033D01*
X024247Y005026D01*
X023140Y004129D01*
X021945Y003354D01*
X020676Y002707D01*
X019346Y002196D01*
X017970Y001828D01*
X016563Y001605D01*
X015140Y001530D01*
X013717Y001605D01*
X012310Y001828D01*
X010934Y002196D01*
X009604Y002707D01*
X008335Y003354D01*
X007140Y004129D01*
X006033Y005026D01*
X006167Y004918D02*
X006966Y004918D01*
X006958Y004878D02*
X006958Y004878D01*
X006962Y004859D02*
X006239Y004859D01*
X006311Y004801D02*
X006973Y004801D01*
X006985Y004742D02*
X006383Y004742D01*
X006456Y004684D02*
X006997Y004684D01*
X007008Y004625D02*
X006528Y004625D01*
X006600Y004567D02*
X007020Y004567D01*
X007032Y004508D02*
X006672Y004508D01*
X006745Y004450D02*
X007065Y004450D01*
X007104Y004391D02*
X006817Y004391D01*
X006889Y004333D02*
X007143Y004333D01*
X007183Y004274D02*
X006961Y004274D01*
X007034Y004216D02*
X007222Y004216D01*
X007250Y004173D02*
X007250Y004173D01*
X007250Y004173D01*
X007274Y004157D02*
X007106Y004157D01*
X007140Y004129D02*
X007140Y004129D01*
X007187Y004099D02*
X007362Y004099D01*
X007277Y004040D02*
X007449Y004040D01*
X007367Y003982D02*
X007537Y003982D01*
X007573Y003957D02*
X007573Y003957D01*
X007548Y003865D02*
X022732Y003865D01*
X022707Y003957D02*
X023030Y004173D01*
X023030Y004173D01*
X023246Y004497D01*
X023322Y004878D01*
X023246Y005259D01*
X023246Y005259D01*
X023030Y005583D01*
X022707Y005799D01*
X022325Y005875D01*
X021944Y005799D01*
X021621Y005583D01*
X021621Y005583D01*
X021405Y005259D01*
X021329Y004878D01*
X021405Y004497D01*
X021405Y004497D01*
X021621Y004173D01*
X021944Y003957D01*
X022325Y003882D01*
X022325Y003882D01*
X022707Y003957D01*
X022707Y003957D01*
X022743Y003982D02*
X022913Y003982D01*
X022831Y004040D02*
X023003Y004040D01*
X022918Y004099D02*
X023093Y004099D01*
X023174Y004157D02*
X023006Y004157D01*
X023058Y004216D02*
X023246Y004216D01*
X023319Y004274D02*
X023097Y004274D01*
X023137Y004333D02*
X023391Y004333D01*
X023463Y004391D02*
X023176Y004391D01*
X023215Y004450D02*
X023535Y004450D01*
X023608Y004508D02*
X023248Y004508D01*
X023260Y004567D02*
X023680Y004567D01*
X023752Y004625D02*
X023272Y004625D01*
X023283Y004684D02*
X023824Y004684D01*
X023897Y004742D02*
X023295Y004742D01*
X023307Y004801D02*
X023969Y004801D01*
X024041Y004859D02*
X023318Y004859D01*
X023322Y004878D02*
X023322Y004878D01*
X023314Y004918D02*
X024113Y004918D01*
X024186Y004976D02*
X023302Y004976D01*
X023291Y005035D02*
X024256Y005035D01*
X024314Y005093D02*
X023279Y005093D01*
X023267Y005152D02*
X024373Y005152D01*
X024431Y005210D02*
X023256Y005210D01*
X023240Y005269D02*
X024490Y005269D01*
X024548Y005327D02*
X024210Y005327D01*
X024380Y005361D02*
X023998Y005285D01*
X023998Y005285D01*
X023617Y005361D01*
X023617Y005361D01*
X023294Y005577D01*
X023294Y005577D01*
X023294Y005577D01*
X023078Y005900D01*
X023078Y005900D01*
X023002Y006282D01*
X023002Y006282D01*
X023078Y006663D01*
X023078Y006663D01*
X023294Y006986D01*
X023294Y006986D01*
X023294Y006986D01*
X023617Y007202D01*
X023617Y007202D01*
X023998Y007278D01*
X023998Y007278D01*
X024380Y007202D01*
X024380Y007202D01*
X024703Y006986D01*
X024703Y006986D01*
X024919Y006663D01*
X024995Y006282D01*
X024919Y005900D01*
X024919Y005900D01*
X024703Y005577D01*
X024703Y005577D01*
X024703Y005577D01*
X024380Y005361D01*
X024380Y005361D01*
X024417Y005386D02*
X024607Y005386D01*
X024665Y005444D02*
X024504Y005444D01*
X024592Y005503D02*
X024724Y005503D01*
X024679Y005561D02*
X024782Y005561D01*
X024731Y005620D02*
X024841Y005620D01*
X024899Y005678D02*
X024771Y005678D01*
X024810Y005737D02*
X024958Y005737D01*
X025016Y005795D02*
X024849Y005795D01*
X024888Y005854D02*
X025075Y005854D01*
X025133Y005912D02*
X024921Y005912D01*
X024933Y005971D02*
X025192Y005971D01*
X025250Y006029D02*
X024945Y006029D01*
X024956Y006088D02*
X025298Y006088D01*
X025346Y006146D02*
X024968Y006146D01*
X024979Y006205D02*
X025393Y006205D01*
X025440Y006263D02*
X024991Y006263D01*
X024987Y006322D02*
X025488Y006322D01*
X025535Y006380D02*
X024975Y006380D01*
X024963Y006439D02*
X025583Y006439D01*
X025630Y006497D02*
X024952Y006497D01*
X024940Y006556D02*
X025677Y006556D01*
X025725Y006614D02*
X024929Y006614D01*
X024919Y006663D02*
X024919Y006663D01*
X024912Y006673D02*
X025772Y006673D01*
X025819Y006731D02*
X024873Y006731D01*
X024834Y006790D02*
X025867Y006790D01*
X025914Y006848D02*
X024795Y006848D01*
X024756Y006907D02*
X025962Y006907D01*
X026009Y006965D02*
X025439Y006965D01*
X025402Y006958D02*
X025783Y007034D01*
X025783Y007034D01*
X026107Y007250D01*
X026323Y007573D01*
X026398Y007955D01*
X026323Y008336D01*
X026107Y008659D01*
X026107Y008659D01*
X026107Y008659D01*
X025783Y008875D01*
X025402Y008951D01*
X025402Y008951D01*
X025021Y008875D01*
X025021Y008875D01*
X024697Y008659D01*
X024481Y008336D01*
X024405Y007955D01*
X024405Y007955D01*
X024481Y007573D01*
X024697Y007250D01*
X024697Y007250D01*
X024697Y007250D01*
X025021Y007034D01*
X025402Y006958D01*
X025402Y006958D01*
X025365Y006965D02*
X024717Y006965D01*
X024703Y006986D02*
X024703Y006986D01*
X024647Y007024D02*
X025071Y007024D01*
X025021Y007034D02*
X025021Y007034D01*
X024948Y007082D02*
X024559Y007082D01*
X024472Y007141D02*
X024860Y007141D01*
X024773Y007199D02*
X024384Y007199D01*
X024614Y007375D02*
X022926Y007375D01*
X022868Y007316D02*
X024653Y007316D01*
X024692Y007258D02*
X024100Y007258D01*
X023896Y007258D02*
X022809Y007258D01*
X022750Y007199D02*
X023613Y007199D01*
X023525Y007141D02*
X022691Y007141D01*
X022633Y007082D02*
X023437Y007082D01*
X023350Y007024D02*
X022574Y007024D01*
X022515Y006965D02*
X023280Y006965D01*
X023241Y006907D02*
X022455Y006907D01*
X022462Y006912D02*
X022462Y006912D01*
X023338Y007785D01*
X024111Y008751D01*
X024771Y009798D01*
X025310Y010911D01*
X025310Y010911D01*
X025515Y011495D01*
X025538Y011561D01*
X025595Y011722D01*
X025609Y012203D01*
X025476Y012665D01*
X025476Y012665D01*
X025210Y013066D01*
X025210Y013066D01*
X025210Y013066D01*
X024880Y013330D01*
X024890Y013330D01*
X024977Y013417D01*
X026177Y013417D01*
X026265Y013505D01*
X026265Y014629D01*
X026834Y014629D01*
X026873Y014570D02*
X026265Y014570D01*
X026265Y014512D02*
X026912Y014512D01*
X026951Y014453D02*
X026265Y014453D01*
X026265Y014395D02*
X027023Y014395D01*
X026963Y014435D02*
X027286Y014219D01*
X027286Y014219D01*
X027667Y014144D01*
X027667Y014144D01*
X028049Y014219D01*
X028372Y014435D01*
X028372Y014435D01*
X028372Y014435D01*
X028588Y014759D01*
X028664Y015140D01*
X028588Y015521D01*
X028588Y015521D01*
X028372Y015845D01*
X028049Y016061D01*
X028049Y016061D01*
X027667Y016136D01*
X027286Y016061D01*
X026963Y015845D01*
X026963Y015845D01*
X026747Y015521D01*
X026671Y015140D01*
X026747Y014759D01*
X026747Y014759D01*
X026963Y014435D01*
X026963Y014435D01*
X026963Y014435D01*
X027111Y014336D02*
X026265Y014336D01*
X026265Y014278D02*
X027199Y014278D01*
X027286Y014219D02*
X026265Y014219D01*
X026265Y014161D02*
X027580Y014161D01*
X027755Y014161D02*
X028699Y014161D01*
X028702Y014219D02*
X028049Y014219D01*
X028049Y014219D01*
X028136Y014278D02*
X028705Y014278D01*
X028708Y014336D02*
X028224Y014336D01*
X028312Y014395D02*
X028711Y014395D01*
X028714Y014453D02*
X028384Y014453D01*
X028423Y014512D02*
X028717Y014512D01*
X028720Y014570D02*
X028462Y014570D01*
X028501Y014629D02*
X028723Y014629D01*
X028726Y014687D02*
X028540Y014687D01*
X028580Y014746D02*
X028729Y014746D01*
X028732Y014804D02*
X028597Y014804D01*
X028588Y014759D02*
X028588Y014759D01*
X028609Y014863D02*
X028735Y014863D01*
X028738Y014921D02*
X028620Y014921D01*
X028632Y014980D02*
X028741Y014980D01*
X028745Y015038D02*
X028644Y015038D01*
X028655Y015097D02*
X028748Y015097D01*
X028749Y015155D02*
X028661Y015155D01*
X028649Y015214D02*
X028746Y015214D01*
X028743Y015272D02*
X028638Y015272D01*
X028626Y015331D02*
X028740Y015331D01*
X028737Y015389D02*
X028614Y015389D01*
X028603Y015448D02*
X028734Y015448D01*
X028731Y015506D02*
X028591Y015506D01*
X028559Y015565D02*
X028728Y015565D01*
X028725Y015623D02*
X028520Y015623D01*
X028481Y015682D02*
X028721Y015682D01*
X028718Y015740D02*
X028442Y015740D01*
X028403Y015799D02*
X028715Y015799D01*
X028712Y015857D02*
X028353Y015857D01*
X028372Y015845D02*
X028372Y015845D01*
X028372Y015845D01*
X028265Y015916D02*
X028709Y015916D01*
X028706Y015974D02*
X028178Y015974D01*
X028090Y016033D02*
X028703Y016033D01*
X028700Y016091D02*
X027894Y016091D01*
X027667Y016136D02*
X027667Y016136D01*
X027441Y016091D02*
X019303Y016091D01*
X019458Y016061D02*
X019077Y016136D01*
X018696Y016061D01*
X018372Y015845D01*
X018156Y015521D01*
X018081Y015140D01*
X018156Y014759D01*
X018156Y014759D01*
X018372Y014435D01*
X018372Y014435D01*
X018372Y014435D01*
X018696Y014219D01*
X019077Y014144D01*
X019458Y014219D01*
X019458Y014219D01*
X019782Y014435D01*
X019782Y014435D01*
X019782Y014435D01*
X019998Y014759D01*
X020073Y015140D01*
X019998Y015521D01*
X019998Y015521D01*
X019782Y015845D01*
X019782Y015845D01*
X019782Y015845D01*
X019458Y016061D01*
X019458Y016061D01*
X019500Y016033D02*
X027245Y016033D01*
X027286Y016061D02*
X027286Y016061D01*
X027157Y015974D02*
X019587Y015974D01*
X019675Y015916D02*
X027070Y015916D01*
X026982Y015857D02*
X019762Y015857D01*
X019812Y015799D02*
X026932Y015799D01*
X026893Y015740D02*
X019851Y015740D01*
X019890Y015682D02*
X026854Y015682D01*
X026815Y015623D02*
X019929Y015623D01*
X019968Y015565D02*
X026776Y015565D01*
X026744Y015506D02*
X020001Y015506D01*
X020012Y015448D02*
X026732Y015448D01*
X026721Y015389D02*
X020024Y015389D01*
X020035Y015331D02*
X026709Y015331D01*
X026697Y015272D02*
X020047Y015272D01*
X020059Y015214D02*
X026686Y015214D01*
X026674Y015155D02*
X020070Y015155D01*
X020065Y015097D02*
X026680Y015097D01*
X026671Y015140D02*
X026671Y015140D01*
X026691Y015038D02*
X020053Y015038D01*
X020042Y014980D02*
X026703Y014980D01*
X026714Y014921D02*
X020030Y014921D01*
X020018Y014863D02*
X026726Y014863D01*
X026738Y014804D02*
X020007Y014804D01*
X019998Y014759D02*
X019998Y014759D01*
X019989Y014746D02*
X026755Y014746D01*
X026794Y014687D02*
X026207Y014687D01*
X026177Y014717D02*
X024911Y014717D01*
X024890Y014739D01*
X020569Y014739D01*
X020470Y014640D01*
X020470Y013429D01*
X020569Y013330D01*
X021035Y013330D01*
X021034Y013328D01*
X021016Y013325D01*
X020985Y013280D01*
X020927Y013222D01*
X020752Y013067D01*
X020363Y012806D01*
X019934Y012617D01*
X019479Y012506D01*
X019246Y012480D01*
X019021Y012466D01*
X018599Y012311D01*
X018238Y012042D01*
X017969Y011681D01*
X017814Y011259D01*
X017804Y011104D01*
X017800Y011034D01*
X017774Y010801D01*
X017663Y010346D01*
X017474Y009917D01*
X017213Y009528D01*
X017058Y009353D01*
X017002Y009297D01*
X016958Y009269D01*
X016954Y009248D01*
X016939Y009234D01*
X016939Y009182D01*
X016915Y009077D01*
X016914Y009076D01*
X016900Y009008D01*
X016885Y008941D01*
X016886Y008940D01*
X016874Y008883D01*
X016873Y008882D01*
X016860Y008815D01*
X016846Y008747D01*
X016847Y008746D01*
X016837Y008690D01*
X016836Y008689D01*
X016824Y008621D01*
X016812Y008554D01*
X016813Y008552D01*
X016804Y008497D01*
X016802Y008496D01*
X016792Y008428D01*
X014819Y008428D01*
X014819Y008486D02*
X016801Y008486D01*
X016792Y008428D02*
X016781Y008360D01*
X016782Y008358D01*
X016774Y008303D01*
X016772Y008302D01*
X016763Y008234D01*
X016753Y008166D01*
X016755Y008164D01*
X016747Y008110D01*
X016746Y008108D01*
X016739Y008040D01*
X016730Y007972D01*
X016731Y007971D01*
X016725Y007916D01*
X016724Y007915D01*
X016717Y007846D01*
X016710Y007778D01*
X016711Y007777D01*
X016706Y007722D01*
X016705Y007721D01*
X016700Y007653D01*
X016694Y007584D01*
X016695Y007583D01*
X016691Y007529D01*
X016690Y007528D01*
X016686Y007459D01*
X016681Y007390D01*
X016682Y007389D01*
X016679Y007335D01*
X016678Y007334D01*
X016676Y007265D01*
X016672Y007197D01*
X016673Y007195D01*
X016672Y007141D01*
X016670Y007140D01*
X016669Y007071D01*
X016667Y007003D01*
X016668Y007001D01*
X016668Y006948D01*
X016666Y006946D01*
X016667Y006878D01*
X016666Y006809D01*
X016667Y006808D01*
X016667Y006754D01*
X016666Y006753D01*
X016667Y006684D01*
X016668Y006615D01*
X016669Y006614D01*
X016670Y006560D01*
X016669Y006559D01*
X016672Y006490D01*
X016674Y006422D01*
X016675Y006420D01*
X016677Y006366D01*
X016676Y006365D01*
X016680Y006296D01*
X016683Y006228D01*
X016685Y006227D01*
X016688Y006173D01*
X016687Y006173D01*
X016692Y006103D01*
X016697Y006034D01*
X016697Y006033D01*
X016709Y005865D01*
X016885Y005422D01*
X017185Y005052D01*
X017185Y005052D01*
X017583Y004790D01*
X018042Y004659D01*
X018518Y004673D01*
X018743Y004751D01*
X018810Y004774D01*
X019328Y004953D01*
X020444Y005487D01*
X021493Y006143D01*
X022462Y006912D01*
X022381Y006848D02*
X023202Y006848D01*
X023162Y006790D02*
X022308Y006790D01*
X022234Y006731D02*
X023123Y006731D01*
X023084Y006673D02*
X022160Y006673D01*
X022087Y006614D02*
X023068Y006614D01*
X023056Y006556D02*
X022013Y006556D01*
X021939Y006497D02*
X023045Y006497D01*
X023033Y006439D02*
X021866Y006439D01*
X021792Y006380D02*
X023021Y006380D01*
X023010Y006322D02*
X021718Y006322D01*
X021644Y006263D02*
X023005Y006263D01*
X023017Y006205D02*
X021571Y006205D01*
X021497Y006146D02*
X023029Y006146D01*
X023040Y006088D02*
X021405Y006088D01*
X021493Y006143D02*
X021493Y006143D01*
X021311Y006029D02*
X023052Y006029D01*
X023064Y005971D02*
X021217Y005971D01*
X021124Y005912D02*
X023075Y005912D01*
X023109Y005854D02*
X022429Y005854D01*
X022325Y005875D02*
X022325Y005875D01*
X022222Y005854D02*
X021030Y005854D01*
X020937Y005795D02*
X021939Y005795D01*
X021944Y005799D02*
X021944Y005799D01*
X021852Y005737D02*
X020843Y005737D01*
X020750Y005678D02*
X021764Y005678D01*
X021677Y005620D02*
X020656Y005620D01*
X020562Y005561D02*
X021607Y005561D01*
X021621Y005583D02*
X021621Y005583D01*
X021568Y005503D02*
X020469Y005503D01*
X020444Y005487D02*
X020444Y005487D01*
X020354Y005444D02*
X021528Y005444D01*
X021489Y005386D02*
X020232Y005386D01*
X020110Y005327D02*
X021450Y005327D01*
X021411Y005269D02*
X019987Y005269D01*
X019865Y005210D02*
X021395Y005210D01*
X021405Y005259D02*
X021405Y005259D01*
X021383Y005152D02*
X019743Y005152D01*
X019620Y005093D02*
X021372Y005093D01*
X021360Y005035D02*
X019498Y005035D01*
X019376Y004976D02*
X021349Y004976D01*
X021337Y004918D02*
X019225Y004918D01*
X019328Y004953D02*
X019328Y004953D01*
X019057Y004859D02*
X021333Y004859D01*
X021329Y004878D02*
X021329Y004878D01*
X021344Y004801D02*
X018888Y004801D01*
X018810Y004774D02*
X018810Y004774D01*
X018719Y004742D02*
X021356Y004742D01*
X021368Y004684D02*
X018551Y004684D01*
X018518Y004673D02*
X018518Y004673D01*
X017954Y004684D02*
X014739Y004684D01*
X014739Y004742D02*
X017749Y004742D01*
X017566Y004801D02*
X014739Y004801D01*
X014739Y004859D02*
X017477Y004859D01*
X017388Y004918D02*
X014739Y004918D01*
X014739Y004976D02*
X017300Y004976D01*
X017211Y005035D02*
X014775Y005035D01*
X014739Y004999D02*
X014819Y005079D01*
X014819Y009790D01*
X014720Y009889D01*
X013389Y009889D01*
X013290Y009790D01*
X013290Y009288D01*
X013280Y009295D01*
X013222Y009353D01*
X013067Y009528D01*
X012806Y009917D01*
X012617Y010346D01*
X012506Y010801D01*
X012480Y011034D01*
X012476Y011104D01*
X012476Y011104D01*
X012466Y011259D01*
X012311Y011681D01*
X012042Y012042D01*
X011681Y012311D01*
X011259Y012466D01*
X011259Y012466D01*
X011104Y012476D01*
X011034Y012480D01*
X010801Y012506D01*
X010346Y012617D01*
X009917Y012806D01*
X009528Y013067D01*
X009353Y013222D01*
X009297Y013278D01*
X009269Y013322D01*
X009248Y013326D01*
X009234Y013341D01*
X009182Y013341D01*
X009077Y013365D01*
X009076Y013366D01*
X009008Y013380D01*
X008941Y013395D01*
X008940Y013394D01*
X008883Y013406D01*
X008882Y013407D01*
X008815Y013420D01*
X008747Y013434D01*
X008746Y013433D01*
X008690Y013443D01*
X008689Y013444D01*
X008621Y013456D01*
X008554Y013468D01*
X008552Y013467D01*
X008497Y013476D01*
X008496Y013478D01*
X008428Y013488D01*
X008360Y013499D01*
X008358Y013498D01*
X008303Y013506D01*
X008302Y013508D01*
X008234Y013517D01*
X008166Y013527D01*
X008164Y013525D01*
X008110Y013533D01*
X008108Y013534D01*
X008040Y013541D01*
X007972Y013550D01*
X007971Y013549D01*
X007916Y013555D01*
X007915Y013556D01*
X007846Y013563D01*
X007778Y013570D01*
X007777Y013569D01*
X007722Y013574D01*
X007721Y013575D01*
X007653Y013580D01*
X007584Y013586D01*
X007583Y013585D01*
X007529Y013589D01*
X007528Y013590D01*
X007459Y013594D01*
X007390Y013599D01*
X007389Y013598D01*
X007335Y013601D01*
X007334Y013602D01*
X007265Y013604D01*
X007197Y013608D01*
X007195Y013607D01*
X007141Y013608D01*
X007140Y013610D01*
X007071Y013611D01*
X007003Y013613D01*
X007001Y013612D01*
X006948Y013612D01*
X006946Y013614D01*
X006878Y013613D01*
X006809Y013614D01*
X006808Y013613D01*
X006754Y013613D01*
X006753Y013614D01*
X006684Y013613D01*
X006615Y013612D01*
X006614Y013611D01*
X006560Y013610D01*
X006559Y013611D01*
X006490Y013608D01*
X006422Y013606D01*
X006420Y013605D01*
X006366Y013603D01*
X006365Y013604D01*
X006296Y013600D01*
X006228Y013597D01*
X006227Y013595D01*
X006173Y013592D01*
X006173Y013593D01*
X006103Y013588D01*
X006034Y013583D01*
X006034Y013583D01*
X005865Y013571D01*
X005422Y013395D01*
X005052Y013095D01*
X005052Y013095D01*
X004790Y012697D01*
X004659Y012238D01*
X004673Y011762D01*
X004751Y011537D01*
X004774Y011470D01*
X002053Y011470D01*
X002037Y011528D02*
X004754Y011528D01*
X004774Y011470D02*
X004774Y011470D01*
X004953Y010952D01*
X005487Y009836D01*
X006143Y008787D01*
X006912Y007818D01*
X007785Y006942D01*
X007785Y006942D01*
X007785Y006942D01*
X008751Y006169D01*
X009798Y005509D01*
X010911Y004970D01*
X010911Y004970D01*
X011495Y004765D01*
X011561Y004742D01*
X011722Y004685D01*
X012203Y004671D01*
X012665Y004804D01*
X012665Y004804D01*
X013066Y005070D01*
X013290Y005350D01*
X013290Y005240D01*
X013270Y005220D01*
X013270Y005079D01*
X013369Y004980D01*
X013439Y004980D01*
X013439Y004127D01*
X013527Y004039D01*
X014652Y004039D01*
X014739Y004127D01*
X014739Y004999D01*
X014819Y005093D02*
X017151Y005093D01*
X017104Y005152D02*
X014819Y005152D01*
X014819Y005210D02*
X017056Y005210D01*
X017009Y005269D02*
X014819Y005269D01*
X014819Y005327D02*
X016961Y005327D01*
X016914Y005386D02*
X014819Y005386D01*
X014819Y005444D02*
X016876Y005444D01*
X016885Y005422D02*
X016885Y005422D01*
X016853Y005503D02*
X014819Y005503D01*
X014819Y005561D02*
X016829Y005561D01*
X016806Y005620D02*
X014819Y005620D01*
X014819Y005678D02*
X016783Y005678D01*
X016760Y005737D02*
X014819Y005737D01*
X014819Y005795D02*
X016737Y005795D01*
X016714Y005854D02*
X014819Y005854D01*
X014819Y005912D02*
X016706Y005912D01*
X016709Y005865D02*
X016709Y005865D01*
X016702Y005971D02*
X014819Y005971D01*
X014819Y006029D02*
X016698Y006029D01*
X016693Y006088D02*
X014819Y006088D01*
X014819Y006146D02*
X016689Y006146D01*
X016686Y006205D02*
X014819Y006205D01*
X014819Y006263D02*
X016682Y006263D01*
X016679Y006322D02*
X014819Y006322D01*
X014819Y006380D02*
X016677Y006380D01*
X016673Y006439D02*
X014819Y006439D01*
X014819Y006497D02*
X016672Y006497D01*
X016669Y006556D02*
X014819Y006556D01*
X014819Y006614D02*
X016669Y006614D01*
X016667Y006673D02*
X014819Y006673D01*
X014819Y006731D02*
X016666Y006731D01*
X016667Y006790D02*
X014819Y006790D01*
X014819Y006848D02*
X016666Y006848D01*
X016666Y006907D02*
X014819Y006907D01*
X014819Y006965D02*
X016668Y006965D01*
X016668Y007024D02*
X014819Y007024D01*
X014819Y007082D02*
X016669Y007082D01*
X016671Y007141D02*
X014819Y007141D01*
X014819Y007199D02*
X016672Y007199D01*
X016675Y007258D02*
X014819Y007258D01*
X014819Y007316D02*
X016677Y007316D01*
X016682Y007375D02*
X014819Y007375D01*
X014819Y007433D02*
X016684Y007433D01*
X016688Y007492D02*
X014819Y007492D01*
X014819Y007550D02*
X016692Y007550D01*
X016696Y007609D02*
X014819Y007609D01*
X014819Y007667D02*
X016701Y007667D01*
X016706Y007726D02*
X014819Y007726D01*
X014819Y007784D02*
X016711Y007784D01*
X016717Y007843D02*
X014819Y007843D01*
X014819Y007901D02*
X016722Y007901D01*
X016730Y007960D02*
X014819Y007960D01*
X014819Y008018D02*
X016736Y008018D01*
X016743Y008077D02*
X014819Y008077D01*
X014819Y008135D02*
X016751Y008135D01*
X016758Y008194D02*
X014819Y008194D01*
X014819Y008252D02*
X016766Y008252D01*
X016775Y008311D02*
X014819Y008311D01*
X014819Y008369D02*
X016782Y008369D01*
X016812Y008545D02*
X014819Y008545D01*
X014819Y008603D02*
X016821Y008603D01*
X016831Y008662D02*
X014819Y008662D01*
X014819Y008720D02*
X016843Y008720D01*
X016853Y008779D02*
X014819Y008779D01*
X014819Y008837D02*
X016864Y008837D01*
X016877Y008896D02*
X014819Y008896D01*
X014819Y008954D02*
X016888Y008954D01*
X016901Y009013D02*
X014819Y009013D01*
X014819Y009071D02*
X016913Y009071D01*
X016927Y009130D02*
X014819Y009130D01*
X014819Y009188D02*
X016939Y009188D01*
X016952Y009247D02*
X014819Y009247D01*
X014819Y009305D02*
X017011Y009305D01*
X017068Y009364D02*
X014819Y009364D01*
X014819Y009422D02*
X017119Y009422D01*
X017171Y009481D02*
X014819Y009481D01*
X014819Y009539D02*
X017220Y009539D01*
X017260Y009598D02*
X014819Y009598D01*
X014819Y009656D02*
X017299Y009656D01*
X017338Y009715D02*
X014819Y009715D01*
X014819Y009773D02*
X017378Y009773D01*
X017417Y009832D02*
X014777Y009832D01*
X014965Y010241D02*
X012663Y010241D01*
X012689Y010183D02*
X017591Y010183D01*
X017566Y010124D02*
X012714Y010124D01*
X012740Y010066D02*
X017540Y010066D01*
X017514Y010007D02*
X012766Y010007D01*
X012792Y009949D02*
X017488Y009949D01*
X017456Y009890D02*
X012824Y009890D01*
X012863Y009832D02*
X013332Y009832D01*
X013290Y009773D02*
X012902Y009773D01*
X012942Y009715D02*
X013290Y009715D01*
X013290Y009656D02*
X012981Y009656D01*
X013020Y009598D02*
X013290Y009598D01*
X013290Y009539D02*
X013060Y009539D01*
X013109Y009481D02*
X013290Y009481D01*
X013290Y009422D02*
X013161Y009422D01*
X013212Y009364D02*
X013290Y009364D01*
X013290Y009305D02*
X013269Y009305D01*
X012637Y010300D02*
X014732Y010300D01*
X014759Y010282D02*
X015140Y010207D01*
X015521Y010282D01*
X015845Y010498D01*
X015845Y010498D01*
X016061Y010822D01*
X016136Y011203D01*
X016136Y011203D01*
X016061Y011584D01*
X016061Y011584D01*
X015845Y011908D01*
X015845Y011908D01*
X015845Y011908D01*
X015521Y012124D01*
X015140Y012199D01*
X014759Y012124D01*
X014759Y012124D01*
X014435Y011908D01*
X014219Y011584D01*
X014144Y011203D01*
X014219Y010822D01*
X014219Y010822D01*
X014435Y010498D01*
X014435Y010498D01*
X014435Y010498D01*
X014759Y010282D01*
X014759Y010282D01*
X014645Y010358D02*
X012614Y010358D01*
X012599Y010417D02*
X014557Y010417D01*
X014470Y010475D02*
X012585Y010475D01*
X012571Y010534D02*
X014412Y010534D01*
X014373Y010592D02*
X012556Y010592D01*
X012542Y010651D02*
X014333Y010651D01*
X014294Y010709D02*
X012528Y010709D01*
X012514Y010768D02*
X014255Y010768D01*
X014218Y010826D02*
X012503Y010826D01*
X012496Y010885D02*
X014207Y010885D01*
X014195Y010943D02*
X012490Y010943D01*
X012484Y011002D02*
X014184Y011002D01*
X014172Y011060D02*
X012479Y011060D01*
X012475Y011119D02*
X014160Y011119D01*
X014149Y011177D02*
X012471Y011177D01*
X012468Y011236D02*
X014150Y011236D01*
X014144Y011203D02*
X014144Y011203D01*
X014162Y011294D02*
X012453Y011294D01*
X012466Y011259D02*
X012466Y011259D01*
X012431Y011353D02*
X014173Y011353D01*
X014185Y011411D02*
X012410Y011411D01*
X012388Y011470D02*
X014197Y011470D01*
X014208Y011528D02*
X012367Y011528D01*
X012345Y011587D02*
X014221Y011587D01*
X014219Y011584D02*
X014219Y011584D01*
X014260Y011645D02*
X012324Y011645D01*
X012311Y011681D02*
X012311Y011681D01*
X012294Y011704D02*
X014299Y011704D01*
X014338Y011762D02*
X012250Y011762D01*
X012206Y011821D02*
X014377Y011821D01*
X014417Y011879D02*
X012163Y011879D01*
X012119Y011938D02*
X014481Y011938D01*
X014435Y011908D02*
X014435Y011908D01*
X014435Y011908D01*
X014568Y011996D02*
X012076Y011996D01*
X012042Y012042D02*
X012042Y012042D01*
X012042Y012042D01*
X012024Y012055D02*
X014656Y012055D01*
X014743Y012113D02*
X011946Y012113D01*
X011867Y012172D02*
X015002Y012172D01*
X015140Y012199D02*
X015140Y012199D01*
X015278Y012172D02*
X018413Y012172D01*
X018491Y012230D02*
X011789Y012230D01*
X011710Y012289D02*
X018570Y012289D01*
X018599Y012311D02*
X018599Y012311D01*
X018698Y012347D02*
X011582Y012347D01*
X011681Y012311D02*
X011681Y012311D01*
X011422Y012406D02*
X018858Y012406D01*
X019017Y012464D02*
X011263Y012464D01*
X011104Y012476D02*
X011104Y012476D01*
X010730Y012523D02*
X019550Y012523D01*
X019790Y012581D02*
X010490Y012581D01*
X010293Y012640D02*
X019987Y012640D01*
X020120Y012698D02*
X010160Y012698D01*
X010028Y012757D02*
X020252Y012757D01*
X020377Y012815D02*
X009903Y012815D01*
X009816Y012874D02*
X020464Y012874D01*
X020551Y012932D02*
X009729Y012932D01*
X009642Y012991D02*
X020638Y012991D01*
X020726Y013049D02*
X009554Y013049D01*
X009482Y013108D02*
X020798Y013108D01*
X020864Y013166D02*
X009416Y013166D01*
X009350Y013225D02*
X014753Y013225D01*
X014883Y013190D02*
X014387Y013323D01*
X013943Y013580D01*
X013580Y013943D01*
X013323Y014387D01*
X013190Y014883D01*
X013190Y015397D01*
X013323Y015893D01*
X013580Y016337D01*
X013943Y016700D01*
X014387Y016957D01*
X014883Y017090D01*
X015397Y017090D01*
X015893Y016957D01*
X016337Y016700D01*
X016700Y016337D01*
X016957Y015893D01*
X017090Y015397D01*
X017090Y014883D01*
X016957Y014387D01*
X016700Y013943D01*
X016337Y013580D01*
X015893Y013323D01*
X015397Y013190D01*
X014883Y013190D01*
X014535Y013283D02*
X009293Y013283D01*
X009179Y013342D02*
X014354Y013342D01*
X014253Y013400D02*
X008909Y013400D01*
X008604Y013459D02*
X014152Y013459D01*
X014050Y013517D02*
X008228Y013517D01*
X007713Y013576D02*
X013949Y013576D01*
X013888Y013634D02*
X003531Y013634D01*
X003507Y013669D02*
X003507Y013669D01*
X003184Y013885D01*
X002803Y013961D01*
X002803Y013961D01*
X002422Y013885D01*
X002422Y013885D01*
X002098Y013669D01*
X001882Y013346D01*
X001882Y013346D01*
X001806Y012965D01*
X001882Y012583D01*
X002098Y012260D01*
X002098Y012260D01*
X002098Y012260D01*
X002422Y012044D01*
X002803Y011968D01*
X003184Y012044D01*
X003184Y012044D01*
X003507Y012260D01*
X003507Y012260D01*
X003723Y012583D01*
X003723Y012583D01*
X003799Y012965D01*
X003723Y013346D01*
X003507Y013669D01*
X003507Y013669D01*
X003472Y013693D02*
X013829Y013693D01*
X013771Y013751D02*
X003384Y013751D01*
X003297Y013810D02*
X013712Y013810D01*
X013654Y013868D02*
X003209Y013868D01*
X003184Y013885D02*
X003184Y013885D01*
X002975Y013927D02*
X013595Y013927D01*
X013555Y013985D02*
X001591Y013985D01*
X001594Y013927D02*
X002631Y013927D01*
X002613Y014144D02*
X002231Y014219D01*
X002231Y014219D01*
X001908Y014435D01*
X001908Y014435D01*
X001908Y014435D01*
X001692Y014759D01*
X001692Y014759D01*
X001616Y015140D01*
X001616Y015140D01*
X001692Y015521D01*
X001692Y015521D01*
X001908Y015845D01*
X001908Y015845D01*
X001908Y015845D01*
X002231Y016061D01*
X002231Y016061D01*
X002613Y016136D01*
X002613Y016136D01*
X002994Y016061D01*
X002994Y016061D01*
X003317Y015845D01*
X003317Y015845D01*
X003317Y015845D01*
X003533Y015521D01*
X003609Y015140D01*
X003609Y015140D01*
X003533Y014759D01*
X003317Y014435D01*
X003317Y014435D01*
X002994Y014219D01*
X002994Y014219D01*
X002613Y014144D01*
X002613Y014144D01*
X002700Y014161D02*
X011116Y014161D01*
X011203Y014144D02*
X011203Y014144D01*
X011584Y014219D01*
X011584Y014219D01*
X011908Y014435D01*
X012124Y014759D01*
X012199Y015140D01*
X012124Y015521D01*
X012124Y015521D01*
X011908Y015845D01*
X011908Y015845D01*
X011908Y015845D01*
X011584Y016061D01*
X011203Y016136D01*
X010822Y016061D01*
X010822Y016061D01*
X010498Y015845D01*
X010498Y015845D01*
X010498Y015845D01*
X010282Y015521D01*
X010207Y015140D01*
X010282Y014759D01*
X010282Y014759D01*
X010498Y014435D01*
X010498Y014435D01*
X010498Y014435D01*
X010822Y014219D01*
X011203Y014144D01*
X011290Y014161D02*
X013454Y014161D01*
X013487Y014102D02*
X001585Y014102D01*
X001588Y014044D02*
X013521Y014044D01*
X013420Y014219D02*
X011584Y014219D01*
X011672Y014278D02*
X013386Y014278D01*
X013352Y014336D02*
X011759Y014336D01*
X011847Y014395D02*
X013321Y014395D01*
X013305Y014453D02*
X011920Y014453D01*
X011908Y014435D02*
X011908Y014435D01*
X011908Y014435D01*
X011959Y014512D02*
X013290Y014512D01*
X013274Y014570D02*
X011998Y014570D01*
X012037Y014629D02*
X013258Y014629D01*
X013242Y014687D02*
X012076Y014687D01*
X012115Y014746D02*
X013227Y014746D01*
X013211Y014804D02*
X012133Y014804D01*
X012124Y014759D02*
X012124Y014759D01*
X012144Y014863D02*
X013195Y014863D01*
X013190Y014921D02*
X012156Y014921D01*
X012168Y014980D02*
X013190Y014980D01*
X013190Y015038D02*
X012179Y015038D01*
X012191Y015097D02*
X013190Y015097D01*
X013190Y015155D02*
X012196Y015155D01*
X012185Y015214D02*
X013190Y015214D01*
X013190Y015272D02*
X012173Y015272D01*
X012161Y015331D02*
X013190Y015331D01*
X013190Y015389D02*
X012150Y015389D01*
X012138Y015448D02*
X013204Y015448D01*
X013219Y015506D02*
X012127Y015506D01*
X012094Y015565D02*
X013235Y015565D01*
X013251Y015623D02*
X012055Y015623D01*
X012016Y015682D02*
X013266Y015682D01*
X013282Y015740D02*
X011977Y015740D01*
X011938Y015799D02*
X013298Y015799D01*
X013313Y015857D02*
X011888Y015857D01*
X011801Y015916D02*
X013336Y015916D01*
X013370Y015974D02*
X011713Y015974D01*
X011626Y016033D02*
X013404Y016033D01*
X013438Y016091D02*
X011429Y016091D01*
X011584Y016061D02*
X011584Y016061D01*
X011203Y016136D02*
X011203Y016136D01*
X010977Y016091D02*
X009759Y016091D01*
X009759Y016033D02*
X010780Y016033D01*
X010693Y015974D02*
X009759Y015974D01*
X009759Y015916D02*
X010605Y015916D01*
X010518Y015857D02*
X009759Y015857D01*
X009759Y015799D02*
X010468Y015799D01*
X010429Y015740D02*
X009759Y015740D01*
X009759Y015682D02*
X010390Y015682D01*
X010351Y015623D02*
X009759Y015623D01*
X009759Y015565D02*
X010312Y015565D01*
X010282Y015521D02*
X010282Y015521D01*
X010279Y015506D02*
X009736Y015506D01*
X009759Y015529D02*
X009759Y016830D01*
X009660Y016929D01*
X009128Y016929D01*
X009179Y016939D01*
X009234Y016939D01*
X009246Y016952D01*
X009264Y016955D01*
X009295Y017000D01*
X009353Y017058D01*
X009528Y017213D01*
X009917Y017474D01*
X010346Y017663D01*
X010801Y017774D01*
X011034Y017800D01*
X011104Y017804D01*
X011259Y017814D01*
X011681Y017969D01*
X012042Y018238D01*
X012042Y018238D01*
X012042Y018238D01*
X012311Y018599D01*
X012466Y019021D01*
X012466Y019021D01*
X012476Y019176D01*
X012480Y019246D01*
X012506Y019479D01*
X012617Y019934D01*
X012806Y020363D01*
X013067Y020752D01*
X013222Y020927D01*
X013278Y020983D01*
X013322Y021011D01*
X013326Y021032D01*
X013341Y021046D01*
X013341Y021098D01*
X013365Y021203D01*
X013366Y021204D01*
X013380Y021272D01*
X013395Y021339D01*
X013394Y021340D01*
X013406Y021397D01*
X013407Y021398D01*
X013420Y021465D01*
X013434Y021533D01*
X013433Y021534D01*
X013443Y021590D01*
X013444Y021591D01*
X013456Y021659D01*
X013468Y021726D01*
X013467Y021728D01*
X013476Y021783D01*
X013478Y021784D01*
X013488Y021852D01*
X013499Y021920D01*
X013498Y021922D01*
X013506Y021977D01*
X013508Y021978D01*
X013517Y022046D01*
X013527Y022114D01*
X013525Y022116D01*
X013533Y022170D01*
X013534Y022172D01*
X013541Y022240D01*
X013550Y022308D01*
X013549Y022309D01*
X013555Y022364D01*
X013556Y022365D01*
X013563Y022434D01*
X013570Y022502D01*
X013569Y022503D01*
X013574Y022558D01*
X013575Y022559D01*
X013580Y022627D01*
X013586Y022696D01*
X013585Y022697D01*
X013589Y022751D01*
X013590Y022752D01*
X013594Y022821D01*
X013599Y022890D01*
X013598Y022891D01*
X013601Y022945D01*
X013602Y022946D01*
X013604Y023015D01*
X013608Y023083D01*
X013607Y023085D01*
X013608Y023139D01*
X013610Y023140D01*
X013611Y023209D01*
X013613Y023277D01*
X013612Y023279D01*
X013612Y023332D01*
X013614Y023334D01*
X013613Y023402D01*
X013614Y023471D01*
X013613Y023472D01*
X013613Y023526D01*
X013614Y023527D01*
X013613Y023596D01*
X013612Y023665D01*
X013611Y023666D01*
X013610Y023720D01*
X013611Y023721D01*
X013608Y023790D01*
X013606Y023858D01*
X013605Y023860D01*
X013603Y023914D01*
X013604Y023915D01*
X013600Y023984D01*
X013597Y024052D01*
X013595Y024053D01*
X013592Y024107D01*
X013593Y024107D01*
X013588Y024177D01*
X013583Y024246D01*
X013583Y024246D01*
X013571Y024415D01*
X013395Y024858D01*
X013395Y024858D01*
X013095Y025228D01*
X013095Y025228D01*
X013095Y025228D01*
X012697Y025490D01*
X012238Y025621D01*
X011762Y025607D01*
X011537Y025529D01*
X011470Y025506D01*
X010952Y025327D01*
X009836Y024793D01*
X008787Y024137D01*
X007818Y023368D01*
X006942Y022495D01*
X006942Y022495D01*
X006942Y022495D01*
X006169Y021529D01*
X005509Y020482D01*
X004970Y019369D01*
X004970Y019369D01*
X004765Y018785D01*
X004742Y018719D01*
X004685Y018558D01*
X004671Y018077D01*
X004804Y017615D01*
X004804Y017615D01*
X005070Y017214D01*
X005427Y016929D01*
X005180Y016929D01*
X005170Y016939D01*
X005029Y016939D01*
X004931Y016840D01*
X004091Y016840D01*
X004003Y016753D01*
X004003Y015628D01*
X004091Y015540D01*
X004930Y015540D01*
X004930Y015529D01*
X005029Y015430D01*
X009660Y015430D01*
X009759Y015529D01*
X009678Y015448D02*
X010268Y015448D01*
X010256Y015389D02*
X003559Y015389D01*
X003571Y015331D02*
X010245Y015331D01*
X010233Y015272D02*
X003583Y015272D01*
X003594Y015214D02*
X010221Y015214D01*
X010210Y015155D02*
X003606Y015155D01*
X003600Y015097D02*
X010215Y015097D01*
X010207Y015140D02*
X010207Y015140D01*
X010227Y015038D02*
X003589Y015038D01*
X003577Y014980D02*
X010238Y014980D01*
X010250Y014921D02*
X003565Y014921D01*
X003554Y014863D02*
X010262Y014863D01*
X010273Y014804D02*
X003542Y014804D01*
X003525Y014746D02*
X010291Y014746D01*
X010330Y014687D02*
X003486Y014687D01*
X003446Y014629D02*
X010369Y014629D01*
X010408Y014570D02*
X003407Y014570D01*
X003368Y014512D02*
X010447Y014512D01*
X010486Y014453D02*
X003329Y014453D01*
X003257Y014395D02*
X010559Y014395D01*
X010647Y014336D02*
X003169Y014336D01*
X003081Y014278D02*
X010734Y014278D01*
X010822Y014219D02*
X002994Y014219D01*
X002525Y014161D02*
X001581Y014161D01*
X001578Y014219D02*
X002231Y014219D01*
X002144Y014278D02*
X001575Y014278D01*
X001572Y014336D02*
X002056Y014336D01*
X001968Y014395D02*
X001569Y014395D01*
X001566Y014453D02*
X001896Y014453D01*
X001857Y014512D02*
X001563Y014512D01*
X001560Y014570D02*
X001818Y014570D01*
X001779Y014629D02*
X001557Y014629D01*
X001554Y014687D02*
X001740Y014687D01*
X001700Y014746D02*
X001551Y014746D01*
X001548Y014804D02*
X001683Y014804D01*
X001671Y014863D02*
X001545Y014863D01*
X001542Y014921D02*
X001660Y014921D01*
X001648Y014980D02*
X001539Y014980D01*
X001535Y015038D02*
X001636Y015038D01*
X001625Y015097D02*
X001532Y015097D01*
X001531Y015155D02*
X001619Y015155D01*
X001631Y015214D02*
X001534Y015214D01*
X001537Y015272D02*
X001642Y015272D01*
X001654Y015331D02*
X001540Y015331D01*
X001543Y015389D02*
X001666Y015389D01*
X001677Y015448D02*
X001546Y015448D01*
X001549Y015506D02*
X001689Y015506D01*
X001721Y015565D02*
X001552Y015565D01*
X001555Y015623D02*
X001760Y015623D01*
X001799Y015682D02*
X001559Y015682D01*
X001562Y015740D02*
X001838Y015740D01*
X001877Y015799D02*
X001565Y015799D01*
X001568Y015857D02*
X001927Y015857D01*
X002015Y015916D02*
X001571Y015916D01*
X001574Y015974D02*
X002102Y015974D01*
X002190Y016033D02*
X001577Y016033D01*
X001580Y016091D02*
X002386Y016091D01*
X002422Y016395D02*
X002098Y016611D01*
X002098Y016611D01*
X001882Y016934D01*
X001882Y016934D01*
X001806Y017315D01*
X001806Y017315D01*
X001882Y017697D01*
X001882Y017697D01*
X002098Y018020D01*
X002098Y018020D01*
X002098Y018020D01*
X002422Y018236D01*
X002422Y018236D01*
X002803Y018312D01*
X002803Y018312D01*
X003184Y018236D01*
X003184Y018236D01*
X003507Y018020D01*
X003507Y018020D01*
X003507Y018020D01*
X003723Y017697D01*
X003799Y017315D01*
X003723Y016934D01*
X003723Y016934D01*
X003507Y016611D01*
X003507Y016611D01*
X003507Y016611D01*
X003184Y016395D01*
X003184Y016395D01*
X002803Y016319D01*
X002803Y016319D01*
X002422Y016395D01*
X002422Y016395D01*
X002476Y016384D02*
X001595Y016384D01*
X001598Y016442D02*
X002350Y016442D01*
X002263Y016501D02*
X001601Y016501D01*
X001605Y016559D02*
X002175Y016559D01*
X002098Y016611D02*
X002098Y016611D01*
X002093Y016618D02*
X001613Y016618D01*
X001623Y016676D02*
X002054Y016676D01*
X002015Y016735D02*
X001632Y016735D01*
X001641Y016793D02*
X001976Y016793D01*
X001937Y016852D02*
X001651Y016852D01*
X001660Y016910D02*
X001898Y016910D01*
X001875Y016969D02*
X001669Y016969D01*
X001678Y017027D02*
X001864Y017027D01*
X001852Y017086D02*
X001688Y017086D01*
X001697Y017144D02*
X001840Y017144D01*
X001829Y017203D02*
X001706Y017203D01*
X001715Y017261D02*
X001817Y017261D01*
X001807Y017320D02*
X001725Y017320D01*
X001734Y017378D02*
X001819Y017378D01*
X001831Y017437D02*
X001743Y017437D01*
X001752Y017495D02*
X001842Y017495D01*
X001854Y017554D02*
X001762Y017554D01*
X001771Y017612D02*
X001865Y017612D01*
X001877Y017671D02*
X001780Y017671D01*
X001790Y017729D02*
X001904Y017729D01*
X001943Y017788D02*
X001799Y017788D01*
X001808Y017846D02*
X001982Y017846D01*
X002021Y017905D02*
X001817Y017905D01*
X001827Y017963D02*
X002060Y017963D01*
X002101Y018022D02*
X001842Y018022D01*
X001857Y018080D02*
X002189Y018080D01*
X002276Y018139D02*
X001873Y018139D01*
X001889Y018197D02*
X002364Y018197D01*
X002522Y018256D02*
X001904Y018256D01*
X001920Y018314D02*
X004678Y018314D01*
X004677Y018256D02*
X003084Y018256D01*
X003242Y018197D02*
X004675Y018197D01*
X004673Y018139D02*
X003329Y018139D01*
X003417Y018080D02*
X004671Y018080D01*
X004671Y018077D02*
X004671Y018077D01*
X004687Y018022D02*
X003504Y018022D01*
X003545Y017963D02*
X004704Y017963D01*
X004721Y017905D02*
X003584Y017905D01*
X003623Y017846D02*
X004737Y017846D01*
X004754Y017788D02*
X003662Y017788D01*
X003702Y017729D02*
X004771Y017729D01*
X004788Y017671D02*
X003729Y017671D01*
X003723Y017697D02*
X003723Y017697D01*
X003740Y017612D02*
X004805Y017612D01*
X004844Y017554D02*
X003752Y017554D01*
X003763Y017495D02*
X004883Y017495D01*
X004922Y017437D02*
X003775Y017437D01*
X003787Y017378D02*
X004961Y017378D01*
X005000Y017320D02*
X003798Y017320D01*
X003789Y017261D02*
X005039Y017261D01*
X005070Y017214D02*
X005070Y017214D01*
X005084Y017203D02*
X003777Y017203D01*
X003765Y017144D02*
X005157Y017144D01*
X005230Y017086D02*
X003754Y017086D01*
X003742Y017027D02*
X005304Y017027D01*
X005377Y016969D02*
X003730Y016969D01*
X003708Y016910D02*
X005000Y016910D01*
X004942Y016852D02*
X003669Y016852D01*
X003629Y016793D02*
X004044Y016793D01*
X004003Y016735D02*
X003590Y016735D01*
X003551Y016676D02*
X004003Y016676D01*
X004003Y016618D02*
X003512Y016618D01*
X003431Y016559D02*
X004003Y016559D01*
X004003Y016501D02*
X003343Y016501D01*
X003256Y016442D02*
X004003Y016442D01*
X004003Y016384D02*
X003130Y016384D01*
X002836Y016325D02*
X004003Y016325D01*
X004003Y016267D02*
X001589Y016267D01*
X001592Y016325D02*
X002770Y016325D01*
X002839Y016091D02*
X004003Y016091D01*
X004003Y016033D02*
X003035Y016033D01*
X003123Y015974D02*
X004003Y015974D01*
X004003Y015916D02*
X003210Y015916D01*
X003298Y015857D02*
X004003Y015857D01*
X004003Y015799D02*
X003348Y015799D01*
X003387Y015740D02*
X004003Y015740D01*
X004003Y015682D02*
X003426Y015682D01*
X003465Y015623D02*
X004008Y015623D01*
X004067Y015565D02*
X003504Y015565D01*
X003533Y015521D02*
X003533Y015521D01*
X003536Y015506D02*
X004952Y015506D01*
X005011Y015448D02*
X003548Y015448D01*
X004003Y016150D02*
X001583Y016150D01*
X001586Y016208D02*
X004003Y016208D01*
X004680Y018373D02*
X001936Y018373D01*
X001951Y018431D02*
X004682Y018431D01*
X004683Y018490D02*
X001967Y018490D01*
X001983Y018548D02*
X004685Y018548D01*
X004685Y018558D02*
X004685Y018558D01*
X004703Y018607D02*
X001998Y018607D01*
X002014Y018665D02*
X004723Y018665D01*
X004744Y018724D02*
X002030Y018724D01*
X002045Y018782D02*
X004764Y018782D01*
X004785Y018841D02*
X002061Y018841D01*
X002077Y018899D02*
X004805Y018899D01*
X004826Y018958D02*
X002092Y018958D01*
X002108Y019016D02*
X004847Y019016D01*
X004867Y019075D02*
X002124Y019075D01*
X002139Y019133D02*
X004888Y019133D01*
X004908Y019192D02*
X002155Y019192D01*
X002171Y019250D02*
X004929Y019250D01*
X004949Y019309D02*
X002186Y019309D01*
X002205Y019367D02*
X004970Y019367D01*
X004998Y019426D02*
X002227Y019426D01*
X002250Y019484D02*
X005026Y019484D01*
X005055Y019543D02*
X002272Y019543D01*
X002294Y019601D02*
X005083Y019601D01*
X005111Y019660D02*
X002317Y019660D01*
X002339Y019718D02*
X005139Y019718D01*
X005168Y019777D02*
X002362Y019777D01*
X002384Y019835D02*
X005196Y019835D01*
X005224Y019894D02*
X002407Y019894D01*
X002429Y019952D02*
X005252Y019952D01*
X005281Y020011D02*
X002452Y020011D01*
X002474Y020069D02*
X005309Y020069D01*
X005337Y020128D02*
X002497Y020128D01*
X002519Y020186D02*
X005366Y020186D01*
X005394Y020245D02*
X002541Y020245D01*
X002564Y020303D02*
X005422Y020303D01*
X005450Y020362D02*
X004124Y020362D01*
X004122Y020359D02*
X004209Y020447D01*
X004209Y020473D01*
X004235Y020484D01*
X004318Y020449D01*
X004441Y020449D01*
X004489Y020469D01*
X004581Y020469D01*
X004678Y020429D01*
X004801Y020429D01*
X004915Y020477D01*
X005002Y020564D01*
X005022Y020584D01*
X005069Y020698D01*
X005069Y020821D01*
X005049Y020869D01*
X005049Y021029D01*
X005069Y021078D01*
X005069Y021201D01*
X005022Y021315D01*
X005002Y021335D01*
X004987Y021351D01*
X005259Y021405D01*
X005259Y021405D01*
X005583Y021621D01*
X005799Y021944D01*
X005799Y021944D01*
X005875Y022325D01*
X005799Y022707D01*
X005583Y023030D01*
X005583Y023030D01*
X005583Y023030D01*
X005259Y023246D01*
X004878Y023322D01*
X004497Y023246D01*
X004497Y023246D01*
X004173Y023030D01*
X003957Y022707D01*
X003957Y022707D01*
X003882Y022325D01*
X003957Y021944D01*
X004173Y021621D01*
X004173Y021621D01*
X004173Y021621D01*
X004430Y021449D01*
X004209Y021449D01*
X004209Y021572D01*
X004122Y021659D01*
X003497Y021659D01*
X003409Y021572D01*
X003409Y020447D01*
X003497Y020359D01*
X004122Y020359D01*
X004183Y020420D02*
X005479Y020420D01*
X005507Y020479D02*
X004917Y020479D01*
X004976Y020537D02*
X005543Y020537D01*
X005509Y020482D02*
X005509Y020482D01*
X005580Y020596D02*
X005027Y020596D01*
X005002Y020564D02*
X005002Y020564D01*
X005051Y020654D02*
X005617Y020654D01*
X005654Y020713D02*
X005069Y020713D01*
X005069Y020771D02*
X005691Y020771D01*
X005728Y020830D02*
X005066Y020830D01*
X005049Y020888D02*
X005765Y020888D01*
X005802Y020947D02*
X005049Y020947D01*
X005049Y021005D02*
X005838Y021005D01*
X005875Y021064D02*
X005064Y021064D01*
X005069Y021122D02*
X005912Y021122D01*
X005949Y021181D02*
X005069Y021181D01*
X005053Y021239D02*
X005986Y021239D01*
X006023Y021298D02*
X005029Y021298D01*
X005002Y021335D02*
X005002Y021335D01*
X005016Y021356D02*
X006060Y021356D01*
X006097Y021415D02*
X005275Y021415D01*
X005362Y021473D02*
X006134Y021473D01*
X006169Y021529D02*
X006169Y021529D01*
X006171Y021532D02*
X005450Y021532D01*
X005537Y021590D02*
X006218Y021590D01*
X006265Y021649D02*
X005601Y021649D01*
X005583Y021621D02*
X005583Y021621D01*
X005583Y021621D01*
X005641Y021707D02*
X006311Y021707D01*
X006358Y021766D02*
X005680Y021766D01*
X005719Y021824D02*
X006405Y021824D01*
X006452Y021883D02*
X005758Y021883D01*
X005797Y021941D02*
X006499Y021941D01*
X006546Y022000D02*
X005810Y022000D01*
X005821Y022058D02*
X006592Y022058D01*
X006639Y022117D02*
X005833Y022117D01*
X005845Y022175D02*
X006686Y022175D01*
X006733Y022234D02*
X005856Y022234D01*
X005868Y022292D02*
X006780Y022292D01*
X006827Y022351D02*
X005869Y022351D01*
X005858Y022409D02*
X006873Y022409D01*
X006920Y022468D02*
X005846Y022468D01*
X005835Y022526D02*
X006974Y022526D01*
X007032Y022585D02*
X005823Y022585D01*
X005811Y022643D02*
X007091Y022643D01*
X007150Y022702D02*
X005800Y022702D01*
X005799Y022707D02*
X005799Y022707D01*
X005763Y022760D02*
X007208Y022760D01*
X007267Y022819D02*
X005724Y022819D01*
X005685Y022877D02*
X007326Y022877D01*
X007385Y022936D02*
X005646Y022936D01*
X005606Y022994D02*
X007443Y022994D01*
X007502Y023053D02*
X006539Y023053D01*
X006663Y023078D02*
X006663Y023078D01*
X006986Y023294D01*
X007202Y023617D01*
X007278Y023998D01*
X007202Y024380D01*
X006986Y024703D01*
X006663Y024919D01*
X006282Y024995D01*
X005900Y024919D01*
X005577Y024703D01*
X005577Y024703D01*
X005577Y024703D01*
X005361Y024380D01*
X005361Y024380D01*
X005285Y023998D01*
X005361Y023617D01*
X005577Y023294D01*
X005577Y023294D01*
X005577Y023294D01*
X005900Y023078D01*
X006282Y023002D01*
X006663Y023078D01*
X006714Y023111D02*
X007561Y023111D01*
X007620Y023170D02*
X006801Y023170D01*
X006889Y023228D02*
X007678Y023228D01*
X007737Y023287D02*
X006976Y023287D01*
X006986Y023294D02*
X006986Y023294D01*
X006986Y023294D01*
X007021Y023345D02*
X007796Y023345D01*
X007818Y023368D02*
X007818Y023368D01*
X007864Y023404D02*
X007060Y023404D01*
X007099Y023462D02*
X007937Y023462D01*
X008011Y023521D02*
X007138Y023521D01*
X007177Y023579D02*
X008085Y023579D01*
X008159Y023638D02*
X007207Y023638D01*
X007202Y023617D02*
X007202Y023617D01*
X007218Y023696D02*
X008232Y023696D01*
X008306Y023755D02*
X007230Y023755D01*
X007241Y023813D02*
X008380Y023813D01*
X008453Y023872D02*
X007253Y023872D01*
X007265Y023930D02*
X008527Y023930D01*
X008601Y023989D02*
X007276Y023989D01*
X007268Y024047D02*
X008674Y024047D01*
X008748Y024106D02*
X007257Y024106D01*
X007245Y024164D02*
X008831Y024164D01*
X008787Y024137D02*
X008787Y024137D01*
X008925Y024223D02*
X007233Y024223D01*
X007222Y024281D02*
X009018Y024281D01*
X009112Y024340D02*
X007210Y024340D01*
X007202Y024380D02*
X007202Y024380D01*
X007190Y024398D02*
X009205Y024398D01*
X009299Y024457D02*
X008214Y024457D01*
X008336Y024481D02*
X008336Y024481D01*
X008659Y024697D01*
X008659Y024697D01*
X008659Y024697D01*
X008875Y025021D01*
X008951Y025402D01*
X008875Y025783D01*
X008875Y025783D01*
X008659Y026107D01*
X008336Y026323D01*
X007955Y026398D01*
X007955Y026398D01*
X007573Y026323D01*
X007250Y026107D01*
X007250Y026107D01*
X007250Y026107D01*
X007034Y025783D01*
X006958Y025402D01*
X006958Y025402D01*
X007034Y025021D01*
X007034Y025021D01*
X007250Y024697D01*
X007573Y024481D01*
X007573Y024481D01*
X007955Y024405D01*
X008336Y024481D01*
X008387Y024515D02*
X009393Y024515D01*
X009486Y024574D02*
X008475Y024574D01*
X008562Y024632D02*
X009580Y024632D01*
X009673Y024691D02*
X008650Y024691D01*
X008694Y024749D02*
X009767Y024749D01*
X009836Y024793D02*
X009836Y024793D01*
X009868Y024808D02*
X008733Y024808D01*
X008772Y024866D02*
X009990Y024866D01*
X010113Y024925D02*
X008811Y024925D01*
X008850Y024983D02*
X010235Y024983D01*
X010357Y025042D02*
X008879Y025042D01*
X008875Y025021D02*
X008875Y025021D01*
X008891Y025100D02*
X010480Y025100D01*
X010602Y025159D02*
X008903Y025159D01*
X008914Y025217D02*
X010724Y025217D01*
X010846Y025276D02*
X008926Y025276D01*
X008938Y025334D02*
X010975Y025334D01*
X010952Y025327D02*
X010952Y025327D01*
X011144Y025393D02*
X008949Y025393D01*
X008941Y025451D02*
X011312Y025451D01*
X011470Y025506D02*
X011470Y025506D01*
X011481Y025510D02*
X008929Y025510D01*
X008918Y025568D02*
X011650Y025568D01*
X011762Y025607D02*
X011762Y025607D01*
X012238Y025621D02*
X012238Y025621D01*
X012423Y025568D02*
X015559Y025568D01*
X015559Y025510D02*
X012628Y025510D01*
X012697Y025490D02*
X012697Y025490D01*
X012756Y025451D02*
X015559Y025451D01*
X015559Y025393D02*
X012845Y025393D01*
X012934Y025334D02*
X015559Y025334D01*
X015559Y025276D02*
X013022Y025276D01*
X013103Y025217D02*
X015559Y025217D01*
X015559Y025159D02*
X013151Y025159D01*
X013199Y025100D02*
X015559Y025100D01*
X015559Y025042D02*
X013246Y025042D01*
X013294Y024983D02*
X015559Y024983D01*
X015559Y024925D02*
X013341Y024925D01*
X013389Y024866D02*
X015559Y024866D01*
X015559Y024819D02*
X015510Y024770D01*
X015510Y020599D01*
X015609Y020500D01*
X016790Y020500D01*
X016889Y020599D01*
X016889Y021370D01*
X016894Y021344D01*
X016893Y021343D01*
X016906Y021275D01*
X016917Y021207D01*
X016919Y021206D01*
X016939Y021101D01*
X016939Y021046D01*
X016952Y021034D01*
X016955Y021016D01*
X017000Y020985D01*
X017058Y020927D01*
X017213Y020752D01*
X017474Y020363D01*
X017663Y019934D01*
X017774Y019479D01*
X017800Y019246D01*
X017804Y019176D01*
X017814Y019021D01*
X017969Y018599D01*
X018238Y018238D01*
X018599Y017969D01*
X019021Y017814D01*
X019021Y017814D01*
X019176Y017804D01*
X019246Y017800D01*
X019479Y017774D01*
X019934Y017663D01*
X020363Y017474D01*
X020752Y017213D01*
X020927Y017058D01*
X020983Y017002D01*
X021011Y016958D01*
X021032Y016954D01*
X021046Y016939D01*
X021098Y016939D01*
X021203Y016915D01*
X021204Y016914D01*
X021272Y016900D01*
X021339Y016885D01*
X021340Y016886D01*
X021397Y016874D01*
X021398Y016873D01*
X021465Y016860D01*
X021533Y016846D01*
X021534Y016847D01*
X021590Y016837D01*
X021591Y016836D01*
X021659Y016824D01*
X021726Y016812D01*
X021728Y016813D01*
X021783Y016804D01*
X021784Y016802D01*
X021852Y016792D01*
X021920Y016781D01*
X021922Y016782D01*
X021977Y016774D01*
X021978Y016772D01*
X022046Y016763D01*
X022114Y016753D01*
X022116Y016755D01*
X022170Y016747D01*
X022172Y016746D01*
X022240Y016739D01*
X022308Y016730D01*
X022309Y016731D01*
X022364Y016725D01*
X022365Y016724D01*
X022434Y016717D01*
X022502Y016710D01*
X022503Y016711D01*
X022558Y016706D01*
X022559Y016705D01*
X022627Y016700D01*
X022696Y016694D01*
X022697Y016695D01*
X022751Y016691D01*
X022752Y016690D01*
X022821Y016686D01*
X022890Y016681D01*
X022891Y016682D01*
X022945Y016679D01*
X022946Y016678D01*
X023015Y016676D01*
X023083Y016672D01*
X023085Y016673D01*
X023139Y016672D01*
X023140Y016670D01*
X023209Y016669D01*
X023277Y016667D01*
X023279Y016668D01*
X023332Y016668D01*
X023334Y016666D01*
X023402Y016667D01*
X023471Y016666D01*
X023472Y016667D01*
X023526Y016667D01*
X023527Y016666D01*
X023596Y016667D01*
X023665Y016668D01*
X023666Y016669D01*
X023720Y016670D01*
X023721Y016669D01*
X023790Y016672D01*
X023858Y016674D01*
X023860Y016675D01*
X023914Y016677D01*
X023915Y016676D01*
X023984Y016680D01*
X024052Y016683D01*
X024053Y016685D01*
X024107Y016688D01*
X024107Y016687D01*
X024176Y016692D01*
X024246Y016697D01*
X024246Y016697D01*
X024415Y016709D01*
X024858Y016885D01*
X024858Y016885D01*
X025228Y017185D01*
X025228Y017185D01*
X025228Y017185D01*
X025490Y017583D01*
X025490Y017583D01*
X025621Y018042D01*
X025607Y018518D01*
X025529Y018743D01*
X025506Y018810D01*
X025327Y019328D01*
X024793Y020444D01*
X024137Y021493D01*
X023368Y022462D01*
X022495Y023338D01*
X022495Y023338D01*
X021529Y024111D01*
X020482Y024771D01*
X019369Y025310D01*
X018851Y025491D01*
X018851Y025491D01*
X018785Y025515D01*
X018558Y025595D01*
X018077Y025609D01*
X017615Y025476D01*
X017615Y025476D01*
X017214Y025210D01*
X017214Y025210D01*
X017214Y025210D01*
X016913Y024834D01*
X016889Y024770D01*
X016859Y024799D01*
X016859Y026172D01*
X016772Y026259D01*
X015647Y026259D01*
X015559Y026172D01*
X015559Y024819D01*
X015548Y024808D02*
X013415Y024808D01*
X013438Y024749D02*
X015510Y024749D01*
X015510Y024691D02*
X013462Y024691D01*
X013485Y024632D02*
X015510Y024632D01*
X015510Y024574D02*
X013508Y024574D01*
X013531Y024515D02*
X015510Y024515D01*
X015510Y024457D02*
X013554Y024457D01*
X013571Y024415D02*
X013571Y024415D01*
X013572Y024398D02*
X015510Y024398D01*
X015510Y024340D02*
X013576Y024340D01*
X013580Y024281D02*
X015510Y024281D01*
X015510Y024223D02*
X013585Y024223D01*
X013589Y024164D02*
X015510Y024164D01*
X015510Y024106D02*
X013592Y024106D01*
X013597Y024047D02*
X015510Y024047D01*
X015510Y023989D02*
X013599Y023989D01*
X013603Y023930D02*
X015510Y023930D01*
X015510Y023872D02*
X013604Y023872D01*
X013607Y023813D02*
X015510Y023813D01*
X015510Y023755D02*
X013609Y023755D01*
X013610Y023696D02*
X015510Y023696D01*
X015510Y023638D02*
X013612Y023638D01*
X013613Y023579D02*
X015510Y023579D01*
X015510Y023521D02*
X013613Y023521D01*
X013614Y023462D02*
X015510Y023462D01*
X015510Y023404D02*
X013614Y023404D01*
X013614Y023345D02*
X015510Y023345D01*
X015510Y023287D02*
X013612Y023287D01*
X013611Y023228D02*
X015510Y023228D01*
X015510Y023170D02*
X013610Y023170D01*
X013607Y023111D02*
X015510Y023111D01*
X015510Y023053D02*
X013606Y023053D01*
X013604Y022994D02*
X015510Y022994D01*
X015510Y022936D02*
X013600Y022936D01*
X013598Y022877D02*
X015510Y022877D01*
X015510Y022819D02*
X013594Y022819D01*
X013591Y022760D02*
X015510Y022760D01*
X015510Y022702D02*
X013586Y022702D01*
X013582Y022643D02*
X015510Y022643D01*
X015510Y022585D02*
X013577Y022585D01*
X013571Y022526D02*
X015510Y022526D01*
X015510Y022468D02*
X013566Y022468D01*
X013561Y022409D02*
X015510Y022409D01*
X015510Y022351D02*
X013554Y022351D01*
X013548Y022292D02*
X015510Y022292D01*
X015510Y022234D02*
X013541Y022234D01*
X013534Y022175D02*
X015510Y022175D01*
X015510Y022117D02*
X013526Y022117D01*
X013518Y022058D02*
X015510Y022058D01*
X015510Y022000D02*
X013511Y022000D01*
X013501Y021941D02*
X015510Y021941D01*
X015510Y021883D02*
X013493Y021883D01*
X013484Y021824D02*
X015510Y021824D01*
X015510Y021766D02*
X013474Y021766D01*
X013465Y021707D02*
X015510Y021707D01*
X015510Y021649D02*
X013454Y021649D01*
X013444Y021590D02*
X015510Y021590D01*
X015510Y021532D02*
X013433Y021532D01*
X013421Y021473D02*
X015510Y021473D01*
X015510Y021415D02*
X013410Y021415D01*
X013397Y021356D02*
X015510Y021356D01*
X015510Y021298D02*
X013386Y021298D01*
X013373Y021239D02*
X015510Y021239D01*
X015510Y021181D02*
X013360Y021181D01*
X013347Y021122D02*
X015510Y021122D01*
X015510Y021064D02*
X013341Y021064D01*
X013313Y021005D02*
X015510Y021005D01*
X015510Y020947D02*
X013242Y020947D01*
X013188Y020888D02*
X015510Y020888D01*
X015510Y020830D02*
X013136Y020830D01*
X013084Y020771D02*
X015510Y020771D01*
X015510Y020713D02*
X013041Y020713D01*
X013002Y020654D02*
X015510Y020654D01*
X015513Y020596D02*
X012962Y020596D01*
X012923Y020537D02*
X015571Y020537D01*
X015454Y020011D02*
X017629Y020011D01*
X017604Y020069D02*
X015160Y020069D01*
X015140Y020073D02*
X015521Y019998D01*
X015521Y019998D01*
X015845Y019782D01*
X015845Y019782D01*
X015845Y019782D01*
X016061Y019458D01*
X016136Y019077D01*
X016061Y018696D01*
X016061Y018696D01*
X015845Y018372D01*
X015845Y018372D01*
X015845Y018372D01*
X015521Y018156D01*
X015521Y018156D01*
X015140Y018081D01*
X015140Y018081D01*
X014759Y018156D01*
X014435Y018372D01*
X014435Y018372D01*
X014219Y018696D01*
X014219Y018696D01*
X014144Y019077D01*
X014144Y019077D01*
X014219Y019458D01*
X014219Y019458D01*
X014435Y019782D01*
X014435Y019782D01*
X014435Y019782D01*
X014759Y019998D01*
X014759Y019998D01*
X015140Y020073D01*
X015140Y020073D01*
X015120Y020069D02*
X012676Y020069D01*
X012651Y020011D02*
X014826Y020011D01*
X014691Y019952D02*
X012625Y019952D01*
X012607Y019894D02*
X014604Y019894D01*
X014516Y019835D02*
X012593Y019835D01*
X012578Y019777D02*
X014432Y019777D01*
X014393Y019718D02*
X012564Y019718D01*
X012550Y019660D02*
X014354Y019660D01*
X014315Y019601D02*
X012535Y019601D01*
X012521Y019543D02*
X014276Y019543D01*
X014237Y019484D02*
X012507Y019484D01*
X012500Y019426D02*
X014213Y019426D01*
X014201Y019367D02*
X012494Y019367D01*
X012487Y019309D02*
X014190Y019309D01*
X014178Y019250D02*
X012481Y019250D01*
X012477Y019192D02*
X014166Y019192D01*
X014155Y019133D02*
X012473Y019133D01*
X012476Y019176D02*
X012476Y019176D01*
X012470Y019075D02*
X014144Y019075D01*
X014156Y019016D02*
X012464Y019016D01*
X012443Y018958D02*
X014167Y018958D01*
X014179Y018899D02*
X012421Y018899D01*
X012400Y018841D02*
X014190Y018841D01*
X014202Y018782D02*
X012378Y018782D01*
X012357Y018724D02*
X014214Y018724D01*
X014240Y018665D02*
X012335Y018665D01*
X012314Y018607D02*
X014279Y018607D01*
X014318Y018548D02*
X012273Y018548D01*
X012311Y018599D02*
X012311Y018599D01*
X012230Y018490D02*
X014357Y018490D01*
X014396Y018431D02*
X012186Y018431D01*
X012142Y018373D02*
X014435Y018373D01*
X014522Y018314D02*
X012099Y018314D01*
X012055Y018256D02*
X014610Y018256D01*
X014697Y018197D02*
X011987Y018197D01*
X011909Y018139D02*
X014846Y018139D01*
X015434Y018139D02*
X018371Y018139D01*
X018293Y018197D02*
X015583Y018197D01*
X015670Y018256D02*
X018225Y018256D01*
X018238Y018238D02*
X018238Y018238D01*
X018238Y018238D01*
X018181Y018314D02*
X015758Y018314D01*
X015845Y018373D02*
X018138Y018373D01*
X018094Y018431D02*
X015884Y018431D01*
X015923Y018490D02*
X018050Y018490D01*
X018007Y018548D02*
X015962Y018548D01*
X016001Y018607D02*
X017966Y018607D01*
X017969Y018599D02*
X017969Y018599D01*
X017945Y018665D02*
X016040Y018665D01*
X016066Y018724D02*
X017923Y018724D01*
X017902Y018782D02*
X016078Y018782D01*
X016090Y018841D02*
X017880Y018841D01*
X017859Y018899D02*
X016101Y018899D01*
X016113Y018958D02*
X017837Y018958D01*
X017816Y019016D02*
X016124Y019016D01*
X016136Y019075D02*
X017810Y019075D01*
X017814Y019021D02*
X017814Y019021D01*
X017807Y019133D02*
X016125Y019133D01*
X016114Y019192D02*
X017803Y019192D01*
X017804Y019176D02*
X017804Y019176D01*
X017799Y019250D02*
X016102Y019250D01*
X016090Y019309D02*
X017793Y019309D01*
X017786Y019367D02*
X016079Y019367D01*
X016067Y019426D02*
X017780Y019426D01*
X017773Y019484D02*
X016043Y019484D01*
X016061Y019458D02*
X016061Y019458D01*
X016004Y019543D02*
X017759Y019543D01*
X017745Y019601D02*
X015965Y019601D01*
X015926Y019660D02*
X017730Y019660D01*
X017716Y019718D02*
X015887Y019718D01*
X015848Y019777D02*
X017702Y019777D01*
X017687Y019835D02*
X015764Y019835D01*
X015676Y019894D02*
X017673Y019894D01*
X017655Y019952D02*
X015589Y019952D01*
X016827Y020537D02*
X017357Y020537D01*
X017396Y020479D02*
X012884Y020479D01*
X012844Y020420D02*
X017436Y020420D01*
X017475Y020362D02*
X012805Y020362D01*
X012780Y020303D02*
X017500Y020303D01*
X017526Y020245D02*
X012754Y020245D01*
X012728Y020186D02*
X017552Y020186D01*
X017578Y020128D02*
X012702Y020128D01*
X011830Y018080D02*
X018450Y018080D01*
X018528Y018022D02*
X011752Y018022D01*
X011681Y017969D02*
X011681Y017969D01*
X011666Y017963D02*
X018614Y017963D01*
X018599Y017969D02*
X018599Y017969D01*
X018774Y017905D02*
X011506Y017905D01*
X011347Y017846D02*
X018933Y017846D01*
X019176Y017804D02*
X019176Y017804D01*
X019354Y017788D02*
X010926Y017788D01*
X011104Y017804D02*
X011104Y017804D01*
X011259Y017814D02*
X011259Y017814D01*
X010617Y017729D02*
X019663Y017729D01*
X019903Y017671D02*
X010377Y017671D01*
X010230Y017612D02*
X020050Y017612D01*
X020182Y017554D02*
X010098Y017554D01*
X009965Y017495D02*
X020315Y017495D01*
X020418Y017437D02*
X009862Y017437D01*
X009775Y017378D02*
X020505Y017378D01*
X020593Y017320D02*
X009687Y017320D01*
X009600Y017261D02*
X020680Y017261D01*
X020763Y017203D02*
X009517Y017203D01*
X009451Y017144D02*
X020829Y017144D01*
X020896Y017086D02*
X015412Y017086D01*
X015630Y017027D02*
X020958Y017027D01*
X021004Y016969D02*
X015849Y016969D01*
X015974Y016910D02*
X021220Y016910D01*
X021506Y016852D02*
X016075Y016852D01*
X016176Y016793D02*
X021843Y016793D01*
X022268Y016735D02*
X016277Y016735D01*
X016361Y016676D02*
X022994Y016676D01*
X023893Y016676D02*
X023915Y016676D01*
X023921Y016676D02*
X026729Y016676D01*
X026768Y016618D02*
X016420Y016618D01*
X016478Y016559D02*
X026849Y016559D01*
X026773Y016611D02*
X027096Y016395D01*
X027477Y016319D01*
X027477Y016319D01*
X027858Y016395D01*
X027858Y016395D01*
X028182Y016611D01*
X028398Y016934D01*
X028474Y017315D01*
X028398Y017697D01*
X028182Y018020D01*
X028182Y018020D01*
X028182Y018020D01*
X027858Y018236D01*
X027477Y018312D01*
X027096Y018236D01*
X027096Y018236D01*
X026773Y018020D01*
X026773Y018020D01*
X026557Y017697D01*
X026557Y017697D01*
X026481Y017315D01*
X026557Y016934D01*
X026773Y016611D01*
X026773Y016611D01*
X026773Y016611D01*
X026690Y016735D02*
X024480Y016735D01*
X024415Y016709D02*
X024415Y016709D01*
X024628Y016793D02*
X026651Y016793D01*
X026611Y016852D02*
X024776Y016852D01*
X024890Y016910D02*
X026572Y016910D01*
X026557Y016934D02*
X026557Y016934D01*
X026550Y016969D02*
X024962Y016969D01*
X025034Y017027D02*
X026538Y017027D01*
X026526Y017086D02*
X025106Y017086D01*
X025178Y017144D02*
X026515Y017144D01*
X026503Y017203D02*
X025240Y017203D01*
X025278Y017261D02*
X026491Y017261D01*
X026481Y017315D02*
X026481Y017315D01*
X026482Y017320D02*
X025317Y017320D01*
X025356Y017378D02*
X026493Y017378D01*
X026505Y017437D02*
X025394Y017437D01*
X025433Y017495D02*
X026517Y017495D01*
X026528Y017554D02*
X025471Y017554D01*
X025499Y017612D02*
X026540Y017612D01*
X026551Y017671D02*
X025515Y017671D01*
X025532Y017729D02*
X026578Y017729D01*
X026618Y017788D02*
X025549Y017788D01*
X025565Y017846D02*
X026657Y017846D01*
X026696Y017905D02*
X025582Y017905D01*
X025599Y017963D02*
X026735Y017963D01*
X026773Y018020D02*
X026773Y018020D01*
X026776Y018022D02*
X025615Y018022D01*
X025621Y018042D02*
X025621Y018042D01*
X025620Y018080D02*
X026863Y018080D01*
X026951Y018139D02*
X025618Y018139D01*
X025617Y018197D02*
X027038Y018197D01*
X027196Y018256D02*
X025615Y018256D01*
X025613Y018314D02*
X028360Y018314D01*
X028376Y018256D02*
X027758Y018256D01*
X027858Y018236D02*
X027858Y018236D01*
X027916Y018197D02*
X028391Y018197D01*
X028407Y018139D02*
X028004Y018139D01*
X028091Y018080D02*
X028423Y018080D01*
X028438Y018022D02*
X028179Y018022D01*
X028220Y017963D02*
X028453Y017963D01*
X028463Y017905D02*
X028259Y017905D01*
X028298Y017846D02*
X028472Y017846D01*
X028481Y017788D02*
X028337Y017788D01*
X028376Y017729D02*
X028490Y017729D01*
X028500Y017671D02*
X028403Y017671D01*
X028398Y017697D02*
X028398Y017697D01*
X028415Y017612D02*
X028509Y017612D01*
X028518Y017554D02*
X028426Y017554D01*
X028438Y017495D02*
X028528Y017495D01*
X028537Y017437D02*
X028449Y017437D01*
X028461Y017378D02*
X028546Y017378D01*
X028555Y017320D02*
X028473Y017320D01*
X028463Y017261D02*
X028565Y017261D01*
X028574Y017203D02*
X028451Y017203D01*
X028440Y017144D02*
X028583Y017144D01*
X028592Y017086D02*
X028428Y017086D01*
X028416Y017027D02*
X028602Y017027D01*
X028611Y016969D02*
X028405Y016969D01*
X028398Y016934D02*
X028398Y016934D01*
X028382Y016910D02*
X028620Y016910D01*
X028629Y016852D02*
X028343Y016852D01*
X028304Y016793D02*
X028639Y016793D01*
X028648Y016735D02*
X028265Y016735D01*
X028226Y016676D02*
X028657Y016676D01*
X028667Y016618D02*
X028187Y016618D01*
X028182Y016611D02*
X028182Y016611D01*
X028182Y016611D01*
X028105Y016559D02*
X028675Y016559D01*
X028679Y016501D02*
X028017Y016501D01*
X027930Y016442D02*
X028682Y016442D01*
X028685Y016384D02*
X027804Y016384D01*
X027510Y016325D02*
X028688Y016325D01*
X028691Y016267D02*
X016741Y016267D01*
X016707Y016325D02*
X027444Y016325D01*
X027150Y016384D02*
X016654Y016384D01*
X016595Y016442D02*
X027024Y016442D01*
X027096Y016395D02*
X027096Y016395D01*
X026937Y016501D02*
X016537Y016501D01*
X016775Y016208D02*
X028694Y016208D01*
X028697Y016150D02*
X016809Y016150D01*
X016842Y016091D02*
X018851Y016091D01*
X018696Y016061D02*
X018696Y016061D01*
X018654Y016033D02*
X016876Y016033D01*
X016910Y015974D02*
X018567Y015974D01*
X018479Y015916D02*
X016944Y015916D01*
X016967Y015857D02*
X018392Y015857D01*
X018372Y015845D02*
X018372Y015845D01*
X018372Y015845D01*
X018342Y015799D02*
X016982Y015799D01*
X016998Y015740D02*
X018303Y015740D01*
X018264Y015682D02*
X017014Y015682D01*
X017029Y015623D02*
X018225Y015623D01*
X018186Y015565D02*
X017045Y015565D01*
X017061Y015506D02*
X018153Y015506D01*
X018156Y015521D02*
X018156Y015521D01*
X018142Y015448D02*
X017076Y015448D01*
X017090Y015389D02*
X018130Y015389D01*
X018119Y015331D02*
X017090Y015331D01*
X017090Y015272D02*
X018107Y015272D01*
X018095Y015214D02*
X017090Y015214D01*
X017090Y015155D02*
X018084Y015155D01*
X018081Y015140D02*
X018081Y015140D01*
X018089Y015097D02*
X017090Y015097D01*
X017090Y015038D02*
X018101Y015038D01*
X018112Y014980D02*
X017090Y014980D01*
X017090Y014921D02*
X018124Y014921D01*
X018136Y014863D02*
X017085Y014863D01*
X017069Y014804D02*
X018147Y014804D01*
X018165Y014746D02*
X017053Y014746D01*
X017038Y014687D02*
X018204Y014687D01*
X018243Y014629D02*
X017022Y014629D01*
X017006Y014570D02*
X018282Y014570D01*
X018321Y014512D02*
X016990Y014512D01*
X016975Y014453D02*
X018360Y014453D01*
X018433Y014395D02*
X016959Y014395D01*
X016928Y014336D02*
X018521Y014336D01*
X018608Y014278D02*
X016894Y014278D01*
X016860Y014219D02*
X018696Y014219D01*
X018696Y014219D01*
X018990Y014161D02*
X016826Y014161D01*
X016793Y014102D02*
X020470Y014102D01*
X020470Y014044D02*
X016759Y014044D01*
X016725Y013985D02*
X020470Y013985D01*
X020470Y013927D02*
X016685Y013927D01*
X016626Y013868D02*
X020470Y013868D01*
X020470Y013810D02*
X016568Y013810D01*
X016509Y013751D02*
X020470Y013751D01*
X020470Y013693D02*
X016451Y013693D01*
X016392Y013634D02*
X020470Y013634D01*
X020470Y013576D02*
X016331Y013576D01*
X016230Y013517D02*
X020470Y013517D01*
X020470Y013459D02*
X016128Y013459D01*
X016027Y013400D02*
X020498Y013400D01*
X020557Y013342D02*
X015926Y013342D01*
X015745Y013283D02*
X020988Y013283D01*
X020930Y013225D02*
X015527Y013225D01*
X015521Y012124D02*
X015521Y012124D01*
X015537Y012113D02*
X018334Y012113D01*
X018256Y012055D02*
X015624Y012055D01*
X015712Y011996D02*
X018204Y011996D01*
X018238Y012042D02*
X018238Y012042D01*
X018238Y012042D01*
X018161Y011938D02*
X015799Y011938D01*
X015863Y011879D02*
X018117Y011879D01*
X018074Y011821D02*
X015903Y011821D01*
X015942Y011762D02*
X018030Y011762D01*
X017986Y011704D02*
X015981Y011704D01*
X016020Y011645D02*
X017956Y011645D01*
X017969Y011681D02*
X017969Y011681D01*
X017935Y011587D02*
X016059Y011587D01*
X016072Y011528D02*
X017913Y011528D01*
X017892Y011470D02*
X016083Y011470D01*
X016095Y011411D02*
X017870Y011411D01*
X017849Y011353D02*
X016107Y011353D01*
X016118Y011294D02*
X017827Y011294D01*
X017812Y011236D02*
X016130Y011236D01*
X016131Y011177D02*
X017809Y011177D01*
X017805Y011119D02*
X016120Y011119D01*
X016108Y011060D02*
X017801Y011060D01*
X017804Y011104D02*
X017804Y011104D01*
X017796Y011002D02*
X016096Y011002D01*
X016085Y010943D02*
X017790Y010943D01*
X017784Y010885D02*
X016073Y010885D01*
X016062Y010826D02*
X017777Y010826D01*
X017766Y010768D02*
X016025Y010768D01*
X015986Y010709D02*
X017752Y010709D01*
X017738Y010651D02*
X015947Y010651D01*
X015907Y010592D02*
X017724Y010592D01*
X017709Y010534D02*
X015868Y010534D01*
X015810Y010475D02*
X017695Y010475D01*
X017681Y010417D02*
X015723Y010417D01*
X015635Y010358D02*
X017666Y010358D01*
X017643Y010300D02*
X015548Y010300D01*
X015521Y010282D02*
X015521Y010282D01*
X015315Y010241D02*
X017617Y010241D01*
X019021Y012466D02*
X019021Y012466D01*
X019246Y012480D02*
X019246Y012480D01*
X019077Y014144D02*
X019077Y014144D01*
X019164Y014161D02*
X020470Y014161D01*
X020470Y014219D02*
X019458Y014219D01*
X019546Y014278D02*
X020470Y014278D01*
X020470Y014336D02*
X019633Y014336D01*
X019721Y014395D02*
X020470Y014395D01*
X020470Y014453D02*
X019794Y014453D01*
X019833Y014512D02*
X020470Y014512D01*
X020470Y014570D02*
X019872Y014570D01*
X019911Y014629D02*
X020470Y014629D01*
X020517Y014687D02*
X019950Y014687D01*
X019077Y016136D02*
X019077Y016136D01*
X014868Y017086D02*
X009384Y017086D01*
X009322Y017027D02*
X014650Y017027D01*
X014431Y016969D02*
X009274Y016969D01*
X009678Y016910D02*
X014306Y016910D01*
X014205Y016852D02*
X009737Y016852D01*
X009759Y016793D02*
X014104Y016793D01*
X014003Y016735D02*
X009759Y016735D01*
X009759Y016676D02*
X013919Y016676D01*
X013860Y016618D02*
X009759Y016618D01*
X009759Y016559D02*
X013802Y016559D01*
X013743Y016501D02*
X009759Y016501D01*
X009759Y016442D02*
X013685Y016442D01*
X013626Y016384D02*
X009759Y016384D01*
X009759Y016325D02*
X013573Y016325D01*
X013539Y016267D02*
X009759Y016267D01*
X009759Y016208D02*
X013505Y016208D01*
X013471Y016150D02*
X009759Y016150D01*
X010822Y014219D02*
X010822Y014219D01*
X015140Y010207D02*
X015140Y010207D01*
X013290Y005327D02*
X013272Y005327D01*
X013290Y005269D02*
X013225Y005269D01*
X013270Y005210D02*
X013178Y005210D01*
X013131Y005152D02*
X013270Y005152D01*
X013270Y005093D02*
X013084Y005093D01*
X013066Y005070D02*
X013066Y005070D01*
X013013Y005035D02*
X013314Y005035D01*
X013439Y004976D02*
X012925Y004976D01*
X012837Y004918D02*
X013439Y004918D01*
X013439Y004859D02*
X012749Y004859D01*
X012655Y004801D02*
X013439Y004801D01*
X013439Y004742D02*
X012451Y004742D01*
X012247Y004684D02*
X013439Y004684D01*
X013439Y004625D02*
X008901Y004625D01*
X008889Y004567D02*
X013439Y004567D01*
X013439Y004508D02*
X008877Y004508D01*
X008875Y004497D02*
X008875Y004497D01*
X008844Y004450D02*
X013439Y004450D01*
X013439Y004391D02*
X008805Y004391D01*
X008766Y004333D02*
X013439Y004333D01*
X013439Y004274D02*
X008727Y004274D01*
X008687Y004216D02*
X013439Y004216D01*
X013439Y004157D02*
X008635Y004157D01*
X008547Y004099D02*
X013468Y004099D01*
X013526Y004040D02*
X008460Y004040D01*
X008372Y003982D02*
X021908Y003982D01*
X021944Y003957D02*
X021944Y003957D01*
X021820Y004040D02*
X014653Y004040D01*
X014711Y004099D02*
X021733Y004099D01*
X021645Y004157D02*
X014739Y004157D01*
X014739Y004216D02*
X021593Y004216D01*
X021621Y004173D02*
X021621Y004173D01*
X021621Y004173D01*
X021553Y004274D02*
X014739Y004274D01*
X014739Y004333D02*
X021514Y004333D01*
X021475Y004391D02*
X014739Y004391D01*
X014739Y004450D02*
X021436Y004450D01*
X021403Y004508D02*
X014739Y004508D01*
X014739Y004567D02*
X021391Y004567D01*
X021379Y004625D02*
X014739Y004625D01*
X014956Y003572D02*
X013572Y003572D01*
X013660Y003514D02*
X014730Y003514D01*
X014759Y003533D02*
X014435Y003317D01*
X014219Y002994D01*
X014144Y002613D01*
X014144Y002613D01*
X014219Y002231D01*
X014435Y001908D01*
X014435Y001908D01*
X014759Y001692D01*
X015140Y001616D01*
X015521Y001692D01*
X015521Y001692D01*
X015845Y001908D01*
X016061Y002231D01*
X016136Y002613D01*
X016061Y002994D01*
X015845Y003317D01*
X015845Y003317D01*
X015845Y003317D01*
X015521Y003533D01*
X015140Y003609D01*
X014759Y003533D01*
X014759Y003533D01*
X014642Y003455D02*
X013704Y003455D01*
X013669Y003507D02*
X013669Y003507D01*
X013669Y003507D01*
X013885Y003184D01*
X013961Y002803D01*
X013885Y002422D01*
X013885Y002422D01*
X013669Y002098D01*
X013669Y002098D01*
X013346Y001882D01*
X013346Y001882D01*
X012965Y001806D01*
X012965Y001806D01*
X012583Y001882D01*
X012583Y001882D01*
X012260Y002098D01*
X012260Y002098D01*
X012260Y002098D01*
X012044Y002422D01*
X012044Y002422D01*
X011968Y002803D01*
X011968Y002803D01*
X012044Y003184D01*
X012044Y003184D01*
X012260Y003507D01*
X012260Y003507D01*
X012260Y003507D01*
X012583Y003723D01*
X012583Y003723D01*
X012965Y003799D01*
X012965Y003799D01*
X013346Y003723D01*
X013346Y003723D01*
X013669Y003507D01*
X013743Y003397D02*
X014555Y003397D01*
X014467Y003338D02*
X013782Y003338D01*
X013821Y003280D02*
X014411Y003280D01*
X014435Y003317D02*
X014435Y003317D01*
X014435Y003317D01*
X014371Y003221D02*
X013860Y003221D01*
X013885Y003184D02*
X013885Y003184D01*
X013889Y003163D02*
X014332Y003163D01*
X014293Y003104D02*
X013901Y003104D01*
X013913Y003046D02*
X014254Y003046D01*
X014219Y002994D02*
X014219Y002994D01*
X014218Y002987D02*
X013924Y002987D01*
X013936Y002929D02*
X014206Y002929D01*
X014195Y002870D02*
X013948Y002870D01*
X013959Y002812D02*
X014183Y002812D01*
X014172Y002753D02*
X013951Y002753D01*
X013940Y002695D02*
X014160Y002695D01*
X014148Y002636D02*
X013928Y002636D01*
X013916Y002578D02*
X014150Y002578D01*
X014162Y002519D02*
X013905Y002519D01*
X013893Y002461D02*
X014174Y002461D01*
X014185Y002402D02*
X013872Y002402D01*
X013833Y002344D02*
X014197Y002344D01*
X014209Y002285D02*
X013794Y002285D01*
X013755Y002227D02*
X014222Y002227D01*
X014219Y002231D02*
X014219Y002231D01*
X014261Y002168D02*
X013716Y002168D01*
X013677Y002110D02*
X014300Y002110D01*
X014340Y002051D02*
X013599Y002051D01*
X013669Y002098D02*
X013669Y002098D01*
X013512Y001993D02*
X014379Y001993D01*
X014418Y001934D02*
X013424Y001934D01*
X013314Y001876D02*
X014483Y001876D01*
X014571Y001817D02*
X013020Y001817D01*
X012909Y001817D02*
X012375Y001817D01*
X012505Y001934D02*
X011912Y001934D01*
X012130Y001876D02*
X012615Y001876D01*
X012744Y001759D02*
X014658Y001759D01*
X014746Y001700D02*
X013113Y001700D01*
X013483Y001642D02*
X015010Y001642D01*
X015140Y001616D02*
X015140Y001616D01*
X015270Y001642D02*
X016797Y001642D01*
X016934Y001882D02*
X016611Y002098D01*
X016611Y002098D01*
X016611Y002098D01*
X016395Y002422D01*
X016395Y002422D01*
X016319Y002803D01*
X016319Y002803D01*
X016395Y003184D01*
X016395Y003184D01*
X016611Y003507D01*
X016611Y003507D01*
X016611Y003507D01*
X016934Y003723D01*
X016934Y003723D01*
X017315Y003799D01*
X017315Y003799D01*
X017697Y003723D01*
X018020Y003507D01*
X018020Y003507D01*
X018236Y003184D01*
X018312Y002803D01*
X018312Y002803D01*
X018236Y002422D01*
X018236Y002422D01*
X018020Y002098D01*
X018020Y002098D01*
X018020Y002098D01*
X017697Y001882D01*
X017697Y001882D01*
X017315Y001806D01*
X017315Y001806D01*
X016934Y001882D01*
X016934Y001882D01*
X016966Y001876D02*
X015797Y001876D01*
X015845Y001908D02*
X015845Y001908D01*
X015845Y001908D01*
X015862Y001934D02*
X016856Y001934D01*
X016768Y001993D02*
X015901Y001993D01*
X015940Y002051D02*
X016681Y002051D01*
X016603Y002110D02*
X015980Y002110D01*
X016019Y002168D02*
X016564Y002168D01*
X016525Y002227D02*
X016058Y002227D01*
X016061Y002231D02*
X016061Y002231D01*
X016071Y002285D02*
X016486Y002285D01*
X016447Y002344D02*
X016083Y002344D01*
X016095Y002402D02*
X016408Y002402D01*
X016387Y002461D02*
X016106Y002461D01*
X016118Y002519D02*
X016375Y002519D01*
X016364Y002578D02*
X016130Y002578D01*
X016132Y002636D02*
X016352Y002636D01*
X016340Y002695D02*
X016120Y002695D01*
X016108Y002753D02*
X016329Y002753D01*
X016321Y002812D02*
X016097Y002812D01*
X016085Y002870D02*
X016332Y002870D01*
X016344Y002929D02*
X016074Y002929D01*
X016062Y002987D02*
X016356Y002987D01*
X016367Y003046D02*
X016026Y003046D01*
X016061Y002994D02*
X016061Y002994D01*
X015987Y003104D02*
X016379Y003104D01*
X016391Y003163D02*
X015948Y003163D01*
X015909Y003221D02*
X016420Y003221D01*
X016459Y003280D02*
X015869Y003280D01*
X015813Y003338D02*
X016498Y003338D01*
X016537Y003397D02*
X015725Y003397D01*
X015638Y003455D02*
X016576Y003455D01*
X016620Y003514D02*
X015550Y003514D01*
X015521Y003533D02*
X015521Y003533D01*
X015324Y003572D02*
X016708Y003572D01*
X016796Y003631D02*
X013484Y003631D01*
X013397Y003689D02*
X016883Y003689D01*
X017057Y003748D02*
X013223Y003748D01*
X012706Y003748D02*
X007728Y003748D01*
X007818Y003689D02*
X012532Y003689D01*
X012445Y003631D02*
X007908Y003631D01*
X007998Y003572D02*
X012357Y003572D01*
X012270Y003514D02*
X008088Y003514D01*
X008178Y003455D02*
X012225Y003455D01*
X012186Y003397D02*
X008268Y003397D01*
X008365Y003338D02*
X012147Y003338D01*
X012108Y003280D02*
X008480Y003280D01*
X008594Y003221D02*
X012069Y003221D01*
X012040Y003163D02*
X008709Y003163D01*
X008824Y003104D02*
X012028Y003104D01*
X012017Y003046D02*
X008939Y003046D01*
X009054Y002987D02*
X012005Y002987D01*
X011993Y002929D02*
X009168Y002929D01*
X009283Y002870D02*
X011982Y002870D01*
X011970Y002812D02*
X009398Y002812D01*
X009513Y002753D02*
X011978Y002753D01*
X011990Y002695D02*
X009635Y002695D01*
X009788Y002636D02*
X012001Y002636D01*
X012013Y002578D02*
X009940Y002578D01*
X010093Y002519D02*
X012025Y002519D01*
X012036Y002461D02*
X010245Y002461D01*
X010397Y002402D02*
X012057Y002402D01*
X012096Y002344D02*
X010550Y002344D01*
X010702Y002285D02*
X012135Y002285D01*
X012174Y002227D02*
X010855Y002227D01*
X011038Y002168D02*
X012213Y002168D01*
X012252Y002110D02*
X011257Y002110D01*
X011475Y002051D02*
X012330Y002051D01*
X012418Y001993D02*
X011693Y001993D01*
X014125Y001583D02*
X016155Y001583D01*
X015709Y001817D02*
X017260Y001817D01*
X017371Y001817D02*
X017905Y001817D01*
X017775Y001934D02*
X018368Y001934D01*
X018150Y001876D02*
X017665Y001876D01*
X017536Y001759D02*
X015622Y001759D01*
X015534Y001700D02*
X017167Y001700D01*
X017862Y001993D02*
X018587Y001993D01*
X018805Y002051D02*
X017950Y002051D01*
X018028Y002110D02*
X019023Y002110D01*
X019242Y002168D02*
X018067Y002168D01*
X018106Y002227D02*
X019425Y002227D01*
X019578Y002285D02*
X018145Y002285D01*
X018184Y002344D02*
X019730Y002344D01*
X019883Y002402D02*
X018223Y002402D01*
X018244Y002461D02*
X020035Y002461D01*
X020187Y002519D02*
X018255Y002519D01*
X018267Y002578D02*
X020340Y002578D01*
X020492Y002636D02*
X018279Y002636D01*
X018290Y002695D02*
X020645Y002695D01*
X020767Y002753D02*
X018302Y002753D01*
X018310Y002812D02*
X020882Y002812D01*
X020997Y002870D02*
X018298Y002870D01*
X018287Y002929D02*
X021112Y002929D01*
X021226Y002987D02*
X018275Y002987D01*
X018263Y003046D02*
X021341Y003046D01*
X021456Y003104D02*
X018252Y003104D01*
X018240Y003163D02*
X021571Y003163D01*
X021686Y003221D02*
X018211Y003221D01*
X018236Y003184D02*
X018236Y003184D01*
X018172Y003280D02*
X021800Y003280D01*
X021915Y003338D02*
X018133Y003338D01*
X018094Y003397D02*
X022012Y003397D01*
X022102Y003455D02*
X018055Y003455D01*
X018010Y003514D02*
X022192Y003514D01*
X022282Y003572D02*
X017923Y003572D01*
X017835Y003631D02*
X022372Y003631D01*
X022462Y003689D02*
X017748Y003689D01*
X017574Y003748D02*
X022552Y003748D01*
X022642Y003806D02*
X007638Y003806D01*
X007745Y003923D02*
X007458Y003923D01*
X007955Y003882D02*
X007955Y003882D01*
X008164Y003923D02*
X022116Y003923D01*
X022535Y003923D02*
X022822Y003923D01*
X023201Y005327D02*
X023787Y005327D01*
X023580Y005386D02*
X023162Y005386D01*
X023122Y005444D02*
X023492Y005444D01*
X023405Y005503D02*
X023083Y005503D01*
X023044Y005561D02*
X023317Y005561D01*
X023265Y005620D02*
X022974Y005620D01*
X023030Y005583D02*
X023030Y005583D01*
X023030Y005583D01*
X022887Y005678D02*
X023226Y005678D01*
X023187Y005737D02*
X022799Y005737D01*
X022712Y005795D02*
X023148Y005795D01*
X022707Y005799D02*
X022707Y005799D01*
X022985Y007433D02*
X024575Y007433D01*
X024536Y007492D02*
X023044Y007492D01*
X023103Y007550D02*
X024497Y007550D01*
X024481Y007573D02*
X024481Y007573D01*
X024474Y007609D02*
X023161Y007609D01*
X023220Y007667D02*
X024463Y007667D01*
X024451Y007726D02*
X023279Y007726D01*
X023337Y007784D02*
X024439Y007784D01*
X024428Y007843D02*
X023384Y007843D01*
X023338Y007785D02*
X023338Y007785D01*
X023431Y007901D02*
X024416Y007901D01*
X024407Y007960D02*
X023478Y007960D01*
X023525Y008018D02*
X024418Y008018D01*
X024430Y008077D02*
X023572Y008077D01*
X023619Y008135D02*
X024441Y008135D01*
X024453Y008194D02*
X023665Y008194D01*
X023712Y008252D02*
X024465Y008252D01*
X024476Y008311D02*
X023759Y008311D01*
X023806Y008369D02*
X024504Y008369D01*
X024481Y008336D02*
X024481Y008336D01*
X024543Y008428D02*
X023853Y008428D01*
X023900Y008486D02*
X024582Y008486D01*
X024621Y008545D02*
X023946Y008545D01*
X023993Y008603D02*
X024660Y008603D01*
X024697Y008659D02*
X024697Y008659D01*
X024697Y008659D01*
X024701Y008662D02*
X024040Y008662D01*
X024087Y008720D02*
X024789Y008720D01*
X024877Y008779D02*
X024129Y008779D01*
X024111Y008751D02*
X024111Y008751D01*
X024166Y008837D02*
X024964Y008837D01*
X025125Y008896D02*
X024203Y008896D01*
X024240Y008954D02*
X027242Y008954D01*
X027212Y008896D02*
X025679Y008896D01*
X025783Y008875D02*
X025783Y008875D01*
X025840Y008837D02*
X027182Y008837D01*
X027153Y008779D02*
X025927Y008779D01*
X026015Y008720D02*
X027123Y008720D01*
X027093Y008662D02*
X026102Y008662D01*
X026144Y008603D02*
X027063Y008603D01*
X027033Y008545D02*
X026183Y008545D01*
X026222Y008486D02*
X027004Y008486D01*
X026974Y008428D02*
X026261Y008428D01*
X026300Y008369D02*
X026944Y008369D01*
X026911Y008311D02*
X026327Y008311D01*
X026323Y008336D02*
X026323Y008336D01*
X026339Y008252D02*
X026873Y008252D01*
X026835Y008194D02*
X026351Y008194D01*
X026362Y008135D02*
X026797Y008135D01*
X026759Y008077D02*
X026374Y008077D01*
X026386Y008018D02*
X026721Y008018D01*
X026683Y007960D02*
X026397Y007960D01*
X026388Y007901D02*
X026645Y007901D01*
X026607Y007843D02*
X026376Y007843D01*
X026365Y007784D02*
X026569Y007784D01*
X026531Y007726D02*
X026353Y007726D01*
X026341Y007667D02*
X026493Y007667D01*
X026455Y007609D02*
X026330Y007609D01*
X026323Y007573D02*
X026323Y007573D01*
X026307Y007550D02*
X026417Y007550D01*
X026379Y007492D02*
X026268Y007492D01*
X026229Y007433D02*
X026341Y007433D01*
X026303Y007375D02*
X026190Y007375D01*
X026151Y007316D02*
X026265Y007316D01*
X026227Y007258D02*
X026112Y007258D01*
X026107Y007250D02*
X026107Y007250D01*
X026107Y007250D01*
X026031Y007199D02*
X026189Y007199D01*
X026151Y007141D02*
X025943Y007141D01*
X025856Y007082D02*
X026104Y007082D01*
X026056Y007024D02*
X025733Y007024D01*
X024277Y009013D02*
X027272Y009013D01*
X027302Y009071D02*
X024313Y009071D01*
X024350Y009130D02*
X027331Y009130D01*
X027361Y009188D02*
X024387Y009188D01*
X024424Y009247D02*
X027391Y009247D01*
X027421Y009305D02*
X024461Y009305D01*
X024498Y009364D02*
X027451Y009364D01*
X027480Y009422D02*
X024535Y009422D01*
X024572Y009481D02*
X027510Y009481D01*
X027540Y009539D02*
X024609Y009539D01*
X024645Y009598D02*
X027570Y009598D01*
X027593Y009656D02*
X024682Y009656D01*
X024719Y009715D02*
X027616Y009715D01*
X027638Y009773D02*
X024756Y009773D01*
X024771Y009798D02*
X024771Y009798D01*
X024788Y009832D02*
X027661Y009832D01*
X027683Y009890D02*
X024816Y009890D01*
X024845Y009949D02*
X027705Y009949D01*
X027728Y010007D02*
X024873Y010007D01*
X024901Y010066D02*
X027750Y010066D01*
X027773Y010124D02*
X024929Y010124D01*
X024958Y010183D02*
X027795Y010183D01*
X027818Y010241D02*
X024986Y010241D01*
X025014Y010300D02*
X027840Y010300D01*
X027863Y010358D02*
X025042Y010358D01*
X025071Y010417D02*
X027885Y010417D01*
X027908Y010475D02*
X025099Y010475D01*
X025127Y010534D02*
X027930Y010534D01*
X027952Y010592D02*
X025156Y010592D01*
X025184Y010651D02*
X027975Y010651D01*
X027997Y010709D02*
X025212Y010709D01*
X025240Y010768D02*
X028020Y010768D01*
X028042Y010826D02*
X025269Y010826D01*
X025297Y010885D02*
X028065Y010885D01*
X028086Y010943D02*
X025321Y010943D01*
X025342Y011002D02*
X028102Y011002D01*
X028118Y011060D02*
X025362Y011060D01*
X025383Y011119D02*
X028133Y011119D01*
X028149Y011177D02*
X025403Y011177D01*
X025424Y011236D02*
X028165Y011236D01*
X028180Y011294D02*
X025444Y011294D01*
X025465Y011353D02*
X028196Y011353D01*
X028212Y011411D02*
X025485Y011411D01*
X025506Y011470D02*
X028227Y011470D01*
X028243Y011528D02*
X025527Y011528D01*
X025547Y011587D02*
X028259Y011587D01*
X028274Y011645D02*
X025568Y011645D01*
X025588Y011704D02*
X028290Y011704D01*
X028306Y011762D02*
X025596Y011762D01*
X025595Y011722D02*
X025595Y011722D01*
X025597Y011821D02*
X028321Y011821D01*
X028337Y011879D02*
X025599Y011879D01*
X025601Y011938D02*
X028353Y011938D01*
X028368Y011996D02*
X027619Y011996D01*
X027477Y011968D02*
X027858Y012044D01*
X027858Y012044D01*
X028182Y012260D01*
X028398Y012583D01*
X028474Y012965D01*
X028398Y013346D01*
X028182Y013669D01*
X028182Y013669D01*
X028182Y013669D01*
X027858Y013885D01*
X027477Y013961D01*
X027096Y013885D01*
X027096Y013885D01*
X026773Y013669D01*
X026773Y013669D01*
X026557Y013346D01*
X026557Y013346D01*
X026481Y012965D01*
X026481Y012965D01*
X026557Y012583D01*
X026773Y012260D01*
X027096Y012044D01*
X027477Y011968D01*
X027477Y011968D01*
X027335Y011996D02*
X025603Y011996D01*
X025604Y012055D02*
X027080Y012055D01*
X026992Y012113D02*
X025606Y012113D01*
X025608Y012172D02*
X026904Y012172D01*
X026817Y012230D02*
X025601Y012230D01*
X025609Y012203D02*
X025609Y012203D01*
X025584Y012289D02*
X026753Y012289D01*
X026773Y012260D02*
X026773Y012260D01*
X026714Y012347D02*
X025567Y012347D01*
X025551Y012406D02*
X026675Y012406D01*
X026636Y012464D02*
X025534Y012464D01*
X025517Y012523D02*
X026597Y012523D01*
X026558Y012581D02*
X025500Y012581D01*
X025484Y012640D02*
X026545Y012640D01*
X026557Y012583D02*
X026557Y012583D01*
X026534Y012698D02*
X025454Y012698D01*
X025415Y012757D02*
X026522Y012757D01*
X026510Y012815D02*
X025376Y012815D01*
X025337Y012874D02*
X026499Y012874D01*
X026487Y012932D02*
X025298Y012932D01*
X025259Y012991D02*
X026486Y012991D01*
X026498Y013049D02*
X025221Y013049D01*
X025157Y013108D02*
X026509Y013108D01*
X026521Y013166D02*
X025084Y013166D01*
X025011Y013225D02*
X026532Y013225D01*
X026544Y013283D02*
X024938Y013283D01*
X024902Y013342D02*
X026556Y013342D01*
X026593Y013400D02*
X024960Y013400D01*
X026219Y013459D02*
X026632Y013459D01*
X026671Y013517D02*
X026265Y013517D01*
X026265Y013576D02*
X026710Y013576D01*
X026749Y013634D02*
X026265Y013634D01*
X026265Y013693D02*
X026808Y013693D01*
X026773Y013669D02*
X026773Y013669D01*
X026896Y013751D02*
X026265Y013751D01*
X026265Y013810D02*
X026983Y013810D01*
X027071Y013868D02*
X026265Y013868D01*
X026265Y013927D02*
X027305Y013927D01*
X027477Y013961D02*
X027477Y013961D01*
X027649Y013927D02*
X028686Y013927D01*
X028689Y013985D02*
X026265Y013985D01*
X026265Y014044D02*
X028692Y014044D01*
X028695Y014102D02*
X026265Y014102D01*
X026265Y014629D02*
X026177Y014717D01*
X027858Y013885D02*
X027858Y013885D01*
X027884Y013868D02*
X028683Y013868D01*
X028680Y013810D02*
X027971Y013810D01*
X028059Y013751D02*
X028677Y013751D01*
X028671Y013693D02*
X028146Y013693D01*
X028205Y013634D02*
X028662Y013634D01*
X028653Y013576D02*
X028244Y013576D01*
X028283Y013517D02*
X028644Y013517D01*
X028634Y013459D02*
X028322Y013459D01*
X028361Y013400D02*
X028625Y013400D01*
X028616Y013342D02*
X028399Y013342D01*
X028398Y013346D02*
X028398Y013346D01*
X028410Y013283D02*
X028607Y013283D01*
X028597Y013225D02*
X028422Y013225D01*
X028433Y013166D02*
X028588Y013166D01*
X028579Y013108D02*
X028445Y013108D01*
X028457Y013049D02*
X028569Y013049D01*
X028560Y012991D02*
X028468Y012991D01*
X028467Y012932D02*
X028551Y012932D01*
X028542Y012874D02*
X028456Y012874D01*
X028444Y012815D02*
X028532Y012815D01*
X028523Y012757D02*
X028432Y012757D01*
X028421Y012698D02*
X028514Y012698D01*
X028505Y012640D02*
X028409Y012640D01*
X028398Y012583D02*
X028398Y012583D01*
X028397Y012581D02*
X028495Y012581D01*
X028486Y012523D02*
X028357Y012523D01*
X028318Y012464D02*
X028477Y012464D01*
X028468Y012406D02*
X028279Y012406D01*
X028240Y012347D02*
X028458Y012347D01*
X028447Y012289D02*
X028201Y012289D01*
X028182Y012260D02*
X028182Y012260D01*
X028182Y012260D01*
X028137Y012230D02*
X028431Y012230D01*
X028415Y012172D02*
X028050Y012172D01*
X027962Y012113D02*
X028400Y012113D01*
X028384Y012055D02*
X027875Y012055D01*
X027477Y018312D02*
X027477Y018312D01*
X028188Y018958D02*
X025455Y018958D01*
X025435Y019016D02*
X028172Y019016D01*
X028156Y019075D02*
X025414Y019075D01*
X025394Y019133D02*
X028141Y019133D01*
X028125Y019192D02*
X025374Y019192D01*
X025353Y019250D02*
X028109Y019250D01*
X028094Y019309D02*
X025333Y019309D01*
X025308Y019367D02*
X028075Y019367D01*
X028053Y019426D02*
X025280Y019426D01*
X025252Y019484D02*
X028030Y019484D01*
X028008Y019543D02*
X025224Y019543D01*
X025196Y019601D02*
X027986Y019601D01*
X027963Y019660D02*
X025168Y019660D01*
X025140Y019718D02*
X027941Y019718D01*
X027918Y019777D02*
X025112Y019777D01*
X025084Y019835D02*
X027896Y019835D01*
X027873Y019894D02*
X025056Y019894D01*
X025028Y019952D02*
X027851Y019952D01*
X027828Y020011D02*
X025000Y020011D01*
X024972Y020069D02*
X027806Y020069D01*
X027783Y020128D02*
X024944Y020128D01*
X024916Y020186D02*
X027761Y020186D01*
X027739Y020245D02*
X024888Y020245D01*
X024860Y020303D02*
X027716Y020303D01*
X027694Y020362D02*
X024832Y020362D01*
X024804Y020420D02*
X027671Y020420D01*
X027649Y020479D02*
X024771Y020479D01*
X024734Y020537D02*
X027626Y020537D01*
X027604Y020596D02*
X024698Y020596D01*
X024661Y020654D02*
X027581Y020654D01*
X027573Y020676D02*
X027573Y020676D01*
X027554Y020713D02*
X024624Y020713D01*
X024588Y020771D02*
X027524Y020771D01*
X027495Y020830D02*
X024551Y020830D01*
X024515Y020888D02*
X027465Y020888D01*
X027435Y020947D02*
X024478Y020947D01*
X024442Y021005D02*
X027405Y021005D01*
X027375Y021064D02*
X024405Y021064D01*
X024369Y021122D02*
X027346Y021122D01*
X027316Y021181D02*
X024332Y021181D01*
X024295Y021239D02*
X027286Y021239D01*
X027256Y021298D02*
X024259Y021298D01*
X024222Y021356D02*
X025264Y021356D01*
X025402Y021329D02*
X025402Y021329D01*
X025783Y021405D01*
X025783Y021405D01*
X026107Y021621D01*
X026323Y021944D01*
X026398Y022325D01*
X026323Y022707D01*
X026107Y023030D01*
X026107Y023030D01*
X026107Y023030D01*
X025783Y023246D01*
X025402Y023322D01*
X025402Y023322D01*
X025021Y023246D01*
X025021Y023246D01*
X024697Y023030D01*
X024481Y022707D01*
X024405Y022325D01*
X024481Y021944D01*
X024697Y021621D01*
X024697Y021621D01*
X024697Y021621D01*
X025021Y021405D01*
X025402Y021329D01*
X025540Y021356D02*
X027226Y021356D01*
X027196Y021415D02*
X025798Y021415D01*
X025886Y021473D02*
X027167Y021473D01*
X027137Y021532D02*
X025973Y021532D01*
X026061Y021590D02*
X027107Y021590D01*
X027077Y021649D02*
X026125Y021649D01*
X026107Y021621D02*
X026107Y021621D01*
X026107Y021621D01*
X026164Y021707D02*
X027047Y021707D01*
X027018Y021766D02*
X026203Y021766D01*
X026243Y021824D02*
X026988Y021824D01*
X026958Y021883D02*
X026282Y021883D01*
X026321Y021941D02*
X026928Y021941D01*
X026891Y022000D02*
X026334Y022000D01*
X026323Y021944D02*
X026323Y021944D01*
X026345Y022058D02*
X026853Y022058D01*
X026815Y022117D02*
X026357Y022117D01*
X026369Y022175D02*
X026777Y022175D01*
X026739Y022234D02*
X026380Y022234D01*
X026392Y022292D02*
X026701Y022292D01*
X026663Y022351D02*
X026393Y022351D01*
X026382Y022409D02*
X026625Y022409D01*
X026587Y022468D02*
X026370Y022468D01*
X026358Y022526D02*
X026549Y022526D01*
X026511Y022585D02*
X026347Y022585D01*
X026335Y022643D02*
X026473Y022643D01*
X026435Y022702D02*
X026323Y022702D01*
X026323Y022707D02*
X026323Y022707D01*
X026287Y022760D02*
X026397Y022760D01*
X026359Y022819D02*
X026248Y022819D01*
X026208Y022877D02*
X026321Y022877D01*
X026283Y022936D02*
X026169Y022936D01*
X026130Y022994D02*
X026245Y022994D01*
X026207Y023053D02*
X026072Y023053D01*
X025985Y023111D02*
X026169Y023111D01*
X026126Y023170D02*
X025897Y023170D01*
X025810Y023228D02*
X026079Y023228D01*
X026031Y023287D02*
X025578Y023287D01*
X025783Y023246D02*
X025783Y023246D01*
X025937Y023404D02*
X024777Y023404D01*
X024816Y023462D02*
X025889Y023462D01*
X025842Y023521D02*
X024855Y023521D01*
X024894Y023579D02*
X025794Y023579D01*
X025747Y023638D02*
X024923Y023638D01*
X024919Y023617D02*
X024995Y023998D01*
X024995Y023998D01*
X024919Y024380D01*
X024703Y024703D01*
X024703Y024703D01*
X024380Y024919D01*
X023998Y024995D01*
X023617Y024919D01*
X023294Y024703D01*
X023294Y024703D01*
X023078Y024380D01*
X023078Y024380D01*
X023002Y023998D01*
X023078Y023617D01*
X023294Y023294D01*
X023617Y023078D01*
X023998Y023002D01*
X024380Y023078D01*
X024703Y023294D01*
X024919Y023617D01*
X024919Y023617D01*
X024935Y023696D02*
X025700Y023696D01*
X025652Y023755D02*
X024946Y023755D01*
X024958Y023813D02*
X025605Y023813D01*
X025558Y023872D02*
X024970Y023872D01*
X024981Y023930D02*
X025510Y023930D01*
X025463Y023989D02*
X024993Y023989D01*
X024985Y024047D02*
X025415Y024047D01*
X025368Y024106D02*
X024973Y024106D01*
X024962Y024164D02*
X025321Y024164D01*
X025273Y024223D02*
X024950Y024223D01*
X024938Y024281D02*
X025219Y024281D01*
X025161Y024340D02*
X024927Y024340D01*
X024919Y024380D02*
X024919Y024380D01*
X024906Y024398D02*
X025102Y024398D01*
X025044Y024457D02*
X024867Y024457D01*
X024828Y024515D02*
X024985Y024515D01*
X024927Y024574D02*
X024789Y024574D01*
X024750Y024632D02*
X024868Y024632D01*
X024810Y024691D02*
X024711Y024691D01*
X024751Y024749D02*
X024633Y024749D01*
X024693Y024808D02*
X024546Y024808D01*
X024458Y024866D02*
X024634Y024866D01*
X024576Y024925D02*
X024349Y024925D01*
X024459Y025042D02*
X023250Y025042D01*
X023246Y025021D02*
X023322Y025402D01*
X023246Y025783D01*
X023030Y026107D01*
X022707Y026323D01*
X022707Y026323D01*
X022325Y026398D01*
X021944Y026323D01*
X021621Y026107D01*
X021621Y026107D01*
X021621Y026107D01*
X021405Y025783D01*
X021329Y025402D01*
X021329Y025402D01*
X021405Y025021D01*
X021405Y025021D01*
X021621Y024697D01*
X021944Y024481D01*
X021944Y024481D01*
X022325Y024405D01*
X022707Y024481D01*
X023030Y024697D01*
X023030Y024697D01*
X023030Y024697D01*
X023246Y025021D01*
X023246Y025021D01*
X023221Y024983D02*
X023942Y024983D01*
X023998Y024995D02*
X023998Y024995D01*
X024055Y024983D02*
X024517Y024983D01*
X024400Y025100D02*
X023262Y025100D01*
X023274Y025159D02*
X024342Y025159D01*
X024283Y025217D02*
X023285Y025217D01*
X023297Y025276D02*
X024220Y025276D01*
X024147Y025334D02*
X023309Y025334D01*
X023320Y025393D02*
X024075Y025393D01*
X024003Y025451D02*
X023312Y025451D01*
X023300Y025510D02*
X023931Y025510D01*
X023859Y025568D02*
X023289Y025568D01*
X023277Y025627D02*
X023786Y025627D01*
X023714Y025685D02*
X023266Y025685D01*
X023254Y025744D02*
X023642Y025744D01*
X023570Y025802D02*
X023233Y025802D01*
X023246Y025783D02*
X023246Y025783D01*
X023194Y025861D02*
X023497Y025861D01*
X023425Y025919D02*
X023155Y025919D01*
X023116Y025978D02*
X023353Y025978D01*
X023281Y026036D02*
X023077Y026036D01*
X023038Y026095D02*
X023208Y026095D01*
X023135Y026153D02*
X022960Y026153D01*
X023030Y026107D02*
X023030Y026107D01*
X023030Y026107D01*
X023045Y026212D02*
X022872Y026212D01*
X022955Y026270D02*
X022785Y026270D01*
X022865Y026329D02*
X022674Y026329D01*
X022775Y026387D02*
X022380Y026387D01*
X022325Y026398D02*
X022325Y026398D01*
X022271Y026387D02*
X008009Y026387D01*
X007900Y026387D02*
X007505Y026387D01*
X007573Y026323D02*
X007573Y026323D01*
X007606Y026329D02*
X007415Y026329D01*
X007495Y026270D02*
X007325Y026270D01*
X007408Y026212D02*
X007235Y026212D01*
X007320Y026153D02*
X007145Y026153D01*
X007072Y026095D02*
X007242Y026095D01*
X007203Y026036D02*
X006999Y026036D01*
X006927Y025978D02*
X007164Y025978D01*
X007125Y025919D02*
X006855Y025919D01*
X006783Y025861D02*
X007086Y025861D01*
X007047Y025802D02*
X006710Y025802D01*
X006638Y025744D02*
X007026Y025744D01*
X007034Y025783D02*
X007034Y025783D01*
X007014Y025685D02*
X006566Y025685D01*
X006494Y025627D02*
X007003Y025627D01*
X006991Y025568D02*
X006421Y025568D01*
X006349Y025510D02*
X006980Y025510D01*
X006968Y025451D02*
X006277Y025451D01*
X006205Y025393D02*
X006960Y025393D01*
X006971Y025334D02*
X006133Y025334D01*
X006060Y025276D02*
X006983Y025276D01*
X006995Y025217D02*
X005997Y025217D01*
X005938Y025159D02*
X007006Y025159D01*
X007018Y025100D02*
X005880Y025100D01*
X005821Y025042D02*
X007030Y025042D01*
X007059Y024983D02*
X006338Y024983D01*
X006282Y024995D02*
X006282Y024995D01*
X006225Y024983D02*
X005763Y024983D01*
X005704Y024925D02*
X005931Y024925D01*
X005900Y024919D02*
X005900Y024919D01*
X005822Y024866D02*
X005646Y024866D01*
X005587Y024808D02*
X005734Y024808D01*
X005647Y024749D02*
X005529Y024749D01*
X005569Y024691D02*
X005470Y024691D01*
X005412Y024632D02*
X005530Y024632D01*
X005491Y024574D02*
X005353Y024574D01*
X005295Y024515D02*
X005452Y024515D01*
X005413Y024457D02*
X005236Y024457D01*
X005178Y024398D02*
X005374Y024398D01*
X005353Y024340D02*
X005119Y024340D01*
X005061Y024281D02*
X005342Y024281D01*
X005330Y024223D02*
X005007Y024223D01*
X004959Y024164D02*
X005318Y024164D01*
X005307Y024106D02*
X004912Y024106D01*
X004865Y024047D02*
X005295Y024047D01*
X005285Y023998D02*
X005285Y023998D01*
X005287Y023989D02*
X004817Y023989D01*
X004770Y023930D02*
X005299Y023930D01*
X005310Y023872D02*
X004722Y023872D01*
X004675Y023813D02*
X005322Y023813D01*
X005334Y023755D02*
X004628Y023755D01*
X004580Y023696D02*
X005345Y023696D01*
X005357Y023638D02*
X004533Y023638D01*
X004486Y023579D02*
X005386Y023579D01*
X005361Y023617D02*
X005361Y023617D01*
X005425Y023521D02*
X004438Y023521D01*
X004391Y023462D02*
X005464Y023462D01*
X005503Y023404D02*
X004343Y023404D01*
X004296Y023345D02*
X005543Y023345D01*
X005587Y023287D02*
X005054Y023287D01*
X004878Y023322D02*
X004878Y023322D01*
X004702Y023287D02*
X004249Y023287D01*
X004201Y023228D02*
X004470Y023228D01*
X004383Y023170D02*
X004154Y023170D01*
X004111Y023111D02*
X004295Y023111D01*
X004208Y023053D02*
X004073Y023053D01*
X004035Y022994D02*
X004150Y022994D01*
X004173Y023030D02*
X004173Y023030D01*
X004173Y023030D01*
X004111Y022936D02*
X003997Y022936D01*
X003959Y022877D02*
X004072Y022877D01*
X004032Y022819D02*
X003921Y022819D01*
X003883Y022760D02*
X003993Y022760D01*
X003957Y022702D02*
X003845Y022702D01*
X003807Y022643D02*
X003945Y022643D01*
X003933Y022585D02*
X003769Y022585D01*
X003731Y022526D02*
X003922Y022526D01*
X003910Y022468D02*
X003693Y022468D01*
X003655Y022409D02*
X003898Y022409D01*
X003887Y022351D02*
X003617Y022351D01*
X003579Y022292D02*
X003888Y022292D01*
X003882Y022325D02*
X003882Y022325D01*
X003900Y022234D02*
X003541Y022234D01*
X003503Y022175D02*
X003911Y022175D01*
X003923Y022117D02*
X003465Y022117D01*
X003427Y022058D02*
X003935Y022058D01*
X003946Y022000D02*
X003389Y022000D01*
X003352Y021941D02*
X003959Y021941D01*
X003957Y021944D02*
X003957Y021944D01*
X003998Y021883D02*
X003322Y021883D01*
X003292Y021824D02*
X004037Y021824D01*
X004077Y021766D02*
X003262Y021766D01*
X003233Y021707D02*
X004116Y021707D01*
X004132Y021649D02*
X004155Y021649D01*
X004190Y021590D02*
X004219Y021590D01*
X004209Y021532D02*
X004307Y021532D01*
X004394Y021473D02*
X004209Y021473D01*
X003487Y021649D02*
X003203Y021649D01*
X003173Y021590D02*
X003428Y021590D01*
X003409Y021532D02*
X003143Y021532D01*
X003113Y021473D02*
X003409Y021473D01*
X003409Y021415D02*
X003084Y021415D01*
X003054Y021356D02*
X003409Y021356D01*
X003409Y021298D02*
X003024Y021298D01*
X002994Y021239D02*
X003409Y021239D01*
X003409Y021181D02*
X002964Y021181D01*
X002934Y021122D02*
X003409Y021122D01*
X003409Y021064D02*
X002905Y021064D01*
X002875Y021005D02*
X003409Y021005D01*
X003409Y020947D02*
X002845Y020947D01*
X002815Y020888D02*
X003409Y020888D01*
X003409Y020830D02*
X002785Y020830D01*
X002756Y020771D02*
X003409Y020771D01*
X003409Y020713D02*
X002726Y020713D01*
X002699Y020654D02*
X003409Y020654D01*
X003409Y020596D02*
X002676Y020596D01*
X002654Y020537D02*
X003409Y020537D01*
X003409Y020479D02*
X002631Y020479D01*
X002609Y020420D02*
X003436Y020420D01*
X003495Y020362D02*
X002586Y020362D01*
X004224Y020479D02*
X004246Y020479D01*
X006282Y023002D02*
X006282Y023002D01*
X006025Y023053D02*
X005548Y023053D01*
X005461Y023111D02*
X005850Y023111D01*
X005900Y023078D02*
X005900Y023078D01*
X005762Y023170D02*
X005373Y023170D01*
X005286Y023228D02*
X005675Y023228D01*
X005259Y023246D02*
X005259Y023246D01*
X006829Y024808D02*
X007176Y024808D01*
X007137Y024866D02*
X006741Y024866D01*
X006663Y024919D02*
X006663Y024919D01*
X006632Y024925D02*
X007098Y024925D01*
X007215Y024749D02*
X006917Y024749D01*
X006986Y024703D02*
X006986Y024703D01*
X006986Y024703D01*
X006994Y024691D02*
X007259Y024691D01*
X007250Y024697D02*
X007250Y024697D01*
X007250Y024697D01*
X007347Y024632D02*
X007033Y024632D01*
X007072Y024574D02*
X007435Y024574D01*
X007522Y024515D02*
X007112Y024515D01*
X007151Y024457D02*
X007696Y024457D01*
X007955Y024405D02*
X007955Y024405D01*
X008906Y025627D02*
X015559Y025627D01*
X015559Y025685D02*
X008895Y025685D01*
X008883Y025744D02*
X015559Y025744D01*
X015559Y025802D02*
X008862Y025802D01*
X008823Y025861D02*
X015559Y025861D01*
X015559Y025919D02*
X008784Y025919D01*
X008745Y025978D02*
X015559Y025978D01*
X015559Y026036D02*
X008706Y026036D01*
X008667Y026095D02*
X015559Y026095D01*
X015559Y026153D02*
X008589Y026153D01*
X008659Y026107D02*
X008659Y026107D01*
X008659Y026107D01*
X008501Y026212D02*
X015600Y026212D01*
X015185Y026680D02*
X016749Y026680D01*
X016662Y026738D02*
X015479Y026738D01*
X015521Y026747D02*
X015845Y026963D01*
X016061Y027286D01*
X016061Y027286D01*
X016136Y027667D01*
X016061Y028049D01*
X015845Y028372D01*
X015845Y028372D01*
X015521Y028588D01*
X015140Y028664D01*
X014759Y028588D01*
X014759Y028588D01*
X014435Y028372D01*
X014219Y028049D01*
X014144Y027667D01*
X014219Y027286D01*
X014435Y026963D01*
X014435Y026963D01*
X014435Y026963D01*
X014759Y026747D01*
X015140Y026671D01*
X015521Y026747D01*
X015521Y026747D01*
X015596Y026797D02*
X016594Y026797D01*
X016611Y026773D02*
X016611Y026773D01*
X016934Y026557D01*
X017315Y026481D01*
X017315Y026481D01*
X017697Y026557D01*
X018020Y026773D01*
X018236Y027096D01*
X018312Y027477D01*
X018236Y027858D01*
X018236Y027858D01*
X018020Y028182D01*
X017697Y028398D01*
X017697Y028398D01*
X017315Y028474D01*
X016934Y028398D01*
X016611Y028182D01*
X016611Y028182D01*
X016395Y027858D01*
X016319Y027477D01*
X016395Y027096D01*
X016611Y026773D01*
X016611Y026773D01*
X016555Y026855D02*
X015684Y026855D01*
X015771Y026914D02*
X016516Y026914D01*
X016477Y026972D02*
X015851Y026972D01*
X015845Y026963D02*
X015845Y026963D01*
X015845Y026963D01*
X015890Y027031D02*
X016438Y027031D01*
X016399Y027089D02*
X015929Y027089D01*
X015968Y027148D02*
X016384Y027148D01*
X016395Y027096D02*
X016395Y027096D01*
X016373Y027206D02*
X016007Y027206D01*
X016046Y027265D02*
X016361Y027265D01*
X016349Y027323D02*
X016068Y027323D01*
X016080Y027382D02*
X016338Y027382D01*
X016326Y027440D02*
X016091Y027440D01*
X016103Y027499D02*
X016323Y027499D01*
X016319Y027477D02*
X016319Y027477D01*
X016335Y027557D02*
X016115Y027557D01*
X016126Y027616D02*
X016347Y027616D01*
X016358Y027674D02*
X016135Y027674D01*
X016136Y027667D02*
X016136Y027667D01*
X016123Y027733D02*
X016370Y027733D01*
X016381Y027791D02*
X016112Y027791D01*
X016100Y027850D02*
X016393Y027850D01*
X016395Y027858D02*
X016395Y027858D01*
X016428Y027908D02*
X016089Y027908D01*
X016077Y027967D02*
X016467Y027967D01*
X016506Y028025D02*
X016065Y028025D01*
X016061Y028049D02*
X016061Y028049D01*
X016037Y028084D02*
X016545Y028084D01*
X016585Y028142D02*
X015998Y028142D01*
X015959Y028201D02*
X016640Y028201D01*
X016611Y028182D02*
X016611Y028182D01*
X016727Y028259D02*
X015920Y028259D01*
X015881Y028318D02*
X016815Y028318D01*
X016902Y028376D02*
X015838Y028376D01*
X015750Y028435D02*
X017121Y028435D01*
X016934Y028398D02*
X016934Y028398D01*
X016972Y028610D02*
X015409Y028610D01*
X015575Y028552D02*
X017341Y028552D01*
X017315Y028474D02*
X017315Y028474D01*
X017510Y028435D02*
X018035Y028435D01*
X017904Y028259D02*
X018690Y028259D01*
X018908Y028201D02*
X017991Y028201D01*
X018020Y028182D02*
X018020Y028182D01*
X018020Y028182D01*
X018046Y028142D02*
X019126Y028142D01*
X019345Y028084D02*
X018085Y028084D01*
X018124Y028025D02*
X019497Y028025D01*
X019650Y027967D02*
X018163Y027967D01*
X018203Y027908D02*
X019802Y027908D01*
X019955Y027850D02*
X018238Y027850D01*
X018249Y027791D02*
X020107Y027791D01*
X020259Y027733D02*
X018261Y027733D01*
X018273Y027674D02*
X020412Y027674D01*
X020564Y027616D02*
X018284Y027616D01*
X018296Y027557D02*
X020706Y027557D01*
X020821Y027499D02*
X018307Y027499D01*
X018305Y027440D02*
X020936Y027440D01*
X021051Y027382D02*
X018293Y027382D01*
X018281Y027323D02*
X021166Y027323D01*
X021281Y027265D02*
X018270Y027265D01*
X018258Y027206D02*
X021395Y027206D01*
X021510Y027148D02*
X018246Y027148D01*
X018236Y027096D02*
X018236Y027096D01*
X018232Y027089D02*
X021625Y027089D01*
X021740Y027031D02*
X018193Y027031D01*
X018154Y026972D02*
X021855Y026972D01*
X021964Y026914D02*
X018114Y026914D01*
X018075Y026855D02*
X022054Y026855D01*
X022144Y026797D02*
X018036Y026797D01*
X018020Y026773D02*
X018020Y026773D01*
X018020Y026773D01*
X017969Y026738D02*
X022234Y026738D01*
X022324Y026680D02*
X017881Y026680D01*
X017794Y026621D02*
X022415Y026621D01*
X022505Y026563D02*
X017706Y026563D01*
X017697Y026557D02*
X017697Y026557D01*
X017435Y026504D02*
X022595Y026504D01*
X022685Y026446D02*
X007595Y026446D01*
X007685Y026504D02*
X012845Y026504D01*
X012965Y026481D02*
X012965Y026481D01*
X013346Y026557D01*
X013669Y026773D01*
X013885Y027096D01*
X013961Y027477D01*
X013885Y027858D01*
X013885Y027858D01*
X013669Y028182D01*
X013346Y028398D01*
X012965Y028474D01*
X012965Y028474D01*
X012583Y028398D01*
X012260Y028182D01*
X012260Y028182D01*
X012260Y028182D01*
X012044Y027858D01*
X011968Y027477D01*
X012044Y027096D01*
X012044Y027096D01*
X012260Y026773D01*
X012260Y026773D01*
X012583Y026557D01*
X012965Y026481D01*
X013084Y026504D02*
X017196Y026504D01*
X016934Y026557D02*
X016934Y026557D01*
X016924Y026563D02*
X013356Y026563D01*
X013346Y026557D02*
X013346Y026557D01*
X013443Y026621D02*
X016837Y026621D01*
X016819Y026212D02*
X021779Y026212D01*
X021866Y026270D02*
X008414Y026270D01*
X008336Y026323D02*
X008336Y026323D01*
X008303Y026329D02*
X021977Y026329D01*
X021944Y026323D02*
X021944Y026323D01*
X021691Y026153D02*
X016859Y026153D01*
X016859Y026095D02*
X021613Y026095D01*
X021574Y026036D02*
X016859Y026036D01*
X016859Y025978D02*
X021535Y025978D01*
X021496Y025919D02*
X016859Y025919D01*
X016859Y025861D02*
X021457Y025861D01*
X021418Y025802D02*
X016859Y025802D01*
X016859Y025744D02*
X021397Y025744D01*
X021405Y025783D02*
X021405Y025783D01*
X021385Y025685D02*
X016859Y025685D01*
X016859Y025627D02*
X021374Y025627D01*
X021362Y025568D02*
X018632Y025568D01*
X018558Y025595D02*
X018558Y025595D01*
X018799Y025510D02*
X021351Y025510D01*
X021339Y025451D02*
X018965Y025451D01*
X019132Y025393D02*
X021331Y025393D01*
X021342Y025334D02*
X019298Y025334D01*
X019438Y025276D02*
X021354Y025276D01*
X021366Y025217D02*
X019559Y025217D01*
X019681Y025159D02*
X021377Y025159D01*
X021389Y025100D02*
X019802Y025100D01*
X019923Y025042D02*
X021401Y025042D01*
X021430Y024983D02*
X020044Y024983D01*
X020165Y024925D02*
X021469Y024925D01*
X021508Y024866D02*
X020286Y024866D01*
X020407Y024808D02*
X021547Y024808D01*
X021586Y024749D02*
X020517Y024749D01*
X020610Y024691D02*
X021630Y024691D01*
X021621Y024697D02*
X021621Y024697D01*
X021621Y024697D01*
X021718Y024632D02*
X020703Y024632D01*
X020795Y024574D02*
X021805Y024574D01*
X021893Y024515D02*
X020888Y024515D01*
X020981Y024457D02*
X022066Y024457D01*
X022325Y024405D02*
X022325Y024405D01*
X022584Y024457D02*
X023129Y024457D01*
X023090Y024398D02*
X021074Y024398D01*
X021166Y024340D02*
X023070Y024340D01*
X023058Y024281D02*
X021259Y024281D01*
X021352Y024223D02*
X023047Y024223D01*
X023035Y024164D02*
X021445Y024164D01*
X021536Y024106D02*
X023023Y024106D01*
X023012Y024047D02*
X021609Y024047D01*
X021682Y023989D02*
X023004Y023989D01*
X023002Y023998D02*
X023002Y023998D01*
X023015Y023930D02*
X021755Y023930D01*
X021828Y023872D02*
X023027Y023872D01*
X023039Y023813D02*
X021901Y023813D01*
X021974Y023755D02*
X023050Y023755D01*
X023062Y023696D02*
X022047Y023696D01*
X022120Y023638D02*
X023073Y023638D01*
X023078Y023617D02*
X023078Y023617D01*
X023103Y023579D02*
X022193Y023579D01*
X022267Y023521D02*
X023142Y023521D01*
X023181Y023462D02*
X022340Y023462D01*
X022413Y023404D02*
X023220Y023404D01*
X023259Y023345D02*
X022486Y023345D01*
X022546Y023287D02*
X023304Y023287D01*
X023294Y023294D02*
X023294Y023294D01*
X023294Y023294D01*
X023391Y023228D02*
X022604Y023228D01*
X022662Y023170D02*
X023479Y023170D01*
X023566Y023111D02*
X022721Y023111D01*
X022779Y023053D02*
X023741Y023053D01*
X023617Y023078D02*
X023617Y023078D01*
X023070Y022760D02*
X024517Y022760D01*
X024481Y022707D02*
X024481Y022707D01*
X024480Y022702D02*
X023129Y022702D01*
X023187Y022643D02*
X024469Y022643D01*
X024457Y022585D02*
X023245Y022585D01*
X023303Y022526D02*
X024445Y022526D01*
X024434Y022468D02*
X023362Y022468D01*
X023409Y022409D02*
X024422Y022409D01*
X024411Y022351D02*
X023456Y022351D01*
X023502Y022292D02*
X024412Y022292D01*
X024405Y022325D02*
X024405Y022325D01*
X024424Y022234D02*
X023549Y022234D01*
X023595Y022175D02*
X024435Y022175D01*
X024447Y022117D02*
X023642Y022117D01*
X023688Y022058D02*
X024459Y022058D01*
X024470Y022000D02*
X023734Y022000D01*
X023781Y021941D02*
X024483Y021941D01*
X024481Y021944D02*
X024481Y021944D01*
X024522Y021883D02*
X023827Y021883D01*
X023874Y021824D02*
X024561Y021824D01*
X024600Y021766D02*
X023920Y021766D01*
X023967Y021707D02*
X024639Y021707D01*
X024679Y021649D02*
X024013Y021649D01*
X024059Y021590D02*
X024743Y021590D01*
X024830Y021532D02*
X024106Y021532D01*
X024149Y021473D02*
X024918Y021473D01*
X025005Y021415D02*
X024186Y021415D01*
X025021Y021405D02*
X025021Y021405D01*
X024556Y022819D02*
X023012Y022819D01*
X022954Y022877D02*
X024595Y022877D01*
X024634Y022936D02*
X022895Y022936D01*
X022837Y022994D02*
X024674Y022994D01*
X024697Y023030D02*
X024697Y023030D01*
X024697Y023030D01*
X024732Y023053D02*
X024255Y023053D01*
X024380Y023078D02*
X024380Y023078D01*
X024430Y023111D02*
X024819Y023111D01*
X024907Y023170D02*
X024518Y023170D01*
X024605Y023228D02*
X024994Y023228D01*
X025226Y023287D02*
X024693Y023287D01*
X024703Y023294D02*
X024703Y023294D01*
X024703Y023294D01*
X024737Y023345D02*
X025984Y023345D01*
X023998Y023002D02*
X023998Y023002D01*
X023168Y024515D02*
X022758Y024515D01*
X022707Y024481D02*
X022707Y024481D01*
X022845Y024574D02*
X023208Y024574D01*
X023247Y024632D02*
X022933Y024632D01*
X023021Y024691D02*
X023286Y024691D01*
X023294Y024703D02*
X023294Y024703D01*
X023363Y024749D02*
X023065Y024749D01*
X023104Y024808D02*
X023451Y024808D01*
X023539Y024866D02*
X023143Y024866D01*
X023182Y024925D02*
X023648Y024925D01*
X023617Y024919D02*
X023617Y024919D01*
X018471Y028318D02*
X017816Y028318D01*
X017729Y028376D02*
X018253Y028376D01*
X017710Y028493D02*
X015663Y028493D01*
X015567Y028727D02*
X014713Y028727D01*
X014705Y028552D02*
X012939Y028552D01*
X012770Y028435D02*
X012245Y028435D01*
X012376Y028259D02*
X011590Y028259D01*
X011372Y028201D02*
X012289Y028201D01*
X012234Y028142D02*
X011154Y028142D01*
X010935Y028084D02*
X012195Y028084D01*
X012156Y028025D02*
X010783Y028025D01*
X010630Y027967D02*
X012117Y027967D01*
X012077Y027908D02*
X010478Y027908D01*
X010325Y027850D02*
X012042Y027850D01*
X012044Y027858D02*
X012044Y027858D01*
X012031Y027791D02*
X010173Y027791D01*
X010021Y027733D02*
X012019Y027733D01*
X012007Y027674D02*
X009868Y027674D01*
X009716Y027616D02*
X011996Y027616D01*
X011984Y027557D02*
X009574Y027557D01*
X009459Y027499D02*
X011973Y027499D01*
X011968Y027477D02*
X011968Y027477D01*
X011975Y027440D02*
X009344Y027440D01*
X009229Y027382D02*
X011987Y027382D01*
X011999Y027323D02*
X009114Y027323D01*
X008999Y027265D02*
X012010Y027265D01*
X012022Y027206D02*
X008885Y027206D01*
X008770Y027148D02*
X012034Y027148D01*
X012048Y027089D02*
X008655Y027089D01*
X008540Y027031D02*
X012087Y027031D01*
X012126Y026972D02*
X008425Y026972D01*
X008316Y026914D02*
X012166Y026914D01*
X012205Y026855D02*
X008226Y026855D01*
X008136Y026797D02*
X012244Y026797D01*
X012260Y026773D02*
X012260Y026773D01*
X012311Y026738D02*
X008046Y026738D01*
X007956Y026680D02*
X012399Y026680D01*
X012486Y026621D02*
X007865Y026621D01*
X007775Y026563D02*
X012574Y026563D01*
X012583Y026557D02*
X012583Y026557D01*
X013531Y026680D02*
X015095Y026680D01*
X015140Y026671D02*
X015140Y026671D01*
X014801Y026738D02*
X013618Y026738D01*
X013669Y026773D02*
X013669Y026773D01*
X013686Y026797D02*
X014684Y026797D01*
X014759Y026747D02*
X014759Y026747D01*
X014596Y026855D02*
X013725Y026855D01*
X013764Y026914D02*
X014509Y026914D01*
X014429Y026972D02*
X013803Y026972D01*
X013842Y027031D02*
X014390Y027031D01*
X014351Y027089D02*
X013881Y027089D01*
X013896Y027148D02*
X014312Y027148D01*
X014273Y027206D02*
X013907Y027206D01*
X013919Y027265D02*
X014234Y027265D01*
X014219Y027286D02*
X014219Y027286D01*
X014212Y027323D02*
X013931Y027323D01*
X013942Y027382D02*
X014200Y027382D01*
X014189Y027440D02*
X013954Y027440D01*
X013961Y027477D02*
X013961Y027477D01*
X013957Y027499D02*
X014177Y027499D01*
X014165Y027557D02*
X013945Y027557D01*
X013933Y027616D02*
X014154Y027616D01*
X014144Y027667D02*
X014144Y027667D01*
X014145Y027674D02*
X013922Y027674D01*
X013910Y027733D02*
X014157Y027733D01*
X014168Y027791D02*
X013899Y027791D01*
X013887Y027850D02*
X014180Y027850D01*
X014191Y027908D02*
X013852Y027908D01*
X013813Y027967D02*
X014203Y027967D01*
X014215Y028025D02*
X013774Y028025D01*
X013735Y028084D02*
X014243Y028084D01*
X014219Y028049D02*
X014219Y028049D01*
X014282Y028142D02*
X013695Y028142D01*
X013669Y028182D02*
X013669Y028182D01*
X013669Y028182D01*
X013640Y028201D02*
X014321Y028201D01*
X014360Y028259D02*
X013553Y028259D01*
X013465Y028318D02*
X014399Y028318D01*
X014435Y028372D02*
X014435Y028372D01*
X014435Y028372D01*
X014442Y028376D02*
X013378Y028376D01*
X013346Y028398D02*
X013346Y028398D01*
X013159Y028435D02*
X014530Y028435D01*
X014617Y028493D02*
X012570Y028493D01*
X012583Y028398D02*
X012583Y028398D01*
X012551Y028376D02*
X012027Y028376D01*
X011809Y028318D02*
X012464Y028318D01*
X013308Y028610D02*
X014871Y028610D01*
X015140Y028664D02*
X015140Y028664D01*
X013678Y028669D02*
X016602Y028669D01*
X016859Y025568D02*
X017937Y025568D01*
X018077Y025609D02*
X018077Y025609D01*
X017732Y025510D02*
X016859Y025510D01*
X016859Y025451D02*
X017577Y025451D01*
X017490Y025393D02*
X016859Y025393D01*
X016859Y025334D02*
X017402Y025334D01*
X017314Y025276D02*
X016859Y025276D01*
X016859Y025217D02*
X017226Y025217D01*
X017174Y025159D02*
X016859Y025159D01*
X016859Y025100D02*
X017127Y025100D01*
X017080Y025042D02*
X016859Y025042D01*
X016859Y024983D02*
X017033Y024983D01*
X016986Y024925D02*
X016859Y024925D01*
X016859Y024866D02*
X016939Y024866D01*
X016913Y024834D02*
X016913Y024834D01*
X016903Y024808D02*
X016859Y024808D01*
X016889Y021356D02*
X016891Y021356D01*
X016889Y021298D02*
X016901Y021298D01*
X016889Y021239D02*
X016912Y021239D01*
X016923Y021181D02*
X016889Y021181D01*
X016889Y021122D02*
X016935Y021122D01*
X016939Y021064D02*
X016889Y021064D01*
X016889Y021005D02*
X016970Y021005D01*
X017038Y020947D02*
X016889Y020947D01*
X016889Y020888D02*
X017092Y020888D01*
X017144Y020830D02*
X016889Y020830D01*
X016889Y020771D02*
X017196Y020771D01*
X017239Y020713D02*
X016889Y020713D01*
X016889Y020654D02*
X017278Y020654D01*
X017318Y020596D02*
X016886Y020596D01*
X025475Y018899D02*
X028203Y018899D01*
X028219Y018841D02*
X025495Y018841D01*
X025506Y018810D02*
X025506Y018810D01*
X025516Y018782D02*
X028235Y018782D01*
X028250Y018724D02*
X025536Y018724D01*
X025556Y018665D02*
X028266Y018665D01*
X028282Y018607D02*
X025577Y018607D01*
X025597Y018548D02*
X028297Y018548D01*
X028313Y018490D02*
X025608Y018490D01*
X025607Y018518D02*
X025607Y018518D01*
X025610Y018431D02*
X028329Y018431D01*
X028344Y018373D02*
X025612Y018373D01*
X011776Y004684D02*
X008912Y004684D01*
X008924Y004742D02*
X011560Y004742D01*
X011393Y004801D02*
X008936Y004801D01*
X008947Y004859D02*
X011227Y004859D01*
X011060Y004918D02*
X008943Y004918D01*
X008931Y004976D02*
X010899Y004976D01*
X010778Y005035D02*
X008920Y005035D01*
X008908Y005093D02*
X010657Y005093D01*
X010536Y005152D02*
X008897Y005152D01*
X008885Y005210D02*
X010415Y005210D01*
X010294Y005269D02*
X008869Y005269D01*
X008830Y005327D02*
X010173Y005327D01*
X010052Y005386D02*
X008791Y005386D01*
X008752Y005444D02*
X009930Y005444D01*
X009809Y005503D02*
X008712Y005503D01*
X008673Y005561D02*
X009714Y005561D01*
X009798Y005509D02*
X009798Y005509D01*
X009621Y005620D02*
X008603Y005620D01*
X008659Y005583D02*
X008659Y005583D01*
X008659Y005583D01*
X008516Y005678D02*
X009528Y005678D01*
X009436Y005737D02*
X008428Y005737D01*
X008341Y005795D02*
X009343Y005795D01*
X009250Y005854D02*
X008058Y005854D01*
X007851Y005854D02*
X007171Y005854D01*
X007205Y005912D02*
X009157Y005912D01*
X009065Y005971D02*
X007216Y005971D01*
X007228Y006029D02*
X008972Y006029D01*
X008879Y006088D02*
X007240Y006088D01*
X007251Y006146D02*
X008786Y006146D01*
X008751Y006169D02*
X008751Y006169D01*
X008706Y006205D02*
X007263Y006205D01*
X007275Y006263D02*
X008633Y006263D01*
X008560Y006322D02*
X007270Y006322D01*
X007259Y006380D02*
X008486Y006380D01*
X008413Y006439D02*
X007247Y006439D01*
X007235Y006497D02*
X008340Y006497D01*
X008267Y006556D02*
X007224Y006556D01*
X007212Y006614D02*
X008194Y006614D01*
X008121Y006673D02*
X007196Y006673D01*
X007202Y006663D02*
X007202Y006663D01*
X007157Y006731D02*
X008048Y006731D01*
X007975Y006790D02*
X007118Y006790D01*
X007078Y006848D02*
X007902Y006848D01*
X007829Y006907D02*
X007039Y006907D01*
X007000Y006965D02*
X007762Y006965D01*
X007703Y007024D02*
X006930Y007024D01*
X006986Y006986D02*
X006986Y006986D01*
X006986Y006986D01*
X006843Y007082D02*
X007645Y007082D01*
X007587Y007141D02*
X006755Y007141D01*
X006667Y007199D02*
X007529Y007199D01*
X007470Y007258D02*
X006384Y007258D01*
X006180Y007258D02*
X005588Y007258D01*
X005583Y007250D02*
X005799Y007573D01*
X005799Y007573D01*
X005875Y007955D01*
X005799Y008336D01*
X005583Y008659D01*
X005583Y008659D01*
X005583Y008659D01*
X005259Y008875D01*
X004878Y008951D01*
X004497Y008875D01*
X004497Y008875D01*
X004173Y008659D01*
X003957Y008336D01*
X003882Y007955D01*
X003882Y007955D01*
X003957Y007573D01*
X004173Y007250D01*
X004173Y007250D01*
X004173Y007250D01*
X004497Y007034D01*
X004878Y006958D01*
X004878Y006958D01*
X005259Y007034D01*
X005259Y007034D01*
X005583Y007250D01*
X005583Y007250D01*
X005583Y007250D01*
X005627Y007316D02*
X007412Y007316D01*
X007354Y007375D02*
X005666Y007375D01*
X005705Y007433D02*
X007296Y007433D01*
X007237Y007492D02*
X005744Y007492D01*
X005783Y007550D02*
X007179Y007550D01*
X007121Y007609D02*
X005806Y007609D01*
X005817Y007667D02*
X007062Y007667D01*
X007004Y007726D02*
X005829Y007726D01*
X005841Y007784D02*
X006946Y007784D01*
X006912Y007818D02*
X006912Y007818D01*
X006893Y007843D02*
X005852Y007843D01*
X005864Y007901D02*
X006846Y007901D01*
X006800Y007960D02*
X005873Y007960D01*
X005862Y008018D02*
X006753Y008018D01*
X006707Y008077D02*
X005850Y008077D01*
X005839Y008135D02*
X006660Y008135D01*
X006614Y008194D02*
X005827Y008194D01*
X005815Y008252D02*
X006568Y008252D01*
X006521Y008311D02*
X005804Y008311D01*
X005799Y008336D02*
X005799Y008336D01*
X005776Y008369D02*
X006475Y008369D01*
X006428Y008428D02*
X005737Y008428D01*
X005698Y008486D02*
X006382Y008486D01*
X006335Y008545D02*
X005659Y008545D01*
X005620Y008603D02*
X006289Y008603D01*
X006242Y008662D02*
X005579Y008662D01*
X005491Y008720D02*
X006196Y008720D01*
X006150Y008779D02*
X005403Y008779D01*
X005316Y008837D02*
X006112Y008837D01*
X006143Y008787D02*
X006143Y008787D01*
X006075Y008896D02*
X005155Y008896D01*
X005259Y008875D02*
X005259Y008875D01*
X004878Y008951D02*
X004878Y008951D01*
X004601Y008896D02*
X003068Y008896D01*
X003098Y008837D02*
X004440Y008837D01*
X004353Y008779D02*
X003127Y008779D01*
X003157Y008720D02*
X004265Y008720D01*
X004178Y008662D02*
X003187Y008662D01*
X003217Y008603D02*
X004136Y008603D01*
X004173Y008659D02*
X004173Y008659D01*
X004173Y008659D01*
X004097Y008545D02*
X003247Y008545D01*
X003276Y008486D02*
X004058Y008486D01*
X004019Y008428D02*
X003306Y008428D01*
X003336Y008369D02*
X003980Y008369D01*
X003957Y008336D02*
X003957Y008336D01*
X003953Y008311D02*
X003369Y008311D01*
X003407Y008252D02*
X003941Y008252D01*
X003929Y008194D02*
X003445Y008194D01*
X003483Y008135D02*
X003918Y008135D01*
X003906Y008077D02*
X003521Y008077D01*
X003559Y008018D02*
X003894Y008018D01*
X003883Y007960D02*
X003597Y007960D01*
X003635Y007901D02*
X003892Y007901D01*
X003904Y007843D02*
X003673Y007843D01*
X003711Y007784D02*
X003915Y007784D01*
X003927Y007726D02*
X003749Y007726D01*
X003787Y007667D02*
X003939Y007667D01*
X003950Y007609D02*
X003825Y007609D01*
X003863Y007550D02*
X003973Y007550D01*
X003957Y007573D02*
X003957Y007573D01*
X004012Y007492D02*
X003901Y007492D01*
X003939Y007433D02*
X004051Y007433D01*
X004090Y007375D02*
X003977Y007375D01*
X004015Y007316D02*
X004129Y007316D01*
X004168Y007258D02*
X004053Y007258D01*
X004091Y007199D02*
X004249Y007199D01*
X004337Y007141D02*
X004129Y007141D01*
X004176Y007082D02*
X004424Y007082D01*
X004497Y007034D02*
X004497Y007034D01*
X004547Y007024D02*
X004224Y007024D01*
X004271Y006965D02*
X004841Y006965D01*
X004915Y006965D02*
X005563Y006965D01*
X005577Y006986D02*
X005577Y006986D01*
X005633Y007024D02*
X005209Y007024D01*
X005332Y007082D02*
X005721Y007082D01*
X005808Y007141D02*
X005420Y007141D01*
X005507Y007199D02*
X005896Y007199D01*
X005900Y007202D02*
X005900Y007202D01*
X005524Y006907D02*
X004318Y006907D01*
X004366Y006848D02*
X005485Y006848D01*
X005446Y006790D02*
X004413Y006790D01*
X004461Y006731D02*
X005407Y006731D01*
X005368Y006673D02*
X004508Y006673D01*
X004555Y006614D02*
X005351Y006614D01*
X005340Y006556D02*
X004603Y006556D01*
X004650Y006497D02*
X005328Y006497D01*
X005317Y006439D02*
X004697Y006439D01*
X004745Y006380D02*
X005305Y006380D01*
X005293Y006322D02*
X004792Y006322D01*
X004840Y006263D02*
X005289Y006263D01*
X005285Y006282D02*
X005285Y006282D01*
X005301Y006205D02*
X004887Y006205D01*
X004934Y006146D02*
X005312Y006146D01*
X005324Y006088D02*
X004982Y006088D01*
X005030Y006029D02*
X005335Y006029D01*
X005347Y005971D02*
X005088Y005971D01*
X005147Y005912D02*
X005359Y005912D01*
X005361Y005900D02*
X005361Y005900D01*
X005392Y005854D02*
X005205Y005854D01*
X005264Y005795D02*
X005431Y005795D01*
X005470Y005737D02*
X005322Y005737D01*
X005381Y005678D02*
X005509Y005678D01*
X005549Y005620D02*
X005439Y005620D01*
X005498Y005561D02*
X005601Y005561D01*
X006282Y005285D02*
X006282Y005285D01*
X006493Y005327D02*
X007079Y005327D01*
X007118Y005386D02*
X006700Y005386D01*
X006788Y005444D02*
X007158Y005444D01*
X007197Y005503D02*
X006875Y005503D01*
X006963Y005561D02*
X007236Y005561D01*
X007306Y005620D02*
X007015Y005620D01*
X006986Y005577D02*
X006986Y005577D01*
X007054Y005678D02*
X007393Y005678D01*
X007481Y005737D02*
X007093Y005737D01*
X007132Y005795D02*
X007568Y005795D01*
X007573Y005799D02*
X007573Y005799D01*
X008336Y005799D02*
X008336Y005799D01*
X008336Y003957D02*
X008336Y003957D01*
X006663Y007202D02*
X006663Y007202D01*
X006038Y008954D02*
X003038Y008954D01*
X003008Y009013D02*
X006002Y009013D01*
X005965Y009071D02*
X002978Y009071D01*
X002949Y009130D02*
X005929Y009130D01*
X005892Y009188D02*
X002919Y009188D01*
X002889Y009247D02*
X005856Y009247D01*
X005819Y009305D02*
X002859Y009305D01*
X002829Y009364D02*
X005783Y009364D01*
X005746Y009422D02*
X002800Y009422D01*
X002770Y009481D02*
X005709Y009481D01*
X005673Y009539D02*
X002740Y009539D01*
X002710Y009598D02*
X005636Y009598D01*
X005600Y009656D02*
X002687Y009656D01*
X002664Y009715D02*
X005563Y009715D01*
X005527Y009773D02*
X002642Y009773D01*
X002619Y009832D02*
X005490Y009832D01*
X005487Y009836D02*
X005487Y009836D01*
X005461Y009890D02*
X002597Y009890D01*
X002575Y009949D02*
X005433Y009949D01*
X005405Y010007D02*
X002552Y010007D01*
X002530Y010066D02*
X005377Y010066D01*
X005349Y010124D02*
X002507Y010124D01*
X002485Y010183D02*
X005321Y010183D01*
X005293Y010241D02*
X002462Y010241D01*
X002440Y010300D02*
X005265Y010300D01*
X005237Y010358D02*
X002417Y010358D01*
X002395Y010417D02*
X005209Y010417D01*
X005181Y010475D02*
X002372Y010475D01*
X002350Y010534D02*
X005154Y010534D01*
X005126Y010592D02*
X002328Y010592D01*
X002305Y010651D02*
X005098Y010651D01*
X005070Y010709D02*
X002283Y010709D01*
X002260Y010768D02*
X005042Y010768D01*
X005014Y010826D02*
X002238Y010826D01*
X002215Y010885D02*
X004986Y010885D01*
X004958Y010943D02*
X002194Y010943D01*
X002178Y011002D02*
X004936Y011002D01*
X004953Y010952D02*
X004953Y010952D01*
X004916Y011060D02*
X002162Y011060D01*
X002147Y011119D02*
X004896Y011119D01*
X004875Y011177D02*
X002131Y011177D01*
X002115Y011236D02*
X004855Y011236D01*
X004835Y011294D02*
X002100Y011294D01*
X002084Y011353D02*
X004814Y011353D01*
X004794Y011411D02*
X002068Y011411D01*
X002021Y011587D02*
X004733Y011587D01*
X004713Y011645D02*
X002006Y011645D01*
X001990Y011704D02*
X004693Y011704D01*
X004673Y011762D02*
X004673Y011762D01*
X004672Y011762D02*
X001974Y011762D01*
X001959Y011821D02*
X004671Y011821D01*
X004669Y011879D02*
X001943Y011879D01*
X001927Y011938D02*
X004668Y011938D01*
X004666Y011996D02*
X002945Y011996D01*
X002803Y011968D02*
X002803Y011968D01*
X002661Y011996D02*
X001912Y011996D01*
X001896Y012055D02*
X002405Y012055D01*
X002422Y012044D02*
X002422Y012044D01*
X002318Y012113D02*
X001880Y012113D01*
X001865Y012172D02*
X002230Y012172D01*
X002143Y012230D02*
X001849Y012230D01*
X001833Y012289D02*
X002079Y012289D01*
X002040Y012347D02*
X001822Y012347D01*
X001812Y012406D02*
X002001Y012406D01*
X001962Y012464D02*
X001803Y012464D01*
X001794Y012523D02*
X001923Y012523D01*
X001883Y012581D02*
X001785Y012581D01*
X001775Y012640D02*
X001871Y012640D01*
X001882Y012583D02*
X001882Y012583D01*
X001859Y012698D02*
X001766Y012698D01*
X001757Y012757D02*
X001848Y012757D01*
X001836Y012815D02*
X001748Y012815D01*
X001738Y012874D02*
X001824Y012874D01*
X001813Y012932D02*
X001729Y012932D01*
X001720Y012991D02*
X001812Y012991D01*
X001806Y012965D02*
X001806Y012965D01*
X001823Y013049D02*
X001711Y013049D01*
X001701Y013108D02*
X001835Y013108D01*
X001847Y013166D02*
X001692Y013166D01*
X001683Y013225D02*
X001858Y013225D01*
X001870Y013283D02*
X001673Y013283D01*
X001664Y013342D02*
X001881Y013342D01*
X001919Y013400D02*
X001655Y013400D01*
X001646Y013459D02*
X001958Y013459D01*
X001997Y013517D02*
X001636Y013517D01*
X001627Y013576D02*
X002036Y013576D01*
X002075Y013634D02*
X001618Y013634D01*
X001609Y013693D02*
X002134Y013693D01*
X002098Y013669D02*
X002098Y013669D01*
X002098Y013669D01*
X002221Y013751D02*
X001603Y013751D01*
X001600Y013810D02*
X002309Y013810D01*
X002396Y013868D02*
X001597Y013868D01*
X003570Y013576D02*
X005937Y013576D01*
X005865Y013571D02*
X005865Y013571D01*
X005730Y013517D02*
X003609Y013517D01*
X003648Y013459D02*
X005582Y013459D01*
X005434Y013400D02*
X003687Y013400D01*
X003723Y013346D02*
X003723Y013346D01*
X003724Y013342D02*
X005356Y013342D01*
X005422Y013395D02*
X005422Y013395D01*
X005284Y013283D02*
X003736Y013283D01*
X003748Y013225D02*
X005212Y013225D01*
X005140Y013166D02*
X003759Y013166D01*
X003771Y013108D02*
X005068Y013108D01*
X005052Y013095D02*
X005052Y013095D01*
X005022Y013049D02*
X003782Y013049D01*
X003794Y012991D02*
X004983Y012991D01*
X004945Y012932D02*
X003793Y012932D01*
X003781Y012874D02*
X004906Y012874D01*
X004868Y012815D02*
X003770Y012815D01*
X003758Y012757D02*
X004829Y012757D01*
X004791Y012698D02*
X003746Y012698D01*
X003735Y012640D02*
X004773Y012640D01*
X004790Y012697D02*
X004790Y012697D01*
X004757Y012581D02*
X003722Y012581D01*
X003683Y012523D02*
X004740Y012523D01*
X004723Y012464D02*
X003644Y012464D01*
X003605Y012406D02*
X004707Y012406D01*
X004690Y012347D02*
X003566Y012347D01*
X003527Y012289D02*
X004673Y012289D01*
X004659Y012238D02*
X004659Y012238D01*
X004659Y012230D02*
X003463Y012230D01*
X003507Y012260D02*
X003507Y012260D01*
X003376Y012172D02*
X004661Y012172D01*
X004663Y012113D02*
X003288Y012113D01*
X003200Y012055D02*
X004664Y012055D01*
X015140Y003609D02*
X015140Y003609D01*
M02*
