%
M48
M72
T01C0.0160
T02C0.0200
T03C0.0866
T04C0.1260
%
T01
X10018Y6372
X10323Y6550
X10390Y6895
X10633Y7225
X10843Y7532
X11044Y7839
X11245Y8147
X11445Y8454
X7748Y15424
X7379Y15443
X7009Y15473
X6640Y15502
X6270Y15531
X5839Y15559
X5499Y15449
X5179Y15629
X11912Y22117
X11748Y22454
X11584Y22781
X11421Y23117
X11257Y23444
X11087Y23824
X10826Y24059
X10831Y24413
X19789Y21841
X20005Y22165
X20211Y22479
X20417Y22782
X20623Y23086
X20852Y23422
X20925Y23765
X21233Y23938
X23513Y14885
X23882Y14859
X24251Y14833
X24620Y14808
X24989Y14782
X25396Y14759
X25732Y14862
X26033Y14676
X19312Y8203
X19480Y7874
X19648Y7544
X19816Y7214
X19984Y6874
X20167Y6512
X20424Y6272
X20413Y5919
T02
X4001Y10931
X3904Y11316
X3807Y11700
X3699Y12093
X3612Y12478
X3092Y12320
X3179Y11935
X3276Y11551
X3363Y11166
X3459Y10792
T03
X7909Y5289
X9360Y4314
X10929Y3549
X15619Y2639
X20319Y3549
X21880Y4314
X23339Y5289
X26469Y8899
X28039Y13419
X28140Y15140
X28029Y16909
X26469Y21429
X23339Y25029
X21879Y26019
X20319Y26789
X15629Y27689
X10929Y26779
X9359Y26019
X7909Y25029
X4769Y21429
X3219Y16899
X3081Y15160
X3209Y13419
X4769Y8899
X11676Y15169
X13665Y18569
X17602Y18586
X19548Y15157
X17593Y11750
X13658Y11744
T04
X15620Y15160
M30
